<svg xmlns="http://www.w3.org/2000/svg" viewBox="0 0 800 300"><rect x="0" y="0" width="800" height="300" ry="6" style="fill:rgb(30,30,30);stroke:none;fill-opacity:1;stroke-opacity:1;" /><path d="M 30 20 L 30 270" style="stroke:rgb(200,200,200);stroke-width:1" /><path d="M 30 270 L 780 270" style="stroke:rgb(200,200,200);stroke-width:1" /><path d="M 780 270 L 780 272" style="stroke:rgb(200,200,200);stroke-width:1" /><text x="780" y="282" style="font-size:10px;fill:rgb(200,200,200);text-anchor:middle;text-align:center;"> 0.01 </text><path d="M 630.77246 270 L 630.77246 272" style="stroke:rgb(200,200,200);stroke-width:1" /><text x="630.77246" y="282" style="font-size:10px;fill:rgb(200,200,200);text-anchor:middle;text-align:center;"> 0.025 </text><path d="M 517.8862 270 L 517.8862 272" style="stroke:rgb(200,200,200);stroke-width:1" /><text x="517.8862" y="282" style="font-size:10px;fill:rgb(200,200,200);text-anchor:middle;text-align:center;"> 0.05 </text><path d="M 451.85202 270 L 451.85202 272" style="stroke:rgb(200,200,200);stroke-width:1" /><text x="451.85202" y="282" style="font-size:10px;fill:rgb(200,200,200);text-anchor:middle;text-align:center;"> 0.075 </text><path d="M 405 270 L 405 272" style="stroke:rgb(200,200,200);stroke-width:1" /><text x="405" y="282" style="font-size:10px;fill:rgb(200,200,200);text-anchor:middle;text-align:center;"> 0.1 </text><path d="M 338.96576 270 L 338.96576 272" style="stroke:rgb(200,200,200);stroke-width:1" /><text x="338.96576" y="282" style="font-size:10px;fill:rgb(200,200,200);text-anchor:middle;text-align:center;"> 0.15 </text><path d="M 292.11377 270 L 292.11377 272" style="stroke:rgb(200,200,200);stroke-width:1" /><text x="292.11377" y="282" style="font-size:10px;fill:rgb(200,200,200);text-anchor:middle;text-align:center;"> 0.2 </text><path d="M 255.7725 270 L 255.7725 272" style="stroke:rgb(200,200,200);stroke-width:1" /><text x="255.7725" y="282" style="font-size:10px;fill:rgb(200,200,200);text-anchor:middle;text-align:center;"> 0.25 </text><path d="M 142.88626 270 L 142.88626 272" style="stroke:rgb(200,200,200);stroke-width:1" /><text x="142.88626" y="282" style="font-size:10px;fill:rgb(200,200,200);text-anchor:middle;text-align:center;"> 0.5 </text><path d="M 30 270 L 30 272" style="stroke:rgb(200,200,200);stroke-width:1" /><text x="30" y="282" style="font-size:10px;fill:rgb(200,200,200);text-anchor:middle;text-align:center;"> 1 </text><path d="M 28 270 L 30 270" style="stroke:rgb(200,200,200);stroke-width:1" /><text x="26" y="274" style="font-size:10px;fill:rgb(200,200,200);text-anchor:end;text-align:right;"> 0 </text><path d="M 28 207.5 L 30 207.5" style="stroke:rgb(200,200,200);stroke-width:1" /><text x="26" y="211.5" style="font-size:10px;fill:rgb(200,200,200);text-anchor:end;text-align:right;"> 0.25 </text><path d="M 28 145 L 30 145" style="stroke:rgb(200,200,200);stroke-width:1" /><text x="26" y="149" style="font-size:10px;fill:rgb(200,200,200);text-anchor:end;text-align:right;"> 0.5 </text><path d="M 28 82.5 L 30 82.5" style="stroke:rgb(200,200,200);stroke-width:1" /><text x="26" y="86.5" style="font-size:10px;fill:rgb(200,200,200);text-anchor:end;text-align:right;"> 0.75 </text><path d="M 28 20 L 30 20" style="stroke:rgb(200,200,200);stroke-width:1" /><text x="26" y="24" style="font-size:10px;fill:rgb(200,200,200);text-anchor:end;text-align:right;"> 1 </text><text x="400" y="294" style="font-size:10px;fill:rgb(200,200,200);text-anchor:middle;text-align:center;"> Tolerance </text><circle cx="780" cy="118.46001" r="2" style="fill:rgb(255,181,90);stroke:none;fill-opacity:1;stroke-opacity:1;" /><path d="M 780 118.46001 L 630.77246 173.60251" style="stroke:rgb(255,181,90);stroke-width:1" /><circle cx="630.77246" cy="173.60251" r="2" style="fill:rgb(255,181,90);stroke:none;fill-opacity:1;stroke-opacity:1;" /><path d="M 630.77246 173.60251 L 517.8862 202.69751" style="stroke:rgb(255,181,90);stroke-width:1" /><circle cx="517.8862" cy="202.69751" r="2" style="fill:rgb(255,181,90);stroke:none;fill-opacity:1;stroke-opacity:1;" /><path d="M 517.8862 202.69751 L 451.85202 216.47" style="stroke:rgb(255,181,90);stroke-width:1" /><circle cx="451.85202" cy="216.47" r="2" style="fill:rgb(255,181,90);stroke:none;fill-opacity:1;stroke-opacity:1;" /><path d="M 451.85202 216.47 L 405 225.7075" style="stroke:rgb(255,181,90);stroke-width:1" /><circle cx="405" cy="225.7075" r="2" style="fill:rgb(255,181,90);stroke:none;fill-opacity:1;stroke-opacity:1;" /><path d="M 405 225.7075 L 338.96576 237.4225" style="stroke:rgb(255,181,90);stroke-width:1" /><circle cx="338.96576" cy="237.4225" r="2" style="fill:rgb(255,181,90);stroke:none;fill-opacity:1;stroke-opacity:1;" /><path d="M 338.96576 237.4225 L 292.11377 243.47751" style="stroke:rgb(255,181,90);stroke-width:1" /><circle cx="292.11377" cy="243.47751" r="2" style="fill:rgb(255,181,90);stroke:none;fill-opacity:1;stroke-opacity:1;" /><path d="M 292.11377 243.47751 L 255.7725 248.0075" style="stroke:rgb(255,181,90);stroke-width:1" /><circle cx="255.7725" cy="248.0075" r="2" style="fill:rgb(255,181,90);stroke:none;fill-opacity:1;stroke-opacity:1;" /><path d="M 255.7725 248.0075 L 142.88626 255.9475" style="stroke:rgb(255,181,90);stroke-width:1" /><circle cx="142.88626" cy="255.9475" r="2" style="fill:rgb(255,181,90);stroke:none;fill-opacity:1;stroke-opacity:1;" /><path d="M 142.88626 255.9475 L 30 260.7725" style="stroke:rgb(255,181,90);stroke-width:1" /><circle cx="30" cy="260.7725" r="2" style="fill:rgb(255,181,90);stroke:none;fill-opacity:1;stroke-opacity:1;" /><circle cx="780" cy="161.4375" r="2" style="fill:rgb(126,176,213);stroke:none;fill-opacity:1;stroke-opacity:1;" /><path d="M 780 161.4375 L 630.77246 186.07" style="stroke:rgb(126,176,213);stroke-width:1" /><circle cx="630.77246" cy="186.07" r="2" style="fill:rgb(126,176,213);stroke:none;fill-opacity:1;stroke-opacity:1;" /><path d="M 630.77246 186.07 L 517.8862 199.13" style="stroke:rgb(126,176,213);stroke-width:1" /><circle cx="517.8862" cy="199.13" r="2" style="fill:rgb(126,176,213);stroke:none;fill-opacity:1;stroke-opacity:1;" /><path d="M 517.8862 199.13 L 451.85202 205.9225" style="stroke:rgb(126,176,213);stroke-width:1" /><circle cx="451.85202" cy="205.9225" r="2" style="fill:rgb(126,176,213);stroke:none;fill-opacity:1;stroke-opacity:1;" /><path d="M 451.85202 205.9225 L 405 210.2175" style="stroke:rgb(126,176,213);stroke-width:1" /><circle cx="405" cy="210.2175" r="2" style="fill:rgb(126,176,213);stroke:none;fill-opacity:1;stroke-opacity:1;" /><path d="M 405 210.2175 L 338.96576 215.54001" style="stroke:rgb(126,176,213);stroke-width:1" /><circle cx="338.96576" cy="215.54001" r="2" style="fill:rgb(126,176,213);stroke:none;fill-opacity:1;stroke-opacity:1;" /><path d="M 338.96576 215.54001 L 292.11377 219.785" style="stroke:rgb(126,176,213);stroke-width:1" /><circle cx="292.11377" cy="219.785" r="2" style="fill:rgb(126,176,213);stroke:none;fill-opacity:1;stroke-opacity:1;" /><path d="M 292.11377 219.785 L 255.7725 222.0025" style="stroke:rgb(126,176,213);stroke-width:1" /><circle cx="255.7725" cy="222.0025" r="2" style="fill:rgb(126,176,213);stroke:none;fill-opacity:1;stroke-opacity:1;" /><path d="M 255.7725 222.0025 L 142.88626 229.0025" style="stroke:rgb(126,176,213);stroke-width:1" /><circle cx="142.88626" cy="229.0025" r="2" style="fill:rgb(126,176,213);stroke:none;fill-opacity:1;stroke-opacity:1;" /><path d="M 142.88626 229.0025 L 30 232.5975" style="stroke:rgb(126,176,213);stroke-width:1" /><circle cx="30" cy="232.5975" r="2" style="fill:rgb(126,176,213);stroke:none;fill-opacity:1;stroke-opacity:1;" /><circle cx="780" cy="20" r="2" style="fill:rgb(253,127,111);stroke:none;fill-opacity:1;stroke-opacity:1;" /><path d="M 780 20 L 630.77246 82.6075" style="stroke:rgb(253,127,111);stroke-width:1" /><circle cx="630.77246" cy="82.6075" r="2" style="fill:rgb(253,127,111);stroke:none;fill-opacity:1;stroke-opacity:1;" /><path d="M 630.77246 82.6075 L 517.8862 117.83" style="stroke:rgb(253,127,111);stroke-width:1" /><circle cx="517.8862" cy="117.83" r="2" style="fill:rgb(253,127,111);stroke:none;fill-opacity:1;stroke-opacity:1;" /><path d="M 517.8862 117.83 L 451.85202 134.47" style="stroke:rgb(253,127,111);stroke-width:1" /><circle cx="451.85202" cy="134.47" r="2" style="fill:rgb(253,127,111);stroke:none;fill-opacity:1;stroke-opacity:1;" /><path d="M 451.85202 134.47 L 405 146.0275" style="stroke:rgb(253,127,111);stroke-width:1" /><circle cx="405" cy="146.0275" r="2" style="fill:rgb(253,127,111);stroke:none;fill-opacity:1;stroke-opacity:1;" /><path d="M 405 146.0275 L 338.96576 159.2575" style="stroke:rgb(253,127,111);stroke-width:1" /><circle cx="338.96576" cy="159.2575" r="2" style="fill:rgb(253,127,111);stroke:none;fill-opacity:1;stroke-opacity:1;" /><path d="M 338.96576 159.2575 L 292.11377 167.20999" style="stroke:rgb(253,127,111);stroke-width:1" /><circle cx="292.11377" cy="167.20999" r="2" style="fill:rgb(253,127,111);stroke:none;fill-opacity:1;stroke-opacity:1;" /><path d="M 292.11377 167.20999 L 255.7725 173.215" style="stroke:rgb(253,127,111);stroke-width:1" /><circle cx="255.7725" cy="173.215" r="2" style="fill:rgb(253,127,111);stroke:none;fill-opacity:1;stroke-opacity:1;" /><path d="M 255.7725 173.215 L 142.88626 189.27249" style="stroke:rgb(253,127,111);stroke-width:1" /><circle cx="142.88626" cy="189.27249" r="2" style="fill:rgb(253,127,111);stroke:none;fill-opacity:1;stroke-opacity:1;" /><path d="M 142.88626 189.27249 L 30 202.1925" style="stroke:rgb(253,127,111);stroke-width:1" /><circle cx="30" cy="202.1925" r="2" style="fill:rgb(253,127,111);stroke:none;fill-opacity:1;stroke-opacity:1;" /><circle cx="780" cy="185.9825" r="2" style="fill:rgb(139,211,199);stroke:none;fill-opacity:1;stroke-opacity:1;" /><path d="M 780 185.9825 L 630.77246 211.77249" style="stroke:rgb(139,211,199);stroke-width:1" /><circle cx="630.77246" cy="211.77249" r="2" style="fill:rgb(139,211,199);stroke:none;fill-opacity:1;stroke-opacity:1;" /><path d="M 630.77246 211.77249 L 517.8862 224.6375" style="stroke:rgb(139,211,199);stroke-width:1" /><circle cx="517.8862" cy="224.6375" r="2" style="fill:rgb(139,211,199);stroke:none;fill-opacity:1;stroke-opacity:1;" /><path d="M 517.8862 224.6375 L 451.85202 229.965" style="stroke:rgb(139,211,199);stroke-width:1" /><circle cx="451.85202" cy="229.965" r="2" style="fill:rgb(139,211,199);stroke:none;fill-opacity:1;stroke-opacity:1;" /><path d="M 451.85202 229.965 L 405 232.88" style="stroke:rgb(139,211,199);stroke-width:1" /><circle cx="405" cy="232.88" r="2" style="fill:rgb(139,211,199);stroke:none;fill-opacity:1;stroke-opacity:1;" /><path d="M 405 232.88 L 338.96576 235.74" style="stroke:rgb(139,211,199);stroke-width:1" /><circle cx="338.96576" cy="235.74" r="2" style="fill:rgb(139,211,199);stroke:none;fill-opacity:1;stroke-opacity:1;" /><path d="M 338.96576 235.74 L 292.11377 236.4625" style="stroke:rgb(139,211,199);stroke-width:1" /><circle cx="292.11377" cy="236.4625" r="2" style="fill:rgb(139,211,199);stroke:none;fill-opacity:1;stroke-opacity:1;" /><path d="M 292.11377 236.4625 L 255.7725 236.9375" style="stroke:rgb(139,211,199);stroke-width:1" /><circle cx="255.7725" cy="236.9375" r="2" style="fill:rgb(139,211,199);stroke:none;fill-opacity:1;stroke-opacity:1;" /><path d="M 255.7725 236.9375 L 142.88626 238.17" style="stroke:rgb(139,211,199);stroke-width:1" /><circle cx="142.88626" cy="238.17" r="2" style="fill:rgb(139,211,199);stroke:none;fill-opacity:1;stroke-opacity:1;" /><path d="M 142.88626 238.17 L 30 238.4925" style="stroke:rgb(139,211,199);stroke-width:1" /><circle cx="30" cy="238.4925" r="2" style="fill:rgb(139,211,199);stroke:none;fill-opacity:1;stroke-opacity:1;" /><circle cx="780" cy="252.4" r="2" style="fill:rgb(189,126,190);stroke:none;fill-opacity:1;stroke-opacity:1;" /><path d="M 780 252.4 L 630.77246 256.4225" style="stroke:rgb(189,126,190);stroke-width:1" /><circle cx="630.77246" cy="256.4225" r="2" style="fill:rgb(189,126,190);stroke:none;fill-opacity:1;stroke-opacity:1;" /><path d="M 630.77246 256.4225 L 517.8862 258.4725" style="stroke:rgb(189,126,190);stroke-width:1" /><circle cx="517.8862" cy="258.4725" r="2" style="fill:rgb(189,126,190);stroke:none;fill-opacity:1;stroke-opacity:1;" /><path d="M 517.8862 258.4725 L 451.85202 259.665" style="stroke:rgb(189,126,190);stroke-width:1" /><circle cx="451.85202" cy="259.665" r="2" style="fill:rgb(189,126,190);stroke:none;fill-opacity:1;stroke-opacity:1;" /><path d="M 451.85202 259.665 L 405 260.2125" style="stroke:rgb(189,126,190);stroke-width:1" /><circle cx="405" cy="260.2125" r="2" style="fill:rgb(189,126,190);stroke:none;fill-opacity:1;stroke-opacity:1;" /><path d="M 405 260.2125 L 338.96576 260.99" style="stroke:rgb(189,126,190);stroke-width:1" /><circle cx="338.96576" cy="260.99" r="2" style="fill:rgb(189,126,190);stroke:none;fill-opacity:1;stroke-opacity:1;" /><path d="M 338.96576 260.99 L 292.11377 261.3925" style="stroke:rgb(189,126,190);stroke-width:1" /><circle cx="292.11377" cy="261.3925" r="2" style="fill:rgb(189,126,190);stroke:none;fill-opacity:1;stroke-opacity:1;" /><path d="M 292.11377 261.3925 L 255.7725 261.8425" style="stroke:rgb(189,126,190);stroke-width:1" /><circle cx="255.7725" cy="261.8425" r="2" style="fill:rgb(189,126,190);stroke:none;fill-opacity:1;stroke-opacity:1;" /><path d="M 255.7725 261.8425 L 142.88626 262.9825" style="stroke:rgb(189,126,190);stroke-width:1" /><circle cx="142.88626" cy="262.9825" r="2" style="fill:rgb(189,126,190);stroke:none;fill-opacity:1;stroke-opacity:1;" /><path d="M 142.88626 262.9825 L 30 263.815" style="stroke:rgb(189,126,190);stroke-width:1" /><circle cx="30" cy="263.815" r="2" style="fill:rgb(189,126,190);stroke:none;fill-opacity:1;stroke-opacity:1;" /><circle cx="780" cy="161.8425" r="2" style="fill:rgb(253,204,229);stroke:none;fill-opacity:1;stroke-opacity:1;" /><path d="M 780 161.8425 L 630.77246 186.80249" style="stroke:rgb(253,204,229);stroke-width:1" /><circle cx="630.77246" cy="186.80249" r="2" style="fill:rgb(253,204,229);stroke:none;fill-opacity:1;stroke-opacity:1;" /><path d="M 630.77246 186.80249 L 517.8862 201.20999" style="stroke:rgb(253,204,229);stroke-width:1" /><circle cx="517.8862" cy="201.20999" r="2" style="fill:rgb(253,204,229);stroke:none;fill-opacity:1;stroke-opacity:1;" /><path d="M 517.8862 201.20999 L 451.85202 208.9" style="stroke:rgb(253,204,229);stroke-width:1" /><circle cx="451.85202" cy="208.9" r="2" style="fill:rgb(253,204,229);stroke:none;fill-opacity:1;stroke-opacity:1;" /><path d="M 451.85202 208.9 L 405 215.9825" style="stroke:rgb(253,204,229);stroke-width:1" /><circle cx="405" cy="215.9825" r="2" style="fill:rgb(253,204,229);stroke:none;fill-opacity:1;stroke-opacity:1;" /><path d="M 405 215.9825 L 338.96576 224.005" style="stroke:rgb(253,204,229);stroke-width:1" /><circle cx="338.96576" cy="224.005" r="2" style="fill:rgb(253,204,229);stroke:none;fill-opacity:1;stroke-opacity:1;" /><path d="M 338.96576 224.005 L 292.11377 230.575" style="stroke:rgb(253,204,229);stroke-width:1" /><circle cx="292.11377" cy="230.575" r="2" style="fill:rgb(253,204,229);stroke:none;fill-opacity:1;stroke-opacity:1;" /><path d="M 292.11377 230.575 L 255.7725 235.565" style="stroke:rgb(253,204,229);stroke-width:1" /><circle cx="255.7725" cy="235.565" r="2" style="fill:rgb(253,204,229);stroke:none;fill-opacity:1;stroke-opacity:1;" /><path d="M 255.7725 235.565 L 142.88626 250.02249" style="stroke:rgb(253,204,229);stroke-width:1" /><circle cx="142.88626" cy="250.02249" r="2" style="fill:rgb(253,204,229);stroke:none;fill-opacity:1;stroke-opacity:1;" /><path d="M 142.88626 250.02249 L 30 258.0425" style="stroke:rgb(253,204,229);stroke-width:1" /><circle cx="30" cy="258.0425" r="2" style="fill:rgb(253,204,229);stroke:none;fill-opacity:1;stroke-opacity:1;" /><circle cx="780" cy="45.100006" r="2" style="fill:rgb(190,185,219);stroke:none;fill-opacity:1;stroke-opacity:1;" /><path d="M 780 45.100006 L 630.77246 119.384995" style="stroke:rgb(190,185,219);stroke-width:1" /><circle cx="630.77246" cy="119.384995" r="2" style="fill:rgb(190,185,219);stroke:none;fill-opacity:1;stroke-opacity:1;" /><path d="M 630.77246 119.384995 L 517.8862 153.42749" style="stroke:rgb(190,185,219);stroke-width:1" /><circle cx="517.8862" cy="153.42749" r="2" style="fill:rgb(190,185,219);stroke:none;fill-opacity:1;stroke-opacity:1;" /><path d="M 517.8862 153.42749 L 451.85202 169.1625" style="stroke:rgb(190,185,219);stroke-width:1" /><circle cx="451.85202" cy="169.1625" r="2" style="fill:rgb(190,185,219);stroke:none;fill-opacity:1;stroke-opacity:1;" /><path d="M 451.85202 169.1625 L 405 177.92749" style="stroke:rgb(190,185,219);stroke-width:1" /><circle cx="405" cy="177.92749" r="2" style="fill:rgb(190,185,219);stroke:none;fill-opacity:1;stroke-opacity:1;" /><path d="M 405 177.92749 L 338.96576 187.63" style="stroke:rgb(190,185,219);stroke-width:1" /><circle cx="338.96576" cy="187.63" r="2" style="fill:rgb(190,185,219);stroke:none;fill-opacity:1;stroke-opacity:1;" /><path d="M 338.96576 187.63 L 292.11377 193.23001" style="stroke:rgb(190,185,219);stroke-width:1" /><circle cx="292.11377" cy="193.23001" r="2" style="fill:rgb(190,185,219);stroke:none;fill-opacity:1;stroke-opacity:1;" /><path d="M 292.11377 193.23001 L 255.7725 196.93" style="stroke:rgb(190,185,219);stroke-width:1" /><circle cx="255.7725" cy="196.93" r="2" style="fill:rgb(190,185,219);stroke:none;fill-opacity:1;stroke-opacity:1;" /><path d="M 255.7725 196.93 L 142.88626 203.66" style="stroke:rgb(190,185,219);stroke-width:1" /><circle cx="142.88626" cy="203.66" r="2" style="fill:rgb(190,185,219);stroke:none;fill-opacity:1;stroke-opacity:1;" /><path d="M 142.88626 203.66 L 30 205.47751" style="stroke:rgb(190,185,219);stroke-width:1" /><circle cx="30" cy="205.47751" r="2" style="fill:rgb(190,185,219);stroke:none;fill-opacity:1;stroke-opacity:1;" /><circle cx="780" cy="246.04001" r="2" style="fill:rgb(178,224,97);stroke:none;fill-opacity:1;stroke-opacity:1;" /><path d="M 780 246.04001 L 630.77246 252.025" style="stroke:rgb(178,224,97);stroke-width:1" /><circle cx="630.77246" cy="252.025" r="2" style="fill:rgb(178,224,97);stroke:none;fill-opacity:1;stroke-opacity:1;" /><path d="M 630.77246 252.025 L 517.8862 255.1925" style="stroke:rgb(178,224,97);stroke-width:1" /><circle cx="517.8862" cy="255.1925" r="2" style="fill:rgb(178,224,97);stroke:none;fill-opacity:1;stroke-opacity:1;" /><path d="M 517.8862 255.1925 L 451.85202 256.7" style="stroke:rgb(178,224,97);stroke-width:1" /><circle cx="451.85202" cy="256.7" r="2" style="fill:rgb(178,224,97);stroke:none;fill-opacity:1;stroke-opacity:1;" /><path d="M 451.85202 256.7 L 405 257.5975" style="stroke:rgb(178,224,97);stroke-width:1" /><circle cx="405" cy="257.5975" r="2" style="fill:rgb(178,224,97);stroke:none;fill-opacity:1;stroke-opacity:1;" /><path d="M 405 257.5975 L 338.96576 258.655" style="stroke:rgb(178,224,97);stroke-width:1" /><circle cx="338.96576" cy="258.655" r="2" style="fill:rgb(178,224,97);stroke:none;fill-opacity:1;stroke-opacity:1;" /><path d="M 338.96576 258.655 L 292.11377 259.275" style="stroke:rgb(178,224,97);stroke-width:1" /><circle cx="292.11377" cy="259.275" r="2" style="fill:rgb(178,224,97);stroke:none;fill-opacity:1;stroke-opacity:1;" /><path d="M 292.11377 259.275 L 255.7725 259.6575" style="stroke:rgb(178,224,97);stroke-width:1" /><circle cx="255.7725" cy="259.6575" r="2" style="fill:rgb(178,224,97);stroke:none;fill-opacity:1;stroke-opacity:1;" /><path d="M 255.7725 259.6575 L 142.88626 260.78" style="stroke:rgb(178,224,97);stroke-width:1" /><circle cx="142.88626" cy="260.78" r="2" style="fill:rgb(178,224,97);stroke:none;fill-opacity:1;stroke-opacity:1;" /><path d="M 142.88626 260.78 L 30 262.1925" style="stroke:rgb(178,224,97);stroke-width:1" /><circle cx="30" cy="262.1925" r="2" style="fill:rgb(178,224,97);stroke:none;fill-opacity:1;stroke-opacity:1;" /><circle cx="780" cy="145.13" r="2" style="fill:rgb(255,238,101);stroke:none;fill-opacity:1;stroke-opacity:1;" /><path d="M 780 145.13 L 630.77246 189.8575" style="stroke:rgb(255,238,101);stroke-width:1" /><circle cx="630.77246" cy="189.8575" r="2" style="fill:rgb(255,238,101);stroke:none;fill-opacity:1;stroke-opacity:1;" /><path d="M 630.77246 189.8575 L 517.8862 211.755" style="stroke:rgb(255,238,101);stroke-width:1" /><circle cx="517.8862" cy="211.755" r="2" style="fill:rgb(255,238,101);stroke:none;fill-opacity:1;stroke-opacity:1;" /><path d="M 517.8862 211.755 L 451.85202 222.6725" style="stroke:rgb(255,238,101);stroke-width:1" /><circle cx="451.85202" cy="222.6725" r="2" style="fill:rgb(255,238,101);stroke:none;fill-opacity:1;stroke-opacity:1;" /><path d="M 451.85202 222.6725 L 405 229.2225" style="stroke:rgb(255,238,101);stroke-width:1" /><circle cx="405" cy="229.2225" r="2" style="fill:rgb(255,238,101);stroke:none;fill-opacity:1;stroke-opacity:1;" /><path d="M 405 229.2225 L 338.96576 237.9425" style="stroke:rgb(255,238,101);stroke-width:1" /><circle cx="338.96576" cy="237.9425" r="2" style="fill:rgb(255,238,101);stroke:none;fill-opacity:1;stroke-opacity:1;" /><path d="M 338.96576 237.9425 L 292.11377 242.4225" style="stroke:rgb(255,238,101);stroke-width:1" /><circle cx="292.11377" cy="242.4225" r="2" style="fill:rgb(255,238,101);stroke:none;fill-opacity:1;stroke-opacity:1;" /><path d="M 292.11377 242.4225 L 255.7725 245.495" style="stroke:rgb(255,238,101);stroke-width:1" /><circle cx="255.7725" cy="245.495" r="2" style="fill:rgb(255,238,101);stroke:none;fill-opacity:1;stroke-opacity:1;" /><path d="M 255.7725 245.495 L 142.88626 254.275" style="stroke:rgb(255,238,101);stroke-width:1" /><circle cx="142.88626" cy="254.275" r="2" style="fill:rgb(255,238,101);stroke:none;fill-opacity:1;stroke-opacity:1;" /><path d="M 142.88626 254.275 L 30 259.865" style="stroke:rgb(255,238,101);stroke-width:1" /><circle cx="30" cy="259.865" r="2" style="fill:rgb(255,238,101);stroke:none;fill-opacity:1;stroke-opacity:1;" /><rect x="676" y="16" width="80" height="196" ry="4" style="fill:rgb(30,30,30);stroke:none;fill-opacity:0.8;stroke-opacity:1;" /><rect x="680" y="20" width="20" height="20" ry="2" style="fill:rgb(190,185,219);stroke:none;fill-opacity:1;stroke-opacity:1;" /><text x="705" y="33" style="font-size:10px;fill:rgb(255,255,255);text-anchor:start;text-align:left;"> hain </text><rect x="680" y="41" width="20" height="20" ry="2" style="fill:rgb(139,211,199);stroke:none;fill-opacity:1;stroke-opacity:1;" /><text x="705" y="54" style="font-size:10px;fill:rgb(255,255,255);text-anchor:start;text-align:left;"> hfd </text><rect x="680" y="62" width="20" height="20" ry="2" style="fill:rgb(253,127,111);stroke:none;fill-opacity:1;stroke-opacity:1;" /><text x="705" y="75" style="font-size:10px;fill:rgb(255,255,255);text-anchor:start;text-align:left;"> levien </text><rect x="680" y="83" width="20" height="20" ry="2" style="fill:rgb(253,204,229);stroke:none;fill-opacity:1;stroke-opacity:1;" /><text x="705" y="96" style="font-size:10px;fill:rgb(255,255,255);text-anchor:start;text-align:left;"> levien-linear </text><rect x="680" y="104" width="20" height="20" ry="2" style="fill:rgb(126,176,213);stroke:none;fill-opacity:1;stroke-opacity:1;" /><text x="705" y="117" style="font-size:10px;fill:rgb(255,255,255);text-anchor:start;text-align:left;"> levien-simd </text><rect x="680" y="125" width="20" height="20" ry="2" style="fill:rgb(255,181,90);stroke:none;fill-opacity:1;stroke-opacity:1;" /><text x="705" y="138" style="font-size:10px;fill:rgb(255,255,255);text-anchor:start;text-align:left;"> linear </text><rect x="680" y="146" width="20" height="20" ry="2" style="fill:rgb(255,238,101);stroke:none;fill-opacity:1;stroke-opacity:1;" /><text x="705" y="159" style="font-size:10px;fill:rgb(255,255,255);text-anchor:start;text-align:left;"> recursive </text><rect x="680" y="167" width="20" height="20" ry="2" style="fill:rgb(178,224,97);stroke:none;fill-opacity:1;stroke-opacity:1;" /><text x="705" y="180" style="font-size:10px;fill:rgb(255,255,255);text-anchor:start;text-align:left;"> wang </text><rect x="680" y="188" width="20" height="20" ry="2" style="fill:rgb(189,126,190);stroke:none;fill-opacity:1;stroke-opacity:1;" /><text x="705" y="201" style="font-size:10px;fill:rgb(255,255,255);text-anchor:start;text-align:left;"> wang-simd </text><text x="400" y="30" style="font-size:20px;fill:rgb(255,255,255);text-anchor:middle;text-align:center;">  </text><text x="400" y="42" style="font-size:8px;fill:rgb(200,200,200);text-anchor:middle;text-align:center;"> Normalized performance score (lower is better) </text></svg>