<svg xmlns="http://www.w3.org/2000/svg" viewBox="0 0 800 300"><rect x="0" y="0" width="800" height="300" ry="6" style="fill:rgb(30,30,30);stroke:none;fill-opacity:1;stroke-opacity:1;" /><path d="M 30 20 L 30 270" style="stroke:rgb(200,200,200);stroke-width:1" /><path d="M 30 270 L 780 270" style="stroke:rgb(200,200,200);stroke-width:1" /><path d="M 780 270 L 780 272" style="stroke:rgb(200,200,200);stroke-width:1" /><text x="780" y="282" style="font-size:10px;fill:rgb(200,200,200);text-anchor:middle;text-align:center;"> 0.01 </text><path d="M 630.77246 270 L 630.77246 272" style="stroke:rgb(200,200,200);stroke-width:1" /><text x="630.77246" y="282" style="font-size:10px;fill:rgb(200,200,200);text-anchor:middle;text-align:center;"> 0.025 </text><path d="M 517.8862 270 L 517.8862 272" style="stroke:rgb(200,200,200);stroke-width:1" /><text x="517.8862" y="282" style="font-size:10px;fill:rgb(200,200,200);text-anchor:middle;text-align:center;"> 0.05 </text><path d="M 451.85202 270 L 451.85202 272" style="stroke:rgb(200,200,200);stroke-width:1" /><text x="451.85202" y="282" style="font-size:10px;fill:rgb(200,200,200);text-anchor:middle;text-align:center;"> 0.075 </text><path d="M 405 270 L 405 272" style="stroke:rgb(200,200,200);stroke-width:1" /><text x="405" y="282" style="font-size:10px;fill:rgb(200,200,200);text-anchor:middle;text-align:center;"> 0.1 </text><path d="M 338.96576 270 L 338.96576 272" style="stroke:rgb(200,200,200);stroke-width:1" /><text x="338.96576" y="282" style="font-size:10px;fill:rgb(200,200,200);text-anchor:middle;text-align:center;"> 0.15 </text><path d="M 292.11377 270 L 292.11377 272" style="stroke:rgb(200,200,200);stroke-width:1" /><text x="292.11377" y="282" style="font-size:10px;fill:rgb(200,200,200);text-anchor:middle;text-align:center;"> 0.2 </text><path d="M 255.7725 270 L 255.7725 272" style="stroke:rgb(200,200,200);stroke-width:1" /><text x="255.7725" y="282" style="font-size:10px;fill:rgb(200,200,200);text-anchor:middle;text-align:center;"> 0.25 </text><path d="M 142.88626 270 L 142.88626 272" style="stroke:rgb(200,200,200);stroke-width:1" /><text x="142.88626" y="282" style="font-size:10px;fill:rgb(200,200,200);text-anchor:middle;text-align:center;"> 0.5 </text><path d="M 30 270 L 30 272" style="stroke:rgb(200,200,200);stroke-width:1" /><text x="30" y="282" style="font-size:10px;fill:rgb(200,200,200);text-anchor:middle;text-align:center;"> 1 </text><path d="M 28 270 L 30 270" style="stroke:rgb(200,200,200);stroke-width:1" /><text x="26" y="274" style="font-size:10px;fill:rgb(200,200,200);text-anchor:end;text-align:right;"> 0 </text><path d="M 28 207.5 L 30 207.5" style="stroke:rgb(200,200,200);stroke-width:1" /><text x="26" y="211.5" style="font-size:10px;fill:rgb(200,200,200);text-anchor:end;text-align:right;"> 0.25 </text><path d="M 28 145 L 30 145" style="stroke:rgb(200,200,200);stroke-width:1" /><text x="26" y="149" style="font-size:10px;fill:rgb(200,200,200);text-anchor:end;text-align:right;"> 0.5 </text><path d="M 28 82.5 L 30 82.5" style="stroke:rgb(200,200,200);stroke-width:1" /><text x="26" y="86.5" style="font-size:10px;fill:rgb(200,200,200);text-anchor:end;text-align:right;"> 0.75 </text><path d="M 28 20 L 30 20" style="stroke:rgb(200,200,200);stroke-width:1" /><text x="26" y="24" style="font-size:10px;fill:rgb(200,200,200);text-anchor:end;text-align:right;"> 1 </text><text x="400" y="294" style="font-size:10px;fill:rgb(200,200,200);text-anchor:middle;text-align:center;"> Tolerance </text><circle cx="780" cy="228.41501" r="2" style="fill:rgb(189,126,190);stroke:none;fill-opacity:1;stroke-opacity:1;" /><path d="M 780 228.41501 L 630.77246 234.3225" style="stroke:rgb(189,126,190);stroke-width:1" /><circle cx="630.77246" cy="234.3225" r="2" style="fill:rgb(189,126,190);stroke:none;fill-opacity:1;stroke-opacity:1;" /><path d="M 630.77246 234.3225 L 517.8862 236.1825" style="stroke:rgb(189,126,190);stroke-width:1" /><circle cx="517.8862" cy="236.1825" r="2" style="fill:rgb(189,126,190);stroke:none;fill-opacity:1;stroke-opacity:1;" /><path d="M 517.8862 236.1825 L 451.85202 238.99" style="stroke:rgb(189,126,190);stroke-width:1" /><circle cx="451.85202" cy="238.99" r="2" style="fill:rgb(189,126,190);stroke:none;fill-opacity:1;stroke-opacity:1;" /><path d="M 451.85202 238.99 L 405 240.5375" style="stroke:rgb(189,126,190);stroke-width:1" /><circle cx="405" cy="240.5375" r="2" style="fill:rgb(189,126,190);stroke:none;fill-opacity:1;stroke-opacity:1;" /><path d="M 405 240.5375 L 338.96576 243.95" style="stroke:rgb(189,126,190);stroke-width:1" /><circle cx="338.96576" cy="243.95" r="2" style="fill:rgb(189,126,190);stroke:none;fill-opacity:1;stroke-opacity:1;" /><path d="M 338.96576 243.95 L 292.11377 246.925" style="stroke:rgb(189,126,190);stroke-width:1" /><circle cx="292.11377" cy="246.925" r="2" style="fill:rgb(189,126,190);stroke:none;fill-opacity:1;stroke-opacity:1;" /><path d="M 292.11377 246.925 L 255.7725 248.2875" style="stroke:rgb(189,126,190);stroke-width:1" /><circle cx="255.7725" cy="248.2875" r="2" style="fill:rgb(189,126,190);stroke:none;fill-opacity:1;stroke-opacity:1;" /><path d="M 255.7725 248.2875 L 142.88626 251.0025" style="stroke:rgb(189,126,190);stroke-width:1" /><circle cx="142.88626" cy="251.0025" r="2" style="fill:rgb(189,126,190);stroke:none;fill-opacity:1;stroke-opacity:1;" /><path d="M 142.88626 251.0025 L 30 251.9" style="stroke:rgb(189,126,190);stroke-width:1" /><circle cx="30" cy="251.9" r="2" style="fill:rgb(189,126,190);stroke:none;fill-opacity:1;stroke-opacity:1;" /><circle cx="780" cy="219.45" r="2" style="fill:rgb(178,224,97);stroke:none;fill-opacity:1;stroke-opacity:1;" /><path d="M 780 219.45 L 630.77246 229.695" style="stroke:rgb(178,224,97);stroke-width:1" /><circle cx="630.77246" cy="229.695" r="2" style="fill:rgb(178,224,97);stroke:none;fill-opacity:1;stroke-opacity:1;" /><path d="M 630.77246 229.695 L 517.8862 235.065" style="stroke:rgb(178,224,97);stroke-width:1" /><circle cx="517.8862" cy="235.065" r="2" style="fill:rgb(178,224,97);stroke:none;fill-opacity:1;stroke-opacity:1;" /><path d="M 517.8862 235.065 L 451.85202 238.2975" style="stroke:rgb(178,224,97);stroke-width:1" /><circle cx="451.85202" cy="238.2975" r="2" style="fill:rgb(178,224,97);stroke:none;fill-opacity:1;stroke-opacity:1;" /><path d="M 451.85202 238.2975 L 405 240.4975" style="stroke:rgb(178,224,97);stroke-width:1" /><circle cx="405" cy="240.4975" r="2" style="fill:rgb(178,224,97);stroke:none;fill-opacity:1;stroke-opacity:1;" /><path d="M 405 240.4975 L 338.96576 244.0975" style="stroke:rgb(178,224,97);stroke-width:1" /><circle cx="338.96576" cy="244.0975" r="2" style="fill:rgb(178,224,97);stroke:none;fill-opacity:1;stroke-opacity:1;" /><path d="M 338.96576 244.0975 L 292.11377 247.015" style="stroke:rgb(178,224,97);stroke-width:1" /><circle cx="292.11377" cy="247.015" r="2" style="fill:rgb(178,224,97);stroke:none;fill-opacity:1;stroke-opacity:1;" /><path d="M 292.11377 247.015 L 255.7725 248.4625" style="stroke:rgb(178,224,97);stroke-width:1" /><circle cx="255.7725" cy="248.4625" r="2" style="fill:rgb(178,224,97);stroke:none;fill-opacity:1;stroke-opacity:1;" /><path d="M 255.7725 248.4625 L 142.88626 251.025" style="stroke:rgb(178,224,97);stroke-width:1" /><circle cx="142.88626" cy="251.025" r="2" style="fill:rgb(178,224,97);stroke:none;fill-opacity:1;stroke-opacity:1;" /><path d="M 142.88626 251.025 L 30 251.9575" style="stroke:rgb(178,224,97);stroke-width:1" /><circle cx="30" cy="251.9575" r="2" style="fill:rgb(178,224,97);stroke:none;fill-opacity:1;stroke-opacity:1;" /><circle cx="780" cy="210.595" r="2" style="fill:rgb(255,238,101);stroke:none;fill-opacity:1;stroke-opacity:1;" /><path d="M 780 210.595 L 630.77246 236.105" style="stroke:rgb(255,238,101);stroke-width:1" /><circle cx="630.77246" cy="236.105" r="2" style="fill:rgb(255,238,101);stroke:none;fill-opacity:1;stroke-opacity:1;" /><path d="M 630.77246 236.105 L 517.8862 245.525" style="stroke:rgb(255,238,101);stroke-width:1" /><circle cx="517.8862" cy="245.525" r="2" style="fill:rgb(255,238,101);stroke:none;fill-opacity:1;stroke-opacity:1;" /><path d="M 517.8862 245.525 L 451.85202 249.57" style="stroke:rgb(255,238,101);stroke-width:1" /><circle cx="451.85202" cy="249.57" r="2" style="fill:rgb(255,238,101);stroke:none;fill-opacity:1;stroke-opacity:1;" /><path d="M 451.85202 249.57 L 405 251.8075" style="stroke:rgb(255,238,101);stroke-width:1" /><circle cx="405" cy="251.8075" r="2" style="fill:rgb(255,238,101);stroke:none;fill-opacity:1;stroke-opacity:1;" /><path d="M 405 251.8075 L 338.96576 253.66501" style="stroke:rgb(255,238,101);stroke-width:1" /><circle cx="338.96576" cy="253.66501" r="2" style="fill:rgb(255,238,101);stroke:none;fill-opacity:1;stroke-opacity:1;" /><path d="M 338.96576 253.66501 L 292.11377 255.1025" style="stroke:rgb(255,238,101);stroke-width:1" /><circle cx="292.11377" cy="255.1025" r="2" style="fill:rgb(255,238,101);stroke:none;fill-opacity:1;stroke-opacity:1;" /><path d="M 292.11377 255.1025 L 255.7725 256.5275" style="stroke:rgb(255,238,101);stroke-width:1" /><circle cx="255.7725" cy="256.5275" r="2" style="fill:rgb(255,238,101);stroke:none;fill-opacity:1;stroke-opacity:1;" /><path d="M 255.7725 256.5275 L 142.88626 261.4075" style="stroke:rgb(255,238,101);stroke-width:1" /><circle cx="142.88626" cy="261.4075" r="2" style="fill:rgb(255,238,101);stroke:none;fill-opacity:1;stroke-opacity:1;" /><path d="M 142.88626 261.4075 L 30 264.005" style="stroke:rgb(255,238,101);stroke-width:1" /><circle cx="30" cy="264.005" r="2" style="fill:rgb(255,238,101);stroke:none;fill-opacity:1;stroke-opacity:1;" /><circle cx="780" cy="174.805" r="2" style="fill:rgb(139,211,199);stroke:none;fill-opacity:1;stroke-opacity:1;" /><path d="M 780 174.805 L 630.77246 229.2225" style="stroke:rgb(139,211,199);stroke-width:1" /><circle cx="630.77246" cy="229.2225" r="2" style="fill:rgb(139,211,199);stroke:none;fill-opacity:1;stroke-opacity:1;" /><path d="M 630.77246 229.2225 L 517.8862 244.47" style="stroke:rgb(139,211,199);stroke-width:1" /><circle cx="517.8862" cy="244.47" r="2" style="fill:rgb(139,211,199);stroke:none;fill-opacity:1;stroke-opacity:1;" /><path d="M 517.8862 244.47 L 451.85202 248.4" style="stroke:rgb(139,211,199);stroke-width:1" /><circle cx="451.85202" cy="248.4" r="2" style="fill:rgb(139,211,199);stroke:none;fill-opacity:1;stroke-opacity:1;" /><path d="M 451.85202 248.4 L 405 250.31" style="stroke:rgb(139,211,199);stroke-width:1" /><circle cx="405" cy="250.31" r="2" style="fill:rgb(139,211,199);stroke:none;fill-opacity:1;stroke-opacity:1;" /><path d="M 405 250.31 L 338.96576 251.1975" style="stroke:rgb(139,211,199);stroke-width:1" /><circle cx="338.96576" cy="251.1975" r="2" style="fill:rgb(139,211,199);stroke:none;fill-opacity:1;stroke-opacity:1;" /><path d="M 338.96576 251.1975 L 292.11377 251.85251" style="stroke:rgb(139,211,199);stroke-width:1" /><circle cx="292.11377" cy="251.85251" r="2" style="fill:rgb(139,211,199);stroke:none;fill-opacity:1;stroke-opacity:1;" /><path d="M 292.11377 251.85251 L 255.7725 252.565" style="stroke:rgb(139,211,199);stroke-width:1" /><circle cx="255.7725" cy="252.565" r="2" style="fill:rgb(139,211,199);stroke:none;fill-opacity:1;stroke-opacity:1;" /><path d="M 255.7725 252.565 L 142.88626 256.7575" style="stroke:rgb(139,211,199);stroke-width:1" /><circle cx="142.88626" cy="256.7575" r="2" style="fill:rgb(139,211,199);stroke:none;fill-opacity:1;stroke-opacity:1;" /><path d="M 142.88626 256.7575 L 30 260.625" style="stroke:rgb(139,211,199);stroke-width:1" /><circle cx="30" cy="260.625" r="2" style="fill:rgb(139,211,199);stroke:none;fill-opacity:1;stroke-opacity:1;" /><circle cx="780" cy="91.7625" r="2" style="fill:rgb(253,204,229);stroke:none;fill-opacity:1;stroke-opacity:1;" /><path d="M 780 91.7625 L 630.77246 150.6325" style="stroke:rgb(253,204,229);stroke-width:1" /><circle cx="630.77246" cy="150.6325" r="2" style="fill:rgb(253,204,229);stroke:none;fill-opacity:1;stroke-opacity:1;" /><path d="M 630.77246 150.6325 L 517.8862 177.6125" style="stroke:rgb(253,204,229);stroke-width:1" /><circle cx="517.8862" cy="177.6125" r="2" style="fill:rgb(253,204,229);stroke:none;fill-opacity:1;stroke-opacity:1;" /><path d="M 517.8862 177.6125 L 451.85202 190.08249" style="stroke:rgb(253,204,229);stroke-width:1" /><circle cx="451.85202" cy="190.08249" r="2" style="fill:rgb(253,204,229);stroke:none;fill-opacity:1;stroke-opacity:1;" /><path d="M 451.85202 190.08249 L 405 197.03" style="stroke:rgb(253,204,229);stroke-width:1" /><circle cx="405" cy="197.03" r="2" style="fill:rgb(253,204,229);stroke:none;fill-opacity:1;stroke-opacity:1;" /><path d="M 405 197.03 L 338.96576 204.72" style="stroke:rgb(253,204,229);stroke-width:1" /><circle cx="338.96576" cy="204.72" r="2" style="fill:rgb(253,204,229);stroke:none;fill-opacity:1;stroke-opacity:1;" /><path d="M 338.96576 204.72 L 292.11377 209.1575" style="stroke:rgb(253,204,229);stroke-width:1" /><circle cx="292.11377" cy="209.1575" r="2" style="fill:rgb(253,204,229);stroke:none;fill-opacity:1;stroke-opacity:1;" /><path d="M 292.11377 209.1575 L 255.7725 212.09" style="stroke:rgb(253,204,229);stroke-width:1" /><circle cx="255.7725" cy="212.09" r="2" style="fill:rgb(253,204,229);stroke:none;fill-opacity:1;stroke-opacity:1;" /><path d="M 255.7725 212.09 L 142.88626 217.4225" style="stroke:rgb(253,204,229);stroke-width:1" /><circle cx="142.88626" cy="217.4225" r="2" style="fill:rgb(253,204,229);stroke:none;fill-opacity:1;stroke-opacity:1;" /><path d="M 142.88626 217.4225 L 30 218.865" style="stroke:rgb(253,204,229);stroke-width:1" /><circle cx="30" cy="218.865" r="2" style="fill:rgb(253,204,229);stroke:none;fill-opacity:1;stroke-opacity:1;" /><circle cx="780" cy="203.4125" r="2" style="fill:rgb(190,185,219);stroke:none;fill-opacity:1;stroke-opacity:1;" /><path d="M 780 203.4125 L 630.77246 223.855" style="stroke:rgb(190,185,219);stroke-width:1" /><circle cx="630.77246" cy="223.855" r="2" style="fill:rgb(190,185,219);stroke:none;fill-opacity:1;stroke-opacity:1;" /><path d="M 630.77246 223.855 L 517.8862 234.05" style="stroke:rgb(190,185,219);stroke-width:1" /><circle cx="517.8862" cy="234.05" r="2" style="fill:rgb(190,185,219);stroke:none;fill-opacity:1;stroke-opacity:1;" /><path d="M 517.8862 234.05 L 451.85202 238.27" style="stroke:rgb(190,185,219);stroke-width:1" /><circle cx="451.85202" cy="238.27" r="2" style="fill:rgb(190,185,219);stroke:none;fill-opacity:1;stroke-opacity:1;" /><path d="M 451.85202 238.27 L 405 240.5825" style="stroke:rgb(190,185,219);stroke-width:1" /><circle cx="405" cy="240.5825" r="2" style="fill:rgb(190,185,219);stroke:none;fill-opacity:1;stroke-opacity:1;" /><path d="M 405 240.5825 L 338.96576 242.8475" style="stroke:rgb(190,185,219);stroke-width:1" /><circle cx="338.96576" cy="242.8475" r="2" style="fill:rgb(190,185,219);stroke:none;fill-opacity:1;stroke-opacity:1;" /><path d="M 338.96576 242.8475 L 292.11377 243.42" style="stroke:rgb(190,185,219);stroke-width:1" /><circle cx="292.11377" cy="243.42" r="2" style="fill:rgb(190,185,219);stroke:none;fill-opacity:1;stroke-opacity:1;" /><path d="M 292.11377 243.42 L 255.7725 243.7975" style="stroke:rgb(190,185,219);stroke-width:1" /><circle cx="255.7725" cy="243.7975" r="2" style="fill:rgb(190,185,219);stroke:none;fill-opacity:1;stroke-opacity:1;" /><path d="M 255.7725 243.7975 L 142.88626 244.77249" style="stroke:rgb(190,185,219);stroke-width:1" /><circle cx="142.88626" cy="244.77249" r="2" style="fill:rgb(190,185,219);stroke:none;fill-opacity:1;stroke-opacity:1;" /><path d="M 142.88626 244.77249 L 30 245.03" style="stroke:rgb(190,185,219);stroke-width:1" /><circle cx="30" cy="245.03" r="2" style="fill:rgb(190,185,219);stroke:none;fill-opacity:1;stroke-opacity:1;" /><circle cx="780" cy="214.84" r="2" style="fill:rgb(255,181,90);stroke:none;fill-opacity:1;stroke-opacity:1;" /><path d="M 780 214.84 L 630.77246 237.7175" style="stroke:rgb(255,181,90);stroke-width:1" /><circle cx="630.77246" cy="237.7175" r="2" style="fill:rgb(255,181,90);stroke:none;fill-opacity:1;stroke-opacity:1;" /><path d="M 630.77246 237.7175 L 517.8862 246.1" style="stroke:rgb(255,181,90);stroke-width:1" /><circle cx="517.8862" cy="246.1" r="2" style="fill:rgb(255,181,90);stroke:none;fill-opacity:1;stroke-opacity:1;" /><path d="M 517.8862 246.1 L 451.85202 249.6" style="stroke:rgb(255,181,90);stroke-width:1" /><circle cx="451.85202" cy="249.6" r="2" style="fill:rgb(255,181,90);stroke:none;fill-opacity:1;stroke-opacity:1;" /><path d="M 451.85202 249.6 L 405 251.3075" style="stroke:rgb(255,181,90);stroke-width:1" /><circle cx="405" cy="251.3075" r="2" style="fill:rgb(255,181,90);stroke:none;fill-opacity:1;stroke-opacity:1;" /><path d="M 405 251.3075 L 338.96576 252.16" style="stroke:rgb(255,181,90);stroke-width:1" /><circle cx="338.96576" cy="252.16" r="2" style="fill:rgb(255,181,90);stroke:none;fill-opacity:1;stroke-opacity:1;" /><path d="M 338.96576 252.16 L 292.11377 252.9125" style="stroke:rgb(255,181,90);stroke-width:1" /><circle cx="292.11377" cy="252.9125" r="2" style="fill:rgb(255,181,90);stroke:none;fill-opacity:1;stroke-opacity:1;" /><path d="M 292.11377 252.9125 L 255.7725 253.55" style="stroke:rgb(255,181,90);stroke-width:1" /><circle cx="255.7725" cy="253.55" r="2" style="fill:rgb(255,181,90);stroke:none;fill-opacity:1;stroke-opacity:1;" /><path d="M 255.7725 253.55 L 142.88626 257.6375" style="stroke:rgb(255,181,90);stroke-width:1" /><circle cx="142.88626" cy="257.6375" r="2" style="fill:rgb(255,181,90);stroke:none;fill-opacity:1;stroke-opacity:1;" /><path d="M 142.88626 257.6375 L 30 261.3325" style="stroke:rgb(255,181,90);stroke-width:1" /><circle cx="30" cy="261.3325" r="2" style="fill:rgb(255,181,90);stroke:none;fill-opacity:1;stroke-opacity:1;" /><circle cx="780" cy="46.817505" r="2" style="fill:rgb(126,176,213);stroke:none;fill-opacity:1;stroke-opacity:1;" /><path d="M 780 46.817505 L 630.77246 60.934998" style="stroke:rgb(126,176,213);stroke-width:1" /><circle cx="630.77246" cy="60.934998" r="2" style="fill:rgb(126,176,213);stroke:none;fill-opacity:1;stroke-opacity:1;" /><path d="M 630.77246 60.934998 L 517.8862 67.744995" style="stroke:rgb(126,176,213);stroke-width:1" /><circle cx="517.8862" cy="67.744995" r="2" style="fill:rgb(126,176,213);stroke:none;fill-opacity:1;stroke-opacity:1;" /><path d="M 517.8862 67.744995 L 451.85202 74.354996" style="stroke:rgb(126,176,213);stroke-width:1" /><circle cx="451.85202" cy="74.354996" r="2" style="fill:rgb(126,176,213);stroke:none;fill-opacity:1;stroke-opacity:1;" /><path d="M 451.85202 74.354996 L 405 75.61749" style="stroke:rgb(126,176,213);stroke-width:1" /><circle cx="405" cy="75.61749" r="2" style="fill:rgb(126,176,213);stroke:none;fill-opacity:1;stroke-opacity:1;" /><path d="M 405 75.61749 L 338.96576 77.5125" style="stroke:rgb(126,176,213);stroke-width:1" /><circle cx="338.96576" cy="77.5125" r="2" style="fill:rgb(126,176,213);stroke:none;fill-opacity:1;stroke-opacity:1;" /><path d="M 338.96576 77.5125 L 292.11377 78.244995" style="stroke:rgb(126,176,213);stroke-width:1" /><circle cx="292.11377" cy="78.244995" r="2" style="fill:rgb(126,176,213);stroke:none;fill-opacity:1;stroke-opacity:1;" /><path d="M 292.11377 78.244995 L 255.7725 78.6375" style="stroke:rgb(126,176,213);stroke-width:1" /><circle cx="255.7725" cy="78.6375" r="2" style="fill:rgb(126,176,213);stroke:none;fill-opacity:1;stroke-opacity:1;" /><path d="M 255.7725 78.6375 L 142.88626 79.765" style="stroke:rgb(126,176,213);stroke-width:1" /><circle cx="142.88626" cy="79.765" r="2" style="fill:rgb(126,176,213);stroke:none;fill-opacity:1;stroke-opacity:1;" /><path d="M 142.88626 79.765 L 30 80.5275" style="stroke:rgb(126,176,213);stroke-width:1" /><circle cx="30" cy="80.5275" r="2" style="fill:rgb(126,176,213);stroke:none;fill-opacity:1;stroke-opacity:1;" /><circle cx="780" cy="20" r="2" style="fill:rgb(253,127,111);stroke:none;fill-opacity:1;stroke-opacity:1;" /><path d="M 780 20 L 630.77246 46.837494" style="stroke:rgb(253,127,111);stroke-width:1" /><circle cx="630.77246" cy="46.837494" r="2" style="fill:rgb(253,127,111);stroke:none;fill-opacity:1;stroke-opacity:1;" /><path d="M 630.77246 46.837494 L 517.8862 61.632507" style="stroke:rgb(253,127,111);stroke-width:1" /><circle cx="517.8862" cy="61.632507" r="2" style="fill:rgb(253,127,111);stroke:none;fill-opacity:1;stroke-opacity:1;" /><path d="M 517.8862 61.632507 L 451.85202 69.7025" style="stroke:rgb(253,127,111);stroke-width:1" /><circle cx="451.85202" cy="69.7025" r="2" style="fill:rgb(253,127,111);stroke:none;fill-opacity:1;stroke-opacity:1;" /><path d="M 451.85202 69.7025 L 405 73.207504" style="stroke:rgb(253,127,111);stroke-width:1" /><circle cx="405" cy="73.207504" r="2" style="fill:rgb(253,127,111);stroke:none;fill-opacity:1;stroke-opacity:1;" /><path d="M 405 73.207504 L 338.96576 76.47" style="stroke:rgb(253,127,111);stroke-width:1" /><circle cx="338.96576" cy="76.47" r="2" style="fill:rgb(253,127,111);stroke:none;fill-opacity:1;stroke-opacity:1;" /><path d="M 338.96576 76.47 L 292.11377 78.595" style="stroke:rgb(253,127,111);stroke-width:1" /><circle cx="292.11377" cy="78.595" r="2" style="fill:rgb(253,127,111);stroke:none;fill-opacity:1;stroke-opacity:1;" /><path d="M 292.11377 78.595 L 255.7725 78.905" style="stroke:rgb(253,127,111);stroke-width:1" /><circle cx="255.7725" cy="78.905" r="2" style="fill:rgb(253,127,111);stroke:none;fill-opacity:1;stroke-opacity:1;" /><path d="M 255.7725 78.905 L 142.88626 82.0175" style="stroke:rgb(253,127,111);stroke-width:1" /><circle cx="142.88626" cy="82.0175" r="2" style="fill:rgb(253,127,111);stroke:none;fill-opacity:1;stroke-opacity:1;" /><path d="M 142.88626 82.0175 L 30 82.42999" style="stroke:rgb(253,127,111);stroke-width:1" /><circle cx="30" cy="82.42999" r="2" style="fill:rgb(253,127,111);stroke:none;fill-opacity:1;stroke-opacity:1;" /><rect x="676" y="16" width="80" height="196" ry="4" style="fill:rgb(30,30,30);stroke:none;fill-opacity:0.8;stroke-opacity:1;" /><rect x="680" y="20" width="20" height="20" ry="2" style="fill:rgb(253,204,229);stroke:none;fill-opacity:1;stroke-opacity:1;" /><text x="705" y="33" style="font-size:10px;fill:rgb(255,255,255);text-anchor:start;text-align:left;"> hain </text><rect x="680" y="41" width="20" height="20" ry="2" style="fill:rgb(190,185,219);stroke:none;fill-opacity:1;stroke-opacity:1;" /><text x="705" y="54" style="font-size:10px;fill:rgb(255,255,255);text-anchor:start;text-align:left;"> hfd </text><rect x="680" y="62" width="20" height="20" ry="2" style="fill:rgb(253,127,111);stroke:none;fill-opacity:1;stroke-opacity:1;" /><text x="705" y="75" style="font-size:10px;fill:rgb(255,255,255);text-anchor:start;text-align:left;"> levien </text><rect x="680" y="83" width="20" height="20" ry="2" style="fill:rgb(139,211,199);stroke:none;fill-opacity:1;stroke-opacity:1;" /><text x="705" y="96" style="font-size:10px;fill:rgb(255,255,255);text-anchor:start;text-align:left;"> levien-linear </text><rect x="680" y="104" width="20" height="20" ry="2" style="fill:rgb(126,176,213);stroke:none;fill-opacity:1;stroke-opacity:1;" /><text x="705" y="117" style="font-size:10px;fill:rgb(255,255,255);text-anchor:start;text-align:left;"> levien-simd </text><rect x="680" y="125" width="20" height="20" ry="2" style="fill:rgb(255,181,90);stroke:none;fill-opacity:1;stroke-opacity:1;" /><text x="705" y="138" style="font-size:10px;fill:rgb(255,255,255);text-anchor:start;text-align:left;"> linear </text><rect x="680" y="146" width="20" height="20" ry="2" style="fill:rgb(255,238,101);stroke:none;fill-opacity:1;stroke-opacity:1;" /><text x="705" y="159" style="font-size:10px;fill:rgb(255,255,255);text-anchor:start;text-align:left;"> recursive </text><rect x="680" y="167" width="20" height="20" ry="2" style="fill:rgb(178,224,97);stroke:none;fill-opacity:1;stroke-opacity:1;" /><text x="705" y="180" style="font-size:10px;fill:rgb(255,255,255);text-anchor:start;text-align:left;"> wang </text><rect x="680" y="188" width="20" height="20" ry="2" style="fill:rgb(189,126,190);stroke:none;fill-opacity:1;stroke-opacity:1;" /><text x="705" y="201" style="font-size:10px;fill:rgb(255,255,255);text-anchor:start;text-align:left;"> wang-simd </text><text x="400" y="30" style="font-size:20px;fill:rgb(255,255,255);text-anchor:middle;text-align:center;">  </text><text x="400" y="42" style="font-size:8px;fill:rgb(200,200,200);text-anchor:middle;text-align:center;"> Normalized performance score (lower is better) </text></svg>