<svg xmlns="http://www.w3.org/2000/svg" viewBox="0 0 800 300"><rect x="0" y="0" width="800" height="300" ry="6" style="fill:rgb(30,30,30);stroke:none;fill-opacity:1;stroke-opacity:1;" /><path d="M 30 20 L 30 270" style="stroke:rgb(200,200,200);stroke-width:1" /><path d="M 30 270 L 780 270" style="stroke:rgb(200,200,200);stroke-width:1" /><path d="M 780 270 L 780 272" style="stroke:rgb(200,200,200);stroke-width:1" /><text x="780" y="282" style="font-size:10px;fill:rgb(200,200,200);text-anchor:middle;text-align:center;"> 0.01 </text><path d="M 630.77246 270 L 630.77246 272" style="stroke:rgb(200,200,200);stroke-width:1" /><text x="630.77246" y="282" style="font-size:10px;fill:rgb(200,200,200);text-anchor:middle;text-align:center;"> 0.025 </text><path d="M 517.8862 270 L 517.8862 272" style="stroke:rgb(200,200,200);stroke-width:1" /><text x="517.8862" y="282" style="font-size:10px;fill:rgb(200,200,200);text-anchor:middle;text-align:center;"> 0.05 </text><path d="M 451.85202 270 L 451.85202 272" style="stroke:rgb(200,200,200);stroke-width:1" /><text x="451.85202" y="282" style="font-size:10px;fill:rgb(200,200,200);text-anchor:middle;text-align:center;"> 0.075 </text><path d="M 405 270 L 405 272" style="stroke:rgb(200,200,200);stroke-width:1" /><text x="405" y="282" style="font-size:10px;fill:rgb(200,200,200);text-anchor:middle;text-align:center;"> 0.1 </text><path d="M 338.96576 270 L 338.96576 272" style="stroke:rgb(200,200,200);stroke-width:1" /><text x="338.96576" y="282" style="font-size:10px;fill:rgb(200,200,200);text-anchor:middle;text-align:center;"> 0.15 </text><path d="M 292.11377 270 L 292.11377 272" style="stroke:rgb(200,200,200);stroke-width:1" /><text x="292.11377" y="282" style="font-size:10px;fill:rgb(200,200,200);text-anchor:middle;text-align:center;"> 0.2 </text><path d="M 255.7725 270 L 255.7725 272" style="stroke:rgb(200,200,200);stroke-width:1" /><text x="255.7725" y="282" style="font-size:10px;fill:rgb(200,200,200);text-anchor:middle;text-align:center;"> 0.25 </text><path d="M 142.88626 270 L 142.88626 272" style="stroke:rgb(200,200,200);stroke-width:1" /><text x="142.88626" y="282" style="font-size:10px;fill:rgb(200,200,200);text-anchor:middle;text-align:center;"> 0.5 </text><path d="M 30 270 L 30 272" style="stroke:rgb(200,200,200);stroke-width:1" /><text x="30" y="282" style="font-size:10px;fill:rgb(200,200,200);text-anchor:middle;text-align:center;"> 1 </text><path d="M 28 270 L 30 270" style="stroke:rgb(200,200,200);stroke-width:1" /><text x="26" y="274" style="font-size:10px;fill:rgb(200,200,200);text-anchor:end;text-align:right;"> 0 </text><path d="M 28 207.5 L 30 207.5" style="stroke:rgb(200,200,200);stroke-width:1" /><text x="26" y="211.5" style="font-size:10px;fill:rgb(200,200,200);text-anchor:end;text-align:right;"> 0.25 </text><path d="M 28 145 L 30 145" style="stroke:rgb(200,200,200);stroke-width:1" /><text x="26" y="149" style="font-size:10px;fill:rgb(200,200,200);text-anchor:end;text-align:right;"> 0.5 </text><path d="M 28 82.5 L 30 82.5" style="stroke:rgb(200,200,200);stroke-width:1" /><text x="26" y="86.5" style="font-size:10px;fill:rgb(200,200,200);text-anchor:end;text-align:right;"> 0.75 </text><path d="M 28 20 L 30 20" style="stroke:rgb(200,200,200);stroke-width:1" /><text x="26" y="24" style="font-size:10px;fill:rgb(200,200,200);text-anchor:end;text-align:right;"> 1 </text><text x="400" y="294" style="font-size:10px;fill:rgb(200,200,200);text-anchor:middle;text-align:center;"> Tolerance </text><circle cx="780" cy="122.0325" r="2" style="fill:rgb(255,181,90);stroke:none;fill-opacity:1;stroke-opacity:1;" /><path d="M 780 122.0325 L 630.77246 177.0625" style="stroke:rgb(255,181,90);stroke-width:1" /><circle cx="630.77246" cy="177.0625" r="2" style="fill:rgb(255,181,90);stroke:none;fill-opacity:1;stroke-opacity:1;" /><path d="M 630.77246 177.0625 L 517.8862 203.95749" style="stroke:rgb(255,181,90);stroke-width:1" /><circle cx="517.8862" cy="203.95749" r="2" style="fill:rgb(255,181,90);stroke:none;fill-opacity:1;stroke-opacity:1;" /><path d="M 517.8862 203.95749 L 451.85202 216.4425" style="stroke:rgb(255,181,90);stroke-width:1" /><circle cx="451.85202" cy="216.4425" r="2" style="fill:rgb(255,181,90);stroke:none;fill-opacity:1;stroke-opacity:1;" /><path d="M 451.85202 216.4425 L 405 223.34" style="stroke:rgb(255,181,90);stroke-width:1" /><circle cx="405" cy="223.34" r="2" style="fill:rgb(255,181,90);stroke:none;fill-opacity:1;stroke-opacity:1;" /><path d="M 405 223.34 L 338.96576 231.5925" style="stroke:rgb(255,181,90);stroke-width:1" /><circle cx="338.96576" cy="231.5925" r="2" style="fill:rgb(255,181,90);stroke:none;fill-opacity:1;stroke-opacity:1;" /><path d="M 338.96576 231.5925 L 292.11377 236.86" style="stroke:rgb(255,181,90);stroke-width:1" /><circle cx="292.11377" cy="236.86" r="2" style="fill:rgb(255,181,90);stroke:none;fill-opacity:1;stroke-opacity:1;" /><path d="M 292.11377 236.86 L 255.7725 240.535" style="stroke:rgb(255,181,90);stroke-width:1" /><circle cx="255.7725" cy="240.535" r="2" style="fill:rgb(255,181,90);stroke:none;fill-opacity:1;stroke-opacity:1;" /><path d="M 255.7725 240.535 L 142.88626 249.1375" style="stroke:rgb(255,181,90);stroke-width:1" /><circle cx="142.88626" cy="249.1375" r="2" style="fill:rgb(255,181,90);stroke:none;fill-opacity:1;stroke-opacity:1;" /><path d="M 142.88626 249.1375 L 30 255.49" style="stroke:rgb(255,181,90);stroke-width:1" /><circle cx="30" cy="255.49" r="2" style="fill:rgb(255,181,90);stroke:none;fill-opacity:1;stroke-opacity:1;" /><circle cx="780" cy="159.42" r="2" style="fill:rgb(126,176,213);stroke:none;fill-opacity:1;stroke-opacity:1;" /><path d="M 780 159.42 L 630.77246 199.5" style="stroke:rgb(126,176,213);stroke-width:1" /><circle cx="630.77246" cy="199.5" r="2" style="fill:rgb(126,176,213);stroke:none;fill-opacity:1;stroke-opacity:1;" /><path d="M 630.77246 199.5 L 517.8862 219.6525" style="stroke:rgb(126,176,213);stroke-width:1" /><circle cx="517.8862" cy="219.6525" r="2" style="fill:rgb(126,176,213);stroke:none;fill-opacity:1;stroke-opacity:1;" /><path d="M 517.8862 219.6525 L 451.85202 228.5375" style="stroke:rgb(126,176,213);stroke-width:1" /><circle cx="451.85202" cy="228.5375" r="2" style="fill:rgb(126,176,213);stroke:none;fill-opacity:1;stroke-opacity:1;" /><path d="M 451.85202 228.5375 L 405 233.85" style="stroke:rgb(126,176,213);stroke-width:1" /><circle cx="405" cy="233.85" r="2" style="fill:rgb(126,176,213);stroke:none;fill-opacity:1;stroke-opacity:1;" /><path d="M 405 233.85 L 338.96576 240.14749" style="stroke:rgb(126,176,213);stroke-width:1" /><circle cx="338.96576" cy="240.14749" r="2" style="fill:rgb(126,176,213);stroke:none;fill-opacity:1;stroke-opacity:1;" /><path d="M 338.96576 240.14749 L 292.11377 243.8775" style="stroke:rgb(126,176,213);stroke-width:1" /><circle cx="292.11377" cy="243.8775" r="2" style="fill:rgb(126,176,213);stroke:none;fill-opacity:1;stroke-opacity:1;" /><path d="M 292.11377 243.8775 L 255.7725 246.4225" style="stroke:rgb(126,176,213);stroke-width:1" /><circle cx="255.7725" cy="246.4225" r="2" style="fill:rgb(126,176,213);stroke:none;fill-opacity:1;stroke-opacity:1;" /><path d="M 255.7725 246.4225 L 142.88626 252.7125" style="stroke:rgb(126,176,213);stroke-width:1" /><circle cx="142.88626" cy="252.7125" r="2" style="fill:rgb(126,176,213);stroke:none;fill-opacity:1;stroke-opacity:1;" /><path d="M 142.88626 252.7125 L 30 257.1225" style="stroke:rgb(126,176,213);stroke-width:1" /><circle cx="30" cy="257.1225" r="2" style="fill:rgb(126,176,213);stroke:none;fill-opacity:1;stroke-opacity:1;" /><circle cx="780" cy="97.162506" r="2" style="fill:rgb(139,211,199);stroke:none;fill-opacity:1;stroke-opacity:1;" /><path d="M 780 97.162506 L 630.77246 155.425" style="stroke:rgb(139,211,199);stroke-width:1" /><circle cx="630.77246" cy="155.425" r="2" style="fill:rgb(139,211,199);stroke:none;fill-opacity:1;stroke-opacity:1;" /><path d="M 630.77246 155.425 L 517.8862 189.5275" style="stroke:rgb(139,211,199);stroke-width:1" /><circle cx="517.8862" cy="189.5275" r="2" style="fill:rgb(139,211,199);stroke:none;fill-opacity:1;stroke-opacity:1;" /><path d="M 517.8862 189.5275 L 451.85202 201.4975" style="stroke:rgb(139,211,199);stroke-width:1" /><circle cx="451.85202" cy="201.4975" r="2" style="fill:rgb(139,211,199);stroke:none;fill-opacity:1;stroke-opacity:1;" /><path d="M 451.85202 201.4975 L 405 212.08" style="stroke:rgb(139,211,199);stroke-width:1" /><circle cx="405" cy="212.08" r="2" style="fill:rgb(139,211,199);stroke:none;fill-opacity:1;stroke-opacity:1;" /><path d="M 405 212.08 L 338.96576 224.45" style="stroke:rgb(139,211,199);stroke-width:1" /><circle cx="338.96576" cy="224.45" r="2" style="fill:rgb(139,211,199);stroke:none;fill-opacity:1;stroke-opacity:1;" /><path d="M 338.96576 224.45 L 292.11377 229.0675" style="stroke:rgb(139,211,199);stroke-width:1" /><circle cx="292.11377" cy="229.0675" r="2" style="fill:rgb(139,211,199);stroke:none;fill-opacity:1;stroke-opacity:1;" /><path d="M 292.11377 229.0675 L 255.7725 232.2375" style="stroke:rgb(139,211,199);stroke-width:1" /><circle cx="255.7725" cy="232.2375" r="2" style="fill:rgb(139,211,199);stroke:none;fill-opacity:1;stroke-opacity:1;" /><path d="M 255.7725 232.2375 L 142.88626 244.12" style="stroke:rgb(139,211,199);stroke-width:1" /><circle cx="142.88626" cy="244.12" r="2" style="fill:rgb(139,211,199);stroke:none;fill-opacity:1;stroke-opacity:1;" /><path d="M 142.88626 244.12 L 30 250.3125" style="stroke:rgb(139,211,199);stroke-width:1" /><circle cx="30" cy="250.3125" r="2" style="fill:rgb(139,211,199);stroke:none;fill-opacity:1;stroke-opacity:1;" /><circle cx="780" cy="59.485" r="2" style="fill:rgb(178,224,97);stroke:none;fill-opacity:1;stroke-opacity:1;" /><path d="M 780 59.485 L 630.77246 136.3125" style="stroke:rgb(178,224,97);stroke-width:1" /><circle cx="630.77246" cy="136.3125" r="2" style="fill:rgb(178,224,97);stroke:none;fill-opacity:1;stroke-opacity:1;" /><path d="M 630.77246 136.3125 L 517.8862 175.045" style="stroke:rgb(178,224,97);stroke-width:1" /><circle cx="517.8862" cy="175.045" r="2" style="fill:rgb(178,224,97);stroke:none;fill-opacity:1;stroke-opacity:1;" /><path d="M 517.8862 175.045 L 451.85202 192.18" style="stroke:rgb(178,224,97);stroke-width:1" /><circle cx="451.85202" cy="192.18" r="2" style="fill:rgb(178,224,97);stroke:none;fill-opacity:1;stroke-opacity:1;" /><path d="M 451.85202 192.18 L 405 202.41751" style="stroke:rgb(178,224,97);stroke-width:1" /><circle cx="405" cy="202.41751" r="2" style="fill:rgb(178,224,97);stroke:none;fill-opacity:1;stroke-opacity:1;" /><path d="M 405 202.41751 L 338.96576 214.5325" style="stroke:rgb(178,224,97);stroke-width:1" /><circle cx="338.96576" cy="214.5325" r="2" style="fill:rgb(178,224,97);stroke:none;fill-opacity:1;stroke-opacity:1;" /><path d="M 338.96576 214.5325 L 292.11377 221.725" style="stroke:rgb(178,224,97);stroke-width:1" /><circle cx="292.11377" cy="221.725" r="2" style="fill:rgb(178,224,97);stroke:none;fill-opacity:1;stroke-opacity:1;" /><path d="M 292.11377 221.725 L 255.7725 226.6175" style="stroke:rgb(178,224,97);stroke-width:1" /><circle cx="255.7725" cy="226.6175" r="2" style="fill:rgb(178,224,97);stroke:none;fill-opacity:1;stroke-opacity:1;" /><path d="M 255.7725 226.6175 L 142.88626 238.7625" style="stroke:rgb(178,224,97);stroke-width:1" /><circle cx="142.88626" cy="238.7625" r="2" style="fill:rgb(178,224,97);stroke:none;fill-opacity:1;stroke-opacity:1;" /><path d="M 142.88626 238.7625 L 30 247.3275" style="stroke:rgb(178,224,97);stroke-width:1" /><circle cx="30" cy="247.3275" r="2" style="fill:rgb(178,224,97);stroke:none;fill-opacity:1;stroke-opacity:1;" /><circle cx="780" cy="119.755005" r="2" style="fill:rgb(255,238,101);stroke:none;fill-opacity:1;stroke-opacity:1;" /><path d="M 780 119.755005 L 630.77246 180.13" style="stroke:rgb(255,238,101);stroke-width:1" /><circle cx="630.77246" cy="180.13" r="2" style="fill:rgb(255,238,101);stroke:none;fill-opacity:1;stroke-opacity:1;" /><path d="M 630.77246 180.13 L 517.8862 200.5175" style="stroke:rgb(255,238,101);stroke-width:1" /><circle cx="517.8862" cy="200.5175" r="2" style="fill:rgb(255,238,101);stroke:none;fill-opacity:1;stroke-opacity:1;" /><path d="M 517.8862 200.5175 L 451.85202 215.465" style="stroke:rgb(255,238,101);stroke-width:1" /><circle cx="451.85202" cy="215.465" r="2" style="fill:rgb(255,238,101);stroke:none;fill-opacity:1;stroke-opacity:1;" /><path d="M 451.85202 215.465 L 405 224.675" style="stroke:rgb(255,238,101);stroke-width:1" /><circle cx="405" cy="224.675" r="2" style="fill:rgb(255,238,101);stroke:none;fill-opacity:1;stroke-opacity:1;" /><path d="M 405 224.675 L 338.96576 230.97" style="stroke:rgb(255,238,101);stroke-width:1" /><circle cx="338.96576" cy="230.97" r="2" style="fill:rgb(255,238,101);stroke:none;fill-opacity:1;stroke-opacity:1;" /><path d="M 338.96576 230.97 L 292.11377 234.98" style="stroke:rgb(255,238,101);stroke-width:1" /><circle cx="292.11377" cy="234.98" r="2" style="fill:rgb(255,238,101);stroke:none;fill-opacity:1;stroke-opacity:1;" /><path d="M 292.11377 234.98 L 255.7725 238.95" style="stroke:rgb(255,238,101);stroke-width:1" /><circle cx="255.7725" cy="238.95" r="2" style="fill:rgb(255,238,101);stroke:none;fill-opacity:1;stroke-opacity:1;" /><path d="M 255.7725 238.95 L 142.88626 249.375" style="stroke:rgb(255,238,101);stroke-width:1" /><circle cx="142.88626" cy="249.375" r="2" style="fill:rgb(255,238,101);stroke:none;fill-opacity:1;stroke-opacity:1;" /><path d="M 142.88626 249.375 L 30 254.6025" style="stroke:rgb(255,238,101);stroke-width:1" /><circle cx="30" cy="254.6025" r="2" style="fill:rgb(255,238,101);stroke:none;fill-opacity:1;stroke-opacity:1;" /><circle cx="780" cy="159.39499" r="2" style="fill:rgb(253,127,111);stroke:none;fill-opacity:1;stroke-opacity:1;" /><path d="M 780 159.39499 L 630.77246 199.475" style="stroke:rgb(253,127,111);stroke-width:1" /><circle cx="630.77246" cy="199.475" r="2" style="fill:rgb(253,127,111);stroke:none;fill-opacity:1;stroke-opacity:1;" /><path d="M 630.77246 199.475 L 517.8862 219.6425" style="stroke:rgb(253,127,111);stroke-width:1" /><circle cx="517.8862" cy="219.6425" r="2" style="fill:rgb(253,127,111);stroke:none;fill-opacity:1;stroke-opacity:1;" /><path d="M 517.8862 219.6425 L 451.85202 228.53" style="stroke:rgb(253,127,111);stroke-width:1" /><circle cx="451.85202" cy="228.53" r="2" style="fill:rgb(253,127,111);stroke:none;fill-opacity:1;stroke-opacity:1;" /><path d="M 451.85202 228.53 L 405 233.8375" style="stroke:rgb(253,127,111);stroke-width:1" /><circle cx="405" cy="233.8375" r="2" style="fill:rgb(253,127,111);stroke:none;fill-opacity:1;stroke-opacity:1;" /><path d="M 405 233.8375 L 338.96576 240.1425" style="stroke:rgb(253,127,111);stroke-width:1" /><circle cx="338.96576" cy="240.1425" r="2" style="fill:rgb(253,127,111);stroke:none;fill-opacity:1;stroke-opacity:1;" /><path d="M 338.96576 240.1425 L 292.11377 243.8725" style="stroke:rgb(253,127,111);stroke-width:1" /><circle cx="292.11377" cy="243.8725" r="2" style="fill:rgb(253,127,111);stroke:none;fill-opacity:1;stroke-opacity:1;" /><path d="M 292.11377 243.8725 L 255.7725 246.4175" style="stroke:rgb(253,127,111);stroke-width:1" /><circle cx="255.7725" cy="246.4175" r="2" style="fill:rgb(253,127,111);stroke:none;fill-opacity:1;stroke-opacity:1;" /><path d="M 255.7725 246.4175 L 142.88626 252.70999" style="stroke:rgb(253,127,111);stroke-width:1" /><circle cx="142.88626" cy="252.70999" r="2" style="fill:rgb(253,127,111);stroke:none;fill-opacity:1;stroke-opacity:1;" /><path d="M 142.88626 252.70999 L 30 257.12" style="stroke:rgb(253,127,111);stroke-width:1" /><circle cx="30" cy="257.12" r="2" style="fill:rgb(253,127,111);stroke:none;fill-opacity:1;stroke-opacity:1;" /><circle cx="780" cy="63.4825" r="2" style="fill:rgb(253,204,229);stroke:none;fill-opacity:1;stroke-opacity:1;" /><path d="M 780 63.4825 L 630.77246 138.695" style="stroke:rgb(253,204,229);stroke-width:1" /><circle cx="630.77246" cy="138.695" r="2" style="fill:rgb(253,204,229);stroke:none;fill-opacity:1;stroke-opacity:1;" /><path d="M 630.77246 138.695 L 517.8862 176.575" style="stroke:rgb(253,204,229);stroke-width:1" /><circle cx="517.8862" cy="176.575" r="2" style="fill:rgb(253,204,229);stroke:none;fill-opacity:1;stroke-opacity:1;" /><path d="M 517.8862 176.575 L 451.85202 193.3475" style="stroke:rgb(253,204,229);stroke-width:1" /><circle cx="451.85202" cy="193.3475" r="2" style="fill:rgb(253,204,229);stroke:none;fill-opacity:1;stroke-opacity:1;" /><path d="M 451.85202 193.3475 L 405 203.3375" style="stroke:rgb(253,204,229);stroke-width:1" /><circle cx="405" cy="203.3375" r="2" style="fill:rgb(253,204,229);stroke:none;fill-opacity:1;stroke-opacity:1;" /><path d="M 405 203.3375 L 338.96576 215.175" style="stroke:rgb(253,204,229);stroke-width:1" /><circle cx="338.96576" cy="215.175" r="2" style="fill:rgb(253,204,229);stroke:none;fill-opacity:1;stroke-opacity:1;" /><path d="M 338.96576 215.175 L 292.11377 222.22" style="stroke:rgb(253,204,229);stroke-width:1" /><circle cx="292.11377" cy="222.22" r="2" style="fill:rgb(253,204,229);stroke:none;fill-opacity:1;stroke-opacity:1;" /><path d="M 292.11377 222.22 L 255.7725 227.025" style="stroke:rgb(253,204,229);stroke-width:1" /><circle cx="255.7725" cy="227.025" r="2" style="fill:rgb(253,204,229);stroke:none;fill-opacity:1;stroke-opacity:1;" /><path d="M 255.7725 227.025 L 142.88626 238.9175" style="stroke:rgb(253,204,229);stroke-width:1" /><circle cx="142.88626" cy="238.9175" r="2" style="fill:rgb(253,204,229);stroke:none;fill-opacity:1;stroke-opacity:1;" /><path d="M 142.88626 238.9175 L 30 247.27249" style="stroke:rgb(253,204,229);stroke-width:1" /><circle cx="30" cy="247.27249" r="2" style="fill:rgb(253,204,229);stroke:none;fill-opacity:1;stroke-opacity:1;" /><circle cx="780" cy="159.45" r="2" style="fill:rgb(190,185,219);stroke:none;fill-opacity:1;stroke-opacity:1;" /><path d="M 780 159.45 L 630.77246 199.4875" style="stroke:rgb(190,185,219);stroke-width:1" /><circle cx="630.77246" cy="199.4875" r="2" style="fill:rgb(190,185,219);stroke:none;fill-opacity:1;stroke-opacity:1;" /><path d="M 630.77246 199.4875 L 517.8862 219.6075" style="stroke:rgb(190,185,219);stroke-width:1" /><circle cx="517.8862" cy="219.6075" r="2" style="fill:rgb(190,185,219);stroke:none;fill-opacity:1;stroke-opacity:1;" /><path d="M 517.8862 219.6075 L 451.85202 228.5325" style="stroke:rgb(190,185,219);stroke-width:1" /><circle cx="451.85202" cy="228.5325" r="2" style="fill:rgb(190,185,219);stroke:none;fill-opacity:1;stroke-opacity:1;" /><path d="M 451.85202 228.5325 L 405 233.9075" style="stroke:rgb(190,185,219);stroke-width:1" /><circle cx="405" cy="233.9075" r="2" style="fill:rgb(190,185,219);stroke:none;fill-opacity:1;stroke-opacity:1;" /><path d="M 405 233.9075 L 338.96576 240.2975" style="stroke:rgb(190,185,219);stroke-width:1" /><circle cx="338.96576" cy="240.2975" r="2" style="fill:rgb(190,185,219);stroke:none;fill-opacity:1;stroke-opacity:1;" /><path d="M 338.96576 240.2975 L 292.11377 244.125" style="stroke:rgb(190,185,219);stroke-width:1" /><circle cx="292.11377" cy="244.125" r="2" style="fill:rgb(190,185,219);stroke:none;fill-opacity:1;stroke-opacity:1;" /><path d="M 292.11377 244.125 L 255.7725 246.775" style="stroke:rgb(190,185,219);stroke-width:1" /><circle cx="255.7725" cy="246.775" r="2" style="fill:rgb(190,185,219);stroke:none;fill-opacity:1;stroke-opacity:1;" /><path d="M 255.7725 246.775 L 142.88626 253.52" style="stroke:rgb(190,185,219);stroke-width:1" /><circle cx="142.88626" cy="253.52" r="2" style="fill:rgb(190,185,219);stroke:none;fill-opacity:1;stroke-opacity:1;" /><path d="M 142.88626 253.52 L 30 258.2525" style="stroke:rgb(190,185,219);stroke-width:1" /><circle cx="30" cy="258.2525" r="2" style="fill:rgb(190,185,219);stroke:none;fill-opacity:1;stroke-opacity:1;" /><rect x="676" y="16" width="80" height="175" ry="4" style="fill:rgb(30,30,30);stroke:none;fill-opacity:0.8;stroke-opacity:1;" /><rect x="680" y="20" width="20" height="20" ry="2" style="fill:rgb(253,204,229);stroke:none;fill-opacity:1;stroke-opacity:1;" /><text x="705" y="33" style="font-size:10px;fill:rgb(255,255,255);text-anchor:start;text-align:left;"> hain </text><rect x="680" y="41" width="20" height="20" ry="2" style="fill:rgb(139,211,199);stroke:none;fill-opacity:1;stroke-opacity:1;" /><text x="705" y="54" style="font-size:10px;fill:rgb(255,255,255);text-anchor:start;text-align:left;"> hfd </text><rect x="680" y="62" width="20" height="20" ry="2" style="fill:rgb(253,127,111);stroke:none;fill-opacity:1;stroke-opacity:1;" /><text x="705" y="75" style="font-size:10px;fill:rgb(255,255,255);text-anchor:start;text-align:left;"> levien </text><rect x="680" y="83" width="20" height="20" ry="2" style="fill:rgb(190,185,219);stroke:none;fill-opacity:1;stroke-opacity:1;" /><text x="705" y="96" style="font-size:10px;fill:rgb(255,255,255);text-anchor:start;text-align:left;"> levien-linear </text><rect x="680" y="104" width="20" height="20" ry="2" style="fill:rgb(126,176,213);stroke:none;fill-opacity:1;stroke-opacity:1;" /><text x="705" y="117" style="font-size:10px;fill:rgb(255,255,255);text-anchor:start;text-align:left;"> levien-simd </text><rect x="680" y="125" width="20" height="20" ry="2" style="fill:rgb(255,181,90);stroke:none;fill-opacity:1;stroke-opacity:1;" /><text x="705" y="138" style="font-size:10px;fill:rgb(255,255,255);text-anchor:start;text-align:left;"> linear </text><rect x="680" y="146" width="20" height="20" ry="2" style="fill:rgb(255,238,101);stroke:none;fill-opacity:1;stroke-opacity:1;" /><text x="705" y="159" style="font-size:10px;fill:rgb(255,255,255);text-anchor:start;text-align:left;"> recursive </text><rect x="680" y="167" width="20" height="20" ry="2" style="fill:rgb(178,224,97);stroke:none;fill-opacity:1;stroke-opacity:1;" /><text x="705" y="180" style="font-size:10px;fill:rgb(255,255,255);text-anchor:start;text-align:left;"> wang </text><text x="400" y="30" style="font-size:20px;fill:rgb(255,255,255);text-anchor:middle;text-align:center;"> All </text><text x="400" y="42" style="font-size:8px;fill:rgb(200,200,200);text-anchor:middle;text-align:center;"> Normalized edge count score (lower is better) </text></svg>