<svg xmlns="http://www.w3.org/2000/svg" viewBox="0 0 800 300"><rect x="0" y="0" width="800" height="300" ry="6" style="fill:rgb(30,30,30);stroke:none;fill-opacity:1;stroke-opacity:1;" /><path d="M 30 20 L 30 270" style="stroke:rgb(200,200,200);stroke-width:1" /><path d="M 30 270 L 780 270" style="stroke:rgb(200,200,200);stroke-width:1" /><path d="M 780 270 L 780 272" style="stroke:rgb(200,200,200);stroke-width:1" /><text x="780" y="282" style="font-size:10px;fill:rgb(200,200,200);text-anchor:middle;text-align:center;"> 0.01 </text><path d="M 630.77246 270 L 630.77246 272" style="stroke:rgb(200,200,200);stroke-width:1" /><text x="630.77246" y="282" style="font-size:10px;fill:rgb(200,200,200);text-anchor:middle;text-align:center;"> 0.025 </text><path d="M 517.8862 270 L 517.8862 272" style="stroke:rgb(200,200,200);stroke-width:1" /><text x="517.8862" y="282" style="font-size:10px;fill:rgb(200,200,200);text-anchor:middle;text-align:center;"> 0.05 </text><path d="M 451.85202 270 L 451.85202 272" style="stroke:rgb(200,200,200);stroke-width:1" /><text x="451.85202" y="282" style="font-size:10px;fill:rgb(200,200,200);text-anchor:middle;text-align:center;"> 0.075 </text><path d="M 405 270 L 405 272" style="stroke:rgb(200,200,200);stroke-width:1" /><text x="405" y="282" style="font-size:10px;fill:rgb(200,200,200);text-anchor:middle;text-align:center;"> 0.1 </text><path d="M 338.96576 270 L 338.96576 272" style="stroke:rgb(200,200,200);stroke-width:1" /><text x="338.96576" y="282" style="font-size:10px;fill:rgb(200,200,200);text-anchor:middle;text-align:center;"> 0.15 </text><path d="M 292.11377 270 L 292.11377 272" style="stroke:rgb(200,200,200);stroke-width:1" /><text x="292.11377" y="282" style="font-size:10px;fill:rgb(200,200,200);text-anchor:middle;text-align:center;"> 0.2 </text><path d="M 255.7725 270 L 255.7725 272" style="stroke:rgb(200,200,200);stroke-width:1" /><text x="255.7725" y="282" style="font-size:10px;fill:rgb(200,200,200);text-anchor:middle;text-align:center;"> 0.25 </text><path d="M 142.88626 270 L 142.88626 272" style="stroke:rgb(200,200,200);stroke-width:1" /><text x="142.88626" y="282" style="font-size:10px;fill:rgb(200,200,200);text-anchor:middle;text-align:center;"> 0.5 </text><path d="M 30 270 L 30 272" style="stroke:rgb(200,200,200);stroke-width:1" /><text x="30" y="282" style="font-size:10px;fill:rgb(200,200,200);text-anchor:middle;text-align:center;"> 1 </text><path d="M 28 270 L 30 270" style="stroke:rgb(200,200,200);stroke-width:1" /><text x="26" y="274" style="font-size:10px;fill:rgb(200,200,200);text-anchor:end;text-align:right;"> 0 </text><path d="M 28 207.5 L 30 207.5" style="stroke:rgb(200,200,200);stroke-width:1" /><text x="26" y="211.5" style="font-size:10px;fill:rgb(200,200,200);text-anchor:end;text-align:right;"> 0.25 </text><path d="M 28 145 L 30 145" style="stroke:rgb(200,200,200);stroke-width:1" /><text x="26" y="149" style="font-size:10px;fill:rgb(200,200,200);text-anchor:end;text-align:right;"> 0.5 </text><path d="M 28 82.5 L 30 82.5" style="stroke:rgb(200,200,200);stroke-width:1" /><text x="26" y="86.5" style="font-size:10px;fill:rgb(200,200,200);text-anchor:end;text-align:right;"> 0.75 </text><path d="M 28 20 L 30 20" style="stroke:rgb(200,200,200);stroke-width:1" /><text x="26" y="24" style="font-size:10px;fill:rgb(200,200,200);text-anchor:end;text-align:right;"> 1 </text><text x="400" y="294" style="font-size:10px;fill:rgb(200,200,200);text-anchor:middle;text-align:center;"> Tolerance </text><circle cx="780" cy="120.167496" r="2" style="fill:rgb(255,238,101);stroke:none;fill-opacity:1;stroke-opacity:1;" /><path d="M 780 120.167496 L 630.77246 180.8375" style="stroke:rgb(255,238,101);stroke-width:1" /><circle cx="630.77246" cy="180.8375" r="2" style="fill:rgb(255,238,101);stroke:none;fill-opacity:1;stroke-opacity:1;" /><path d="M 630.77246 180.8375 L 517.8862 200.98001" style="stroke:rgb(255,238,101);stroke-width:1" /><circle cx="517.8862" cy="200.98001" r="2" style="fill:rgb(255,238,101);stroke:none;fill-opacity:1;stroke-opacity:1;" /><path d="M 517.8862 200.98001 L 451.85202 216.0975" style="stroke:rgb(255,238,101);stroke-width:1" /><circle cx="451.85202" cy="216.0975" r="2" style="fill:rgb(255,238,101);stroke:none;fill-opacity:1;stroke-opacity:1;" /><path d="M 451.85202 216.0975 L 405 225.38" style="stroke:rgb(255,238,101);stroke-width:1" /><circle cx="405" cy="225.38" r="2" style="fill:rgb(255,238,101);stroke:none;fill-opacity:1;stroke-opacity:1;" /><path d="M 405 225.38 L 338.96576 231.545" style="stroke:rgb(255,238,101);stroke-width:1" /><circle cx="338.96576" cy="231.545" r="2" style="fill:rgb(255,238,101);stroke:none;fill-opacity:1;stroke-opacity:1;" /><path d="M 338.96576 231.545 L 292.11377 235.4675" style="stroke:rgb(255,238,101);stroke-width:1" /><circle cx="292.11377" cy="235.4675" r="2" style="fill:rgb(255,238,101);stroke:none;fill-opacity:1;stroke-opacity:1;" /><path d="M 292.11377 235.4675 L 255.7725 239.41" style="stroke:rgb(255,238,101);stroke-width:1" /><circle cx="255.7725" cy="239.41" r="2" style="fill:rgb(255,238,101);stroke:none;fill-opacity:1;stroke-opacity:1;" /><path d="M 255.7725 239.41 L 142.88626 249.6" style="stroke:rgb(255,238,101);stroke-width:1" /><circle cx="142.88626" cy="249.6" r="2" style="fill:rgb(255,238,101);stroke:none;fill-opacity:1;stroke-opacity:1;" /><path d="M 142.88626 249.6 L 30 254.6175" style="stroke:rgb(255,238,101);stroke-width:1" /><circle cx="30" cy="254.6175" r="2" style="fill:rgb(255,238,101);stroke:none;fill-opacity:1;stroke-opacity:1;" /><circle cx="780" cy="64.6875" r="2" style="fill:rgb(139,211,199);stroke:none;fill-opacity:1;stroke-opacity:1;" /><path d="M 780 64.6875 L 630.77246 139.8025" style="stroke:rgb(139,211,199);stroke-width:1" /><circle cx="630.77246" cy="139.8025" r="2" style="fill:rgb(139,211,199);stroke:none;fill-opacity:1;stroke-opacity:1;" /><path d="M 630.77246 139.8025 L 517.8862 177.64499" style="stroke:rgb(139,211,199);stroke-width:1" /><circle cx="517.8862" cy="177.64499" r="2" style="fill:rgb(139,211,199);stroke:none;fill-opacity:1;stroke-opacity:1;" /><path d="M 517.8862 177.64499 L 451.85202 194.4025" style="stroke:rgb(139,211,199);stroke-width:1" /><circle cx="451.85202" cy="194.4025" r="2" style="fill:rgb(139,211,199);stroke:none;fill-opacity:1;stroke-opacity:1;" /><path d="M 451.85202 194.4025 L 405 204.39749" style="stroke:rgb(139,211,199);stroke-width:1" /><circle cx="405" cy="204.39749" r="2" style="fill:rgb(139,211,199);stroke:none;fill-opacity:1;stroke-opacity:1;" /><path d="M 405 204.39749 L 338.96576 216.2475" style="stroke:rgb(139,211,199);stroke-width:1" /><circle cx="338.96576" cy="216.2475" r="2" style="fill:rgb(139,211,199);stroke:none;fill-opacity:1;stroke-opacity:1;" /><path d="M 338.96576 216.2475 L 292.11377 223.3075" style="stroke:rgb(139,211,199);stroke-width:1" /><circle cx="292.11377" cy="223.3075" r="2" style="fill:rgb(139,211,199);stroke:none;fill-opacity:1;stroke-opacity:1;" /><path d="M 292.11377 223.3075 L 255.7725 228.1225" style="stroke:rgb(139,211,199);stroke-width:1" /><circle cx="255.7725" cy="228.1225" r="2" style="fill:rgb(139,211,199);stroke:none;fill-opacity:1;stroke-opacity:1;" /><path d="M 255.7725 228.1225 L 142.88626 240.0675" style="stroke:rgb(139,211,199);stroke-width:1" /><circle cx="142.88626" cy="240.0675" r="2" style="fill:rgb(139,211,199);stroke:none;fill-opacity:1;stroke-opacity:1;" /><path d="M 142.88626 240.0675 L 30 248.5175" style="stroke:rgb(139,211,199);stroke-width:1" /><circle cx="30" cy="248.5175" r="2" style="fill:rgb(139,211,199);stroke:none;fill-opacity:1;stroke-opacity:1;" /><circle cx="780" cy="160.435" r="2" style="fill:rgb(253,204,229);stroke:none;fill-opacity:1;stroke-opacity:1;" /><path d="M 780 160.435 L 630.77246 200.41501" style="stroke:rgb(253,204,229);stroke-width:1" /><circle cx="630.77246" cy="200.41501" r="2" style="fill:rgb(253,204,229);stroke:none;fill-opacity:1;stroke-opacity:1;" /><path d="M 630.77246 200.41501 L 517.8862 220.5675" style="stroke:rgb(253,204,229);stroke-width:1" /><circle cx="517.8862" cy="220.5675" r="2" style="fill:rgb(253,204,229);stroke:none;fill-opacity:1;stroke-opacity:1;" /><path d="M 517.8862 220.5675 L 451.85202 229.4925" style="stroke:rgb(253,204,229);stroke-width:1" /><circle cx="451.85202" cy="229.4925" r="2" style="fill:rgb(253,204,229);stroke:none;fill-opacity:1;stroke-opacity:1;" /><path d="M 451.85202 229.4925 L 405 234.8325" style="stroke:rgb(253,204,229);stroke-width:1" /><circle cx="405" cy="234.8325" r="2" style="fill:rgb(253,204,229);stroke:none;fill-opacity:1;stroke-opacity:1;" /><path d="M 405 234.8325 L 338.96576 241.1775" style="stroke:rgb(253,204,229);stroke-width:1" /><circle cx="338.96576" cy="241.1775" r="2" style="fill:rgb(253,204,229);stroke:none;fill-opacity:1;stroke-opacity:1;" /><path d="M 338.96576 241.1775 L 292.11377 244.94" style="stroke:rgb(253,204,229);stroke-width:1" /><circle cx="292.11377" cy="244.94" r="2" style="fill:rgb(253,204,229);stroke:none;fill-opacity:1;stroke-opacity:1;" /><path d="M 292.11377 244.94 L 255.7725 247.525" style="stroke:rgb(253,204,229);stroke-width:1" /><circle cx="255.7725" cy="247.525" r="2" style="fill:rgb(253,204,229);stroke:none;fill-opacity:1;stroke-opacity:1;" /><path d="M 255.7725 247.525 L 142.88626 253.9075" style="stroke:rgb(253,204,229);stroke-width:1" /><circle cx="142.88626" cy="253.9075" r="2" style="fill:rgb(253,204,229);stroke:none;fill-opacity:1;stroke-opacity:1;" /><path d="M 142.88626 253.9075 L 30 258.435" style="stroke:rgb(253,204,229);stroke-width:1" /><circle cx="30" cy="258.435" r="2" style="fill:rgb(253,204,229);stroke:none;fill-opacity:1;stroke-opacity:1;" /><circle cx="780" cy="160.4225" r="2" style="fill:rgb(253,127,111);stroke:none;fill-opacity:1;stroke-opacity:1;" /><path d="M 780 160.4225 L 630.77246 200.44" style="stroke:rgb(253,127,111);stroke-width:1" /><circle cx="630.77246" cy="200.44" r="2" style="fill:rgb(253,127,111);stroke:none;fill-opacity:1;stroke-opacity:1;" /><path d="M 630.77246 200.44 L 517.8862 220.615" style="stroke:rgb(253,127,111);stroke-width:1" /><circle cx="517.8862" cy="220.615" r="2" style="fill:rgb(253,127,111);stroke:none;fill-opacity:1;stroke-opacity:1;" /><path d="M 517.8862 220.615 L 451.85202 229.52249" style="stroke:rgb(253,127,111);stroke-width:1" /><circle cx="451.85202" cy="229.52249" r="2" style="fill:rgb(253,127,111);stroke:none;fill-opacity:1;stroke-opacity:1;" /><path d="M 451.85202 229.52249 L 405 234.8475" style="stroke:rgb(253,127,111);stroke-width:1" /><circle cx="405" cy="234.8475" r="2" style="fill:rgb(253,127,111);stroke:none;fill-opacity:1;stroke-opacity:1;" /><path d="M 405 234.8475 L 338.96576 241.1825" style="stroke:rgb(253,127,111);stroke-width:1" /><circle cx="338.96576" cy="241.1825" r="2" style="fill:rgb(253,127,111);stroke:none;fill-opacity:1;stroke-opacity:1;" /><path d="M 338.96576 241.1825 L 292.11377 244.94" style="stroke:rgb(253,127,111);stroke-width:1" /><circle cx="292.11377" cy="244.94" r="2" style="fill:rgb(253,127,111);stroke:none;fill-opacity:1;stroke-opacity:1;" /><path d="M 292.11377 244.94 L 255.7725 247.5125" style="stroke:rgb(253,127,111);stroke-width:1" /><circle cx="255.7725" cy="247.5125" r="2" style="fill:rgb(253,127,111);stroke:none;fill-opacity:1;stroke-opacity:1;" /><path d="M 255.7725 247.5125 L 142.88626 253.8725" style="stroke:rgb(253,127,111);stroke-width:1" /><circle cx="142.88626" cy="253.8725" r="2" style="fill:rgb(253,127,111);stroke:none;fill-opacity:1;stroke-opacity:1;" /><path d="M 142.88626 253.8725 L 30 258.3575" style="stroke:rgb(253,127,111);stroke-width:1" /><circle cx="30" cy="258.3575" r="2" style="fill:rgb(253,127,111);stroke:none;fill-opacity:1;stroke-opacity:1;" /><circle cx="780" cy="122.2975" r="2" style="fill:rgb(255,181,90);stroke:none;fill-opacity:1;stroke-opacity:1;" /><path d="M 780 122.2975 L 630.77246 177.45749" style="stroke:rgb(255,181,90);stroke-width:1" /><circle cx="630.77246" cy="177.45749" r="2" style="fill:rgb(255,181,90);stroke:none;fill-opacity:1;stroke-opacity:1;" /><path d="M 630.77246 177.45749 L 517.8862 204.4725" style="stroke:rgb(255,181,90);stroke-width:1" /><circle cx="517.8862" cy="204.4725" r="2" style="fill:rgb(255,181,90);stroke:none;fill-opacity:1;stroke-opacity:1;" /><path d="M 517.8862 204.4725 L 451.85202 217.02249" style="stroke:rgb(255,181,90);stroke-width:1" /><circle cx="451.85202" cy="217.02249" r="2" style="fill:rgb(255,181,90);stroke:none;fill-opacity:1;stroke-opacity:1;" /><path d="M 451.85202 217.02249 L 405 223.9125" style="stroke:rgb(255,181,90);stroke-width:1" /><circle cx="405" cy="223.9125" r="2" style="fill:rgb(255,181,90);stroke:none;fill-opacity:1;stroke-opacity:1;" /><path d="M 405 223.9125 L 338.96576 232.14749" style="stroke:rgb(255,181,90);stroke-width:1" /><circle cx="338.96576" cy="232.14749" r="2" style="fill:rgb(255,181,90);stroke:none;fill-opacity:1;stroke-opacity:1;" /><path d="M 338.96576 232.14749 L 292.11377 237.3925" style="stroke:rgb(255,181,90);stroke-width:1" /><circle cx="292.11377" cy="237.3925" r="2" style="fill:rgb(255,181,90);stroke:none;fill-opacity:1;stroke-opacity:1;" /><path d="M 292.11377 237.3925 L 255.7725 241.0375" style="stroke:rgb(255,181,90);stroke-width:1" /><circle cx="255.7725" cy="241.0375" r="2" style="fill:rgb(255,181,90);stroke:none;fill-opacity:1;stroke-opacity:1;" /><path d="M 255.7725 241.0375 L 142.88626 249.3325" style="stroke:rgb(255,181,90);stroke-width:1" /><circle cx="142.88626" cy="249.3325" r="2" style="fill:rgb(255,181,90);stroke:none;fill-opacity:1;stroke-opacity:1;" /><path d="M 142.88626 249.3325 L 30 255.5425" style="stroke:rgb(255,181,90);stroke-width:1" /><circle cx="30" cy="255.5425" r="2" style="fill:rgb(255,181,90);stroke:none;fill-opacity:1;stroke-opacity:1;" /><circle cx="780" cy="100.4025" r="2" style="fill:rgb(190,185,219);stroke:none;fill-opacity:1;stroke-opacity:1;" /><path d="M 780 100.4025 L 630.77246 157.47751" style="stroke:rgb(190,185,219);stroke-width:1" /><circle cx="630.77246" cy="157.47751" r="2" style="fill:rgb(190,185,219);stroke:none;fill-opacity:1;stroke-opacity:1;" /><path d="M 630.77246 157.47751 L 517.8862 191.215" style="stroke:rgb(190,185,219);stroke-width:1" /><circle cx="517.8862" cy="191.215" r="2" style="fill:rgb(190,185,219);stroke:none;fill-opacity:1;stroke-opacity:1;" /><path d="M 517.8862 191.215 L 451.85202 202.93" style="stroke:rgb(190,185,219);stroke-width:1" /><circle cx="451.85202" cy="202.93" r="2" style="fill:rgb(190,185,219);stroke:none;fill-opacity:1;stroke-opacity:1;" /><path d="M 451.85202 202.93 L 405 213.53" style="stroke:rgb(190,185,219);stroke-width:1" /><circle cx="405" cy="213.53" r="2" style="fill:rgb(190,185,219);stroke:none;fill-opacity:1;stroke-opacity:1;" /><path d="M 405 213.53 L 338.96576 225.89749" style="stroke:rgb(190,185,219);stroke-width:1" /><circle cx="338.96576" cy="225.89749" r="2" style="fill:rgb(190,185,219);stroke:none;fill-opacity:1;stroke-opacity:1;" /><path d="M 338.96576 225.89749 L 292.11377 230.425" style="stroke:rgb(190,185,219);stroke-width:1" /><circle cx="292.11377" cy="230.425" r="2" style="fill:rgb(190,185,219);stroke:none;fill-opacity:1;stroke-opacity:1;" /><path d="M 292.11377 230.425 L 255.7725 233.5375" style="stroke:rgb(190,185,219);stroke-width:1" /><circle cx="255.7725" cy="233.5375" r="2" style="fill:rgb(190,185,219);stroke:none;fill-opacity:1;stroke-opacity:1;" /><path d="M 255.7725 233.5375 L 142.88626 245.4725" style="stroke:rgb(190,185,219);stroke-width:1" /><circle cx="142.88626" cy="245.4725" r="2" style="fill:rgb(190,185,219);stroke:none;fill-opacity:1;stroke-opacity:1;" /><path d="M 142.88626 245.4725 L 30 251.615" style="stroke:rgb(190,185,219);stroke-width:1" /><circle cx="30" cy="251.615" r="2" style="fill:rgb(190,185,219);stroke:none;fill-opacity:1;stroke-opacity:1;" /><circle cx="780" cy="160.44751" r="2" style="fill:rgb(126,176,213);stroke:none;fill-opacity:1;stroke-opacity:1;" /><path d="M 780 160.44751 L 630.77246 200.465" style="stroke:rgb(126,176,213);stroke-width:1" /><circle cx="630.77246" cy="200.465" r="2" style="fill:rgb(126,176,213);stroke:none;fill-opacity:1;stroke-opacity:1;" /><path d="M 630.77246 200.465 L 517.8862 220.625" style="stroke:rgb(126,176,213);stroke-width:1" /><circle cx="517.8862" cy="220.625" r="2" style="fill:rgb(126,176,213);stroke:none;fill-opacity:1;stroke-opacity:1;" /><path d="M 517.8862 220.625 L 451.85202 229.5325" style="stroke:rgb(126,176,213);stroke-width:1" /><circle cx="451.85202" cy="229.5325" r="2" style="fill:rgb(126,176,213);stroke:none;fill-opacity:1;stroke-opacity:1;" /><path d="M 451.85202 229.5325 L 405 234.86" style="stroke:rgb(126,176,213);stroke-width:1" /><circle cx="405" cy="234.86" r="2" style="fill:rgb(126,176,213);stroke:none;fill-opacity:1;stroke-opacity:1;" /><path d="M 405 234.86 L 338.96576 241.1875" style="stroke:rgb(126,176,213);stroke-width:1" /><circle cx="338.96576" cy="241.1875" r="2" style="fill:rgb(126,176,213);stroke:none;fill-opacity:1;stroke-opacity:1;" /><path d="M 338.96576 241.1875 L 292.11377 244.9475" style="stroke:rgb(126,176,213);stroke-width:1" /><circle cx="292.11377" cy="244.9475" r="2" style="fill:rgb(126,176,213);stroke:none;fill-opacity:1;stroke-opacity:1;" /><path d="M 292.11377 244.9475 L 255.7725 247.52" style="stroke:rgb(126,176,213);stroke-width:1" /><circle cx="255.7725" cy="247.52" r="2" style="fill:rgb(126,176,213);stroke:none;fill-opacity:1;stroke-opacity:1;" /><path d="M 255.7725 247.52 L 142.88626 253.875" style="stroke:rgb(126,176,213);stroke-width:1" /><circle cx="142.88626" cy="253.875" r="2" style="fill:rgb(126,176,213);stroke:none;fill-opacity:1;stroke-opacity:1;" /><path d="M 142.88626 253.875 L 30 258.36" style="stroke:rgb(126,176,213);stroke-width:1" /><circle cx="30" cy="258.36" r="2" style="fill:rgb(126,176,213);stroke:none;fill-opacity:1;stroke-opacity:1;" /><circle cx="780" cy="60.585007" r="2" style="fill:rgb(178,224,97);stroke:none;fill-opacity:1;stroke-opacity:1;" /><path d="M 780 60.585007 L 630.77246 137.285" style="stroke:rgb(178,224,97);stroke-width:1" /><circle cx="630.77246" cy="137.285" r="2" style="fill:rgb(178,224,97);stroke:none;fill-opacity:1;stroke-opacity:1;" /><path d="M 630.77246 137.285 L 517.8862 175.955" style="stroke:rgb(178,224,97);stroke-width:1" /><circle cx="517.8862" cy="175.955" r="2" style="fill:rgb(178,224,97);stroke:none;fill-opacity:1;stroke-opacity:1;" /><path d="M 517.8862 175.955 L 451.85202 193.07" style="stroke:rgb(178,224,97);stroke-width:1" /><circle cx="451.85202" cy="193.07" r="2" style="fill:rgb(178,224,97);stroke:none;fill-opacity:1;stroke-opacity:1;" /><path d="M 451.85202 193.07 L 405 203.2875" style="stroke:rgb(178,224,97);stroke-width:1" /><circle cx="405" cy="203.2875" r="2" style="fill:rgb(178,224,97);stroke:none;fill-opacity:1;stroke-opacity:1;" /><path d="M 405 203.2875 L 338.96576 215.4025" style="stroke:rgb(178,224,97);stroke-width:1" /><circle cx="338.96576" cy="215.4025" r="2" style="fill:rgb(178,224,97);stroke:none;fill-opacity:1;stroke-opacity:1;" /><path d="M 338.96576 215.4025 L 292.11377 222.61" style="stroke:rgb(178,224,97);stroke-width:1" /><circle cx="292.11377" cy="222.61" r="2" style="fill:rgb(178,224,97);stroke:none;fill-opacity:1;stroke-opacity:1;" /><path d="M 292.11377 222.61 L 255.7725 227.52249" style="stroke:rgb(178,224,97);stroke-width:1" /><circle cx="255.7725" cy="227.52249" r="2" style="fill:rgb(178,224,97);stroke:none;fill-opacity:1;stroke-opacity:1;" /><path d="M 255.7725 227.52249 L 142.88626 239.75" style="stroke:rgb(178,224,97);stroke-width:1" /><circle cx="142.88626" cy="239.75" r="2" style="fill:rgb(178,224,97);stroke:none;fill-opacity:1;stroke-opacity:1;" /><path d="M 142.88626 239.75 L 30 248.405" style="stroke:rgb(178,224,97);stroke-width:1" /><circle cx="30" cy="248.405" r="2" style="fill:rgb(178,224,97);stroke:none;fill-opacity:1;stroke-opacity:1;" /><rect x="676" y="16" width="80" height="175" ry="4" style="fill:rgb(30,30,30);stroke:none;fill-opacity:0.8;stroke-opacity:1;" /><rect x="680" y="20" width="20" height="20" ry="2" style="fill:rgb(139,211,199);stroke:none;fill-opacity:1;stroke-opacity:1;" /><text x="705" y="33" style="font-size:10px;fill:rgb(255,255,255);text-anchor:start;text-align:left;"> hain </text><rect x="680" y="41" width="20" height="20" ry="2" style="fill:rgb(190,185,219);stroke:none;fill-opacity:1;stroke-opacity:1;" /><text x="705" y="54" style="font-size:10px;fill:rgb(255,255,255);text-anchor:start;text-align:left;"> hfd </text><rect x="680" y="62" width="20" height="20" ry="2" style="fill:rgb(253,127,111);stroke:none;fill-opacity:1;stroke-opacity:1;" /><text x="705" y="75" style="font-size:10px;fill:rgb(255,255,255);text-anchor:start;text-align:left;"> levien </text><rect x="680" y="83" width="20" height="20" ry="2" style="fill:rgb(253,204,229);stroke:none;fill-opacity:1;stroke-opacity:1;" /><text x="705" y="96" style="font-size:10px;fill:rgb(255,255,255);text-anchor:start;text-align:left;"> levien-linear </text><rect x="680" y="104" width="20" height="20" ry="2" style="fill:rgb(126,176,213);stroke:none;fill-opacity:1;stroke-opacity:1;" /><text x="705" y="117" style="font-size:10px;fill:rgb(255,255,255);text-anchor:start;text-align:left;"> levien-simd </text><rect x="680" y="125" width="20" height="20" ry="2" style="fill:rgb(255,181,90);stroke:none;fill-opacity:1;stroke-opacity:1;" /><text x="705" y="138" style="font-size:10px;fill:rgb(255,255,255);text-anchor:start;text-align:left;"> linear </text><rect x="680" y="146" width="20" height="20" ry="2" style="fill:rgb(255,238,101);stroke:none;fill-opacity:1;stroke-opacity:1;" /><text x="705" y="159" style="font-size:10px;fill:rgb(255,255,255);text-anchor:start;text-align:left;"> recursive </text><rect x="680" y="167" width="20" height="20" ry="2" style="fill:rgb(178,224,97);stroke:none;fill-opacity:1;stroke-opacity:1;" /><text x="705" y="180" style="font-size:10px;fill:rgb(255,255,255);text-anchor:start;text-align:left;"> wang </text><text x="400" y="30" style="font-size:20px;fill:rgb(255,255,255);text-anchor:middle;text-align:center;"> Nehab </text><text x="400" y="42" style="font-size:8px;fill:rgb(200,200,200);text-anchor:middle;text-align:center;"> Normalized edge count score (lower is better) </text></svg>