<?xml version="1.0" standalone="no"?>
<svg
  xmlns:xlink="http://www.w3.org/1999/xlink"
  xmlns:dc="http://purl.org/dc/elements/1.1/"
  xmlns:cc="http://creativecommons.org/ns#"
  xmlns:rdf="http://www.w3.org/1999/02/22-rdf-syntax-ns#"
  xmlns:svg="http://www.w3.org/2000/svg"
  xmlns="http://www.w3.org/2000/svg"
  version="1.1"
  preserveAspectRatio="none"
  width="507" height="503"
  viewBox="0 0 134.09 133.054">
  <defs>
  </defs>
  <g> <!-- invert y -->
    <g> <!-- scene-transformation -->
      <g transform="translate(-7.58176,-36.8561)">
        <path id="shape0" fill-rule="nonzero" fill="none" stroke-width="4.51303" stroke-linejoin="miter" stroke-miterlimit="4" stroke-linecap="butt" stroke-dashoffset="0" transform="matrix(0.293163,0,0,0.293102,52.7474,73.0815)" stroke="black" d="M 76.3512 101.964 C 77.0986 102.382 76.157 103.178 75.6571 103.207 74.3024 103.284 73.6353 101.71 73.8666 100.576 74.2805 98.5483 76.5971 97.6686 78.4334 98.2375 81.1283 99.0722 82.2466 102.216 81.3203 104.741 80.0857 108.105 76.0887 109.468 72.8809 108.176 68.8441 106.55 67.2359 101.689 68.8975 97.7999 70.91 93.0899 76.6408 91.2346 81.2096 93.2683 86.5938 95.6651 88.6968 102.269 86.2894 107.517 83.51 113.576 76.0311 115.927 70.1046 113.145 63.3706 109.984 60.7711 101.628 63.9284 95.0237 67.4704 87.6142 76.7033 84.7662 83.9859 88.2992 92.071 92.2216 95.1678 102.333 91.2585 110.293 86.9561 119.054 75.9663 122.4 67.3284 118.114 57.8916 113.432 54.2968 101.563 58.9593 92.2474 64.021 82.1345 76.7694 78.2908 86.7622 83.3301 97.5511 88.7711 101.644 102.399 96.2276 113.069 90.4076 124.534 75.8994 128.877 64.5521 123.083 52.4107 116.884 47.8194 101.496 53.9902 89.4711 60.5682 76.6534 76.8369 71.8128 89.5384 78.361 103.032 85.3178 108.122 102.467 101.197 115.846 93.8612 130.016 75.8315 135.355 61.7759 128.052 46.929 120.338 41.3404 101.428 49.0211 86.6949 57.114 71.1716 76.905 65.3337 92.3147 73.3919 108.514 81.8634 114.602 102.535 106.166 118.622 97.3158 135.498 75.7631 141.835 58.9996 133.021 41.4469 123.793 34.8607 101.359 44.052 83.9186 53.659 65.6894 76.9735 58.8538 95.0909 68.4228 113.997 78.4082 121.082 102.604 111.135 121.398 100.771 140.98 75.6945 148.315 56.2233 137.99 35.9645 127.248 28.3806 101.29 39.0829 81.1424 50.2035 60.2069 77.0423 52.3736 97.8672 63.4537 119.479 74.9526 127.562 102.673 116.104 124.174 104.227 146.463 75.6257 154.795 53.4471 142.959 30.4819 130.704 21.9001 101.222 34.1138 78.3661 46.7477 54.7244 77.1112 45.8931 100.643 58.4846 124.962 71.4968 134.043 102.742 121.073 126.951 107.683 151.946 75.5567 161.276 50.6708 147.929 24.9993 134.16 15.4195 101.153 29.1447 75.5899 43.2917 49.2417 77.1802 39.4124 103.42 53.5155 130.445 68.0407 140.523 102.811 126.042 129.727 111.139 157.428 75.4877 167.757 47.8946 152.898 19.5165 137.616 8.93865 101.083 24.1756 72.8136 39.8355 43.7589 77.2493 32.9315 106.196 48.5464 135.927 64.5845 147.004 102.88 131.011 132.503 114.595 162.911 75.4185 174.238 45.1183 157.867 14.0337 141.072 2.45774 101.014 19.2065 70.0373 36.3792 38.2761 77.3184 26.4506 108.972 43.5773 141.41 61.1283 153.485 102.949 135.98 135.279 118.051 168.394 75.3494 180.718 42.3421 162.836 8.55084 144.528 -4.02326 100.945 14.2374 67.2611 32.9229 32.7932 77.3876 19.9696 111.748 38.6082 146.893 57.6719 159.966 103.018 140.95 138.056 121.508 173.877 75.2802 187.2 39.5658 167.805 3.06795 147.985 -10.5043 100.876 9.26826 64.4848 29.4665 27.3103 77.4568 13.4885 114.525 33.6391 152.376 54.2155 166.447 103.087 145.919 140.832 124.964 179.36 75.2109 193.681 36.7896 172.774 -2.41497 151.441 -16.9854 100.807 4.29915 61.7086 26.01 21.8274 77.5261 7.00738 117.301 28.67 157.859 50.759 172.928 103.156 150.888 143.608 128.421 184.843 75.1417 200.162 34.0133 177.743 -7.89791 154.898 -23.4666 100.737 -0.669954 58.9323 22.5535 16.3444 77.5953 0.526219 120.077 23.7009 163.342 47.3025 179.41 103.226 155.857 146.384 131.877 190.326 75.0724 206.643 31.237 182.712 -13.3809 158.354 -29.9478 100.668 -5.63906 56.1561 19.097 10.8615 77.6646 -5.95497 122.853 18.7318 168.825 43.8459 185.891 103.295 160.826 149.161 135.334 195.809 75.0031 213.124 28.4608 187.681 -18.8638 161.811 -36.429 100.599 -10.6082 53.3798 15.6404 5.37851 77.7339 -12.4362 125.63 13.7626 174.308 40.3893 192.372 103.364 165.795 151.937 138.79 201.292 74.9338 219.605 25.6845 192.65 -24.3468 165.268 -42.9102 100.53 -15.5773 50.6036 12.1838 -0.104484 77.8032 -18.9174 128.406 8.79354 179.791 36.9327 198.853 103.434 170.764 154.713 142.247 206.775 74.8645 226.087 22.9083 197.62 -29.8298 168.724 -49.3915 100.46 -20.5464 47.8273 8.72718 -5.58748 77.8726 -25.3987 131.182 3.82443 185.274 33.4761 205.334 103.503 175.733 157.489 145.704 212.258 74.7952 232.568 20.132 202.589 -35.3128 172.181 -55.8727 100.391 -25.5155 45.051 5.27055 -11.0705 77.9419 -31.88 133.958 -1.14467 190.757 30.0195 211.816 103.572 180.702 160.266 149.16 217.741 74.7258 239.049 17.3558 207.558 -40.7958 175.637 -62.354 100.322 -30.4846 42.2748 1.8139 -16.5535 78.0112 -38.3612 136.735 -6.11378 196.24 26.5628 218.297 103.642 185.672 163.042 152.617 223.224 74.6565 245.53 14.5795 212.527 -46.2789 179.094 -68.8353 100.252 -35.4537 39.4985 -1.64276 -22.0365 78.0806 -44.8425 139.511 -11.0829 201.723 23.1062 224.778 103.711 190.641 165.818 156.073 228.707 74.5871 252.012 11.8033 217.496 -51.7619 182.551 -75.3166 100.183 -40.4228 36.7223 -5.09943 -27.5196 78.1499 -51.3239 142.287 -16.052 207.206 19.6495 231.26 103.78 195.61 168.594 159.53 234.19 74.5178 258.493 9.027 222.465 -57.2449 186.007 -81.7979 100.114 -45.3919 33.946 -8.55611 -33.0026 78.2193 -57.8052 145.064 -21.0211 212.689 16.1928 237.741 103.85 200.579 171.371 162.987 239.673 74.4484 264.974 6.25075 227.434 -62.728 189.464 -88.2793 100.044 -50.361 31.1698 -12.0128 -38.4856 78.2887 -64.2865 147.84 -25.9902 218.172 12.7361 244.222 103.919 205.548 174.147 166.444 245.156 74.379 271.456 3.47449 232.403 -68.211 192.921 -94.7606 99.9748 -55.3301 28.3935 -15.4695 -43.9687 78.358 -70.7678 150.616 -30.9593 223.655 9.27942 250.704 103.988 210.517 176.923 169.9 250.639 74.3097 277.937 0.698234 237.372 -73.694 196.378 -101.242 99.9054 -60.2992 25.6173 -18.9262 -49.4517 78.4274 -77.2492 153.392 -35.9284 229.138 5.82272 257.185 104.058 215.486 179.699 173.357 256.122 74.2403 284.418 -2.07802 242.342 -79.1771 199.834 -107.723 99.836 -65.2683 22.841 -22.3829 -54.9348 78.4968 -83.7305 156.169 -40.8975 234.621 2.366 263.666 104.127 220.455 182.476 176.814 261.605 74.1709 290.9 -4.85428 247.311 -84.6601 203.291 -114.205 99.7667 -70.2374 20.0648 -25.8396 -60.4178 78.5662 -90.2119 158.945 -45.8666 240.104 -1.09071 270.148 104.197 225.424 185.252 180.27 267.088 74.1015 297.381 -7.63053 252.28 -90.1432 206.748 -120.686 99.6973 -75.2066 17.2885 -29.2963 -65.9009 78.6356 -96.6932 161.721 -50.8357 245.587 -4.54743 276.629 104.266 230.393 188.028 183.727 272.571 74.0321 303.862 -10.4068 257.249 -95.6262 210.204 -127.167 99.6279 -80.1757 14.5122 -32.7531 -71.3839 78.7049 -103.175 164.497 -55.8048 251.07 -8.00416 283.11 104.335 235.363 190.804 187.184 278.054 73.9628 310.344 -13.183 262.218 -101.109 213.661 -133.649 99.5585 -85.1448 11.736 -36.2098 -76.867 78.7743 -109.656 167.274 -60.7739 256.553 -11.4609 289.592 104.405 240.332 193.581 190.641 283.537 73.8934 316.825 -15.9593 267.187 -106.592 217.118 -140.13 99.4891 -90.1139 8.95973 -39.6665 -82.35 78.8437 -116.137 170.05 -65.7431 262.036 -14.9176 296.073 104.474 245.301 196.357 194.097 289.02 73.824 323.307 -18.7356 272.156 -112.075 220.575 -146.611 99.4197 -95.083 6.18347 -43.1233 -87.8331 78.9131 -122.619 172.826 -70.7122 267.519 -18.3744 302.555 104.544 250.27 199.133 197.554 294.503 73.7546 329.788 -21.5118 277.125 -117.558 224.031 -153.093 99.3503 -100.052 3.40722 -46.58 -93.3162 78.9825 -129.1 175.602 -75.6813 273.002 -21.8311 309.036 104.613 255.239 201.909 201.011 299.986 73.6852 336.269 -24.2881 282.094 -123.042 227.488 -159.574 99.2809 -105.021 0.630961 -50.0367 -98.7992 79.0519 -135.581 178.379 -80.6504 278.485 -25.2878 315.517 104.682 260.208 204.686 204.468 305.469 73.6158 342.751 -27.0643 287.064 -128.525 230.945 -166.056 99.2115 -109.99 -2.14529 -53.4935 -104.282 79.1213 -142.063 181.155 -85.6195 283.969 -28.7446 321.999 104.752 265.177 207.462 207.924 310.952 73.5464 349.232 -29.8406 292.033 -101.174 252.567 -145.235 174.3 -142.18 92.8602"/>
      </g>
    </g>
  </g>
</svg>
