<?xml version="1.0" encoding="UTF-8" standalone="no"?>
<svg xmlns:xlink="http://www.w3.org/1999/xlink" xmlns:dc="http://purl.org/dc/elements/1.1/" xmlns:cc="http://creativecommons.org/ns#" xmlns:rdf="http://www.w3.org/1999/02/22-rdf-syntax-ns#" xmlns:svg="http://www.w3.org/2000/svg" xmlns="http://www.w3.org/2000/svg" version="1.1" preserveAspectRatio="none" width="1280" height="720" viewBox="0 0 1280 720">
  <defs>
  </defs>
  <g> <!-- invert y -->
    <g> <!-- scene-transformation -->
      <path id="shape0" fill-rule="nonzero" fill="none" stroke-width="2" stroke-linejoin="round" stroke-miterlimit="4" stroke-linecap="round" stroke-dashoffset="0" stroke="rgb(77,112,116)" d="M 858.5 349.7 C 840.6 353 822.4 353.9 804.2 353.9 789.3 353.9 773.5 353.1 760.2 345.8 753 341.8 746.5 335.9 742.9 328.4 M 747 315.4 C 747.6 319.4 749.4 323 750.7 326.8 751.3 328.6 751.7 330.5 752.8 332.1 753.8 333.5 755.4 334.2 756.9 334.9 764.6 338.4 772.9 340 781.2 341.5 790.1 343.1 799 344.5 808.1 344 812.6 343.8 817.1 343.1 821.6 342.6 826.1 342.1 830.6 341.7 835.1 341.2 844.1 340.2 853 338.8 861.7 336.7 M 650.7 292.5 C 649.8 293.4 649.2 294.6 650.8 295.2 652.8 296 655.2 296.1 657.3 296.5 661.6 297.4 665.9 298.6 670 300 678.4 302.9 686.6 306.5 694.8 309.9 703.1 313.2 711.5 316.1 719.7 319.7 723.5 321.4 727.4 323.1 730.7 325.7 732.2 326.8 733.5 328.2 735.2 328.9 737.1 329.6 739.2 329.4 741.1 329.1 741.9 329 742.8 328.8 743.6 328.6 M 586.3 222.6 C 584.7 228.6 590.4 232.7 594.8 235.4 596.4 236.4 598 237.3 599.4 238.4 600.7 239.5 601.3 241.1 602.2 242.5 603.9 244.9 607.2 244.9 609.8 245.3 M 581.5 239.4 C 580.9 242.4 581.4 245.6 582.7 248.4 584 251.1 586 253.3 587.8 255.6 588.7 256.7 589.4 257.8 590 259 590.7 260.4 591.1 262.1 592.1 263.4 593.7 265.6 596.6 266.3 599.1 266.6 M 846.1 363.4 C 848.8 366.1 852.7 367.2 856.4 367.7 860.9 368.4 865.4 368.6 870 369.1 879 370.1 888 371.5 897 372.8 914.7 375.3 932.7 376.9 950.6 375.3 957.4 374.7 967 372.8 966.9 364.1 M 618.1 305 C 618.5 306.5 620.1 307.3 621.4 307.8 623.5 308.7 625.6 309.4 627.8 310.2 632 311.7 636.1 313.3 640.2 315 648.5 318.4 657 321.1 665.4 324 673.9 326.9 682.3 330.2 690.5 333.8 698.7 337.3 706.5 341.5 714.4 345.5 721.3 348.9 728.6 351.7 735.6 354.9 742 357.8 748.2 361.6 755.4 362.1 M 744.8 344.7 C 745 344.9 745.2 345.2 745.4 345.4 748.2 348.2 751.6 350.3 755.1 352.1 758.9 354.1 762.8 355.8 766.9 357.1 775.3 359.9 784.1 361.6 792.9 362.7 810.9 365 829.2 364.7 847.2 362.7 M 744.6 344.2 C 741.8 345 738.9 345 736.3 343.7 733.6 342.3 731.2 340.3 728.8 338.6 721.7 333.7 713.8 330.2 705.8 326.9 697.4 323.4 688.9 319.8 680.4 316.4 672 313.1 663.6 309.9 654.9 307.5 650.6 306.3 646.2 305.4 641.8 304.4 640 304 637.9 303.8 636.2 303 634.4 302.1 635.3 301.1 636.6 300.3 M 598.1 273.3 C 597.1 277.4 597.7 281.8 600.1 285.2 602.5 288.5 606.1 290.9 609.7 292.8 617.9 297 627 299.1 636.1 300.3 M 908.2 272.2 C 915.7 270.1 923.2 267.8 930.6 265.1 937 262.8 943.3 260 948.4 255.4 949.5 254.4 949.5 252.7 949.7 251.3 949.9 249.7 949.6 248.5 948.8 247.1 947.4 244.5 945.4 242.4 943 240.6 939.9 238.3 936.7 236.1 933.3 234.3 930.1 232.6 926.8 231.3 923.5 229.7 M 589.7 214.9 C 586.9 220.9 594.4 224.8 598.8 226.8 602.1 228.3 606 229.3 608.3 232.3 609.3 233.7 610 235.2 611.6 236 613.4 236.9 615.4 237.2 617.3 237.7 M 861.8 339.5 C 864.7 341.9 868 343.6 871.7 344.2 876.2 345 880.7 345 885.2 345.8 894.1 347.3 902.7 349.9 911.6 351.5 920.5 353.2 929.5 354.2 938.6 354.4 943.1 354.5 947.6 354.5 952.1 354 955 353.7 958.2 353.4 960.7 351.9 963.4 350.3 963.7 347.8 962.8 344.9 M 577.4 259.5 C 577.1 263.7 577.5 267.9 579.1 271.8 580.7 275.6 583 279.1 584.9 282.7 586.9 286.4 588.1 290.5 590.1 294.2 592 297.8 594.6 300.9 597.7 303.7 603.9 309.2 611.4 312.6 618.7 316.3 622.6 318.3 626.3 320.6 629.9 323.1 633.4 325.6 636.9 328 640.7 329.8 648.1 333.3 656.2 335.1 664 337.5 672.2 340 680.3 342.9 687.8 347.1 695.2 351.3 702.3 356.2 710.3 359.4 718.5 362.7 727.1 364.5 735.5 366.9 744 369.3 752.2 372.7 760.6 375.6 769.1 378.5 777.7 380.7 786.5 382.4 804.5 386 822.8 387.4 841.1 389.4 859.4 391.5 877.7 393.9 896.1 395.3 905.3 396 914.4 396.3 923.6 396.4 932.5 396.5 941.6 396.6 950.3 394.9 955.6 393.9 960.6 391.6 963.8 387 967.3 382 968.5 375.7 967.2 369.7 M 575.7 269.6 C 575.3 273.8 575.5 278.1 576.8 282.1 578.2 286.1 580.5 289.7 582.6 293.3 586.6 300 590.2 307.2 596.2 312.5 602.1 317.8 609.6 321.2 615.5 326.5 621.3 331.7 626.4 337.7 633.1 341.7 640.3 345.9 648.6 347.8 656.6 349.9 660.8 351 665 352.1 669.1 353.5 673.1 354.9 676.7 357 680.2 359.4 683.7 361.8 687 364.4 690.6 366.6 694.3 368.9 698.3 370.5 702.4 371.9 710.8 374.8 719.6 376.5 728.3 378.2 737.1 380 746 381.8 754.7 384.1 763.4 386.5 771.9 389.3 780.7 391.3 798.5 395.4 816.8 397.2 834.8 399.6 853.1 402 871.4 404.5 889.8 405.6 899 406.1 908.2 406.4 917.4 406.4 926.1 406.4 935 406.7 943.6 405.2 947.5 404.5 951.5 403.5 955 401.5 958.4 399.5 961.2 396.5 963.6 393.4 966 390.1 968 386.6 969.1 382.7 970.3 378.5 970.3 374.1 970.9 369.8 971.5 365.6 972 361.7 974.2 357.9 976.3 354.4 979.3 351.4 982.4 348.9 989 343.4 996.5 339.2 1003.3 334 1009.3 329.4 1015 323.8 1018 316.8 1019.6 313 1020.3 308.7 1019.4 304.6 1018.5 300.6 1016.4 297.1 1013.9 293.8 M 574 280.7 C 573.6 285.4 574 290 575.7 294.4 577.3 298.4 579.5 302.2 581.9 305.8 586.8 313.1 592.8 319.5 599.2 325.5 602.4 328.6 605.6 331.6 608.6 335 611.5 338.2 614.2 341.5 617 344.8 622.6 351.2 629 356 637.1 358.7 645.1 361.4 653.6 362.2 661.5 365 665.5 366.4 669.1 368.5 672.4 371.2 675.6 373.8 678.7 376.6 682.2 378.7 689.3 382.9 697.3 385 705.3 386.6 714.2 388.4 723.2 389.8 732.2 391.5 750.2 394.9 768.2 398.9 786.2 402.5 822 409.8 858.4 414.9 894.9 416 904 416.3 913.2 416.3 922.3 416.1 930.6 415.9 939.5 415.5 947.3 412.3 954.2 409.4 960.1 404.3 965 398.7 967.7 395.6 970.1 392.3 971.9 388.6 973.7 385 975.3 381.2 977.6 377.8 982 371.4 988.2 366.6 994.4 362 1001.2 356.9 1008.1 351.9 1014 345.7 1019.3 340.1 1023.4 333.2 1025.3 325.7 1026.3 321.6 1026.8 317.2 1025.8 313.1 1024.9 309.2 1023.1 305.6 1020.7 302.4 M 572.6 292.1 C 571.1 311 587.6 324.9 598.8 337.9 604.5 344.5 610 351.4 615.3 358.4 617.8 361.7 620.4 364.6 623.7 367 627.1 369.5 631 370.6 635 371.6 643 373.6 651.3 374.7 658.7 378.6 662.3 380.5 665.6 383 668.7 385.7 671.8 388.4 674.9 391 678.7 392.6 682.5 394.2 686.7 395 690.7 395.8 695.2 396.7 699.7 397.5 704.1 398.2 713.2 399.8 722.3 401.3 731.4 403 749.6 406.3 767.7 409.9 785.9 413.3 821.7 420 857.8 425.5 894.3 425.9 903.4 426 912.6 425.9 921.7 425.4 930.2 424.9 938.8 423.5 946.5 419.6 953.8 415.9 960.6 410.6 966.8 405.3 970 402.5 972.8 399.5 975.4 396.1 977.9 392.8 980.5 389.6 983.6 386.8 995.7 376.2 1011.8 370.8 1022.6 358.6 1027.6 353 1030.7 345.9 1031.7 338.5 1032.3 334.2 1032.6 329.7 1032.1 325.3 1031.6 321.3 1030.2 317.4 1028.3 313.8 M 583.7 230.8 C 582.4 236.7 587 241.5 591.1 245 592.2 246 593.4 246.9 594.3 248.2 595.1 249.4 595.5 250.8 596.3 252 597.9 254.4 600.9 254.7 603.5 255 M 596 281.2 C 595.6 284 595.6 287 596.8 289.7 598 292.3 599.8 294.4 601.9 296.3 606.2 300.2 611.6 302.6 617 304.7 M 857.3 352 C 859.8 354.9 863.6 356.1 867.2 356.6 871.6 357.3 876.1 357.3 880.5 357.9 885 358.5 889.4 359.3 893.9 360.2 902.8 361.9 911.7 363.4 920.8 364.4 929.9 365.3 939.1 365.7 948.3 365.2 954.6 364.9 967.4 364.3 965.8 355 M 756.4 362.5 C 778.4 372.2 802.7 374.4 826.5 374.4 M 824.6 374.5 C 827.8 376.7 831.9 377.2 835.7 377.7 840.2 378.2 844.7 378.7 849.2 379.1 858.3 379.9 867.4 380.9 876.4 382 894.6 384.2 912.9 386.2 931.3 386.3 939.1 386.3 947 386.6 954.6 384.7 957.8 383.9 961 382.8 963.4 380.5 965.9 378.1 966.7 374.6 967.2 371.3 M 579.6 248.3 C 578.9 251.8 579.3 255.6 580.6 258.9 581.8 262.1 583.8 264.8 585.4 267.8 588.3 272.9 589.1 280.4 595.9 281.8 M 599.2 276 C 601.4 283.7 610.2 286.2 617.2 287.7 628.4 290.1 639.8 291.6 651.2 292.3 M 600 263.5 C 599.6 266.1 601.5 268.2 603.1 270 604.8 271.9 606.7 273.5 608.8 274.9 613.2 277.8 618.2 280.1 623.5 280.8 626.6 281.2 629.7 281.1 632.8 281.2 635.6 281.3 638.4 281.4 641.3 281.6 647.2 281.9 653.2 282.2 659.1 282.2 M 753.7 305.3 C 753.5 307.6 753.9 309.8 753.9 312.1 M 859.2 326.7 C 861.1 327.6 862.9 328.5 864.8 329.3 872.8 332.5 881.7 331.9 890 334.1 898.5 336.4 906.8 339.3 915.5 341 924.3 342.7 933.3 343.6 942.3 343.4 946.3 343.3 950.5 343.1 954.4 341.7 955.8 341.2 957.6 340.4 958.3 338.9 959.1 337.3 958 335.5 957.2 334.2 M 605.3 252 C 603.9 254.3 605.8 256.9 607.2 258.8 608.8 260.9 610.7 262.8 612.9 264.4 617.3 267.7 622.6 269.9 627.9 271.3 634 273 640.3 271.7 646.4 271.5 652.7 271.3 659 271.5 665.2 271.2 M 781.1 202.6 C 773.4 204.2 765.6 206 758.3 209 751 212 744 215.6 737.1 219.3 M 763.3 294.1 C 762.8 295.7 762.3 297.4 762 299.1 M 670.9 246.6 C 671.7 248 672.2 249.7 673.4 250.9 674.8 252.2 676.7 252.7 678.5 253.3 682.5 254.6 686.2 256.5 689.8 258.6 693.6 260.8 697.4 263.2 701.4 265.1 705.5 267 709.7 268.7 713.9 270.2 722.4 273.1 731.2 275.1 740 277 744.3 277.9 748.5 278.9 752.7 280.3 756.7 281.6 760.5 283.4 764.8 283.9 768.4 284.3 772 284.4 775.6 284.7 M 896 253.3 C 903.6 251.1 911.3 249 918.1 244.9 920.3 243.6 924.1 240.2 922.5 237.3 921.6 235.7 920.8 233.9 919.6 232.5 918.6 231.3 917.2 230.5 915.8 229.7 912.3 227.6 908.8 225.5 905.2 223.7 901.6 222 897.9 220.4 894.1 218.9 886.6 216 878.9 213.6 871.2 211.5 M 610.2 197.8 C 608.5 199.3 608.2 200.7 610.2 202.1 612.2 203.5 614.4 204.5 616.6 205.5 621.3 207.4 626.2 209 630.9 211 632.9 211.9 635.1 212.6 636.9 214.1 637.6 214.7 638.5 215.5 638.5 216.5 638.5 217.4 637.8 218 637.7 218.9 637.5 220.6 640 221.1 641.2 221.4 643.6 222.1 646 222.8 648.4 223.5 M 779 282.5 C 778 283.5 777.1 284.6 776.4 285.8 775.6 287 775.1 288.4 774.3 289.6 M 823.6 285.1 C 827.6 286.7 831.5 288.6 835.7 289.5 840.1 290.4 844.7 289.7 849.2 289.9 857.9 290.3 866.4 292.7 874.7 295.4 883.2 298.1 891.7 301.2 900.4 303.1 904.7 304 908.9 304.5 913.3 304.3 916.7 304.2 920.5 303.9 923.2 301.7 926.6 298.9 924.3 294.8 922.5 291.8 M 622.1 233.9 C 619.3 236.1 623.2 240 624.8 241.6 628 244.7 632 246.7 636.1 248.1 638.8 249 641.7 250 644.5 250.2 647.5 250.4 650.3 249.2 653.2 248.4 658.9 246.8 665 246.9 670.8 246.2 M 795 202.7 C 783.9 204.2 773.3 208.2 763.8 214.1 755.3 219.3 747.4 226.7 737.2 228.2 M 612.2 242.6 C 611.1 244.9 612.8 247.3 614.2 249.1 615.7 251.1 617.3 253.2 619.4 254.6 623.8 257.5 629.2 259.4 634.2 260.9 637.1 261.7 640.1 262.3 643.1 262 646.1 261.7 649 260.9 651.9 260.6 657.8 259.9 663.8 259.9 669.7 259.5 M 594.7 207.9 C 590 213.4 599.7 217.5 603.6 219.1 606 220 608.4 220.9 610.7 221.8 612.7 222.6 615.5 223.6 616.7 225.5 617.2 226.3 617.3 227.3 617.8 228.1 618.3 228.9 619.1 229.5 619.9 230 621.7 230.9 623.6 231.3 625.5 231.9 M 664.7 272.3 C 663.7 274.8 667.1 275.5 668.8 275.9 673 276.7 677 278.1 680.9 279.8 689.1 283.2 697 287.3 705.2 290.4 713.6 293.5 722.2 295.8 730.7 298.8 732.7 299.5 734.7 300.2 736.6 301.1 738.5 302 740.3 303.3 742.2 304.2 745.9 305.9 750.1 305.3 754.1 304.9 M 851.2 313.8 C 855.2 315.5 859.2 317.2 863.5 317.8 868 318.4 872.5 318.4 877 319.1 885.7 320.5 893.9 323.8 902.2 326.3 910.7 328.9 919.5 330.7 928.4 331.2 932.9 331.5 937.3 331.4 941.7 330.8 944 330.5 946.6 330.2 948.5 328.8 950.9 326.9 949.5 324.3 948.2 322.3 M 668 233.2 C 670 234.4 671.8 236.1 673.7 237.4 675.5 238.7 677.6 239.5 679.6 240.3 683.8 241.9 687.7 243.9 691.3 246.6 705.1 256.7 722 262 738.7 265.4 747.4 267.2 756.3 268.2 764.8 270.8 769 272.1 773.2 273.4 777.5 274.3 782 275.2 786.5 275.8 791 276.7 M 767 294.4 C 765 297.6 783.8 302.1 785.8 302.6 790.2 303.7 794.5 304.4 799 305.1 803.4 305.7 807.9 306.2 812.4 306.3 814.4 306.4 816.4 306.5 818.4 306.2 820.4 305.9 822 304.6 823.7 303.7 828.3 301.1 833.7 300.4 838.7 298.8 M 600.6 203.1 C 597.9 206.8 603.2 209.2 605.9 210.6 609.8 212.5 614 213.9 618 215.4 620 216.2 622 217 623.9 218 625 218.6 626.6 219.5 626.8 220.9 626.9 221.8 626.2 222.7 626.5 223.6 626.8 224.4 627.7 224.7 628.4 225.1 630.3 226 632.3 226.5 634.4 227.1 M 840.3 300.6 C 843.5 302 846.8 303.4 850.2 304 854.5 304.7 858.9 304.1 863.3 304.5 867.7 304.8 872.1 305.8 876.4 307 885 309.4 893.4 312.7 902 315.1 910.3 317.4 918.8 318.8 927.4 318.4 930.5 318.3 934.2 317.9 936.6 315.6 939.5 312.9 936.5 309.4 934.8 306.9 M 787.6 285.4 C 787.2 285.4 785.6 285.7 786 286.3 786.7 287.4 788.8 287.8 790 288 793.5 288.8 797 289.4 800.6 289.9 802.1 290.1 803.8 290.5 805.3 290.3 807.2 290 806.5 289 805.3 288.3 802.3 286.5 798.8 286 795.4 285.5 M 757.3 305.5 C 757.2 306.9 758.6 307.7 759.7 308.2 761.4 309.1 763.1 309.9 764.9 310.7 768.7 312.3 772.7 313.6 776.7 314.7 784.6 317 792.9 318 801.1 318.9 805.4 319.4 809.8 319.8 814.2 319.9 818.1 320 821.9 319.3 825.6 318.2 833.6 315.7 842 314.5 850.1 312.3 M 669.6 259.8 C 669.4 260.4 669.2 261 669.3 261.6 669.5 263 671 263.6 672.1 264 673.9 264.6 675.8 265.1 677.6 265.7 681.6 267 685.4 269 689.1 271 696.7 275.1 704.7 278.5 712.9 281.2 721.4 284 730.2 285.8 738.8 288.5 742.8 289.8 746.5 291.8 750.4 293.2 754.6 294.7 759 294.1 763.3 294 M 752.2 317.4 C 751.9 319.2 753.8 320.2 755.1 320.9 757.1 321.9 759.1 322.8 761.2 323.6 765.3 325.2 769.5 326.5 773.8 327.5 782.6 329.6 791.5 330.9 800.4 331.8 804.9 332.3 809.4 332.8 813.9 332.4 818.3 332.1 822.7 331 827.1 330.3 836 328.7 845 327.5 853.9 325.5 855.3 325.2 856.7 324.9 858.1 324.5 M 601.1 202.8 C 601.5 202.6 601.9 202.3 602.3 202.1 M 638 229 C 637.2 229 636 228.9 636 230.1 636 231.2 637.4 232 638.1 232.6 640 234 642.4 235.4 644.9 235.5 647 235.5 647.9 234 646.7 232.2 645.5 230.5 643.2 230.2 641.3 229.6 M 621.1 192.4 C 620.1 193.1 618.5 194.1 619.5 195.5 620.5 196.9 622.2 197.7 623.7 198.4 627.6 200.3 631.7 201.7 635.8 203.1 639.9 204.6 644 206 647.8 208.1 651.5 210.1 654.8 212.9 658.4 215.1 665.7 219.8 673.5 223.3 681.3 227 685 228.8 688.3 231 691.4 233.6 694.6 236.3 697.9 238.9 701.6 240.8 705.3 242.7 709.3 244.1 713.3 244.8 715.3 245.2 717.4 245.4 719.4 245.7 721.5 246 723.2 246.1 724.9 247.4 731.7 252.9 740.1 254.5 748.6 256 757.5 257.6 766.5 258.5 775.3 260.3 784.2 262.1 792.8 264.8 801.6 266.8 810.5 268.9 819.5 270.8 828.6 272.4 837.4 273.9 846.2 275.6 854.9 278.1 863.7 280.6 872.3 283.5 881.1 286.1 889.2 288.4 897.8 290.6 906.3 288.6 908.7 288 911.4 287 912.7 284.8 914.2 282.1 912.6 279.2 911.4 276.7 M 495.1 591.5 C 496 595.4 497.9 599.1 500.2 602.4 504.9 609 511.1 614.8 517.1 620.2 523.5 625.9 530.3 631.2 537.4 636 551.5 645.6 566.8 653.5 582.5 660.3 597.4 666.7 614.4 671.9 630.7 668.1 644.2 664.9 655.7 655.7 662.5 643.7 M 706.9 547 C 741 556.5 776.8 554.7 811.9 553.5 830.4 552.9 849 552.3 867.5 552.9 876.6 553.2 885.8 553.8 894.9 554.8 903.5 555.8 912.2 556.9 920.5 559.6 928.5 562.2 935.6 566.7 942.6 571.2 949.9 575.9 957.4 580.2 965.3 583.5 973.4 586.9 982 589.2 990.6 590.8 999.4 592.4 1008.4 593.5 1017.4 593.1 1019.5 593 1021.7 592.9 1023.8 592.5 1025.6 592.2 1027.9 592.1 1029.3 590.8 1031.7 588.8 1028.5 586.4 1026.9 585.2 1024.6 583.7 1021.7 582.3 1020.1 580 1019.6 579.3 1018.2 577.8 1019.3 577.1 1020.9 576.1 1023.5 576.7 1025.3 576.7 1043.7 577.4 1062.1 577.1 1080.5 578.7 1090.8 579.6 1101 581.2 1111.3 582.6 1121.5 584.1 1131.8 584.9 1141.9 586.8 M 494.8 581 C 493.8 588.3 498.2 595.6 502.8 601 508 607.2 514.4 612.6 520.6 617.8 527.3 623.3 534.3 628.4 541.6 633.1 556.1 642.3 571.6 650.2 587.9 655.6 603.5 660.8 620.8 663.5 636.6 658 649.9 653.4 661 643.5 667.7 631.2 M 499.4 563.1 C 497.1 571.7 501 580.4 505.9 587.4 510.5 594 516.3 599.5 522.5 604.5 529.2 609.9 536.4 614.6 543.8 619 558.4 627.5 574.1 634 590.5 637.8 599.2 639.8 608.1 641.5 617.1 641.6 625.7 641.7 634.4 640.2 642.5 637.2 657.6 631.6 669.9 620.6 677.8 606.6 M 715.8 549.9 C 750 559.6 785.9 558.5 821 557.3 836 556.8 850.9 556.2 865.9 555.9 880.9 555.7 895.8 556.5 910.7 557.9 M 502.6 607.3 C 507.9 614.2 514.1 620.2 520.4 626.2 526.6 632 533.3 637.5 540.4 642.2 554.9 651.9 570.5 659.7 586.5 666.7 599.4 672.3 613.6 677.9 628 675.7 639.7 673.8 649.9 666.5 656.1 656.5 M 1145.5 583.9 C 1140.5 589.6 1154.5 592.1 1157.7 592.6 1163.7 593.6 1169.7 593.5 1175.7 592.8 1181.2 592.1 1187 590.7 1190.9 586.5 M 496.3 573.1 C 494.6 581.6 500.1 590.3 505.3 596.5 510.6 602.8 517 608.3 523.5 613.3 530.3 618.6 537.5 623.4 544.9 627.8 559.5 636.6 575.1 643.7 591.6 648 608.1 652.2 625.9 653.6 641.9 646.9 655.1 641.4 665.9 631.2 672.8 618.8 M 1159.1 565.4 C 1157.5 564.6 1155.7 564.8 1154 564.7 1151.7 564.6 1149.4 564.5 1147.1 564.5 1142.6 564.4 1138 564.3 1133.5 564 1124.4 563.5 1115.3 562.3 1106.3 560.8 1097.3 559.3 1088.4 557.7 1079.4 556.3 1070.3 554.9 1061.1 553.7 1052.1 551.9 1043.3 550.2 1034.6 547.7 1026.1 545 1021.9 543.7 1017.5 542.4 1013.1 541.6 1011.5 541.3 1009.3 541.2 1008.1 542.6 1007.1 543.8 1007.2 545.5 1006.4 546.7 1004.8 549.1 1001.3 549.3 998.8 549.7 994.3 550.5 989.8 551 985.2 551.6 981 552.2 976.8 552.8 972.9 554.4 971 555.1 969.4 556.3 967.7 557.2 965.9 558.2 963.9 558.6 961.9 558.7 957.5 558.9 953.1 557.9 948.8 557.2 944.3 556.5 939.8 555.8 935.2 555.2 926.1 553.8 917 552.4 907.9 551 889.7 548.3 871.4 545.9 853 544.9 815.9 542.8 778.8 546.5 741.7 546.8 729.7 546.9 717.7 546.7 705.8 545.4 M 1162 554.5 C 1160.5 552 1156.9 551.7 1154.3 551.6 1150.2 551.5 1146 551.6 1141.9 551.7 1132.8 552 1123.7 551.9 1114.6 550.9 1105.6 549.8 1096.8 547.7 1087.9 545.9 1078.8 544.1 1069.7 542.9 1060.6 541.3 1051.7 539.7 1042.9 537.6 1034.1 535.5 1025.5 533.4 1016.6 531.8 1007.7 532.9 999 534 991.2 538.4 982.8 540.9 978.6 542.1 974.2 542.9 970 543.9 965.7 544.9 961.6 546.4 957.4 547.5 948.8 549.7 939.7 549.8 930.9 549.4 921.8 549.1 912.8 548 903.8 546.8 885.6 544.4 867.3 542 849 540.8 830.5 539.5 812 539.7 793.5 540.4 774.9 541.1 756.3 542 737.8 543 727.9 543.5 718 544 708.1 544.9 M 552.5 610 C 551.8 610.3 550.5 610.7 550.5 611.7 550.5 612.7 551.7 613.4 552.4 613.9 554.5 615.5 557 616.5 559.4 617.6 564.5 619.9 569.7 621.8 575 623.4 585.8 626.7 596.9 629.2 608.1 630.3 624.6 631.9 641.6 629.5 656.1 621.3 668.6 614.2 678.8 603.2 684.5 590 M 1155.1 572.4 C 1154.2 574.1 1153.9 576.1 1155.3 577.6 1156.7 579.1 1158.6 579.9 1160.5 580.6 1164.8 582.1 1169.4 582.8 1174 583 1178.5 583.2 1183.1 582.7 1187.4 581.7 1191 580.8 1194.6 578.9 1196.6 575.6 M 503.6 553.1 C 502.2 556.5 501.5 560.1 502 563.8 502.5 567.5 504.1 571 505.7 574.3 509.1 581.3 513.9 588.8 520.5 593.1 522.5 594.4 524.8 595.5 527.1 594.5 528.9 593.7 530.2 592.1 531.4 590.7 533.7 588 536.6 584.2 540.5 586.5 544.2 588.7 547.8 591.4 551.4 593.7 555.2 596.2 559.1 598.6 562.9 601 M 1016.7 572.4 C 1016.8 570.9 1014.5 570.2 1013.4 569.9 1011.2 569.2 1008.8 569.1 1006.5 569.3 1004.9 569.4 1002.4 569.4 1001 570.2 999.9 570.9 1000.8 571.9 1001.6 572.4 1003.7 573.6 1006.3 574 1008.6 574.4 1010.1 574.7 1011.6 575 1013.1 575.1 1014.1 575.2 1015 575.1 1015.9 574.8 1016.7 574.6 1016.8 573.2 1016.7 572.4 M 560.3 604.5 C 558.2 607 563.7 608.8 565.2 609.3 569.3 610.7 573.4 611.9 577.6 613 589.2 616.2 601 619.1 613.1 619.7 629.4 620.5 646.1 617.6 660.3 609.5 673 602.3 683.2 591 689.6 577.8 M 1197.6 528 C 1198.4 531.2 1196.2 533.8 1193.2 534.6 1189.3 535.7 1185 535 1181.2 534.1 1173.1 532.2 1165.9 527.9 1158.3 524.8 1150.1 521.4 1141.5 519.2 1132.9 517.4 1124 515.5 1114.9 514.1 1105.9 513.2 1087.4 511.4 1068.9 511.9 1050.4 511.7 1041.2 511.6 1032.1 511.1 1022.9 511.2 1014 511.4 1005.3 512.6 996.7 514.9 988.2 517.2 979.9 520.3 971.7 523.7 963.7 527 955.6 530.2 947.1 531.9 929.4 535.4 911.2 533.5 893.4 531.7 875.1 529.8 856.8 527.5 838.5 525.8 820.1 524.1 801.6 523.8 783.1 524.2 773.9 524.4 764.7 524.7 755.6 525.3 746.8 525.9 737.9 526.2 729.4 528.3 721.9 530.1 715.3 533.8 710.1 539.5 704.5 545.6 701.1 553.3 696.6 560.2 688.4 572.7 676.4 582.7 662.7 588.7 647.2 595.5 629.7 597.5 613 596.3 604.7 595.7 596.4 594.2 588.3 592.2 584.1 591.1 579.9 590 575.8 588.7 573.3 587.9 569.5 587.3 568.5 584.5 M 565.7 596.1 C 565.7 597.7 567.5 598.4 568.8 598.8 571 599.5 573.1 600.2 575.3 600.8 579.9 602.1 584.6 603.3 589.3 604.4 598.7 606.7 608.3 608.3 618.1 608.5 634.3 608.8 651 605.5 665.2 597.3 678 590 688.1 578.6 695.1 565.7 M 508.7 543.3 C 506.9 546.8 505.6 550.6 505.9 554.6 506.3 558.7 507.9 562.5 509.8 566.1 511.8 569.9 513.8 573.7 516.4 577.2 518.4 579.8 521.1 582.4 524.6 581.2 528.2 580 530.8 577 534.3 575.6 538 574 541.3 575.6 544.4 577.8 551.5 582.9 558.8 587.6 566.4 591.9 566.7 592.1 567 592.2 567.3 592.4 M 1201.1 540.3 C 1201.7 545.5 1195.6 547.6 1191.4 548.1 1185 548.9 1178.1 547 1172.5 544 1169.1 542.2 1166.2 539.7 1163.3 537.4 1160.3 535.1 1157.2 533 1153.8 531.3 1146.9 527.9 1139.3 526 1131.8 524.6 1122.8 522.9 1113.8 522.7 1104.7 522.5 1095.5 522.3 1086.4 521.8 1077.3 521.1 1068.2 520.4 1059.1 519.5 1049.9 519.2 1040.8 518.8 1031.6 518.8 1022.5 519 1013.5 519.1 1004.6 519.8 995.8 521.7 987.1 523.6 978.7 526.4 970.4 529.5 962.3 532.5 954.4 536.1 945.9 537.7 937.1 539.4 927.9 539.5 919 539.1 900.6 538.2 882.4 535.3 864.1 533.3 845.9 531.2 827.5 529.8 809.2 529.6 790.8 529.5 772.3 530 754 531.3 745 531.9 736 532.5 727.2 534.5 719.7 536.2 712.2 539.1 706.6 544.5 M 526.9 513.5 C 524.1 518 522.1 522.8 522.4 528.2 522.8 535.4 526.7 541.9 531.3 547.1 536.3 552.8 542.4 557.2 548.8 561.3 562.8 570.4 578 577.2 594.3 580.9 627.6 588.4 666 585 691.4 560.1 697.2 554.4 701.9 547.8 706.5 541.2 710.9 535 715.9 528.6 722.8 524.9 729.7 521.2 737.8 520.6 745.5 519.8 754.6 518.9 763.7 518.6 772.9 518.4 791.3 518 809.7 518.2 828.1 519.7 846.6 521.2 865 523.6 883.5 525.5 901.6 527.4 920 529.4 938.2 527.5 946.9 526.6 955.5 524.8 963.7 521.9 972.1 519 980.2 515.2 988.6 512 996.8 508.9 1005.2 506.1 1013.9 504.5 1022.8 502.9 1031.8 502.7 1040.9 503.2 1059.3 504.2 1077.8 503.6 1096.2 504.7 1114.3 505.8 1132.3 508.5 1149.9 512.8 1158.6 514.9 1167 517.9 1175.7 519.9 1179.7 520.8 1183.9 521.7 1187.9 521.1 1189.4 520.9 1191.3 520.4 1192 518.9 1192.5 517.7 1192.3 515.9 1191.3 515 M 520.4 523.5 C 518.5 526.7 516.8 530.1 516.3 533.9 515.8 537.8 516.5 541.8 518 545.3 519.5 548.9 521.6 552.1 523.8 555.2 525.5 557.6 527.4 560.1 530.5 560.7 532.4 561.1 534.4 561.1 536.1 562 537.7 562.8 539.1 563.9 540.5 565 543.4 567.3 546.1 569.8 549.2 571.8 552.5 574 556.1 575.6 559.7 577.3 562.7 578.7 565.8 580.1 568 582.6 M 539.2 495.5 C 536.1 500 534.9 505.5 535.9 510.9 536.9 516.2 539.8 520.9 543.4 524.8 547.2 528.9 551.7 532.2 556.4 535.2 561.3 538.4 566.4 541.3 571.5 544.1 587 552.7 604 558.1 621.7 559.5 638.6 560.9 656 558.9 671.8 552.9 679 550.2 685.8 546.6 692 542.2 698.5 537.5 703.8 531.9 708.9 525.8 714 519.7 719.3 513.8 726.8 510.8 734.5 507.8 743.1 507.4 751.2 506.9 787.9 504.4 824.6 508.7 861.1 512.7 896.1 516.5 933 520.3 967.2 509.8 975.3 507.3 983.2 504 991 500.7 998.9 497.4 1006.9 494.3 1015 491.5 1023.4 488.6 1032.1 485.8 1041.1 485.5 1050.3 485.2 1059.4 486.8 1068.5 487.4 1077.7 488 1087 488.1 1096.2 488.6 1105.4 489.1 1114.5 489.8 1123.6 490.6 1132.6 491.4 1141.7 492.4 1150.7 493.2 1153.7 493.5 1156.9 493.8 1159.9 493 1163.6 492.1 1158.5 489.7 1157.3 489.1 M 545.6 486.5 C 543.7 490 542.2 493.6 542.2 497.7 542.3 501.7 543.9 505.6 546.1 508.9 550.4 515.4 556.8 520.1 563.3 524.2 570.6 528.8 578 533.2 585.9 536.8 593.8 540.4 602 543.1 610.5 544.9 637.5 550.6 667.9 547.7 691.6 532.7 697.6 528.9 703 524.3 707.9 519.1 713.2 513.5 718.4 507.7 725.6 504.7 733.4 501.4 742 500.9 750.4 500.4 759.6 499.8 768.8 499.8 778.1 500 815.1 501.1 851.6 507 888.5 509.6 906.6 510.8 924.8 510.9 942.8 508.6 951.6 507.5 960.4 505.8 968.9 503.4 977.2 501 985.3 497.8 993.3 494.5 1000 491.7 1006.7 488.8 1013.5 486.1 1020.7 483.3 1027.9 480.7 1035 477.8 1038.3 476.5 1041.6 475.2 1044.8 473.8 1046.4 473.1 1046.7 472.2 1046.4 470.6 1046 468.9 1046.3 467.1 1046.8 465.4 1047.9 462.1 1050 459.2 1051.7 456.2 1053.6 452.9 1055.4 449.6 1056.8 446.1 M 553.1 476.4 C 550.8 480.3 549.1 483.9 549.4 488.5 549.7 492.6 551.7 496.5 554.1 499.8 559 506.4 566.1 511 573.1 515.1 580.3 519.3 587.7 523.4 595.5 526.6 603.6 529.9 612.2 532.2 620.9 533.6 638.1 536.3 655.9 535.2 672.5 530.1 680.6 527.6 688.6 524.2 695.7 519.5 702.7 514.9 708.3 508.9 714.6 503.5 721.2 497.9 729 495.4 737.5 494.3 746.5 493.2 755.6 493.3 764.6 493.5 801.3 494.2 837.7 499.9 874.3 502.7 908.8 505.3 944.4 505 977.7 494.6 986.2 491.9 994.4 488.3 1002.5 484.7 1010.7 481.1 1019.1 477.9 1027.3 474.1 1031.1 472.3 1034.9 470.4 1038.3 467.9 1041.5 465.5 1044.1 462.4 1046.3 459 1048.7 455.3 1051.1 451.6 1053.6 447.9 1056.1 444.3 1058 440.6 1059.3 436.4 M 533.7 503.5 C 531.7 506.6 529.7 509.8 529 513.5 528.3 517.2 528.8 521.1 530.1 524.7 532.4 531.2 537.2 536.5 542.3 540.9 548.2 545.9 554.9 550 561.7 553.8 568.4 557.6 575.3 561.2 582.6 563.9 598.8 570.1 616.3 572.8 633.6 572.1 650 571.4 666.8 567.7 681 559.3 688 555.2 694.3 549.8 699.8 543.8 705.5 537.6 710.1 530.5 716 524.4 718.7 521.5 721.9 519.1 725.6 517.5 729.4 515.9 733.5 515.2 737.5 514.6 746.4 513.2 755.5 512.8 764.6 512.5 783 511.8 801.4 512.2 819.8 513.7 838.2 515.2 856.5 517.5 874.8 519.4 883.9 520.3 893.1 521.2 902.2 521.8 911.2 522.4 920.3 522.9 929.3 522.3 938.2 521.8 947.2 520.7 955.9 518.6 964.4 516.6 972.6 513.5 980.6 510.2 996.4 503.6 1012.7 496.5 1029.9 494.8 1039.1 493.9 1048.3 495.1 1057.5 495.6 1066.6 496.1 1075.8 496.3 1084.9 496.6 1103.2 497.2 1121.4 498.8 1139.5 501.7 1148.5 503.1 1157.4 504.9 1166.4 506.3 1170.2 506.9 1174.4 507.6 1178.3 507.2 1179.3 507.1 1181.2 506.8 1181.3 505.5 1181.4 504 1179.9 502.9 1178.8 502.1 M 1066.9 472.3 C 1064 472.7 1061 473 1058.3 474.3 1060.2 475.6 1062.5 476.1 1064.7 476.5 1067.4 477 1070.2 477.3 1072.9 477.6 1078.5 478.1 1084.1 478.4 1089.6 478.6 1095.3 478.8 1100.9 479 1106.6 479.1 1112.3 479.2 1118.1 479.6 1123.7 478.6 1123.2 477.7 1122.4 477.3 1121.4 477 1120 476.7 1118.7 476.1 1117.3 475.8 M 560.9 466.2 C 558.6 469.5 556.6 473.2 556.6 477.3 556.6 481.3 558.3 485.1 560.6 488.3 565.1 494.7 572 499 578.6 503.1 592.7 511.7 608.1 518.3 624.5 520.9 641.8 523.7 659.8 522.5 676.5 517.1 684.5 514.5 692.4 511 699.4 506.2 706 501.6 711.7 495.4 718.8 491.5 725.7 487.7 733.8 486.7 741.6 486.5 750.8 486.2 760 486.6 769.1 487.2 806 489.6 842.5 495.3 879.4 497.2 897.7 498.1 916.1 498 934.3 496.2 951.8 494.4 969.3 491.5 985.8 485.4 994.2 482.3 1002.3 478.6 1010.5 474.9 1018.3 471.4 1026.4 468.3 1033.5 463.5 1040 459.1 1045 453.3 1049.7 447.1 1054.3 441 1059.4 434.8 1061.1 427.2 M 598.4 408.2 C 598.7 411.3 601.8 413.3 604.2 414.8 607.6 417 611 419 614.6 420.9 622.2 424.8 630.2 428.8 638.7 430.5 643 431.4 647.4 431.5 651.7 430.4 655.6 429.5 659.2 427.4 663.2 426.7 665.2 426.3 667.2 426.4 669.2 426.5 671.5 426.6 673.8 426.5 676.1 426.3 680.6 425.8 685.1 425.2 689.6 425 698.7 424.6 707.8 425.9 716.8 427.5 725.8 429.1 734.7 431 743.7 432.8 761.7 436.5 779.6 440.4 797.7 443.7 832.7 450.1 868.9 454.9 904.3 449.2 913.2 447.8 922 445.6 930.7 443 939.3 440.5 947.9 437.8 956.3 434.6 972.2 428.5 986.3 418.9 1001.3 410.9 1014.4 403.8 1028.7 398.2 1039.3 387.3 1044.4 382 1048.5 375.6 1049.3 368.1 1050.2 359.7 1047.2 351.4 1044 343.9 M 601 419.1 C 603.3 425.4 609.7 429.2 615.5 431.8 622.9 435.2 630.9 437.5 639 438.3 643.4 438.7 647.8 438.6 652.2 438.2 656.7 437.8 661.1 437.6 665.6 437.5 674.5 437.2 683 434.8 691.8 433.9 700.8 433 710 434.1 718.9 435.6 727.9 437.2 736.8 439.1 745.7 441.1 763.6 445 781.5 449 799.5 452.2 817.5 455.4 835.8 457.8 854.1 458.1 872.4 458.4 890.6 456.6 908.6 453.5 926 450.4 943.5 446.7 960.2 440.7 977.1 434.7 992.6 425.4 1008.6 417.4 1021.4 411 1034.4 404.5 1044 393.5 1048.6 388.2 1052.4 381.9 1053 374.8 1053.7 367.1 1050.7 359.8 1047.8 352.9 M 600 416.1 C 598.7 419.4 600.2 423.2 601.8 426.1 603.6 429.4 606 432.5 608.8 435 614.7 440.2 622.3 442.7 629.9 444.4 638.6 446.3 647.5 447.8 656.5 448.2 665.3 448.6 674 447.5 682.6 445.4 686.9 444.3 691.2 443.1 695.7 442.4 700.1 441.7 704.7 441.6 709.1 441.8 718.1 442.3 727 444.2 735.8 446.1 753.7 450 771.5 454.3 789.5 457.7 807.5 461.1 825.7 463.1 844 463.3 862.4 463.5 880.7 462.2 899 460.2 916.9 458.2 934.8 455.6 952.2 450.9 960.9 448.6 969.4 445.8 977.6 442.3 985.9 438.8 993.9 434.7 1002 430.7 1015.2 424.2 1029 418.1 1040.1 408.1 1045.5 403.2 1050.6 397.5 1053.8 391 1057.4 383.6 1056.6 375.8 1054.2 368.1 M 600.7 397.8 C 599.9 400.6 602.8 402.5 604.8 403.7 608.1 405.6 611.5 407.3 614.9 409 622.4 412.7 629.7 416.8 637.6 419.6 644.5 422 652.4 422.5 658.8 418.4 660.4 417.4 661.4 416 662.8 414.8 664.3 413.4 665.6 413.6 667.3 414.5 670.7 416.3 674.6 416.1 678.3 416 682.8 415.9 687.3 415.7 691.7 416 696.2 416.3 700.7 416.9 705.2 417.6 714.2 419 723.2 420.7 732.2 422.4 750.3 425.8 768.3 429.6 786.4 433.1 822.3 439.9 858.9 445.4 895.6 443.8 904.6 443.4 913.5 442.4 922.3 440.3 930.8 438.2 939 435 947 431.5 955 428 963 424.6 970.4 420.1 977.7 415.7 984.1 410.1 991.3 405.6 998.9 400.9 1007 397.2 1014.8 393 1021.9 389.1 1029.1 385 1034.8 379.1 1040 373.8 1043.6 366.9 1044.2 359.3 1044.5 354.9 1043.8 350.5 1042.9 346.1 1042 341.8 1040.7 337.6 1039 333.6 M 638.6 399.1 C 637.4 399.4 633.7 399.8 634.7 401.8 635.3 403.1 636.7 403.7 637.9 404.3 639.5 405.1 641.2 405.9 642.9 406.5 646.6 407.8 650.6 408.4 654.4 407.5 656 407.1 657.5 406.4 658.7 405.3 659.9 404.1 659.1 402.4 658.4 401.2 M 572.3 315.8 C 572.9 322 575.6 327.7 579 332.9 582.9 338.8 587.5 344.2 592 349.6 596.6 355 601.1 360.4 605.6 365.9 609.3 370.5 613.3 375.2 614.4 381.2 M 596.1 375.1 C 600 380 604.1 384.7 608.2 389.4 M 571.9 304.1 C 571.8 314.3 577.8 323 583.7 330.7 590.4 339.4 597.7 347.5 604.7 356 607.4 359.4 610.1 362.8 612.6 366.4 613.7 368.1 615 369.7 615.7 371.6 616.3 373 616.6 374.5 617.2 375.9 618.6 379.3 622 380.6 625.4 381.5 629.3 382.5 633.1 383.3 637 384.4 645.1 386.8 653.1 390.1 660.1 394.9 663.4 397.1 666.2 400 669.6 402.1 673.1 404.3 676.9 405.1 680.9 405.5 685.4 405.9 689.8 406 694.3 406.6 698.8 407.2 703.3 408 707.8 408.8 716.9 410.3 725.9 412.1 735 413.8 753.2 417.2 771.4 420.8 789.7 424.1 807.8 427.4 825.9 430.5 844.2 432.5 862.4 434.5 880.8 435.4 899.1 435 908.1 434.8 917.4 434.5 926.3 432.8 935 431.2 942.8 427.2 950.5 423.1 958.1 419.1 965.7 414.8 972.3 409.3 978.7 404 984.5 397.9 991.6 393.4 998.7 388.9 1006.3 385.3 1013.6 381.1 1020.5 377.1 1027.2 372.6 1032 366.1 1036.6 359.9 1038.7 352.7 1038.5 345 1038.3 336.7 1036.6 328.4 1032.6 321.1 M 578 342.3 C 581.5 351 587.7 358.3 593.9 365.3 600.1 372.3 606.7 379 611.9 386.8 M 574.1 328.7 C 576.9 339.7 584.7 348.5 591.9 356.9 596.1 361.8 600.4 366.6 604.5 371.6 608 375.7 612.1 380 613.3 385.5 M 584.5 357 C 590.7 369 601.5 377.7 609.8 388.2 M 744.1 240.1 C 741.7 243 745.9 244.3 748.2 244.9 751.1 245.7 754.1 246.4 757.1 246.9 763.2 247.9 769.3 248.6 775.3 249.3 787.6 250.9 799.9 252.9 812 255.6 829.7 259.5 847.1 264.9 864.5 270.1 872.8 272.6 881.4 274.9 890.1 274.7 893.7 274.6 898.1 274 900.7 271.3 903.1 268.9 902.6 265.3 901.5 262.4 M 768.6 222.3 C 766.3 226.4 775 227.3 777.3 227.7 782.3 228.5 787.3 229.2 792.3 229.9 801.3 231.2 810.2 232.6 819.1 234.5 828 236.4 836.7 239.1 845.5 241.5 854 243.8 862.8 245.8 871.6 245.2 875.4 244.9 879.4 244.1 882.5 241.6 885.8 239 885.8 235.3 884.3 231.7 M 756.7 231.5 C 756.3 232 755.6 232.7 755.8 233.4 756 234 756.8 234.5 757.3 234.8 758.8 235.8 760.7 236.1 762.4 236.4 766.7 237.3 771 237.8 775.3 238.4 784.5 239.6 793.6 240.7 802.8 242.2 811.8 243.7 820.6 245.7 829.4 248.1 838.2 250.5 846.9 253.3 855.6 255.8 863.8 258.1 872.3 260.5 880.8 259.7 884.4 259.4 888.2 258.5 890.9 256 892.2 254.8 893 253.2 893.2 251.4 893.4 249.3 892.4 247.3 891.6 245.4 M 632.6 186.9 C 631.9 187.4 630.7 187.9 630.6 189 630.6 190.1 631.7 190.8 632.5 191.3 634.9 192.8 637.4 193.9 640 194.9 645.8 197.2 651.7 199.3 657.5 201.6 665.5 204.8 673.4 208.4 680.8 212.9 684.4 215.1 687.9 217.5 691 220.4 693.8 223.1 696.6 226 700 227.9 706.9 231.7 715.3 231.8 722.4 228.7 726 227.1 729.2 224.8 731.9 222 734.8 218.9 736.7 215.7 737.3 211.4 M 644.4 181.2 C 643.3 182 641.7 183.1 643 184.5 644.3 185.9 646.2 186.6 647.9 187.4 651.9 189.3 656.1 190.8 660.3 192.3 668.2 195.2 676.3 198 683.6 202.5 687.2 204.8 690.5 207.5 693.7 210.3 696.6 212.9 699.5 215.5 703.2 216.8 710.8 219.6 719.5 217.5 726.5 213.9 732.1 211 738.1 206.2 738.3 199.3 M 737.1 223.6 C 736.7 225.9 736.3 228.1 735.4 230.3 734.4 232.5 733.4 234.7 732.3 236.9 731.6 238.4 730.5 240.4 731.4 242 732.3 243.6 734.4 243.4 736 243.6 M 680 162.3 C 679.2 163.1 678.5 163.9 678.9 165.1 679.3 166.2 680.5 166.8 681.5 167.3 684.1 168.9 686.9 170.1 689.7 171.5 695 174.1 700.2 177.2 706 178.7 711.7 180.1 717.7 179.8 723.3 178.1 726 177.3 728.6 176.4 730.8 174.6 733.2 172.6 734.2 170.6 733.2 167.5 M 782.3 211.6 C 781.3 212.4 779.6 213.5 780.7 215 781.5 216.2 783.1 216.6 784.4 217 788.4 218.3 792.6 218.8 796.7 219.5 801.2 220.3 805.8 221 810.3 221.8 819.2 223.4 828.1 225.5 836.9 227.6 845.5 229.6 854.3 231.8 863.3 231 867.1 230.7 871.1 229.8 874.2 227.5 875.7 226.4 877.2 224.9 877.4 223.1 877.7 221.1 876.6 219.3 875.6 217.7 M 815.3 192.3 C 814.2 192.8 811.4 193.8 812.6 195.5 813.9 197.4 816.6 197.9 818.6 198.4 824.1 199.9 829.7 200.8 835.4 201.4 840.7 202 846.3 202.3 851.4 200.4 853 199.8 855.1 198.7 854.3 196.6 853.7 195.1 851.8 194.5 850.4 193.7 M 795.6 202.3 C 794.2 203.7 793.7 204.9 795.7 206.2 797.2 207.2 799 207.6 800.7 208 805 209.1 809.4 209.9 813.7 210.7 822.5 212.5 831.3 214.4 840.1 215.8 847.1 216.9 854.7 217.7 861.6 215.3 863.7 214.6 866.1 213.5 867.5 211.6 868.9 209.7 868.2 207.5 866.7 205.8 M 667.9 168.7 C 666.6 169.8 665.6 170.9 667.1 172.4 668.3 173.6 670 174.3 671.4 175 675.1 176.8 679 178.2 682.7 180 686.4 181.7 690.2 183.6 693.7 185.8 697.2 187.9 700.6 190.3 704.5 191.6 711.5 193.8 719.4 192.6 726.2 189.9 731 188 737.4 184.5 737.1 178.5 M 696.3 155.3 C 695.3 155.9 693.6 156.7 694.1 158.2 694.6 159.6 696.2 160.4 697.4 161.1 701 163.2 704.9 164.4 709.1 165 713.3 165.6 717.8 165.6 721.8 163.9 723.2 163.3 725.2 162.5 725.8 160.9 726.4 159.1 724.7 158 723.6 156.9 M 656.2 175.1 C 654.6 176.4 653.9 177.7 655.8 179.2 658.9 181.7 663.2 182.9 666.9 184.3 670.9 185.8 674.9 187.3 678.8 189 682.7 190.7 686.5 192.7 690.1 195.2 693.5 197.6 696.7 200.4 700.2 202.5 707.5 206.8 716.3 205.6 724 202.8 730.2 200.5 737.2 196.7 738.4 189.4 M 901.4 262.2 C 900.9 261.3 900.4 260.5 899.9 259.6 M 738.5 242.8 C 738.2 239.6 738.1 236.5 737.6 233.3 M 646.4 224.3 C 645.5 224.6 644.4 224.9 643.5 225.3 640.8 226.3 638 227.7 635.4 229 M 658.6 282.9 C 657.1 285.3 660.7 286 662.3 286.3 666.6 287 670.8 288.3 674.9 289.7 683.1 292.6 691 296.4 699.1 299.6 707.4 302.8 715.9 305.5 724.1 308.7 728.1 310.3 731.8 312.3 735.4 314.6 736.9 315.6 738.5 316.4 740.2 316.6 742.4 316.9 744.6 316.6 746.7 316.3 M 1201.8 551.2 C 1201.7 552.9 1201.4 554.6 1200.2 556 1198.9 557.4 1197.2 558.4 1195.4 559.1 1191.6 560.5 1187.4 560.7 1183.4 560.4 1175.7 559.8 1167.7 556.9 1163.8 549.9 1162 546.7 1160.5 543.3 1157.3 541.1 1154 538.8 1150.1 537.8 1146.2 537.4 1141.8 536.9 1137.4 537.2 1132.9 537.4 1128.4 537.6 1123.9 537.7 1119.4 537.6 1110.2 537.3 1101.1 535.8 1092.1 534.4 1083 533 1073.8 531.8 1064.7 530.4 1055.7 529.1 1046.7 527.3 1037.7 526.4 1028.6 525.5 1019.3 525.5 1010.1 526.3 992.3 527.7 975.3 533.9 958.5 539.6 950.2 542.4 941.7 544 932.9 544.2 923.8 544.4 914.7 543.6 905.6 542.6 887.2 540.7 868.9 537.9 850.4 536.4 832.1 534.8 813.6 534.6 795.2 535 779.8 535.4 764.4 536 749 537.1 741.5 537.6 733.9 538.2 726.4 539.2 719.4 540.2 712.4 541.8 706 544.9 M 1161.1 559.9 C 1161.1 560.3 1160.8 560.7 1160.8 561.1 1160.8 561.6 1160.8 562.2 1160.8 562.7 1160.8 563.8 1161.3 564.8 1161.9 565.7 1163 567.3 1164.9 568.3 1166.7 569 1170.7 570.7 1175.1 571.5 1179.4 571.9 1183.8 572.2 1188.3 571.9 1192.6 570.4 1195.6 569.4 1199.2 567.8 1200.1 564.4 M 514.3 533.4 C 512.5 536.6 511 539.9 510.7 543.5 510.4 547.6 511.6 551.5 513.3 555.2 515.1 558.9 517.1 562.5 519.3 566.1 520.2 567.5 521.2 568.9 522.6 569.7 524.2 570.5 526 570.2 527.6 569.7 531.3 568.5 535.1 566.5 539 567.7 542.5 568.8 545.1 571.5 547.9 573.7 551 576.2 554.2 578.5 557.7 580.4 561.3 582.3 565 583.9 568.6 585.9 M 569.2 456.1 C 566.8 459 564.6 462.1 564.1 465.9 563.6 469.8 565 473.6 567.1 476.8 571.4 483.2 578 487.6 584.6 491.3 592 495.5 599.6 499.6 607.5 502.7 615.7 505.9 624.4 508 633.2 509.1 650.4 511.2 668 508.9 684 502.4 691.8 499.2 699 495 705.9 490.2 712.3 485.8 718.7 480.9 726.4 479.2 735 477.3 744.1 478.5 752.8 479.2 762 479.9 771.1 480.7 780.2 481.6 798.7 483.5 817.2 485.8 835.7 487.7 872.1 491.5 909.1 493.2 945.4 488 962.6 485.5 979.5 481.1 995.7 474.6 1004 471.3 1012.2 467.7 1020.3 463.6 1027.7 459.9 1034.9 455.5 1040.9 449.7 1045.6 445.2 1049.6 440 1053.6 434.9 1055.6 432.4 1057.5 429.8 1059.1 427 1060.8 424 1061.7 421.2 1062.2 417.8 M 590.2 430.9 C 589.1 432.4 587.9 434 587.5 435.9 587.1 438 587.3 440.2 588.2 442.1 589.8 445.5 592.6 448.2 595.5 450.4 602 455.5 609.6 459.1 617 462.6 624.7 466.2 632.9 469.1 641.3 470.5 650.2 472 659.4 471.9 668.3 470.5 677 469.1 685.5 466.6 693.7 463.2 697.6 461.6 701.3 459.6 705.3 458.3 709.5 456.9 714 456.4 718.4 456.4 727.5 456.4 736.5 458.2 745.4 459.9 754.4 461.6 763.4 463.3 772.4 464.8 808.6 470.8 845.4 473.3 882.1 472.5 916.5 471.8 951.4 468.2 983.9 456.2 992.3 453.1 1000.5 449.5 1008.5 445.6 1016.1 441.9 1023.8 438.2 1030.8 433.5 1037.7 428.8 1043.9 423 1049.3 416.6 1054.5 410.5 1060.5 403.2 1060.7 394.8 1060.7 393.8 1060.7 392.8 1060.6 391.8 M 595.9 422.8 C 594.1 426.4 593.9 430.2 596.1 433.6 598.1 436.8 601.1 439.3 604.1 441.5 610.6 446.1 617.8 449.8 625.2 452.7 640.2 458.7 656.8 461.2 672.9 458.2 681.6 456.6 689.8 453.2 698.3 451.1 707 448.9 715.8 449 724.6 450.5 742.6 453.4 760.2 458.3 778.1 461.6 813.9 468.3 850.6 468.5 886.8 466.5 905.1 465.5 923.4 463.8 941.3 460.3 958.4 457 975 451.9 990.9 444.7 999.1 441 1007.3 437.2 1015.3 433.1 1022.9 429.2 1030.4 425 1037 419.6 1043.4 414.4 1049.1 408.3 1053.6 401.3 1055.8 398 1057.7 394.4 1058.3 390.4 1059 386.1 1058.1 381.8 1057 377.6 M 575.1 448.9 C 573 452 571.1 455.5 571.8 459.4 572.4 463.2 574.6 466.5 577.2 469.3 582.7 475.2 589.9 479.3 597 483 611.7 490.7 627.7 496.2 644.4 497.1 661.1 498 677.5 493.6 692.6 486.5 696.5 484.7 700.3 482.7 704 480.5 707.7 478.3 711.1 475.8 714.8 473.7 718.4 471.6 722.2 470 726.4 469.5 730.5 469 734.7 469.3 738.9 469.8 757 472 775 475 793.1 477.4 811.4 479.8 829.8 481.9 848.2 483.4 883.9 486.1 920.2 486.2 955.5 479.2 972.6 475.8 989.1 470.5 1005.1 463.4 1012.9 460 1020.7 456.3 1028 451.9 1035.2 447.5 1041.6 441.9 1047.2 435.6 1050.8 431.6 1054.2 427.3 1057.2 422.9 1058.7 420.7 1060.2 418.4 1061.1 415.8 1062 413.3 1062.3 410.7 1062.5 408.1 M 582.5 440.4 C 570.6 455.1 596.9 467.9 607 472.9 622.2 480.3 638.8 485.1 655.8 484.4 672.8 483.7 688.8 477.3 703.7 469.5 707.4 467.6 711 465.4 715 464.1 719.2 462.7 723.6 462.3 728 462.4 737.1 462.5 746.1 463.9 755.1 465.3 773.2 468.3 791.2 471.8 809.3 474.1 827.7 476.4 846.2 477.8 864.6 478.4 900.8 479.6 937.9 477.8 972.8 467.7 981.4 465.2 989.9 462.1 998.1 458.6 1006.3 455.1 1014.4 451.4 1022.1 447.1 1029.3 443.1 1036.1 438.4 1042.1 432.6 1045.3 429.5 1048.1 426.1 1050.9 422.7 1053.6 419.4 1056.4 416 1058.5 412.3 1060.6 408.6 1061.8 404.4 1061.6 400.1 M 612.2 386.6 C 607.3 389.4 614.7 393.3 617.1 394.4 620.3 395.8 624.1 397.1 627.5 395.3 630.1 393.9 633.5 390.6 630.6 387.8 M 750.8 210.4 C 746.3 212.1 741.8 213.9 737.3 215.8 M 920.1 288.5 C 933.5 282.9 947.9 279.8 960.3 272.1 963.2 270.3 965.5 268.3 967.5 265.5 969.6 262.6 969 259.3 967.3 256.3 964.4 251.1 958.9 248.1 954.1 244.8 M 931.8 303.2 C 945.9 296.1 961.5 291.8 974.7 283 980.6 279.1 985.4 273 981.9 265.8 979.2 260.2 973.5 257 968.7 253.5 M 639.8 229.3 C 639.3 229.2 638.7 229.1 638.2 229.1 M 962.2 343.7 C 966.5 338.1 972.8 334.5 978.9 331 985.6 327.2 992.6 323.6 998.8 319.1 1004.3 315.1 1009.8 310.1 1011.9 303.4 1013 299.6 1012.7 295.7 1011.1 292.1 1009.7 288.8 1007.3 286.2 1005 283.5 M 724.6 552.7 C 759.7 562.8 796.7 562.2 832.9 560.5 856.8 559.4 880.7 557.3 904.6 557.6 M 733.3 555.4 C 743.2 558.3 753.2 560.6 763.3 562 773.5 563.4 783.7 564 793.9 564.4 812.4 565 830.9 564.2 849.3 562.9 867.7 561.5 886 559.1 904.5 557.8 M 606.4 676.6 C 612.2 678.3 618 680 624.1 679.8 627.1 679.7 630 679.4 632.9 678.7 635.5 678 637.9 676.7 640.4 675.5 M 1152 576.8 C 1145.9 575.8 1139.7 575.7 1133.5 575.1 1127.4 574.5 1121.3 573.7 1115.2 572.8 1102.8 571 1090.5 569 1078.1 567.6 1069 566.6 1059.7 566.2 1050.7 564.7 1041.9 563.3 1033.5 560.7 1024.9 558.4 1020.5 557.2 1016.5 557 1012.1 558.3 1008 559.5 1004.2 560.8 999.9 561.1 996.5 561.3 991.7 560.9 988.9 563.1 985.8 565.4 991.8 568.8 993.4 569.9 996.5 571.9 1000.6 573.5 1002.9 576.4 1005.8 580 998.5 580.6 996.5 580.8 988 581.6 979.3 580 971.1 577.8 962.6 575.6 954.6 571.9 946.7 568.1 938.9 564.3 931.3 560.2 922.9 557.9 905.5 553.1 887.3 551.1 869.3 549.8 850.9 548.4 832.4 548.7 813.9 549.2 777.6 550.2 740.9 553 705 546.3 M 779.7 567.1 C 784.3 567.9 789 568.7 793.6 569.3 811.8 571.4 830.1 571.6 848.3 569.8 857.4 568.9 866.4 567.6 875.4 565.9 884.4 564.2 893.2 561.8 901.9 559.3 M 760 562.8 C 777.9 566.8 795.9 569.1 814.2 569.3 832.5 569.6 850.9 568.3 869 565.4 881.3 563.4 893.7 561.3 905.6 557.7 M 750.8 560.4 C 768.5 564.4 786.7 566.7 804.9 567.2 823.3 567.7 841.7 566.5 859.9 564.5 874.8 562.9 889.6 560.4 904.4 557.6 M 964.7 586 C 970.8 589.4 976.9 592.6 983.5 595 1000.4 601 1018.4 603.6 1036.2 604.6 1045.3 605.1 1054.4 604.9 1063.5 604.3 1065 604.2 1067 604.4 1068.3 603.7 1069.7 603 1068.7 602.1 1067.8 601.7 1064.2 600.3 1060.7 598.7 1057.1 597.4 1054.9 596.6 1052.7 595.9 1050.6 594.9 1049.6 594.4 1046.1 592.8 1048.1 591.4 1049.3 590.6 1050.9 590.5 1052.3 590.3 1054.3 590 1056.3 589.8 1058.3 589.7 1062.9 589.5 1067.5 589.6 1072.2 589.8 1081.3 590.1 1090.4 591.2 1099.5 592.3 1108.6 593.4 1117.8 594.8 1126.8 596.5 M 1053.7 455.8 C 1052.6 458.6 1051.2 461.3 1049.9 464.1 1049.3 465.3 1048.8 466.6 1048.2 467.8 1047.6 469 1047.6 470.3 1047.3 471.5 M 943 316.4 C 944.2 315.4 945.7 314.8 947 314 948.4 313.2 949.9 312.3 951.3 311.6 954.5 310 957.8 308.5 961.1 307 967.7 304 974.2 301 980.4 297.3 985.2 294.5 990.5 291.2 993.1 286 993.8 284.5 994.3 282.9 994.6 281.3 994.9 279.6 994.5 278 994 276.4 993.1 273.3 990.9 270.7 988.7 268.3 M 953.4 329.1 C 955.8 326.7 958.9 325.2 961.8 323.5 965.2 321.6 968.6 319.8 972.1 318 978.9 314.5 985.8 311.2 992.1 306.9 997.1 303.5 1002.3 299.1 1003.9 293 1005.6 286.6 1002.1 280.7 997.8 276.2 M 1109.7 601.7 C 1105 602.7 1100 602.8 1095.5 604.9 1095.7 605.2 1095.9 605.8 1096.3 605.9 1097.1 606.2 1098 606.4 1098.8 606.7 1100.3 607.2 1101.8 607.5 1103.4 607.9 1106.5 608.6 1109.6 609.2 1112.8 609.7 1119.4 610.8 1126 611.4 1132.7 611.8 1139.5 612.2 1146.3 612.2 1153.1 611.7 1159.1 611.2 1165.2 610.3 1170.5 607.3 M 1132.1 593.7 C 1130.8 594.6 1128.6 596.6 1130.3 598.2 1131.9 599.7 1134.1 600.2 1136.1 600.7 1141.5 602.1 1147.1 602.8 1152.6 603 1162.4 603.4 1172.8 603 1181.6 598.1 M 1050.3 465.2 C 1049.4 467.4 1048.4 469.7 1047.8 472 M 1024.7 613.3 C 1040.8 618.5 1057.6 621.4 1074.4 623.2 1091.4 625.1 1108.5 626.1 1125.5 624.6 M 641 675.2 C 642.1 674.3 643.2 673.4 644.3 672.5 M 998.3 603.2 C 1005.8 605.7 1013.3 608.1 1021 609.7 1028.8 611.4 1036.8 612.5 1044.7 613.6 1062.9 616 1081.3 617.5 1099.6 618.8 1108.7 619.4 1117.9 619.9 1127 620 1135.7 620 1144.5 619.7 1152.9 616.9 M 568.4 584.1 C 568.3 583.9 568.2 583.6 568.1 583.4 M 592.4 671.2 C 595.9 672.7 599.5 674.2 603.1 675.5 M 640.4 226.6 C 639.1 226.4 637.9 226.3 636.6 226.1 M 740.6 241.9 C 740.1 240.9 739.7 240.1 739.1 239.3 M 240.2 297.9 C 241.4 299.9 243.6 300.9 245.7 301.8 248.4 303 251.3 304.1 254.1 305 259.9 306.7 265.8 308.1 271.9 308.5 275 308.7 278 308.4 281 308.1 284.1 307.9 287.2 307.8 290.3 307.8 296.3 307.7 302.3 307.6 308.2 307.3 M 238.5 290.6 C 239.8 292.7 242.3 293.8 244.4 294.8 247.2 296.1 250.1 297.2 253 298.1 259 299.8 265.2 301.2 271.5 301.7 274.7 301.9 278 301.6 281.2 301.3 284.2 301.1 287.2 301 290.2 300.9 296.7 300.7 303.2 300.6 309.7 300.2 M 244 306.1 C 247.2 309.3 251.7 310.4 255.9 311.7 261 313.2 266.2 314.5 271.5 314.8 274.1 314.9 276.8 314.5 279.4 314.4 282.2 314.3 285 314.3 287.8 314.3 293.3 314.3 298.8 314.3 304.3 314.1 M 251 314.9 C 257.8 319.5 266.3 319.5 274.2 319.6 283.5 319.7 292.7 320.3 302 320.1 M 238 287.4 C 235.6 284.5 232.1 282.9 228.8 281.3 224.9 279.4 220.9 277.5 217.2 275.3 213.5 273.1 209.9 270.7 206 268.8 204 267.9 202 267.1 199.9 266.7 199.1 266.5 197.3 266.4 197.3 265.2 M 238.8 292.5 C 236.3 290 232.9 288.5 229.8 286.9 226 285 222.2 282.9 218.4 280.8 214.6 278.7 210.9 276.4 206.9 274.7 205 273.9 203 273.2 201 272.8 200.1 272.6 198.1 272.5 197.9 271.3 M 309.6 301.1 C 311.2 303.8 314.7 304.3 317.5 304.7 321.6 305.2 325.6 305.9 329.7 306.6 338.6 308.2 347.5 309.3 356.6 309.5 365.1 309.7 373.9 309.7 382.2 307.8 390.7 305.9 398.2 301.1 406.2 297.8 422.8 291.1 440.3 287.1 457.5 282.6 466.3 280.3 475.1 278 483.7 275.3 492.4 272.6 500.9 269.4 509.6 266.4 514.8 264.6 520.1 262.8 525.5 261.7 531.2 260.5 537 260.3 542.8 260.3 548.5 260.3 554.1 259.7 559.8 259.4 565.7 259.1 571.5 259.7 577.3 260.4 M 301.2 279.3 C 305.1 283.1 311.1 282.8 316 283.8 322.4 285.2 328.5 287.9 335 289.2 341.9 290.5 349 290.9 356.1 290.9 362.7 290.9 369.4 290.7 375.8 289 383.6 286.9 390.4 282.3 397.6 278.9 405.6 275.1 413.9 272.1 422.4 269.7 439.8 264.7 457.6 261.5 475.2 257.1 484.1 254.9 492.9 252.4 501.6 249.7 509.9 247.1 518 243.8 526.6 242.1 531 241.2 535.3 242 539.7 242.6 544.2 243.3 548.8 243.5 553.3 243.6 562.5 243.8 571.6 243.2 580.8 242.7 M 305.1 314.1 C 308 316.5 311.8 317 315.4 317.4 319.8 317.9 324.1 318.4 328.5 319 337.5 320.3 346.5 321.2 355.5 321.4 364.2 321.6 373.1 321.6 381.7 319.8 389.9 318 397.3 314 405 310.8 421.3 304 438.8 300.3 455.8 295.9 464.5 293.7 473.1 291.3 481.6 288.5 490 285.7 498.2 282.1 506.4 278.8 511.7 276.7 517.1 274.7 522.6 273.3 528.3 271.9 534.2 271.3 540.1 270.8 545.9 270.3 551.8 269.4 557.6 270.1 563.4 270.7 569.2 272.1 575 273.2 M 300.7 320.3 C 302.8 322 305.6 322.4 308.2 322.7 311.1 323 314.1 323.3 317 323.6 322.8 324.3 328.6 325.2 334.4 325.8 346 327.2 357.8 327.6 369.6 326.8 378 326.2 386.3 324.7 394 321.2 398.1 319.4 402.1 317.3 406.3 315.7 410.5 314.1 414.8 312.7 419.1 311.5 436.6 306.5 454.4 302.6 471.9 297.5 480.4 295 488.6 292 496.7 288.5 504.7 285 512.6 281.3 521.1 279.1 525.4 278 529.8 277.2 534.2 276.6 538.7 276 543 274.9 547.6 274.7 552.1 274.5 556.6 275.6 561 276.6 565.4 277.6 569.8 278.7 574.3 279.6 M 191.6 284.8 C 194.9 287.5 198.3 290.2 201.4 293.2 204.2 296 207.2 298.5 210.8 300.3 214.7 302.3 218.8 303.7 222.7 305.5 226.6 307.3 230.3 309.4 233.9 311.9 237.4 314.3 240.5 317.2 244.2 319.4 247.9 321.6 252 323.1 256 324.6 260.2 326.2 264.4 327.7 268.5 329.4 272.7 331.1 276.8 332.9 281.1 334.2 289.6 336.8 298.5 337.6 307.2 338.9 316.1 340.3 325 341.9 334 342.8 343.2 343.7 352.5 343.9 361.7 343.2 366.1 342.8 370.4 342.2 374.6 341 378.7 339.8 382.7 338 386.6 336.3 403.2 329 421 325.5 438.6 321.6 455.7 317.8 472.9 314.2 489.2 307.6 495.8 304.9 502 301.5 508.7 299.1 515.5 296.7 522.7 295.4 529.9 295.2 533.6 295.1 537.2 295.4 540.9 295.4 544.6 295.4 548.4 294.9 552.1 295.1 559.1 295.4 565.4 298.5 572.2 299.8 M 283.3 329.5 C 286.5 330.6 289.7 331.6 293.1 332.1 296.7 332.7 300.3 332.9 303.9 333.3 311 334.1 318.1 335.2 325.2 336.2 339.5 338.1 354.1 339.3 368.5 337.7 372.9 337.2 377.3 336.5 381.5 335 385.6 333.6 389.5 331.5 393.4 329.8 401.4 326.3 409.7 323.7 418.1 321.7 435.8 317.3 453.6 313.6 471.1 308.6 479.5 306.2 487.7 303.1 495.6 299.5 503.5 295.9 511.5 292.5 519.9 290.1 524.2 288.9 528.6 287.9 533.1 287.3 537.5 286.7 542 285.9 546.5 286.3 551 286.6 555.3 287.9 559.6 289.1 564 290.3 568.3 291.6 572.7 292.6 M 244.8 307.5 C 236.9 301.4 228.2 296.4 219.4 291.8 214.8 289.4 210.1 287.2 205.3 285.3 202.8 284.3 200.3 283.5 197.7 282.7 196 282.2 194.3 281.2 194.2 279.2 M 189.7 280.6 C 191.2 283.4 194.2 284.9 196.9 286.3 200.4 288.1 203.9 290.3 207.4 292.1 214.5 295.8 222 298.7 228.9 302.7 235.4 306.4 241 311.4 247.5 315 254.3 318.7 260.7 323.3 268.4 325.2 M 262.1 320.2 C 266.8 322.5 272 323.5 277.2 324.3 282.8 325.1 288.4 325.5 294 325.7 M 270.1 325.8 C 274 327.3 277.9 328.3 282.1 329.1 M 294.3 325.7 C 297.8 327.6 301.9 327.9 305.8 328.2 310.3 328.6 314.7 329.1 319.1 329.7 328.1 330.9 337.2 332.3 346.3 332.7 355.4 333.1 364.6 332.9 373.7 331.9 378 331.5 382.2 330.6 386.2 329 390.4 327.4 394.4 325.3 398.6 323.5 414.4 316.6 431.4 313.2 448.1 309.2 456.8 307.1 465.5 304.9 474.1 302.3 482.6 299.7 490.9 296.3 499 292.7 504.9 290.1 510.7 287.5 516.8 285.5 523 283.5 529.5 282.3 535.9 280.9 539 280.2 542.1 279.5 545.2 279.5 548.3 279.5 551.3 280.2 554.2 281.1 560.5 282.9 566.7 284.7 573.1 286 M 197.6 275.2 C 197.5 275.4 197.4 275.6 197.4 275.8 M 240.4 298.6 C 233.3 293.4 225.3 289.5 217.6 285.3 213.8 283.2 210 281.2 205.9 279.8 203.8 279.1 201.7 278.5 199.6 278 198.6 277.8 196.8 277.3 197.3 275.9 M 182 275 C 185.8 277.5 190.2 278.5 194.6 279.4 M 306.9 286.8 C 308.2 289.5 311.5 290.1 314.2 290.5 318.1 291.1 322 291.9 325.9 292.9 334.6 295.1 343.2 296.7 352.2 297.1 360.7 297.5 369.6 297.6 377.9 295.6 386.2 293.7 393.4 289.2 401 285.6 416.7 278.1 434.1 274.1 450.9 270.1 468.5 265.9 486.1 261.4 503.4 256 509.4 254.1 515.3 251.9 521.4 250.3 527.8 248.7 534.1 248.5 540.6 248.8 547.1 249.2 553.6 249.4 560.1 249 566.6 248.7 573.1 248 579.6 247.8 M 309.2 294.2 C 310.2 296.9 313.6 297.4 316.1 297.8 320 298.3 323.9 299 327.8 299.8 336.7 301.6 345.5 303.1 354.6 303.4 363.1 303.7 371.9 303.8 380.2 301.9 388.7 299.9 396.2 295.1 404.1 291.7 420.4 284.7 437.8 280.6 455 276.3 463.8 274.1 472.6 271.9 481.3 269.4 490.1 266.9 498.8 263.9 507.5 261 513.1 259.1 518.7 257.1 524.4 255.9 530.2 254.6 536.1 254.5 542 254.7 554.1 255 566.3 253 578.4 254 M 308.1 307.6 C 310.5 310.2 314.2 310.8 317.6 311.2 321.9 311.8 326.2 312.4 330.5 313 339.5 314.3 348.5 315.3 357.5 315.4 366 315.5 374.7 315.6 383 313.6 391.4 311.6 398.9 307.1 406.9 303.8 423.4 297.1 440.9 293.3 458 288.8 466.8 286.5 475.6 284.1 484.2 281.2 492.8 278.3 501.1 274.8 509.6 271.7 514.8 269.8 520.1 268.1 525.5 267 531 265.9 536.6 265.6 542.1 265.4 547.7 265.2 553.4 264.4 559 264.5 564.7 264.6 570.4 265.7 576 266.6 M 164.8 252.4 C 166.2 257.7 171.1 261.5 176.3 262.9 179.6 263.8 183 262.9 186.4 262.9 190 263 193.5 263.3 197.1 263.5 M 171.6 269.1 C 172.8 270.6 174.2 272.1 176.1 272.6 178.4 273.2 180.7 272.9 183 273.2 187.9 273.7 192.7 274.7 197.6 275.1 M 243.4 269.1 C 244.2 266.9 243.9 264.4 244.5 262 M 187.2 229.8 C 188.4 231.7 190.9 232.1 192.6 233.4 194.5 234.8 195.2 237.2 196.7 239 198.3 241 200.5 242.3 202.8 243.4 205.6 244.8 208.3 246.4 211.1 247.6 216.7 250 222.8 250.7 228.7 252.4 231.4 253.2 233.9 254.6 236.5 255.7 239.3 256.8 242.4 257 245.4 257.3 M 247.2 254 C 246.4 257.6 247.8 261.3 250.4 263.7 253 266.2 256.6 267 260.1 267.5 268.6 268.7 277.3 269.2 285.9 269.5 M 162 231.5 C 162.2 236.8 167 240.5 171.6 242 174.8 243.1 178.3 242.3 181.6 242.3 185.1 242.3 188.5 242.7 192 243 M 162.8 225.7 C 162.3 228.1 164.2 230.1 165.9 231.5 167.7 233 169.9 234 172.2 234.1 175.1 234.3 178 234 180.9 234.3 183.7 234.5 186.5 234.9 189.4 235.2 M 192.6 245 C 192.8 245.8 193.7 246.1 194.4 246.4 195.4 246.8 196.4 247.2 197.4 247.8 199.5 248.9 201.1 250.6 202.8 252.2 206.3 255.4 210.3 258 214.7 259.9 219.5 262 224.6 263 229.4 265 231.7 266 233.6 267.5 235.9 268.4 238.1 269.4 240.5 269.2 242.8 269.1 M 162.3 238.2 C 163 243.7 168.1 247.7 173.1 249.3 176.3 250.3 179.6 249.9 182.8 249.7 186.6 249.5 190.3 250 194.1 250.2 M 211.8 230.8 C 211.1 232.4 210.3 234.4 211.5 235.9 212.5 237.1 214.1 237.6 215.5 238 219.6 239.3 223.9 239.5 228.2 240.3 236.9 242 245.3 245.3 253.6 248.3 257.6 249.8 261.5 251.6 265.7 252.6 270 253.7 274.4 254.3 278.8 255.2 283.1 256.1 287.3 257.1 291.4 258.5 295.5 260 299.4 261.9 303.5 263.5 311.5 266.7 320.1 268.3 328.7 268.9 337.5 269.6 346.5 270 355.3 268.5 359.5 267.8 363.6 266.6 367.4 264.9 371.3 263.1 374.7 260.6 378.3 258.2 385 253.6 392.6 250.3 400.4 248.1 409 245.7 417.8 244.4 426.6 242.9 435.7 241.4 444.7 240.1 453.8 238.5 471.5 235.5 489 231.5 506 225.8 516.9 222.1 527.7 218 538 213 542.5 210.8 547 208.5 550.6 205 552.3 203.3 553.7 201.3 554.5 198.9 555.4 196 554.9 193 554.4 190.1 M 212.1 229 C 212.4 231.8 215.9 232.5 218.1 232.9 222.2 233.7 226.4 234.2 230.5 234.8 239.3 236.2 247.7 239 256.1 241.8 264.4 244.6 272.9 246.9 281.1 250.1 285.1 251.7 289 253.6 293 255 297.1 256.5 301.4 257.5 305.7 258.3 314.6 259.9 323.6 260.5 332.6 260.4 341.3 260.3 350.1 260 357.8 255.6 361.6 253.5 364.8 250.6 368.2 248 371.5 245.5 375.1 243.4 379 242 387.2 239 396 237.9 404.6 236.9 422.9 234.8 441.2 233 459.4 229.9 477 226.9 494.3 222.2 511.2 216.2 520.7 212.9 530.1 209.2 539.2 204.7 543 202.8 546.9 200.7 549.7 197.5 552.6 194.2 553.7 189.9 552.9 185.6 M 213.9 217.4 C 214.5 220.1 217.9 220.7 220.2 221.1 223.9 221.8 227.7 222.4 231.4 223.1 240.1 224.7 248.4 227.3 256.7 230.6 264.8 233.7 272.7 236.8 281.3 238.5 290.1 240.2 299.2 240.6 308.1 240.2 315.8 239.8 323.8 238.9 330.7 235.1 334 233.2 336.6 230.8 338.9 227.8 341.3 224.7 343.8 222.5 347.5 221.2 351.4 219.9 355.6 219.5 359.6 219.1 364.1 218.6 368.7 218.3 373.3 218 382.5 217.5 391.6 216.9 400.8 216.8 410 216.7 419.3 216.8 428.5 216.5 437.6 216.2 446.7 215.4 455.8 214.1 473.5 211.6 490.8 207.2 507.8 201.6 517.9 198.3 528.2 194.8 537.6 189.8 541.5 187.7 545.8 185.1 547.9 181.1 550.3 176.4 548.5 171 546.8 166.4 M 180.2 207.3 C 181.5 209.5 184.1 210.3 186.6 210.6 190 211 193.4 210.9 196.7 210.7 203.2 210.2 209.6 208.9 215.8 206.7 M 213 223.3 C 213.3 226.4 218 226.9 220.4 227.3 225.4 228 230.5 228.8 235.5 229.7 246.3 231.7 256.7 235.4 266.9 239.6 275 242.9 283.2 246.5 291.8 248.2 300.4 249.9 309.2 250.2 318 250.2 326 250.3 334.5 250 341.9 246.4 348.6 243.1 353.7 237.3 360.3 233.8 367.7 229.9 376.1 228.7 384.3 227.9 393.4 226.9 402.5 226.7 411.7 226.3 430 225.6 448.2 223.9 466.2 220.6 483.8 217.3 501 212.3 517.7 206 521.9 204.4 526 202.8 530.1 201 534.1 199.3 538.2 197.6 541.9 195.4 545.1 193.5 548.3 191.1 550.2 187.7 552.3 184 551.4 179.8 550.5 175.9 M 550.9 227.3 C 550.2 228 549.6 228.6 550.6 229.4 551.6 230.2 552.8 230.3 554 230.6 557.1 231.3 560.3 231.4 563.5 231.6 570.1 232 576.8 232.1 583.4 232.3 M 252.6 252 C 256.1 256 261.5 257.3 266.6 258.4 M 564.7 220.9 C 563.1 221.8 562 222.9 564.2 223.9 566 224.7 568 224.8 570 225.1 575 225.7 580 226 585 226.4 M 169.8 215.3 C 169.1 217.1 168.2 219.1 168.9 221 169.5 222.6 171.2 223.2 172.7 223.7 177 225.1 181.4 226 185.9 226.6 M 173.8 210.9 C 174.5 213.7 177.2 215 179.6 216.1 M 271.3 261.5 C 274.8 263.4 278.9 263.7 282.8 264.1 287.3 264.6 291.9 265.1 296.3 266.1 304.6 267.9 312.1 272 320.2 274.5 328.6 277 337.5 277.5 346.2 277.5 354.4 277.5 362.9 277.3 370.7 274.3 378.5 271.3 385.3 266 392.8 262.2 400.5 258.3 408.9 255.7 417.3 253.7 435 249.5 453 247 470.8 243.2 487.9 239.5 504.7 234.6 521 228.4 528.9 225.4 536.7 222.1 544 217.8 547.4 215.8 551 213.6 553.5 210.4 555.9 207.3 556.4 203.4 556 199.6 M 237.8 283.4 C 237.7 285.1 240.4 286.3 241.6 286.9 244 288.1 246.4 289.2 249 290 255.2 292.1 261.8 293.6 268.3 294.3 271.5 294.7 274.7 294.5 277.9 294.2 281.3 293.9 284.8 293.8 288.3 293.8 295.2 293.7 302.2 293.5 309.1 293.1 M 541.9 232.9 C 539.9 235 542.9 236.1 544.6 236.5 547.7 237.2 550.9 237.4 554 237.6 563.3 238.1 572.6 237.8 581.9 237.8 M 238.6 277.1 C 239.2 279.1 241.7 279.9 243.5 280.6 246.2 281.8 248.9 282.7 251.7 283.5 257.4 285.1 263.2 286.5 269.1 286.7 272.1 286.8 275.1 286.3 278.1 286.2 281.3 286.1 284.4 286.1 287.6 286 293.8 285.9 300.1 285.8 306.3 285.5 M 242 270.5 C 240.3 272.2 246.1 274.1 247.1 274.5 252.5 276.3 258 277.9 263.7 278.1 266.8 278.2 270 277.9 273.1 277.9 276 277.9 278.8 277.9 281.7 277.9 287.6 277.9 293.5 278 299.4 277.8 M 289.6 271.5 C 295.8 274.4 302.9 273.9 309.4 275.6 316.1 277.3 322.2 280.6 328.9 282.1 336.2 283.8 343.7 284.3 351.2 284.4 358.4 284.5 365.8 284.3 372.7 282.1 380.5 279.7 387.4 275 394.7 271.4 402.6 267.5 410.9 264.5 419.3 262.1 436.6 257.2 454.4 254.5 471.9 250.4 489.6 246.3 506.8 240.9 524 235 531.8 232.3 539.3 229.1 546.1 224.4 549.2 222.2 552.4 219.9 554.5 216.7 556.7 213.4 556.9 209.5 556.7 205.6 M 237.8 281.7 C 236.2 280.9 235.1 279.5 233.7 278.5 231.9 277.3 229.9 276.5 228 275.6 223.9 273.8 219.7 272 215.7 269.8 212 267.7 208.7 265.1 205.1 263 203.3 261.9 201.3 261 199.2 260.5 198.2 260.3 196.4 260.2 196.1 258.9 M 167.4 260.6 C 169.2 265.1 173.7 268.3 178.4 268.7 180 268.8 181.5 268.6 183.1 268.6 184.8 268.6 186.4 268.7 188.1 268.8 191.4 269.1 194.6 269.4 197.9 269.6 M 163.4 245.8 C 164.1 248.4 165.3 250.7 167.4 252.3 169.7 254.1 172.5 255.6 175.3 256.4 178.7 257.4 181.9 256.6 185.3 256.5 188.8 256.4 192.3 256.9 195.7 257.1 M 194.5 252 C 194.7 253.3 196.7 253.6 197.8 253.9 200 254.5 201.9 255.8 203.7 257.1 207.4 259.8 210.9 262.7 215 264.7 219.3 266.9 223.9 268.4 228.4 270.2 230.6 271 232.6 272 234.5 273.4 235.9 274.5 237.4 275.3 239.2 275.4 M 553.7 225.7 C 556.1 222.7 557.1 219.5 557.2 215.7 M 279.1 504.7 C 290.4 510.8 302.7 514.9 315.4 516.2 321.9 516.9 328.6 516.9 335 515.6 340.1 514.6 345.7 512.7 349.2 508.6 M 321.3 518.9 C 323.7 519 326 519 328.4 519 M 258.4 488.7 C 260.8 490.9 263.9 491.7 266.9 492.4 268.6 492.8 270.5 493.1 271.9 494.3 273.2 495.5 273.3 497.1 273.8 498.7 274.9 502.1 279.7 503.6 282.6 504.8 290.7 508.1 299.3 510.1 307.9 511.5 316.6 512.8 325.4 513.1 334 511.2 338.2 510.3 342.3 508.8 346.1 506.8 349.2 505.2 352.3 502.9 353.4 499.5 M 275.2 497.7 C 276.4 500.1 279.8 500.6 282.1 501.3 285.9 502.4 289.6 503.6 293.3 504.5 301.3 506.5 309.6 507.8 317.9 507.8 325.7 507.7 333.4 506.3 340.7 503.4 345.9 501.3 352.2 498.6 354.4 493 M 252.6 481.5 C 256.5 486.2 262.7 481.9 267.7 482.2 M 274.2 493.7 C 274.7 494.8 276.2 495.2 277.3 495.5 279.1 496 280.9 496.6 282.7 497.2 286.6 498.3 290.6 499.4 294.6 500.3 302.8 502.1 311.2 503.1 319.6 502.5 327.5 502 335.3 500.1 342.4 496.6 347.3 494.2 353.5 491.1 354.6 485.2 M 240.4 453 C 244.1 463.7 254.5 470.4 264 475.5 278.4 483.2 295 486.6 311.2 485.6 319.7 485.1 328.2 483.3 335.9 479.8 339.6 478.1 343.3 476 346.5 473.5 349.3 471.3 351.8 468.3 351.9 464.6 M 238.8 446 C 240.4 453 245.7 458.2 251.4 462.3 257.9 467 264.9 471.3 272.4 474.2 280.5 477.3 289.1 478.9 297.8 479.5 306.5 480.1 315.4 479.8 323.9 477.6 330.2 476 336.2 473.3 341.7 469.8 345.8 467.1 350.6 463.7 351.1 458.3 M 237.7 440.7 C 239.4 447.8 245.1 452.8 250.7 456.9 257.3 461.7 264.3 465.8 272 468.5 280.3 471.5 289.1 473.1 297.9 473.5 306.6 473.9 315.5 473.4 323.9 471 329.8 469.3 335.4 466.7 340.5 463.3 344.9 460.4 350.4 456.2 349.6 450.2 M 267.3 481.8 C 270.4 484.1 274.1 485.1 277.7 486.3 281.7 487.6 285.8 488.7 290 489.6 298.4 491.4 307.1 492 315.7 491.3 323.9 490.6 331.9 488.6 339.2 485 342.7 483.3 346 481.2 348.9 478.7 351.3 476.7 353.2 474.1 353 470.9 M 272.1 488.6 C 272.5 489.7 274 489.9 274.9 490.2 276.9 490.8 278.8 491.5 280.8 492.1 284.7 493.3 288.7 494.4 292.7 495.2 300.8 496.9 309.1 497.6 317.4 497 325.2 496.5 332.8 494.6 339.9 491.3 343.4 489.7 346.6 487.8 349.6 485.3 352.1 483.2 354.3 480.7 353.9 477.2 M 245.5 467.1 C 246.2 468.6 246.6 470.4 247.9 471.6 249.2 472.7 251 472.2 252.5 471.8 M 242 458.3 C 243.2 461.8 245.1 466.9 248.7 468.7 M 236.7 435.4 C 238.1 441.2 242.3 445.6 246.9 449.2 251.9 453.1 257.3 456.6 263.1 459.4 277.6 466.4 294.4 468.8 310.4 467 318.9 466.1 327.2 463.8 334.8 459.7 340.5 456.6 349.1 451.6 348.6 444 M 231.9 402.5 C 233.2 408.1 237.8 412.1 242.3 415.3 247.5 419 253.1 422.2 259.1 424.5 267.4 427.6 276.2 428.8 285 429 294 429.2 303.1 428.4 311.8 426.3 319.9 424.3 327.7 421.1 334.6 416.3 337.9 414 341 411.3 343.5 408.1 346.1 404.8 348.1 401.1 350.2 397.4 M 232.6 408.1 C 233.9 413.4 237.9 417.3 242.1 420.5 246.9 424.1 252.1 427.3 257.6 429.7 265.5 433.1 274.1 434.8 282.7 435.3 291.6 435.9 300.6 435.5 309.3 433.8 317.4 432.2 325.4 429.5 332.4 425.1 339.2 420.9 344.6 415.2 346.4 407.3 M 231.2 396.8 C 232.6 403.4 238.5 407.5 243.8 410.9 250.6 415.2 257.8 418.7 265.7 420.5 274.4 422.5 283.5 422.7 292.4 422.1 301.1 421.5 309.8 420.1 318 417.3 325.6 414.7 332.7 410.8 338.8 405.6 345.2 400.2 350.4 393.5 356.9 388.3 M 234.9 424.6 C 236.7 431.6 242.6 436.4 248.2 440.3 254.9 444.9 262.1 448.8 269.9 451.2 278.4 453.9 287.3 454.9 296.2 454.9 304.9 454.9 313.8 454.1 322.1 451.3 328 449.3 333.7 446.4 338.7 442.7 342.9 439.6 347 435.4 346.3 429.7 M 234.1 419.2 C 235.8 426 241.7 430.8 247.3 434.6 254.1 439.2 261.3 442.8 269.2 445.2 277.8 447.8 286.7 448.7 295.7 448.6 304.4 448.5 313.1 447.6 321.4 444.8 327.3 442.8 332.9 439.9 337.9 436.2 342 433.1 345.8 429.1 345.9 423.6 M 233.3 413.7 C 234.7 419.1 238.6 423 242.9 426.3 247.9 430.1 253.3 433.4 259 435.9 273.9 442.4 290.8 443.3 306.7 441.1 315 439.9 323.1 437.7 330.4 433.5 336.7 429.9 344 424.9 345.3 417.2 M 235.8 430 C 237.6 436.9 243.3 441.7 248.9 445.6 255.5 450.3 262.6 454.2 270.3 456.8 285.9 462.1 303.4 462.7 319.4 458.6 325.7 457 331.8 454.6 337.2 451 341.8 447.9 347.3 443.7 347.5 437.7 M 230.7 359.2 C 229.7 360 228.6 361.1 229.7 362.4 230.6 363.4 232 363.8 233.3 364.1 234.9 364.4 236.6 364.4 238.2 364 239.9 363.6 241.3 362.6 242.9 362.1 244.3 361.7 245.1 362.5 246.1 363.4 247.3 364.5 248.9 364.6 250.5 364.7 254.3 364.9 258.1 364.7 261.9 364.5 277.4 363.6 293 363.6 308.5 363.3 M 215.8 339.3 C 217.7 342 221.2 342.6 224.1 343.6 227.9 344.9 231.6 346.9 235 349.1 236.6 350.2 238.3 351.3 239.7 352.6 241.1 353.8 242 355.5 243.3 356.7 246.1 359.3 251.3 359.4 254.9 359.4 264.1 359.6 273.3 360 282.5 360.6 291.7 361.3 301 362.1 310.2 362.5 314.8 362.7 319.5 362.9 324.1 362.9 M 575.3 333.8 C 566.2 333.3 557 332.8 547.9 331.9 539 331.1 530.1 330 521.6 327.5 513.7 325.2 505.6 321.8 497.1 323.1 488.4 324.5 480 327.4 471.5 329.5 453.8 333.9 435.7 337 417.7 340.2 408.6 341.8 399.5 343.4 390.4 345.1 381.7 346.7 373.1 348.6 364.8 351.7 M 209.2 322.4 C 210 324 211 325.7 212.5 326.8 214.2 328.1 216.1 329 218.1 329.8 222 331.4 226.1 332.2 229.9 334 233.3 335.6 235.7 338.5 238.2 341.2 240.8 344 244.1 345.9 247.7 347.2 255.8 350.1 264.5 351.2 273 352.5 282.1 353.9 291.1 355.3 300.2 356.4 308.9 357.5 317.6 358.5 326.4 359.1 334.8 359.7 343.5 360.2 351.7 357.5 M 212.8 331.7 C 214.4 333.4 216 335 218.2 335.9 220.5 336.9 222.9 337.5 225.2 338.3 229.4 339.7 233.7 341.4 236.8 344.6 238.3 346.1 239.4 348 241 349.5 242.3 350.8 244.1 351.6 245.8 352.3 249.8 353.8 254 354.4 258.2 354.9 267.3 355.9 276.4 357.1 285.6 358.1 294.8 359.1 303.9 360.1 313.1 360.9 322.1 361.7 331.2 362.6 340.2 361.2 M 204.9 310.8 C 206.2 314.1 207.9 317.3 210.7 319.6 213.8 322.1 217.6 323.5 221.3 324.7 224.9 325.9 228.7 326.9 231.9 329 235 331.1 237.2 334.4 240 336.8 246 341.8 254.7 343.5 262.1 345.1 270.8 347 279.6 348.9 288.4 350.5 297.4 352.1 306.4 353.6 315.5 354.7 324.5 355.8 333.7 356.7 342.8 356.5 347.2 356.4 351.6 356.1 355.9 355 360.1 353.9 364 351.8 368 350 376.1 346.2 384.8 344.1 393.5 342.2 411.4 338.4 429.5 335.6 447.4 332 456.4 330.2 465.3 328.2 474.2 325.8 482.7 323.5 490.9 320.3 499.4 318.3 511.7 315.4 523.8 317.8 535.8 320.7 548.3 323.7 561 325.2 573.7 326.7 M 199.7 297.8 C 202.2 303.2 204.6 309.1 209.6 312.7 214.6 316.4 220.8 317.8 226.5 320.2 229.5 321.4 232.3 323.2 234.6 325.4 237 327.6 239.2 330 241.9 331.7 247.6 335.4 254.3 337 260.8 338.8 278.4 343.5 296.2 347.7 314.3 350.3 323.3 351.6 332.4 352.6 341.5 352.8 349.7 353 358.3 352.8 366 349.8 370.1 348.2 374 346.2 378.1 344.6 382.2 342.9 386.5 341.5 390.8 340.3 399.5 337.9 408.3 336.1 417.1 334.4 435.1 330.9 453.1 327.6 470.9 323 479.6 320.7 488.1 317.6 496.5 314.4 500.6 312.8 504.7 311.3 509.1 310.5 513.6 309.7 518.1 309.5 522.6 309.5 527.2 309.4 531.7 309.5 536.3 309.4 540.8 309.3 545.3 308.7 549.8 308.4 551.6 308.3 553 309.1 554.4 310.2 555.8 311.4 557.4 312.2 559.2 312.7 563.4 314.1 567.8 314.4 572.2 314.9 M 190.2 237.6 C 190.5 238.6 191.7 238.9 192.5 239.3 193.7 239.8 194.8 240.4 195.8 241.2 197.7 242.6 198.9 244.7 200.6 246.4 204 249.9 208.5 252.1 213 253.9 218.2 255.9 223.7 256.9 228.9 258.7 231.4 259.6 233.6 261 236 261.9 238.5 262.9 241.3 262.9 244 262.9 M 167.1 210.4 C 167.5 212.2 169.2 212.8 170.8 213.3 M 588.3 215.2 C 587.2 215.4 582.6 215.3 582.8 217.2 583 218.8 586.6 218.9 587.8 219.1 M 230.2 152 C 227.2 155.4 222.4 159.4 223.6 164.5 224.8 169.7 229.7 172.5 233.5 175.7 M 209.8 162.5 C 214.1 161.8 218.1 160.3 221.9 158.3 M 214.8 211.4 C 215.6 213.8 218.8 214.4 220.9 214.9 223.7 215.6 226.5 216.1 229.3 216.7 235 217.9 240.6 219.4 246.2 221.4 254.5 224.4 262.7 227.5 271.5 228.9 280 230.2 288.8 230.4 297.4 230 304.6 229.6 313.1 228.8 319.2 224.4 321.5 222.8 323.4 220.1 322.1 217.3 320.8 214.7 317.7 213.3 315.1 212.4 M 240.5 138.5 C 239.2 140.9 238.1 143.2 238.3 146 238.4 148.6 239.4 151.1 240.8 153.3 243.5 157.7 247.5 161.3 251.7 164.3 264.4 173.4 280.1 177 295.1 180.3 312.8 184.2 330.7 186.8 348.7 188.2 367.1 189.6 385.6 189.2 404.1 188.7 422.4 188.3 440.8 188.9 459 187 476.9 185.1 494.8 180.6 511.8 174.7 516.1 173.2 520.3 171.6 524.4 169.7 528.1 168 531.8 166.2 534.8 163.5 537.4 161.1 539.3 157.8 539.2 154.1 539 150 536.8 146.3 534.9 142.7 M 156.1 168.3 C 155.9 171.5 157.6 173 160 174.8 162.6 176.8 165.2 178.9 167.4 181.3 169.1 183.2 171.1 185 173.6 185.8 176.7 186.9 180.2 186.9 183.4 186.8 190.1 186.6 196.9 185.6 203.3 183.5 206.3 182.5 209.3 181.3 211.9 179.4 213 178.6 214.1 177.7 214.7 176.4 215.4 174.9 215 173.3 214.5 171.8 M 300.8 202.8 C 317.7 207 335.3 207.7 352.6 207.9 371.2 208.1 389.8 207.1 408.4 206.9 426.7 206.8 445 207.3 463.2 204.4 480.8 201.6 497.9 196.5 514.7 190.8 522.5 188.1 530.5 185.5 537.6 181.2 540.7 179.4 543.7 177 545.2 173.7 546.9 170 546.2 165.7 544.9 162 M 216.2 204.2 C 216 206.1 217.5 207.2 219.1 207.9 221.6 209 224.4 209.5 227.1 210.1 231.4 211.2 235.8 212.4 240.1 213.7 248.5 216.3 256.9 218.8 265.6 219.7 274.5 220.6 283.5 220.6 292.3 219.5 296.4 219 300.5 218.2 304.3 216.5 305.9 215.8 307.8 214.9 308.9 213.5 309.9 212.1 309.2 210.3 308.6 208.9 M 153.8 175.1 C 153.6 179.5 157.9 182 161.2 183.9 165.4 186.3 170.2 188.2 173.1 192.1 M 250 122.8 C 247.8 126.5 247 130.3 248.7 134.4 251.5 141 257.7 145.7 263.7 149.3 270.9 153.6 278.9 156.4 287 158.8 304.1 163.8 321.7 166.8 339.4 168.9 357.6 171.1 376 171.6 394.3 171.3 412.7 171 431.1 170.2 449.5 168.9 467.3 167.6 485 164.4 501.9 158.9 506.1 157.5 510.2 156 514.2 154.3 517.9 152.7 521.7 151 524.9 148.4 527.6 146.1 529.8 143 529.7 139.3 529.5 135.2 527.2 131.6 525 128.4 M 220.4 191 C 220 193.3 222.5 194.5 224.2 195.3 227.2 196.7 230.4 197.6 233.6 198.4 240.5 200.1 247.6 201.1 254.7 201.4 261.8 201.7 268.9 201.5 275.9 200.5 279.2 200 282.6 199.3 285.6 197.9 286.9 197.3 288.4 196.6 289.2 195.4 290.1 194.2 289.4 192.8 288.6 191.7 M 245.4 130.6 C 244.1 133 243.1 135.6 243.2 138.3 243.3 140.9 244.4 143.3 245.8 145.5 248.4 149.6 252.2 152.9 256.1 155.7 268.3 164.5 283.5 167.9 298 171.2 315.8 175.2 333.8 177.9 352 179.2 370.5 180.4 388.9 180.1 407.4 179.7 425.6 179.3 443.9 179.4 462.1 177.2 479.7 175.1 497 170.8 513.6 164.6 517.7 163.1 521.7 161.4 525.5 159.2 528.8 157.3 532.3 154.9 533.9 151.4 537.1 144.6 531.6 137.4 528 132 M 224.6 183.7 C 222.6 186.4 229.1 188.4 230.7 188.9 235.6 190.5 240.8 191.1 245.9 191.5 252.9 192 260.1 192.1 267 190.9 270.1 190.4 273.5 189.8 276.4 188.4 277.5 187.9 279 187.2 279.7 186.1 280.6 184.9 279.8 183.7 279 182.7 M 253.1 117.6 C 251.8 121.7 252.2 125.3 254.6 128.9 256.9 132.2 259.9 135 263.1 137.4 269.9 142.3 277.7 145.5 285.6 148.1 302.5 153.7 320 157 337.6 159.3 374.1 164.1 411.4 162.9 448 159.4 465.6 157.7 483.2 154.6 500 149.1 506.7 146.9 513.9 144.8 519.4 140.1 522 137.9 524.1 135.3 523.9 131.8 523.8 128.6 522.1 125.5 520.4 122.8 519.2 120.9 517.8 119.1 516.5 117.2 M 234.9 174.8 C 234 175.4 232.1 176 232.4 177.5 232.7 178.9 234.4 179.4 235.6 179.8 239.9 181 244.3 181.4 248.8 181.5 253.3 181.5 257.8 181.2 262.1 180.1 263.8 179.7 265.5 179.1 266.9 178 268.5 176.7 266.8 175.5 265.6 174.8 M 162.5 152.1 C 156.7 161 176.6 161.7 181 161.3 185.1 161 208.5 157.3 200.5 148.9 M 158.9 158.8 C 157.5 163 162.1 166.2 165.4 167.8 170.5 170.2 176.3 170.5 181.8 170.2 187.5 169.9 193.3 168.8 198.6 166.8 202.5 165.4 209.2 162.3 206.8 157.1 M 258 109.7 C 257.3 111.8 256.5 113.9 257.1 116.1 257.6 118 258.6 119.7 259.7 121.3 261.9 124.4 264.7 126.9 267.8 129 274.4 133.6 282 136.8 289.6 139.4 305.5 144.9 322.1 147.7 338.7 150.1 356.8 152.7 375.2 153.6 393.5 153.4 411.9 153.2 430.3 152.2 448.5 149.9 466.2 147.7 483.8 144.4 500.6 138.4 504.5 137 508.3 135.4 511.8 133.2 514.5 131.5 517.4 129.2 517.8 125.9 518.3 122 516 118.2 513.9 115.1 511.5 111.6 508.7 108.4 505.7 105.4 M 155 171.9 C 154.8 175.7 158 178 160.9 179.8 164.5 182 168.2 184.3 170.7 187.9 M 263.5 101.6 C 262.8 103.1 262 104.7 262 106.4 262.1 108 262.8 109.6 263.5 110.9 265 113.7 267.3 116.1 269.8 118.1 274.8 122.2 280.7 125 286.7 127.4 299.6 132.7 313.3 135.8 327 138.4 362.5 145 399 145.7 434.9 141.8 452.7 139.9 470.4 137 487.6 131.9 491.7 130.7 495.9 129.3 499.8 127.5 503.1 126 506.7 124.3 509 121.4 514.3 114.5 506 105.6 501.4 100.7 M 269.8 93.4 C 268.4 96 267.2 98.6 268.4 101.6 269.4 104.2 271.5 106.4 273.5 108.2 277.9 112.2 283.3 115.1 288.7 117.5 300.4 122.7 313 125.8 325.5 128.3 361 135.4 397.4 136.6 433.3 132.6 451 130.6 468.4 127.4 485.4 121.9 489.2 120.7 492.9 119.3 496.4 117.3 499.1 115.8 502 113.6 502.5 110.3 503 106.6 500.9 102.9 498.8 100.1 496.4 96.8 493.4 94.1 490.3 91.5 M 169.4 145.1 C 168.4 145.9 167.2 146.9 167.5 148.3 167.8 149.6 169.2 150.1 170.3 150.6 173.6 151.9 177.2 151.8 180.6 151.5 184.2 151.2 187.7 150.3 190.9 148.7 192.1 148.1 193.5 147.2 193.8 145.8 194 144.5 192.8 143.7 191.9 143.1 M 235 146.4 C 233.7 148.7 232.6 151.2 232.6 153.8 232.6 156.4 233.6 158.9 234.9 161 237.6 165.3 241.3 168.7 245.3 171.6 M 217.8 198.2 C 218.2 200.9 221.3 201.9 223.5 202.6 227.1 203.8 230.7 204.8 234.3 205.9 242.2 208.1 250.3 209.9 258.5 210.6 266.7 211.3 275 211.2 283.1 210.1 287 209.6 290.9 208.9 294.4 207.2 295.8 206.6 297.4 205.9 298.4 204.6 299.5 203.2 298.7 201.6 297.9 200.3 M 284.7 187.8 C 302.2 192.3 320.2 195.3 338.2 196.9 356.6 198.5 375.1 198.3 393.6 197.9 402.8 197.7 412 197.5 421.2 197.6 430.3 197.7 439.5 197.7 448.6 197.1 466.3 195.8 483.8 192.2 500.8 187 511.1 183.8 521.5 180.7 531.1 175.8 535 173.8 539 171.4 541.4 167.6 544.4 162.8 542.4 157.4 540.4 152.7 M 176.3 198.9 C 177.9 201.6 181 202.5 183.9 202.8 188 203.2 192 202.9 196.1 202.4 204 201.5 211.6 199.3 218.7 195.7 M 157.2 164.4 C 157.2 167.6 159.2 169.2 161.3 171.3 163.4 173.3 165.7 175.4 168.3 176.7 173.1 179.1 178.9 179 184.1 178.6 190.3 178.2 196.4 177 202.2 174.8 206.3 173.2 212.7 170.6 211.1 165 M 172 190 C 175.2 194.8 180.6 194.9 185.9 194.8 191.7 194.7 197.4 193.8 203 192.4 207.7 191.2 212.7 189.7 216.5 186.5 218.3 185 219.9 182.8 219.3 180.4 218.7 178 217.2 176 215.8 173.9 M 152.7 178.1 C 152.2 183.3 158.4 186.1 162.2 188.2 166.9 190.8 171.8 193.3 175.6 197.2 M 192.1 230.9 C 194.5 234.5 199 235.2 202.8 236.3 204 236.7 205.3 236.9 206.3 237.6 207.3 238.2 208 239.1 208.8 240 210.4 242 212.8 243 215.2 243.7 220.7 245.4 226.5 245.7 232 247.4 234.7 248.2 237.2 249.5 239.8 250.4 242.6 251.4 245.6 252.1 248.5 252.8 M 188.3 223.8 C 190.9 227 195.4 227.1 199.2 227.4 201.9 227.6 204.7 227.7 207.4 227.9 209 228 211.5 228.2 211.9 230.2 M 172 189.9 C 171.6 189.2 171.2 188.6 170.8 187.9 M 152 186.7 C 153.9 191.6 159.6 192.8 163.6 195.5 164.7 196.3 165.8 197.2 166.6 198.3 167.7 199.7 168 201.4 168.6 203.1 169.7 206 172.4 207.3 174.8 208.8 176 209.5 177 210.4 178.1 211.4 179.5 212.6 181 213.5 182.5 214.5 183.9 215.4 185 216.7 186.5 217.5 188 218.4 189.9 218.7 191.7 218.9 199.1 219.6 206.7 218.8 214 217.3 M 151.9 180.8 C 151.1 187.2 159.6 189.8 163.8 192.5 166.7 194.4 169.1 196.8 171.7 199.1 174.3 201.3 177 203.4 179.5 205.7 M 166.3 204.8 C 165.8 203 164.2 201.9 162.7 201 161.1 200 159.4 199 158.2 197.6 M 161.2 202.7 C 162.5 204.8 164.8 205.8 166.2 207.8 M 171.1 210.4 C 169 209.8 166.6 209.3 166.1 206.8 165.6 204.1 167.1 201.7 164.9 199.4 162 196.3 156.7 196.1 154.6 192.1 M 168 215.9 C 168.1 216.5 168.3 217 168.8 217.2 M 167.6 216.2 C 167.9 216.8 168.2 217.3 168.5 217.9 M 167 209.9 C 166.9 209.5 166.8 209.1 166.7 208.7 M 195 288.5 C 197.1 291.6 199.3 294.7 201.4 297.9 203.3 300.7 205.5 303.3 208.2 305.4 213.4 309.3 219.7 310.9 225.6 313.4 228.7 314.7 231.6 316.4 234.2 318.6 236.9 321 239.6 323.4 242.7 325.3 248.6 329 255.3 330.9 261.8 332.8 270.6 335.4 279.4 338 288.2 340.2 297 342.4 305.9 344 314.8 345.4 323.8 346.8 332.9 347.8 342.1 348.2 350.7 348.6 359.7 348.6 368.1 346.4 376 344.3 383 339.8 390.8 337.2 399.3 334.4 408 332.5 416.8 330.6 434.6 326.7 452.5 323.4 470.1 318.7 478.5 316.5 486.8 313.5 494.8 310 498.8 308.3 502.8 306.4 506.9 305.1 511.1 303.7 515.4 303 519.8 302.7 529 302.1 538.3 303.1 547.5 302.5 551.7 302.2 555.9 302 559.9 303.4 563.9 304.9 567.8 306.5 572 306.9 M 248.8 474.8 C 249.5 476.1 250.5 477.6 252.1 477.7 254.1 477.8 255.9 477 257.8 476.4 M 236.5 390.1 C 248.5 399.8 264.4 402.6 279.5 401.9 288.3 401.5 297.2 400.3 305.8 398.2 314.3 396.2 322.4 392.9 330.2 389 337.9 385.2 345.5 381.4 353.6 378.5 362.1 375.5 371 373.2 379.6 370.7 396.4 365.8 413 360.1 428.7 352.4 M 230.6 391 C 231.5 396 235.5 399.6 239.5 402.4 244 405.6 248.8 408.5 253.9 410.7 264.2 415.1 275.3 416 286.4 415.5 302.3 414.8 318.5 411.6 332 403 339.4 398.3 346 392.6 353.4 387.8 360.6 383.1 368.5 379.8 376.3 376.3 M 230.5 387.6 C 231.2 390.5 233.7 392.6 235.9 394.4 238.7 396.6 241.6 398.5 244.7 400.3 250.6 403.8 257.1 406.4 263.8 407.7 278 410.4 293 408.6 307 405.4 315.3 403.5 323.2 400.4 330.5 396.2 337.9 392 344.9 387.1 352.7 383.4 360.6 379.7 368.9 377.1 377.1 374.3 385.5 371.4 393.8 368.1 401.9 364.5 M 238.6 390.4 C 247.2 391.4 255.5 394.4 264.2 395.1 273.2 395.8 282.3 394.8 291.2 393.5 299.9 392.2 308.5 390 316.8 387.1 325.3 384.1 333.7 380.5 342.2 377.5 359.1 371.6 376.7 368.4 393.9 363.5 410.8 358.6 427.5 352.8 443.4 345.1 444 344.8 444.7 344.5 445.3 344.2 M 214.9 372.2 C 217.2 374.9 220.4 376.7 223.3 378.5 226.5 380.5 229.7 382.7 233.3 384.1 237.1 385.5 241 385.4 244.8 384.4 248.7 383.4 252.6 382.7 256.6 382.8 274.8 383 292.3 378.9 309.7 374.3 318.5 372 327.5 370.8 336.5 369.2 345.5 367.6 354.4 365.9 363.4 364 381.2 360.3 398.9 356.4 416.4 351.4 433 346.6 449.6 341.3 464.9 333 M 211.5 358 C 211.5 358.8 211.9 359.5 212.4 360.1 213.6 361.5 215.5 362.5 217.2 363.3 218.8 364 220.5 364.2 222 364.9 223.8 365.7 224.4 367.7 225.9 368.9 227.4 370.1 229.3 371.1 231.1 371.8 235.1 373.3 239.5 372.8 243.5 371.4 245.4 370.7 247.3 369.7 249.3 370.2 251.4 370.7 253.5 370.9 255.6 370.9 260.1 370.9 264.6 370.2 269.1 369.5 273.6 368.9 278.1 368.3 282.6 367.6 291.5 366.4 300.5 365.5 309.2 363.3 M 214.9 351.1 C 213.3 352.9 216.6 354.2 217.9 354.6 220.9 355.5 224.1 354.8 227.2 354.5 228.7 354.4 235.4 353.9 233.5 357.1 M 223 380.9 C 225.8 383.7 229.3 385.8 233.1 387.1 237.3 388.5 241.5 388.4 245.9 388.2 250.4 388 255 388.4 259.5 388.6 264 388.8 268.5 388.8 273 388.5 282 387.9 290.9 386.4 299.7 384.4 308.5 382.3 317 379.6 325.6 377 343.1 371.9 361 368.3 378.7 364 396.2 359.8 413.6 355.2 430.6 349.2 440.5 345.7 450.3 341.8 459.4 336.6 M 360.7 353.6 C 393 348.2 425.3 343 457.1 335.1 M 218.4 346.3 C 219 346.9 219.7 347.3 220.5 347.6 221 347.8 221.8 347.8 222 348.4 M 211.3 364.3 C 211.5 366 212.9 367.1 214.2 368 216 369.2 217.9 370.3 219.8 371.5 223.4 373.8 226.9 376.3 230.7 378.1 234.5 379.9 238.7 380.1 242.7 378.9 244.6 378.3 246.5 377.5 248.5 377.1 250.7 376.6 252.9 376.7 255.2 376.7 264.3 377 273.4 375.3 282.4 373.6 291.3 371.9 300 369.5 308.8 367.4 317.6 365.3 326.6 365.7 335.6 364.8 344.7 364 353.8 362.2 362.8 360.5 380.7 357.2 398.6 353.6 416.2 348.9 431 345 445.7 340.8 459.6 334.3 M 253.5 472.8 C 256.6 475.4 260 477.5 263.6 479.5 M 167.6 213.7 C 167.1 212 165.4 210.8 164.5 209.3 M 181.4 218.7 C 182.5 220.1 183.6 221.5 185 222.6 186.3 223.5 187.8 224.3 189.1 225.3 M 167 209.1 C 168.1 210.2 169.4 210.7 170.9 211.2 M 275.9 502.8 C 276.7 503.3 277.5 503.8 278.4 504.3 M 316.2 518.3 C 317.3 518.4 318.4 518.6 319.5 518.7 M 329.2 518.9 C 330.2 518.8 331.2 518.7 332.2 518.5 M 236.2 390 C 236.6 390.1 237.1 390.2 237.5 390.3 M 189 280.1 L 189.2 280.2 M 301.9 68.4 C 299.3 70 296.2 71.5 295.1 74.6 293.9 78 296.1 81 298.6 83.1 304.8 88.2 312.5 91.2 320 93.6 336.9 98.9 354.6 101.8 372.2 103.2 390.4 104.6 408.8 104.2 427 101.8 435.8 100.7 444.6 99.2 453 96.5 458.7 94.6 470.8 91 467.6 82.6 465.8 78 461.6 75 457.4 72.7 452.4 69.8 447 67.9 441.5 66.1 M 339.9 56.9 C 335.4 57.7 331 58.6 326.6 59.7 322.7 60.8 318.7 61.9 315.3 64 313.8 64.9 312.4 66.2 311.7 67.9 310.9 69.8 311.7 71.6 312.9 73.1 315.3 76 318.7 77.9 322.1 79.4 337.8 86.3 354.9 88.9 371.9 90.5 389.5 92.2 407.3 91.9 424.8 88.8 429.1 88 433.4 87.2 437.5 85.8 439.5 85.1 441.4 84.3 443.3 83.3 444.9 82.5 446.7 81.7 447.7 80.1 448.3 79 449 77.5 448.9 76.2 448.8 74.7 447.8 73.3 446.8 72.1 444.5 69.5 441.5 67.6 438.3 66.2 432.2 63.4 425.6 61.7 419.1 60.1 M 289.3 75.8 C 286.9 77.6 284 79.6 283.3 82.7 282.6 86.2 285.2 89.2 287.7 91.4 293.5 96.6 301 99.6 308.2 102.1 324.8 107.9 342 111.1 359.4 113 377.6 115 396 115.5 414.3 114.2 423.4 113.5 432.6 112.4 441.6 110.9 450.4 109.4 459.2 107.6 467.6 104.7 473.1 102.8 483.6 99.5 481.8 91.8 480 83.8 471.8 79.3 465.2 75.5 M 278.1 84.7 C 275.6 87.2 273.6 90.6 275.2 94.1 276.8 97.4 279.9 99.9 282.8 102 289.6 106.8 297.4 110 305.3 112.6 322.3 118 340 121.3 357.7 123.2 376 125.2 394.4 125.6 412.7 124.4 430.7 123.3 448.6 120.9 466.1 116.5 471.2 115.2 476.3 113.9 481.1 112 484.8 110.6 489 108.8 491.4 105.5 494.2 101.6 492.5 96.9 489.9 93.3 486.9 89.1 482.8 86.1 478.7 83.1 M 375.5 74.9 C 385.7 75.2 396.2 75.8 406.1 73.1 408.3 72.5 410.6 72 412.5 70.7 413.7 69.8 415.5 68.2 414.6 66.5 413.7 64.9 411.6 63.9 410.1 63 408.2 61.9 406 61.1 403.9 60.5 395.5 58 386.8 56.9 378.1 56.5 369.3 56.1 360 56.2 351.5 58.4 349.5 58.9 347.4 59.6 345.5 60.4 344 61 343.3 62 342.8 63.5 341.9 65.8 344.2 66.4 345.8 67.4 347.5 68.4 349.1 69.3 350.9 69.9 358.7 72.7 367.1 74.1 375.5 74.9 M 189.6 142.2 L 191.2 142.7 M 572.6 337.5 C 563.7 338.2 554.7 338.2 545.8 337.6 537.3 337 528.7 336.4 520.5 334.1 516.2 332.9 512.1 331.3 508.1 329.5 504.5 327.9 500.9 326.2 497 326 492.7 325.8 488.5 326.9 484.3 327.9 480.1 328.9 475.8 330 471.6 331 453.8 335.3 435.9 339 417.9 342.1 399.9 345.2 381.8 348 364 352 M 342.5 360.5 C 344 360.3 345.4 360.2 346.9 360 356 358.9 365.1 357.2 374.1 355.5 383.1 353.8 392.1 352.1 401 350.2 418.6 346.5 436.1 342.4 453 336.2 M 354.7 356.3 C 371 353.8 387.3 350.8 403.6 347.7 419.6 344.6 435.5 341.4 451.1 336.6 M 312.1 517.6 C 312.9 517.8 313.7 517.9 314.6 518.1 M 309 516.9 L 308.4 516.8 M 557.4 222.9 C 557.4 223.2 557.4 223.5 557.4 223.8 M 523 125.5 C 522.3 124.5 521.5 123.6 520.8 122.6 M 246.8 255 L 246.4 255.2 M 350.2 397.4 L 350.3 397.2 M 613.6 384.7 C 613.5 385.2 613.4 385.6 613.4 386.1 M 613.9 384 C 614 383.4 614.2 382.7 614.3 382.1 M 916.9 559 C 915 558.7 913.2 558.4 911.3 558.1 M 720.4 551.3 L 695.1 565.6 M 192.3 143.3 L 245 131.2 M 203.9 152.9 L 235.8 145.4 M 1290 606.6 L 1158.7 730 M 1032 730 L 1290 511.8 M 905.7 730 L 1048.6 620.2 M 975.4 592.1 L 779.8 730 M 654.2 730 L 916.9 559 M 613.8 678.7 L 529 730 M 548.3 648.5 L 404.2 730 M 279.7 730 L 505.2 610.5 M 596.4 422.1 L -10 693.4 M 296 512.6 L -10 642.9 M -10 597.1 L 258.1 488.3 M 241.9 457.9 L -10 555.6 M -10 517.7 L 235.3 426.6 M -10 483 L 231.3 397 M -10 451 L 216.1 373.6 M -10 421.6 L 218.4 346.3 M -10 394.3 L 210 324.4 M -10 369 L 202.2 303.9 M 192.3 285.5 L -10 345.5 M -10 323.5 L 173.1 271 M 165.3 254.2 L -10 303 M -10 283.7 L 162.2 237.3 M -10 265.6 L 167.9 219 M -10 248.6 L 162.3 204.8 M 154.4 191.9 L -10 232.6 M -10 217.4 L 152.6 178.2 M -10 203.1 L 157.4 163.8 M 164.4 149.6 L -10 189.6 M 252.9 118 L -10 176.7 M -10 164.5 L 260.9 105.5 M -10 152.9 L 269.8 93.3 M 282.4 80.9 L -10 141.8 M -10 131.2 L 304.2 67.2 M 648.5 -10 L -10 121.2 M 613.3 -10 L -10 111.6 M 578.2 -10 L -10 102.4 M 543.2 -10 L -10 93.6 M -10 85.1 L 508.2 -10 M 473.4 -10 L -10 77 M 438.6 -10 L -10 69.3 M 404 -10 L -10 61.8 M -10 54.6 L 369.4 -10 M -10 47.7 L 335 -10 M -10 41.1 L 300.6 -10 M -10 34.7 L 266.4 -10 M -10 28.5 L 232.2 -10 M -10 22.5 L 198.1 -10 M 158.9 -10 L -10 15.9 M 119.9 -10 L -10 9.6 M 80.8 -10 L -10 3.4 M 41.8 -10 L -10 -2.5 M 874.8 212.6 L 1290 51.6 M 909.5 224.1 L 1290 69.7 M 941.4 238 L 1290 89.6 M 1290 111.7 L 970.4 254.7 M 1290 136.2 L 996.3 274.8 M 1018.2 299.3 L 1290 163.6 M 1290 194.5 L 1036.7 328.8 M 1290 229.6 L 1052.2 363.9 M 1290 269.7 L 1062.3 407.4 M 1290 316.1 L 1049.3 472.8 M 1290 370.3 L 1133.9 480.3 M 1290 434.5 L 1188.8 512.3 M 531.6 137.6 L 1078.9 -10 M 1115.5 -10 L 539.1 150.3 M 545.8 164 L 1152.1 -10 M 551.3 179 L 1188.8 -10 M 555.3 195.6 L 1220.8 -8.5 M 1246.5 -4.9 L 727.3 160.1 M 1272.8 -1.1 L 736.4 175.6 M 738.2 194.9 L 1290 6 M 771.8 204.5 L 1290 19.9 M 855.3 196.4 L 1290 35.1 M 365.2 54.9 L 683.9 -10 M 719.3 -10 L 398.2 56.8 M 422.1 60.8 L 754.8 -10 M 441.6 66 L 790.4 -10 M 457.9 72.2 L 826.1 -10 M 861.9 -10 L 472 79.2 M 897.8 -10 L 484.4 87 M 933.9 -10 L 495.4 95.7 M 505.5 105 L 970 -10 M 514.8 115.1 L 1006.2 -10 M 523.4 125.9 L 1042.5 -10 M 155.5 730 L 501.8 557.1 M 31.7 730 L 544.5 488 M 658.5 651.7 L 794.5 569.4 M 502.5 327.4 L 398.7 366 M 345.5 417.8 L 548.6 339 M 349.7 451.2 L 584.1 356.1 M 354.6 487.7 L 601.9 382.4 M 613.1 196.4 L 557.2 214.2"/>
    </g>
  </g>
</svg>