<svg xmlns="http://www.w3.org/2000/svg" viewBox="0 0 800 300"><rect x="0" y="0" width="800" height="300" ry="6" style="fill:rgb(30,30,30);stroke:none;fill-opacity:1;stroke-opacity:1;" /><path d="M 30 20 L 30 270" style="stroke:rgb(200,200,200);stroke-width:1" /><path d="M 30 270 L 780 270" style="stroke:rgb(200,200,200);stroke-width:1" /><path d="M 780 270 L 780 272" style="stroke:rgb(200,200,200);stroke-width:1" /><text x="780" y="282" style="font-size:10px;fill:rgb(200,200,200);text-anchor:middle;text-align:center;"> 0.01 </text><path d="M 630.77246 270 L 630.77246 272" style="stroke:rgb(200,200,200);stroke-width:1" /><text x="630.77246" y="282" style="font-size:10px;fill:rgb(200,200,200);text-anchor:middle;text-align:center;"> 0.025 </text><path d="M 517.8862 270 L 517.8862 272" style="stroke:rgb(200,200,200);stroke-width:1" /><text x="517.8862" y="282" style="font-size:10px;fill:rgb(200,200,200);text-anchor:middle;text-align:center;"> 0.05 </text><path d="M 451.85202 270 L 451.85202 272" style="stroke:rgb(200,200,200);stroke-width:1" /><text x="451.85202" y="282" style="font-size:10px;fill:rgb(200,200,200);text-anchor:middle;text-align:center;"> 0.075 </text><path d="M 405 270 L 405 272" style="stroke:rgb(200,200,200);stroke-width:1" /><text x="405" y="282" style="font-size:10px;fill:rgb(200,200,200);text-anchor:middle;text-align:center;"> 0.1 </text><path d="M 338.96576 270 L 338.96576 272" style="stroke:rgb(200,200,200);stroke-width:1" /><text x="338.96576" y="282" style="font-size:10px;fill:rgb(200,200,200);text-anchor:middle;text-align:center;"> 0.15 </text><path d="M 292.11377 270 L 292.11377 272" style="stroke:rgb(200,200,200);stroke-width:1" /><text x="292.11377" y="282" style="font-size:10px;fill:rgb(200,200,200);text-anchor:middle;text-align:center;"> 0.2 </text><path d="M 255.7725 270 L 255.7725 272" style="stroke:rgb(200,200,200);stroke-width:1" /><text x="255.7725" y="282" style="font-size:10px;fill:rgb(200,200,200);text-anchor:middle;text-align:center;"> 0.25 </text><path d="M 142.88626 270 L 142.88626 272" style="stroke:rgb(200,200,200);stroke-width:1" /><text x="142.88626" y="282" style="font-size:10px;fill:rgb(200,200,200);text-anchor:middle;text-align:center;"> 0.5 </text><path d="M 30 270 L 30 272" style="stroke:rgb(200,200,200);stroke-width:1" /><text x="30" y="282" style="font-size:10px;fill:rgb(200,200,200);text-anchor:middle;text-align:center;"> 1 </text><path d="M 28 270 L 30 270" style="stroke:rgb(200,200,200);stroke-width:1" /><text x="26" y="274" style="font-size:10px;fill:rgb(200,200,200);text-anchor:end;text-align:right;"> 0 </text><path d="M 28 207.5 L 30 207.5" style="stroke:rgb(200,200,200);stroke-width:1" /><text x="26" y="211.5" style="font-size:10px;fill:rgb(200,200,200);text-anchor:end;text-align:right;"> 0.25 </text><path d="M 28 145 L 30 145" style="stroke:rgb(200,200,200);stroke-width:1" /><text x="26" y="149" style="font-size:10px;fill:rgb(200,200,200);text-anchor:end;text-align:right;"> 0.5 </text><path d="M 28 82.5 L 30 82.5" style="stroke:rgb(200,200,200);stroke-width:1" /><text x="26" y="86.5" style="font-size:10px;fill:rgb(200,200,200);text-anchor:end;text-align:right;"> 0.75 </text><path d="M 28 20 L 30 20" style="stroke:rgb(200,200,200);stroke-width:1" /><text x="26" y="24" style="font-size:10px;fill:rgb(200,200,200);text-anchor:end;text-align:right;"> 1 </text><text x="400" y="294" style="font-size:10px;fill:rgb(200,200,200);text-anchor:middle;text-align:center;"> Tolerance </text><circle cx="780" cy="20" r="2" style="fill:rgb(128,214,87);stroke:none;fill-opacity:1;stroke-opacity:1;" /><path d="M 780 20 L 630.77246 117.58501" style="stroke:rgb(128,214,87);stroke-width:1" /><circle cx="630.77246" cy="117.58501" r="2" style="fill:rgb(128,214,87);stroke:none;fill-opacity:1;stroke-opacity:1;" /><path d="M 630.77246 117.58501 L 517.8862 172.185" style="stroke:rgb(128,214,87);stroke-width:1" /><circle cx="517.8862" cy="172.185" r="2" style="fill:rgb(128,214,87);stroke:none;fill-opacity:1;stroke-opacity:1;" /><path d="M 517.8862 172.185 L 451.85202 196.7375" style="stroke:rgb(128,214,87);stroke-width:1" /><circle cx="451.85202" cy="196.7375" r="2" style="fill:rgb(128,214,87);stroke:none;fill-opacity:1;stroke-opacity:1;" /><path d="M 451.85202 196.7375 L 405 210.0875" style="stroke:rgb(128,214,87);stroke-width:1" /><circle cx="405" cy="210.0875" r="2" style="fill:rgb(128,214,87);stroke:none;fill-opacity:1;stroke-opacity:1;" /><path d="M 405 210.0875 L 338.96576 226.425" style="stroke:rgb(128,214,87);stroke-width:1" /><circle cx="338.96576" cy="226.425" r="2" style="fill:rgb(128,214,87);stroke:none;fill-opacity:1;stroke-opacity:1;" /><path d="M 338.96576 226.425 L 292.11377 235.2475" style="stroke:rgb(128,214,87);stroke-width:1" /><circle cx="292.11377" cy="235.2475" r="2" style="fill:rgb(128,214,87);stroke:none;fill-opacity:1;stroke-opacity:1;" /><path d="M 292.11377 235.2475 L 255.7725 240.7525" style="stroke:rgb(128,214,87);stroke-width:1" /><circle cx="255.7725" cy="240.7525" r="2" style="fill:rgb(128,214,87);stroke:none;fill-opacity:1;stroke-opacity:1;" /><path d="M 255.7725 240.7525 L 142.88626 251.99" style="stroke:rgb(128,214,87);stroke-width:1" /><circle cx="142.88626" cy="251.99" r="2" style="fill:rgb(128,214,87);stroke:none;fill-opacity:1;stroke-opacity:1;" /><path d="M 142.88626 251.99 L 30 258.7525" style="stroke:rgb(128,214,87);stroke-width:1" /><circle cx="30" cy="258.7525" r="2" style="fill:rgb(128,214,87);stroke:none;fill-opacity:1;stroke-opacity:1;" /><circle cx="780" cy="202.155" r="2" style="fill:rgb(126,176,213);stroke:none;fill-opacity:1;stroke-opacity:1;" /><path d="M 780 202.155 L 630.77246 214.0275" style="stroke:rgb(126,176,213);stroke-width:1" /><circle cx="630.77246" cy="214.0275" r="2" style="fill:rgb(126,176,213);stroke:none;fill-opacity:1;stroke-opacity:1;" /><path d="M 630.77246 214.0275 L 517.8862 220.4225" style="stroke:rgb(126,176,213);stroke-width:1" /><circle cx="517.8862" cy="220.4225" r="2" style="fill:rgb(126,176,213);stroke:none;fill-opacity:1;stroke-opacity:1;" /><path d="M 517.8862 220.4225 L 451.85202 223.67" style="stroke:rgb(126,176,213);stroke-width:1" /><circle cx="451.85202" cy="223.67" r="2" style="fill:rgb(126,176,213);stroke:none;fill-opacity:1;stroke-opacity:1;" /><path d="M 451.85202 223.67 L 405 225.27" style="stroke:rgb(126,176,213);stroke-width:1" /><circle cx="405" cy="225.27" r="2" style="fill:rgb(126,176,213);stroke:none;fill-opacity:1;stroke-opacity:1;" /><path d="M 405 225.27 L 338.96576 228.475" style="stroke:rgb(126,176,213);stroke-width:1" /><circle cx="338.96576" cy="228.475" r="2" style="fill:rgb(126,176,213);stroke:none;fill-opacity:1;stroke-opacity:1;" /><path d="M 338.96576 228.475 L 292.11377 230.4225" style="stroke:rgb(126,176,213);stroke-width:1" /><circle cx="292.11377" cy="230.4225" r="2" style="fill:rgb(126,176,213);stroke:none;fill-opacity:1;stroke-opacity:1;" /><path d="M 292.11377 230.4225 L 255.7725 231.33499" style="stroke:rgb(126,176,213);stroke-width:1" /><circle cx="255.7725" cy="231.33499" r="2" style="fill:rgb(126,176,213);stroke:none;fill-opacity:1;stroke-opacity:1;" /><path d="M 255.7725 231.33499 L 142.88626 234.42" style="stroke:rgb(126,176,213);stroke-width:1" /><circle cx="142.88626" cy="234.42" r="2" style="fill:rgb(126,176,213);stroke:none;fill-opacity:1;stroke-opacity:1;" /><path d="M 142.88626 234.42 L 30 239.0175" style="stroke:rgb(126,176,213);stroke-width:1" /><circle cx="30" cy="239.0175" r="2" style="fill:rgb(126,176,213);stroke:none;fill-opacity:1;stroke-opacity:1;" /><circle cx="780" cy="99.0625" r="2" style="fill:rgb(50,125,209);stroke:none;fill-opacity:1;stroke-opacity:1;" /><path d="M 780 99.0625 L 630.77246 139.6225" style="stroke:rgb(50,125,209);stroke-width:1" /><circle cx="630.77246" cy="139.6225" r="2" style="fill:rgb(50,125,209);stroke:none;fill-opacity:1;stroke-opacity:1;" /><path d="M 630.77246 139.6225 L 517.8862 161.1825" style="stroke:rgb(50,125,209);stroke-width:1" /><circle cx="517.8862" cy="161.1825" r="2" style="fill:rgb(50,125,209);stroke:none;fill-opacity:1;stroke-opacity:1;" /><path d="M 517.8862 161.1825 L 451.85202 171.31" style="stroke:rgb(50,125,209);stroke-width:1" /><circle cx="451.85202" cy="171.31" r="2" style="fill:rgb(50,125,209);stroke:none;fill-opacity:1;stroke-opacity:1;" /><path d="M 451.85202 171.31 L 405 176.455" style="stroke:rgb(50,125,209);stroke-width:1" /><circle cx="405" cy="176.455" r="2" style="fill:rgb(50,125,209);stroke:none;fill-opacity:1;stroke-opacity:1;" /><path d="M 405 176.455 L 338.96576 185.79251" style="stroke:rgb(50,125,209);stroke-width:1" /><circle cx="338.96576" cy="185.79251" r="2" style="fill:rgb(50,125,209);stroke:none;fill-opacity:1;stroke-opacity:1;" /><path d="M 338.96576 185.79251 L 292.11377 191.54251" style="stroke:rgb(50,125,209);stroke-width:1" /><circle cx="292.11377" cy="191.54251" r="2" style="fill:rgb(50,125,209);stroke:none;fill-opacity:1;stroke-opacity:1;" /><path d="M 292.11377 191.54251 L 255.7725 195.8825" style="stroke:rgb(50,125,209);stroke-width:1" /><circle cx="255.7725" cy="195.8825" r="2" style="fill:rgb(50,125,209);stroke:none;fill-opacity:1;stroke-opacity:1;" /><path d="M 255.7725 195.8825 L 142.88626 205.63" style="stroke:rgb(50,125,209);stroke-width:1" /><circle cx="142.88626" cy="205.63" r="2" style="fill:rgb(50,125,209);stroke:none;fill-opacity:1;stroke-opacity:1;" /><path d="M 142.88626 205.63 L 30 215.9725" style="stroke:rgb(50,125,209);stroke-width:1" /><circle cx="30" cy="215.9725" r="2" style="fill:rgb(50,125,209);stroke:none;fill-opacity:1;stroke-opacity:1;" /><circle cx="780" cy="22.809998" r="2" style="fill:rgb(255,238,101);stroke:none;fill-opacity:1;stroke-opacity:1;" /><path d="M 780 22.809998 L 630.77246 113.134995" style="stroke:rgb(255,238,101);stroke-width:1" /><circle cx="630.77246" cy="113.134995" r="2" style="fill:rgb(255,238,101);stroke:none;fill-opacity:1;stroke-opacity:1;" /><path d="M 630.77246 113.134995 L 517.8862 160.4925" style="stroke:rgb(255,238,101);stroke-width:1" /><circle cx="517.8862" cy="160.4925" r="2" style="fill:rgb(255,238,101);stroke:none;fill-opacity:1;stroke-opacity:1;" /><path d="M 517.8862 160.4925 L 451.85202 183.6825" style="stroke:rgb(255,238,101);stroke-width:1" /><circle cx="451.85202" cy="183.6825" r="2" style="fill:rgb(255,238,101);stroke:none;fill-opacity:1;stroke-opacity:1;" /><path d="M 451.85202 183.6825 L 405 195.275" style="stroke:rgb(255,238,101);stroke-width:1" /><circle cx="405" cy="195.275" r="2" style="fill:rgb(255,238,101);stroke:none;fill-opacity:1;stroke-opacity:1;" /><path d="M 405 195.275 L 338.96576 211.145" style="stroke:rgb(255,238,101);stroke-width:1" /><circle cx="338.96576" cy="211.145" r="2" style="fill:rgb(255,238,101);stroke:none;fill-opacity:1;stroke-opacity:1;" /><path d="M 338.96576 211.145 L 292.11377 221.2425" style="stroke:rgb(255,238,101);stroke-width:1" /><circle cx="292.11377" cy="221.2425" r="2" style="fill:rgb(255,238,101);stroke:none;fill-opacity:1;stroke-opacity:1;" /><path d="M 292.11377 221.2425 L 255.7725 228.5425" style="stroke:rgb(255,238,101);stroke-width:1" /><circle cx="255.7725" cy="228.5425" r="2" style="fill:rgb(255,238,101);stroke:none;fill-opacity:1;stroke-opacity:1;" /><path d="M 255.7725 228.5425 L 142.88626 242.65" style="stroke:rgb(255,238,101);stroke-width:1" /><circle cx="142.88626" cy="242.65" r="2" style="fill:rgb(255,238,101);stroke:none;fill-opacity:1;stroke-opacity:1;" /><path d="M 142.88626 242.65 L 30 253.5975" style="stroke:rgb(255,238,101);stroke-width:1" /><circle cx="30" cy="253.5975" r="2" style="fill:rgb(255,238,101);stroke:none;fill-opacity:1;stroke-opacity:1;" /><circle cx="780" cy="220.17" r="2" style="fill:rgb(253,204,229);stroke:none;fill-opacity:1;stroke-opacity:1;" /><path d="M 780 220.17 L 630.77246 229.825" style="stroke:rgb(253,204,229);stroke-width:1" /><circle cx="630.77246" cy="229.825" r="2" style="fill:rgb(253,204,229);stroke:none;fill-opacity:1;stroke-opacity:1;" /><path d="M 630.77246 229.825 L 517.8862 235.395" style="stroke:rgb(253,204,229);stroke-width:1" /><circle cx="517.8862" cy="235.395" r="2" style="fill:rgb(253,204,229);stroke:none;fill-opacity:1;stroke-opacity:1;" /><path d="M 517.8862 235.395 L 451.85202 239.105" style="stroke:rgb(253,204,229);stroke-width:1" /><circle cx="451.85202" cy="239.105" r="2" style="fill:rgb(253,204,229);stroke:none;fill-opacity:1;stroke-opacity:1;" /><path d="M 451.85202 239.105 L 405 241.3175" style="stroke:rgb(253,204,229);stroke-width:1" /><circle cx="405" cy="241.3175" r="2" style="fill:rgb(253,204,229);stroke:none;fill-opacity:1;stroke-opacity:1;" /><path d="M 405 241.3175 L 338.96576 244.14749" style="stroke:rgb(253,204,229);stroke-width:1" /><circle cx="338.96576" cy="244.14749" r="2" style="fill:rgb(253,204,229);stroke:none;fill-opacity:1;stroke-opacity:1;" /><path d="M 338.96576 244.14749 L 292.11377 246.6375" style="stroke:rgb(253,204,229);stroke-width:1" /><circle cx="292.11377" cy="246.6375" r="2" style="fill:rgb(253,204,229);stroke:none;fill-opacity:1;stroke-opacity:1;" /><path d="M 292.11377 246.6375 L 255.7725 248.16501" style="stroke:rgb(253,204,229);stroke-width:1" /><circle cx="255.7725" cy="248.16501" r="2" style="fill:rgb(253,204,229);stroke:none;fill-opacity:1;stroke-opacity:1;" /><path d="M 255.7725 248.16501 L 142.88626 252.395" style="stroke:rgb(253,204,229);stroke-width:1" /><circle cx="142.88626" cy="252.395" r="2" style="fill:rgb(253,204,229);stroke:none;fill-opacity:1;stroke-opacity:1;" /><path d="M 142.88626 252.395 L 30 255.0925" style="stroke:rgb(253,204,229);stroke-width:1" /><circle cx="30" cy="255.0925" r="2" style="fill:rgb(253,204,229);stroke:none;fill-opacity:1;stroke-opacity:1;" /><circle cx="780" cy="221.905" r="2" style="fill:rgb(253,127,111);stroke:none;fill-opacity:1;stroke-opacity:1;" /><path d="M 780 221.905 L 630.77246 230.1825" style="stroke:rgb(253,127,111);stroke-width:1" /><circle cx="630.77246" cy="230.1825" r="2" style="fill:rgb(253,127,111);stroke:none;fill-opacity:1;stroke-opacity:1;" /><path d="M 630.77246 230.1825 L 517.8862 236.55" style="stroke:rgb(253,127,111);stroke-width:1" /><circle cx="517.8862" cy="236.55" r="2" style="fill:rgb(253,127,111);stroke:none;fill-opacity:1;stroke-opacity:1;" /><path d="M 517.8862 236.55 L 451.85202 241.26" style="stroke:rgb(253,127,111);stroke-width:1" /><circle cx="451.85202" cy="241.26" r="2" style="fill:rgb(253,127,111);stroke:none;fill-opacity:1;stroke-opacity:1;" /><path d="M 451.85202 241.26 L 405 243.89" style="stroke:rgb(253,127,111);stroke-width:1" /><circle cx="405" cy="243.89" r="2" style="fill:rgb(253,127,111);stroke:none;fill-opacity:1;stroke-opacity:1;" /><path d="M 405 243.89 L 338.96576 247.4075" style="stroke:rgb(253,127,111);stroke-width:1" /><circle cx="338.96576" cy="247.4075" r="2" style="fill:rgb(253,127,111);stroke:none;fill-opacity:1;stroke-opacity:1;" /><path d="M 338.96576 247.4075 L 292.11377 249.0075" style="stroke:rgb(253,127,111);stroke-width:1" /><circle cx="292.11377" cy="249.0075" r="2" style="fill:rgb(253,127,111);stroke:none;fill-opacity:1;stroke-opacity:1;" /><path d="M 292.11377 249.0075 L 255.7725 250.3025" style="stroke:rgb(253,127,111);stroke-width:1" /><circle cx="255.7725" cy="250.3025" r="2" style="fill:rgb(253,127,111);stroke:none;fill-opacity:1;stroke-opacity:1;" /><path d="M 255.7725 250.3025 L 142.88626 252.72" style="stroke:rgb(253,127,111);stroke-width:1" /><circle cx="142.88626" cy="252.72" r="2" style="fill:rgb(253,127,111);stroke:none;fill-opacity:1;stroke-opacity:1;" /><path d="M 142.88626 252.72 L 30 254.95" style="stroke:rgb(253,127,111);stroke-width:1" /><circle cx="30" cy="254.95" r="2" style="fill:rgb(253,127,111);stroke:none;fill-opacity:1;stroke-opacity:1;" /><rect x="676" y="16" width="80" height="133" ry="4" style="fill:rgb(30,30,30);stroke:none;fill-opacity:0.8;stroke-opacity:1;" /><rect x="680" y="20" width="20" height="20" ry="2" style="fill:rgb(253,127,111);stroke:none;fill-opacity:1;stroke-opacity:1;" /><text x="705" y="33" style="font-size:10px;fill:rgb(255,255,255);text-anchor:start;text-align:left;"> fwd-diff </text><rect x="680" y="41" width="20" height="20" ry="2" style="fill:rgb(50,125,209);stroke:none;fill-opacity:1;stroke-opacity:1;" /><text x="705" y="54" style="font-size:10px;fill:rgb(255,255,255);text-anchor:start;text-align:left;"> levien </text><rect x="680" y="62" width="20" height="20" ry="2" style="fill:rgb(126,176,213);stroke:none;fill-opacity:1;stroke-opacity:1;" /><text x="705" y="75" style="font-size:10px;fill:rgb(255,255,255);text-anchor:start;text-align:left;"> levien-simd </text><rect x="680" y="83" width="20" height="20" ry="2" style="fill:rgb(128,214,87);stroke:none;fill-opacity:1;stroke-opacity:1;" /><text x="705" y="96" style="font-size:10px;fill:rgb(255,255,255);text-anchor:start;text-align:left;"> linear </text><rect x="680" y="104" width="20" height="20" ry="2" style="fill:rgb(255,238,101);stroke:none;fill-opacity:1;stroke-opacity:1;" /><text x="705" y="117" style="font-size:10px;fill:rgb(255,255,255);text-anchor:start;text-align:left;"> recursive </text><rect x="680" y="125" width="20" height="20" ry="2" style="fill:rgb(253,204,229);stroke:none;fill-opacity:1;stroke-opacity:1;" /><text x="705" y="138" style="font-size:10px;fill:rgb(255,255,255);text-anchor:start;text-align:left;"> wang </text><text x="400" y="30" style="font-size:20px;fill:rgb(255,255,255);text-anchor:middle;text-align:center;"> tiger dataset: quadratic </text><text x="400" y="42" style="font-size:8px;fill:rgb(200,200,200);text-anchor:middle;text-align:center;"> Normalized performance score (lower is better) </text></svg>