<svg xmlns="http://www.w3.org/2000/svg" viewBox="0 0 800 300"><rect x="0" y="0" width="800" height="300" ry="6" style="fill:rgb(30,30,30);stroke:none;fill-opacity:1;stroke-opacity:1;" /><path d="M 30 20 L 30 270" style="stroke:rgb(200,200,200);stroke-width:1" /><path d="M 30 270 L 780 270" style="stroke:rgb(200,200,200);stroke-width:1" /><path d="M 780 270 L 780 272" style="stroke:rgb(200,200,200);stroke-width:1" /><text x="780" y="282" style="font-size:10px;fill:rgb(200,200,200);text-anchor:middle;text-align:center;"> 0.01 </text><path d="M 630.77246 270 L 630.77246 272" style="stroke:rgb(200,200,200);stroke-width:1" /><text x="630.77246" y="282" style="font-size:10px;fill:rgb(200,200,200);text-anchor:middle;text-align:center;"> 0.025 </text><path d="M 517.8862 270 L 517.8862 272" style="stroke:rgb(200,200,200);stroke-width:1" /><text x="517.8862" y="282" style="font-size:10px;fill:rgb(200,200,200);text-anchor:middle;text-align:center;"> 0.05 </text><path d="M 451.85202 270 L 451.85202 272" style="stroke:rgb(200,200,200);stroke-width:1" /><text x="451.85202" y="282" style="font-size:10px;fill:rgb(200,200,200);text-anchor:middle;text-align:center;"> 0.075 </text><path d="M 405 270 L 405 272" style="stroke:rgb(200,200,200);stroke-width:1" /><text x="405" y="282" style="font-size:10px;fill:rgb(200,200,200);text-anchor:middle;text-align:center;"> 0.1 </text><path d="M 338.96576 270 L 338.96576 272" style="stroke:rgb(200,200,200);stroke-width:1" /><text x="338.96576" y="282" style="font-size:10px;fill:rgb(200,200,200);text-anchor:middle;text-align:center;"> 0.15 </text><path d="M 292.11377 270 L 292.11377 272" style="stroke:rgb(200,200,200);stroke-width:1" /><text x="292.11377" y="282" style="font-size:10px;fill:rgb(200,200,200);text-anchor:middle;text-align:center;"> 0.2 </text><path d="M 255.7725 270 L 255.7725 272" style="stroke:rgb(200,200,200);stroke-width:1" /><text x="255.7725" y="282" style="font-size:10px;fill:rgb(200,200,200);text-anchor:middle;text-align:center;"> 0.25 </text><path d="M 142.88626 270 L 142.88626 272" style="stroke:rgb(200,200,200);stroke-width:1" /><text x="142.88626" y="282" style="font-size:10px;fill:rgb(200,200,200);text-anchor:middle;text-align:center;"> 0.5 </text><path d="M 30 270 L 30 272" style="stroke:rgb(200,200,200);stroke-width:1" /><text x="30" y="282" style="font-size:10px;fill:rgb(200,200,200);text-anchor:middle;text-align:center;"> 1 </text><path d="M 28 270 L 30 270" style="stroke:rgb(200,200,200);stroke-width:1" /><text x="26" y="274" style="font-size:10px;fill:rgb(200,200,200);text-anchor:end;text-align:right;"> 0 </text><path d="M 28 207.5 L 30 207.5" style="stroke:rgb(200,200,200);stroke-width:1" /><text x="26" y="211.5" style="font-size:10px;fill:rgb(200,200,200);text-anchor:end;text-align:right;"> 0.25 </text><path d="M 28 145 L 30 145" style="stroke:rgb(200,200,200);stroke-width:1" /><text x="26" y="149" style="font-size:10px;fill:rgb(200,200,200);text-anchor:end;text-align:right;"> 0.5 </text><path d="M 28 82.5 L 30 82.5" style="stroke:rgb(200,200,200);stroke-width:1" /><text x="26" y="86.5" style="font-size:10px;fill:rgb(200,200,200);text-anchor:end;text-align:right;"> 0.75 </text><path d="M 28 20 L 30 20" style="stroke:rgb(200,200,200);stroke-width:1" /><text x="26" y="24" style="font-size:10px;fill:rgb(200,200,200);text-anchor:end;text-align:right;"> 1 </text><text x="400" y="294" style="font-size:10px;fill:rgb(200,200,200);text-anchor:middle;text-align:center;"> Tolerance </text><circle cx="780" cy="133.1725" r="2" style="fill:rgb(128,214,87);stroke:none;fill-opacity:1;stroke-opacity:1;" /><path d="M 780 133.1725 L 630.77246 183.265" style="stroke:rgb(128,214,87);stroke-width:1" /><circle cx="630.77246" cy="183.265" r="2" style="fill:rgb(128,214,87);stroke:none;fill-opacity:1;stroke-opacity:1;" /><path d="M 630.77246 183.265 L 517.8862 210.27" style="stroke:rgb(128,214,87);stroke-width:1" /><circle cx="517.8862" cy="210.27" r="2" style="fill:rgb(128,214,87);stroke:none;fill-opacity:1;stroke-opacity:1;" /><path d="M 517.8862 210.27 L 451.85202 223.115" style="stroke:rgb(128,214,87);stroke-width:1" /><circle cx="451.85202" cy="223.115" r="2" style="fill:rgb(128,214,87);stroke:none;fill-opacity:1;stroke-opacity:1;" /><path d="M 451.85202 223.115 L 405 231.395" style="stroke:rgb(128,214,87);stroke-width:1" /><circle cx="405" cy="231.395" r="2" style="fill:rgb(128,214,87);stroke:none;fill-opacity:1;stroke-opacity:1;" /><path d="M 405 231.395 L 338.96576 241.2" style="stroke:rgb(128,214,87);stroke-width:1" /><circle cx="338.96576" cy="241.2" r="2" style="fill:rgb(128,214,87);stroke:none;fill-opacity:1;stroke-opacity:1;" /><path d="M 338.96576 241.2 L 292.11377 246.895" style="stroke:rgb(128,214,87);stroke-width:1" /><circle cx="292.11377" cy="246.895" r="2" style="fill:rgb(128,214,87);stroke:none;fill-opacity:1;stroke-opacity:1;" /><path d="M 292.11377 246.895 L 255.7725 250.47" style="stroke:rgb(128,214,87);stroke-width:1" /><circle cx="255.7725" cy="250.47" r="2" style="fill:rgb(128,214,87);stroke:none;fill-opacity:1;stroke-opacity:1;" /><path d="M 255.7725 250.47 L 142.88626 258.6725" style="stroke:rgb(128,214,87);stroke-width:1" /><circle cx="142.88626" cy="258.6725" r="2" style="fill:rgb(128,214,87);stroke:none;fill-opacity:1;stroke-opacity:1;" /><path d="M 142.88626 258.6725 L 30 261.4425" style="stroke:rgb(128,214,87);stroke-width:1" /><circle cx="30" cy="261.4425" r="2" style="fill:rgb(128,214,87);stroke:none;fill-opacity:1;stroke-opacity:1;" /><circle cx="780" cy="133.575" r="2" style="fill:rgb(126,176,213);stroke:none;fill-opacity:1;stroke-opacity:1;" /><path d="M 780 133.575 L 630.77246 150.10251" style="stroke:rgb(126,176,213);stroke-width:1" /><circle cx="630.77246" cy="150.10251" r="2" style="fill:rgb(126,176,213);stroke:none;fill-opacity:1;stroke-opacity:1;" /><path d="M 630.77246 150.10251 L 517.8862 159.5925" style="stroke:rgb(126,176,213);stroke-width:1" /><circle cx="517.8862" cy="159.5925" r="2" style="fill:rgb(126,176,213);stroke:none;fill-opacity:1;stroke-opacity:1;" /><path d="M 517.8862 159.5925 L 451.85202 164.1925" style="stroke:rgb(126,176,213);stroke-width:1" /><circle cx="451.85202" cy="164.1925" r="2" style="fill:rgb(126,176,213);stroke:none;fill-opacity:1;stroke-opacity:1;" /><path d="M 451.85202 164.1925 L 405 166.65" style="stroke:rgb(126,176,213);stroke-width:1" /><circle cx="405" cy="166.65" r="2" style="fill:rgb(126,176,213);stroke:none;fill-opacity:1;stroke-opacity:1;" /><path d="M 405 166.65 L 338.96576 172.07251" style="stroke:rgb(126,176,213);stroke-width:1" /><circle cx="338.96576" cy="172.07251" r="2" style="fill:rgb(126,176,213);stroke:none;fill-opacity:1;stroke-opacity:1;" /><path d="M 338.96576 172.07251 L 292.11377 175.3175" style="stroke:rgb(126,176,213);stroke-width:1" /><circle cx="292.11377" cy="175.3175" r="2" style="fill:rgb(126,176,213);stroke:none;fill-opacity:1;stroke-opacity:1;" /><path d="M 292.11377 175.3175 L 255.7725 177.57251" style="stroke:rgb(126,176,213);stroke-width:1" /><circle cx="255.7725" cy="177.57251" r="2" style="fill:rgb(126,176,213);stroke:none;fill-opacity:1;stroke-opacity:1;" /><path d="M 255.7725 177.57251 L 142.88626 184.455" style="stroke:rgb(126,176,213);stroke-width:1" /><circle cx="142.88626" cy="184.455" r="2" style="fill:rgb(126,176,213);stroke:none;fill-opacity:1;stroke-opacity:1;" /><path d="M 142.88626 184.455 L 30 188.58" style="stroke:rgb(126,176,213);stroke-width:1" /><circle cx="30" cy="188.58" r="2" style="fill:rgb(126,176,213);stroke:none;fill-opacity:1;stroke-opacity:1;" /><circle cx="780" cy="141.8" r="2" style="fill:rgb(119,211,179);stroke:none;fill-opacity:1;stroke-opacity:1;" /><path d="M 780 141.8 L 630.77246 172.6125" style="stroke:rgb(119,211,179);stroke-width:1" /><circle cx="630.77246" cy="172.6125" r="2" style="fill:rgb(119,211,179);stroke:none;fill-opacity:1;stroke-opacity:1;" /><path d="M 630.77246 172.6125 L 517.8862 197.505" style="stroke:rgb(119,211,179);stroke-width:1" /><circle cx="517.8862" cy="197.505" r="2" style="fill:rgb(119,211,179);stroke:none;fill-opacity:1;stroke-opacity:1;" /><path d="M 517.8862 197.505 L 451.85202 212.545" style="stroke:rgb(119,211,179);stroke-width:1" /><circle cx="451.85202" cy="212.545" r="2" style="fill:rgb(119,211,179);stroke:none;fill-opacity:1;stroke-opacity:1;" /><path d="M 451.85202 212.545 L 405 222.61" style="stroke:rgb(119,211,179);stroke-width:1" /><circle cx="405" cy="222.61" r="2" style="fill:rgb(119,211,179);stroke:none;fill-opacity:1;stroke-opacity:1;" /><path d="M 405 222.61 L 338.96576 235.145" style="stroke:rgb(119,211,179);stroke-width:1" /><circle cx="338.96576" cy="235.145" r="2" style="fill:rgb(119,211,179);stroke:none;fill-opacity:1;stroke-opacity:1;" /><path d="M 338.96576 235.145 L 292.11377 243.08499" style="stroke:rgb(119,211,179);stroke-width:1" /><circle cx="292.11377" cy="243.08499" r="2" style="fill:rgb(119,211,179);stroke:none;fill-opacity:1;stroke-opacity:1;" /><path d="M 292.11377 243.08499 L 255.7725 247.99" style="stroke:rgb(119,211,179);stroke-width:1" /><circle cx="255.7725" cy="247.99" r="2" style="fill:rgb(119,211,179);stroke:none;fill-opacity:1;stroke-opacity:1;" /><path d="M 255.7725 247.99 L 142.88626 257.9475" style="stroke:rgb(119,211,179);stroke-width:1" /><circle cx="142.88626" cy="257.9475" r="2" style="fill:rgb(119,211,179);stroke:none;fill-opacity:1;stroke-opacity:1;" /><path d="M 142.88626 257.9475 L 30 260.945" style="stroke:rgb(119,211,179);stroke-width:1" /><circle cx="30" cy="260.945" r="2" style="fill:rgb(119,211,179);stroke:none;fill-opacity:1;stroke-opacity:1;" /><circle cx="780" cy="161.8825" r="2" style="fill:rgb(255,238,101);stroke:none;fill-opacity:1;stroke-opacity:1;" /><path d="M 780 161.8825 L 630.77246 197.45749" style="stroke:rgb(255,238,101);stroke-width:1" /><circle cx="630.77246" cy="197.45749" r="2" style="fill:rgb(255,238,101);stroke:none;fill-opacity:1;stroke-opacity:1;" /><path d="M 630.77246 197.45749 L 517.8862 218.3475" style="stroke:rgb(255,238,101);stroke-width:1" /><circle cx="517.8862" cy="218.3475" r="2" style="fill:rgb(255,238,101);stroke:none;fill-opacity:1;stroke-opacity:1;" /><path d="M 517.8862 218.3475 L 451.85202 227.47" style="stroke:rgb(255,238,101);stroke-width:1" /><circle cx="451.85202" cy="227.47" r="2" style="fill:rgb(255,238,101);stroke:none;fill-opacity:1;stroke-opacity:1;" /><path d="M 451.85202 227.47 L 405 234.3775" style="stroke:rgb(255,238,101);stroke-width:1" /><circle cx="405" cy="234.3775" r="2" style="fill:rgb(255,238,101);stroke:none;fill-opacity:1;stroke-opacity:1;" /><path d="M 405 234.3775 L 338.96576 242.2325" style="stroke:rgb(255,238,101);stroke-width:1" /><circle cx="338.96576" cy="242.2325" r="2" style="fill:rgb(255,238,101);stroke:none;fill-opacity:1;stroke-opacity:1;" /><path d="M 338.96576 242.2325 L 292.11377 247.2975" style="stroke:rgb(255,238,101);stroke-width:1" /><circle cx="292.11377" cy="247.2975" r="2" style="fill:rgb(255,238,101);stroke:none;fill-opacity:1;stroke-opacity:1;" /><path d="M 292.11377 247.2975 L 255.7725 250.38" style="stroke:rgb(255,238,101);stroke-width:1" /><circle cx="255.7725" cy="250.38" r="2" style="fill:rgb(255,238,101);stroke:none;fill-opacity:1;stroke-opacity:1;" /><path d="M 255.7725 250.38 L 142.88626 258.3575" style="stroke:rgb(255,238,101);stroke-width:1" /><circle cx="142.88626" cy="258.3575" r="2" style="fill:rgb(255,238,101);stroke:none;fill-opacity:1;stroke-opacity:1;" /><path d="M 142.88626 258.3575 L 30 262.1625" style="stroke:rgb(255,238,101);stroke-width:1" /><circle cx="30" cy="262.1625" r="2" style="fill:rgb(255,238,101);stroke:none;fill-opacity:1;stroke-opacity:1;" /><circle cx="780" cy="237.0875" r="2" style="fill:rgb(253,204,229);stroke:none;fill-opacity:1;stroke-opacity:1;" /><path d="M 780 237.0875 L 630.77246 239.81" style="stroke:rgb(253,204,229);stroke-width:1" /><circle cx="630.77246" cy="239.81" r="2" style="fill:rgb(253,204,229);stroke:none;fill-opacity:1;stroke-opacity:1;" /><path d="M 630.77246 239.81 L 517.8862 241.53" style="stroke:rgb(253,204,229);stroke-width:1" /><circle cx="517.8862" cy="241.53" r="2" style="fill:rgb(253,204,229);stroke:none;fill-opacity:1;stroke-opacity:1;" /><path d="M 517.8862 241.53 L 451.85202 242.85251" style="stroke:rgb(253,204,229);stroke-width:1" /><circle cx="451.85202" cy="242.85251" r="2" style="fill:rgb(253,204,229);stroke:none;fill-opacity:1;stroke-opacity:1;" /><path d="M 451.85202 242.85251 L 405 244.0925" style="stroke:rgb(253,204,229);stroke-width:1" /><circle cx="405" cy="244.0925" r="2" style="fill:rgb(253,204,229);stroke:none;fill-opacity:1;stroke-opacity:1;" /><path d="M 405 244.0925 L 338.96576 246.08499" style="stroke:rgb(253,204,229);stroke-width:1" /><circle cx="338.96576" cy="246.08499" r="2" style="fill:rgb(253,204,229);stroke:none;fill-opacity:1;stroke-opacity:1;" /><path d="M 338.96576 246.08499 L 292.11377 248.20999" style="stroke:rgb(253,204,229);stroke-width:1" /><circle cx="292.11377" cy="248.20999" r="2" style="fill:rgb(253,204,229);stroke:none;fill-opacity:1;stroke-opacity:1;" /><path d="M 292.11377 248.20999 L 255.7725 249.625" style="stroke:rgb(253,204,229);stroke-width:1" /><circle cx="255.7725" cy="249.625" r="2" style="fill:rgb(253,204,229);stroke:none;fill-opacity:1;stroke-opacity:1;" /><path d="M 255.7725 249.625 L 142.88626 254.0275" style="stroke:rgb(253,204,229);stroke-width:1" /><circle cx="142.88626" cy="254.0275" r="2" style="fill:rgb(253,204,229);stroke:none;fill-opacity:1;stroke-opacity:1;" /><path d="M 142.88626 254.0275 L 30 257.7575" style="stroke:rgb(253,204,229);stroke-width:1" /><circle cx="30" cy="257.7575" r="2" style="fill:rgb(253,204,229);stroke:none;fill-opacity:1;stroke-opacity:1;" /><circle cx="780" cy="239.7675" r="2" style="fill:rgb(199,126,190);stroke:none;fill-opacity:1;stroke-opacity:1;" /><path d="M 780 239.7675 L 630.77246 241.235" style="stroke:rgb(199,126,190);stroke-width:1" /><circle cx="630.77246" cy="241.235" r="2" style="fill:rgb(199,126,190);stroke:none;fill-opacity:1;stroke-opacity:1;" /><path d="M 630.77246 241.235 L 517.8862 242.45999" style="stroke:rgb(199,126,190);stroke-width:1" /><circle cx="517.8862" cy="242.45999" r="2" style="fill:rgb(199,126,190);stroke:none;fill-opacity:1;stroke-opacity:1;" /><path d="M 517.8862 242.45999 L 451.85202 243.8275" style="stroke:rgb(199,126,190);stroke-width:1" /><circle cx="451.85202" cy="243.8275" r="2" style="fill:rgb(199,126,190);stroke:none;fill-opacity:1;stroke-opacity:1;" /><path d="M 451.85202 243.8275 L 405 245.49" style="stroke:rgb(199,126,190);stroke-width:1" /><circle cx="405" cy="245.49" r="2" style="fill:rgb(199,126,190);stroke:none;fill-opacity:1;stroke-opacity:1;" /><path d="M 405 245.49 L 338.96576 247.625" style="stroke:rgb(199,126,190);stroke-width:1" /><circle cx="338.96576" cy="247.625" r="2" style="fill:rgb(199,126,190);stroke:none;fill-opacity:1;stroke-opacity:1;" /><path d="M 338.96576 247.625 L 292.11377 249.455" style="stroke:rgb(199,126,190);stroke-width:1" /><circle cx="292.11377" cy="249.455" r="2" style="fill:rgb(199,126,190);stroke:none;fill-opacity:1;stroke-opacity:1;" /><path d="M 292.11377 249.455 L 255.7725 250.72" style="stroke:rgb(199,126,190);stroke-width:1" /><circle cx="255.7725" cy="250.72" r="2" style="fill:rgb(199,126,190);stroke:none;fill-opacity:1;stroke-opacity:1;" /><path d="M 255.7725 250.72 L 142.88626 254.7025" style="stroke:rgb(199,126,190);stroke-width:1" /><circle cx="142.88626" cy="254.7025" r="2" style="fill:rgb(199,126,190);stroke:none;fill-opacity:1;stroke-opacity:1;" /><path d="M 142.88626 254.7025 L 30 257.8475" style="stroke:rgb(199,126,190);stroke-width:1" /><circle cx="30" cy="257.8475" r="2" style="fill:rgb(199,126,190);stroke:none;fill-opacity:1;stroke-opacity:1;" /><circle cx="780" cy="33.940002" r="2" style="fill:rgb(50,125,209);stroke:none;fill-opacity:1;stroke-opacity:1;" /><path d="M 780 33.940002 L 630.77246 80.3275" style="stroke:rgb(50,125,209);stroke-width:1" /><circle cx="630.77246" cy="80.3275" r="2" style="fill:rgb(50,125,209);stroke:none;fill-opacity:1;stroke-opacity:1;" /><path d="M 630.77246 80.3275 L 517.8862 105.6275" style="stroke:rgb(50,125,209);stroke-width:1" /><circle cx="517.8862" cy="105.6275" r="2" style="fill:rgb(50,125,209);stroke:none;fill-opacity:1;stroke-opacity:1;" /><path d="M 517.8862 105.6275 L 451.85202 118.884995" style="stroke:rgb(50,125,209);stroke-width:1" /><circle cx="451.85202" cy="118.884995" r="2" style="fill:rgb(50,125,209);stroke:none;fill-opacity:1;stroke-opacity:1;" /><path d="M 451.85202 118.884995 L 405 127.935" style="stroke:rgb(50,125,209);stroke-width:1" /><circle cx="405" cy="127.935" r="2" style="fill:rgb(50,125,209);stroke:none;fill-opacity:1;stroke-opacity:1;" /><path d="M 405 127.935 L 338.96576 140.1175" style="stroke:rgb(50,125,209);stroke-width:1" /><circle cx="338.96576" cy="140.1175" r="2" style="fill:rgb(50,125,209);stroke:none;fill-opacity:1;stroke-opacity:1;" /><path d="M 338.96576 140.1175 L 292.11377 147.8875" style="stroke:rgb(50,125,209);stroke-width:1" /><circle cx="292.11377" cy="147.8875" r="2" style="fill:rgb(50,125,209);stroke:none;fill-opacity:1;stroke-opacity:1;" /><path d="M 292.11377 147.8875 L 255.7725 153.1525" style="stroke:rgb(50,125,209);stroke-width:1" /><circle cx="255.7725" cy="153.1525" r="2" style="fill:rgb(50,125,209);stroke:none;fill-opacity:1;stroke-opacity:1;" /><path d="M 255.7725 153.1525 L 142.88626 167.3075" style="stroke:rgb(50,125,209);stroke-width:1" /><circle cx="142.88626" cy="167.3075" r="2" style="fill:rgb(50,125,209);stroke:none;fill-opacity:1;stroke-opacity:1;" /><path d="M 142.88626 167.3075 L 30 177.75" style="stroke:rgb(50,125,209);stroke-width:1" /><circle cx="30" cy="177.75" r="2" style="fill:rgb(50,125,209);stroke:none;fill-opacity:1;stroke-opacity:1;" /><circle cx="780" cy="20" r="2" style="fill:rgb(255,181,90);stroke:none;fill-opacity:1;stroke-opacity:1;" /><path d="M 780 20 L 630.77246 96.285" style="stroke:rgb(255,181,90);stroke-width:1" /><circle cx="630.77246" cy="96.285" r="2" style="fill:rgb(255,181,90);stroke:none;fill-opacity:1;stroke-opacity:1;" /><path d="M 630.77246 96.285 L 517.8862 136.5525" style="stroke:rgb(255,181,90);stroke-width:1" /><circle cx="517.8862" cy="136.5525" r="2" style="fill:rgb(255,181,90);stroke:none;fill-opacity:1;stroke-opacity:1;" /><path d="M 517.8862 136.5525 L 451.85202 155.7775" style="stroke:rgb(255,181,90);stroke-width:1" /><circle cx="451.85202" cy="155.7775" r="2" style="fill:rgb(255,181,90);stroke:none;fill-opacity:1;stroke-opacity:1;" /><path d="M 451.85202 155.7775 L 405 166.81" style="stroke:rgb(255,181,90);stroke-width:1" /><circle cx="405" cy="166.81" r="2" style="fill:rgb(255,181,90);stroke:none;fill-opacity:1;stroke-opacity:1;" /><path d="M 405 166.81 L 338.96576 181.695" style="stroke:rgb(255,181,90);stroke-width:1" /><circle cx="338.96576" cy="181.695" r="2" style="fill:rgb(255,181,90);stroke:none;fill-opacity:1;stroke-opacity:1;" /><path d="M 338.96576 181.695 L 292.11377 190.56" style="stroke:rgb(255,181,90);stroke-width:1" /><circle cx="292.11377" cy="190.56" r="2" style="fill:rgb(255,181,90);stroke:none;fill-opacity:1;stroke-opacity:1;" /><path d="M 292.11377 190.56 L 255.7725 196.04251" style="stroke:rgb(255,181,90);stroke-width:1" /><circle cx="255.7725" cy="196.04251" r="2" style="fill:rgb(255,181,90);stroke:none;fill-opacity:1;stroke-opacity:1;" /><path d="M 255.7725 196.04251 L 142.88626 211.1225" style="stroke:rgb(255,181,90);stroke-width:1" /><circle cx="142.88626" cy="211.1225" r="2" style="fill:rgb(255,181,90);stroke:none;fill-opacity:1;stroke-opacity:1;" /><path d="M 142.88626 211.1225 L 30 220.9425" style="stroke:rgb(255,181,90);stroke-width:1" /><circle cx="30" cy="220.9425" r="2" style="fill:rgb(255,181,90);stroke:none;fill-opacity:1;stroke-opacity:1;" /><circle cx="780" cy="237.695" r="2" style="fill:rgb(253,127,111);stroke:none;fill-opacity:1;stroke-opacity:1;" /><path d="M 780 237.695 L 630.77246 239.8575" style="stroke:rgb(253,127,111);stroke-width:1" /><circle cx="630.77246" cy="239.8575" r="2" style="fill:rgb(253,127,111);stroke:none;fill-opacity:1;stroke-opacity:1;" /><path d="M 630.77246 239.8575 L 517.8862 241.3375" style="stroke:rgb(253,127,111);stroke-width:1" /><circle cx="517.8862" cy="241.3375" r="2" style="fill:rgb(253,127,111);stroke:none;fill-opacity:1;stroke-opacity:1;" /><path d="M 517.8862 241.3375 L 451.85202 242.6675" style="stroke:rgb(253,127,111);stroke-width:1" /><circle cx="451.85202" cy="242.6675" r="2" style="fill:rgb(253,127,111);stroke:none;fill-opacity:1;stroke-opacity:1;" /><path d="M 451.85202 242.6675 L 405 244" style="stroke:rgb(253,127,111);stroke-width:1" /><circle cx="405" cy="244" r="2" style="fill:rgb(253,127,111);stroke:none;fill-opacity:1;stroke-opacity:1;" /><path d="M 405 244 L 338.96576 245.7625" style="stroke:rgb(253,127,111);stroke-width:1" /><circle cx="338.96576" cy="245.7625" r="2" style="fill:rgb(253,127,111);stroke:none;fill-opacity:1;stroke-opacity:1;" /><path d="M 338.96576 245.7625 L 292.11377 247.765" style="stroke:rgb(253,127,111);stroke-width:1" /><circle cx="292.11377" cy="247.765" r="2" style="fill:rgb(253,127,111);stroke:none;fill-opacity:1;stroke-opacity:1;" /><path d="M 292.11377 247.765 L 255.7725 249.095" style="stroke:rgb(253,127,111);stroke-width:1" /><circle cx="255.7725" cy="249.095" r="2" style="fill:rgb(253,127,111);stroke:none;fill-opacity:1;stroke-opacity:1;" /><path d="M 255.7725 249.095 L 142.88626 253.67" style="stroke:rgb(253,127,111);stroke-width:1" /><circle cx="142.88626" cy="253.67" r="2" style="fill:rgb(253,127,111);stroke:none;fill-opacity:1;stroke-opacity:1;" /><path d="M 142.88626 253.67 L 30 257.655" style="stroke:rgb(253,127,111);stroke-width:1" /><circle cx="30" cy="257.655" r="2" style="fill:rgb(253,127,111);stroke:none;fill-opacity:1;stroke-opacity:1;" /><rect x="676" y="16" width="80" height="196" ry="4" style="fill:rgb(30,30,30);stroke:none;fill-opacity:0.8;stroke-opacity:1;" /><rect x="680" y="20" width="20" height="20" ry="2" style="fill:rgb(253,127,111);stroke:none;fill-opacity:1;stroke-opacity:1;" /><text x="705" y="33" style="font-size:10px;fill:rgb(255,255,255);text-anchor:start;text-align:left;"> fwd-diff </text><rect x="680" y="41" width="20" height="20" ry="2" style="fill:rgb(255,181,90);stroke:none;fill-opacity:1;stroke-opacity:1;" /><text x="705" y="54" style="font-size:10px;fill:rgb(255,255,255);text-anchor:start;text-align:left;"> hain </text><rect x="680" y="62" width="20" height="20" ry="2" style="fill:rgb(50,125,209);stroke:none;fill-opacity:1;stroke-opacity:1;" /><text x="705" y="75" style="font-size:10px;fill:rgb(255,255,255);text-anchor:start;text-align:left;"> levien </text><rect x="680" y="83" width="20" height="20" ry="2" style="fill:rgb(119,211,179);stroke:none;fill-opacity:1;stroke-opacity:1;" /><text x="705" y="96" style="font-size:10px;fill:rgb(255,255,255);text-anchor:start;text-align:left;"> levien-linear </text><rect x="680" y="104" width="20" height="20" ry="2" style="fill:rgb(126,176,213);stroke:none;fill-opacity:1;stroke-opacity:1;" /><text x="705" y="117" style="font-size:10px;fill:rgb(255,255,255);text-anchor:start;text-align:left;"> levien-simd </text><rect x="680" y="125" width="20" height="20" ry="2" style="fill:rgb(128,214,87);stroke:none;fill-opacity:1;stroke-opacity:1;" /><text x="705" y="138" style="font-size:10px;fill:rgb(255,255,255);text-anchor:start;text-align:left;"> linear </text><rect x="680" y="146" width="20" height="20" ry="2" style="fill:rgb(255,238,101);stroke:none;fill-opacity:1;stroke-opacity:1;" /><text x="705" y="159" style="font-size:10px;fill:rgb(255,255,255);text-anchor:start;text-align:left;"> recursive </text><rect x="680" y="167" width="20" height="20" ry="2" style="fill:rgb(253,204,229);stroke:none;fill-opacity:1;stroke-opacity:1;" /><text x="705" y="180" style="font-size:10px;fill:rgb(255,255,255);text-anchor:start;text-align:left;"> wang </text><rect x="680" y="188" width="20" height="20" ry="2" style="fill:rgb(199,126,190);stroke:none;fill-opacity:1;stroke-opacity:1;" /><text x="705" y="201" style="font-size:10px;fill:rgb(255,255,255);text-anchor:start;text-align:left;"> wang-simd </text><text x="400" y="30" style="font-size:20px;fill:rgb(255,255,255);text-anchor:middle;text-align:center;"> inkscape dataset: cubic </text><text x="400" y="42" style="font-size:8px;fill:rgb(200,200,200);text-anchor:middle;text-align:center;"> Normalized performance score (lower is better) </text></svg>