<svg xmlns="http://www.w3.org/2000/svg" viewBox="0 0 800 300"><rect x="0" y="0" width="800" height="300" ry="6" style="fill:rgb(30,30,30);stroke:none;fill-opacity:1;stroke-opacity:1;" /><path d="M 30 20 L 30 270" style="stroke:rgb(200,200,200);stroke-width:1" /><path d="M 30 270 L 780 270" style="stroke:rgb(200,200,200);stroke-width:1" /><path d="M 780 270 L 780 272" style="stroke:rgb(200,200,200);stroke-width:1" /><text x="780" y="282" style="font-size:10px;fill:rgb(200,200,200);text-anchor:middle;text-align:center;"> 0.01 </text><path d="M 630.77246 270 L 630.77246 272" style="stroke:rgb(200,200,200);stroke-width:1" /><text x="630.77246" y="282" style="font-size:10px;fill:rgb(200,200,200);text-anchor:middle;text-align:center;"> 0.025 </text><path d="M 517.8862 270 L 517.8862 272" style="stroke:rgb(200,200,200);stroke-width:1" /><text x="517.8862" y="282" style="font-size:10px;fill:rgb(200,200,200);text-anchor:middle;text-align:center;"> 0.05 </text><path d="M 451.85202 270 L 451.85202 272" style="stroke:rgb(200,200,200);stroke-width:1" /><text x="451.85202" y="282" style="font-size:10px;fill:rgb(200,200,200);text-anchor:middle;text-align:center;"> 0.075 </text><path d="M 405 270 L 405 272" style="stroke:rgb(200,200,200);stroke-width:1" /><text x="405" y="282" style="font-size:10px;fill:rgb(200,200,200);text-anchor:middle;text-align:center;"> 0.1 </text><path d="M 338.96576 270 L 338.96576 272" style="stroke:rgb(200,200,200);stroke-width:1" /><text x="338.96576" y="282" style="font-size:10px;fill:rgb(200,200,200);text-anchor:middle;text-align:center;"> 0.15 </text><path d="M 292.11377 270 L 292.11377 272" style="stroke:rgb(200,200,200);stroke-width:1" /><text x="292.11377" y="282" style="font-size:10px;fill:rgb(200,200,200);text-anchor:middle;text-align:center;"> 0.2 </text><path d="M 255.7725 270 L 255.7725 272" style="stroke:rgb(200,200,200);stroke-width:1" /><text x="255.7725" y="282" style="font-size:10px;fill:rgb(200,200,200);text-anchor:middle;text-align:center;"> 0.25 </text><path d="M 142.88626 270 L 142.88626 272" style="stroke:rgb(200,200,200);stroke-width:1" /><text x="142.88626" y="282" style="font-size:10px;fill:rgb(200,200,200);text-anchor:middle;text-align:center;"> 0.5 </text><path d="M 30 270 L 30 272" style="stroke:rgb(200,200,200);stroke-width:1" /><text x="30" y="282" style="font-size:10px;fill:rgb(200,200,200);text-anchor:middle;text-align:center;"> 1 </text><path d="M 28 270 L 30 270" style="stroke:rgb(200,200,200);stroke-width:1" /><text x="26" y="274" style="font-size:10px;fill:rgb(200,200,200);text-anchor:end;text-align:right;"> 0 </text><path d="M 28 207.5 L 30 207.5" style="stroke:rgb(200,200,200);stroke-width:1" /><text x="26" y="211.5" style="font-size:10px;fill:rgb(200,200,200);text-anchor:end;text-align:right;"> 0.25 </text><path d="M 28 145 L 30 145" style="stroke:rgb(200,200,200);stroke-width:1" /><text x="26" y="149" style="font-size:10px;fill:rgb(200,200,200);text-anchor:end;text-align:right;"> 0.5 </text><path d="M 28 82.5 L 30 82.5" style="stroke:rgb(200,200,200);stroke-width:1" /><text x="26" y="86.5" style="font-size:10px;fill:rgb(200,200,200);text-anchor:end;text-align:right;"> 0.75 </text><path d="M 28 20 L 30 20" style="stroke:rgb(200,200,200);stroke-width:1" /><text x="26" y="24" style="font-size:10px;fill:rgb(200,200,200);text-anchor:end;text-align:right;"> 1 </text><text x="400" y="294" style="font-size:10px;fill:rgb(200,200,200);text-anchor:middle;text-align:center;"> Tolerance </text><circle cx="780" cy="188.89749" r="2" style="fill:rgb(253,127,111);stroke:none;fill-opacity:1;stroke-opacity:1;" /><path d="M 780 188.89749 L 630.77246 202.4325" style="stroke:rgb(253,127,111);stroke-width:1" /><circle cx="630.77246" cy="202.4325" r="2" style="fill:rgb(253,127,111);stroke:none;fill-opacity:1;stroke-opacity:1;" /><path d="M 630.77246 202.4325 L 517.8862 214.4925" style="stroke:rgb(253,127,111);stroke-width:1" /><circle cx="517.8862" cy="214.4925" r="2" style="fill:rgb(253,127,111);stroke:none;fill-opacity:1;stroke-opacity:1;" /><path d="M 517.8862 214.4925 L 451.85202 219.9075" style="stroke:rgb(253,127,111);stroke-width:1" /><circle cx="451.85202" cy="219.9075" r="2" style="fill:rgb(253,127,111);stroke:none;fill-opacity:1;stroke-opacity:1;" /><path d="M 451.85202 219.9075 L 405 223.4425" style="stroke:rgb(253,127,111);stroke-width:1" /><circle cx="405" cy="223.4425" r="2" style="fill:rgb(253,127,111);stroke:none;fill-opacity:1;stroke-opacity:1;" /><path d="M 405 223.4425 L 338.96576 228.6" style="stroke:rgb(253,127,111);stroke-width:1" /><circle cx="338.96576" cy="228.6" r="2" style="fill:rgb(253,127,111);stroke:none;fill-opacity:1;stroke-opacity:1;" /><path d="M 338.96576 228.6 L 292.11377 229.6825" style="stroke:rgb(253,127,111);stroke-width:1" /><circle cx="292.11377" cy="229.6825" r="2" style="fill:rgb(253,127,111);stroke:none;fill-opacity:1;stroke-opacity:1;" /><path d="M 292.11377 229.6825 L 255.7725 230.575" style="stroke:rgb(253,127,111);stroke-width:1" /><circle cx="255.7725" cy="230.575" r="2" style="fill:rgb(253,127,111);stroke:none;fill-opacity:1;stroke-opacity:1;" /><path d="M 255.7725 230.575 L 142.88626 232.455" style="stroke:rgb(253,127,111);stroke-width:1" /><circle cx="142.88626" cy="232.455" r="2" style="fill:rgb(253,127,111);stroke:none;fill-opacity:1;stroke-opacity:1;" /><path d="M 142.88626 232.455 L 30 232.7175" style="stroke:rgb(253,127,111);stroke-width:1" /><circle cx="30" cy="232.7175" r="2" style="fill:rgb(253,127,111);stroke:none;fill-opacity:1;stroke-opacity:1;" /><circle cx="780" cy="190.2625" r="2" style="fill:rgb(128,214,87);stroke:none;fill-opacity:1;stroke-opacity:1;" /><path d="M 780 190.2625 L 630.77246 225.6675" style="stroke:rgb(128,214,87);stroke-width:1" /><circle cx="630.77246" cy="225.6675" r="2" style="fill:rgb(128,214,87);stroke:none;fill-opacity:1;stroke-opacity:1;" /><path d="M 630.77246 225.6675 L 517.8862 238.8375" style="stroke:rgb(128,214,87);stroke-width:1" /><circle cx="517.8862" cy="238.8375" r="2" style="fill:rgb(128,214,87);stroke:none;fill-opacity:1;stroke-opacity:1;" /><path d="M 517.8862 238.8375 L 451.85202 244.1725" style="stroke:rgb(128,214,87);stroke-width:1" /><circle cx="451.85202" cy="244.1725" r="2" style="fill:rgb(128,214,87);stroke:none;fill-opacity:1;stroke-opacity:1;" /><path d="M 451.85202 244.1725 L 405 247.8375" style="stroke:rgb(128,214,87);stroke-width:1" /><circle cx="405" cy="247.8375" r="2" style="fill:rgb(128,214,87);stroke:none;fill-opacity:1;stroke-opacity:1;" /><path d="M 405 247.8375 L 338.96576 249.6925" style="stroke:rgb(128,214,87);stroke-width:1" /><circle cx="338.96576" cy="249.6925" r="2" style="fill:rgb(128,214,87);stroke:none;fill-opacity:1;stroke-opacity:1;" /><path d="M 338.96576 249.6925 L 292.11377 249.9925" style="stroke:rgb(128,214,87);stroke-width:1" /><circle cx="292.11377" cy="249.9925" r="2" style="fill:rgb(128,214,87);stroke:none;fill-opacity:1;stroke-opacity:1;" /><path d="M 292.11377 249.9925 L 255.7725 250.755" style="stroke:rgb(128,214,87);stroke-width:1" /><circle cx="255.7725" cy="250.755" r="2" style="fill:rgb(128,214,87);stroke:none;fill-opacity:1;stroke-opacity:1;" /><path d="M 255.7725 250.755 L 142.88626 252.06" style="stroke:rgb(128,214,87);stroke-width:1" /><circle cx="142.88626" cy="252.06" r="2" style="fill:rgb(128,214,87);stroke:none;fill-opacity:1;stroke-opacity:1;" /><path d="M 142.88626 252.06 L 30 252.20999" style="stroke:rgb(128,214,87);stroke-width:1" /><circle cx="30" cy="252.20999" r="2" style="fill:rgb(128,214,87);stroke:none;fill-opacity:1;stroke-opacity:1;" /><circle cx="780" cy="171.2375" r="2" style="fill:rgb(253,204,229);stroke:none;fill-opacity:1;stroke-opacity:1;" /><path d="M 780 171.2375 L 630.77246 179.32251" style="stroke:rgb(253,204,229);stroke-width:1" /><circle cx="630.77246" cy="179.32251" r="2" style="fill:rgb(253,204,229);stroke:none;fill-opacity:1;stroke-opacity:1;" /><path d="M 630.77246 179.32251 L 517.8862 198.2225" style="stroke:rgb(253,204,229);stroke-width:1" /><circle cx="517.8862" cy="198.2225" r="2" style="fill:rgb(253,204,229);stroke:none;fill-opacity:1;stroke-opacity:1;" /><path d="M 517.8862 198.2225 L 451.85202 212.0825" style="stroke:rgb(253,204,229);stroke-width:1" /><circle cx="451.85202" cy="212.0825" r="2" style="fill:rgb(253,204,229);stroke:none;fill-opacity:1;stroke-opacity:1;" /><path d="M 451.85202 212.0825 L 405 219.22" style="stroke:rgb(253,204,229);stroke-width:1" /><circle cx="405" cy="219.22" r="2" style="fill:rgb(253,204,229);stroke:none;fill-opacity:1;stroke-opacity:1;" /><path d="M 405 219.22 L 338.96576 225.97" style="stroke:rgb(253,204,229);stroke-width:1" /><circle cx="338.96576" cy="225.97" r="2" style="fill:rgb(253,204,229);stroke:none;fill-opacity:1;stroke-opacity:1;" /><path d="M 338.96576 225.97 L 292.11377 227.5125" style="stroke:rgb(253,204,229);stroke-width:1" /><circle cx="292.11377" cy="227.5125" r="2" style="fill:rgb(253,204,229);stroke:none;fill-opacity:1;stroke-opacity:1;" /><path d="M 292.11377 227.5125 L 255.7725 228.52" style="stroke:rgb(253,204,229);stroke-width:1" /><circle cx="255.7725" cy="228.52" r="2" style="fill:rgb(253,204,229);stroke:none;fill-opacity:1;stroke-opacity:1;" /><path d="M 255.7725 228.52 L 142.88626 231.9025" style="stroke:rgb(253,204,229);stroke-width:1" /><circle cx="142.88626" cy="231.9025" r="2" style="fill:rgb(253,204,229);stroke:none;fill-opacity:1;stroke-opacity:1;" /><path d="M 142.88626 231.9025 L 30 232.23" style="stroke:rgb(253,204,229);stroke-width:1" /><circle cx="30" cy="232.23" r="2" style="fill:rgb(253,204,229);stroke:none;fill-opacity:1;stroke-opacity:1;" /><circle cx="780" cy="118.82001" r="2" style="fill:rgb(126,176,213);stroke:none;fill-opacity:1;stroke-opacity:1;" /><path d="M 780 118.82001 L 630.77246 145.7775" style="stroke:rgb(126,176,213);stroke-width:1" /><circle cx="630.77246" cy="145.7775" r="2" style="fill:rgb(126,176,213);stroke:none;fill-opacity:1;stroke-opacity:1;" /><path d="M 630.77246 145.7775 L 517.8862 162.4625" style="stroke:rgb(126,176,213);stroke-width:1" /><circle cx="517.8862" cy="162.4625" r="2" style="fill:rgb(126,176,213);stroke:none;fill-opacity:1;stroke-opacity:1;" /><path d="M 517.8862 162.4625 L 451.85202 171.29251" style="stroke:rgb(126,176,213);stroke-width:1" /><circle cx="451.85202" cy="171.29251" r="2" style="fill:rgb(126,176,213);stroke:none;fill-opacity:1;stroke-opacity:1;" /><path d="M 451.85202 171.29251 L 405 174.505" style="stroke:rgb(126,176,213);stroke-width:1" /><circle cx="405" cy="174.505" r="2" style="fill:rgb(126,176,213);stroke:none;fill-opacity:1;stroke-opacity:1;" /><path d="M 405 174.505 L 338.96576 178.55" style="stroke:rgb(126,176,213);stroke-width:1" /><circle cx="338.96576" cy="178.55" r="2" style="fill:rgb(126,176,213);stroke:none;fill-opacity:1;stroke-opacity:1;" /><path d="M 338.96576 178.55 L 292.11377 179.17" style="stroke:rgb(126,176,213);stroke-width:1" /><circle cx="292.11377" cy="179.17" r="2" style="fill:rgb(126,176,213);stroke:none;fill-opacity:1;stroke-opacity:1;" /><path d="M 292.11377 179.17 L 255.7725 180.67" style="stroke:rgb(126,176,213);stroke-width:1" /><circle cx="255.7725" cy="180.67" r="2" style="fill:rgb(126,176,213);stroke:none;fill-opacity:1;stroke-opacity:1;" /><path d="M 255.7725 180.67 L 142.88626 182.9" style="stroke:rgb(126,176,213);stroke-width:1" /><circle cx="142.88626" cy="182.9" r="2" style="fill:rgb(126,176,213);stroke:none;fill-opacity:1;stroke-opacity:1;" /><path d="M 142.88626 182.9 L 30 183.215" style="stroke:rgb(126,176,213);stroke-width:1" /><circle cx="30" cy="183.215" r="2" style="fill:rgb(126,176,213);stroke:none;fill-opacity:1;stroke-opacity:1;" /><circle cx="780" cy="20" r="2" style="fill:rgb(50,125,209);stroke:none;fill-opacity:1;stroke-opacity:1;" /><path d="M 780 20 L 630.77246 64.2025" style="stroke:rgb(50,125,209);stroke-width:1" /><circle cx="630.77246" cy="64.2025" r="2" style="fill:rgb(50,125,209);stroke:none;fill-opacity:1;stroke-opacity:1;" /><path d="M 630.77246 64.2025 L 517.8862 85.412506" style="stroke:rgb(50,125,209);stroke-width:1" /><circle cx="517.8862" cy="85.412506" r="2" style="fill:rgb(50,125,209);stroke:none;fill-opacity:1;stroke-opacity:1;" /><path d="M 517.8862 85.412506 L 451.85202 95.77251" style="stroke:rgb(50,125,209);stroke-width:1" /><circle cx="451.85202" cy="95.77251" r="2" style="fill:rgb(50,125,209);stroke:none;fill-opacity:1;stroke-opacity:1;" /><path d="M 451.85202 95.77251 L 405 100.104996" style="stroke:rgb(50,125,209);stroke-width:1" /><circle cx="405" cy="100.104996" r="2" style="fill:rgb(50,125,209);stroke:none;fill-opacity:1;stroke-opacity:1;" /><path d="M 405 100.104996 L 338.96576 103.815" style="stroke:rgb(50,125,209);stroke-width:1" /><circle cx="338.96576" cy="103.815" r="2" style="fill:rgb(50,125,209);stroke:none;fill-opacity:1;stroke-opacity:1;" /><path d="M 338.96576 103.815 L 292.11377 104.177505" style="stroke:rgb(50,125,209);stroke-width:1" /><circle cx="292.11377" cy="104.177505" r="2" style="fill:rgb(50,125,209);stroke:none;fill-opacity:1;stroke-opacity:1;" /><path d="M 292.11377 104.177505 L 255.7725 106.119995" style="stroke:rgb(50,125,209);stroke-width:1" /><circle cx="255.7725" cy="106.119995" r="2" style="fill:rgb(50,125,209);stroke:none;fill-opacity:1;stroke-opacity:1;" /><path d="M 255.7725 106.119995 L 142.88626 108.00751" style="stroke:rgb(50,125,209);stroke-width:1" /><circle cx="142.88626" cy="108.00751" r="2" style="fill:rgb(50,125,209);stroke:none;fill-opacity:1;stroke-opacity:1;" /><path d="M 142.88626 108.00751 L 30 108.6225" style="stroke:rgb(50,125,209);stroke-width:1" /><circle cx="30" cy="108.6225" r="2" style="fill:rgb(50,125,209);stroke:none;fill-opacity:1;stroke-opacity:1;" /><circle cx="780" cy="163.5475" r="2" style="fill:rgb(255,238,101);stroke:none;fill-opacity:1;stroke-opacity:1;" /><path d="M 780 163.5475 L 630.77246 211.19" style="stroke:rgb(255,238,101);stroke-width:1" /><circle cx="630.77246" cy="211.19" r="2" style="fill:rgb(255,238,101);stroke:none;fill-opacity:1;stroke-opacity:1;" /><path d="M 630.77246 211.19 L 517.8862 229.2425" style="stroke:rgb(255,238,101);stroke-width:1" /><circle cx="517.8862" cy="229.2425" r="2" style="fill:rgb(255,238,101);stroke:none;fill-opacity:1;stroke-opacity:1;" /><path d="M 517.8862 229.2425 L 451.85202 237.60251" style="stroke:rgb(255,238,101);stroke-width:1" /><circle cx="451.85202" cy="237.60251" r="2" style="fill:rgb(255,238,101);stroke:none;fill-opacity:1;stroke-opacity:1;" /><path d="M 451.85202 237.60251 L 405 241.9375" style="stroke:rgb(255,238,101);stroke-width:1" /><circle cx="405" cy="241.9375" r="2" style="fill:rgb(255,238,101);stroke:none;fill-opacity:1;stroke-opacity:1;" /><path d="M 405 241.9375 L 338.96576 244.185" style="stroke:rgb(255,238,101);stroke-width:1" /><circle cx="338.96576" cy="244.185" r="2" style="fill:rgb(255,238,101);stroke:none;fill-opacity:1;stroke-opacity:1;" /><path d="M 338.96576 244.185 L 292.11377 245.08" style="stroke:rgb(255,238,101);stroke-width:1" /><circle cx="292.11377" cy="245.08" r="2" style="fill:rgb(255,238,101);stroke:none;fill-opacity:1;stroke-opacity:1;" /><path d="M 292.11377 245.08 L 255.7725 246.025" style="stroke:rgb(255,238,101);stroke-width:1" /><circle cx="255.7725" cy="246.025" r="2" style="fill:rgb(255,238,101);stroke:none;fill-opacity:1;stroke-opacity:1;" /><path d="M 255.7725 246.025 L 142.88626 247.765" style="stroke:rgb(255,238,101);stroke-width:1" /><circle cx="142.88626" cy="247.765" r="2" style="fill:rgb(255,238,101);stroke:none;fill-opacity:1;stroke-opacity:1;" /><path d="M 142.88626 247.765 L 30 247.22" style="stroke:rgb(255,238,101);stroke-width:1" /><circle cx="30" cy="247.22" r="2" style="fill:rgb(255,238,101);stroke:none;fill-opacity:1;stroke-opacity:1;" /><rect x="676" y="16" width="80" height="133" ry="4" style="fill:rgb(30,30,30);stroke:none;fill-opacity:0.8;stroke-opacity:1;" /><rect x="680" y="20" width="20" height="20" ry="2" style="fill:rgb(253,127,111);stroke:none;fill-opacity:1;stroke-opacity:1;" /><text x="705" y="33" style="font-size:10px;fill:rgb(255,255,255);text-anchor:start;text-align:left;"> fwd-diff </text><rect x="680" y="41" width="20" height="20" ry="2" style="fill:rgb(50,125,209);stroke:none;fill-opacity:1;stroke-opacity:1;" /><text x="705" y="54" style="font-size:10px;fill:rgb(255,255,255);text-anchor:start;text-align:left;"> levien </text><rect x="680" y="62" width="20" height="20" ry="2" style="fill:rgb(126,176,213);stroke:none;fill-opacity:1;stroke-opacity:1;" /><text x="705" y="75" style="font-size:10px;fill:rgb(255,255,255);text-anchor:start;text-align:left;"> levien-simd </text><rect x="680" y="83" width="20" height="20" ry="2" style="fill:rgb(128,214,87);stroke:none;fill-opacity:1;stroke-opacity:1;" /><text x="705" y="96" style="font-size:10px;fill:rgb(255,255,255);text-anchor:start;text-align:left;"> linear </text><rect x="680" y="104" width="20" height="20" ry="2" style="fill:rgb(255,238,101);stroke:none;fill-opacity:1;stroke-opacity:1;" /><text x="705" y="117" style="font-size:10px;fill:rgb(255,255,255);text-anchor:start;text-align:left;"> recursive </text><rect x="680" y="125" width="20" height="20" ry="2" style="fill:rgb(253,204,229);stroke:none;fill-opacity:1;stroke-opacity:1;" /><text x="705" y="138" style="font-size:10px;fill:rgb(255,255,255);text-anchor:start;text-align:left;"> wang </text><text x="400" y="30" style="font-size:20px;fill:rgb(255,255,255);text-anchor:middle;text-align:center;"> font dataset: quadratic </text><text x="400" y="42" style="font-size:8px;fill:rgb(200,200,200);text-anchor:middle;text-align:center;"> Normalized performance score (lower is better) </text></svg>