<svg xmlns="http://www.w3.org/2000/svg" viewBox="0 0 800 300"><rect x="0" y="0" width="800" height="300" ry="6" style="fill:rgb(30,30,30);stroke:none;fill-opacity:1;stroke-opacity:1;" /><path d="M 30 20 L 30 270" style="stroke:rgb(200,200,200);stroke-width:1" /><path d="M 30 270 L 780 270" style="stroke:rgb(200,200,200);stroke-width:1" /><path d="M 780 270 L 780 272" style="stroke:rgb(200,200,200);stroke-width:1" /><text x="780" y="282" style="font-size:10px;fill:rgb(200,200,200);text-anchor:middle;text-align:center;"> 0.01 </text><path d="M 630.77246 270 L 630.77246 272" style="stroke:rgb(200,200,200);stroke-width:1" /><text x="630.77246" y="282" style="font-size:10px;fill:rgb(200,200,200);text-anchor:middle;text-align:center;"> 0.025 </text><path d="M 517.8862 270 L 517.8862 272" style="stroke:rgb(200,200,200);stroke-width:1" /><text x="517.8862" y="282" style="font-size:10px;fill:rgb(200,200,200);text-anchor:middle;text-align:center;"> 0.05 </text><path d="M 451.85202 270 L 451.85202 272" style="stroke:rgb(200,200,200);stroke-width:1" /><text x="451.85202" y="282" style="font-size:10px;fill:rgb(200,200,200);text-anchor:middle;text-align:center;"> 0.075 </text><path d="M 405 270 L 405 272" style="stroke:rgb(200,200,200);stroke-width:1" /><text x="405" y="282" style="font-size:10px;fill:rgb(200,200,200);text-anchor:middle;text-align:center;"> 0.1 </text><path d="M 338.96576 270 L 338.96576 272" style="stroke:rgb(200,200,200);stroke-width:1" /><text x="338.96576" y="282" style="font-size:10px;fill:rgb(200,200,200);text-anchor:middle;text-align:center;"> 0.15 </text><path d="M 292.11377 270 L 292.11377 272" style="stroke:rgb(200,200,200);stroke-width:1" /><text x="292.11377" y="282" style="font-size:10px;fill:rgb(200,200,200);text-anchor:middle;text-align:center;"> 0.2 </text><path d="M 255.7725 270 L 255.7725 272" style="stroke:rgb(200,200,200);stroke-width:1" /><text x="255.7725" y="282" style="font-size:10px;fill:rgb(200,200,200);text-anchor:middle;text-align:center;"> 0.25 </text><path d="M 142.88626 270 L 142.88626 272" style="stroke:rgb(200,200,200);stroke-width:1" /><text x="142.88626" y="282" style="font-size:10px;fill:rgb(200,200,200);text-anchor:middle;text-align:center;"> 0.5 </text><path d="M 30 270 L 30 272" style="stroke:rgb(200,200,200);stroke-width:1" /><text x="30" y="282" style="font-size:10px;fill:rgb(200,200,200);text-anchor:middle;text-align:center;"> 1 </text><path d="M 28 270 L 30 270" style="stroke:rgb(200,200,200);stroke-width:1" /><text x="26" y="274" style="font-size:10px;fill:rgb(200,200,200);text-anchor:end;text-align:right;"> 0 </text><path d="M 28 207.5 L 30 207.5" style="stroke:rgb(200,200,200);stroke-width:1" /><text x="26" y="211.5" style="font-size:10px;fill:rgb(200,200,200);text-anchor:end;text-align:right;"> 0.25 </text><path d="M 28 145 L 30 145" style="stroke:rgb(200,200,200);stroke-width:1" /><text x="26" y="149" style="font-size:10px;fill:rgb(200,200,200);text-anchor:end;text-align:right;"> 0.5 </text><path d="M 28 82.5 L 30 82.5" style="stroke:rgb(200,200,200);stroke-width:1" /><text x="26" y="86.5" style="font-size:10px;fill:rgb(200,200,200);text-anchor:end;text-align:right;"> 0.75 </text><path d="M 28 20 L 30 20" style="stroke:rgb(200,200,200);stroke-width:1" /><text x="26" y="24" style="font-size:10px;fill:rgb(200,200,200);text-anchor:end;text-align:right;"> 1 </text><text x="400" y="294" style="font-size:10px;fill:rgb(200,200,200);text-anchor:middle;text-align:center;"> Tolerance </text><circle cx="780" cy="246.265" r="2" style="fill:rgb(126,176,213);stroke:none;fill-opacity:1;stroke-opacity:1;" /><path d="M 780 246.265 L 630.77246 250.5725" style="stroke:rgb(126,176,213);stroke-width:1" /><circle cx="630.77246" cy="250.5725" r="2" style="fill:rgb(126,176,213);stroke:none;fill-opacity:1;stroke-opacity:1;" /><path d="M 630.77246 250.5725 L 517.8862 252.8825" style="stroke:rgb(126,176,213);stroke-width:1" /><circle cx="517.8862" cy="252.8825" r="2" style="fill:rgb(126,176,213);stroke:none;fill-opacity:1;stroke-opacity:1;" /><path d="M 517.8862 252.8825 L 451.85202 253.995" style="stroke:rgb(126,176,213);stroke-width:1" /><circle cx="451.85202" cy="253.995" r="2" style="fill:rgb(126,176,213);stroke:none;fill-opacity:1;stroke-opacity:1;" /><path d="M 451.85202 253.995 L 405 254.6875" style="stroke:rgb(126,176,213);stroke-width:1" /><circle cx="405" cy="254.6875" r="2" style="fill:rgb(126,176,213);stroke:none;fill-opacity:1;stroke-opacity:1;" /><path d="M 405 254.6875 L 338.96576 255.64" style="stroke:rgb(126,176,213);stroke-width:1" /><circle cx="338.96576" cy="255.64" r="2" style="fill:rgb(126,176,213);stroke:none;fill-opacity:1;stroke-opacity:1;" /><path d="M 338.96576 255.64 L 292.11377 256.205" style="stroke:rgb(126,176,213);stroke-width:1" /><circle cx="292.11377" cy="256.205" r="2" style="fill:rgb(126,176,213);stroke:none;fill-opacity:1;stroke-opacity:1;" /><path d="M 292.11377 256.205 L 255.7725 256.6225" style="stroke:rgb(126,176,213);stroke-width:1" /><circle cx="255.7725" cy="256.6225" r="2" style="fill:rgb(126,176,213);stroke:none;fill-opacity:1;stroke-opacity:1;" /><path d="M 255.7725 256.6225 L 142.88626 257.8375" style="stroke:rgb(126,176,213);stroke-width:1" /><circle cx="142.88626" cy="257.8375" r="2" style="fill:rgb(126,176,213);stroke:none;fill-opacity:1;stroke-opacity:1;" /><path d="M 142.88626 257.8375 L 30 258.84" style="stroke:rgb(126,176,213);stroke-width:1" /><circle cx="30" cy="258.84" r="2" style="fill:rgb(126,176,213);stroke:none;fill-opacity:1;stroke-opacity:1;" /><circle cx="780" cy="231.81" r="2" style="fill:rgb(50,125,209);stroke:none;fill-opacity:1;stroke-opacity:1;" /><path d="M 780 231.81 L 630.77246 243.54001" style="stroke:rgb(50,125,209);stroke-width:1" /><circle cx="630.77246" cy="243.54001" r="2" style="fill:rgb(50,125,209);stroke:none;fill-opacity:1;stroke-opacity:1;" /><path d="M 630.77246 243.54001 L 517.8862 248.53" style="stroke:rgb(50,125,209);stroke-width:1" /><circle cx="517.8862" cy="248.53" r="2" style="fill:rgb(50,125,209);stroke:none;fill-opacity:1;stroke-opacity:1;" /><path d="M 517.8862 248.53 L 451.85202 250.35251" style="stroke:rgb(50,125,209);stroke-width:1" /><circle cx="451.85202" cy="250.35251" r="2" style="fill:rgb(50,125,209);stroke:none;fill-opacity:1;stroke-opacity:1;" /><path d="M 451.85202 250.35251 L 405 251.5275" style="stroke:rgb(50,125,209);stroke-width:1" /><circle cx="405" cy="251.5275" r="2" style="fill:rgb(50,125,209);stroke:none;fill-opacity:1;stroke-opacity:1;" /><path d="M 405 251.5275 L 338.96576 252.92" style="stroke:rgb(50,125,209);stroke-width:1" /><circle cx="338.96576" cy="252.92" r="2" style="fill:rgb(50,125,209);stroke:none;fill-opacity:1;stroke-opacity:1;" /><path d="M 338.96576 252.92 L 292.11377 253.6875" style="stroke:rgb(50,125,209);stroke-width:1" /><circle cx="292.11377" cy="253.6875" r="2" style="fill:rgb(50,125,209);stroke:none;fill-opacity:1;stroke-opacity:1;" /><path d="M 292.11377 253.6875 L 255.7725 254.5625" style="stroke:rgb(50,125,209);stroke-width:1" /><circle cx="255.7725" cy="254.5625" r="2" style="fill:rgb(50,125,209);stroke:none;fill-opacity:1;stroke-opacity:1;" /><path d="M 255.7725 254.5625 L 142.88626 256.24" style="stroke:rgb(50,125,209);stroke-width:1" /><circle cx="142.88626" cy="256.24" r="2" style="fill:rgb(50,125,209);stroke:none;fill-opacity:1;stroke-opacity:1;" /><path d="M 142.88626 256.24 L 30 257.655" style="stroke:rgb(50,125,209);stroke-width:1" /><circle cx="30" cy="257.655" r="2" style="fill:rgb(50,125,209);stroke:none;fill-opacity:1;stroke-opacity:1;" /><circle cx="780" cy="184.8275" r="2" style="fill:rgb(128,214,87);stroke:none;fill-opacity:1;stroke-opacity:1;" /><path d="M 780 184.8275 L 630.77246 215.67" style="stroke:rgb(128,214,87);stroke-width:1" /><circle cx="630.77246" cy="215.67" r="2" style="fill:rgb(128,214,87);stroke:none;fill-opacity:1;stroke-opacity:1;" /><path d="M 630.77246 215.67 L 517.8862 230.77249" style="stroke:rgb(128,214,87);stroke-width:1" /><circle cx="517.8862" cy="230.77249" r="2" style="fill:rgb(128,214,87);stroke:none;fill-opacity:1;stroke-opacity:1;" /><path d="M 517.8862 230.77249 L 451.85202 237.9275" style="stroke:rgb(128,214,87);stroke-width:1" /><circle cx="451.85202" cy="237.9275" r="2" style="fill:rgb(128,214,87);stroke:none;fill-opacity:1;stroke-opacity:1;" /><path d="M 451.85202 237.9275 L 405 242.01" style="stroke:rgb(128,214,87);stroke-width:1" /><circle cx="405" cy="242.01" r="2" style="fill:rgb(128,214,87);stroke:none;fill-opacity:1;stroke-opacity:1;" /><path d="M 405 242.01 L 338.96576 246.64749" style="stroke:rgb(128,214,87);stroke-width:1" /><circle cx="338.96576" cy="246.64749" r="2" style="fill:rgb(128,214,87);stroke:none;fill-opacity:1;stroke-opacity:1;" /><path d="M 338.96576 246.64749 L 292.11377 249.7825" style="stroke:rgb(128,214,87);stroke-width:1" /><circle cx="292.11377" cy="249.7825" r="2" style="fill:rgb(128,214,87);stroke:none;fill-opacity:1;stroke-opacity:1;" /><path d="M 292.11377 249.7825 L 255.7725 252.0525" style="stroke:rgb(128,214,87);stroke-width:1" /><circle cx="255.7725" cy="252.0525" r="2" style="fill:rgb(128,214,87);stroke:none;fill-opacity:1;stroke-opacity:1;" /><path d="M 255.7725 252.0525 L 142.88626 257.4675" style="stroke:rgb(128,214,87);stroke-width:1" /><circle cx="142.88626" cy="257.4675" r="2" style="fill:rgb(128,214,87);stroke:none;fill-opacity:1;stroke-opacity:1;" /><path d="M 142.88626 257.4675 L 30 261.1825" style="stroke:rgb(128,214,87);stroke-width:1" /><circle cx="30" cy="261.1825" r="2" style="fill:rgb(128,214,87);stroke:none;fill-opacity:1;stroke-opacity:1;" /><circle cx="780" cy="163.6875" r="2" style="fill:rgb(255,238,101);stroke:none;fill-opacity:1;stroke-opacity:1;" /><path d="M 780 163.6875 L 630.77246 206.58751" style="stroke:rgb(255,238,101);stroke-width:1" /><circle cx="630.77246" cy="206.58751" r="2" style="fill:rgb(255,238,101);stroke:none;fill-opacity:1;stroke-opacity:1;" /><path d="M 630.77246 206.58751 L 517.8862 221.38" style="stroke:rgb(255,238,101);stroke-width:1" /><circle cx="517.8862" cy="221.38" r="2" style="fill:rgb(255,238,101);stroke:none;fill-opacity:1;stroke-opacity:1;" /><path d="M 517.8862 221.38 L 451.85202 231.9475" style="stroke:rgb(255,238,101);stroke-width:1" /><circle cx="451.85202" cy="231.9475" r="2" style="fill:rgb(255,238,101);stroke:none;fill-opacity:1;stroke-opacity:1;" /><path d="M 451.85202 231.9475 L 405 238.525" style="stroke:rgb(255,238,101);stroke-width:1" /><circle cx="405" cy="238.525" r="2" style="fill:rgb(255,238,101);stroke:none;fill-opacity:1;stroke-opacity:1;" /><path d="M 405 238.525 L 338.96576 243.1225" style="stroke:rgb(255,238,101);stroke-width:1" /><circle cx="338.96576" cy="243.1225" r="2" style="fill:rgb(255,238,101);stroke:none;fill-opacity:1;stroke-opacity:1;" /><path d="M 338.96576 243.1225 L 292.11377 245.955" style="stroke:rgb(255,238,101);stroke-width:1" /><circle cx="292.11377" cy="245.955" r="2" style="fill:rgb(255,238,101);stroke:none;fill-opacity:1;stroke-opacity:1;" /><path d="M 292.11377 245.955 L 255.7725 248.7075" style="stroke:rgb(255,238,101);stroke-width:1" /><circle cx="255.7725" cy="248.7075" r="2" style="fill:rgb(255,238,101);stroke:none;fill-opacity:1;stroke-opacity:1;" /><path d="M 255.7725 248.7075 L 142.88626 256.1825" style="stroke:rgb(255,238,101);stroke-width:1" /><circle cx="142.88626" cy="256.1825" r="2" style="fill:rgb(255,238,101);stroke:none;fill-opacity:1;stroke-opacity:1;" /><path d="M 142.88626 256.1825 L 30 259.685" style="stroke:rgb(255,238,101);stroke-width:1" /><circle cx="30" cy="259.685" r="2" style="fill:rgb(255,238,101);stroke:none;fill-opacity:1;stroke-opacity:1;" /><circle cx="780" cy="254.765" r="2" style="fill:rgb(253,127,111);stroke:none;fill-opacity:1;stroke-opacity:1;" /><path d="M 780 254.765 L 630.77246 259.9125" style="stroke:rgb(253,127,111);stroke-width:1" /><circle cx="630.77246" cy="259.9125" r="2" style="fill:rgb(253,127,111);stroke:none;fill-opacity:1;stroke-opacity:1;" /><path d="M 630.77246 259.9125 L 517.8862 262.55" style="stroke:rgb(253,127,111);stroke-width:1" /><circle cx="517.8862" cy="262.55" r="2" style="fill:rgb(253,127,111);stroke:none;fill-opacity:1;stroke-opacity:1;" /><path d="M 517.8862 262.55 L 451.85202 263.7025" style="stroke:rgb(253,127,111);stroke-width:1" /><circle cx="451.85202" cy="263.7025" r="2" style="fill:rgb(253,127,111);stroke:none;fill-opacity:1;stroke-opacity:1;" /><path d="M 451.85202 263.7025 L 405 264.3525" style="stroke:rgb(253,127,111);stroke-width:1" /><circle cx="405" cy="264.3525" r="2" style="fill:rgb(253,127,111);stroke:none;fill-opacity:1;stroke-opacity:1;" /><path d="M 405 264.3525 L 338.96576 265.15" style="stroke:rgb(253,127,111);stroke-width:1" /><circle cx="338.96576" cy="265.15" r="2" style="fill:rgb(253,127,111);stroke:none;fill-opacity:1;stroke-opacity:1;" /><path d="M 338.96576 265.15 L 292.11377 265.65" style="stroke:rgb(253,127,111);stroke-width:1" /><circle cx="292.11377" cy="265.65" r="2" style="fill:rgb(253,127,111);stroke:none;fill-opacity:1;stroke-opacity:1;" /><path d="M 292.11377 265.65 L 255.7725 266" style="stroke:rgb(253,127,111);stroke-width:1" /><circle cx="255.7725" cy="266" r="2" style="fill:rgb(253,127,111);stroke:none;fill-opacity:1;stroke-opacity:1;" /><path d="M 255.7725 266 L 142.88626 266.905" style="stroke:rgb(253,127,111);stroke-width:1" /><circle cx="142.88626" cy="266.905" r="2" style="fill:rgb(253,127,111);stroke:none;fill-opacity:1;stroke-opacity:1;" /><path d="M 142.88626 266.905 L 30 267.58" style="stroke:rgb(253,127,111);stroke-width:1" /><circle cx="30" cy="267.58" r="2" style="fill:rgb(253,127,111);stroke:none;fill-opacity:1;stroke-opacity:1;" /><circle cx="780" cy="248.875" r="2" style="fill:rgb(119,211,179);stroke:none;fill-opacity:1;stroke-opacity:1;" /><path d="M 780 248.875 L 630.77246 254.4" style="stroke:rgb(119,211,179);stroke-width:1" /><circle cx="630.77246" cy="254.4" r="2" style="fill:rgb(119,211,179);stroke:none;fill-opacity:1;stroke-opacity:1;" /><path d="M 630.77246 254.4 L 517.8862 257.5375" style="stroke:rgb(119,211,179);stroke-width:1" /><circle cx="517.8862" cy="257.5375" r="2" style="fill:rgb(119,211,179);stroke:none;fill-opacity:1;stroke-opacity:1;" /><path d="M 517.8862 257.5375 L 451.85202 259.085" style="stroke:rgb(119,211,179);stroke-width:1" /><circle cx="451.85202" cy="259.085" r="2" style="fill:rgb(119,211,179);stroke:none;fill-opacity:1;stroke-opacity:1;" /><path d="M 451.85202 259.085 L 405 260.0575" style="stroke:rgb(119,211,179);stroke-width:1" /><circle cx="405" cy="260.0575" r="2" style="fill:rgb(119,211,179);stroke:none;fill-opacity:1;stroke-opacity:1;" /><path d="M 405 260.0575 L 338.96576 261.26" style="stroke:rgb(119,211,179);stroke-width:1" /><circle cx="338.96576" cy="261.26" r="2" style="fill:rgb(119,211,179);stroke:none;fill-opacity:1;stroke-opacity:1;" /><path d="M 338.96576 261.26 L 292.11377 261.9825" style="stroke:rgb(119,211,179);stroke-width:1" /><circle cx="292.11377" cy="261.9825" r="2" style="fill:rgb(119,211,179);stroke:none;fill-opacity:1;stroke-opacity:1;" /><path d="M 292.11377 261.9825 L 255.7725 262.5475" style="stroke:rgb(119,211,179);stroke-width:1" /><circle cx="255.7725" cy="262.5475" r="2" style="fill:rgb(119,211,179);stroke:none;fill-opacity:1;stroke-opacity:1;" /><path d="M 255.7725 262.5475 L 142.88626 264.09" style="stroke:rgb(119,211,179);stroke-width:1" /><circle cx="142.88626" cy="264.09" r="2" style="fill:rgb(119,211,179);stroke:none;fill-opacity:1;stroke-opacity:1;" /><path d="M 142.88626 264.09 L 30 265.1625" style="stroke:rgb(119,211,179);stroke-width:1" /><circle cx="30" cy="265.1625" r="2" style="fill:rgb(119,211,179);stroke:none;fill-opacity:1;stroke-opacity:1;" /><circle cx="780" cy="256.475" r="2" style="fill:rgb(253,204,229);stroke:none;fill-opacity:1;stroke-opacity:1;" /><path d="M 780 256.475 L 630.77246 260.6625" style="stroke:rgb(253,204,229);stroke-width:1" /><circle cx="630.77246" cy="260.6625" r="2" style="fill:rgb(253,204,229);stroke:none;fill-opacity:1;stroke-opacity:1;" /><path d="M 630.77246 260.6625 L 517.8862 262.7875" style="stroke:rgb(253,204,229);stroke-width:1" /><circle cx="517.8862" cy="262.7875" r="2" style="fill:rgb(253,204,229);stroke:none;fill-opacity:1;stroke-opacity:1;" /><path d="M 517.8862 262.7875 L 451.85202 263.775" style="stroke:rgb(253,204,229);stroke-width:1" /><circle cx="451.85202" cy="263.775" r="2" style="fill:rgb(253,204,229);stroke:none;fill-opacity:1;stroke-opacity:1;" /><path d="M 451.85202 263.775 L 405 264.3825" style="stroke:rgb(253,204,229);stroke-width:1" /><circle cx="405" cy="264.3825" r="2" style="fill:rgb(253,204,229);stroke:none;fill-opacity:1;stroke-opacity:1;" /><path d="M 405 264.3825 L 338.96576 265.1675" style="stroke:rgb(253,204,229);stroke-width:1" /><circle cx="338.96576" cy="265.1675" r="2" style="fill:rgb(253,204,229);stroke:none;fill-opacity:1;stroke-opacity:1;" /><path d="M 338.96576 265.1675 L 292.11377 265.65" style="stroke:rgb(253,204,229);stroke-width:1" /><circle cx="292.11377" cy="265.65" r="2" style="fill:rgb(253,204,229);stroke:none;fill-opacity:1;stroke-opacity:1;" /><path d="M 292.11377 265.65 L 255.7725 265.96" style="stroke:rgb(253,204,229);stroke-width:1" /><circle cx="255.7725" cy="265.96" r="2" style="fill:rgb(253,204,229);stroke:none;fill-opacity:1;stroke-opacity:1;" /><path d="M 255.7725 265.96 L 142.88626 266.855" style="stroke:rgb(253,204,229);stroke-width:1" /><circle cx="142.88626" cy="266.855" r="2" style="fill:rgb(253,204,229);stroke:none;fill-opacity:1;stroke-opacity:1;" /><path d="M 142.88626 266.855 L 30 267.54" style="stroke:rgb(253,204,229);stroke-width:1" /><circle cx="30" cy="267.54" r="2" style="fill:rgb(253,204,229);stroke:none;fill-opacity:1;stroke-opacity:1;" /><circle cx="780" cy="262.3525" r="2" style="fill:rgb(199,126,190);stroke:none;fill-opacity:1;stroke-opacity:1;" /><path d="M 780 262.3525 L 630.77246 264.38" style="stroke:rgb(199,126,190);stroke-width:1" /><circle cx="630.77246" cy="264.38" r="2" style="fill:rgb(199,126,190);stroke:none;fill-opacity:1;stroke-opacity:1;" /><path d="M 630.77246 264.38 L 517.8862 265.3775" style="stroke:rgb(199,126,190);stroke-width:1" /><circle cx="517.8862" cy="265.3775" r="2" style="fill:rgb(199,126,190);stroke:none;fill-opacity:1;stroke-opacity:1;" /><path d="M 517.8862 265.3775 L 451.85202 265.85" style="stroke:rgb(199,126,190);stroke-width:1" /><circle cx="451.85202" cy="265.85" r="2" style="fill:rgb(199,126,190);stroke:none;fill-opacity:1;stroke-opacity:1;" /><path d="M 451.85202 265.85 L 405 266.165" style="stroke:rgb(199,126,190);stroke-width:1" /><circle cx="405" cy="266.165" r="2" style="fill:rgb(199,126,190);stroke:none;fill-opacity:1;stroke-opacity:1;" /><path d="M 405 266.165 L 338.96576 266.5775" style="stroke:rgb(199,126,190);stroke-width:1" /><circle cx="338.96576" cy="266.5775" r="2" style="fill:rgb(199,126,190);stroke:none;fill-opacity:1;stroke-opacity:1;" /><path d="M 338.96576 266.5775 L 292.11377 266.9" style="stroke:rgb(199,126,190);stroke-width:1" /><circle cx="292.11377" cy="266.9" r="2" style="fill:rgb(199,126,190);stroke:none;fill-opacity:1;stroke-opacity:1;" /><path d="M 292.11377 266.9 L 255.7725 267.1125" style="stroke:rgb(199,126,190);stroke-width:1" /><circle cx="255.7725" cy="267.1125" r="2" style="fill:rgb(199,126,190);stroke:none;fill-opacity:1;stroke-opacity:1;" /><path d="M 255.7725 267.1125 L 142.88626 267.7025" style="stroke:rgb(199,126,190);stroke-width:1" /><circle cx="142.88626" cy="267.7025" r="2" style="fill:rgb(199,126,190);stroke:none;fill-opacity:1;stroke-opacity:1;" /><path d="M 142.88626 267.7025 L 30 268.275" style="stroke:rgb(199,126,190);stroke-width:1" /><circle cx="30" cy="268.275" r="2" style="fill:rgb(199,126,190);stroke:none;fill-opacity:1;stroke-opacity:1;" /><circle cx="780" cy="222.8325" r="2" style="fill:rgb(139,211,199);stroke:none;fill-opacity:1;stroke-opacity:1;" /><path d="M 780 222.8325 L 630.77246 238.35251" style="stroke:rgb(139,211,199);stroke-width:1" /><circle cx="630.77246" cy="238.35251" r="2" style="fill:rgb(139,211,199);stroke:none;fill-opacity:1;stroke-opacity:1;" /><path d="M 630.77246 238.35251 L 517.8862 247.4225" style="stroke:rgb(139,211,199);stroke-width:1" /><circle cx="517.8862" cy="247.4225" r="2" style="fill:rgb(139,211,199);stroke:none;fill-opacity:1;stroke-opacity:1;" /><path d="M 517.8862 247.4225 L 451.85202 250.69" style="stroke:rgb(139,211,199);stroke-width:1" /><circle cx="451.85202" cy="250.69" r="2" style="fill:rgb(139,211,199);stroke:none;fill-opacity:1;stroke-opacity:1;" /><path d="M 451.85202 250.69 L 405 253.55" style="stroke:rgb(139,211,199);stroke-width:1" /><circle cx="405" cy="253.55" r="2" style="fill:rgb(139,211,199);stroke:none;fill-opacity:1;stroke-opacity:1;" /><path d="M 405 253.55 L 338.96576 256.845" style="stroke:rgb(139,211,199);stroke-width:1" /><circle cx="338.96576" cy="256.845" r="2" style="fill:rgb(139,211,199);stroke:none;fill-opacity:1;stroke-opacity:1;" /><path d="M 338.96576 256.845 L 292.11377 258.16" style="stroke:rgb(139,211,199);stroke-width:1" /><circle cx="292.11377" cy="258.16" r="2" style="fill:rgb(139,211,199);stroke:none;fill-opacity:1;stroke-opacity:1;" /><path d="M 292.11377 258.16 L 255.7725 258.9775" style="stroke:rgb(139,211,199);stroke-width:1" /><circle cx="255.7725" cy="258.9775" r="2" style="fill:rgb(139,211,199);stroke:none;fill-opacity:1;stroke-opacity:1;" /><path d="M 255.7725 258.9775 L 142.88626 262.245" style="stroke:rgb(139,211,199);stroke-width:1" /><circle cx="142.88626" cy="262.245" r="2" style="fill:rgb(139,211,199);stroke:none;fill-opacity:1;stroke-opacity:1;" /><path d="M 142.88626 262.245 L 30 264.085" style="stroke:rgb(139,211,199);stroke-width:1" /><circle cx="30" cy="264.085" r="2" style="fill:rgb(139,211,199);stroke:none;fill-opacity:1;stroke-opacity:1;" /><circle cx="780" cy="20" r="2" style="fill:rgb(255,181,90);stroke:none;fill-opacity:1;stroke-opacity:1;" /><path d="M 780 20 L 630.77246 110.182495" style="stroke:rgb(255,181,90);stroke-width:1" /><circle cx="630.77246" cy="110.182495" r="2" style="fill:rgb(255,181,90);stroke:none;fill-opacity:1;stroke-opacity:1;" /><path d="M 630.77246 110.182495 L 517.8862 156.1175" style="stroke:rgb(255,181,90);stroke-width:1" /><circle cx="517.8862" cy="156.1175" r="2" style="fill:rgb(255,181,90);stroke:none;fill-opacity:1;stroke-opacity:1;" /><path d="M 517.8862 156.1175 L 451.85202 176.6625" style="stroke:rgb(255,181,90);stroke-width:1" /><circle cx="451.85202" cy="176.6625" r="2" style="fill:rgb(255,181,90);stroke:none;fill-opacity:1;stroke-opacity:1;" /><path d="M 451.85202 176.6625 L 405 189.0025" style="stroke:rgb(255,181,90);stroke-width:1" /><circle cx="405" cy="189.0025" r="2" style="fill:rgb(255,181,90);stroke:none;fill-opacity:1;stroke-opacity:1;" /><path d="M 405 189.0025 L 338.96576 203.485" style="stroke:rgb(255,181,90);stroke-width:1" /><circle cx="338.96576" cy="203.485" r="2" style="fill:rgb(255,181,90);stroke:none;fill-opacity:1;stroke-opacity:1;" /><path d="M 338.96576 203.485 L 292.11377 212.16501" style="stroke:rgb(255,181,90);stroke-width:1" /><circle cx="292.11377" cy="212.16501" r="2" style="fill:rgb(255,181,90);stroke:none;fill-opacity:1;stroke-opacity:1;" /><path d="M 292.11377 212.16501 L 255.7725 218.0925" style="stroke:rgb(255,181,90);stroke-width:1" /><circle cx="255.7725" cy="218.0925" r="2" style="fill:rgb(255,181,90);stroke:none;fill-opacity:1;stroke-opacity:1;" /><path d="M 255.7725 218.0925 L 142.88626 232.7625" style="stroke:rgb(255,181,90);stroke-width:1" /><circle cx="142.88626" cy="232.7625" r="2" style="fill:rgb(255,181,90);stroke:none;fill-opacity:1;stroke-opacity:1;" /><path d="M 142.88626 232.7625 L 30 243.045" style="stroke:rgb(255,181,90);stroke-width:1" /><circle cx="30" cy="243.045" r="2" style="fill:rgb(255,181,90);stroke:none;fill-opacity:1;stroke-opacity:1;" /><rect x="676" y="16" width="80" height="217" ry="4" style="fill:rgb(30,30,30);stroke:none;fill-opacity:0.8;stroke-opacity:1;" /><rect x="680" y="20" width="20" height="20" ry="2" style="fill:rgb(253,127,111);stroke:none;fill-opacity:1;stroke-opacity:1;" /><text x="705" y="33" style="font-size:10px;fill:rgb(255,255,255);text-anchor:start;text-align:left;"> fwd-diff </text><rect x="680" y="41" width="20" height="20" ry="2" style="fill:rgb(255,181,90);stroke:none;fill-opacity:1;stroke-opacity:1;" /><text x="705" y="54" style="font-size:10px;fill:rgb(255,255,255);text-anchor:start;text-align:left;"> hain </text><rect x="680" y="62" width="20" height="20" ry="2" style="fill:rgb(139,211,199);stroke:none;fill-opacity:1;stroke-opacity:1;" /><text x="705" y="75" style="font-size:10px;fill:rgb(255,255,255);text-anchor:start;text-align:left;"> hfd </text><rect x="680" y="83" width="20" height="20" ry="2" style="fill:rgb(50,125,209);stroke:none;fill-opacity:1;stroke-opacity:1;" /><text x="705" y="96" style="font-size:10px;fill:rgb(255,255,255);text-anchor:start;text-align:left;"> levien </text><rect x="680" y="104" width="20" height="20" ry="2" style="fill:rgb(119,211,179);stroke:none;fill-opacity:1;stroke-opacity:1;" /><text x="705" y="117" style="font-size:10px;fill:rgb(255,255,255);text-anchor:start;text-align:left;"> levien-linear </text><rect x="680" y="125" width="20" height="20" ry="2" style="fill:rgb(126,176,213);stroke:none;fill-opacity:1;stroke-opacity:1;" /><text x="705" y="138" style="font-size:10px;fill:rgb(255,255,255);text-anchor:start;text-align:left;"> levien-simd </text><rect x="680" y="146" width="20" height="20" ry="2" style="fill:rgb(128,214,87);stroke:none;fill-opacity:1;stroke-opacity:1;" /><text x="705" y="159" style="font-size:10px;fill:rgb(255,255,255);text-anchor:start;text-align:left;"> linear </text><rect x="680" y="167" width="20" height="20" ry="2" style="fill:rgb(255,238,101);stroke:none;fill-opacity:1;stroke-opacity:1;" /><text x="705" y="180" style="font-size:10px;fill:rgb(255,255,255);text-anchor:start;text-align:left;"> recursive </text><rect x="680" y="188" width="20" height="20" ry="2" style="fill:rgb(253,204,229);stroke:none;fill-opacity:1;stroke-opacity:1;" /><text x="705" y="201" style="font-size:10px;fill:rgb(255,255,255);text-anchor:start;text-align:left;"> wang </text><rect x="680" y="209" width="20" height="20" ry="2" style="fill:rgb(199,126,190);stroke:none;fill-opacity:1;stroke-opacity:1;" /><text x="705" y="222" style="font-size:10px;fill:rgb(255,255,255);text-anchor:start;text-align:left;"> wang-simd </text><text x="400" y="30" style="font-size:20px;fill:rgb(255,255,255);text-anchor:middle;text-align:center;"> all dataset: cubic </text><text x="400" y="42" style="font-size:8px;fill:rgb(200,200,200);text-anchor:middle;text-align:center;"> Normalized performance score (lower is better) </text></svg>