<svg xmlns="http://www.w3.org/2000/svg" viewBox="0 0 800 300"><rect x="0" y="0" width="800" height="300" ry="6" style="fill:rgb(30,30,30);stroke:none;fill-opacity:1;stroke-opacity:1;" /><path d="M 30 20 L 30 270" style="stroke:rgb(200,200,200);stroke-width:1" /><path d="M 30 270 L 780 270" style="stroke:rgb(200,200,200);stroke-width:1" /><path d="M 780 270 L 780 272" style="stroke:rgb(200,200,200);stroke-width:1" /><text x="780" y="282" style="font-size:10px;fill:rgb(200,200,200);text-anchor:middle;text-align:center;"> 0.01 </text><path d="M 630.77246 270 L 630.77246 272" style="stroke:rgb(200,200,200);stroke-width:1" /><text x="630.77246" y="282" style="font-size:10px;fill:rgb(200,200,200);text-anchor:middle;text-align:center;"> 0.025 </text><path d="M 517.8862 270 L 517.8862 272" style="stroke:rgb(200,200,200);stroke-width:1" /><text x="517.8862" y="282" style="font-size:10px;fill:rgb(200,200,200);text-anchor:middle;text-align:center;"> 0.05 </text><path d="M 451.85202 270 L 451.85202 272" style="stroke:rgb(200,200,200);stroke-width:1" /><text x="451.85202" y="282" style="font-size:10px;fill:rgb(200,200,200);text-anchor:middle;text-align:center;"> 0.075 </text><path d="M 405 270 L 405 272" style="stroke:rgb(200,200,200);stroke-width:1" /><text x="405" y="282" style="font-size:10px;fill:rgb(200,200,200);text-anchor:middle;text-align:center;"> 0.1 </text><path d="M 338.96576 270 L 338.96576 272" style="stroke:rgb(200,200,200);stroke-width:1" /><text x="338.96576" y="282" style="font-size:10px;fill:rgb(200,200,200);text-anchor:middle;text-align:center;"> 0.15 </text><path d="M 292.11377 270 L 292.11377 272" style="stroke:rgb(200,200,200);stroke-width:1" /><text x="292.11377" y="282" style="font-size:10px;fill:rgb(200,200,200);text-anchor:middle;text-align:center;"> 0.2 </text><path d="M 255.7725 270 L 255.7725 272" style="stroke:rgb(200,200,200);stroke-width:1" /><text x="255.7725" y="282" style="font-size:10px;fill:rgb(200,200,200);text-anchor:middle;text-align:center;"> 0.25 </text><path d="M 142.88626 270 L 142.88626 272" style="stroke:rgb(200,200,200);stroke-width:1" /><text x="142.88626" y="282" style="font-size:10px;fill:rgb(200,200,200);text-anchor:middle;text-align:center;"> 0.5 </text><path d="M 30 270 L 30 272" style="stroke:rgb(200,200,200);stroke-width:1" /><text x="30" y="282" style="font-size:10px;fill:rgb(200,200,200);text-anchor:middle;text-align:center;"> 1 </text><path d="M 28 270 L 30 270" style="stroke:rgb(200,200,200);stroke-width:1" /><text x="26" y="274" style="font-size:10px;fill:rgb(200,200,200);text-anchor:end;text-align:right;"> 0 </text><path d="M 28 207.5 L 30 207.5" style="stroke:rgb(200,200,200);stroke-width:1" /><text x="26" y="211.5" style="font-size:10px;fill:rgb(200,200,200);text-anchor:end;text-align:right;"> 0.25 </text><path d="M 28 145 L 30 145" style="stroke:rgb(200,200,200);stroke-width:1" /><text x="26" y="149" style="font-size:10px;fill:rgb(200,200,200);text-anchor:end;text-align:right;"> 0.5 </text><path d="M 28 82.5 L 30 82.5" style="stroke:rgb(200,200,200);stroke-width:1" /><text x="26" y="86.5" style="font-size:10px;fill:rgb(200,200,200);text-anchor:end;text-align:right;"> 0.75 </text><path d="M 28 20 L 30 20" style="stroke:rgb(200,200,200);stroke-width:1" /><text x="26" y="24" style="font-size:10px;fill:rgb(200,200,200);text-anchor:end;text-align:right;"> 1 </text><text x="400" y="294" style="font-size:10px;fill:rgb(200,200,200);text-anchor:middle;text-align:center;"> Tolerance </text><circle cx="780" cy="163.67" r="2" style="fill:rgb(50,125,209);stroke:none;fill-opacity:1;stroke-opacity:1;" /><path d="M 780 163.67 L 630.77246 192.5925" style="stroke:rgb(50,125,209);stroke-width:1" /><circle cx="630.77246" cy="192.5925" r="2" style="fill:rgb(50,125,209);stroke:none;fill-opacity:1;stroke-opacity:1;" /><path d="M 630.77246 192.5925 L 517.8862 207.1925" style="stroke:rgb(50,125,209);stroke-width:1" /><circle cx="517.8862" cy="207.1925" r="2" style="fill:rgb(50,125,209);stroke:none;fill-opacity:1;stroke-opacity:1;" /><path d="M 517.8862 207.1925 L 451.85202 213.895" style="stroke:rgb(50,125,209);stroke-width:1" /><circle cx="451.85202" cy="213.895" r="2" style="fill:rgb(50,125,209);stroke:none;fill-opacity:1;stroke-opacity:1;" /><path d="M 451.85202 213.895 L 405 218.155" style="stroke:rgb(50,125,209);stroke-width:1" /><circle cx="405" cy="218.155" r="2" style="fill:rgb(50,125,209);stroke:none;fill-opacity:1;stroke-opacity:1;" /><path d="M 405 218.155 L 338.96576 223.1775" style="stroke:rgb(50,125,209);stroke-width:1" /><circle cx="338.96576" cy="223.1775" r="2" style="fill:rgb(50,125,209);stroke:none;fill-opacity:1;stroke-opacity:1;" /><path d="M 338.96576 223.1775 L 292.11377 226.23" style="stroke:rgb(50,125,209);stroke-width:1" /><circle cx="292.11377" cy="226.23" r="2" style="fill:rgb(50,125,209);stroke:none;fill-opacity:1;stroke-opacity:1;" /><path d="M 292.11377 226.23 L 255.7725 228.525" style="stroke:rgb(50,125,209);stroke-width:1" /><circle cx="255.7725" cy="228.525" r="2" style="fill:rgb(50,125,209);stroke:none;fill-opacity:1;stroke-opacity:1;" /><path d="M 255.7725 228.525 L 142.88626 233.83499" style="stroke:rgb(50,125,209);stroke-width:1" /><circle cx="142.88626" cy="233.83499" r="2" style="fill:rgb(50,125,209);stroke:none;fill-opacity:1;stroke-opacity:1;" /><path d="M 142.88626 233.83499 L 30 238.16501" style="stroke:rgb(50,125,209);stroke-width:1" /><circle cx="30" cy="238.16501" r="2" style="fill:rgb(50,125,209);stroke:none;fill-opacity:1;stroke-opacity:1;" /><circle cx="780" cy="226.55" r="2" style="fill:rgb(119,211,179);stroke:none;fill-opacity:1;stroke-opacity:1;" /><path d="M 780 226.55 L 630.77246 237.8575" style="stroke:rgb(119,211,179);stroke-width:1" /><circle cx="630.77246" cy="237.8575" r="2" style="fill:rgb(119,211,179);stroke:none;fill-opacity:1;stroke-opacity:1;" /><path d="M 630.77246 237.8575 L 517.8862 243.76" style="stroke:rgb(119,211,179);stroke-width:1" /><circle cx="517.8862" cy="243.76" r="2" style="fill:rgb(119,211,179);stroke:none;fill-opacity:1;stroke-opacity:1;" /><path d="M 517.8862 243.76 L 451.85202 246.8025" style="stroke:rgb(119,211,179);stroke-width:1" /><circle cx="451.85202" cy="246.8025" r="2" style="fill:rgb(119,211,179);stroke:none;fill-opacity:1;stroke-opacity:1;" /><path d="M 451.85202 246.8025 L 405 248.795" style="stroke:rgb(119,211,179);stroke-width:1" /><circle cx="405" cy="248.795" r="2" style="fill:rgb(119,211,179);stroke:none;fill-opacity:1;stroke-opacity:1;" /><path d="M 405 248.795 L 338.96576 251.1125" style="stroke:rgb(119,211,179);stroke-width:1" /><circle cx="338.96576" cy="251.1125" r="2" style="fill:rgb(119,211,179);stroke:none;fill-opacity:1;stroke-opacity:1;" /><path d="M 338.96576 251.1125 L 292.11377 252.485" style="stroke:rgb(119,211,179);stroke-width:1" /><circle cx="292.11377" cy="252.485" r="2" style="fill:rgb(119,211,179);stroke:none;fill-opacity:1;stroke-opacity:1;" /><path d="M 292.11377 252.485 L 255.7725 253.58499" style="stroke:rgb(119,211,179);stroke-width:1" /><circle cx="255.7725" cy="253.58499" r="2" style="fill:rgb(119,211,179);stroke:none;fill-opacity:1;stroke-opacity:1;" /><path d="M 255.7725 253.58499 L 142.88626 256.88" style="stroke:rgb(119,211,179);stroke-width:1" /><circle cx="142.88626" cy="256.88" r="2" style="fill:rgb(119,211,179);stroke:none;fill-opacity:1;stroke-opacity:1;" /><path d="M 142.88626 256.88 L 30 259.08" style="stroke:rgb(119,211,179);stroke-width:1" /><circle cx="30" cy="259.08" r="2" style="fill:rgb(119,211,179);stroke:none;fill-opacity:1;stroke-opacity:1;" /><circle cx="780" cy="240.97751" r="2" style="fill:rgb(120,68,33);stroke:none;fill-opacity:1;stroke-opacity:1;" /><path d="M 780 240.97751 L 630.77246 244.905" style="stroke:rgb(120,68,33);stroke-width:1" /><circle cx="630.77246" cy="244.905" r="2" style="fill:rgb(120,68,33);stroke:none;fill-opacity:1;stroke-opacity:1;" /><path d="M 630.77246 244.905 L 517.8862 247.1975" style="stroke:rgb(120,68,33);stroke-width:1" /><circle cx="517.8862" cy="247.1975" r="2" style="fill:rgb(120,68,33);stroke:none;fill-opacity:1;stroke-opacity:1;" /><path d="M 517.8862 247.1975 L 451.85202 248.3625" style="stroke:rgb(120,68,33);stroke-width:1" /><circle cx="451.85202" cy="248.3625" r="2" style="fill:rgb(120,68,33);stroke:none;fill-opacity:1;stroke-opacity:1;" /><path d="M 451.85202 248.3625 L 405 249.1525" style="stroke:rgb(120,68,33);stroke-width:1" /><circle cx="405" cy="249.1525" r="2" style="fill:rgb(120,68,33);stroke:none;fill-opacity:1;stroke-opacity:1;" /><path d="M 405 249.1525 L 338.96576 250.275" style="stroke:rgb(120,68,33);stroke-width:1" /><circle cx="338.96576" cy="250.275" r="2" style="fill:rgb(120,68,33);stroke:none;fill-opacity:1;stroke-opacity:1;" /><path d="M 338.96576 250.275 L 292.11377 251.135" style="stroke:rgb(120,68,33);stroke-width:1" /><circle cx="292.11377" cy="251.135" r="2" style="fill:rgb(120,68,33);stroke:none;fill-opacity:1;stroke-opacity:1;" /><path d="M 292.11377 251.135 L 255.7725 251.7625" style="stroke:rgb(120,68,33);stroke-width:1" /><circle cx="255.7725" cy="251.7625" r="2" style="fill:rgb(120,68,33);stroke:none;fill-opacity:1;stroke-opacity:1;" /><path d="M 255.7725 251.7625 L 142.88626 253.2975" style="stroke:rgb(120,68,33);stroke-width:1" /><circle cx="142.88626" cy="253.2975" r="2" style="fill:rgb(120,68,33);stroke:none;fill-opacity:1;stroke-opacity:1;" /><path d="M 142.88626 253.2975 L 30 253.765" style="stroke:rgb(120,68,33);stroke-width:1" /><circle cx="30" cy="253.765" r="2" style="fill:rgb(120,68,33);stroke:none;fill-opacity:1;stroke-opacity:1;" /><circle cx="780" cy="244.20999" r="2" style="fill:rgb(200,113,55);stroke:none;fill-opacity:1;stroke-opacity:1;" /><path d="M 780 244.20999 L 630.77246 246.9425" style="stroke:rgb(200,113,55);stroke-width:1" /><circle cx="630.77246" cy="246.9425" r="2" style="fill:rgb(200,113,55);stroke:none;fill-opacity:1;stroke-opacity:1;" /><path d="M 630.77246 246.9425 L 517.8862 248.8675" style="stroke:rgb(200,113,55);stroke-width:1" /><circle cx="517.8862" cy="248.8675" r="2" style="fill:rgb(200,113,55);stroke:none;fill-opacity:1;stroke-opacity:1;" /><path d="M 517.8862 248.8675 L 451.85202 249.875" style="stroke:rgb(200,113,55);stroke-width:1" /><circle cx="451.85202" cy="249.875" r="2" style="fill:rgb(200,113,55);stroke:none;fill-opacity:1;stroke-opacity:1;" /><path d="M 451.85202 249.875 L 405 250.5375" style="stroke:rgb(200,113,55);stroke-width:1" /><circle cx="405" cy="250.5375" r="2" style="fill:rgb(200,113,55);stroke:none;fill-opacity:1;stroke-opacity:1;" /><path d="M 405 250.5375 L 338.96576 251.4175" style="stroke:rgb(200,113,55);stroke-width:1" /><circle cx="338.96576" cy="251.4175" r="2" style="fill:rgb(200,113,55);stroke:none;fill-opacity:1;stroke-opacity:1;" /><path d="M 338.96576 251.4175 L 292.11377 251.995" style="stroke:rgb(200,113,55);stroke-width:1" /><circle cx="292.11377" cy="251.995" r="2" style="fill:rgb(200,113,55);stroke:none;fill-opacity:1;stroke-opacity:1;" /><path d="M 292.11377 251.995 L 255.7725 252.45999" style="stroke:rgb(200,113,55);stroke-width:1" /><circle cx="255.7725" cy="252.45999" r="2" style="fill:rgb(200,113,55);stroke:none;fill-opacity:1;stroke-opacity:1;" /><path d="M 255.7725 252.45999 L 142.88626 253.6125" style="stroke:rgb(200,113,55);stroke-width:1" /><circle cx="142.88626" cy="253.6125" r="2" style="fill:rgb(200,113,55);stroke:none;fill-opacity:1;stroke-opacity:1;" /><path d="M 142.88626 253.6125 L 30 254" style="stroke:rgb(200,113,55);stroke-width:1" /><circle cx="30" cy="254" r="2" style="fill:rgb(200,113,55);stroke:none;fill-opacity:1;stroke-opacity:1;" /><circle cx="780" cy="221.4" r="2" style="fill:rgb(126,176,213);stroke:none;fill-opacity:1;stroke-opacity:1;" /><path d="M 780 221.4 L 630.77246 230.375" style="stroke:rgb(126,176,213);stroke-width:1" /><circle cx="630.77246" cy="230.375" r="2" style="fill:rgb(126,176,213);stroke:none;fill-opacity:1;stroke-opacity:1;" /><path d="M 630.77246 230.375 L 517.8862 234.6925" style="stroke:rgb(126,176,213);stroke-width:1" /><circle cx="517.8862" cy="234.6925" r="2" style="fill:rgb(126,176,213);stroke:none;fill-opacity:1;stroke-opacity:1;" /><path d="M 517.8862 234.6925 L 451.85202 236.6625" style="stroke:rgb(126,176,213);stroke-width:1" /><circle cx="451.85202" cy="236.6625" r="2" style="fill:rgb(126,176,213);stroke:none;fill-opacity:1;stroke-opacity:1;" /><path d="M 451.85202 236.6625 L 405 238.0125" style="stroke:rgb(126,176,213);stroke-width:1" /><circle cx="405" cy="238.0125" r="2" style="fill:rgb(126,176,213);stroke:none;fill-opacity:1;stroke-opacity:1;" /><path d="M 405 238.0125 L 338.96576 239.5975" style="stroke:rgb(126,176,213);stroke-width:1" /><circle cx="338.96576" cy="239.5975" r="2" style="fill:rgb(126,176,213);stroke:none;fill-opacity:1;stroke-opacity:1;" /><path d="M 338.96576 239.5975 L 292.11377 240.4725" style="stroke:rgb(126,176,213);stroke-width:1" /><circle cx="292.11377" cy="240.4725" r="2" style="fill:rgb(126,176,213);stroke:none;fill-opacity:1;stroke-opacity:1;" /><path d="M 292.11377 240.4725 L 255.7725 240.97" style="stroke:rgb(126,176,213);stroke-width:1" /><circle cx="255.7725" cy="240.97" r="2" style="fill:rgb(126,176,213);stroke:none;fill-opacity:1;stroke-opacity:1;" /><path d="M 255.7725 240.97 L 142.88626 242.78" style="stroke:rgb(126,176,213);stroke-width:1" /><circle cx="142.88626" cy="242.78" r="2" style="fill:rgb(126,176,213);stroke:none;fill-opacity:1;stroke-opacity:1;" /><path d="M 142.88626 242.78 L 30 244.245" style="stroke:rgb(126,176,213);stroke-width:1" /><circle cx="30" cy="244.245" r="2" style="fill:rgb(126,176,213);stroke:none;fill-opacity:1;stroke-opacity:1;" /><circle cx="780" cy="61.0925" r="2" style="fill:rgb(255,238,101);stroke:none;fill-opacity:1;stroke-opacity:1;" /><path d="M 780 61.0925 L 630.77246 145.13" style="stroke:rgb(255,238,101);stroke-width:1" /><circle cx="630.77246" cy="145.13" r="2" style="fill:rgb(255,238,101);stroke:none;fill-opacity:1;stroke-opacity:1;" /><path d="M 630.77246 145.13 L 517.8862 173.815" style="stroke:rgb(255,238,101);stroke-width:1" /><circle cx="517.8862" cy="173.815" r="2" style="fill:rgb(255,238,101);stroke:none;fill-opacity:1;stroke-opacity:1;" /><path d="M 517.8862 173.815 L 451.85202 194.48999" style="stroke:rgb(255,238,101);stroke-width:1" /><circle cx="451.85202" cy="194.48999" r="2" style="fill:rgb(255,238,101);stroke:none;fill-opacity:1;stroke-opacity:1;" /><path d="M 451.85202 194.48999 L 405 207.38249" style="stroke:rgb(255,238,101);stroke-width:1" /><circle cx="405" cy="207.38249" r="2" style="fill:rgb(255,238,101);stroke:none;fill-opacity:1;stroke-opacity:1;" /><path d="M 405 207.38249 L 338.96576 216.395" style="stroke:rgb(255,238,101);stroke-width:1" /><circle cx="338.96576" cy="216.395" r="2" style="fill:rgb(255,238,101);stroke:none;fill-opacity:1;stroke-opacity:1;" /><path d="M 338.96576 216.395 L 292.11377 221.895" style="stroke:rgb(255,238,101);stroke-width:1" /><circle cx="292.11377" cy="221.895" r="2" style="fill:rgb(255,238,101);stroke:none;fill-opacity:1;stroke-opacity:1;" /><path d="M 292.11377 221.895 L 255.7725 227.4525" style="stroke:rgb(255,238,101);stroke-width:1" /><circle cx="255.7725" cy="227.4525" r="2" style="fill:rgb(255,238,101);stroke:none;fill-opacity:1;stroke-opacity:1;" /><path d="M 255.7725 227.4525 L 142.88626 242.055" style="stroke:rgb(255,238,101);stroke-width:1" /><circle cx="142.88626" cy="242.055" r="2" style="fill:rgb(255,238,101);stroke:none;fill-opacity:1;stroke-opacity:1;" /><path d="M 142.88626 242.055 L 30 248.965" style="stroke:rgb(255,238,101);stroke-width:1" /><circle cx="30" cy="248.965" r="2" style="fill:rgb(255,238,101);stroke:none;fill-opacity:1;stroke-opacity:1;" /><circle cx="780" cy="250.41501" r="2" style="fill:rgb(199,126,190);stroke:none;fill-opacity:1;stroke-opacity:1;" /><path d="M 780 250.41501 L 630.77246 255.425" style="stroke:rgb(199,126,190);stroke-width:1" /><circle cx="630.77246" cy="255.425" r="2" style="fill:rgb(199,126,190);stroke:none;fill-opacity:1;stroke-opacity:1;" /><path d="M 630.77246 255.425 L 517.8862 258.035" style="stroke:rgb(199,126,190);stroke-width:1" /><circle cx="517.8862" cy="258.035" r="2" style="fill:rgb(199,126,190);stroke:none;fill-opacity:1;stroke-opacity:1;" /><path d="M 517.8862 258.035 L 451.85202 259.295" style="stroke:rgb(199,126,190);stroke-width:1" /><circle cx="451.85202" cy="259.295" r="2" style="fill:rgb(199,126,190);stroke:none;fill-opacity:1;stroke-opacity:1;" /><path d="M 451.85202 259.295 L 405 260.1375" style="stroke:rgb(199,126,190);stroke-width:1" /><circle cx="405" cy="260.1375" r="2" style="fill:rgb(199,126,190);stroke:none;fill-opacity:1;stroke-opacity:1;" /><path d="M 405 260.1375 L 338.96576 261.1975" style="stroke:rgb(199,126,190);stroke-width:1" /><circle cx="338.96576" cy="261.1975" r="2" style="fill:rgb(199,126,190);stroke:none;fill-opacity:1;stroke-opacity:1;" /><path d="M 338.96576 261.1975 L 292.11377 261.89" style="stroke:rgb(199,126,190);stroke-width:1" /><circle cx="292.11377" cy="261.89" r="2" style="fill:rgb(199,126,190);stroke:none;fill-opacity:1;stroke-opacity:1;" /><path d="M 292.11377 261.89 L 255.7725 262.3875" style="stroke:rgb(199,126,190);stroke-width:1" /><circle cx="255.7725" cy="262.3875" r="2" style="fill:rgb(199,126,190);stroke:none;fill-opacity:1;stroke-opacity:1;" /><path d="M 255.7725 262.3875 L 142.88626 263.5625" style="stroke:rgb(199,126,190);stroke-width:1" /><circle cx="142.88626" cy="263.5625" r="2" style="fill:rgb(199,126,190);stroke:none;fill-opacity:1;stroke-opacity:1;" /><path d="M 142.88626 263.5625 L 30 264.505" style="stroke:rgb(199,126,190);stroke-width:1" /><circle cx="30" cy="264.505" r="2" style="fill:rgb(199,126,190);stroke:none;fill-opacity:1;stroke-opacity:1;" /><circle cx="780" cy="24.127502" r="2" style="fill:rgb(255,181,90);stroke:none;fill-opacity:1;stroke-opacity:1;" /><path d="M 780 24.127502 L 630.77246 107.39" style="stroke:rgb(255,181,90);stroke-width:1" /><circle cx="630.77246" cy="107.39" r="2" style="fill:rgb(255,181,90);stroke:none;fill-opacity:1;stroke-opacity:1;" /><path d="M 630.77246 107.39 L 517.8862 147.1175" style="stroke:rgb(255,181,90);stroke-width:1" /><circle cx="517.8862" cy="147.1175" r="2" style="fill:rgb(255,181,90);stroke:none;fill-opacity:1;stroke-opacity:1;" /><path d="M 517.8862 147.1175 L 451.85202 162.9725" style="stroke:rgb(255,181,90);stroke-width:1" /><circle cx="451.85202" cy="162.9725" r="2" style="fill:rgb(255,181,90);stroke:none;fill-opacity:1;stroke-opacity:1;" /><path d="M 451.85202 162.9725 L 405 170.9125" style="stroke:rgb(255,181,90);stroke-width:1" /><circle cx="405" cy="170.9125" r="2" style="fill:rgb(255,181,90);stroke:none;fill-opacity:1;stroke-opacity:1;" /><path d="M 405 170.9125 L 338.96576 177.45749" style="stroke:rgb(255,181,90);stroke-width:1" /><circle cx="338.96576" cy="177.45749" r="2" style="fill:rgb(255,181,90);stroke:none;fill-opacity:1;stroke-opacity:1;" /><path d="M 338.96576 177.45749 L 292.11377 176.8" style="stroke:rgb(255,181,90);stroke-width:1" /><circle cx="292.11377" cy="176.8" r="2" style="fill:rgb(255,181,90);stroke:none;fill-opacity:1;stroke-opacity:1;" /><path d="M 292.11377 176.8 L 255.7725 170.67" style="stroke:rgb(255,181,90);stroke-width:1" /><circle cx="255.7725" cy="170.67" r="2" style="fill:rgb(255,181,90);stroke:none;fill-opacity:1;stroke-opacity:1;" /><path d="M 255.7725 170.67 L 142.88626 198.20749" style="stroke:rgb(255,181,90);stroke-width:1" /><circle cx="142.88626" cy="198.20749" r="2" style="fill:rgb(255,181,90);stroke:none;fill-opacity:1;stroke-opacity:1;" /><path d="M 142.88626 198.20749 L 30 217.4975" style="stroke:rgb(255,181,90);stroke-width:1" /><circle cx="30" cy="217.4975" r="2" style="fill:rgb(255,181,90);stroke:none;fill-opacity:1;stroke-opacity:1;" /><circle cx="780" cy="20" r="2" style="fill:rgb(128,214,87);stroke:none;fill-opacity:1;stroke-opacity:1;" /><path d="M 780 20 L 630.77246 112.67999" style="stroke:rgb(128,214,87);stroke-width:1" /><circle cx="630.77246" cy="112.67999" r="2" style="fill:rgb(128,214,87);stroke:none;fill-opacity:1;stroke-opacity:1;" /><path d="M 630.77246 112.67999 L 517.8862 157.75" style="stroke:rgb(128,214,87);stroke-width:1" /><circle cx="517.8862" cy="157.75" r="2" style="fill:rgb(128,214,87);stroke:none;fill-opacity:1;stroke-opacity:1;" /><path d="M 517.8862 157.75 L 451.85202 178.8425" style="stroke:rgb(128,214,87);stroke-width:1" /><circle cx="451.85202" cy="178.8425" r="2" style="fill:rgb(128,214,87);stroke:none;fill-opacity:1;stroke-opacity:1;" /><path d="M 451.85202 178.8425 L 405 190.76999" style="stroke:rgb(128,214,87);stroke-width:1" /><circle cx="405" cy="190.76999" r="2" style="fill:rgb(128,214,87);stroke:none;fill-opacity:1;stroke-opacity:1;" /><path d="M 405 190.76999 L 338.96576 204.7825" style="stroke:rgb(128,214,87);stroke-width:1" /><circle cx="338.96576" cy="204.7825" r="2" style="fill:rgb(128,214,87);stroke:none;fill-opacity:1;stroke-opacity:1;" /><path d="M 338.96576 204.7825 L 292.11377 213.9925" style="stroke:rgb(128,214,87);stroke-width:1" /><circle cx="292.11377" cy="213.9925" r="2" style="fill:rgb(128,214,87);stroke:none;fill-opacity:1;stroke-opacity:1;" /><path d="M 292.11377 213.9925 L 255.7725 220.2" style="stroke:rgb(128,214,87);stroke-width:1" /><circle cx="255.7725" cy="220.2" r="2" style="fill:rgb(128,214,87);stroke:none;fill-opacity:1;stroke-opacity:1;" /><path d="M 255.7725 220.2 L 142.88626 234.945" style="stroke:rgb(128,214,87);stroke-width:1" /><circle cx="142.88626" cy="234.945" r="2" style="fill:rgb(128,214,87);stroke:none;fill-opacity:1;stroke-opacity:1;" /><path d="M 142.88626 234.945 L 30 245.535" style="stroke:rgb(128,214,87);stroke-width:1" /><circle cx="30" cy="245.535" r="2" style="fill:rgb(128,214,87);stroke:none;fill-opacity:1;stroke-opacity:1;" /><circle cx="780" cy="239.5125" r="2" style="fill:rgb(253,204,229);stroke:none;fill-opacity:1;stroke-opacity:1;" /><path d="M 780 239.5125 L 630.77246 248.95" style="stroke:rgb(253,204,229);stroke-width:1" /><circle cx="630.77246" cy="248.95" r="2" style="fill:rgb(253,204,229);stroke:none;fill-opacity:1;stroke-opacity:1;" /><path d="M 630.77246 248.95 L 517.8862 253.625" style="stroke:rgb(253,204,229);stroke-width:1" /><circle cx="517.8862" cy="253.625" r="2" style="fill:rgb(253,204,229);stroke:none;fill-opacity:1;stroke-opacity:1;" /><path d="M 517.8862 253.625 L 451.85202 255.745" style="stroke:rgb(253,204,229);stroke-width:1" /><circle cx="451.85202" cy="255.745" r="2" style="fill:rgb(253,204,229);stroke:none;fill-opacity:1;stroke-opacity:1;" /><path d="M 451.85202 255.745 L 405 257.075" style="stroke:rgb(253,204,229);stroke-width:1" /><circle cx="405" cy="257.075" r="2" style="fill:rgb(253,204,229);stroke:none;fill-opacity:1;stroke-opacity:1;" /><path d="M 405 257.075 L 338.96576 258.72" style="stroke:rgb(253,204,229);stroke-width:1" /><circle cx="338.96576" cy="258.72" r="2" style="fill:rgb(253,204,229);stroke:none;fill-opacity:1;stroke-opacity:1;" /><path d="M 338.96576 258.72 L 292.11377 259.8" style="stroke:rgb(253,204,229);stroke-width:1" /><circle cx="292.11377" cy="259.8" r="2" style="fill:rgb(253,204,229);stroke:none;fill-opacity:1;stroke-opacity:1;" /><path d="M 292.11377 259.8 L 255.7725 260.5475" style="stroke:rgb(253,204,229);stroke-width:1" /><circle cx="255.7725" cy="260.5475" r="2" style="fill:rgb(253,204,229);stroke:none;fill-opacity:1;stroke-opacity:1;" /><path d="M 255.7725 260.5475 L 142.88626 262.425" style="stroke:rgb(253,204,229);stroke-width:1" /><circle cx="142.88626" cy="262.425" r="2" style="fill:rgb(253,204,229);stroke:none;fill-opacity:1;stroke-opacity:1;" /><path d="M 142.88626 262.425 L 30 263.9" style="stroke:rgb(253,204,229);stroke-width:1" /><circle cx="30" cy="263.9" r="2" style="fill:rgb(253,204,229);stroke:none;fill-opacity:1;stroke-opacity:1;" /><circle cx="780" cy="242.37" r="2" style="fill:rgb(253,127,111);stroke:none;fill-opacity:1;stroke-opacity:1;" /><path d="M 780 242.37 L 630.77246 250.67" style="stroke:rgb(253,127,111);stroke-width:1" /><circle cx="630.77246" cy="250.67" r="2" style="fill:rgb(253,127,111);stroke:none;fill-opacity:1;stroke-opacity:1;" /><path d="M 630.77246 250.67 L 517.8862 254.7675" style="stroke:rgb(253,127,111);stroke-width:1" /><circle cx="517.8862" cy="254.7675" r="2" style="fill:rgb(253,127,111);stroke:none;fill-opacity:1;stroke-opacity:1;" /><path d="M 517.8862 254.7675 L 451.85202 256.655" style="stroke:rgb(253,127,111);stroke-width:1" /><circle cx="451.85202" cy="256.655" r="2" style="fill:rgb(253,127,111);stroke:none;fill-opacity:1;stroke-opacity:1;" /><path d="M 451.85202 256.655 L 405 257.8575" style="stroke:rgb(253,127,111);stroke-width:1" /><circle cx="405" cy="257.8575" r="2" style="fill:rgb(253,127,111);stroke:none;fill-opacity:1;stroke-opacity:1;" /><path d="M 405 257.8575 L 338.96576 259.35" style="stroke:rgb(253,127,111);stroke-width:1" /><circle cx="338.96576" cy="259.35" r="2" style="fill:rgb(253,127,111);stroke:none;fill-opacity:1;stroke-opacity:1;" /><path d="M 338.96576 259.35 L 292.11377 260.265" style="stroke:rgb(253,127,111);stroke-width:1" /><circle cx="292.11377" cy="260.265" r="2" style="fill:rgb(253,127,111);stroke:none;fill-opacity:1;stroke-opacity:1;" /><path d="M 292.11377 260.265 L 255.7725 260.96" style="stroke:rgb(253,127,111);stroke-width:1" /><circle cx="255.7725" cy="260.96" r="2" style="fill:rgb(253,127,111);stroke:none;fill-opacity:1;stroke-opacity:1;" /><path d="M 255.7725 260.96 L 142.88626 262.64" style="stroke:rgb(253,127,111);stroke-width:1" /><circle cx="142.88626" cy="262.64" r="2" style="fill:rgb(253,127,111);stroke:none;fill-opacity:1;stroke-opacity:1;" /><path d="M 142.88626 262.64 L 30 263.9425" style="stroke:rgb(253,127,111);stroke-width:1" /><circle cx="30" cy="263.9425" r="2" style="fill:rgb(253,127,111);stroke:none;fill-opacity:1;stroke-opacity:1;" /><rect x="676" y="16" width="80" height="238" ry="4" style="fill:rgb(30,30,30);stroke:none;fill-opacity:0.8;stroke-opacity:1;" /><rect x="680" y="20" width="20" height="20" ry="2" style="fill:rgb(253,127,111);stroke:none;fill-opacity:1;stroke-opacity:1;" /><text x="705" y="33" style="font-size:10px;fill:rgb(255,255,255);text-anchor:start;text-align:left;"> fwd-diff </text><rect x="680" y="41" width="20" height="20" ry="2" style="fill:rgb(255,181,90);stroke:none;fill-opacity:1;stroke-opacity:1;" /><text x="705" y="54" style="font-size:10px;fill:rgb(255,255,255);text-anchor:start;text-align:left;"> hain </text><rect x="680" y="62" width="20" height="20" ry="2" style="fill:rgb(50,125,209);stroke:none;fill-opacity:1;stroke-opacity:1;" /><text x="705" y="75" style="font-size:10px;fill:rgb(255,255,255);text-anchor:start;text-align:left;"> levien </text><rect x="680" y="83" width="20" height="20" ry="2" style="fill:rgb(119,211,179);stroke:none;fill-opacity:1;stroke-opacity:1;" /><text x="705" y="96" style="font-size:10px;fill:rgb(255,255,255);text-anchor:start;text-align:left;"> levien-linear </text><rect x="680" y="104" width="20" height="20" ry="2" style="fill:rgb(126,176,213);stroke:none;fill-opacity:1;stroke-opacity:1;" /><text x="705" y="117" style="font-size:10px;fill:rgb(255,255,255);text-anchor:start;text-align:left;"> levien-simd </text><rect x="680" y="125" width="20" height="20" ry="2" style="fill:rgb(128,214,87);stroke:none;fill-opacity:1;stroke-opacity:1;" /><text x="705" y="138" style="font-size:10px;fill:rgb(255,255,255);text-anchor:start;text-align:left;"> linear </text><rect x="680" y="146" width="20" height="20" ry="2" style="fill:rgb(255,238,101);stroke:none;fill-opacity:1;stroke-opacity:1;" /><text x="705" y="159" style="font-size:10px;fill:rgb(255,255,255);text-anchor:start;text-align:left;"> recursive </text><rect x="680" y="167" width="20" height="20" ry="2" style="fill:rgb(253,204,229);stroke:none;fill-opacity:1;stroke-opacity:1;" /><text x="705" y="180" style="font-size:10px;fill:rgb(255,255,255);text-anchor:start;text-align:left;"> wang </text><rect x="680" y="188" width="20" height="20" ry="2" style="fill:rgb(199,126,190);stroke:none;fill-opacity:1;stroke-opacity:1;" /><text x="705" y="201" style="font-size:10px;fill:rgb(255,255,255);text-anchor:start;text-align:left;"> wang-simd </text><rect x="680" y="209" width="20" height="20" ry="2" style="fill:rgb(120,68,33);stroke:none;fill-opacity:1;stroke-opacity:1;" /><text x="705" y="222" style="font-size:10px;fill:rgb(255,255,255);text-anchor:start;text-align:left;"> yzerman </text><rect x="680" y="230" width="20" height="20" ry="2" style="fill:rgb(200,113,55);stroke:none;fill-opacity:1;stroke-opacity:1;" /><text x="705" y="243" style="font-size:10px;fill:rgb(255,255,255);text-anchor:start;text-align:left;"> yzerman-simd </text><text x="400" y="30" style="font-size:20px;fill:rgb(255,255,255);text-anchor:middle;text-align:center;"> all dataset: cubic </text><text x="400" y="42" style="font-size:8px;fill:rgb(200,200,200);text-anchor:middle;text-align:center;"> Normalized performance score (lower is better) </text></svg>