<svg xmlns="http://www.w3.org/2000/svg" viewBox="0 0 800 300"><rect x="0" y="0" width="800" height="300" ry="6" style="fill:rgb(30,30,30);stroke:none;fill-opacity:1;stroke-opacity:1;" /><path d="M 30 20 L 30 270" style="stroke:rgb(200,200,200);stroke-width:1" /><path d="M 30 270 L 780 270" style="stroke:rgb(200,200,200);stroke-width:1" /><path d="M 780 270 L 780 272" style="stroke:rgb(200,200,200);stroke-width:1" /><text x="780" y="282" style="font-size:10px;fill:rgb(200,200,200);text-anchor:middle;text-align:center;"> 0.01 </text><path d="M 630.77246 270 L 630.77246 272" style="stroke:rgb(200,200,200);stroke-width:1" /><text x="630.77246" y="282" style="font-size:10px;fill:rgb(200,200,200);text-anchor:middle;text-align:center;"> 0.025 </text><path d="M 517.8862 270 L 517.8862 272" style="stroke:rgb(200,200,200);stroke-width:1" /><text x="517.8862" y="282" style="font-size:10px;fill:rgb(200,200,200);text-anchor:middle;text-align:center;"> 0.05 </text><path d="M 451.85202 270 L 451.85202 272" style="stroke:rgb(200,200,200);stroke-width:1" /><text x="451.85202" y="282" style="font-size:10px;fill:rgb(200,200,200);text-anchor:middle;text-align:center;"> 0.075 </text><path d="M 405 270 L 405 272" style="stroke:rgb(200,200,200);stroke-width:1" /><text x="405" y="282" style="font-size:10px;fill:rgb(200,200,200);text-anchor:middle;text-align:center;"> 0.1 </text><path d="M 338.96576 270 L 338.96576 272" style="stroke:rgb(200,200,200);stroke-width:1" /><text x="338.96576" y="282" style="font-size:10px;fill:rgb(200,200,200);text-anchor:middle;text-align:center;"> 0.15 </text><path d="M 292.11377 270 L 292.11377 272" style="stroke:rgb(200,200,200);stroke-width:1" /><text x="292.11377" y="282" style="font-size:10px;fill:rgb(200,200,200);text-anchor:middle;text-align:center;"> 0.2 </text><path d="M 255.7725 270 L 255.7725 272" style="stroke:rgb(200,200,200);stroke-width:1" /><text x="255.7725" y="282" style="font-size:10px;fill:rgb(200,200,200);text-anchor:middle;text-align:center;"> 0.25 </text><path d="M 142.88626 270 L 142.88626 272" style="stroke:rgb(200,200,200);stroke-width:1" /><text x="142.88626" y="282" style="font-size:10px;fill:rgb(200,200,200);text-anchor:middle;text-align:center;"> 0.5 </text><path d="M 30 270 L 30 272" style="stroke:rgb(200,200,200);stroke-width:1" /><text x="30" y="282" style="font-size:10px;fill:rgb(200,200,200);text-anchor:middle;text-align:center;"> 1 </text><path d="M 28 270 L 30 270" style="stroke:rgb(200,200,200);stroke-width:1" /><text x="26" y="274" style="font-size:10px;fill:rgb(200,200,200);text-anchor:end;text-align:right;"> 0 </text><path d="M 28 207.5 L 30 207.5" style="stroke:rgb(200,200,200);stroke-width:1" /><text x="26" y="211.5" style="font-size:10px;fill:rgb(200,200,200);text-anchor:end;text-align:right;"> 0.25 </text><path d="M 28 145 L 30 145" style="stroke:rgb(200,200,200);stroke-width:1" /><text x="26" y="149" style="font-size:10px;fill:rgb(200,200,200);text-anchor:end;text-align:right;"> 0.5 </text><path d="M 28 82.5 L 30 82.5" style="stroke:rgb(200,200,200);stroke-width:1" /><text x="26" y="86.5" style="font-size:10px;fill:rgb(200,200,200);text-anchor:end;text-align:right;"> 0.75 </text><path d="M 28 20 L 30 20" style="stroke:rgb(200,200,200);stroke-width:1" /><text x="26" y="24" style="font-size:10px;fill:rgb(200,200,200);text-anchor:end;text-align:right;"> 1 </text><text x="400" y="294" style="font-size:10px;fill:rgb(200,200,200);text-anchor:middle;text-align:center;"> Tolerance </text><circle cx="780" cy="20" r="2" style="fill:rgb(50,125,209);stroke:none;fill-opacity:1;stroke-opacity:1;" /><path d="M 780 20 L 630.77246 45.024994" style="stroke:rgb(50,125,209);stroke-width:1" /><circle cx="630.77246" cy="45.024994" r="2" style="fill:rgb(50,125,209);stroke:none;fill-opacity:1;stroke-opacity:1;" /><path d="M 630.77246 45.024994 L 517.8862 60.1425" style="stroke:rgb(50,125,209);stroke-width:1" /><circle cx="517.8862" cy="60.1425" r="2" style="fill:rgb(50,125,209);stroke:none;fill-opacity:1;stroke-opacity:1;" /><path d="M 517.8862 60.1425 L 451.85202 65.6375" style="stroke:rgb(50,125,209);stroke-width:1" /><circle cx="451.85202" cy="65.6375" r="2" style="fill:rgb(50,125,209);stroke:none;fill-opacity:1;stroke-opacity:1;" /><path d="M 451.85202 65.6375 L 405 69.5625" style="stroke:rgb(50,125,209);stroke-width:1" /><circle cx="405" cy="69.5625" r="2" style="fill:rgb(50,125,209);stroke:none;fill-opacity:1;stroke-opacity:1;" /><path d="M 405 69.5625 L 338.96576 74.5025" style="stroke:rgb(50,125,209);stroke-width:1" /><circle cx="338.96576" cy="74.5025" r="2" style="fill:rgb(50,125,209);stroke:none;fill-opacity:1;stroke-opacity:1;" /><path d="M 338.96576 74.5025 L 292.11377 75.3875" style="stroke:rgb(50,125,209);stroke-width:1" /><circle cx="292.11377" cy="75.3875" r="2" style="fill:rgb(50,125,209);stroke:none;fill-opacity:1;stroke-opacity:1;" /><path d="M 292.11377 75.3875 L 255.7725 77.2975" style="stroke:rgb(50,125,209);stroke-width:1" /><circle cx="255.7725" cy="77.2975" r="2" style="fill:rgb(50,125,209);stroke:none;fill-opacity:1;stroke-opacity:1;" /><path d="M 255.7725 77.2975 L 142.88626 79.535" style="stroke:rgb(50,125,209);stroke-width:1" /><circle cx="142.88626" cy="79.535" r="2" style="fill:rgb(50,125,209);stroke:none;fill-opacity:1;stroke-opacity:1;" /><path d="M 142.88626 79.535 L 30 79.985" style="stroke:rgb(50,125,209);stroke-width:1" /><circle cx="30" cy="79.985" r="2" style="fill:rgb(50,125,209);stroke:none;fill-opacity:1;stroke-opacity:1;" /><circle cx="780" cy="214.5175" r="2" style="fill:rgb(128,214,87);stroke:none;fill-opacity:1;stroke-opacity:1;" /><path d="M 780 214.5175 L 630.77246 237.3225" style="stroke:rgb(128,214,87);stroke-width:1" /><circle cx="630.77246" cy="237.3225" r="2" style="fill:rgb(128,214,87);stroke:none;fill-opacity:1;stroke-opacity:1;" /><path d="M 630.77246 237.3225 L 517.8862 245.725" style="stroke:rgb(128,214,87);stroke-width:1" /><circle cx="517.8862" cy="245.725" r="2" style="fill:rgb(128,214,87);stroke:none;fill-opacity:1;stroke-opacity:1;" /><path d="M 517.8862 245.725 L 451.85202 248.5375" style="stroke:rgb(128,214,87);stroke-width:1" /><circle cx="451.85202" cy="248.5375" r="2" style="fill:rgb(128,214,87);stroke:none;fill-opacity:1;stroke-opacity:1;" /><path d="M 451.85202 248.5375 L 405 249.99" style="stroke:rgb(128,214,87);stroke-width:1" /><circle cx="405" cy="249.99" r="2" style="fill:rgb(128,214,87);stroke:none;fill-opacity:1;stroke-opacity:1;" /><path d="M 405 249.99 L 338.96576 248.9125" style="stroke:rgb(128,214,87);stroke-width:1" /><circle cx="338.96576" cy="248.9125" r="2" style="fill:rgb(128,214,87);stroke:none;fill-opacity:1;stroke-opacity:1;" /><path d="M 338.96576 248.9125 L 292.11377 247.2875" style="stroke:rgb(128,214,87);stroke-width:1" /><circle cx="292.11377" cy="247.2875" r="2" style="fill:rgb(128,214,87);stroke:none;fill-opacity:1;stroke-opacity:1;" /><path d="M 292.11377 247.2875 L 255.7725 246.6975" style="stroke:rgb(128,214,87);stroke-width:1" /><circle cx="255.7725" cy="246.6975" r="2" style="fill:rgb(128,214,87);stroke:none;fill-opacity:1;stroke-opacity:1;" /><path d="M 255.7725 246.6975 L 142.88626 253.70999" style="stroke:rgb(128,214,87);stroke-width:1" /><circle cx="142.88626" cy="253.70999" r="2" style="fill:rgb(128,214,87);stroke:none;fill-opacity:1;stroke-opacity:1;" /><path d="M 142.88626 253.70999 L 30 259.8825" style="stroke:rgb(128,214,87);stroke-width:1" /><circle cx="30" cy="259.8825" r="2" style="fill:rgb(128,214,87);stroke:none;fill-opacity:1;stroke-opacity:1;" /><circle cx="780" cy="223.1825" r="2" style="fill:rgb(253,204,229);stroke:none;fill-opacity:1;stroke-opacity:1;" /><path d="M 780 223.1825 L 630.77246 234.3375" style="stroke:rgb(253,204,229);stroke-width:1" /><circle cx="630.77246" cy="234.3375" r="2" style="fill:rgb(253,204,229);stroke:none;fill-opacity:1;stroke-opacity:1;" /><path d="M 630.77246 234.3375 L 517.8862 240.675" style="stroke:rgb(253,204,229);stroke-width:1" /><circle cx="517.8862" cy="240.675" r="2" style="fill:rgb(253,204,229);stroke:none;fill-opacity:1;stroke-opacity:1;" /><path d="M 517.8862 240.675 L 451.85202 243.3925" style="stroke:rgb(253,204,229);stroke-width:1" /><circle cx="451.85202" cy="243.3925" r="2" style="fill:rgb(253,204,229);stroke:none;fill-opacity:1;stroke-opacity:1;" /><path d="M 451.85202 243.3925 L 405 245.10251" style="stroke:rgb(253,204,229);stroke-width:1" /><circle cx="405" cy="245.10251" r="2" style="fill:rgb(253,204,229);stroke:none;fill-opacity:1;stroke-opacity:1;" /><path d="M 405 245.10251 L 338.96576 247.93" style="stroke:rgb(253,204,229);stroke-width:1" /><circle cx="338.96576" cy="247.93" r="2" style="fill:rgb(253,204,229);stroke:none;fill-opacity:1;stroke-opacity:1;" /><path d="M 338.96576 247.93 L 292.11377 249.88" style="stroke:rgb(253,204,229);stroke-width:1" /><circle cx="292.11377" cy="249.88" r="2" style="fill:rgb(253,204,229);stroke:none;fill-opacity:1;stroke-opacity:1;" /><path d="M 292.11377 249.88 L 255.7725 250.795" style="stroke:rgb(253,204,229);stroke-width:1" /><circle cx="255.7725" cy="250.795" r="2" style="fill:rgb(253,204,229);stroke:none;fill-opacity:1;stroke-opacity:1;" /><path d="M 255.7725 250.795 L 142.88626 253.16501" style="stroke:rgb(253,204,229);stroke-width:1" /><circle cx="142.88626" cy="253.16501" r="2" style="fill:rgb(253,204,229);stroke:none;fill-opacity:1;stroke-opacity:1;" /><path d="M 142.88626 253.16501 L 30 253.9975" style="stroke:rgb(253,204,229);stroke-width:1" /><circle cx="30" cy="253.9975" r="2" style="fill:rgb(253,204,229);stroke:none;fill-opacity:1;stroke-opacity:1;" /><circle cx="780" cy="209.5575" r="2" style="fill:rgb(255,238,101);stroke:none;fill-opacity:1;stroke-opacity:1;" /><path d="M 780 209.5575 L 630.77246 235.68" style="stroke:rgb(255,238,101);stroke-width:1" /><circle cx="630.77246" cy="235.68" r="2" style="fill:rgb(255,238,101);stroke:none;fill-opacity:1;stroke-opacity:1;" /><path d="M 630.77246 235.68 L 517.8862 244.995" style="stroke:rgb(255,238,101);stroke-width:1" /><circle cx="517.8862" cy="244.995" r="2" style="fill:rgb(255,238,101);stroke:none;fill-opacity:1;stroke-opacity:1;" /><path d="M 517.8862 244.995 L 451.85202 249.32" style="stroke:rgb(255,238,101);stroke-width:1" /><circle cx="451.85202" cy="249.32" r="2" style="fill:rgb(255,238,101);stroke:none;fill-opacity:1;stroke-opacity:1;" /><path d="M 451.85202 249.32 L 405 251.4325" style="stroke:rgb(255,238,101);stroke-width:1" /><circle cx="405" cy="251.4325" r="2" style="fill:rgb(255,238,101);stroke:none;fill-opacity:1;stroke-opacity:1;" /><path d="M 405 251.4325 L 338.96576 253.41" style="stroke:rgb(255,238,101);stroke-width:1" /><circle cx="338.96576" cy="253.41" r="2" style="fill:rgb(255,238,101);stroke:none;fill-opacity:1;stroke-opacity:1;" /><path d="M 338.96576 253.41 L 292.11377 254.91" style="stroke:rgb(255,238,101);stroke-width:1" /><circle cx="292.11377" cy="254.91" r="2" style="fill:rgb(255,238,101);stroke:none;fill-opacity:1;stroke-opacity:1;" /><path d="M 292.11377 254.91 L 255.7725 256.2875" style="stroke:rgb(255,238,101);stroke-width:1" /><circle cx="255.7725" cy="256.2875" r="2" style="fill:rgb(255,238,101);stroke:none;fill-opacity:1;stroke-opacity:1;" /><path d="M 255.7725 256.2875 L 142.88626 261.3125" style="stroke:rgb(255,238,101);stroke-width:1" /><circle cx="142.88626" cy="261.3125" r="2" style="fill:rgb(255,238,101);stroke:none;fill-opacity:1;stroke-opacity:1;" /><path d="M 142.88626 261.3125 L 30 263.975" style="stroke:rgb(255,238,101);stroke-width:1" /><circle cx="30" cy="263.975" r="2" style="fill:rgb(255,238,101);stroke:none;fill-opacity:1;stroke-opacity:1;" /><circle cx="780" cy="176.215" r="2" style="fill:rgb(255,181,90);stroke:none;fill-opacity:1;stroke-opacity:1;" /><path d="M 780 176.215 L 630.77246 202.6575" style="stroke:rgb(255,181,90);stroke-width:1" /><circle cx="630.77246" cy="202.6575" r="2" style="fill:rgb(255,181,90);stroke:none;fill-opacity:1;stroke-opacity:1;" /><path d="M 630.77246 202.6575 L 517.8862 213.37" style="stroke:rgb(255,181,90);stroke-width:1" /><circle cx="517.8862" cy="213.37" r="2" style="fill:rgb(255,181,90);stroke:none;fill-opacity:1;stroke-opacity:1;" /><path d="M 517.8862 213.37 L 451.85202 217.7175" style="stroke:rgb(255,181,90);stroke-width:1" /><circle cx="451.85202" cy="217.7175" r="2" style="fill:rgb(255,181,90);stroke:none;fill-opacity:1;stroke-opacity:1;" /><path d="M 451.85202 217.7175 L 405 219.125" style="stroke:rgb(255,181,90);stroke-width:1" /><circle cx="405" cy="219.125" r="2" style="fill:rgb(255,181,90);stroke:none;fill-opacity:1;stroke-opacity:1;" /><path d="M 405 219.125 L 338.96576 220.43" style="stroke:rgb(255,181,90);stroke-width:1" /><circle cx="338.96576" cy="220.43" r="2" style="fill:rgb(255,181,90);stroke:none;fill-opacity:1;stroke-opacity:1;" /><path d="M 338.96576 220.43 L 292.11377 220.1225" style="stroke:rgb(255,181,90);stroke-width:1" /><circle cx="292.11377" cy="220.1225" r="2" style="fill:rgb(255,181,90);stroke:none;fill-opacity:1;stroke-opacity:1;" /><path d="M 292.11377 220.1225 L 255.7725 218.985" style="stroke:rgb(255,181,90);stroke-width:1" /><circle cx="255.7725" cy="218.985" r="2" style="fill:rgb(255,181,90);stroke:none;fill-opacity:1;stroke-opacity:1;" /><path d="M 255.7725 218.985 L 142.88626 224.52249" style="stroke:rgb(255,181,90);stroke-width:1" /><circle cx="142.88626" cy="224.52249" r="2" style="fill:rgb(255,181,90);stroke:none;fill-opacity:1;stroke-opacity:1;" /><path d="M 142.88626 224.52249 L 30 226.02249" style="stroke:rgb(255,181,90);stroke-width:1" /><circle cx="30" cy="226.02249" r="2" style="fill:rgb(255,181,90);stroke:none;fill-opacity:1;stroke-opacity:1;" /><circle cx="780" cy="225.66" r="2" style="fill:rgb(199,126,190);stroke:none;fill-opacity:1;stroke-opacity:1;" /><path d="M 780 225.66 L 630.77246 229.56" style="stroke:rgb(199,126,190);stroke-width:1" /><circle cx="630.77246" cy="229.56" r="2" style="fill:rgb(199,126,190);stroke:none;fill-opacity:1;stroke-opacity:1;" /><path d="M 630.77246 229.56 L 517.8862 231.47751" style="stroke:rgb(199,126,190);stroke-width:1" /><circle cx="517.8862" cy="231.47751" r="2" style="fill:rgb(199,126,190);stroke:none;fill-opacity:1;stroke-opacity:1;" /><path d="M 517.8862 231.47751 L 451.85202 234.2475" style="stroke:rgb(199,126,190);stroke-width:1" /><circle cx="451.85202" cy="234.2475" r="2" style="fill:rgb(199,126,190);stroke:none;fill-opacity:1;stroke-opacity:1;" /><path d="M 451.85202 234.2475 L 405 236.2925" style="stroke:rgb(199,126,190);stroke-width:1" /><circle cx="405" cy="236.2925" r="2" style="fill:rgb(199,126,190);stroke:none;fill-opacity:1;stroke-opacity:1;" /><path d="M 405 236.2925 L 338.96576 240.0725" style="stroke:rgb(199,126,190);stroke-width:1" /><circle cx="338.96576" cy="240.0725" r="2" style="fill:rgb(199,126,190);stroke:none;fill-opacity:1;stroke-opacity:1;" /><path d="M 338.96576 240.0725 L 292.11377 243.18" style="stroke:rgb(199,126,190);stroke-width:1" /><circle cx="292.11377" cy="243.18" r="2" style="fill:rgb(199,126,190);stroke:none;fill-opacity:1;stroke-opacity:1;" /><path d="M 292.11377 243.18 L 255.7725 244.755" style="stroke:rgb(199,126,190);stroke-width:1" /><circle cx="255.7725" cy="244.755" r="2" style="fill:rgb(199,126,190);stroke:none;fill-opacity:1;stroke-opacity:1;" /><path d="M 255.7725 244.755 L 142.88626 247.4225" style="stroke:rgb(199,126,190);stroke-width:1" /><circle cx="142.88626" cy="247.4225" r="2" style="fill:rgb(199,126,190);stroke:none;fill-opacity:1;stroke-opacity:1;" /><path d="M 142.88626 247.4225 L 30 248.5075" style="stroke:rgb(199,126,190);stroke-width:1" /><circle cx="30" cy="248.5075" r="2" style="fill:rgb(199,126,190);stroke:none;fill-opacity:1;stroke-opacity:1;" /><circle cx="780" cy="43.705" r="2" style="fill:rgb(126,176,213);stroke:none;fill-opacity:1;stroke-opacity:1;" /><path d="M 780 43.705 L 630.77246 59.2175" style="stroke:rgb(126,176,213);stroke-width:1" /><circle cx="630.77246" cy="59.2175" r="2" style="fill:rgb(126,176,213);stroke:none;fill-opacity:1;stroke-opacity:1;" /><path d="M 630.77246 59.2175 L 517.8862 68.32001" style="stroke:rgb(126,176,213);stroke-width:1" /><circle cx="517.8862" cy="68.32001" r="2" style="fill:rgb(126,176,213);stroke:none;fill-opacity:1;stroke-opacity:1;" /><path d="M 517.8862 68.32001 L 451.85202 72.705" style="stroke:rgb(126,176,213);stroke-width:1" /><circle cx="451.85202" cy="72.705" r="2" style="fill:rgb(126,176,213);stroke:none;fill-opacity:1;stroke-opacity:1;" /><path d="M 451.85202 72.705 L 405 74.66" style="stroke:rgb(126,176,213);stroke-width:1" /><circle cx="405" cy="74.66" r="2" style="fill:rgb(126,176,213);stroke:none;fill-opacity:1;stroke-opacity:1;" /><path d="M 405 74.66 L 338.96576 76.837494" style="stroke:rgb(126,176,213);stroke-width:1" /><circle cx="338.96576" cy="76.837494" r="2" style="fill:rgb(126,176,213);stroke:none;fill-opacity:1;stroke-opacity:1;" /><path d="M 338.96576 76.837494 L 292.11377 77.479996" style="stroke:rgb(126,176,213);stroke-width:1" /><circle cx="292.11377" cy="77.479996" r="2" style="fill:rgb(126,176,213);stroke:none;fill-opacity:1;stroke-opacity:1;" /><path d="M 292.11377 77.479996 L 255.7725 77.825" style="stroke:rgb(126,176,213);stroke-width:1" /><circle cx="255.7725" cy="77.825" r="2" style="fill:rgb(126,176,213);stroke:none;fill-opacity:1;stroke-opacity:1;" /><path d="M 255.7725 77.825 L 142.88626 78.7675" style="stroke:rgb(126,176,213);stroke-width:1" /><circle cx="142.88626" cy="78.7675" r="2" style="fill:rgb(126,176,213);stroke:none;fill-opacity:1;stroke-opacity:1;" /><path d="M 142.88626 78.7675 L 30 79.542496" style="stroke:rgb(126,176,213);stroke-width:1" /><circle cx="30" cy="79.542496" r="2" style="fill:rgb(126,176,213);stroke:none;fill-opacity:1;stroke-opacity:1;" /><circle cx="780" cy="172.43" r="2" style="fill:rgb(119,211,179);stroke:none;fill-opacity:1;stroke-opacity:1;" /><path d="M 780 172.43 L 630.77246 228.33" style="stroke:rgb(119,211,179);stroke-width:1" /><circle cx="630.77246" cy="228.33" r="2" style="fill:rgb(119,211,179);stroke:none;fill-opacity:1;stroke-opacity:1;" /><path d="M 630.77246 228.33 L 517.8862 243.9075" style="stroke:rgb(119,211,179);stroke-width:1" /><circle cx="517.8862" cy="243.9075" r="2" style="fill:rgb(119,211,179);stroke:none;fill-opacity:1;stroke-opacity:1;" /><path d="M 517.8862 243.9075 L 451.85202 247.61" style="stroke:rgb(119,211,179);stroke-width:1" /><circle cx="451.85202" cy="247.61" r="2" style="fill:rgb(119,211,179);stroke:none;fill-opacity:1;stroke-opacity:1;" /><path d="M 451.85202 247.61 L 405 248.89" style="stroke:rgb(119,211,179);stroke-width:1" /><circle cx="405" cy="248.89" r="2" style="fill:rgb(119,211,179);stroke:none;fill-opacity:1;stroke-opacity:1;" /><path d="M 405 248.89 L 338.96576 247.7225" style="stroke:rgb(119,211,179);stroke-width:1" /><circle cx="338.96576" cy="247.7225" r="2" style="fill:rgb(119,211,179);stroke:none;fill-opacity:1;stroke-opacity:1;" /><path d="M 338.96576 247.7225 L 292.11377 246.1" style="stroke:rgb(119,211,179);stroke-width:1" /><circle cx="292.11377" cy="246.1" r="2" style="fill:rgb(119,211,179);stroke:none;fill-opacity:1;stroke-opacity:1;" /><path d="M 292.11377 246.1 L 255.7725 245.4225" style="stroke:rgb(119,211,179);stroke-width:1" /><circle cx="255.7725" cy="245.4225" r="2" style="fill:rgb(119,211,179);stroke:none;fill-opacity:1;stroke-opacity:1;" /><path d="M 255.7725 245.4225 L 142.88626 252.63" style="stroke:rgb(119,211,179);stroke-width:1" /><circle cx="142.88626" cy="252.63" r="2" style="fill:rgb(119,211,179);stroke:none;fill-opacity:1;stroke-opacity:1;" /><path d="M 142.88626 252.63 L 30 259.0625" style="stroke:rgb(119,211,179);stroke-width:1" /><circle cx="30" cy="259.0625" r="2" style="fill:rgb(119,211,179);stroke:none;fill-opacity:1;stroke-opacity:1;" /><circle cx="780" cy="128.835" r="2" style="fill:rgb(120,68,33);stroke:none;fill-opacity:1;stroke-opacity:1;" /><path d="M 780 128.835 L 630.77246 148.905" style="stroke:rgb(120,68,33);stroke-width:1" /><circle cx="630.77246" cy="148.905" r="2" style="fill:rgb(120,68,33);stroke:none;fill-opacity:1;stroke-opacity:1;" /><path d="M 630.77246 148.905 L 517.8862 161.3825" style="stroke:rgb(120,68,33);stroke-width:1" /><circle cx="517.8862" cy="161.3825" r="2" style="fill:rgb(120,68,33);stroke:none;fill-opacity:1;stroke-opacity:1;" /><path d="M 517.8862 161.3825 L 451.85202 166.28" style="stroke:rgb(120,68,33);stroke-width:1" /><circle cx="451.85202" cy="166.28" r="2" style="fill:rgb(120,68,33);stroke:none;fill-opacity:1;stroke-opacity:1;" /><path d="M 451.85202 166.28 L 405 168.4875" style="stroke:rgb(120,68,33);stroke-width:1" /><circle cx="405" cy="168.4875" r="2" style="fill:rgb(120,68,33);stroke:none;fill-opacity:1;stroke-opacity:1;" /><path d="M 405 168.4875 L 338.96576 171.04001" style="stroke:rgb(120,68,33);stroke-width:1" /><circle cx="338.96576" cy="171.04001" r="2" style="fill:rgb(120,68,33);stroke:none;fill-opacity:1;stroke-opacity:1;" /><path d="M 338.96576 171.04001 L 292.11377 171.12" style="stroke:rgb(120,68,33);stroke-width:1" /><circle cx="292.11377" cy="171.12" r="2" style="fill:rgb(120,68,33);stroke:none;fill-opacity:1;stroke-opacity:1;" /><path d="M 292.11377 171.12 L 255.7725 171.3075" style="stroke:rgb(120,68,33);stroke-width:1" /><circle cx="255.7725" cy="171.3075" r="2" style="fill:rgb(120,68,33);stroke:none;fill-opacity:1;stroke-opacity:1;" /><path d="M 255.7725 171.3075 L 142.88626 172.3825" style="stroke:rgb(120,68,33);stroke-width:1" /><circle cx="142.88626" cy="172.3825" r="2" style="fill:rgb(120,68,33);stroke:none;fill-opacity:1;stroke-opacity:1;" /><path d="M 142.88626 172.3825 L 30 171.43" style="stroke:rgb(120,68,33);stroke-width:1" /><circle cx="30" cy="171.43" r="2" style="fill:rgb(120,68,33);stroke:none;fill-opacity:1;stroke-opacity:1;" /><circle cx="780" cy="111.845" r="2" style="fill:rgb(200,113,55);stroke:none;fill-opacity:1;stroke-opacity:1;" /><path d="M 780 111.845 L 630.77246 121.45" style="stroke:rgb(200,113,55);stroke-width:1" /><circle cx="630.77246" cy="121.45" r="2" style="fill:rgb(200,113,55);stroke:none;fill-opacity:1;stroke-opacity:1;" /><path d="M 630.77246 121.45 L 517.8862 133.37" style="stroke:rgb(200,113,55);stroke-width:1" /><circle cx="517.8862" cy="133.37" r="2" style="fill:rgb(200,113,55);stroke:none;fill-opacity:1;stroke-opacity:1;" /><path d="M 517.8862 133.37 L 451.85202 140.0925" style="stroke:rgb(200,113,55);stroke-width:1" /><circle cx="451.85202" cy="140.0925" r="2" style="fill:rgb(200,113,55);stroke:none;fill-opacity:1;stroke-opacity:1;" /><path d="M 451.85202 140.0925 L 405 144.05" style="stroke:rgb(200,113,55);stroke-width:1" /><circle cx="405" cy="144.05" r="2" style="fill:rgb(200,113,55);stroke:none;fill-opacity:1;stroke-opacity:1;" /><path d="M 405 144.05 L 338.96576 148.9" style="stroke:rgb(200,113,55);stroke-width:1" /><circle cx="338.96576" cy="148.9" r="2" style="fill:rgb(200,113,55);stroke:none;fill-opacity:1;stroke-opacity:1;" /><path d="M 338.96576 148.9 L 292.11377 150.58499" style="stroke:rgb(200,113,55);stroke-width:1" /><circle cx="292.11377" cy="150.58499" r="2" style="fill:rgb(200,113,55);stroke:none;fill-opacity:1;stroke-opacity:1;" /><path d="M 292.11377 150.58499 L 255.7725 150.44" style="stroke:rgb(200,113,55);stroke-width:1" /><circle cx="255.7725" cy="150.44" r="2" style="fill:rgb(200,113,55);stroke:none;fill-opacity:1;stroke-opacity:1;" /><path d="M 255.7725 150.44 L 142.88626 152.08499" style="stroke:rgb(200,113,55);stroke-width:1" /><circle cx="142.88626" cy="152.08499" r="2" style="fill:rgb(200,113,55);stroke:none;fill-opacity:1;stroke-opacity:1;" /><path d="M 142.88626 152.08499 L 30 152.5325" style="stroke:rgb(200,113,55);stroke-width:1" /><circle cx="30" cy="152.5325" r="2" style="fill:rgb(200,113,55);stroke:none;fill-opacity:1;stroke-opacity:1;" /><circle cx="780" cy="219.1525" r="2" style="fill:rgb(253,127,111);stroke:none;fill-opacity:1;stroke-opacity:1;" /><path d="M 780 219.1525 L 630.77246 228.83499" style="stroke:rgb(253,127,111);stroke-width:1" /><circle cx="630.77246" cy="228.83499" r="2" style="fill:rgb(253,127,111);stroke:none;fill-opacity:1;stroke-opacity:1;" /><path d="M 630.77246 228.83499 L 517.8862 233.7625" style="stroke:rgb(253,127,111);stroke-width:1" /><circle cx="517.8862" cy="233.7625" r="2" style="fill:rgb(253,127,111);stroke:none;fill-opacity:1;stroke-opacity:1;" /><path d="M 517.8862 233.7625 L 451.85202 237.1525" style="stroke:rgb(253,127,111);stroke-width:1" /><circle cx="451.85202" cy="237.1525" r="2" style="fill:rgb(253,127,111);stroke:none;fill-opacity:1;stroke-opacity:1;" /><path d="M 451.85202 237.1525 L 405 239.86" style="stroke:rgb(253,127,111);stroke-width:1" /><circle cx="405" cy="239.86" r="2" style="fill:rgb(253,127,111);stroke:none;fill-opacity:1;stroke-opacity:1;" /><path d="M 405 239.86 L 338.96576 243.9175" style="stroke:rgb(253,127,111);stroke-width:1" /><circle cx="338.96576" cy="243.9175" r="2" style="fill:rgb(253,127,111);stroke:none;fill-opacity:1;stroke-opacity:1;" /><path d="M 338.96576 243.9175 L 292.11377 246.6225" style="stroke:rgb(253,127,111);stroke-width:1" /><circle cx="292.11377" cy="246.6225" r="2" style="fill:rgb(253,127,111);stroke:none;fill-opacity:1;stroke-opacity:1;" /><path d="M 292.11377 246.6225 L 255.7725 248.2425" style="stroke:rgb(253,127,111);stroke-width:1" /><circle cx="255.7725" cy="248.2425" r="2" style="fill:rgb(253,127,111);stroke:none;fill-opacity:1;stroke-opacity:1;" /><path d="M 255.7725 248.2425 L 142.88626 250.9175" style="stroke:rgb(253,127,111);stroke-width:1" /><circle cx="142.88626" cy="250.9175" r="2" style="fill:rgb(253,127,111);stroke:none;fill-opacity:1;stroke-opacity:1;" /><path d="M 142.88626 250.9175 L 30 251.9225" style="stroke:rgb(253,127,111);stroke-width:1" /><circle cx="30" cy="251.9225" r="2" style="fill:rgb(253,127,111);stroke:none;fill-opacity:1;stroke-opacity:1;" /><rect x="676" y="16" width="80" height="238" ry="4" style="fill:rgb(30,30,30);stroke:none;fill-opacity:0.8;stroke-opacity:1;" /><rect x="680" y="20" width="20" height="20" ry="2" style="fill:rgb(253,127,111);stroke:none;fill-opacity:1;stroke-opacity:1;" /><text x="705" y="33" style="font-size:10px;fill:rgb(255,255,255);text-anchor:start;text-align:left;"> fwd-diff </text><rect x="680" y="41" width="20" height="20" ry="2" style="fill:rgb(255,181,90);stroke:none;fill-opacity:1;stroke-opacity:1;" /><text x="705" y="54" style="font-size:10px;fill:rgb(255,255,255);text-anchor:start;text-align:left;"> hain </text><rect x="680" y="62" width="20" height="20" ry="2" style="fill:rgb(50,125,209);stroke:none;fill-opacity:1;stroke-opacity:1;" /><text x="705" y="75" style="font-size:10px;fill:rgb(255,255,255);text-anchor:start;text-align:left;"> levien </text><rect x="680" y="83" width="20" height="20" ry="2" style="fill:rgb(119,211,179);stroke:none;fill-opacity:1;stroke-opacity:1;" /><text x="705" y="96" style="font-size:10px;fill:rgb(255,255,255);text-anchor:start;text-align:left;"> levien-linear </text><rect x="680" y="104" width="20" height="20" ry="2" style="fill:rgb(126,176,213);stroke:none;fill-opacity:1;stroke-opacity:1;" /><text x="705" y="117" style="font-size:10px;fill:rgb(255,255,255);text-anchor:start;text-align:left;"> levien-simd </text><rect x="680" y="125" width="20" height="20" ry="2" style="fill:rgb(128,214,87);stroke:none;fill-opacity:1;stroke-opacity:1;" /><text x="705" y="138" style="font-size:10px;fill:rgb(255,255,255);text-anchor:start;text-align:left;"> linear </text><rect x="680" y="146" width="20" height="20" ry="2" style="fill:rgb(255,238,101);stroke:none;fill-opacity:1;stroke-opacity:1;" /><text x="705" y="159" style="font-size:10px;fill:rgb(255,255,255);text-anchor:start;text-align:left;"> recursive </text><rect x="680" y="167" width="20" height="20" ry="2" style="fill:rgb(253,204,229);stroke:none;fill-opacity:1;stroke-opacity:1;" /><text x="705" y="180" style="font-size:10px;fill:rgb(255,255,255);text-anchor:start;text-align:left;"> wang </text><rect x="680" y="188" width="20" height="20" ry="2" style="fill:rgb(199,126,190);stroke:none;fill-opacity:1;stroke-opacity:1;" /><text x="705" y="201" style="font-size:10px;fill:rgb(255,255,255);text-anchor:start;text-align:left;"> wang-simd </text><rect x="680" y="209" width="20" height="20" ry="2" style="fill:rgb(120,68,33);stroke:none;fill-opacity:1;stroke-opacity:1;" /><text x="705" y="222" style="font-size:10px;fill:rgb(255,255,255);text-anchor:start;text-align:left;"> yzerman </text><rect x="680" y="230" width="20" height="20" ry="2" style="fill:rgb(200,113,55);stroke:none;fill-opacity:1;stroke-opacity:1;" /><text x="705" y="243" style="font-size:10px;fill:rgb(255,255,255);text-anchor:start;text-align:left;"> yzerman-simd </text><text x="400" y="30" style="font-size:20px;fill:rgb(255,255,255);text-anchor:middle;text-align:center;"> font dataset: cubic </text><text x="400" y="42" style="font-size:8px;fill:rgb(200,200,200);text-anchor:middle;text-align:center;"> Normalized performance score (lower is better) </text></svg>