<svg xmlns="http://www.w3.org/2000/svg" viewBox="0 0 800 300"><rect x="0" y="0" width="800" height="300" ry="6" style="fill:rgb(30,30,30);stroke:none;fill-opacity:1;stroke-opacity:1;" /><path d="M 30 20 L 30 270" style="stroke:rgb(200,200,200);stroke-width:1" /><path d="M 30 270 L 780 270" style="stroke:rgb(200,200,200);stroke-width:1" /><path d="M 780 270 L 780 272" style="stroke:rgb(200,200,200);stroke-width:1" /><text x="780" y="282" style="font-size:10px;fill:rgb(200,200,200);text-anchor:middle;text-align:center;"> 0.01 </text><path d="M 630.77246 270 L 630.77246 272" style="stroke:rgb(200,200,200);stroke-width:1" /><text x="630.77246" y="282" style="font-size:10px;fill:rgb(200,200,200);text-anchor:middle;text-align:center;"> 0.025 </text><path d="M 517.8862 270 L 517.8862 272" style="stroke:rgb(200,200,200);stroke-width:1" /><text x="517.8862" y="282" style="font-size:10px;fill:rgb(200,200,200);text-anchor:middle;text-align:center;"> 0.05 </text><path d="M 451.85202 270 L 451.85202 272" style="stroke:rgb(200,200,200);stroke-width:1" /><text x="451.85202" y="282" style="font-size:10px;fill:rgb(200,200,200);text-anchor:middle;text-align:center;"> 0.075 </text><path d="M 405 270 L 405 272" style="stroke:rgb(200,200,200);stroke-width:1" /><text x="405" y="282" style="font-size:10px;fill:rgb(200,200,200);text-anchor:middle;text-align:center;"> 0.1 </text><path d="M 338.96576 270 L 338.96576 272" style="stroke:rgb(200,200,200);stroke-width:1" /><text x="338.96576" y="282" style="font-size:10px;fill:rgb(200,200,200);text-anchor:middle;text-align:center;"> 0.15 </text><path d="M 292.11377 270 L 292.11377 272" style="stroke:rgb(200,200,200);stroke-width:1" /><text x="292.11377" y="282" style="font-size:10px;fill:rgb(200,200,200);text-anchor:middle;text-align:center;"> 0.2 </text><path d="M 255.7725 270 L 255.7725 272" style="stroke:rgb(200,200,200);stroke-width:1" /><text x="255.7725" y="282" style="font-size:10px;fill:rgb(200,200,200);text-anchor:middle;text-align:center;"> 0.25 </text><path d="M 142.88626 270 L 142.88626 272" style="stroke:rgb(200,200,200);stroke-width:1" /><text x="142.88626" y="282" style="font-size:10px;fill:rgb(200,200,200);text-anchor:middle;text-align:center;"> 0.5 </text><path d="M 30 270 L 30 272" style="stroke:rgb(200,200,200);stroke-width:1" /><text x="30" y="282" style="font-size:10px;fill:rgb(200,200,200);text-anchor:middle;text-align:center;"> 1 </text><path d="M 28 270 L 30 270" style="stroke:rgb(200,200,200);stroke-width:1" /><text x="26" y="274" style="font-size:10px;fill:rgb(200,200,200);text-anchor:end;text-align:right;"> 0 </text><path d="M 28 207.5 L 30 207.5" style="stroke:rgb(200,200,200);stroke-width:1" /><text x="26" y="211.5" style="font-size:10px;fill:rgb(200,200,200);text-anchor:end;text-align:right;"> 0.25 </text><path d="M 28 145 L 30 145" style="stroke:rgb(200,200,200);stroke-width:1" /><text x="26" y="149" style="font-size:10px;fill:rgb(200,200,200);text-anchor:end;text-align:right;"> 0.5 </text><path d="M 28 82.5 L 30 82.5" style="stroke:rgb(200,200,200);stroke-width:1" /><text x="26" y="86.5" style="font-size:10px;fill:rgb(200,200,200);text-anchor:end;text-align:right;"> 0.75 </text><path d="M 28 20 L 30 20" style="stroke:rgb(200,200,200);stroke-width:1" /><text x="26" y="24" style="font-size:10px;fill:rgb(200,200,200);text-anchor:end;text-align:right;"> 1 </text><text x="400" y="294" style="font-size:10px;fill:rgb(200,200,200);text-anchor:middle;text-align:center;"> Tolerance </text><circle cx="780" cy="22.092499" r="2" style="fill:rgb(128,214,87);stroke:none;fill-opacity:1;stroke-opacity:1;" /><path d="M 780 22.092499 L 630.77246 119.432495" style="stroke:rgb(128,214,87);stroke-width:1" /><circle cx="630.77246" cy="119.432495" r="2" style="fill:rgb(128,214,87);stroke:none;fill-opacity:1;stroke-opacity:1;" /><path d="M 630.77246 119.432495 L 517.8862 171.64499" style="stroke:rgb(128,214,87);stroke-width:1" /><circle cx="517.8862" cy="171.64499" r="2" style="fill:rgb(128,214,87);stroke:none;fill-opacity:1;stroke-opacity:1;" /><path d="M 517.8862 171.64499 L 451.85202 196.8175" style="stroke:rgb(128,214,87);stroke-width:1" /><circle cx="451.85202" cy="196.8175" r="2" style="fill:rgb(128,214,87);stroke:none;fill-opacity:1;stroke-opacity:1;" /><path d="M 451.85202 196.8175 L 405 211.3625" style="stroke:rgb(128,214,87);stroke-width:1" /><circle cx="405" cy="211.3625" r="2" style="fill:rgb(128,214,87);stroke:none;fill-opacity:1;stroke-opacity:1;" /><path d="M 405 211.3625 L 338.96576 229.3475" style="stroke:rgb(128,214,87);stroke-width:1" /><circle cx="338.96576" cy="229.3475" r="2" style="fill:rgb(128,214,87);stroke:none;fill-opacity:1;stroke-opacity:1;" /><path d="M 338.96576 229.3475 L 292.11377 238.2" style="stroke:rgb(128,214,87);stroke-width:1" /><circle cx="292.11377" cy="238.2" r="2" style="fill:rgb(128,214,87);stroke:none;fill-opacity:1;stroke-opacity:1;" /><path d="M 292.11377 238.2 L 255.7725 242.8" style="stroke:rgb(128,214,87);stroke-width:1" /><circle cx="255.7725" cy="242.8" r="2" style="fill:rgb(128,214,87);stroke:none;fill-opacity:1;stroke-opacity:1;" /><path d="M 255.7725 242.8 L 142.88626 252.805" style="stroke:rgb(128,214,87);stroke-width:1" /><circle cx="142.88626" cy="252.805" r="2" style="fill:rgb(128,214,87);stroke:none;fill-opacity:1;stroke-opacity:1;" /><path d="M 142.88626 252.805 L 30 257.415" style="stroke:rgb(128,214,87);stroke-width:1" /><circle cx="30" cy="257.415" r="2" style="fill:rgb(128,214,87);stroke:none;fill-opacity:1;stroke-opacity:1;" /><circle cx="780" cy="20" r="2" style="fill:rgb(50,125,209);stroke:none;fill-opacity:1;stroke-opacity:1;" /><path d="M 780 20 L 630.77246 59.589996" style="stroke:rgb(50,125,209);stroke-width:1" /><circle cx="630.77246" cy="59.589996" r="2" style="fill:rgb(50,125,209);stroke:none;fill-opacity:1;stroke-opacity:1;" /><path d="M 630.77246 59.589996 L 517.8862 83.85249" style="stroke:rgb(50,125,209);stroke-width:1" /><circle cx="517.8862" cy="83.85249" r="2" style="fill:rgb(50,125,209);stroke:none;fill-opacity:1;stroke-opacity:1;" /><path d="M 517.8862 83.85249 L 451.85202 99.0175" style="stroke:rgb(50,125,209);stroke-width:1" /><circle cx="451.85202" cy="99.0175" r="2" style="fill:rgb(50,125,209);stroke:none;fill-opacity:1;stroke-opacity:1;" /><path d="M 451.85202 99.0175 L 405 108.630005" style="stroke:rgb(50,125,209);stroke-width:1" /><circle cx="405" cy="108.630005" r="2" style="fill:rgb(50,125,209);stroke:none;fill-opacity:1;stroke-opacity:1;" /><path d="M 405 108.630005 L 338.96576 123.619995" style="stroke:rgb(50,125,209);stroke-width:1" /><circle cx="338.96576" cy="123.619995" r="2" style="fill:rgb(50,125,209);stroke:none;fill-opacity:1;stroke-opacity:1;" /><path d="M 338.96576 123.619995 L 292.11377 134.11" style="stroke:rgb(50,125,209);stroke-width:1" /><circle cx="292.11377" cy="134.11" r="2" style="fill:rgb(50,125,209);stroke:none;fill-opacity:1;stroke-opacity:1;" /><path d="M 292.11377 134.11 L 255.7725 142.48248" style="stroke:rgb(50,125,209);stroke-width:1" /><circle cx="255.7725" cy="142.48248" r="2" style="fill:rgb(50,125,209);stroke:none;fill-opacity:1;stroke-opacity:1;" /><path d="M 255.7725 142.48248 L 142.88626 161.95749" style="stroke:rgb(50,125,209);stroke-width:1" /><circle cx="142.88626" cy="161.95749" r="2" style="fill:rgb(50,125,209);stroke:none;fill-opacity:1;stroke-opacity:1;" /><path d="M 142.88626 161.95749 L 30 172.845" style="stroke:rgb(50,125,209);stroke-width:1" /><circle cx="30" cy="172.845" r="2" style="fill:rgb(50,125,209);stroke:none;fill-opacity:1;stroke-opacity:1;" /><circle cx="780" cy="48.4525" r="2" style="fill:rgb(255,238,101);stroke:none;fill-opacity:1;stroke-opacity:1;" /><path d="M 780 48.4525 L 630.77246 122.744995" style="stroke:rgb(255,238,101);stroke-width:1" /><circle cx="630.77246" cy="122.744995" r="2" style="fill:rgb(255,238,101);stroke:none;fill-opacity:1;stroke-opacity:1;" /><path d="M 630.77246 122.744995 L 517.8862 166.45999" style="stroke:rgb(255,238,101);stroke-width:1" /><circle cx="517.8862" cy="166.45999" r="2" style="fill:rgb(255,238,101);stroke:none;fill-opacity:1;stroke-opacity:1;" /><path d="M 517.8862 166.45999 L 451.85202 185.08499" style="stroke:rgb(255,238,101);stroke-width:1" /><circle cx="451.85202" cy="185.08499" r="2" style="fill:rgb(255,238,101);stroke:none;fill-opacity:1;stroke-opacity:1;" /><path d="M 451.85202 185.08499 L 405 198.435" style="stroke:rgb(255,238,101);stroke-width:1" /><circle cx="405" cy="198.435" r="2" style="fill:rgb(255,238,101);stroke:none;fill-opacity:1;stroke-opacity:1;" /><path d="M 405 198.435 L 338.96576 216.09" style="stroke:rgb(255,238,101);stroke-width:1" /><circle cx="338.96576" cy="216.09" r="2" style="fill:rgb(255,238,101);stroke:none;fill-opacity:1;stroke-opacity:1;" /><path d="M 338.96576 216.09 L 292.11377 226.06" style="stroke:rgb(255,238,101);stroke-width:1" /><circle cx="292.11377" cy="226.06" r="2" style="fill:rgb(255,238,101);stroke:none;fill-opacity:1;stroke-opacity:1;" /><path d="M 292.11377 226.06 L 255.7725 232.5775" style="stroke:rgb(255,238,101);stroke-width:1" /><circle cx="255.7725" cy="232.5775" r="2" style="fill:rgb(255,238,101);stroke:none;fill-opacity:1;stroke-opacity:1;" /><path d="M 255.7725 232.5775 L 142.88626 247.85251" style="stroke:rgb(255,238,101);stroke-width:1" /><circle cx="142.88626" cy="247.85251" r="2" style="fill:rgb(255,238,101);stroke:none;fill-opacity:1;stroke-opacity:1;" /><path d="M 142.88626 247.85251 L 30 254.6325" style="stroke:rgb(255,238,101);stroke-width:1" /><circle cx="30" cy="254.6325" r="2" style="fill:rgb(255,238,101);stroke:none;fill-opacity:1;stroke-opacity:1;" /><circle cx="780" cy="169.3875" r="2" style="fill:rgb(253,127,111);stroke:none;fill-opacity:1;stroke-opacity:1;" /><path d="M 780 169.3875 L 630.77246 180.4025" style="stroke:rgb(253,127,111);stroke-width:1" /><circle cx="630.77246" cy="180.4025" r="2" style="fill:rgb(253,127,111);stroke:none;fill-opacity:1;stroke-opacity:1;" /><path d="M 630.77246 180.4025 L 517.8862 193.31" style="stroke:rgb(253,127,111);stroke-width:1" /><circle cx="517.8862" cy="193.31" r="2" style="fill:rgb(253,127,111);stroke:none;fill-opacity:1;stroke-opacity:1;" /><path d="M 517.8862 193.31 L 451.85202 203.98999" style="stroke:rgb(253,127,111);stroke-width:1" /><circle cx="451.85202" cy="203.98999" r="2" style="fill:rgb(253,127,111);stroke:none;fill-opacity:1;stroke-opacity:1;" /><path d="M 451.85202 203.98999 L 405 210.2" style="stroke:rgb(253,127,111);stroke-width:1" /><circle cx="405" cy="210.2" r="2" style="fill:rgb(253,127,111);stroke:none;fill-opacity:1;stroke-opacity:1;" /><path d="M 405 210.2 L 338.96576 221.7425" style="stroke:rgb(253,127,111);stroke-width:1" /><circle cx="338.96576" cy="221.7425" r="2" style="fill:rgb(253,127,111);stroke:none;fill-opacity:1;stroke-opacity:1;" /><path d="M 338.96576 221.7425 L 292.11377 228.0825" style="stroke:rgb(253,127,111);stroke-width:1" /><circle cx="292.11377" cy="228.0825" r="2" style="fill:rgb(253,127,111);stroke:none;fill-opacity:1;stroke-opacity:1;" /><path d="M 292.11377 228.0825 L 255.7725 231.4825" style="stroke:rgb(253,127,111);stroke-width:1" /><circle cx="255.7725" cy="231.4825" r="2" style="fill:rgb(253,127,111);stroke:none;fill-opacity:1;stroke-opacity:1;" /><path d="M 255.7725 231.4825 L 142.88626 240.89749" style="stroke:rgb(253,127,111);stroke-width:1" /><circle cx="142.88626" cy="240.89749" r="2" style="fill:rgb(253,127,111);stroke:none;fill-opacity:1;stroke-opacity:1;" /><path d="M 142.88626 240.89749 L 30 246.4575" style="stroke:rgb(253,127,111);stroke-width:1" /><circle cx="30" cy="246.4575" r="2" style="fill:rgb(253,127,111);stroke:none;fill-opacity:1;stroke-opacity:1;" /><circle cx="780" cy="168.2775" r="2" style="fill:rgb(253,204,229);stroke:none;fill-opacity:1;stroke-opacity:1;" /><path d="M 780 168.2775 L 630.77246 178.36499" style="stroke:rgb(253,204,229);stroke-width:1" /><circle cx="630.77246" cy="178.36499" r="2" style="fill:rgb(253,204,229);stroke:none;fill-opacity:1;stroke-opacity:1;" /><path d="M 630.77246 178.36499 L 517.8862 191.805" style="stroke:rgb(253,204,229);stroke-width:1" /><circle cx="517.8862" cy="191.805" r="2" style="fill:rgb(253,204,229);stroke:none;fill-opacity:1;stroke-opacity:1;" /><path d="M 517.8862 191.805 L 451.85202 202.67749" style="stroke:rgb(253,204,229);stroke-width:1" /><circle cx="451.85202" cy="202.67749" r="2" style="fill:rgb(253,204,229);stroke:none;fill-opacity:1;stroke-opacity:1;" /><path d="M 451.85202 202.67749 L 405 207.755" style="stroke:rgb(253,204,229);stroke-width:1" /><circle cx="405" cy="207.755" r="2" style="fill:rgb(253,204,229);stroke:none;fill-opacity:1;stroke-opacity:1;" /><path d="M 405 207.755 L 338.96576 215.3075" style="stroke:rgb(253,204,229);stroke-width:1" /><circle cx="338.96576" cy="215.3075" r="2" style="fill:rgb(253,204,229);stroke:none;fill-opacity:1;stroke-opacity:1;" /><path d="M 338.96576 215.3075 L 292.11377 220.84" style="stroke:rgb(253,204,229);stroke-width:1" /><circle cx="292.11377" cy="220.84" r="2" style="fill:rgb(253,204,229);stroke:none;fill-opacity:1;stroke-opacity:1;" /><path d="M 292.11377 220.84 L 255.7725 223.4425" style="stroke:rgb(253,204,229);stroke-width:1" /><circle cx="255.7725" cy="223.4425" r="2" style="fill:rgb(253,204,229);stroke:none;fill-opacity:1;stroke-opacity:1;" /><path d="M 255.7725 223.4425 L 142.88626 235.41501" style="stroke:rgb(253,204,229);stroke-width:1" /><circle cx="142.88626" cy="235.41501" r="2" style="fill:rgb(253,204,229);stroke:none;fill-opacity:1;stroke-opacity:1;" /><path d="M 142.88626 235.41501 L 30 244.295" style="stroke:rgb(253,204,229);stroke-width:1" /><circle cx="30" cy="244.295" r="2" style="fill:rgb(253,204,229);stroke:none;fill-opacity:1;stroke-opacity:1;" /><circle cx="780" cy="131.5325" r="2" style="fill:rgb(126,176,213);stroke:none;fill-opacity:1;stroke-opacity:1;" /><path d="M 780 131.5325 L 630.77246 141.6625" style="stroke:rgb(126,176,213);stroke-width:1" /><circle cx="630.77246" cy="141.6625" r="2" style="fill:rgb(126,176,213);stroke:none;fill-opacity:1;stroke-opacity:1;" /><path d="M 630.77246 141.6625 L 517.8862 155.185" style="stroke:rgb(126,176,213);stroke-width:1" /><circle cx="517.8862" cy="155.185" r="2" style="fill:rgb(126,176,213);stroke:none;fill-opacity:1;stroke-opacity:1;" /><path d="M 517.8862 155.185 L 451.85202 166.63501" style="stroke:rgb(126,176,213);stroke-width:1" /><circle cx="451.85202" cy="166.63501" r="2" style="fill:rgb(126,176,213);stroke:none;fill-opacity:1;stroke-opacity:1;" /><path d="M 451.85202 166.63501 L 405 175.405" style="stroke:rgb(126,176,213);stroke-width:1" /><circle cx="405" cy="175.405" r="2" style="fill:rgb(126,176,213);stroke:none;fill-opacity:1;stroke-opacity:1;" /><path d="M 405 175.405 L 338.96576 187.9075" style="stroke:rgb(126,176,213);stroke-width:1" /><circle cx="338.96576" cy="187.9075" r="2" style="fill:rgb(126,176,213);stroke:none;fill-opacity:1;stroke-opacity:1;" /><path d="M 338.96576 187.9075 L 292.11377 196.1525" style="stroke:rgb(126,176,213);stroke-width:1" /><circle cx="292.11377" cy="196.1525" r="2" style="fill:rgb(126,176,213);stroke:none;fill-opacity:1;stroke-opacity:1;" /><path d="M 292.11377 196.1525 L 255.7725 200.2525" style="stroke:rgb(126,176,213);stroke-width:1" /><circle cx="255.7725" cy="200.2525" r="2" style="fill:rgb(126,176,213);stroke:none;fill-opacity:1;stroke-opacity:1;" /><path d="M 255.7725 200.2525 L 142.88626 213.7125" style="stroke:rgb(126,176,213);stroke-width:1" /><circle cx="142.88626" cy="213.7125" r="2" style="fill:rgb(126,176,213);stroke:none;fill-opacity:1;stroke-opacity:1;" /><path d="M 142.88626 213.7125 L 30 220.975" style="stroke:rgb(126,176,213);stroke-width:1" /><circle cx="30" cy="220.975" r="2" style="fill:rgb(126,176,213);stroke:none;fill-opacity:1;stroke-opacity:1;" /><rect x="676" y="16" width="80" height="133" ry="4" style="fill:rgb(30,30,30);stroke:none;fill-opacity:0.8;stroke-opacity:1;" /><rect x="680" y="20" width="20" height="20" ry="2" style="fill:rgb(253,127,111);stroke:none;fill-opacity:1;stroke-opacity:1;" /><text x="705" y="33" style="font-size:10px;fill:rgb(255,255,255);text-anchor:start;text-align:left;"> fwd-diff </text><rect x="680" y="41" width="20" height="20" ry="2" style="fill:rgb(50,125,209);stroke:none;fill-opacity:1;stroke-opacity:1;" /><text x="705" y="54" style="font-size:10px;fill:rgb(255,255,255);text-anchor:start;text-align:left;"> levien </text><rect x="680" y="62" width="20" height="20" ry="2" style="fill:rgb(126,176,213);stroke:none;fill-opacity:1;stroke-opacity:1;" /><text x="705" y="75" style="font-size:10px;fill:rgb(255,255,255);text-anchor:start;text-align:left;"> levien-simd </text><rect x="680" y="83" width="20" height="20" ry="2" style="fill:rgb(128,214,87);stroke:none;fill-opacity:1;stroke-opacity:1;" /><text x="705" y="96" style="font-size:10px;fill:rgb(255,255,255);text-anchor:start;text-align:left;"> linear </text><rect x="680" y="104" width="20" height="20" ry="2" style="fill:rgb(255,238,101);stroke:none;fill-opacity:1;stroke-opacity:1;" /><text x="705" y="117" style="font-size:10px;fill:rgb(255,255,255);text-anchor:start;text-align:left;"> recursive </text><rect x="680" y="125" width="20" height="20" ry="2" style="fill:rgb(253,204,229);stroke:none;fill-opacity:1;stroke-opacity:1;" /><text x="705" y="138" style="font-size:10px;fill:rgb(255,255,255);text-anchor:start;text-align:left;"> wang </text><text x="400" y="30" style="font-size:20px;fill:rgb(255,255,255);text-anchor:middle;text-align:center;"> inkscape dataset: quadratic </text><text x="400" y="42" style="font-size:8px;fill:rgb(200,200,200);text-anchor:middle;text-align:center;"> Normalized performance score (lower is better) </text></svg>