<svg xmlns="http://www.w3.org/2000/svg" viewBox="0 0 800 300"><rect x="0" y="0" width="800" height="300" ry="6" style="fill:rgb(30,30,30);stroke:none;fill-opacity:1;stroke-opacity:1;" /><path d="M 30 20 L 30 270" style="stroke:rgb(200,200,200);stroke-width:1" /><path d="M 30 270 L 780 270" style="stroke:rgb(200,200,200);stroke-width:1" /><path d="M 780 270 L 780 272" style="stroke:rgb(200,200,200);stroke-width:1" /><text x="780" y="282" style="font-size:10px;fill:rgb(200,200,200);text-anchor:middle;text-align:center;"> 0.01 </text><path d="M 630.77246 270 L 630.77246 272" style="stroke:rgb(200,200,200);stroke-width:1" /><text x="630.77246" y="282" style="font-size:10px;fill:rgb(200,200,200);text-anchor:middle;text-align:center;"> 0.025 </text><path d="M 517.8862 270 L 517.8862 272" style="stroke:rgb(200,200,200);stroke-width:1" /><text x="517.8862" y="282" style="font-size:10px;fill:rgb(200,200,200);text-anchor:middle;text-align:center;"> 0.05 </text><path d="M 451.85202 270 L 451.85202 272" style="stroke:rgb(200,200,200);stroke-width:1" /><text x="451.85202" y="282" style="font-size:10px;fill:rgb(200,200,200);text-anchor:middle;text-align:center;"> 0.075 </text><path d="M 405 270 L 405 272" style="stroke:rgb(200,200,200);stroke-width:1" /><text x="405" y="282" style="font-size:10px;fill:rgb(200,200,200);text-anchor:middle;text-align:center;"> 0.1 </text><path d="M 338.96576 270 L 338.96576 272" style="stroke:rgb(200,200,200);stroke-width:1" /><text x="338.96576" y="282" style="font-size:10px;fill:rgb(200,200,200);text-anchor:middle;text-align:center;"> 0.15 </text><path d="M 292.11377 270 L 292.11377 272" style="stroke:rgb(200,200,200);stroke-width:1" /><text x="292.11377" y="282" style="font-size:10px;fill:rgb(200,200,200);text-anchor:middle;text-align:center;"> 0.2 </text><path d="M 255.7725 270 L 255.7725 272" style="stroke:rgb(200,200,200);stroke-width:1" /><text x="255.7725" y="282" style="font-size:10px;fill:rgb(200,200,200);text-anchor:middle;text-align:center;"> 0.25 </text><path d="M 142.88626 270 L 142.88626 272" style="stroke:rgb(200,200,200);stroke-width:1" /><text x="142.88626" y="282" style="font-size:10px;fill:rgb(200,200,200);text-anchor:middle;text-align:center;"> 0.5 </text><path d="M 30 270 L 30 272" style="stroke:rgb(200,200,200);stroke-width:1" /><text x="30" y="282" style="font-size:10px;fill:rgb(200,200,200);text-anchor:middle;text-align:center;"> 1 </text><path d="M 28 270 L 30 270" style="stroke:rgb(200,200,200);stroke-width:1" /><text x="26" y="274" style="font-size:10px;fill:rgb(200,200,200);text-anchor:end;text-align:right;"> 0 </text><path d="M 28 207.5 L 30 207.5" style="stroke:rgb(200,200,200);stroke-width:1" /><text x="26" y="211.5" style="font-size:10px;fill:rgb(200,200,200);text-anchor:end;text-align:right;"> 0.25 </text><path d="M 28 145 L 30 145" style="stroke:rgb(200,200,200);stroke-width:1" /><text x="26" y="149" style="font-size:10px;fill:rgb(200,200,200);text-anchor:end;text-align:right;"> 0.5 </text><path d="M 28 82.5 L 30 82.5" style="stroke:rgb(200,200,200);stroke-width:1" /><text x="26" y="86.5" style="font-size:10px;fill:rgb(200,200,200);text-anchor:end;text-align:right;"> 0.75 </text><path d="M 28 20 L 30 20" style="stroke:rgb(200,200,200);stroke-width:1" /><text x="26" y="24" style="font-size:10px;fill:rgb(200,200,200);text-anchor:end;text-align:right;"> 1 </text><text x="400" y="294" style="font-size:10px;fill:rgb(200,200,200);text-anchor:middle;text-align:center;"> Tolerance </text><circle cx="780" cy="185.2325" r="2" style="fill:rgb(128,214,87);stroke:none;fill-opacity:1;stroke-opacity:1;" /><path d="M 780 185.2325 L 630.77246 216.005" style="stroke:rgb(128,214,87);stroke-width:1" /><circle cx="630.77246" cy="216.005" r="2" style="fill:rgb(128,214,87);stroke:none;fill-opacity:1;stroke-opacity:1;" /><path d="M 630.77246 216.005 L 517.8862 230.9975" style="stroke:rgb(128,214,87);stroke-width:1" /><circle cx="517.8862" cy="230.9975" r="2" style="fill:rgb(128,214,87);stroke:none;fill-opacity:1;stroke-opacity:1;" /><path d="M 517.8862 230.9975 L 451.85202 238.14" style="stroke:rgb(128,214,87);stroke-width:1" /><circle cx="451.85202" cy="238.14" r="2" style="fill:rgb(128,214,87);stroke:none;fill-opacity:1;stroke-opacity:1;" /><path d="M 451.85202 238.14 L 405 242.155" style="stroke:rgb(128,214,87);stroke-width:1" /><circle cx="405" cy="242.155" r="2" style="fill:rgb(128,214,87);stroke:none;fill-opacity:1;stroke-opacity:1;" /><path d="M 405 242.155 L 338.96576 246.76" style="stroke:rgb(128,214,87);stroke-width:1" /><circle cx="338.96576" cy="246.76" r="2" style="fill:rgb(128,214,87);stroke:none;fill-opacity:1;stroke-opacity:1;" /><path d="M 338.96576 246.76 L 292.11377 249.8775" style="stroke:rgb(128,214,87);stroke-width:1" /><circle cx="292.11377" cy="249.8775" r="2" style="fill:rgb(128,214,87);stroke:none;fill-opacity:1;stroke-opacity:1;" /><path d="M 292.11377 249.8775 L 255.7725 252.1575" style="stroke:rgb(128,214,87);stroke-width:1" /><circle cx="255.7725" cy="252.1575" r="2" style="fill:rgb(128,214,87);stroke:none;fill-opacity:1;stroke-opacity:1;" /><path d="M 255.7725 252.1575 L 142.88626 257.5175" style="stroke:rgb(128,214,87);stroke-width:1" /><circle cx="142.88626" cy="257.5175" r="2" style="fill:rgb(128,214,87);stroke:none;fill-opacity:1;stroke-opacity:1;" /><path d="M 142.88626 257.5175 L 30 261.215" style="stroke:rgb(128,214,87);stroke-width:1" /><circle cx="30" cy="261.215" r="2" style="fill:rgb(128,214,87);stroke:none;fill-opacity:1;stroke-opacity:1;" /><circle cx="780" cy="20" r="2" style="fill:rgb(255,181,90);stroke:none;fill-opacity:1;stroke-opacity:1;" /><path d="M 780 20 L 630.77246 111.10249" style="stroke:rgb(255,181,90);stroke-width:1" /><circle cx="630.77246" cy="111.10249" r="2" style="fill:rgb(255,181,90);stroke:none;fill-opacity:1;stroke-opacity:1;" /><path d="M 630.77246 111.10249 L 517.8862 156.7625" style="stroke:rgb(255,181,90);stroke-width:1" /><circle cx="517.8862" cy="156.7625" r="2" style="fill:rgb(255,181,90);stroke:none;fill-opacity:1;stroke-opacity:1;" /><path d="M 517.8862 156.7625 L 451.85202 177.01001" style="stroke:rgb(255,181,90);stroke-width:1" /><circle cx="451.85202" cy="177.01001" r="2" style="fill:rgb(255,181,90);stroke:none;fill-opacity:1;stroke-opacity:1;" /><path d="M 451.85202 177.01001 L 405 189.055" style="stroke:rgb(255,181,90);stroke-width:1" /><circle cx="405" cy="189.055" r="2" style="fill:rgb(255,181,90);stroke:none;fill-opacity:1;stroke-opacity:1;" /><path d="M 405 189.055 L 338.96576 203.845" style="stroke:rgb(255,181,90);stroke-width:1" /><circle cx="338.96576" cy="203.845" r="2" style="fill:rgb(255,181,90);stroke:none;fill-opacity:1;stroke-opacity:1;" /><path d="M 338.96576 203.845 L 292.11377 212.43" style="stroke:rgb(255,181,90);stroke-width:1" /><circle cx="292.11377" cy="212.43" r="2" style="fill:rgb(255,181,90);stroke:none;fill-opacity:1;stroke-opacity:1;" /><path d="M 292.11377 212.43 L 255.7725 218.355" style="stroke:rgb(255,181,90);stroke-width:1" /><circle cx="255.7725" cy="218.355" r="2" style="fill:rgb(255,181,90);stroke:none;fill-opacity:1;stroke-opacity:1;" /><path d="M 255.7725 218.355 L 142.88626 232.905" style="stroke:rgb(255,181,90);stroke-width:1" /><circle cx="142.88626" cy="232.905" r="2" style="fill:rgb(255,181,90);stroke:none;fill-opacity:1;stroke-opacity:1;" /><path d="M 142.88626 232.905 L 30 243.17" style="stroke:rgb(255,181,90);stroke-width:1" /><circle cx="30" cy="243.17" r="2" style="fill:rgb(255,181,90);stroke:none;fill-opacity:1;stroke-opacity:1;" /><circle cx="780" cy="256.54" r="2" style="fill:rgb(253,204,229);stroke:none;fill-opacity:1;stroke-opacity:1;" /><path d="M 780 256.54 L 630.77246 260.6925" style="stroke:rgb(253,204,229);stroke-width:1" /><circle cx="630.77246" cy="260.6925" r="2" style="fill:rgb(253,204,229);stroke:none;fill-opacity:1;stroke-opacity:1;" /><path d="M 630.77246 260.6925 L 517.8862 262.835" style="stroke:rgb(253,204,229);stroke-width:1" /><circle cx="517.8862" cy="262.835" r="2" style="fill:rgb(253,204,229);stroke:none;fill-opacity:1;stroke-opacity:1;" /><path d="M 517.8862 262.835 L 451.85202 263.7975" style="stroke:rgb(253,204,229);stroke-width:1" /><circle cx="451.85202" cy="263.7975" r="2" style="fill:rgb(253,204,229);stroke:none;fill-opacity:1;stroke-opacity:1;" /><path d="M 451.85202 263.7975 L 405 264.415" style="stroke:rgb(253,204,229);stroke-width:1" /><circle cx="405" cy="264.415" r="2" style="fill:rgb(253,204,229);stroke:none;fill-opacity:1;stroke-opacity:1;" /><path d="M 405 264.415 L 338.96576 265.175" style="stroke:rgb(253,204,229);stroke-width:1" /><circle cx="338.96576" cy="265.175" r="2" style="fill:rgb(253,204,229);stroke:none;fill-opacity:1;stroke-opacity:1;" /><path d="M 338.96576 265.175 L 292.11377 265.665" style="stroke:rgb(253,204,229);stroke-width:1" /><circle cx="292.11377" cy="265.665" r="2" style="fill:rgb(253,204,229);stroke:none;fill-opacity:1;stroke-opacity:1;" /><path d="M 292.11377 265.665 L 255.7725 265.9975" style="stroke:rgb(253,204,229);stroke-width:1" /><circle cx="255.7725" cy="265.9975" r="2" style="fill:rgb(253,204,229);stroke:none;fill-opacity:1;stroke-opacity:1;" /><path d="M 255.7725 265.9975 L 142.88626 266.8725" style="stroke:rgb(253,204,229);stroke-width:1" /><circle cx="142.88626" cy="266.8725" r="2" style="fill:rgb(253,204,229);stroke:none;fill-opacity:1;stroke-opacity:1;" /><path d="M 142.88626 266.8725 L 30 267.5475" style="stroke:rgb(253,204,229);stroke-width:1" /><circle cx="30" cy="267.5475" r="2" style="fill:rgb(253,204,229);stroke:none;fill-opacity:1;stroke-opacity:1;" /><circle cx="780" cy="232.2" r="2" style="fill:rgb(50,125,209);stroke:none;fill-opacity:1;stroke-opacity:1;" /><path d="M 780 232.2 L 630.77246 244.7575" style="stroke:rgb(50,125,209);stroke-width:1" /><circle cx="630.77246" cy="244.7575" r="2" style="fill:rgb(50,125,209);stroke:none;fill-opacity:1;stroke-opacity:1;" /><path d="M 630.77246 244.7575 L 517.8862 248.64" style="stroke:rgb(50,125,209);stroke-width:1" /><circle cx="517.8862" cy="248.64" r="2" style="fill:rgb(50,125,209);stroke:none;fill-opacity:1;stroke-opacity:1;" /><path d="M 517.8862 248.64 L 451.85202 250.45" style="stroke:rgb(50,125,209);stroke-width:1" /><circle cx="451.85202" cy="250.45" r="2" style="fill:rgb(50,125,209);stroke:none;fill-opacity:1;stroke-opacity:1;" /><path d="M 451.85202 250.45 L 405 251.62" style="stroke:rgb(50,125,209);stroke-width:1" /><circle cx="405" cy="251.62" r="2" style="fill:rgb(50,125,209);stroke:none;fill-opacity:1;stroke-opacity:1;" /><path d="M 405 251.62 L 338.96576 253.0825" style="stroke:rgb(50,125,209);stroke-width:1" /><circle cx="338.96576" cy="253.0825" r="2" style="fill:rgb(50,125,209);stroke:none;fill-opacity:1;stroke-opacity:1;" /><path d="M 338.96576 253.0825 L 292.11377 253.6825" style="stroke:rgb(50,125,209);stroke-width:1" /><circle cx="292.11377" cy="253.6825" r="2" style="fill:rgb(50,125,209);stroke:none;fill-opacity:1;stroke-opacity:1;" /><path d="M 292.11377 253.6825 L 255.7725 254.6225" style="stroke:rgb(50,125,209);stroke-width:1" /><circle cx="255.7725" cy="254.6225" r="2" style="fill:rgb(50,125,209);stroke:none;fill-opacity:1;stroke-opacity:1;" /><path d="M 255.7725 254.6225 L 142.88626 256.3125" style="stroke:rgb(50,125,209);stroke-width:1" /><circle cx="142.88626" cy="256.3125" r="2" style="fill:rgb(50,125,209);stroke:none;fill-opacity:1;stroke-opacity:1;" /><path d="M 142.88626 256.3125 L 30 257.705" style="stroke:rgb(50,125,209);stroke-width:1" /><circle cx="30" cy="257.705" r="2" style="fill:rgb(50,125,209);stroke:none;fill-opacity:1;stroke-opacity:1;" /><circle cx="780" cy="262.38" r="2" style="fill:rgb(199,126,190);stroke:none;fill-opacity:1;stroke-opacity:1;" /><path d="M 780 262.38 L 630.77246 264.3975" style="stroke:rgb(199,126,190);stroke-width:1" /><circle cx="630.77246" cy="264.3975" r="2" style="fill:rgb(199,126,190);stroke:none;fill-opacity:1;stroke-opacity:1;" /><path d="M 630.77246 264.3975 L 517.8862 265.3975" style="stroke:rgb(199,126,190);stroke-width:1" /><circle cx="517.8862" cy="265.3975" r="2" style="fill:rgb(199,126,190);stroke:none;fill-opacity:1;stroke-opacity:1;" /><path d="M 517.8862 265.3975 L 451.85202 265.87" style="stroke:rgb(199,126,190);stroke-width:1" /><circle cx="451.85202" cy="265.87" r="2" style="fill:rgb(199,126,190);stroke:none;fill-opacity:1;stroke-opacity:1;" /><path d="M 451.85202 265.87 L 405 266.1775" style="stroke:rgb(199,126,190);stroke-width:1" /><circle cx="405" cy="266.1775" r="2" style="fill:rgb(199,126,190);stroke:none;fill-opacity:1;stroke-opacity:1;" /><path d="M 405 266.1775 L 338.96576 266.6025" style="stroke:rgb(199,126,190);stroke-width:1" /><circle cx="338.96576" cy="266.6025" r="2" style="fill:rgb(199,126,190);stroke:none;fill-opacity:1;stroke-opacity:1;" /><path d="M 338.96576 266.6025 L 292.11377 266.9075" style="stroke:rgb(199,126,190);stroke-width:1" /><circle cx="292.11377" cy="266.9075" r="2" style="fill:rgb(199,126,190);stroke:none;fill-opacity:1;stroke-opacity:1;" /><path d="M 292.11377 266.9075 L 255.7725 267.125" style="stroke:rgb(199,126,190);stroke-width:1" /><circle cx="255.7725" cy="267.125" r="2" style="fill:rgb(199,126,190);stroke:none;fill-opacity:1;stroke-opacity:1;" /><path d="M 255.7725 267.125 L 142.88626 267.7225" style="stroke:rgb(199,126,190);stroke-width:1" /><circle cx="142.88626" cy="267.7225" r="2" style="fill:rgb(199,126,190);stroke:none;fill-opacity:1;stroke-opacity:1;" /><path d="M 142.88626 267.7225 L 30 268.2925" style="stroke:rgb(199,126,190);stroke-width:1" /><circle cx="30" cy="268.2925" r="2" style="fill:rgb(199,126,190);stroke:none;fill-opacity:1;stroke-opacity:1;" /><circle cx="780" cy="248.9675" r="2" style="fill:rgb(119,211,179);stroke:none;fill-opacity:1;stroke-opacity:1;" /><path d="M 780 248.9675 L 630.77246 254.485" style="stroke:rgb(119,211,179);stroke-width:1" /><circle cx="630.77246" cy="254.485" r="2" style="fill:rgb(119,211,179);stroke:none;fill-opacity:1;stroke-opacity:1;" /><path d="M 630.77246 254.485 L 517.8862 257.5975" style="stroke:rgb(119,211,179);stroke-width:1" /><circle cx="517.8862" cy="257.5975" r="2" style="fill:rgb(119,211,179);stroke:none;fill-opacity:1;stroke-opacity:1;" /><path d="M 517.8862 257.5975 L 451.85202 259.1575" style="stroke:rgb(119,211,179);stroke-width:1" /><circle cx="451.85202" cy="259.1575" r="2" style="fill:rgb(119,211,179);stroke:none;fill-opacity:1;stroke-opacity:1;" /><path d="M 451.85202 259.1575 L 405 260.13" style="stroke:rgb(119,211,179);stroke-width:1" /><circle cx="405" cy="260.13" r="2" style="fill:rgb(119,211,179);stroke:none;fill-opacity:1;stroke-opacity:1;" /><path d="M 405 260.13 L 338.96576 261.3025" style="stroke:rgb(119,211,179);stroke-width:1" /><circle cx="338.96576" cy="261.3025" r="2" style="fill:rgb(119,211,179);stroke:none;fill-opacity:1;stroke-opacity:1;" /><path d="M 338.96576 261.3025 L 292.11377 262.04" style="stroke:rgb(119,211,179);stroke-width:1" /><circle cx="292.11377" cy="262.04" r="2" style="fill:rgb(119,211,179);stroke:none;fill-opacity:1;stroke-opacity:1;" /><path d="M 292.11377 262.04 L 255.7725 262.55" style="stroke:rgb(119,211,179);stroke-width:1" /><circle cx="255.7725" cy="262.55" r="2" style="fill:rgb(119,211,179);stroke:none;fill-opacity:1;stroke-opacity:1;" /><path d="M 255.7725 262.55 L 142.88626 264.1225" style="stroke:rgb(119,211,179);stroke-width:1" /><circle cx="142.88626" cy="264.1225" r="2" style="fill:rgb(119,211,179);stroke:none;fill-opacity:1;stroke-opacity:1;" /><path d="M 142.88626 264.1225 L 30 265.19" style="stroke:rgb(119,211,179);stroke-width:1" /><circle cx="30" cy="265.19" r="2" style="fill:rgb(119,211,179);stroke:none;fill-opacity:1;stroke-opacity:1;" /><circle cx="780" cy="254.8075" r="2" style="fill:rgb(253,127,111);stroke:none;fill-opacity:1;stroke-opacity:1;" /><path d="M 780 254.8075 L 630.77246 259.965" style="stroke:rgb(253,127,111);stroke-width:1" /><circle cx="630.77246" cy="259.965" r="2" style="fill:rgb(253,127,111);stroke:none;fill-opacity:1;stroke-opacity:1;" /><path d="M 630.77246 259.965 L 517.8862 262.595" style="stroke:rgb(253,127,111);stroke-width:1" /><circle cx="517.8862" cy="262.595" r="2" style="fill:rgb(253,127,111);stroke:none;fill-opacity:1;stroke-opacity:1;" /><path d="M 517.8862 262.595 L 451.85202 263.73" style="stroke:rgb(253,127,111);stroke-width:1" /><circle cx="451.85202" cy="263.73" r="2" style="fill:rgb(253,127,111);stroke:none;fill-opacity:1;stroke-opacity:1;" /><path d="M 451.85202 263.73 L 405 264.37" style="stroke:rgb(253,127,111);stroke-width:1" /><circle cx="405" cy="264.37" r="2" style="fill:rgb(253,127,111);stroke:none;fill-opacity:1;stroke-opacity:1;" /><path d="M 405 264.37 L 338.96576 265.16" style="stroke:rgb(253,127,111);stroke-width:1" /><circle cx="338.96576" cy="265.16" r="2" style="fill:rgb(253,127,111);stroke:none;fill-opacity:1;stroke-opacity:1;" /><path d="M 338.96576 265.16 L 292.11377 265.675" style="stroke:rgb(253,127,111);stroke-width:1" /><circle cx="292.11377" cy="265.675" r="2" style="fill:rgb(253,127,111);stroke:none;fill-opacity:1;stroke-opacity:1;" /><path d="M 292.11377 265.675 L 255.7725 266.02" style="stroke:rgb(253,127,111);stroke-width:1" /><circle cx="255.7725" cy="266.02" r="2" style="fill:rgb(253,127,111);stroke:none;fill-opacity:1;stroke-opacity:1;" /><path d="M 255.7725 266.02 L 142.88626 266.92" style="stroke:rgb(253,127,111);stroke-width:1" /><circle cx="142.88626" cy="266.92" r="2" style="fill:rgb(253,127,111);stroke:none;fill-opacity:1;stroke-opacity:1;" /><path d="M 142.88626 266.92 L 30 267.5825" style="stroke:rgb(253,127,111);stroke-width:1" /><circle cx="30" cy="267.5825" r="2" style="fill:rgb(253,127,111);stroke:none;fill-opacity:1;stroke-opacity:1;" /><circle cx="780" cy="246.4625" r="2" style="fill:rgb(126,176,213);stroke:none;fill-opacity:1;stroke-opacity:1;" /><path d="M 780 246.4625 L 630.77246 250.73" style="stroke:rgb(126,176,213);stroke-width:1" /><circle cx="630.77246" cy="250.73" r="2" style="fill:rgb(126,176,213);stroke:none;fill-opacity:1;stroke-opacity:1;" /><path d="M 630.77246 250.73 L 517.8862 253.0425" style="stroke:rgb(126,176,213);stroke-width:1" /><circle cx="517.8862" cy="253.0425" r="2" style="fill:rgb(126,176,213);stroke:none;fill-opacity:1;stroke-opacity:1;" /><path d="M 517.8862 253.0425 L 451.85202 254.13" style="stroke:rgb(126,176,213);stroke-width:1" /><circle cx="451.85202" cy="254.13" r="2" style="fill:rgb(126,176,213);stroke:none;fill-opacity:1;stroke-opacity:1;" /><path d="M 451.85202 254.13 L 405 254.835" style="stroke:rgb(126,176,213);stroke-width:1" /><circle cx="405" cy="254.835" r="2" style="fill:rgb(126,176,213);stroke:none;fill-opacity:1;stroke-opacity:1;" /><path d="M 405 254.835 L 338.96576 255.74" style="stroke:rgb(126,176,213);stroke-width:1" /><circle cx="338.96576" cy="255.74" r="2" style="fill:rgb(126,176,213);stroke:none;fill-opacity:1;stroke-opacity:1;" /><path d="M 338.96576 255.74 L 292.11377 256.3025" style="stroke:rgb(126,176,213);stroke-width:1" /><circle cx="292.11377" cy="256.3025" r="2" style="fill:rgb(126,176,213);stroke:none;fill-opacity:1;stroke-opacity:1;" /><path d="M 292.11377 256.3025 L 255.7725 256.7025" style="stroke:rgb(126,176,213);stroke-width:1" /><circle cx="255.7725" cy="256.7025" r="2" style="fill:rgb(126,176,213);stroke:none;fill-opacity:1;stroke-opacity:1;" /><path d="M 255.7725 256.7025 L 142.88626 257.915" style="stroke:rgb(126,176,213);stroke-width:1" /><circle cx="142.88626" cy="257.915" r="2" style="fill:rgb(126,176,213);stroke:none;fill-opacity:1;stroke-opacity:1;" /><path d="M 142.88626 257.915 L 30 258.9175" style="stroke:rgb(126,176,213);stroke-width:1" /><circle cx="30" cy="258.9175" r="2" style="fill:rgb(126,176,213);stroke:none;fill-opacity:1;stroke-opacity:1;" /><circle cx="780" cy="164.1375" r="2" style="fill:rgb(255,238,101);stroke:none;fill-opacity:1;stroke-opacity:1;" /><path d="M 780 164.1375 L 630.77246 207.0025" style="stroke:rgb(255,238,101);stroke-width:1" /><circle cx="630.77246" cy="207.0025" r="2" style="fill:rgb(255,238,101);stroke:none;fill-opacity:1;stroke-opacity:1;" /><path d="M 630.77246 207.0025 L 517.8862 221.59" style="stroke:rgb(255,238,101);stroke-width:1" /><circle cx="517.8862" cy="221.59" r="2" style="fill:rgb(255,238,101);stroke:none;fill-opacity:1;stroke-opacity:1;" /><path d="M 517.8862 221.59 L 451.85202 232.11" style="stroke:rgb(255,238,101);stroke-width:1" /><circle cx="451.85202" cy="232.11" r="2" style="fill:rgb(255,238,101);stroke:none;fill-opacity:1;stroke-opacity:1;" /><path d="M 451.85202 232.11 L 405 238.705" style="stroke:rgb(255,238,101);stroke-width:1" /><circle cx="405" cy="238.705" r="2" style="fill:rgb(255,238,101);stroke:none;fill-opacity:1;stroke-opacity:1;" /><path d="M 405 238.705 L 338.96576 243.255" style="stroke:rgb(255,238,101);stroke-width:1" /><circle cx="338.96576" cy="243.255" r="2" style="fill:rgb(255,238,101);stroke:none;fill-opacity:1;stroke-opacity:1;" /><path d="M 338.96576 243.255 L 292.11377 246.05" style="stroke:rgb(255,238,101);stroke-width:1" /><circle cx="292.11377" cy="246.05" r="2" style="fill:rgb(255,238,101);stroke:none;fill-opacity:1;stroke-opacity:1;" /><path d="M 292.11377 246.05 L 255.7725 248.8125" style="stroke:rgb(255,238,101);stroke-width:1" /><circle cx="255.7725" cy="248.8125" r="2" style="fill:rgb(255,238,101);stroke:none;fill-opacity:1;stroke-opacity:1;" /><path d="M 255.7725 248.8125 L 142.88626 256.25" style="stroke:rgb(255,238,101);stroke-width:1" /><circle cx="142.88626" cy="256.25" r="2" style="fill:rgb(255,238,101);stroke:none;fill-opacity:1;stroke-opacity:1;" /><path d="M 142.88626 256.25 L 30 259.7275" style="stroke:rgb(255,238,101);stroke-width:1" /><circle cx="30" cy="259.7275" r="2" style="fill:rgb(255,238,101);stroke:none;fill-opacity:1;stroke-opacity:1;" /><rect x="676" y="16" width="80" height="196" ry="4" style="fill:rgb(30,30,30);stroke:none;fill-opacity:0.8;stroke-opacity:1;" /><rect x="680" y="20" width="20" height="20" ry="2" style="fill:rgb(253,127,111);stroke:none;fill-opacity:1;stroke-opacity:1;" /><text x="705" y="33" style="font-size:10px;fill:rgb(255,255,255);text-anchor:start;text-align:left;"> fwd-diff </text><rect x="680" y="41" width="20" height="20" ry="2" style="fill:rgb(255,181,90);stroke:none;fill-opacity:1;stroke-opacity:1;" /><text x="705" y="54" style="font-size:10px;fill:rgb(255,255,255);text-anchor:start;text-align:left;"> hain </text><rect x="680" y="62" width="20" height="20" ry="2" style="fill:rgb(50,125,209);stroke:none;fill-opacity:1;stroke-opacity:1;" /><text x="705" y="75" style="font-size:10px;fill:rgb(255,255,255);text-anchor:start;text-align:left;"> levien </text><rect x="680" y="83" width="20" height="20" ry="2" style="fill:rgb(119,211,179);stroke:none;fill-opacity:1;stroke-opacity:1;" /><text x="705" y="96" style="font-size:10px;fill:rgb(255,255,255);text-anchor:start;text-align:left;"> levien-linear </text><rect x="680" y="104" width="20" height="20" ry="2" style="fill:rgb(126,176,213);stroke:none;fill-opacity:1;stroke-opacity:1;" /><text x="705" y="117" style="font-size:10px;fill:rgb(255,255,255);text-anchor:start;text-align:left;"> levien-simd </text><rect x="680" y="125" width="20" height="20" ry="2" style="fill:rgb(128,214,87);stroke:none;fill-opacity:1;stroke-opacity:1;" /><text x="705" y="138" style="font-size:10px;fill:rgb(255,255,255);text-anchor:start;text-align:left;"> linear </text><rect x="680" y="146" width="20" height="20" ry="2" style="fill:rgb(255,238,101);stroke:none;fill-opacity:1;stroke-opacity:1;" /><text x="705" y="159" style="font-size:10px;fill:rgb(255,255,255);text-anchor:start;text-align:left;"> recursive </text><rect x="680" y="167" width="20" height="20" ry="2" style="fill:rgb(253,204,229);stroke:none;fill-opacity:1;stroke-opacity:1;" /><text x="705" y="180" style="font-size:10px;fill:rgb(255,255,255);text-anchor:start;text-align:left;"> wang </text><rect x="680" y="188" width="20" height="20" ry="2" style="fill:rgb(199,126,190);stroke:none;fill-opacity:1;stroke-opacity:1;" /><text x="705" y="201" style="font-size:10px;fill:rgb(255,255,255);text-anchor:start;text-align:left;"> wang-simd </text><text x="400" y="30" style="font-size:20px;fill:rgb(255,255,255);text-anchor:middle;text-align:center;"> all dataset: quadratic </text><text x="400" y="42" style="font-size:8px;fill:rgb(200,200,200);text-anchor:middle;text-align:center;"> Normalized performance score (lower is better) </text></svg>