<svg xmlns="http://www.w3.org/2000/svg" viewBox="0 0 800 300"><rect x="0" y="0" width="800" height="300" ry="6" style="fill:rgb(30,30,30);stroke:none;fill-opacity:1;stroke-opacity:1;" /><path d="M 30 20 L 30 270" style="stroke:rgb(200,200,200);stroke-width:1" /><path d="M 30 270 L 780 270" style="stroke:rgb(200,200,200);stroke-width:1" /><path d="M 780 270 L 780 272" style="stroke:rgb(200,200,200);stroke-width:1" /><text x="780" y="282" style="font-size:10px;fill:rgb(200,200,200);text-anchor:middle;text-align:center;"> 0.01 </text><path d="M 630.77246 270 L 630.77246 272" style="stroke:rgb(200,200,200);stroke-width:1" /><text x="630.77246" y="282" style="font-size:10px;fill:rgb(200,200,200);text-anchor:middle;text-align:center;"> 0.025 </text><path d="M 517.8862 270 L 517.8862 272" style="stroke:rgb(200,200,200);stroke-width:1" /><text x="517.8862" y="282" style="font-size:10px;fill:rgb(200,200,200);text-anchor:middle;text-align:center;"> 0.05 </text><path d="M 451.85202 270 L 451.85202 272" style="stroke:rgb(200,200,200);stroke-width:1" /><text x="451.85202" y="282" style="font-size:10px;fill:rgb(200,200,200);text-anchor:middle;text-align:center;"> 0.075 </text><path d="M 405 270 L 405 272" style="stroke:rgb(200,200,200);stroke-width:1" /><text x="405" y="282" style="font-size:10px;fill:rgb(200,200,200);text-anchor:middle;text-align:center;"> 0.1 </text><path d="M 338.96576 270 L 338.96576 272" style="stroke:rgb(200,200,200);stroke-width:1" /><text x="338.96576" y="282" style="font-size:10px;fill:rgb(200,200,200);text-anchor:middle;text-align:center;"> 0.15 </text><path d="M 292.11377 270 L 292.11377 272" style="stroke:rgb(200,200,200);stroke-width:1" /><text x="292.11377" y="282" style="font-size:10px;fill:rgb(200,200,200);text-anchor:middle;text-align:center;"> 0.2 </text><path d="M 255.7725 270 L 255.7725 272" style="stroke:rgb(200,200,200);stroke-width:1" /><text x="255.7725" y="282" style="font-size:10px;fill:rgb(200,200,200);text-anchor:middle;text-align:center;"> 0.25 </text><path d="M 142.88626 270 L 142.88626 272" style="stroke:rgb(200,200,200);stroke-width:1" /><text x="142.88626" y="282" style="font-size:10px;fill:rgb(200,200,200);text-anchor:middle;text-align:center;"> 0.5 </text><path d="M 30 270 L 30 272" style="stroke:rgb(200,200,200);stroke-width:1" /><text x="30" y="282" style="font-size:10px;fill:rgb(200,200,200);text-anchor:middle;text-align:center;"> 1 </text><path d="M 28 270 L 30 270" style="stroke:rgb(200,200,200);stroke-width:1" /><text x="26" y="274" style="font-size:10px;fill:rgb(200,200,200);text-anchor:end;text-align:right;"> 0 </text><path d="M 28 207.5 L 30 207.5" style="stroke:rgb(200,200,200);stroke-width:1" /><text x="26" y="211.5" style="font-size:10px;fill:rgb(200,200,200);text-anchor:end;text-align:right;"> 0.25 </text><path d="M 28 145 L 30 145" style="stroke:rgb(200,200,200);stroke-width:1" /><text x="26" y="149" style="font-size:10px;fill:rgb(200,200,200);text-anchor:end;text-align:right;"> 0.5 </text><path d="M 28 82.5 L 30 82.5" style="stroke:rgb(200,200,200);stroke-width:1" /><text x="26" y="86.5" style="font-size:10px;fill:rgb(200,200,200);text-anchor:end;text-align:right;"> 0.75 </text><path d="M 28 20 L 30 20" style="stroke:rgb(200,200,200);stroke-width:1" /><text x="26" y="24" style="font-size:10px;fill:rgb(200,200,200);text-anchor:end;text-align:right;"> 1 </text><text x="400" y="294" style="font-size:10px;fill:rgb(200,200,200);text-anchor:middle;text-align:center;"> Tolerance </text><circle cx="780" cy="123.045" r="2" style="fill:rgb(126,176,213);stroke:none;fill-opacity:1;stroke-opacity:1;" /><path d="M 780 123.045 L 630.77246 141.6325" style="stroke:rgb(126,176,213);stroke-width:1" /><circle cx="630.77246" cy="141.6325" r="2" style="fill:rgb(126,176,213);stroke:none;fill-opacity:1;stroke-opacity:1;" /><path d="M 630.77246 141.6325 L 517.8862 151.17" style="stroke:rgb(126,176,213);stroke-width:1" /><circle cx="517.8862" cy="151.17" r="2" style="fill:rgb(126,176,213);stroke:none;fill-opacity:1;stroke-opacity:1;" /><path d="M 517.8862 151.17 L 451.85202 156.5375" style="stroke:rgb(126,176,213);stroke-width:1" /><circle cx="451.85202" cy="156.5375" r="2" style="fill:rgb(126,176,213);stroke:none;fill-opacity:1;stroke-opacity:1;" /><path d="M 451.85202 156.5375 L 405 160.265" style="stroke:rgb(126,176,213);stroke-width:1" /><circle cx="405" cy="160.265" r="2" style="fill:rgb(126,176,213);stroke:none;fill-opacity:1;stroke-opacity:1;" /><path d="M 405 160.265 L 338.96576 165.485" style="stroke:rgb(126,176,213);stroke-width:1" /><circle cx="338.96576" cy="165.485" r="2" style="fill:rgb(126,176,213);stroke:none;fill-opacity:1;stroke-opacity:1;" /><path d="M 338.96576 165.485 L 292.11377 169.0875" style="stroke:rgb(126,176,213);stroke-width:1" /><circle cx="292.11377" cy="169.0875" r="2" style="fill:rgb(126,176,213);stroke:none;fill-opacity:1;stroke-opacity:1;" /><path d="M 292.11377 169.0875 L 255.7725 171.575" style="stroke:rgb(126,176,213);stroke-width:1" /><circle cx="255.7725" cy="171.575" r="2" style="fill:rgb(126,176,213);stroke:none;fill-opacity:1;stroke-opacity:1;" /><path d="M 255.7725 171.575 L 142.88626 178.8725" style="stroke:rgb(126,176,213);stroke-width:1" /><circle cx="142.88626" cy="178.8725" r="2" style="fill:rgb(126,176,213);stroke:none;fill-opacity:1;stroke-opacity:1;" /><path d="M 142.88626 178.8725 L 30 183.375" style="stroke:rgb(126,176,213);stroke-width:1" /><circle cx="30" cy="183.375" r="2" style="fill:rgb(126,176,213);stroke:none;fill-opacity:1;stroke-opacity:1;" /><circle cx="780" cy="20" r="2" style="fill:rgb(50,125,209);stroke:none;fill-opacity:1;stroke-opacity:1;" /><path d="M 780 20 L 630.77246 68.432495" style="stroke:rgb(50,125,209);stroke-width:1" /><circle cx="630.77246" cy="68.432495" r="2" style="fill:rgb(50,125,209);stroke:none;fill-opacity:1;stroke-opacity:1;" /><path d="M 630.77246 68.432495 L 517.8862 95.572495" style="stroke:rgb(50,125,209);stroke-width:1" /><circle cx="517.8862" cy="95.572495" r="2" style="fill:rgb(50,125,209);stroke:none;fill-opacity:1;stroke-opacity:1;" /><path d="M 517.8862 95.572495 L 451.85202 109.479996" style="stroke:rgb(50,125,209);stroke-width:1" /><circle cx="451.85202" cy="109.479996" r="2" style="fill:rgb(50,125,209);stroke:none;fill-opacity:1;stroke-opacity:1;" /><path d="M 451.85202 109.479996 L 405 120.075" style="stroke:rgb(50,125,209);stroke-width:1" /><circle cx="405" cy="120.075" r="2" style="fill:rgb(50,125,209);stroke:none;fill-opacity:1;stroke-opacity:1;" /><path d="M 405 120.075 L 338.96576 131.85" style="stroke:rgb(50,125,209);stroke-width:1" /><circle cx="338.96576" cy="131.85" r="2" style="fill:rgb(50,125,209);stroke:none;fill-opacity:1;stroke-opacity:1;" /><path d="M 338.96576 131.85 L 292.11377 140.3875" style="stroke:rgb(50,125,209);stroke-width:1" /><circle cx="292.11377" cy="140.3875" r="2" style="fill:rgb(50,125,209);stroke:none;fill-opacity:1;stroke-opacity:1;" /><path d="M 292.11377 140.3875 L 255.7725 145.7825" style="stroke:rgb(50,125,209);stroke-width:1" /><circle cx="255.7725" cy="145.7825" r="2" style="fill:rgb(50,125,209);stroke:none;fill-opacity:1;stroke-opacity:1;" /><path d="M 255.7725 145.7825 L 142.88626 160.9" style="stroke:rgb(50,125,209);stroke-width:1" /><circle cx="142.88626" cy="160.9" r="2" style="fill:rgb(50,125,209);stroke:none;fill-opacity:1;stroke-opacity:1;" /><path d="M 142.88626 160.9 L 30 171.8875" style="stroke:rgb(50,125,209);stroke-width:1" /><circle cx="30" cy="171.8875" r="2" style="fill:rgb(50,125,209);stroke:none;fill-opacity:1;stroke-opacity:1;" /><circle cx="780" cy="132.7425" r="2" style="fill:rgb(119,211,179);stroke:none;fill-opacity:1;stroke-opacity:1;" /><path d="M 780 132.7425 L 630.77246 164.875" style="stroke:rgb(119,211,179);stroke-width:1" /><circle cx="630.77246" cy="164.875" r="2" style="fill:rgb(119,211,179);stroke:none;fill-opacity:1;stroke-opacity:1;" /><path d="M 630.77246 164.875 L 517.8862 192.20749" style="stroke:rgb(119,211,179);stroke-width:1" /><circle cx="517.8862" cy="192.20749" r="2" style="fill:rgb(119,211,179);stroke:none;fill-opacity:1;stroke-opacity:1;" /><path d="M 517.8862 192.20749 L 451.85202 208.85" style="stroke:rgb(119,211,179);stroke-width:1" /><circle cx="451.85202" cy="208.85" r="2" style="fill:rgb(119,211,179);stroke:none;fill-opacity:1;stroke-opacity:1;" /><path d="M 451.85202 208.85 L 405 219.6975" style="stroke:rgb(119,211,179);stroke-width:1" /><circle cx="405" cy="219.6975" r="2" style="fill:rgb(119,211,179);stroke:none;fill-opacity:1;stroke-opacity:1;" /><path d="M 405 219.6975 L 338.96576 232.9525" style="stroke:rgb(119,211,179);stroke-width:1" /><circle cx="338.96576" cy="232.9525" r="2" style="fill:rgb(119,211,179);stroke:none;fill-opacity:1;stroke-opacity:1;" /><path d="M 338.96576 232.9525 L 292.11377 241.4925" style="stroke:rgb(119,211,179);stroke-width:1" /><circle cx="292.11377" cy="241.4925" r="2" style="fill:rgb(119,211,179);stroke:none;fill-opacity:1;stroke-opacity:1;" /><path d="M 292.11377 241.4925 L 255.7725 246.945" style="stroke:rgb(119,211,179);stroke-width:1" /><circle cx="255.7725" cy="246.945" r="2" style="fill:rgb(119,211,179);stroke:none;fill-opacity:1;stroke-opacity:1;" /><path d="M 255.7725 246.945 L 142.88626 256.6675" style="stroke:rgb(119,211,179);stroke-width:1" /><circle cx="142.88626" cy="256.6675" r="2" style="fill:rgb(119,211,179);stroke:none;fill-opacity:1;stroke-opacity:1;" /><path d="M 142.88626 256.6675 L 30 259.13" style="stroke:rgb(119,211,179);stroke-width:1" /><circle cx="30" cy="259.13" r="2" style="fill:rgb(119,211,179);stroke:none;fill-opacity:1;stroke-opacity:1;" /><circle cx="780" cy="126.177505" r="2" style="fill:rgb(128,214,87);stroke:none;fill-opacity:1;stroke-opacity:1;" /><path d="M 780 126.177505 L 630.77246 178.4225" style="stroke:rgb(128,214,87);stroke-width:1" /><circle cx="630.77246" cy="178.4225" r="2" style="fill:rgb(128,214,87);stroke:none;fill-opacity:1;stroke-opacity:1;" /><path d="M 630.77246 178.4225 L 517.8862 207.13" style="stroke:rgb(128,214,87);stroke-width:1" /><circle cx="517.8862" cy="207.13" r="2" style="fill:rgb(128,214,87);stroke:none;fill-opacity:1;stroke-opacity:1;" /><path d="M 517.8862 207.13 L 451.85202 220.7175" style="stroke:rgb(128,214,87);stroke-width:1" /><circle cx="451.85202" cy="220.7175" r="2" style="fill:rgb(128,214,87);stroke:none;fill-opacity:1;stroke-opacity:1;" /><path d="M 451.85202 220.7175 L 405 229.22" style="stroke:rgb(128,214,87);stroke-width:1" /><circle cx="405" cy="229.22" r="2" style="fill:rgb(128,214,87);stroke:none;fill-opacity:1;stroke-opacity:1;" /><path d="M 405 229.22 L 338.96576 239.74" style="stroke:rgb(128,214,87);stroke-width:1" /><circle cx="338.96576" cy="239.74" r="2" style="fill:rgb(128,214,87);stroke:none;fill-opacity:1;stroke-opacity:1;" /><path d="M 338.96576 239.74 L 292.11377 245.7425" style="stroke:rgb(128,214,87);stroke-width:1" /><circle cx="292.11377" cy="245.7425" r="2" style="fill:rgb(128,214,87);stroke:none;fill-opacity:1;stroke-opacity:1;" /><path d="M 292.11377 245.7425 L 255.7725 249.6775" style="stroke:rgb(128,214,87);stroke-width:1" /><circle cx="255.7725" cy="249.6775" r="2" style="fill:rgb(128,214,87);stroke:none;fill-opacity:1;stroke-opacity:1;" /><path d="M 255.7725 249.6775 L 142.88626 257.445" style="stroke:rgb(128,214,87);stroke-width:1" /><circle cx="142.88626" cy="257.445" r="2" style="fill:rgb(128,214,87);stroke:none;fill-opacity:1;stroke-opacity:1;" /><path d="M 142.88626 257.445 L 30 259.6125" style="stroke:rgb(128,214,87);stroke-width:1" /><circle cx="30" cy="259.6125" r="2" style="fill:rgb(128,214,87);stroke:none;fill-opacity:1;stroke-opacity:1;" /><circle cx="780" cy="109.744995" r="2" style="fill:rgb(255,181,90);stroke:none;fill-opacity:1;stroke-opacity:1;" /><path d="M 780 109.744995 L 630.77246 155.1175" style="stroke:rgb(255,181,90);stroke-width:1" /><circle cx="630.77246" cy="155.1175" r="2" style="fill:rgb(255,181,90);stroke:none;fill-opacity:1;stroke-opacity:1;" /><path d="M 630.77246 155.1175 L 517.8862 178.35" style="stroke:rgb(255,181,90);stroke-width:1" /><circle cx="517.8862" cy="178.35" r="2" style="fill:rgb(255,181,90);stroke:none;fill-opacity:1;stroke-opacity:1;" /><path d="M 517.8862 178.35 L 451.85202 187.2175" style="stroke:rgb(255,181,90);stroke-width:1" /><circle cx="451.85202" cy="187.2175" r="2" style="fill:rgb(255,181,90);stroke:none;fill-opacity:1;stroke-opacity:1;" /><path d="M 451.85202 187.2175 L 405 192.155" style="stroke:rgb(255,181,90);stroke-width:1" /><circle cx="405" cy="192.155" r="2" style="fill:rgb(255,181,90);stroke:none;fill-opacity:1;stroke-opacity:1;" /><path d="M 405 192.155 L 338.96576 197.06" style="stroke:rgb(255,181,90);stroke-width:1" /><circle cx="338.96576" cy="197.06" r="2" style="fill:rgb(255,181,90);stroke:none;fill-opacity:1;stroke-opacity:1;" /><path d="M 338.96576 197.06 L 292.11377 197.8875" style="stroke:rgb(255,181,90);stroke-width:1" /><circle cx="292.11377" cy="197.8875" r="2" style="fill:rgb(255,181,90);stroke:none;fill-opacity:1;stroke-opacity:1;" /><path d="M 292.11377 197.8875 L 255.7725 195.67" style="stroke:rgb(255,181,90);stroke-width:1" /><circle cx="255.7725" cy="195.67" r="2" style="fill:rgb(255,181,90);stroke:none;fill-opacity:1;stroke-opacity:1;" /><path d="M 255.7725 195.67 L 142.88626 212.625" style="stroke:rgb(255,181,90);stroke-width:1" /><circle cx="142.88626" cy="212.625" r="2" style="fill:rgb(255,181,90);stroke:none;fill-opacity:1;stroke-opacity:1;" /><path d="M 142.88626 212.625 L 30 223.10251" style="stroke:rgb(255,181,90);stroke-width:1" /><circle cx="30" cy="223.10251" r="2" style="fill:rgb(255,181,90);stroke:none;fill-opacity:1;stroke-opacity:1;" /><circle cx="780" cy="236.7825" r="2" style="fill:rgb(253,204,229);stroke:none;fill-opacity:1;stroke-opacity:1;" /><path d="M 780 236.7825 L 630.77246 239.5175" style="stroke:rgb(253,204,229);stroke-width:1" /><circle cx="630.77246" cy="239.5175" r="2" style="fill:rgb(253,204,229);stroke:none;fill-opacity:1;stroke-opacity:1;" /><path d="M 630.77246 239.5175 L 517.8862 240.9675" style="stroke:rgb(253,204,229);stroke-width:1" /><circle cx="517.8862" cy="240.9675" r="2" style="fill:rgb(253,204,229);stroke:none;fill-opacity:1;stroke-opacity:1;" /><path d="M 517.8862 240.9675 L 451.85202 242.41501" style="stroke:rgb(253,204,229);stroke-width:1" /><circle cx="451.85202" cy="242.41501" r="2" style="fill:rgb(253,204,229);stroke:none;fill-opacity:1;stroke-opacity:1;" /><path d="M 451.85202 242.41501 L 405 243.5425" style="stroke:rgb(253,204,229);stroke-width:1" /><circle cx="405" cy="243.5425" r="2" style="fill:rgb(253,204,229);stroke:none;fill-opacity:1;stroke-opacity:1;" /><path d="M 405 243.5425 L 338.96576 246.1275" style="stroke:rgb(253,204,229);stroke-width:1" /><circle cx="338.96576" cy="246.1275" r="2" style="fill:rgb(253,204,229);stroke:none;fill-opacity:1;stroke-opacity:1;" /><path d="M 338.96576 246.1275 L 292.11377 248.1125" style="stroke:rgb(253,204,229);stroke-width:1" /><circle cx="292.11377" cy="248.1125" r="2" style="fill:rgb(253,204,229);stroke:none;fill-opacity:1;stroke-opacity:1;" /><path d="M 292.11377 248.1125 L 255.7725 250.0675" style="stroke:rgb(253,204,229);stroke-width:1" /><circle cx="255.7725" cy="250.0675" r="2" style="fill:rgb(253,204,229);stroke:none;fill-opacity:1;stroke-opacity:1;" /><path d="M 255.7725 250.0675 L 142.88626 255.84" style="stroke:rgb(253,204,229);stroke-width:1" /><circle cx="142.88626" cy="255.84" r="2" style="fill:rgb(253,204,229);stroke:none;fill-opacity:1;stroke-opacity:1;" /><path d="M 142.88626 255.84 L 30 259.2075" style="stroke:rgb(253,204,229);stroke-width:1" /><circle cx="30" cy="259.2075" r="2" style="fill:rgb(253,204,229);stroke:none;fill-opacity:1;stroke-opacity:1;" /><circle cx="780" cy="190.03" r="2" style="fill:rgb(200,113,55);stroke:none;fill-opacity:1;stroke-opacity:1;" /><path d="M 780 190.03 L 630.77246 192.16" style="stroke:rgb(200,113,55);stroke-width:1" /><circle cx="630.77246" cy="192.16" r="2" style="fill:rgb(200,113,55);stroke:none;fill-opacity:1;stroke-opacity:1;" /><path d="M 630.77246 192.16 L 517.8862 195.6" style="stroke:rgb(200,113,55);stroke-width:1" /><circle cx="517.8862" cy="195.6" r="2" style="fill:rgb(200,113,55);stroke:none;fill-opacity:1;stroke-opacity:1;" /><path d="M 517.8862 195.6 L 451.85202 198.22751" style="stroke:rgb(200,113,55);stroke-width:1" /><circle cx="451.85202" cy="198.22751" r="2" style="fill:rgb(200,113,55);stroke:none;fill-opacity:1;stroke-opacity:1;" /><path d="M 451.85202 198.22751 L 405 200.1325" style="stroke:rgb(200,113,55);stroke-width:1" /><circle cx="405" cy="200.1325" r="2" style="fill:rgb(200,113,55);stroke:none;fill-opacity:1;stroke-opacity:1;" /><path d="M 405 200.1325 L 338.96576 203.0975" style="stroke:rgb(200,113,55);stroke-width:1" /><circle cx="338.96576" cy="203.0975" r="2" style="fill:rgb(200,113,55);stroke:none;fill-opacity:1;stroke-opacity:1;" /><path d="M 338.96576 203.0975 L 292.11377 205.6925" style="stroke:rgb(200,113,55);stroke-width:1" /><circle cx="292.11377" cy="205.6925" r="2" style="fill:rgb(200,113,55);stroke:none;fill-opacity:1;stroke-opacity:1;" /><path d="M 292.11377 205.6925 L 255.7725 208.285" style="stroke:rgb(200,113,55);stroke-width:1" /><circle cx="255.7725" cy="208.285" r="2" style="fill:rgb(200,113,55);stroke:none;fill-opacity:1;stroke-opacity:1;" /><path d="M 255.7725 208.285 L 142.88626 214.84" style="stroke:rgb(200,113,55);stroke-width:1" /><circle cx="142.88626" cy="214.84" r="2" style="fill:rgb(200,113,55);stroke:none;fill-opacity:1;stroke-opacity:1;" /><path d="M 142.88626 214.84 L 30 214.47751" style="stroke:rgb(200,113,55);stroke-width:1" /><circle cx="30" cy="214.47751" r="2" style="fill:rgb(200,113,55);stroke:none;fill-opacity:1;stroke-opacity:1;" /><circle cx="780" cy="236.9275" r="2" style="fill:rgb(199,126,190);stroke:none;fill-opacity:1;stroke-opacity:1;" /><path d="M 780 236.9275 L 630.77246 238.33499" style="stroke:rgb(199,126,190);stroke-width:1" /><circle cx="630.77246" cy="238.33499" r="2" style="fill:rgb(199,126,190);stroke:none;fill-opacity:1;stroke-opacity:1;" /><path d="M 630.77246 238.33499 L 517.8862 240.035" style="stroke:rgb(199,126,190);stroke-width:1" /><circle cx="517.8862" cy="240.035" r="2" style="fill:rgb(199,126,190);stroke:none;fill-opacity:1;stroke-opacity:1;" /><path d="M 517.8862 240.035 L 451.85202 241.47751" style="stroke:rgb(199,126,190);stroke-width:1" /><circle cx="451.85202" cy="241.47751" r="2" style="fill:rgb(199,126,190);stroke:none;fill-opacity:1;stroke-opacity:1;" /><path d="M 451.85202 241.47751 L 405 242.9325" style="stroke:rgb(199,126,190);stroke-width:1" /><circle cx="405" cy="242.9325" r="2" style="fill:rgb(199,126,190);stroke:none;fill-opacity:1;stroke-opacity:1;" /><path d="M 405 242.9325 L 338.96576 244.7925" style="stroke:rgb(199,126,190);stroke-width:1" /><circle cx="338.96576" cy="244.7925" r="2" style="fill:rgb(199,126,190);stroke:none;fill-opacity:1;stroke-opacity:1;" /><path d="M 338.96576 244.7925 L 292.11377 246.64" style="stroke:rgb(199,126,190);stroke-width:1" /><circle cx="292.11377" cy="246.64" r="2" style="fill:rgb(199,126,190);stroke:none;fill-opacity:1;stroke-opacity:1;" /><path d="M 292.11377 246.64 L 255.7725 247.8775" style="stroke:rgb(199,126,190);stroke-width:1" /><circle cx="255.7725" cy="247.8775" r="2" style="fill:rgb(199,126,190);stroke:none;fill-opacity:1;stroke-opacity:1;" /><path d="M 255.7725 247.8775 L 142.88626 251.735" style="stroke:rgb(199,126,190);stroke-width:1" /><circle cx="142.88626" cy="251.735" r="2" style="fill:rgb(199,126,190);stroke:none;fill-opacity:1;stroke-opacity:1;" /><path d="M 142.88626 251.735 L 30 255.42" style="stroke:rgb(199,126,190);stroke-width:1" /><circle cx="30" cy="255.42" r="2" style="fill:rgb(199,126,190);stroke:none;fill-opacity:1;stroke-opacity:1;" /><circle cx="780" cy="235.35251" r="2" style="fill:rgb(253,127,111);stroke:none;fill-opacity:1;stroke-opacity:1;" /><path d="M 780 235.35251 L 630.77246 237.8" style="stroke:rgb(253,127,111);stroke-width:1" /><circle cx="630.77246" cy="237.8" r="2" style="fill:rgb(253,127,111);stroke:none;fill-opacity:1;stroke-opacity:1;" /><path d="M 630.77246 237.8 L 517.8862 239.4175" style="stroke:rgb(253,127,111);stroke-width:1" /><circle cx="517.8862" cy="239.4175" r="2" style="fill:rgb(253,127,111);stroke:none;fill-opacity:1;stroke-opacity:1;" /><path d="M 517.8862 239.4175 L 451.85202 240.885" style="stroke:rgb(253,127,111);stroke-width:1" /><circle cx="451.85202" cy="240.885" r="2" style="fill:rgb(253,127,111);stroke:none;fill-opacity:1;stroke-opacity:1;" /><path d="M 451.85202 240.885 L 405 242.3575" style="stroke:rgb(253,127,111);stroke-width:1" /><circle cx="405" cy="242.3575" r="2" style="fill:rgb(253,127,111);stroke:none;fill-opacity:1;stroke-opacity:1;" /><path d="M 405 242.3575 L 338.96576 244.45999" style="stroke:rgb(253,127,111);stroke-width:1" /><circle cx="338.96576" cy="244.45999" r="2" style="fill:rgb(253,127,111);stroke:none;fill-opacity:1;stroke-opacity:1;" /><path d="M 338.96576 244.45999 L 292.11377 246.37" style="stroke:rgb(253,127,111);stroke-width:1" /><circle cx="292.11377" cy="246.37" r="2" style="fill:rgb(253,127,111);stroke:none;fill-opacity:1;stroke-opacity:1;" /><path d="M 292.11377 246.37 L 255.7725 247.8125" style="stroke:rgb(253,127,111);stroke-width:1" /><circle cx="255.7725" cy="247.8125" r="2" style="fill:rgb(253,127,111);stroke:none;fill-opacity:1;stroke-opacity:1;" /><path d="M 255.7725 247.8125 L 142.88626 252.8775" style="stroke:rgb(253,127,111);stroke-width:1" /><circle cx="142.88626" cy="252.8775" r="2" style="fill:rgb(253,127,111);stroke:none;fill-opacity:1;stroke-opacity:1;" /><path d="M 142.88626 252.8775 L 30 257.0625" style="stroke:rgb(253,127,111);stroke-width:1" /><circle cx="30" cy="257.0625" r="2" style="fill:rgb(253,127,111);stroke:none;fill-opacity:1;stroke-opacity:1;" /><circle cx="780" cy="187.48001" r="2" style="fill:rgb(120,68,33);stroke:none;fill-opacity:1;stroke-opacity:1;" /><path d="M 780 187.48001 L 630.77246 190.065" style="stroke:rgb(120,68,33);stroke-width:1" /><circle cx="630.77246" cy="190.065" r="2" style="fill:rgb(120,68,33);stroke:none;fill-opacity:1;stroke-opacity:1;" /><path d="M 630.77246 190.065 L 517.8862 195.14749" style="stroke:rgb(120,68,33);stroke-width:1" /><circle cx="517.8862" cy="195.14749" r="2" style="fill:rgb(120,68,33);stroke:none;fill-opacity:1;stroke-opacity:1;" /><path d="M 517.8862 195.14749 L 451.85202 199.29001" style="stroke:rgb(120,68,33);stroke-width:1" /><circle cx="451.85202" cy="199.29001" r="2" style="fill:rgb(120,68,33);stroke:none;fill-opacity:1;stroke-opacity:1;" /><path d="M 451.85202 199.29001 L 405 202.1075" style="stroke:rgb(120,68,33);stroke-width:1" /><circle cx="405" cy="202.1075" r="2" style="fill:rgb(120,68,33);stroke:none;fill-opacity:1;stroke-opacity:1;" /><path d="M 405 202.1075 L 338.96576 207.4375" style="stroke:rgb(120,68,33);stroke-width:1" /><circle cx="338.96576" cy="207.4375" r="2" style="fill:rgb(120,68,33);stroke:none;fill-opacity:1;stroke-opacity:1;" /><path d="M 338.96576 207.4375 L 292.11377 211.2675" style="stroke:rgb(120,68,33);stroke-width:1" /><circle cx="292.11377" cy="211.2675" r="2" style="fill:rgb(120,68,33);stroke:none;fill-opacity:1;stroke-opacity:1;" /><path d="M 292.11377 211.2675 L 255.7725 214.27249" style="stroke:rgb(120,68,33);stroke-width:1" /><circle cx="255.7725" cy="214.27249" r="2" style="fill:rgb(120,68,33);stroke:none;fill-opacity:1;stroke-opacity:1;" /><path d="M 255.7725 214.27249 L 142.88626 219.535" style="stroke:rgb(120,68,33);stroke-width:1" /><circle cx="142.88626" cy="219.535" r="2" style="fill:rgb(120,68,33);stroke:none;fill-opacity:1;stroke-opacity:1;" /><path d="M 142.88626 219.535 L 30 217.16501" style="stroke:rgb(120,68,33);stroke-width:1" /><circle cx="30" cy="217.16501" r="2" style="fill:rgb(120,68,33);stroke:none;fill-opacity:1;stroke-opacity:1;" /><circle cx="780" cy="154.5625" r="2" style="fill:rgb(255,238,101);stroke:none;fill-opacity:1;stroke-opacity:1;" /><path d="M 780 154.5625 L 630.77246 192.5975" style="stroke:rgb(255,238,101);stroke-width:1" /><circle cx="630.77246" cy="192.5975" r="2" style="fill:rgb(255,238,101);stroke:none;fill-opacity:1;stroke-opacity:1;" /><path d="M 630.77246 192.5975 L 517.8862 214.77" style="stroke:rgb(255,238,101);stroke-width:1" /><circle cx="517.8862" cy="214.77" r="2" style="fill:rgb(255,238,101);stroke:none;fill-opacity:1;stroke-opacity:1;" /><path d="M 517.8862 214.77 L 451.85202 224.2925" style="stroke:rgb(255,238,101);stroke-width:1" /><circle cx="451.85202" cy="224.2925" r="2" style="fill:rgb(255,238,101);stroke:none;fill-opacity:1;stroke-opacity:1;" /><path d="M 451.85202 224.2925 L 405 231.9075" style="stroke:rgb(255,238,101);stroke-width:1" /><circle cx="405" cy="231.9075" r="2" style="fill:rgb(255,238,101);stroke:none;fill-opacity:1;stroke-opacity:1;" /><path d="M 405 231.9075 L 338.96576 240.24" style="stroke:rgb(255,238,101);stroke-width:1" /><circle cx="338.96576" cy="240.24" r="2" style="fill:rgb(255,238,101);stroke:none;fill-opacity:1;stroke-opacity:1;" /><path d="M 338.96576 240.24 L 292.11377 245.315" style="stroke:rgb(255,238,101);stroke-width:1" /><circle cx="292.11377" cy="245.315" r="2" style="fill:rgb(255,238,101);stroke:none;fill-opacity:1;stroke-opacity:1;" /><path d="M 292.11377 245.315 L 255.7725 248.73" style="stroke:rgb(255,238,101);stroke-width:1" /><circle cx="255.7725" cy="248.73" r="2" style="fill:rgb(255,238,101);stroke:none;fill-opacity:1;stroke-opacity:1;" /><path d="M 255.7725 248.73 L 142.88626 257.4325" style="stroke:rgb(255,238,101);stroke-width:1" /><circle cx="142.88626" cy="257.4325" r="2" style="fill:rgb(255,238,101);stroke:none;fill-opacity:1;stroke-opacity:1;" /><path d="M 142.88626 257.4325 L 30 261.8325" style="stroke:rgb(255,238,101);stroke-width:1" /><circle cx="30" cy="261.8325" r="2" style="fill:rgb(255,238,101);stroke:none;fill-opacity:1;stroke-opacity:1;" /><rect x="676" y="16" width="80" height="238" ry="4" style="fill:rgb(30,30,30);stroke:none;fill-opacity:0.8;stroke-opacity:1;" /><rect x="680" y="20" width="20" height="20" ry="2" style="fill:rgb(253,127,111);stroke:none;fill-opacity:1;stroke-opacity:1;" /><text x="705" y="33" style="font-size:10px;fill:rgb(255,255,255);text-anchor:start;text-align:left;"> fwd-diff </text><rect x="680" y="41" width="20" height="20" ry="2" style="fill:rgb(255,181,90);stroke:none;fill-opacity:1;stroke-opacity:1;" /><text x="705" y="54" style="font-size:10px;fill:rgb(255,255,255);text-anchor:start;text-align:left;"> hain </text><rect x="680" y="62" width="20" height="20" ry="2" style="fill:rgb(50,125,209);stroke:none;fill-opacity:1;stroke-opacity:1;" /><text x="705" y="75" style="font-size:10px;fill:rgb(255,255,255);text-anchor:start;text-align:left;"> levien </text><rect x="680" y="83" width="20" height="20" ry="2" style="fill:rgb(119,211,179);stroke:none;fill-opacity:1;stroke-opacity:1;" /><text x="705" y="96" style="font-size:10px;fill:rgb(255,255,255);text-anchor:start;text-align:left;"> levien-linear </text><rect x="680" y="104" width="20" height="20" ry="2" style="fill:rgb(126,176,213);stroke:none;fill-opacity:1;stroke-opacity:1;" /><text x="705" y="117" style="font-size:10px;fill:rgb(255,255,255);text-anchor:start;text-align:left;"> levien-simd </text><rect x="680" y="125" width="20" height="20" ry="2" style="fill:rgb(128,214,87);stroke:none;fill-opacity:1;stroke-opacity:1;" /><text x="705" y="138" style="font-size:10px;fill:rgb(255,255,255);text-anchor:start;text-align:left;"> linear </text><rect x="680" y="146" width="20" height="20" ry="2" style="fill:rgb(255,238,101);stroke:none;fill-opacity:1;stroke-opacity:1;" /><text x="705" y="159" style="font-size:10px;fill:rgb(255,255,255);text-anchor:start;text-align:left;"> recursive </text><rect x="680" y="167" width="20" height="20" ry="2" style="fill:rgb(253,204,229);stroke:none;fill-opacity:1;stroke-opacity:1;" /><text x="705" y="180" style="font-size:10px;fill:rgb(255,255,255);text-anchor:start;text-align:left;"> wang </text><rect x="680" y="188" width="20" height="20" ry="2" style="fill:rgb(199,126,190);stroke:none;fill-opacity:1;stroke-opacity:1;" /><text x="705" y="201" style="font-size:10px;fill:rgb(255,255,255);text-anchor:start;text-align:left;"> wang-simd </text><rect x="680" y="209" width="20" height="20" ry="2" style="fill:rgb(120,68,33);stroke:none;fill-opacity:1;stroke-opacity:1;" /><text x="705" y="222" style="font-size:10px;fill:rgb(255,255,255);text-anchor:start;text-align:left;"> yzerman </text><rect x="680" y="230" width="20" height="20" ry="2" style="fill:rgb(200,113,55);stroke:none;fill-opacity:1;stroke-opacity:1;" /><text x="705" y="243" style="font-size:10px;fill:rgb(255,255,255);text-anchor:start;text-align:left;"> yzerman-simd </text><text x="400" y="30" style="font-size:20px;fill:rgb(255,255,255);text-anchor:middle;text-align:center;"> inkscape dataset: cubic </text><text x="400" y="42" style="font-size:8px;fill:rgb(200,200,200);text-anchor:middle;text-align:center;"> Normalized performance score (lower is better) </text></svg>