<svg xmlns="http://www.w3.org/2000/svg" viewBox="0 0 800 300"><rect x="0" y="0" width="800" height="300" ry="6" style="fill:rgb(30,30,30);stroke:none;fill-opacity:1;stroke-opacity:1;" /><path d="M 30 20 L 30 270" style="stroke:rgb(200,200,200);stroke-width:1" /><path d="M 30 270 L 780 270" style="stroke:rgb(200,200,200);stroke-width:1" /><path d="M 780 270 L 780 272" style="stroke:rgb(200,200,200);stroke-width:1" /><text x="780" y="282" style="font-size:10px;fill:rgb(200,200,200);text-anchor:middle;text-align:center;"> 0.01 </text><path d="M 630.77246 270 L 630.77246 272" style="stroke:rgb(200,200,200);stroke-width:1" /><text x="630.77246" y="282" style="font-size:10px;fill:rgb(200,200,200);text-anchor:middle;text-align:center;"> 0.025 </text><path d="M 517.8862 270 L 517.8862 272" style="stroke:rgb(200,200,200);stroke-width:1" /><text x="517.8862" y="282" style="font-size:10px;fill:rgb(200,200,200);text-anchor:middle;text-align:center;"> 0.05 </text><path d="M 451.85202 270 L 451.85202 272" style="stroke:rgb(200,200,200);stroke-width:1" /><text x="451.85202" y="282" style="font-size:10px;fill:rgb(200,200,200);text-anchor:middle;text-align:center;"> 0.075 </text><path d="M 405 270 L 405 272" style="stroke:rgb(200,200,200);stroke-width:1" /><text x="405" y="282" style="font-size:10px;fill:rgb(200,200,200);text-anchor:middle;text-align:center;"> 0.1 </text><path d="M 338.96576 270 L 338.96576 272" style="stroke:rgb(200,200,200);stroke-width:1" /><text x="338.96576" y="282" style="font-size:10px;fill:rgb(200,200,200);text-anchor:middle;text-align:center;"> 0.15 </text><path d="M 292.11377 270 L 292.11377 272" style="stroke:rgb(200,200,200);stroke-width:1" /><text x="292.11377" y="282" style="font-size:10px;fill:rgb(200,200,200);text-anchor:middle;text-align:center;"> 0.2 </text><path d="M 255.7725 270 L 255.7725 272" style="stroke:rgb(200,200,200);stroke-width:1" /><text x="255.7725" y="282" style="font-size:10px;fill:rgb(200,200,200);text-anchor:middle;text-align:center;"> 0.25 </text><path d="M 142.88626 270 L 142.88626 272" style="stroke:rgb(200,200,200);stroke-width:1" /><text x="142.88626" y="282" style="font-size:10px;fill:rgb(200,200,200);text-anchor:middle;text-align:center;"> 0.5 </text><path d="M 30 270 L 30 272" style="stroke:rgb(200,200,200);stroke-width:1" /><text x="30" y="282" style="font-size:10px;fill:rgb(200,200,200);text-anchor:middle;text-align:center;"> 1 </text><path d="M 28 270 L 30 270" style="stroke:rgb(200,200,200);stroke-width:1" /><text x="26" y="274" style="font-size:10px;fill:rgb(200,200,200);text-anchor:end;text-align:right;"> 0 </text><path d="M 28 207.5 L 30 207.5" style="stroke:rgb(200,200,200);stroke-width:1" /><text x="26" y="211.5" style="font-size:10px;fill:rgb(200,200,200);text-anchor:end;text-align:right;"> 0.25 </text><path d="M 28 145 L 30 145" style="stroke:rgb(200,200,200);stroke-width:1" /><text x="26" y="149" style="font-size:10px;fill:rgb(200,200,200);text-anchor:end;text-align:right;"> 0.5 </text><path d="M 28 82.5 L 30 82.5" style="stroke:rgb(200,200,200);stroke-width:1" /><text x="26" y="86.5" style="font-size:10px;fill:rgb(200,200,200);text-anchor:end;text-align:right;"> 0.75 </text><path d="M 28 20 L 30 20" style="stroke:rgb(200,200,200);stroke-width:1" /><text x="26" y="24" style="font-size:10px;fill:rgb(200,200,200);text-anchor:end;text-align:right;"> 1 </text><text x="400" y="294" style="font-size:10px;fill:rgb(200,200,200);text-anchor:middle;text-align:center;"> Tolerance </text><circle cx="780" cy="123.8625" r="2" style="fill:rgb(128,214,87);stroke:none;fill-opacity:1;stroke-opacity:1;" /><path d="M 780 123.8625 L 630.77246 177.435" style="stroke:rgb(128,214,87);stroke-width:1" /><circle cx="630.77246" cy="177.435" r="2" style="fill:rgb(128,214,87);stroke:none;fill-opacity:1;stroke-opacity:1;" /><path d="M 630.77246 177.435 L 517.8862 206.4025" style="stroke:rgb(128,214,87);stroke-width:1" /><circle cx="517.8862" cy="206.4025" r="2" style="fill:rgb(128,214,87);stroke:none;fill-opacity:1;stroke-opacity:1;" /><path d="M 517.8862 206.4025 L 451.85202 220.1875" style="stroke:rgb(128,214,87);stroke-width:1" /><circle cx="451.85202" cy="220.1875" r="2" style="fill:rgb(128,214,87);stroke:none;fill-opacity:1;stroke-opacity:1;" /><path d="M 451.85202 220.1875 L 405 229.32" style="stroke:rgb(128,214,87);stroke-width:1" /><circle cx="405" cy="229.32" r="2" style="fill:rgb(128,214,87);stroke:none;fill-opacity:1;stroke-opacity:1;" /><path d="M 405 229.32 L 338.96576 239.575" style="stroke:rgb(128,214,87);stroke-width:1" /><circle cx="338.96576" cy="239.575" r="2" style="fill:rgb(128,214,87);stroke:none;fill-opacity:1;stroke-opacity:1;" /><path d="M 338.96576 239.575 L 292.11377 245.3125" style="stroke:rgb(128,214,87);stroke-width:1" /><circle cx="292.11377" cy="245.3125" r="2" style="fill:rgb(128,214,87);stroke:none;fill-opacity:1;stroke-opacity:1;" /><path d="M 292.11377 245.3125 L 255.7725 249.215" style="stroke:rgb(128,214,87);stroke-width:1" /><circle cx="255.7725" cy="249.215" r="2" style="fill:rgb(128,214,87);stroke:none;fill-opacity:1;stroke-opacity:1;" /><path d="M 255.7725 249.215 L 142.88626 257.7475" style="stroke:rgb(128,214,87);stroke-width:1" /><circle cx="142.88626" cy="257.7475" r="2" style="fill:rgb(128,214,87);stroke:none;fill-opacity:1;stroke-opacity:1;" /><path d="M 142.88626 257.7475 L 30 260.89" style="stroke:rgb(128,214,87);stroke-width:1" /><circle cx="30" cy="260.89" r="2" style="fill:rgb(128,214,87);stroke:none;fill-opacity:1;stroke-opacity:1;" /><circle cx="780" cy="109.9875" r="2" style="fill:rgb(255,181,90);stroke:none;fill-opacity:1;stroke-opacity:1;" /><path d="M 780 109.9875 L 630.77246 154.7325" style="stroke:rgb(255,181,90);stroke-width:1" /><circle cx="630.77246" cy="154.7325" r="2" style="fill:rgb(255,181,90);stroke:none;fill-opacity:1;stroke-opacity:1;" /><path d="M 630.77246 154.7325 L 517.8862 178.4925" style="stroke:rgb(255,181,90);stroke-width:1" /><circle cx="517.8862" cy="178.4925" r="2" style="fill:rgb(255,181,90);stroke:none;fill-opacity:1;stroke-opacity:1;" /><path d="M 517.8862 178.4925 L 451.85202 187.41" style="stroke:rgb(255,181,90);stroke-width:1" /><circle cx="451.85202" cy="187.41" r="2" style="fill:rgb(255,181,90);stroke:none;fill-opacity:1;stroke-opacity:1;" /><path d="M 451.85202 187.41 L 405 192.2" style="stroke:rgb(255,181,90);stroke-width:1" /><circle cx="405" cy="192.2" r="2" style="fill:rgb(255,181,90);stroke:none;fill-opacity:1;stroke-opacity:1;" /><path d="M 405 192.2 L 338.96576 196.8775" style="stroke:rgb(255,181,90);stroke-width:1" /><circle cx="338.96576" cy="196.8775" r="2" style="fill:rgb(255,181,90);stroke:none;fill-opacity:1;stroke-opacity:1;" /><path d="M 338.96576 196.8775 L 292.11377 197.61" style="stroke:rgb(255,181,90);stroke-width:1" /><circle cx="292.11377" cy="197.61" r="2" style="fill:rgb(255,181,90);stroke:none;fill-opacity:1;stroke-opacity:1;" /><path d="M 292.11377 197.61 L 255.7725 195.285" style="stroke:rgb(255,181,90);stroke-width:1" /><circle cx="255.7725" cy="195.285" r="2" style="fill:rgb(255,181,90);stroke:none;fill-opacity:1;stroke-opacity:1;" /><path d="M 255.7725 195.285 L 142.88626 212.395" style="stroke:rgb(255,181,90);stroke-width:1" /><circle cx="142.88626" cy="212.395" r="2" style="fill:rgb(255,181,90);stroke:none;fill-opacity:1;stroke-opacity:1;" /><path d="M 142.88626 212.395 L 30 223.135" style="stroke:rgb(255,181,90);stroke-width:1" /><circle cx="30" cy="223.135" r="2" style="fill:rgb(255,181,90);stroke:none;fill-opacity:1;stroke-opacity:1;" /><circle cx="780" cy="237.1125" r="2" style="fill:rgb(199,126,190);stroke:none;fill-opacity:1;stroke-opacity:1;" /><path d="M 780 237.1125 L 630.77246 238.5725" style="stroke:rgb(199,126,190);stroke-width:1" /><circle cx="630.77246" cy="238.5725" r="2" style="fill:rgb(199,126,190);stroke:none;fill-opacity:1;stroke-opacity:1;" /><path d="M 630.77246 238.5725 L 517.8862 240.08" style="stroke:rgb(199,126,190);stroke-width:1" /><circle cx="517.8862" cy="240.08" r="2" style="fill:rgb(199,126,190);stroke:none;fill-opacity:1;stroke-opacity:1;" /><path d="M 517.8862 240.08 L 451.85202 241.3675" style="stroke:rgb(199,126,190);stroke-width:1" /><circle cx="451.85202" cy="241.3675" r="2" style="fill:rgb(199,126,190);stroke:none;fill-opacity:1;stroke-opacity:1;" /><path d="M 451.85202 241.3675 L 405 242.92" style="stroke:rgb(199,126,190);stroke-width:1" /><circle cx="405" cy="242.92" r="2" style="fill:rgb(199,126,190);stroke:none;fill-opacity:1;stroke-opacity:1;" /><path d="M 405 242.92 L 338.96576 244.735" style="stroke:rgb(199,126,190);stroke-width:1" /><circle cx="338.96576" cy="244.735" r="2" style="fill:rgb(199,126,190);stroke:none;fill-opacity:1;stroke-opacity:1;" /><path d="M 338.96576 244.735 L 292.11377 246.3425" style="stroke:rgb(199,126,190);stroke-width:1" /><circle cx="292.11377" cy="246.3425" r="2" style="fill:rgb(199,126,190);stroke:none;fill-opacity:1;stroke-opacity:1;" /><path d="M 292.11377 246.3425 L 255.7725 247.73" style="stroke:rgb(199,126,190);stroke-width:1" /><circle cx="255.7725" cy="247.73" r="2" style="fill:rgb(199,126,190);stroke:none;fill-opacity:1;stroke-opacity:1;" /><path d="M 255.7725 247.73 L 142.88626 251.6225" style="stroke:rgb(199,126,190);stroke-width:1" /><circle cx="142.88626" cy="251.6225" r="2" style="fill:rgb(199,126,190);stroke:none;fill-opacity:1;stroke-opacity:1;" /><path d="M 142.88626 251.6225 L 30 255.4525" style="stroke:rgb(199,126,190);stroke-width:1" /><circle cx="30" cy="255.4525" r="2" style="fill:rgb(199,126,190);stroke:none;fill-opacity:1;stroke-opacity:1;" /><circle cx="780" cy="122.10249" r="2" style="fill:rgb(126,176,213);stroke:none;fill-opacity:1;stroke-opacity:1;" /><path d="M 780 122.10249 L 630.77246 141.215" style="stroke:rgb(126,176,213);stroke-width:1" /><circle cx="630.77246" cy="141.215" r="2" style="fill:rgb(126,176,213);stroke:none;fill-opacity:1;stroke-opacity:1;" /><path d="M 630.77246 141.215 L 517.8862 151.5375" style="stroke:rgb(126,176,213);stroke-width:1" /><circle cx="517.8862" cy="151.5375" r="2" style="fill:rgb(126,176,213);stroke:none;fill-opacity:1;stroke-opacity:1;" /><path d="M 517.8862 151.5375 L 451.85202 156.7025" style="stroke:rgb(126,176,213);stroke-width:1" /><circle cx="451.85202" cy="156.7025" r="2" style="fill:rgb(126,176,213);stroke:none;fill-opacity:1;stroke-opacity:1;" /><path d="M 451.85202 156.7025 L 405 160.195" style="stroke:rgb(126,176,213);stroke-width:1" /><circle cx="405" cy="160.195" r="2" style="fill:rgb(126,176,213);stroke:none;fill-opacity:1;stroke-opacity:1;" /><path d="M 405 160.195 L 338.96576 165.37" style="stroke:rgb(126,176,213);stroke-width:1" /><circle cx="338.96576" cy="165.37" r="2" style="fill:rgb(126,176,213);stroke:none;fill-opacity:1;stroke-opacity:1;" /><path d="M 338.96576 165.37 L 292.11377 168.7175" style="stroke:rgb(126,176,213);stroke-width:1" /><circle cx="292.11377" cy="168.7175" r="2" style="fill:rgb(126,176,213);stroke:none;fill-opacity:1;stroke-opacity:1;" /><path d="M 292.11377 168.7175 L 255.7725 171.1725" style="stroke:rgb(126,176,213);stroke-width:1" /><circle cx="255.7725" cy="171.1725" r="2" style="fill:rgb(126,176,213);stroke:none;fill-opacity:1;stroke-opacity:1;" /><path d="M 255.7725 171.1725 L 142.88626 178.015" style="stroke:rgb(126,176,213);stroke-width:1" /><circle cx="142.88626" cy="178.015" r="2" style="fill:rgb(126,176,213);stroke:none;fill-opacity:1;stroke-opacity:1;" /><path d="M 142.88626 178.015 L 30 183.3725" style="stroke:rgb(126,176,213);stroke-width:1" /><circle cx="30" cy="183.3725" r="2" style="fill:rgb(126,176,213);stroke:none;fill-opacity:1;stroke-opacity:1;" /><circle cx="780" cy="132.2075" r="2" style="fill:rgb(119,211,179);stroke:none;fill-opacity:1;stroke-opacity:1;" /><path d="M 780 132.2075 L 630.77246 165.265" style="stroke:rgb(119,211,179);stroke-width:1" /><circle cx="630.77246" cy="165.265" r="2" style="fill:rgb(119,211,179);stroke:none;fill-opacity:1;stroke-opacity:1;" /><path d="M 630.77246 165.265 L 517.8862 191.73999" style="stroke:rgb(119,211,179);stroke-width:1" /><circle cx="517.8862" cy="191.73999" r="2" style="fill:rgb(119,211,179);stroke:none;fill-opacity:1;stroke-opacity:1;" /><path d="M 517.8862 191.73999 L 451.85202 208.7775" style="stroke:rgb(119,211,179);stroke-width:1" /><circle cx="451.85202" cy="208.7775" r="2" style="fill:rgb(119,211,179);stroke:none;fill-opacity:1;stroke-opacity:1;" /><path d="M 451.85202 208.7775 L 405 219.3175" style="stroke:rgb(119,211,179);stroke-width:1" /><circle cx="405" cy="219.3175" r="2" style="fill:rgb(119,211,179);stroke:none;fill-opacity:1;stroke-opacity:1;" /><path d="M 405 219.3175 L 338.96576 232.825" style="stroke:rgb(119,211,179);stroke-width:1" /><circle cx="338.96576" cy="232.825" r="2" style="fill:rgb(119,211,179);stroke:none;fill-opacity:1;stroke-opacity:1;" /><path d="M 338.96576 232.825 L 292.11377 241.26" style="stroke:rgb(119,211,179);stroke-width:1" /><circle cx="292.11377" cy="241.26" r="2" style="fill:rgb(119,211,179);stroke:none;fill-opacity:1;stroke-opacity:1;" /><path d="M 292.11377 241.26 L 255.7725 246.8025" style="stroke:rgb(119,211,179);stroke-width:1" /><circle cx="255.7725" cy="246.8025" r="2" style="fill:rgb(119,211,179);stroke:none;fill-opacity:1;stroke-opacity:1;" /><path d="M 255.7725 246.8025 L 142.88626 257.185" style="stroke:rgb(119,211,179);stroke-width:1" /><circle cx="142.88626" cy="257.185" r="2" style="fill:rgb(119,211,179);stroke:none;fill-opacity:1;stroke-opacity:1;" /><path d="M 142.88626 257.185 L 30 260.35" style="stroke:rgb(119,211,179);stroke-width:1" /><circle cx="30" cy="260.35" r="2" style="fill:rgb(119,211,179);stroke:none;fill-opacity:1;stroke-opacity:1;" /><circle cx="780" cy="235.87" r="2" style="fill:rgb(253,127,111);stroke:none;fill-opacity:1;stroke-opacity:1;" /><path d="M 780 235.87 L 630.77246 237.9525" style="stroke:rgb(253,127,111);stroke-width:1" /><circle cx="630.77246" cy="237.9525" r="2" style="fill:rgb(253,127,111);stroke:none;fill-opacity:1;stroke-opacity:1;" /><path d="M 630.77246 237.9525 L 517.8862 239.59" style="stroke:rgb(253,127,111);stroke-width:1" /><circle cx="517.8862" cy="239.59" r="2" style="fill:rgb(253,127,111);stroke:none;fill-opacity:1;stroke-opacity:1;" /><path d="M 517.8862 239.59 L 451.85202 240.9625" style="stroke:rgb(253,127,111);stroke-width:1" /><circle cx="451.85202" cy="240.9625" r="2" style="fill:rgb(253,127,111);stroke:none;fill-opacity:1;stroke-opacity:1;" /><path d="M 451.85202 240.9625 L 405 242.3375" style="stroke:rgb(253,127,111);stroke-width:1" /><circle cx="405" cy="242.3375" r="2" style="fill:rgb(253,127,111);stroke:none;fill-opacity:1;stroke-opacity:1;" /><path d="M 405 242.3375 L 338.96576 244.4425" style="stroke:rgb(253,127,111);stroke-width:1" /><circle cx="338.96576" cy="244.4425" r="2" style="fill:rgb(253,127,111);stroke:none;fill-opacity:1;stroke-opacity:1;" /><path d="M 338.96576 244.4425 L 292.11377 246.6375" style="stroke:rgb(253,127,111);stroke-width:1" /><circle cx="292.11377" cy="246.6375" r="2" style="fill:rgb(253,127,111);stroke:none;fill-opacity:1;stroke-opacity:1;" /><path d="M 292.11377 246.6375 L 255.7725 248.0575" style="stroke:rgb(253,127,111);stroke-width:1" /><circle cx="255.7725" cy="248.0575" r="2" style="fill:rgb(253,127,111);stroke:none;fill-opacity:1;stroke-opacity:1;" /><path d="M 255.7725 248.0575 L 142.88626 252.97751" style="stroke:rgb(253,127,111);stroke-width:1" /><circle cx="142.88626" cy="252.97751" r="2" style="fill:rgb(253,127,111);stroke:none;fill-opacity:1;stroke-opacity:1;" /><path d="M 142.88626 252.97751 L 30 256.995" style="stroke:rgb(253,127,111);stroke-width:1" /><circle cx="30" cy="256.995" r="2" style="fill:rgb(253,127,111);stroke:none;fill-opacity:1;stroke-opacity:1;" /><circle cx="780" cy="20" r="2" style="fill:rgb(50,125,209);stroke:none;fill-opacity:1;stroke-opacity:1;" /><path d="M 780 20 L 630.77246 67.990005" style="stroke:rgb(50,125,209);stroke-width:1" /><circle cx="630.77246" cy="67.990005" r="2" style="fill:rgb(50,125,209);stroke:none;fill-opacity:1;stroke-opacity:1;" /><path d="M 630.77246 67.990005 L 517.8862 95.662506" style="stroke:rgb(50,125,209);stroke-width:1" /><circle cx="517.8862" cy="95.662506" r="2" style="fill:rgb(50,125,209);stroke:none;fill-opacity:1;stroke-opacity:1;" /><path d="M 517.8862 95.662506 L 451.85202 109.7025" style="stroke:rgb(50,125,209);stroke-width:1" /><circle cx="451.85202" cy="109.7025" r="2" style="fill:rgb(50,125,209);stroke:none;fill-opacity:1;stroke-opacity:1;" /><path d="M 451.85202 109.7025 L 405 120.22749" style="stroke:rgb(50,125,209);stroke-width:1" /><circle cx="405" cy="120.22749" r="2" style="fill:rgb(50,125,209);stroke:none;fill-opacity:1;stroke-opacity:1;" /><path d="M 405 120.22749 L 338.96576 132.2725" style="stroke:rgb(50,125,209);stroke-width:1" /><circle cx="338.96576" cy="132.2725" r="2" style="fill:rgb(50,125,209);stroke:none;fill-opacity:1;stroke-opacity:1;" /><path d="M 338.96576 132.2725 L 292.11377 139.875" style="stroke:rgb(50,125,209);stroke-width:1" /><circle cx="292.11377" cy="139.875" r="2" style="fill:rgb(50,125,209);stroke:none;fill-opacity:1;stroke-opacity:1;" /><path d="M 292.11377 139.875 L 255.7725 145.5925" style="stroke:rgb(50,125,209);stroke-width:1" /><circle cx="255.7725" cy="145.5925" r="2" style="fill:rgb(50,125,209);stroke:none;fill-opacity:1;stroke-opacity:1;" /><path d="M 255.7725 145.5925 L 142.88626 161.33" style="stroke:rgb(50,125,209);stroke-width:1" /><circle cx="142.88626" cy="161.33" r="2" style="fill:rgb(50,125,209);stroke:none;fill-opacity:1;stroke-opacity:1;" /><path d="M 142.88626 161.33 L 30 172.28" style="stroke:rgb(50,125,209);stroke-width:1" /><circle cx="30" cy="172.28" r="2" style="fill:rgb(50,125,209);stroke:none;fill-opacity:1;stroke-opacity:1;" /><circle cx="780" cy="154.91501" r="2" style="fill:rgb(255,238,101);stroke:none;fill-opacity:1;stroke-opacity:1;" /><path d="M 780 154.91501 L 630.77246 193.07" style="stroke:rgb(255,238,101);stroke-width:1" /><circle cx="630.77246" cy="193.07" r="2" style="fill:rgb(255,238,101);stroke:none;fill-opacity:1;stroke-opacity:1;" /><path d="M 630.77246 193.07 L 517.8862 215.16501" style="stroke:rgb(255,238,101);stroke-width:1" /><circle cx="517.8862" cy="215.16501" r="2" style="fill:rgb(255,238,101);stroke:none;fill-opacity:1;stroke-opacity:1;" /><path d="M 517.8862 215.16501 L 451.85202 224.8225" style="stroke:rgb(255,238,101);stroke-width:1" /><circle cx="451.85202" cy="224.8225" r="2" style="fill:rgb(255,238,101);stroke:none;fill-opacity:1;stroke-opacity:1;" /><path d="M 451.85202 224.8225 L 405 231.875" style="stroke:rgb(255,238,101);stroke-width:1" /><circle cx="405" cy="231.875" r="2" style="fill:rgb(255,238,101);stroke:none;fill-opacity:1;stroke-opacity:1;" /><path d="M 405 231.875 L 338.96576 240.3725" style="stroke:rgb(255,238,101);stroke-width:1" /><circle cx="338.96576" cy="240.3725" r="2" style="fill:rgb(255,238,101);stroke:none;fill-opacity:1;stroke-opacity:1;" /><path d="M 338.96576 240.3725 L 292.11377 245.685" style="stroke:rgb(255,238,101);stroke-width:1" /><circle cx="292.11377" cy="245.685" r="2" style="fill:rgb(255,238,101);stroke:none;fill-opacity:1;stroke-opacity:1;" /><path d="M 292.11377 245.685 L 255.7725 248.9825" style="stroke:rgb(255,238,101);stroke-width:1" /><circle cx="255.7725" cy="248.9825" r="2" style="fill:rgb(255,238,101);stroke:none;fill-opacity:1;stroke-opacity:1;" /><path d="M 255.7725 248.9825 L 142.88626 257.645" style="stroke:rgb(255,238,101);stroke-width:1" /><circle cx="142.88626" cy="257.645" r="2" style="fill:rgb(255,238,101);stroke:none;fill-opacity:1;stroke-opacity:1;" /><path d="M 142.88626 257.645 L 30 261.815" style="stroke:rgb(255,238,101);stroke-width:1" /><circle cx="30" cy="261.815" r="2" style="fill:rgb(255,238,101);stroke:none;fill-opacity:1;stroke-opacity:1;" /><circle cx="780" cy="234.97" r="2" style="fill:rgb(253,204,229);stroke:none;fill-opacity:1;stroke-opacity:1;" /><path d="M 780 234.97 L 630.77246 237.8075" style="stroke:rgb(253,204,229);stroke-width:1" /><circle cx="630.77246" cy="237.8075" r="2" style="fill:rgb(253,204,229);stroke:none;fill-opacity:1;stroke-opacity:1;" /><path d="M 630.77246 237.8075 L 517.8862 239.64" style="stroke:rgb(253,204,229);stroke-width:1" /><circle cx="517.8862" cy="239.64" r="2" style="fill:rgb(253,204,229);stroke:none;fill-opacity:1;stroke-opacity:1;" /><path d="M 517.8862 239.64 L 451.85202 241.0475" style="stroke:rgb(253,204,229);stroke-width:1" /><circle cx="451.85202" cy="241.0475" r="2" style="fill:rgb(253,204,229);stroke:none;fill-opacity:1;stroke-opacity:1;" /><path d="M 451.85202 241.0475 L 405 242.64" style="stroke:rgb(253,204,229);stroke-width:1" /><circle cx="405" cy="242.64" r="2" style="fill:rgb(253,204,229);stroke:none;fill-opacity:1;stroke-opacity:1;" /><path d="M 405 242.64 L 338.96576 244.7625" style="stroke:rgb(253,204,229);stroke-width:1" /><circle cx="338.96576" cy="244.7625" r="2" style="fill:rgb(253,204,229);stroke:none;fill-opacity:1;stroke-opacity:1;" /><path d="M 338.96576 244.7625 L 292.11377 246.7775" style="stroke:rgb(253,204,229);stroke-width:1" /><circle cx="292.11377" cy="246.7775" r="2" style="fill:rgb(253,204,229);stroke:none;fill-opacity:1;stroke-opacity:1;" /><path d="M 292.11377 246.7775 L 255.7725 248.2825" style="stroke:rgb(253,204,229);stroke-width:1" /><circle cx="255.7725" cy="248.2825" r="2" style="fill:rgb(253,204,229);stroke:none;fill-opacity:1;stroke-opacity:1;" /><path d="M 255.7725 248.2825 L 142.88626 253.3" style="stroke:rgb(253,204,229);stroke-width:1" /><circle cx="142.88626" cy="253.3" r="2" style="fill:rgb(253,204,229);stroke:none;fill-opacity:1;stroke-opacity:1;" /><path d="M 142.88626 253.3 L 30 257.2525" style="stroke:rgb(253,204,229);stroke-width:1" /><circle cx="30" cy="257.2525" r="2" style="fill:rgb(253,204,229);stroke:none;fill-opacity:1;stroke-opacity:1;" /><rect x="676" y="16" width="80" height="196" ry="4" style="fill:rgb(30,30,30);stroke:none;fill-opacity:0.8;stroke-opacity:1;" /><rect x="680" y="20" width="20" height="20" ry="2" style="fill:rgb(253,127,111);stroke:none;fill-opacity:1;stroke-opacity:1;" /><text x="705" y="33" style="font-size:10px;fill:rgb(255,255,255);text-anchor:start;text-align:left;"> fwd-diff </text><rect x="680" y="41" width="20" height="20" ry="2" style="fill:rgb(255,181,90);stroke:none;fill-opacity:1;stroke-opacity:1;" /><text x="705" y="54" style="font-size:10px;fill:rgb(255,255,255);text-anchor:start;text-align:left;"> hain </text><rect x="680" y="62" width="20" height="20" ry="2" style="fill:rgb(50,125,209);stroke:none;fill-opacity:1;stroke-opacity:1;" /><text x="705" y="75" style="font-size:10px;fill:rgb(255,255,255);text-anchor:start;text-align:left;"> levien </text><rect x="680" y="83" width="20" height="20" ry="2" style="fill:rgb(119,211,179);stroke:none;fill-opacity:1;stroke-opacity:1;" /><text x="705" y="96" style="font-size:10px;fill:rgb(255,255,255);text-anchor:start;text-align:left;"> levien-linear </text><rect x="680" y="104" width="20" height="20" ry="2" style="fill:rgb(126,176,213);stroke:none;fill-opacity:1;stroke-opacity:1;" /><text x="705" y="117" style="font-size:10px;fill:rgb(255,255,255);text-anchor:start;text-align:left;"> levien-simd </text><rect x="680" y="125" width="20" height="20" ry="2" style="fill:rgb(128,214,87);stroke:none;fill-opacity:1;stroke-opacity:1;" /><text x="705" y="138" style="font-size:10px;fill:rgb(255,255,255);text-anchor:start;text-align:left;"> linear </text><rect x="680" y="146" width="20" height="20" ry="2" style="fill:rgb(255,238,101);stroke:none;fill-opacity:1;stroke-opacity:1;" /><text x="705" y="159" style="font-size:10px;fill:rgb(255,255,255);text-anchor:start;text-align:left;"> recursive </text><rect x="680" y="167" width="20" height="20" ry="2" style="fill:rgb(253,204,229);stroke:none;fill-opacity:1;stroke-opacity:1;" /><text x="705" y="180" style="font-size:10px;fill:rgb(255,255,255);text-anchor:start;text-align:left;"> wang </text><rect x="680" y="188" width="20" height="20" ry="2" style="fill:rgb(199,126,190);stroke:none;fill-opacity:1;stroke-opacity:1;" /><text x="705" y="201" style="font-size:10px;fill:rgb(255,255,255);text-anchor:start;text-align:left;"> wang-simd </text><text x="400" y="30" style="font-size:20px;fill:rgb(255,255,255);text-anchor:middle;text-align:center;"> inkscape dataset: cubic </text><text x="400" y="42" style="font-size:8px;fill:rgb(200,200,200);text-anchor:middle;text-align:center;"> Normalized performance score (lower is better) </text></svg>