<svg xmlns="http://www.w3.org/2000/svg" viewBox="0 0 800 300"><rect x="0" y="0" width="800" height="300" ry="6" style="fill:rgb(30,30,30);stroke:none;fill-opacity:1;stroke-opacity:1;" /><path d="M 30 20 L 30 270" style="stroke:rgb(200,200,200);stroke-width:1" /><path d="M 30 270 L 780 270" style="stroke:rgb(200,200,200);stroke-width:1" /><path d="M 780 270 L 780 272" style="stroke:rgb(200,200,200);stroke-width:1" /><text x="780" y="282" style="font-size:10px;fill:rgb(200,200,200);text-anchor:middle;text-align:center;"> 0.01 </text><path d="M 630.77246 270 L 630.77246 272" style="stroke:rgb(200,200,200);stroke-width:1" /><text x="630.77246" y="282" style="font-size:10px;fill:rgb(200,200,200);text-anchor:middle;text-align:center;"> 0.025 </text><path d="M 517.8862 270 L 517.8862 272" style="stroke:rgb(200,200,200);stroke-width:1" /><text x="517.8862" y="282" style="font-size:10px;fill:rgb(200,200,200);text-anchor:middle;text-align:center;"> 0.05 </text><path d="M 451.85202 270 L 451.85202 272" style="stroke:rgb(200,200,200);stroke-width:1" /><text x="451.85202" y="282" style="font-size:10px;fill:rgb(200,200,200);text-anchor:middle;text-align:center;"> 0.075 </text><path d="M 405 270 L 405 272" style="stroke:rgb(200,200,200);stroke-width:1" /><text x="405" y="282" style="font-size:10px;fill:rgb(200,200,200);text-anchor:middle;text-align:center;"> 0.1 </text><path d="M 338.96576 270 L 338.96576 272" style="stroke:rgb(200,200,200);stroke-width:1" /><text x="338.96576" y="282" style="font-size:10px;fill:rgb(200,200,200);text-anchor:middle;text-align:center;"> 0.15 </text><path d="M 292.11377 270 L 292.11377 272" style="stroke:rgb(200,200,200);stroke-width:1" /><text x="292.11377" y="282" style="font-size:10px;fill:rgb(200,200,200);text-anchor:middle;text-align:center;"> 0.2 </text><path d="M 255.7725 270 L 255.7725 272" style="stroke:rgb(200,200,200);stroke-width:1" /><text x="255.7725" y="282" style="font-size:10px;fill:rgb(200,200,200);text-anchor:middle;text-align:center;"> 0.25 </text><path d="M 142.88626 270 L 142.88626 272" style="stroke:rgb(200,200,200);stroke-width:1" /><text x="142.88626" y="282" style="font-size:10px;fill:rgb(200,200,200);text-anchor:middle;text-align:center;"> 0.5 </text><path d="M 30 270 L 30 272" style="stroke:rgb(200,200,200);stroke-width:1" /><text x="30" y="282" style="font-size:10px;fill:rgb(200,200,200);text-anchor:middle;text-align:center;"> 1 </text><path d="M 28 270 L 30 270" style="stroke:rgb(200,200,200);stroke-width:1" /><text x="26" y="274" style="font-size:10px;fill:rgb(200,200,200);text-anchor:end;text-align:right;"> 0 </text><path d="M 28 207.5 L 30 207.5" style="stroke:rgb(200,200,200);stroke-width:1" /><text x="26" y="211.5" style="font-size:10px;fill:rgb(200,200,200);text-anchor:end;text-align:right;"> 0.25 </text><path d="M 28 145 L 30 145" style="stroke:rgb(200,200,200);stroke-width:1" /><text x="26" y="149" style="font-size:10px;fill:rgb(200,200,200);text-anchor:end;text-align:right;"> 0.5 </text><path d="M 28 82.5 L 30 82.5" style="stroke:rgb(200,200,200);stroke-width:1" /><text x="26" y="86.5" style="font-size:10px;fill:rgb(200,200,200);text-anchor:end;text-align:right;"> 0.75 </text><path d="M 28 20 L 30 20" style="stroke:rgb(200,200,200);stroke-width:1" /><text x="26" y="24" style="font-size:10px;fill:rgb(200,200,200);text-anchor:end;text-align:right;"> 1 </text><text x="400" y="294" style="font-size:10px;fill:rgb(200,200,200);text-anchor:middle;text-align:center;"> Tolerance </text><circle cx="780" cy="23.315002" r="2" style="fill:rgb(255,181,90);stroke:none;fill-opacity:1;stroke-opacity:1;" /><path d="M 780 23.315002 L 630.77246 106.817505" style="stroke:rgb(255,181,90);stroke-width:1" /><circle cx="630.77246" cy="106.817505" r="2" style="fill:rgb(255,181,90);stroke:none;fill-opacity:1;stroke-opacity:1;" /><path d="M 630.77246 106.817505 L 517.8862 146.6925" style="stroke:rgb(255,181,90);stroke-width:1" /><circle cx="517.8862" cy="146.6925" r="2" style="fill:rgb(255,181,90);stroke:none;fill-opacity:1;stroke-opacity:1;" /><path d="M 517.8862 146.6925 L 451.85202 162.6325" style="stroke:rgb(255,181,90);stroke-width:1" /><circle cx="451.85202" cy="162.6325" r="2" style="fill:rgb(255,181,90);stroke:none;fill-opacity:1;stroke-opacity:1;" /><path d="M 451.85202 162.6325 L 405 170.735" style="stroke:rgb(255,181,90);stroke-width:1" /><circle cx="405" cy="170.735" r="2" style="fill:rgb(255,181,90);stroke:none;fill-opacity:1;stroke-opacity:1;" /><path d="M 405 170.735 L 338.96576 177.16751" style="stroke:rgb(255,181,90);stroke-width:1" /><circle cx="338.96576" cy="177.16751" r="2" style="fill:rgb(255,181,90);stroke:none;fill-opacity:1;stroke-opacity:1;" /><path d="M 338.96576 177.16751 L 292.11377 176.505" style="stroke:rgb(255,181,90);stroke-width:1" /><circle cx="292.11377" cy="176.505" r="2" style="fill:rgb(255,181,90);stroke:none;fill-opacity:1;stroke-opacity:1;" /><path d="M 292.11377 176.505 L 255.7725 170.39749" style="stroke:rgb(255,181,90);stroke-width:1" /><circle cx="255.7725" cy="170.39749" r="2" style="fill:rgb(255,181,90);stroke:none;fill-opacity:1;stroke-opacity:1;" /><path d="M 255.7725 170.39749 L 142.88626 198.035" style="stroke:rgb(255,181,90);stroke-width:1" /><circle cx="142.88626" cy="198.035" r="2" style="fill:rgb(255,181,90);stroke:none;fill-opacity:1;stroke-opacity:1;" /><path d="M 142.88626 198.035 L 30 217.4" style="stroke:rgb(255,181,90);stroke-width:1" /><circle cx="30" cy="217.4" r="2" style="fill:rgb(255,181,90);stroke:none;fill-opacity:1;stroke-opacity:1;" /><circle cx="780" cy="226.395" r="2" style="fill:rgb(119,211,179);stroke:none;fill-opacity:1;stroke-opacity:1;" /><path d="M 780 226.395 L 630.77246 237.785" style="stroke:rgb(119,211,179);stroke-width:1" /><circle cx="630.77246" cy="237.785" r="2" style="fill:rgb(119,211,179);stroke:none;fill-opacity:1;stroke-opacity:1;" /><path d="M 630.77246 237.785 L 517.8862 243.7575" style="stroke:rgb(119,211,179);stroke-width:1" /><circle cx="517.8862" cy="243.7575" r="2" style="fill:rgb(119,211,179);stroke:none;fill-opacity:1;stroke-opacity:1;" /><path d="M 517.8862 243.7575 L 451.85202 246.8325" style="stroke:rgb(119,211,179);stroke-width:1" /><circle cx="451.85202" cy="246.8325" r="2" style="fill:rgb(119,211,179);stroke:none;fill-opacity:1;stroke-opacity:1;" /><path d="M 451.85202 246.8325 L 405 248.8125" style="stroke:rgb(119,211,179);stroke-width:1" /><circle cx="405" cy="248.8125" r="2" style="fill:rgb(119,211,179);stroke:none;fill-opacity:1;stroke-opacity:1;" /><path d="M 405 248.8125 L 338.96576 251.14749" style="stroke:rgb(119,211,179);stroke-width:1" /><circle cx="338.96576" cy="251.14749" r="2" style="fill:rgb(119,211,179);stroke:none;fill-opacity:1;stroke-opacity:1;" /><path d="M 338.96576 251.14749 L 292.11377 252.49" style="stroke:rgb(119,211,179);stroke-width:1" /><circle cx="292.11377" cy="252.49" r="2" style="fill:rgb(119,211,179);stroke:none;fill-opacity:1;stroke-opacity:1;" /><path d="M 292.11377 252.49 L 255.7725 253.525" style="stroke:rgb(119,211,179);stroke-width:1" /><circle cx="255.7725" cy="253.525" r="2" style="fill:rgb(119,211,179);stroke:none;fill-opacity:1;stroke-opacity:1;" /><path d="M 255.7725 253.525 L 142.88626 256.8325" style="stroke:rgb(119,211,179);stroke-width:1" /><circle cx="142.88626" cy="256.8325" r="2" style="fill:rgb(119,211,179);stroke:none;fill-opacity:1;stroke-opacity:1;" /><path d="M 142.88626 256.8325 L 30 259.06" style="stroke:rgb(119,211,179);stroke-width:1" /><circle cx="30" cy="259.06" r="2" style="fill:rgb(119,211,179);stroke:none;fill-opacity:1;stroke-opacity:1;" /><circle cx="780" cy="249.9375" r="2" style="fill:rgb(199,126,190);stroke:none;fill-opacity:1;stroke-opacity:1;" /><path d="M 780 249.9375 L 630.77246 255.05" style="stroke:rgb(199,126,190);stroke-width:1" /><circle cx="630.77246" cy="255.05" r="2" style="fill:rgb(199,126,190);stroke:none;fill-opacity:1;stroke-opacity:1;" /><path d="M 630.77246 255.05 L 517.8862 257.6275" style="stroke:rgb(199,126,190);stroke-width:1" /><circle cx="517.8862" cy="257.6275" r="2" style="fill:rgb(199,126,190);stroke:none;fill-opacity:1;stroke-opacity:1;" /><path d="M 517.8862 257.6275 L 451.85202 258.8625" style="stroke:rgb(199,126,190);stroke-width:1" /><circle cx="451.85202" cy="258.8625" r="2" style="fill:rgb(199,126,190);stroke:none;fill-opacity:1;stroke-opacity:1;" /><path d="M 451.85202 258.8625 L 405 259.6925" style="stroke:rgb(199,126,190);stroke-width:1" /><circle cx="405" cy="259.6925" r="2" style="fill:rgb(199,126,190);stroke:none;fill-opacity:1;stroke-opacity:1;" /><path d="M 405 259.6925 L 338.96576 260.785" style="stroke:rgb(199,126,190);stroke-width:1" /><circle cx="338.96576" cy="260.785" r="2" style="fill:rgb(199,126,190);stroke:none;fill-opacity:1;stroke-opacity:1;" /><path d="M 338.96576 260.785 L 292.11377 261.5" style="stroke:rgb(199,126,190);stroke-width:1" /><circle cx="292.11377" cy="261.5" r="2" style="fill:rgb(199,126,190);stroke:none;fill-opacity:1;stroke-opacity:1;" /><path d="M 292.11377 261.5 L 255.7725 261.955" style="stroke:rgb(199,126,190);stroke-width:1" /><circle cx="255.7725" cy="261.955" r="2" style="fill:rgb(199,126,190);stroke:none;fill-opacity:1;stroke-opacity:1;" /><path d="M 255.7725 261.955 L 142.88626 263.185" style="stroke:rgb(199,126,190);stroke-width:1" /><circle cx="142.88626" cy="263.185" r="2" style="fill:rgb(199,126,190);stroke:none;fill-opacity:1;stroke-opacity:1;" /><path d="M 142.88626 263.185 L 30 264.1275" style="stroke:rgb(199,126,190);stroke-width:1" /><circle cx="30" cy="264.1275" r="2" style="fill:rgb(199,126,190);stroke:none;fill-opacity:1;stroke-opacity:1;" /><circle cx="780" cy="240.68" r="2" style="fill:rgb(120,68,33);stroke:none;fill-opacity:1;stroke-opacity:1;" /><path d="M 780 240.68 L 630.77246 244.6575" style="stroke:rgb(120,68,33);stroke-width:1" /><circle cx="630.77246" cy="244.6575" r="2" style="fill:rgb(120,68,33);stroke:none;fill-opacity:1;stroke-opacity:1;" /><path d="M 630.77246 244.6575 L 517.8862 247.015" style="stroke:rgb(120,68,33);stroke-width:1" /><circle cx="517.8862" cy="247.015" r="2" style="fill:rgb(120,68,33);stroke:none;fill-opacity:1;stroke-opacity:1;" /><path d="M 517.8862 247.015 L 451.85202 248.2025" style="stroke:rgb(120,68,33);stroke-width:1" /><circle cx="451.85202" cy="248.2025" r="2" style="fill:rgb(120,68,33);stroke:none;fill-opacity:1;stroke-opacity:1;" /><path d="M 451.85202 248.2025 L 405 248.9925" style="stroke:rgb(120,68,33);stroke-width:1" /><circle cx="405" cy="248.9925" r="2" style="fill:rgb(120,68,33);stroke:none;fill-opacity:1;stroke-opacity:1;" /><path d="M 405 248.9925 L 338.96576 250.135" style="stroke:rgb(120,68,33);stroke-width:1" /><circle cx="338.96576" cy="250.135" r="2" style="fill:rgb(120,68,33);stroke:none;fill-opacity:1;stroke-opacity:1;" /><path d="M 338.96576 250.135 L 292.11377 250.97" style="stroke:rgb(120,68,33);stroke-width:1" /><circle cx="292.11377" cy="250.97" r="2" style="fill:rgb(120,68,33);stroke:none;fill-opacity:1;stroke-opacity:1;" /><path d="M 292.11377 250.97 L 255.7725 251.65" style="stroke:rgb(120,68,33);stroke-width:1" /><circle cx="255.7725" cy="251.65" r="2" style="fill:rgb(120,68,33);stroke:none;fill-opacity:1;stroke-opacity:1;" /><path d="M 255.7725 251.65 L 142.88626 253.2425" style="stroke:rgb(120,68,33);stroke-width:1" /><circle cx="142.88626" cy="253.2425" r="2" style="fill:rgb(120,68,33);stroke:none;fill-opacity:1;stroke-opacity:1;" /><path d="M 142.88626 253.2425 L 30 253.7075" style="stroke:rgb(120,68,33);stroke-width:1" /><circle cx="30" cy="253.7075" r="2" style="fill:rgb(120,68,33);stroke:none;fill-opacity:1;stroke-opacity:1;" /><circle cx="780" cy="242.0525" r="2" style="fill:rgb(253,127,111);stroke:none;fill-opacity:1;stroke-opacity:1;" /><path d="M 780 242.0525 L 630.77246 250.3175" style="stroke:rgb(253,127,111);stroke-width:1" /><circle cx="630.77246" cy="250.3175" r="2" style="fill:rgb(253,127,111);stroke:none;fill-opacity:1;stroke-opacity:1;" /><path d="M 630.77246 250.3175 L 517.8862 254.41" style="stroke:rgb(253,127,111);stroke-width:1" /><circle cx="517.8862" cy="254.41" r="2" style="fill:rgb(253,127,111);stroke:none;fill-opacity:1;stroke-opacity:1;" /><path d="M 517.8862 254.41 L 451.85202 256.2675" style="stroke:rgb(253,127,111);stroke-width:1" /><circle cx="451.85202" cy="256.2675" r="2" style="fill:rgb(253,127,111);stroke:none;fill-opacity:1;stroke-opacity:1;" /><path d="M 451.85202 256.2675 L 405 257.51" style="stroke:rgb(253,127,111);stroke-width:1" /><circle cx="405" cy="257.51" r="2" style="fill:rgb(253,127,111);stroke:none;fill-opacity:1;stroke-opacity:1;" /><path d="M 405 257.51 L 338.96576 259.005" style="stroke:rgb(253,127,111);stroke-width:1" /><circle cx="338.96576" cy="259.005" r="2" style="fill:rgb(253,127,111);stroke:none;fill-opacity:1;stroke-opacity:1;" /><path d="M 338.96576 259.005 L 292.11377 259.975" style="stroke:rgb(253,127,111);stroke-width:1" /><circle cx="292.11377" cy="259.975" r="2" style="fill:rgb(253,127,111);stroke:none;fill-opacity:1;stroke-opacity:1;" /><path d="M 292.11377 259.975 L 255.7725 260.6275" style="stroke:rgb(253,127,111);stroke-width:1" /><circle cx="255.7725" cy="260.6275" r="2" style="fill:rgb(253,127,111);stroke:none;fill-opacity:1;stroke-opacity:1;" /><path d="M 255.7725 260.6275 L 142.88626 262.3075" style="stroke:rgb(253,127,111);stroke-width:1" /><circle cx="142.88626" cy="262.3075" r="2" style="fill:rgb(253,127,111);stroke:none;fill-opacity:1;stroke-opacity:1;" /><path d="M 142.88626 262.3075 L 30 263.6925" style="stroke:rgb(253,127,111);stroke-width:1" /><circle cx="30" cy="263.6925" r="2" style="fill:rgb(253,127,111);stroke:none;fill-opacity:1;stroke-opacity:1;" /><circle cx="780" cy="243.43" r="2" style="fill:rgb(200,113,55);stroke:none;fill-opacity:1;stroke-opacity:1;" /><path d="M 780 243.43 L 630.77246 246.45999" style="stroke:rgb(200,113,55);stroke-width:1" /><circle cx="630.77246" cy="246.45999" r="2" style="fill:rgb(200,113,55);stroke:none;fill-opacity:1;stroke-opacity:1;" /><path d="M 630.77246 246.45999 L 517.8862 248.48" style="stroke:rgb(200,113,55);stroke-width:1" /><circle cx="517.8862" cy="248.48" r="2" style="fill:rgb(200,113,55);stroke:none;fill-opacity:1;stroke-opacity:1;" /><path d="M 517.8862 248.48 L 451.85202 249.5175" style="stroke:rgb(200,113,55);stroke-width:1" /><circle cx="451.85202" cy="249.5175" r="2" style="fill:rgb(200,113,55);stroke:none;fill-opacity:1;stroke-opacity:1;" /><path d="M 451.85202 249.5175 L 405 250.18" style="stroke:rgb(200,113,55);stroke-width:1" /><circle cx="405" cy="250.18" r="2" style="fill:rgb(200,113,55);stroke:none;fill-opacity:1;stroke-opacity:1;" /><path d="M 405 250.18 L 338.96576 251.02249" style="stroke:rgb(200,113,55);stroke-width:1" /><circle cx="338.96576" cy="251.02249" r="2" style="fill:rgb(200,113,55);stroke:none;fill-opacity:1;stroke-opacity:1;" /><path d="M 338.96576 251.02249 L 292.11377 251.64749" style="stroke:rgb(200,113,55);stroke-width:1" /><circle cx="292.11377" cy="251.64749" r="2" style="fill:rgb(200,113,55);stroke:none;fill-opacity:1;stroke-opacity:1;" /><path d="M 292.11377 251.64749 L 255.7725 252.2175" style="stroke:rgb(200,113,55);stroke-width:1" /><circle cx="255.7725" cy="252.2175" r="2" style="fill:rgb(200,113,55);stroke:none;fill-opacity:1;stroke-opacity:1;" /><path d="M 255.7725 252.2175 L 142.88626 253.36" style="stroke:rgb(200,113,55);stroke-width:1" /><circle cx="142.88626" cy="253.36" r="2" style="fill:rgb(200,113,55);stroke:none;fill-opacity:1;stroke-opacity:1;" /><path d="M 142.88626 253.36 L 30 253.7325" style="stroke:rgb(200,113,55);stroke-width:1" /><circle cx="30" cy="253.7325" r="2" style="fill:rgb(200,113,55);stroke:none;fill-opacity:1;stroke-opacity:1;" /><circle cx="780" cy="20" r="2" style="fill:rgb(128,214,87);stroke:none;fill-opacity:1;stroke-opacity:1;" /><path d="M 780 20 L 630.77246 111.94" style="stroke:rgb(128,214,87);stroke-width:1" /><circle cx="630.77246" cy="111.94" r="2" style="fill:rgb(128,214,87);stroke:none;fill-opacity:1;stroke-opacity:1;" /><path d="M 630.77246 111.94 L 517.8862 157.045" style="stroke:rgb(128,214,87);stroke-width:1" /><circle cx="517.8862" cy="157.045" r="2" style="fill:rgb(128,214,87);stroke:none;fill-opacity:1;stroke-opacity:1;" /><path d="M 517.8862 157.045 L 451.85202 178.5625" style="stroke:rgb(128,214,87);stroke-width:1" /><circle cx="451.85202" cy="178.5625" r="2" style="fill:rgb(128,214,87);stroke:none;fill-opacity:1;stroke-opacity:1;" /><path d="M 451.85202 178.5625 L 405 190.51001" style="stroke:rgb(128,214,87);stroke-width:1" /><circle cx="405" cy="190.51001" r="2" style="fill:rgb(128,214,87);stroke:none;fill-opacity:1;stroke-opacity:1;" /><path d="M 405 190.51001 L 338.96576 204.89" style="stroke:rgb(128,214,87);stroke-width:1" /><circle cx="338.96576" cy="204.89" r="2" style="fill:rgb(128,214,87);stroke:none;fill-opacity:1;stroke-opacity:1;" /><path d="M 338.96576 204.89 L 292.11377 214.035" style="stroke:rgb(128,214,87);stroke-width:1" /><circle cx="292.11377" cy="214.035" r="2" style="fill:rgb(128,214,87);stroke:none;fill-opacity:1;stroke-opacity:1;" /><path d="M 292.11377 214.035 L 255.7725 220.12" style="stroke:rgb(128,214,87);stroke-width:1" /><circle cx="255.7725" cy="220.12" r="2" style="fill:rgb(128,214,87);stroke:none;fill-opacity:1;stroke-opacity:1;" /><path d="M 255.7725 220.12 L 142.88626 234.9625" style="stroke:rgb(128,214,87);stroke-width:1" /><circle cx="142.88626" cy="234.9625" r="2" style="fill:rgb(128,214,87);stroke:none;fill-opacity:1;stroke-opacity:1;" /><path d="M 142.88626 234.9625 L 30 245.4575" style="stroke:rgb(128,214,87);stroke-width:1" /><circle cx="30" cy="245.4575" r="2" style="fill:rgb(128,214,87);stroke:none;fill-opacity:1;stroke-opacity:1;" /><circle cx="780" cy="239.2525" r="2" style="fill:rgb(253,204,229);stroke:none;fill-opacity:1;stroke-opacity:1;" /><path d="M 780 239.2525 L 630.77246 248.7525" style="stroke:rgb(253,204,229);stroke-width:1" /><circle cx="630.77246" cy="248.7525" r="2" style="fill:rgb(253,204,229);stroke:none;fill-opacity:1;stroke-opacity:1;" /><path d="M 630.77246 248.7525 L 517.8862 253.485" style="stroke:rgb(253,204,229);stroke-width:1" /><circle cx="517.8862" cy="253.485" r="2" style="fill:rgb(253,204,229);stroke:none;fill-opacity:1;stroke-opacity:1;" /><path d="M 517.8862 253.485 L 451.85202 255.6075" style="stroke:rgb(253,204,229);stroke-width:1" /><circle cx="451.85202" cy="255.6075" r="2" style="fill:rgb(253,204,229);stroke:none;fill-opacity:1;stroke-opacity:1;" /><path d="M 451.85202 255.6075 L 405 256.895" style="stroke:rgb(253,204,229);stroke-width:1" /><circle cx="405" cy="256.895" r="2" style="fill:rgb(253,204,229);stroke:none;fill-opacity:1;stroke-opacity:1;" /><path d="M 405 256.895 L 338.96576 258.54" style="stroke:rgb(253,204,229);stroke-width:1" /><circle cx="338.96576" cy="258.54" r="2" style="fill:rgb(253,204,229);stroke:none;fill-opacity:1;stroke-opacity:1;" /><path d="M 338.96576 258.54 L 292.11377 259.6125" style="stroke:rgb(253,204,229);stroke-width:1" /><circle cx="292.11377" cy="259.6125" r="2" style="fill:rgb(253,204,229);stroke:none;fill-opacity:1;stroke-opacity:1;" /><path d="M 292.11377 259.6125 L 255.7725 260.355" style="stroke:rgb(253,204,229);stroke-width:1" /><circle cx="255.7725" cy="260.355" r="2" style="fill:rgb(253,204,229);stroke:none;fill-opacity:1;stroke-opacity:1;" /><path d="M 255.7725 260.355 L 142.88626 262.275" style="stroke:rgb(253,204,229);stroke-width:1" /><circle cx="142.88626" cy="262.275" r="2" style="fill:rgb(253,204,229);stroke:none;fill-opacity:1;stroke-opacity:1;" /><path d="M 142.88626 262.275 L 30 263.7425" style="stroke:rgb(253,204,229);stroke-width:1" /><circle cx="30" cy="263.7425" r="2" style="fill:rgb(253,204,229);stroke:none;fill-opacity:1;stroke-opacity:1;" /><circle cx="780" cy="221.4375" r="2" style="fill:rgb(126,176,213);stroke:none;fill-opacity:1;stroke-opacity:1;" /><path d="M 780 221.4375 L 630.77246 230.1575" style="stroke:rgb(126,176,213);stroke-width:1" /><circle cx="630.77246" cy="230.1575" r="2" style="fill:rgb(126,176,213);stroke:none;fill-opacity:1;stroke-opacity:1;" /><path d="M 630.77246 230.1575 L 517.8862 234.555" style="stroke:rgb(126,176,213);stroke-width:1" /><circle cx="517.8862" cy="234.555" r="2" style="fill:rgb(126,176,213);stroke:none;fill-opacity:1;stroke-opacity:1;" /><path d="M 517.8862 234.555 L 451.85202 236.60251" style="stroke:rgb(126,176,213);stroke-width:1" /><circle cx="451.85202" cy="236.60251" r="2" style="fill:rgb(126,176,213);stroke:none;fill-opacity:1;stroke-opacity:1;" /><path d="M 451.85202 236.60251 L 405 237.9875" style="stroke:rgb(126,176,213);stroke-width:1" /><circle cx="405" cy="237.9875" r="2" style="fill:rgb(126,176,213);stroke:none;fill-opacity:1;stroke-opacity:1;" /><path d="M 405 237.9875 L 338.96576 239.61" style="stroke:rgb(126,176,213);stroke-width:1" /><circle cx="338.96576" cy="239.61" r="2" style="fill:rgb(126,176,213);stroke:none;fill-opacity:1;stroke-opacity:1;" /><path d="M 338.96576 239.61 L 292.11377 240.5" style="stroke:rgb(126,176,213);stroke-width:1" /><circle cx="292.11377" cy="240.5" r="2" style="fill:rgb(126,176,213);stroke:none;fill-opacity:1;stroke-opacity:1;" /><path d="M 292.11377 240.5 L 255.7725 241.07" style="stroke:rgb(126,176,213);stroke-width:1" /><circle cx="255.7725" cy="241.07" r="2" style="fill:rgb(126,176,213);stroke:none;fill-opacity:1;stroke-opacity:1;" /><path d="M 255.7725 241.07 L 142.88626 242.88" style="stroke:rgb(126,176,213);stroke-width:1" /><circle cx="142.88626" cy="242.88" r="2" style="fill:rgb(126,176,213);stroke:none;fill-opacity:1;stroke-opacity:1;" /><path d="M 142.88626 242.88 L 30 244.225" style="stroke:rgb(126,176,213);stroke-width:1" /><circle cx="30" cy="244.225" r="2" style="fill:rgb(126,176,213);stroke:none;fill-opacity:1;stroke-opacity:1;" /><circle cx="780" cy="167.8775" r="2" style="fill:rgb(50,125,209);stroke:none;fill-opacity:1;stroke-opacity:1;" /><path d="M 780 167.8775 L 630.77246 195.5625" style="stroke:rgb(50,125,209);stroke-width:1" /><circle cx="630.77246" cy="195.5625" r="2" style="fill:rgb(50,125,209);stroke:none;fill-opacity:1;stroke-opacity:1;" /><path d="M 630.77246 195.5625 L 517.8862 209.66501" style="stroke:rgb(50,125,209);stroke-width:1" /><circle cx="517.8862" cy="209.66501" r="2" style="fill:rgb(50,125,209);stroke:none;fill-opacity:1;stroke-opacity:1;" /><path d="M 517.8862 209.66501 L 451.85202 216.1275" style="stroke:rgb(50,125,209);stroke-width:1" /><circle cx="451.85202" cy="216.1275" r="2" style="fill:rgb(50,125,209);stroke:none;fill-opacity:1;stroke-opacity:1;" /><path d="M 451.85202 216.1275 L 405 220.115" style="stroke:rgb(50,125,209);stroke-width:1" /><circle cx="405" cy="220.115" r="2" style="fill:rgb(50,125,209);stroke:none;fill-opacity:1;stroke-opacity:1;" /><path d="M 405 220.115 L 338.96576 224.9975" style="stroke:rgb(50,125,209);stroke-width:1" /><circle cx="338.96576" cy="224.9975" r="2" style="fill:rgb(50,125,209);stroke:none;fill-opacity:1;stroke-opacity:1;" /><path d="M 338.96576 224.9975 L 292.11377 227.9475" style="stroke:rgb(50,125,209);stroke-width:1" /><circle cx="292.11377" cy="227.9475" r="2" style="fill:rgb(50,125,209);stroke:none;fill-opacity:1;stroke-opacity:1;" /><path d="M 292.11377 227.9475 L 255.7725 230.0125" style="stroke:rgb(50,125,209);stroke-width:1" /><circle cx="255.7725" cy="230.0125" r="2" style="fill:rgb(50,125,209);stroke:none;fill-opacity:1;stroke-opacity:1;" /><path d="M 255.7725 230.0125 L 142.88626 235.2525" style="stroke:rgb(50,125,209);stroke-width:1" /><circle cx="142.88626" cy="235.2525" r="2" style="fill:rgb(50,125,209);stroke:none;fill-opacity:1;stroke-opacity:1;" /><path d="M 142.88626 235.2525 L 30 239.355" style="stroke:rgb(50,125,209);stroke-width:1" /><circle cx="30" cy="239.355" r="2" style="fill:rgb(50,125,209);stroke:none;fill-opacity:1;stroke-opacity:1;" /><circle cx="780" cy="60.53" r="2" style="fill:rgb(255,238,101);stroke:none;fill-opacity:1;stroke-opacity:1;" /><path d="M 780 60.53 L 630.77246 144.85251" style="stroke:rgb(255,238,101);stroke-width:1" /><circle cx="630.77246" cy="144.85251" r="2" style="fill:rgb(255,238,101);stroke:none;fill-opacity:1;stroke-opacity:1;" /><path d="M 630.77246 144.85251 L 517.8862 173.6175" style="stroke:rgb(255,238,101);stroke-width:1" /><circle cx="517.8862" cy="173.6175" r="2" style="fill:rgb(255,238,101);stroke:none;fill-opacity:1;stroke-opacity:1;" /><path d="M 517.8862 173.6175 L 451.85202 194.45749" style="stroke:rgb(255,238,101);stroke-width:1" /><circle cx="451.85202" cy="194.45749" r="2" style="fill:rgb(255,238,101);stroke:none;fill-opacity:1;stroke-opacity:1;" /><path d="M 451.85202 194.45749 L 405 207.2" style="stroke:rgb(255,238,101);stroke-width:1" /><circle cx="405" cy="207.2" r="2" style="fill:rgb(255,238,101);stroke:none;fill-opacity:1;stroke-opacity:1;" /><path d="M 405 207.2 L 338.96576 216.3025" style="stroke:rgb(255,238,101);stroke-width:1" /><circle cx="338.96576" cy="216.3025" r="2" style="fill:rgb(255,238,101);stroke:none;fill-opacity:1;stroke-opacity:1;" /><path d="M 338.96576 216.3025 L 292.11377 221.8925" style="stroke:rgb(255,238,101);stroke-width:1" /><circle cx="292.11377" cy="221.8925" r="2" style="fill:rgb(255,238,101);stroke:none;fill-opacity:1;stroke-opacity:1;" /><path d="M 292.11377 221.8925 L 255.7725 227.32" style="stroke:rgb(255,238,101);stroke-width:1" /><circle cx="255.7725" cy="227.32" r="2" style="fill:rgb(255,238,101);stroke:none;fill-opacity:1;stroke-opacity:1;" /><path d="M 255.7725 227.32 L 142.88626 241.9675" style="stroke:rgb(255,238,101);stroke-width:1" /><circle cx="142.88626" cy="241.9675" r="2" style="fill:rgb(255,238,101);stroke:none;fill-opacity:1;stroke-opacity:1;" /><path d="M 142.88626 241.9675 L 30 248.87" style="stroke:rgb(255,238,101);stroke-width:1" /><circle cx="30" cy="248.87" r="2" style="fill:rgb(255,238,101);stroke:none;fill-opacity:1;stroke-opacity:1;" /><rect x="676" y="16" width="80" height="238" ry="4" style="fill:rgb(30,30,30);stroke:none;fill-opacity:0.8;stroke-opacity:1;" /><rect x="680" y="20" width="20" height="20" ry="2" style="fill:rgb(253,127,111);stroke:none;fill-opacity:1;stroke-opacity:1;" /><text x="705" y="33" style="font-size:10px;fill:rgb(255,255,255);text-anchor:start;text-align:left;"> fwd-diff </text><rect x="680" y="41" width="20" height="20" ry="2" style="fill:rgb(255,181,90);stroke:none;fill-opacity:1;stroke-opacity:1;" /><text x="705" y="54" style="font-size:10px;fill:rgb(255,255,255);text-anchor:start;text-align:left;"> hain </text><rect x="680" y="62" width="20" height="20" ry="2" style="fill:rgb(50,125,209);stroke:none;fill-opacity:1;stroke-opacity:1;" /><text x="705" y="75" style="font-size:10px;fill:rgb(255,255,255);text-anchor:start;text-align:left;"> levien </text><rect x="680" y="83" width="20" height="20" ry="2" style="fill:rgb(119,211,179);stroke:none;fill-opacity:1;stroke-opacity:1;" /><text x="705" y="96" style="font-size:10px;fill:rgb(255,255,255);text-anchor:start;text-align:left;"> levien-linear </text><rect x="680" y="104" width="20" height="20" ry="2" style="fill:rgb(126,176,213);stroke:none;fill-opacity:1;stroke-opacity:1;" /><text x="705" y="117" style="font-size:10px;fill:rgb(255,255,255);text-anchor:start;text-align:left;"> levien-simd </text><rect x="680" y="125" width="20" height="20" ry="2" style="fill:rgb(128,214,87);stroke:none;fill-opacity:1;stroke-opacity:1;" /><text x="705" y="138" style="font-size:10px;fill:rgb(255,255,255);text-anchor:start;text-align:left;"> linear </text><rect x="680" y="146" width="20" height="20" ry="2" style="fill:rgb(255,238,101);stroke:none;fill-opacity:1;stroke-opacity:1;" /><text x="705" y="159" style="font-size:10px;fill:rgb(255,255,255);text-anchor:start;text-align:left;"> recursive </text><rect x="680" y="167" width="20" height="20" ry="2" style="fill:rgb(253,204,229);stroke:none;fill-opacity:1;stroke-opacity:1;" /><text x="705" y="180" style="font-size:10px;fill:rgb(255,255,255);text-anchor:start;text-align:left;"> wang </text><rect x="680" y="188" width="20" height="20" ry="2" style="fill:rgb(199,126,190);stroke:none;fill-opacity:1;stroke-opacity:1;" /><text x="705" y="201" style="font-size:10px;fill:rgb(255,255,255);text-anchor:start;text-align:left;"> wang-simd </text><rect x="680" y="209" width="20" height="20" ry="2" style="fill:rgb(120,68,33);stroke:none;fill-opacity:1;stroke-opacity:1;" /><text x="705" y="222" style="font-size:10px;fill:rgb(255,255,255);text-anchor:start;text-align:left;"> yzerman </text><rect x="680" y="230" width="20" height="20" ry="2" style="fill:rgb(200,113,55);stroke:none;fill-opacity:1;stroke-opacity:1;" /><text x="705" y="243" style="font-size:10px;fill:rgb(255,255,255);text-anchor:start;text-align:left;"> yzerman-simd </text><text x="400" y="30" style="font-size:20px;fill:rgb(255,255,255);text-anchor:middle;text-align:center;"> all dataset: cubic </text><text x="400" y="42" style="font-size:8px;fill:rgb(200,200,200);text-anchor:middle;text-align:center;"> Normalized performance score (lower is better) </text></svg>