<svg xmlns="http://www.w3.org/2000/svg" viewBox="0 0 800 300"><rect x="0" y="0" width="800" height="300" ry="6" style="fill:rgb(30,30,30);stroke:none;fill-opacity:1;stroke-opacity:1;" /><path d="M 30 20 L 30 270" style="stroke:rgb(200,200,200);stroke-width:1" /><path d="M 30 270 L 780 270" style="stroke:rgb(200,200,200);stroke-width:1" /><path d="M 780 270 L 780 272" style="stroke:rgb(200,200,200);stroke-width:1" /><text x="780" y="282" style="font-size:10px;fill:rgb(200,200,200);text-anchor:middle;text-align:center;"> 0.01 </text><path d="M 630.77246 270 L 630.77246 272" style="stroke:rgb(200,200,200);stroke-width:1" /><text x="630.77246" y="282" style="font-size:10px;fill:rgb(200,200,200);text-anchor:middle;text-align:center;"> 0.025 </text><path d="M 517.8862 270 L 517.8862 272" style="stroke:rgb(200,200,200);stroke-width:1" /><text x="517.8862" y="282" style="font-size:10px;fill:rgb(200,200,200);text-anchor:middle;text-align:center;"> 0.05 </text><path d="M 451.85202 270 L 451.85202 272" style="stroke:rgb(200,200,200);stroke-width:1" /><text x="451.85202" y="282" style="font-size:10px;fill:rgb(200,200,200);text-anchor:middle;text-align:center;"> 0.075 </text><path d="M 405 270 L 405 272" style="stroke:rgb(200,200,200);stroke-width:1" /><text x="405" y="282" style="font-size:10px;fill:rgb(200,200,200);text-anchor:middle;text-align:center;"> 0.1 </text><path d="M 338.96576 270 L 338.96576 272" style="stroke:rgb(200,200,200);stroke-width:1" /><text x="338.96576" y="282" style="font-size:10px;fill:rgb(200,200,200);text-anchor:middle;text-align:center;"> 0.15 </text><path d="M 292.11377 270 L 292.11377 272" style="stroke:rgb(200,200,200);stroke-width:1" /><text x="292.11377" y="282" style="font-size:10px;fill:rgb(200,200,200);text-anchor:middle;text-align:center;"> 0.2 </text><path d="M 255.7725 270 L 255.7725 272" style="stroke:rgb(200,200,200);stroke-width:1" /><text x="255.7725" y="282" style="font-size:10px;fill:rgb(200,200,200);text-anchor:middle;text-align:center;"> 0.25 </text><path d="M 142.88626 270 L 142.88626 272" style="stroke:rgb(200,200,200);stroke-width:1" /><text x="142.88626" y="282" style="font-size:10px;fill:rgb(200,200,200);text-anchor:middle;text-align:center;"> 0.5 </text><path d="M 30 270 L 30 272" style="stroke:rgb(200,200,200);stroke-width:1" /><text x="30" y="282" style="font-size:10px;fill:rgb(200,200,200);text-anchor:middle;text-align:center;"> 1 </text><path d="M 28 270 L 30 270" style="stroke:rgb(200,200,200);stroke-width:1" /><text x="26" y="274" style="font-size:10px;fill:rgb(200,200,200);text-anchor:end;text-align:right;"> 0 </text><path d="M 28 207.5 L 30 207.5" style="stroke:rgb(200,200,200);stroke-width:1" /><text x="26" y="211.5" style="font-size:10px;fill:rgb(200,200,200);text-anchor:end;text-align:right;"> 0.25 </text><path d="M 28 145 L 30 145" style="stroke:rgb(200,200,200);stroke-width:1" /><text x="26" y="149" style="font-size:10px;fill:rgb(200,200,200);text-anchor:end;text-align:right;"> 0.5 </text><path d="M 28 82.5 L 30 82.5" style="stroke:rgb(200,200,200);stroke-width:1" /><text x="26" y="86.5" style="font-size:10px;fill:rgb(200,200,200);text-anchor:end;text-align:right;"> 0.75 </text><path d="M 28 20 L 30 20" style="stroke:rgb(200,200,200);stroke-width:1" /><text x="26" y="24" style="font-size:10px;fill:rgb(200,200,200);text-anchor:end;text-align:right;"> 1 </text><text x="400" y="294" style="font-size:10px;fill:rgb(200,200,200);text-anchor:middle;text-align:center;"> Tolerance </text><circle cx="780" cy="41.050003" r="2" style="fill:rgb(126,176,213);stroke:none;fill-opacity:1;stroke-opacity:1;" /><path d="M 780 41.050003 L 630.77246 56.537506" style="stroke:rgb(126,176,213);stroke-width:1" /><circle cx="630.77246" cy="56.537506" r="2" style="fill:rgb(126,176,213);stroke:none;fill-opacity:1;stroke-opacity:1;" /><path d="M 630.77246 56.537506 L 517.8862 68.89751" style="stroke:rgb(126,176,213);stroke-width:1" /><circle cx="517.8862" cy="68.89751" r="2" style="fill:rgb(126,176,213);stroke:none;fill-opacity:1;stroke-opacity:1;" /><path d="M 517.8862 68.89751 L 451.85202 73.7675" style="stroke:rgb(126,176,213);stroke-width:1" /><circle cx="451.85202" cy="73.7675" r="2" style="fill:rgb(126,176,213);stroke:none;fill-opacity:1;stroke-opacity:1;" /><path d="M 451.85202 73.7675 L 405 74.67" style="stroke:rgb(126,176,213);stroke-width:1" /><circle cx="405" cy="74.67" r="2" style="fill:rgb(126,176,213);stroke:none;fill-opacity:1;stroke-opacity:1;" /><path d="M 405 74.67 L 338.96576 76.1225" style="stroke:rgb(126,176,213);stroke-width:1" /><circle cx="338.96576" cy="76.1225" r="2" style="fill:rgb(126,176,213);stroke:none;fill-opacity:1;stroke-opacity:1;" /><path d="M 338.96576 76.1225 L 292.11377 75.667496" style="stroke:rgb(126,176,213);stroke-width:1" /><circle cx="292.11377" cy="75.667496" r="2" style="fill:rgb(126,176,213);stroke:none;fill-opacity:1;stroke-opacity:1;" /><path d="M 292.11377 75.667496 L 255.7725 75.7525" style="stroke:rgb(126,176,213);stroke-width:1" /><circle cx="255.7725" cy="75.7525" r="2" style="fill:rgb(126,176,213);stroke:none;fill-opacity:1;stroke-opacity:1;" /><path d="M 255.7725 75.7525 L 142.88626 77.99249" style="stroke:rgb(126,176,213);stroke-width:1" /><circle cx="142.88626" cy="77.99249" r="2" style="fill:rgb(126,176,213);stroke:none;fill-opacity:1;stroke-opacity:1;" /><path d="M 142.88626 77.99249 L 30 78.4825" style="stroke:rgb(126,176,213);stroke-width:1" /><circle cx="30" cy="78.4825" r="2" style="fill:rgb(126,176,213);stroke:none;fill-opacity:1;stroke-opacity:1;" /><circle cx="780" cy="181.0925" r="2" style="fill:rgb(119,211,179);stroke:none;fill-opacity:1;stroke-opacity:1;" /><path d="M 780 181.0925 L 630.77246 234.1325" style="stroke:rgb(119,211,179);stroke-width:1" /><circle cx="630.77246" cy="234.1325" r="2" style="fill:rgb(119,211,179);stroke:none;fill-opacity:1;stroke-opacity:1;" /><path d="M 630.77246 234.1325 L 517.8862 249.01" style="stroke:rgb(119,211,179);stroke-width:1" /><circle cx="517.8862" cy="249.01" r="2" style="fill:rgb(119,211,179);stroke:none;fill-opacity:1;stroke-opacity:1;" /><path d="M 517.8862 249.01 L 451.85202 252.5325" style="stroke:rgb(119,211,179);stroke-width:1" /><circle cx="451.85202" cy="252.5325" r="2" style="fill:rgb(119,211,179);stroke:none;fill-opacity:1;stroke-opacity:1;" /><path d="M 451.85202 252.5325 L 405 254.0575" style="stroke:rgb(119,211,179);stroke-width:1" /><circle cx="405" cy="254.0575" r="2" style="fill:rgb(119,211,179);stroke:none;fill-opacity:1;stroke-opacity:1;" /><path d="M 405 254.0575 L 338.96576 255.28" style="stroke:rgb(119,211,179);stroke-width:1" /><circle cx="338.96576" cy="255.28" r="2" style="fill:rgb(119,211,179);stroke:none;fill-opacity:1;stroke-opacity:1;" /><path d="M 338.96576 255.28 L 292.11377 256.3125" style="stroke:rgb(119,211,179);stroke-width:1" /><circle cx="292.11377" cy="256.3125" r="2" style="fill:rgb(119,211,179);stroke:none;fill-opacity:1;stroke-opacity:1;" /><path d="M 292.11377 256.3125 L 255.7725 257.3875" style="stroke:rgb(119,211,179);stroke-width:1" /><circle cx="255.7725" cy="257.3875" r="2" style="fill:rgb(119,211,179);stroke:none;fill-opacity:1;stroke-opacity:1;" /><path d="M 255.7725 257.3875 L 142.88626 260.9375" style="stroke:rgb(119,211,179);stroke-width:1" /><circle cx="142.88626" cy="260.9375" r="2" style="fill:rgb(119,211,179);stroke:none;fill-opacity:1;stroke-opacity:1;" /><path d="M 142.88626 260.9375 L 30 264.1625" style="stroke:rgb(119,211,179);stroke-width:1" /><circle cx="30" cy="264.1625" r="2" style="fill:rgb(119,211,179);stroke:none;fill-opacity:1;stroke-opacity:1;" /><circle cx="780" cy="211.9475" r="2" style="fill:rgb(255,238,101);stroke:none;fill-opacity:1;stroke-opacity:1;" /><path d="M 780 211.9475 L 630.77246 239.3125" style="stroke:rgb(255,238,101);stroke-width:1" /><circle cx="630.77246" cy="239.3125" r="2" style="fill:rgb(255,238,101);stroke:none;fill-opacity:1;stroke-opacity:1;" /><path d="M 630.77246 239.3125 L 517.8862 248.60251" style="stroke:rgb(255,238,101);stroke-width:1" /><circle cx="517.8862" cy="248.60251" r="2" style="fill:rgb(255,238,101);stroke:none;fill-opacity:1;stroke-opacity:1;" /><path d="M 517.8862 248.60251 L 451.85202 252.695" style="stroke:rgb(255,238,101);stroke-width:1" /><circle cx="451.85202" cy="252.695" r="2" style="fill:rgb(255,238,101);stroke:none;fill-opacity:1;stroke-opacity:1;" /><path d="M 451.85202 252.695 L 405 255.045" style="stroke:rgb(255,238,101);stroke-width:1" /><circle cx="405" cy="255.045" r="2" style="fill:rgb(255,238,101);stroke:none;fill-opacity:1;stroke-opacity:1;" /><path d="M 405 255.045 L 338.96576 256.37" style="stroke:rgb(255,238,101);stroke-width:1" /><circle cx="338.96576" cy="256.37" r="2" style="fill:rgb(255,238,101);stroke:none;fill-opacity:1;stroke-opacity:1;" /><path d="M 338.96576 256.37 L 292.11377 257.7625" style="stroke:rgb(255,238,101);stroke-width:1" /><circle cx="292.11377" cy="257.7625" r="2" style="fill:rgb(255,238,101);stroke:none;fill-opacity:1;stroke-opacity:1;" /><path d="M 292.11377 257.7625 L 255.7725 259.215" style="stroke:rgb(255,238,101);stroke-width:1" /><circle cx="255.7725" cy="259.215" r="2" style="fill:rgb(255,238,101);stroke:none;fill-opacity:1;stroke-opacity:1;" /><path d="M 255.7725 259.215 L 142.88626 263.8325" style="stroke:rgb(255,238,101);stroke-width:1" /><circle cx="142.88626" cy="263.8325" r="2" style="fill:rgb(255,238,101);stroke:none;fill-opacity:1;stroke-opacity:1;" /><path d="M 142.88626 263.8325 L 30 265.97" style="stroke:rgb(255,238,101);stroke-width:1" /><circle cx="30" cy="265.97" r="2" style="fill:rgb(255,238,101);stroke:none;fill-opacity:1;stroke-opacity:1;" /><circle cx="780" cy="239.265" r="2" style="fill:rgb(253,127,111);stroke:none;fill-opacity:1;stroke-opacity:1;" /><path d="M 780 239.265 L 630.77246 244.6075" style="stroke:rgb(253,127,111);stroke-width:1" /><circle cx="630.77246" cy="244.6075" r="2" style="fill:rgb(253,127,111);stroke:none;fill-opacity:1;stroke-opacity:1;" /><path d="M 630.77246 244.6075 L 517.8862 244.185" style="stroke:rgb(253,127,111);stroke-width:1" /><circle cx="517.8862" cy="244.185" r="2" style="fill:rgb(253,127,111);stroke:none;fill-opacity:1;stroke-opacity:1;" /><path d="M 517.8862 244.185 L 451.85202 245.5025" style="stroke:rgb(253,127,111);stroke-width:1" /><circle cx="451.85202" cy="245.5025" r="2" style="fill:rgb(253,127,111);stroke:none;fill-opacity:1;stroke-opacity:1;" /><path d="M 451.85202 245.5025 L 405 246.225" style="stroke:rgb(253,127,111);stroke-width:1" /><circle cx="405" cy="246.225" r="2" style="fill:rgb(253,127,111);stroke:none;fill-opacity:1;stroke-opacity:1;" /><path d="M 405 246.225 L 338.96576 250.53" style="stroke:rgb(253,127,111);stroke-width:1" /><circle cx="338.96576" cy="250.53" r="2" style="fill:rgb(253,127,111);stroke:none;fill-opacity:1;stroke-opacity:1;" /><path d="M 338.96576 250.53 L 292.11377 253.985" style="stroke:rgb(253,127,111);stroke-width:1" /><circle cx="292.11377" cy="253.985" r="2" style="fill:rgb(253,127,111);stroke:none;fill-opacity:1;stroke-opacity:1;" /><path d="M 292.11377 253.985 L 255.7725 255.8075" style="stroke:rgb(253,127,111);stroke-width:1" /><circle cx="255.7725" cy="255.8075" r="2" style="fill:rgb(253,127,111);stroke:none;fill-opacity:1;stroke-opacity:1;" /><path d="M 255.7725 255.8075 L 142.88626 258.8925" style="stroke:rgb(253,127,111);stroke-width:1" /><circle cx="142.88626" cy="258.8925" r="2" style="fill:rgb(253,127,111);stroke:none;fill-opacity:1;stroke-opacity:1;" /><path d="M 142.88626 258.8925 L 30 260.02" style="stroke:rgb(253,127,111);stroke-width:1" /><circle cx="30" cy="260.02" r="2" style="fill:rgb(253,127,111);stroke:none;fill-opacity:1;stroke-opacity:1;" /><circle cx="780" cy="75.315" r="2" style="fill:rgb(255,181,90);stroke:none;fill-opacity:1;stroke-opacity:1;" /><path d="M 780 75.315 L 630.77246 151.20999" style="stroke:rgb(255,181,90);stroke-width:1" /><circle cx="630.77246" cy="151.20999" r="2" style="fill:rgb(255,181,90);stroke:none;fill-opacity:1;stroke-opacity:1;" /><path d="M 630.77246 151.20999 L 517.8862 184.7825" style="stroke:rgb(255,181,90);stroke-width:1" /><circle cx="517.8862" cy="184.7825" r="2" style="fill:rgb(255,181,90);stroke:none;fill-opacity:1;stroke-opacity:1;" /><path d="M 517.8862 184.7825 L 451.85202 199.0275" style="stroke:rgb(255,181,90);stroke-width:1" /><circle cx="451.85202" cy="199.0275" r="2" style="fill:rgb(255,181,90);stroke:none;fill-opacity:1;stroke-opacity:1;" /><path d="M 451.85202 199.0275 L 405 207.1275" style="stroke:rgb(255,181,90);stroke-width:1" /><circle cx="405" cy="207.1275" r="2" style="fill:rgb(255,181,90);stroke:none;fill-opacity:1;stroke-opacity:1;" /><path d="M 405 207.1275 L 338.96576 216.795" style="stroke:rgb(255,181,90);stroke-width:1" /><circle cx="338.96576" cy="216.795" r="2" style="fill:rgb(255,181,90);stroke:none;fill-opacity:1;stroke-opacity:1;" /><path d="M 338.96576 216.795 L 292.11377 222.1575" style="stroke:rgb(255,181,90);stroke-width:1" /><circle cx="292.11377" cy="222.1575" r="2" style="fill:rgb(255,181,90);stroke:none;fill-opacity:1;stroke-opacity:1;" /><path d="M 292.11377 222.1575 L 255.7725 225.035" style="stroke:rgb(255,181,90);stroke-width:1" /><circle cx="255.7725" cy="225.035" r="2" style="fill:rgb(255,181,90);stroke:none;fill-opacity:1;stroke-opacity:1;" /><path d="M 255.7725 225.035 L 142.88626 231.095" style="stroke:rgb(255,181,90);stroke-width:1" /><circle cx="142.88626" cy="231.095" r="2" style="fill:rgb(255,181,90);stroke:none;fill-opacity:1;stroke-opacity:1;" /><path d="M 142.88626 231.095 L 30 232.56" style="stroke:rgb(255,181,90);stroke-width:1" /><circle cx="30" cy="232.56" r="2" style="fill:rgb(255,181,90);stroke:none;fill-opacity:1;stroke-opacity:1;" /><circle cx="780" cy="245.42" r="2" style="fill:rgb(199,126,190);stroke:none;fill-opacity:1;stroke-opacity:1;" /><path d="M 780 245.42 L 630.77246 250.5825" style="stroke:rgb(199,126,190);stroke-width:1" /><circle cx="630.77246" cy="250.5825" r="2" style="fill:rgb(199,126,190);stroke:none;fill-opacity:1;stroke-opacity:1;" /><path d="M 630.77246 250.5825 L 517.8862 251.27249" style="stroke:rgb(199,126,190);stroke-width:1" /><circle cx="517.8862" cy="251.27249" r="2" style="fill:rgb(199,126,190);stroke:none;fill-opacity:1;stroke-opacity:1;" /><path d="M 517.8862 251.27249 L 451.85202 250.425" style="stroke:rgb(199,126,190);stroke-width:1" /><circle cx="451.85202" cy="250.425" r="2" style="fill:rgb(199,126,190);stroke:none;fill-opacity:1;stroke-opacity:1;" /><path d="M 451.85202 250.425 L 405 251.155" style="stroke:rgb(199,126,190);stroke-width:1" /><circle cx="405" cy="251.155" r="2" style="fill:rgb(199,126,190);stroke:none;fill-opacity:1;stroke-opacity:1;" /><path d="M 405 251.155 L 338.96576 253.535" style="stroke:rgb(199,126,190);stroke-width:1" /><circle cx="338.96576" cy="253.535" r="2" style="fill:rgb(199,126,190);stroke:none;fill-opacity:1;stroke-opacity:1;" /><path d="M 338.96576 253.535 L 292.11377 255.92" style="stroke:rgb(199,126,190);stroke-width:1" /><circle cx="292.11377" cy="255.92" r="2" style="fill:rgb(199,126,190);stroke:none;fill-opacity:1;stroke-opacity:1;" /><path d="M 292.11377 255.92 L 255.7725 257.0275" style="stroke:rgb(199,126,190);stroke-width:1" /><circle cx="255.7725" cy="257.0275" r="2" style="fill:rgb(199,126,190);stroke:none;fill-opacity:1;stroke-opacity:1;" /><path d="M 255.7725 257.0275 L 142.88626 259.215" style="stroke:rgb(199,126,190);stroke-width:1" /><circle cx="142.88626" cy="259.215" r="2" style="fill:rgb(199,126,190);stroke:none;fill-opacity:1;stroke-opacity:1;" /><path d="M 142.88626 259.215 L 30 260.11" style="stroke:rgb(199,126,190);stroke-width:1" /><circle cx="30" cy="260.11" r="2" style="fill:rgb(199,126,190);stroke:none;fill-opacity:1;stroke-opacity:1;" /><circle cx="780" cy="226.3075" r="2" style="fill:rgb(128,214,87);stroke:none;fill-opacity:1;stroke-opacity:1;" /><path d="M 780 226.3075 L 630.77246 243.7225" style="stroke:rgb(128,214,87);stroke-width:1" /><circle cx="630.77246" cy="243.7225" r="2" style="fill:rgb(128,214,87);stroke:none;fill-opacity:1;stroke-opacity:1;" /><path d="M 630.77246 243.7225 L 517.8862 250.3625" style="stroke:rgb(128,214,87);stroke-width:1" /><circle cx="517.8862" cy="250.3625" r="2" style="fill:rgb(128,214,87);stroke:none;fill-opacity:1;stroke-opacity:1;" /><path d="M 517.8862 250.3625 L 451.85202 253.265" style="stroke:rgb(128,214,87);stroke-width:1" /><circle cx="451.85202" cy="253.265" r="2" style="fill:rgb(128,214,87);stroke:none;fill-opacity:1;stroke-opacity:1;" /><path d="M 451.85202 253.265 L 405 254.8375" style="stroke:rgb(128,214,87);stroke-width:1" /><circle cx="405" cy="254.8375" r="2" style="fill:rgb(128,214,87);stroke:none;fill-opacity:1;stroke-opacity:1;" /><path d="M 405 254.8375 L 338.96576 255.825" style="stroke:rgb(128,214,87);stroke-width:1" /><circle cx="338.96576" cy="255.825" r="2" style="fill:rgb(128,214,87);stroke:none;fill-opacity:1;stroke-opacity:1;" /><path d="M 338.96576 255.825 L 292.11377 256.99" style="stroke:rgb(128,214,87);stroke-width:1" /><circle cx="292.11377" cy="256.99" r="2" style="fill:rgb(128,214,87);stroke:none;fill-opacity:1;stroke-opacity:1;" /><path d="M 292.11377 256.99 L 255.7725 258.1" style="stroke:rgb(128,214,87);stroke-width:1" /><circle cx="255.7725" cy="258.1" r="2" style="fill:rgb(128,214,87);stroke:none;fill-opacity:1;stroke-opacity:1;" /><path d="M 255.7725 258.1 L 142.88626 261.7625" style="stroke:rgb(128,214,87);stroke-width:1" /><circle cx="142.88626" cy="261.7625" r="2" style="fill:rgb(128,214,87);stroke:none;fill-opacity:1;stroke-opacity:1;" /><path d="M 142.88626 261.7625 L 30 264.655" style="stroke:rgb(128,214,87);stroke-width:1" /><circle cx="30" cy="264.655" r="2" style="fill:rgb(128,214,87);stroke:none;fill-opacity:1;stroke-opacity:1;" /><circle cx="780" cy="20" r="2" style="fill:rgb(50,125,209);stroke:none;fill-opacity:1;stroke-opacity:1;" /><path d="M 780 20 L 630.77246 56.7975" style="stroke:rgb(50,125,209);stroke-width:1" /><circle cx="630.77246" cy="56.7975" r="2" style="fill:rgb(50,125,209);stroke:none;fill-opacity:1;stroke-opacity:1;" /><path d="M 630.77246 56.7975 L 517.8862 76.72749" style="stroke:rgb(50,125,209);stroke-width:1" /><circle cx="517.8862" cy="76.72749" r="2" style="fill:rgb(50,125,209);stroke:none;fill-opacity:1;stroke-opacity:1;" /><path d="M 517.8862 76.72749 L 451.85202 85.8575" style="stroke:rgb(50,125,209);stroke-width:1" /><circle cx="451.85202" cy="85.8575" r="2" style="fill:rgb(50,125,209);stroke:none;fill-opacity:1;stroke-opacity:1;" /><path d="M 451.85202 85.8575 L 405 90.9025" style="stroke:rgb(50,125,209);stroke-width:1" /><circle cx="405" cy="90.9025" r="2" style="fill:rgb(50,125,209);stroke:none;fill-opacity:1;stroke-opacity:1;" /><path d="M 405 90.9025 L 338.96576 94.78" style="stroke:rgb(50,125,209);stroke-width:1" /><circle cx="338.96576" cy="94.78" r="2" style="fill:rgb(50,125,209);stroke:none;fill-opacity:1;stroke-opacity:1;" /><path d="M 338.96576 94.78 L 292.11377 95.6525" style="stroke:rgb(50,125,209);stroke-width:1" /><circle cx="292.11377" cy="95.6525" r="2" style="fill:rgb(50,125,209);stroke:none;fill-opacity:1;stroke-opacity:1;" /><path d="M 292.11377 95.6525 L 255.7725 96.535" style="stroke:rgb(50,125,209);stroke-width:1" /><circle cx="255.7725" cy="96.535" r="2" style="fill:rgb(50,125,209);stroke:none;fill-opacity:1;stroke-opacity:1;" /><path d="M 255.7725 96.535 L 142.88626 97.69501" style="stroke:rgb(50,125,209);stroke-width:1" /><circle cx="142.88626" cy="97.69501" r="2" style="fill:rgb(50,125,209);stroke:none;fill-opacity:1;stroke-opacity:1;" /><path d="M 142.88626 97.69501 L 30 98.25" style="stroke:rgb(50,125,209);stroke-width:1" /><circle cx="30" cy="98.25" r="2" style="fill:rgb(50,125,209);stroke:none;fill-opacity:1;stroke-opacity:1;" /><circle cx="780" cy="240.6875" r="2" style="fill:rgb(253,204,229);stroke:none;fill-opacity:1;stroke-opacity:1;" /><path d="M 780 240.6875 L 630.77246 247.0525" style="stroke:rgb(253,204,229);stroke-width:1" /><circle cx="630.77246" cy="247.0525" r="2" style="fill:rgb(253,204,229);stroke:none;fill-opacity:1;stroke-opacity:1;" /><path d="M 630.77246 247.0525 L 517.8862 249.6725" style="stroke:rgb(253,204,229);stroke-width:1" /><circle cx="517.8862" cy="249.6725" r="2" style="fill:rgb(253,204,229);stroke:none;fill-opacity:1;stroke-opacity:1;" /><path d="M 517.8862 249.6725 L 451.85202 249.84" style="stroke:rgb(253,204,229);stroke-width:1" /><circle cx="451.85202" cy="249.84" r="2" style="fill:rgb(253,204,229);stroke:none;fill-opacity:1;stroke-opacity:1;" /><path d="M 451.85202 249.84 L 405 250.77249" style="stroke:rgb(253,204,229);stroke-width:1" /><circle cx="405" cy="250.77249" r="2" style="fill:rgb(253,204,229);stroke:none;fill-opacity:1;stroke-opacity:1;" /><path d="M 405 250.77249 L 338.96576 253.2875" style="stroke:rgb(253,204,229);stroke-width:1" /><circle cx="338.96576" cy="253.2875" r="2" style="fill:rgb(253,204,229);stroke:none;fill-opacity:1;stroke-opacity:1;" /><path d="M 338.96576 253.2875 L 292.11377 255.705" style="stroke:rgb(253,204,229);stroke-width:1" /><circle cx="292.11377" cy="255.705" r="2" style="fill:rgb(253,204,229);stroke:none;fill-opacity:1;stroke-opacity:1;" /><path d="M 292.11377 255.705 L 255.7725 256.7025" style="stroke:rgb(253,204,229);stroke-width:1" /><circle cx="255.7725" cy="256.7025" r="2" style="fill:rgb(253,204,229);stroke:none;fill-opacity:1;stroke-opacity:1;" /><path d="M 255.7725 256.7025 L 142.88626 259.1075" style="stroke:rgb(253,204,229);stroke-width:1" /><circle cx="142.88626" cy="259.1075" r="2" style="fill:rgb(253,204,229);stroke:none;fill-opacity:1;stroke-opacity:1;" /><path d="M 142.88626 259.1075 L 30 259.9375" style="stroke:rgb(253,204,229);stroke-width:1" /><circle cx="30" cy="259.9375" r="2" style="fill:rgb(253,204,229);stroke:none;fill-opacity:1;stroke-opacity:1;" /><rect x="676" y="16" width="80" height="196" ry="4" style="fill:rgb(30,30,30);stroke:none;fill-opacity:0.8;stroke-opacity:1;" /><rect x="680" y="20" width="20" height="20" ry="2" style="fill:rgb(253,127,111);stroke:none;fill-opacity:1;stroke-opacity:1;" /><text x="705" y="33" style="font-size:10px;fill:rgb(255,255,255);text-anchor:start;text-align:left;"> fwd-diff </text><rect x="680" y="41" width="20" height="20" ry="2" style="fill:rgb(255,181,90);stroke:none;fill-opacity:1;stroke-opacity:1;" /><text x="705" y="54" style="font-size:10px;fill:rgb(255,255,255);text-anchor:start;text-align:left;"> hain </text><rect x="680" y="62" width="20" height="20" ry="2" style="fill:rgb(50,125,209);stroke:none;fill-opacity:1;stroke-opacity:1;" /><text x="705" y="75" style="font-size:10px;fill:rgb(255,255,255);text-anchor:start;text-align:left;"> levien </text><rect x="680" y="83" width="20" height="20" ry="2" style="fill:rgb(119,211,179);stroke:none;fill-opacity:1;stroke-opacity:1;" /><text x="705" y="96" style="font-size:10px;fill:rgb(255,255,255);text-anchor:start;text-align:left;"> levien-linear </text><rect x="680" y="104" width="20" height="20" ry="2" style="fill:rgb(126,176,213);stroke:none;fill-opacity:1;stroke-opacity:1;" /><text x="705" y="117" style="font-size:10px;fill:rgb(255,255,255);text-anchor:start;text-align:left;"> levien-simd </text><rect x="680" y="125" width="20" height="20" ry="2" style="fill:rgb(128,214,87);stroke:none;fill-opacity:1;stroke-opacity:1;" /><text x="705" y="138" style="font-size:10px;fill:rgb(255,255,255);text-anchor:start;text-align:left;"> linear </text><rect x="680" y="146" width="20" height="20" ry="2" style="fill:rgb(255,238,101);stroke:none;fill-opacity:1;stroke-opacity:1;" /><text x="705" y="159" style="font-size:10px;fill:rgb(255,255,255);text-anchor:start;text-align:left;"> recursive </text><rect x="680" y="167" width="20" height="20" ry="2" style="fill:rgb(253,204,229);stroke:none;fill-opacity:1;stroke-opacity:1;" /><text x="705" y="180" style="font-size:10px;fill:rgb(255,255,255);text-anchor:start;text-align:left;"> wang </text><rect x="680" y="188" width="20" height="20" ry="2" style="fill:rgb(199,126,190);stroke:none;fill-opacity:1;stroke-opacity:1;" /><text x="705" y="201" style="font-size:10px;fill:rgb(255,255,255);text-anchor:start;text-align:left;"> wang-simd </text><text x="400" y="30" style="font-size:20px;fill:rgb(255,255,255);text-anchor:middle;text-align:center;"> font dataset: cubic </text><text x="400" y="42" style="font-size:8px;fill:rgb(200,200,200);text-anchor:middle;text-align:center;"> Normalized performance score (lower is better) </text></svg>