<svg xmlns="http://www.w3.org/2000/svg" viewBox="0 0 800 300"><rect x="0" y="0" width="800" height="300" ry="6" style="fill:rgb(30,30,30);stroke:none;fill-opacity:1;stroke-opacity:1;" /><path d="M 30 20 L 30 270" style="stroke:rgb(200,200,200);stroke-width:1" /><path d="M 30 270 L 780 270" style="stroke:rgb(200,200,200);stroke-width:1" /><path d="M 780 270 L 780 272" style="stroke:rgb(200,200,200);stroke-width:1" /><text x="780" y="282" style="font-size:10px;fill:rgb(200,200,200);text-anchor:middle;text-align:center;"> 0.01 </text><path d="M 630.77246 270 L 630.77246 272" style="stroke:rgb(200,200,200);stroke-width:1" /><text x="630.77246" y="282" style="font-size:10px;fill:rgb(200,200,200);text-anchor:middle;text-align:center;"> 0.025 </text><path d="M 517.8862 270 L 517.8862 272" style="stroke:rgb(200,200,200);stroke-width:1" /><text x="517.8862" y="282" style="font-size:10px;fill:rgb(200,200,200);text-anchor:middle;text-align:center;"> 0.05 </text><path d="M 451.85202 270 L 451.85202 272" style="stroke:rgb(200,200,200);stroke-width:1" /><text x="451.85202" y="282" style="font-size:10px;fill:rgb(200,200,200);text-anchor:middle;text-align:center;"> 0.075 </text><path d="M 405 270 L 405 272" style="stroke:rgb(200,200,200);stroke-width:1" /><text x="405" y="282" style="font-size:10px;fill:rgb(200,200,200);text-anchor:middle;text-align:center;"> 0.1 </text><path d="M 338.96576 270 L 338.96576 272" style="stroke:rgb(200,200,200);stroke-width:1" /><text x="338.96576" y="282" style="font-size:10px;fill:rgb(200,200,200);text-anchor:middle;text-align:center;"> 0.15 </text><path d="M 292.11377 270 L 292.11377 272" style="stroke:rgb(200,200,200);stroke-width:1" /><text x="292.11377" y="282" style="font-size:10px;fill:rgb(200,200,200);text-anchor:middle;text-align:center;"> 0.2 </text><path d="M 255.7725 270 L 255.7725 272" style="stroke:rgb(200,200,200);stroke-width:1" /><text x="255.7725" y="282" style="font-size:10px;fill:rgb(200,200,200);text-anchor:middle;text-align:center;"> 0.25 </text><path d="M 142.88626 270 L 142.88626 272" style="stroke:rgb(200,200,200);stroke-width:1" /><text x="142.88626" y="282" style="font-size:10px;fill:rgb(200,200,200);text-anchor:middle;text-align:center;"> 0.5 </text><path d="M 30 270 L 30 272" style="stroke:rgb(200,200,200);stroke-width:1" /><text x="30" y="282" style="font-size:10px;fill:rgb(200,200,200);text-anchor:middle;text-align:center;"> 1 </text><path d="M 28 270 L 30 270" style="stroke:rgb(200,200,200);stroke-width:1" /><text x="26" y="274" style="font-size:10px;fill:rgb(200,200,200);text-anchor:end;text-align:right;"> 0 </text><path d="M 28 207.5 L 30 207.5" style="stroke:rgb(200,200,200);stroke-width:1" /><text x="26" y="211.5" style="font-size:10px;fill:rgb(200,200,200);text-anchor:end;text-align:right;"> 0.25 </text><path d="M 28 145 L 30 145" style="stroke:rgb(200,200,200);stroke-width:1" /><text x="26" y="149" style="font-size:10px;fill:rgb(200,200,200);text-anchor:end;text-align:right;"> 0.5 </text><path d="M 28 82.5 L 30 82.5" style="stroke:rgb(200,200,200);stroke-width:1" /><text x="26" y="86.5" style="font-size:10px;fill:rgb(200,200,200);text-anchor:end;text-align:right;"> 0.75 </text><path d="M 28 20 L 30 20" style="stroke:rgb(200,200,200);stroke-width:1" /><text x="26" y="24" style="font-size:10px;fill:rgb(200,200,200);text-anchor:end;text-align:right;"> 1 </text><text x="400" y="294" style="font-size:10px;fill:rgb(200,200,200);text-anchor:middle;text-align:center;"> Tolerance </text><circle cx="780" cy="253.22751" r="2" style="fill:rgb(199,126,190);stroke:none;fill-opacity:1;stroke-opacity:1;" /><path d="M 780 253.22751 L 630.77246 258.2225" style="stroke:rgb(199,126,190);stroke-width:1" /><circle cx="630.77246" cy="258.2225" r="2" style="fill:rgb(199,126,190);stroke:none;fill-opacity:1;stroke-opacity:1;" /><path d="M 630.77246 258.2225 L 517.8862 260.73" style="stroke:rgb(199,126,190);stroke-width:1" /><circle cx="517.8862" cy="260.73" r="2" style="fill:rgb(199,126,190);stroke:none;fill-opacity:1;stroke-opacity:1;" /><path d="M 517.8862 260.73 L 451.85202 261.9075" style="stroke:rgb(199,126,190);stroke-width:1" /><circle cx="451.85202" cy="261.9075" r="2" style="fill:rgb(199,126,190);stroke:none;fill-opacity:1;stroke-opacity:1;" /><path d="M 451.85202 261.9075 L 405 262.5975" style="stroke:rgb(199,126,190);stroke-width:1" /><circle cx="405" cy="262.5975" r="2" style="fill:rgb(199,126,190);stroke:none;fill-opacity:1;stroke-opacity:1;" /><path d="M 405 262.5975 L 338.96576 263.4575" style="stroke:rgb(199,126,190);stroke-width:1" /><circle cx="338.96576" cy="263.4575" r="2" style="fill:rgb(199,126,190);stroke:none;fill-opacity:1;stroke-opacity:1;" /><path d="M 338.96576 263.4575 L 292.11377 263.9475" style="stroke:rgb(199,126,190);stroke-width:1" /><circle cx="292.11377" cy="263.9475" r="2" style="fill:rgb(199,126,190);stroke:none;fill-opacity:1;stroke-opacity:1;" /><path d="M 292.11377 263.9475 L 255.7725 264.38" style="stroke:rgb(199,126,190);stroke-width:1" /><circle cx="255.7725" cy="264.38" r="2" style="fill:rgb(199,126,190);stroke:none;fill-opacity:1;stroke-opacity:1;" /><path d="M 255.7725 264.38 L 142.88626 265.2875" style="stroke:rgb(199,126,190);stroke-width:1" /><circle cx="142.88626" cy="265.2875" r="2" style="fill:rgb(199,126,190);stroke:none;fill-opacity:1;stroke-opacity:1;" /><path d="M 142.88626 265.2875 L 30 266.0025" style="stroke:rgb(199,126,190);stroke-width:1" /><circle cx="30" cy="266.0025" r="2" style="fill:rgb(199,126,190);stroke:none;fill-opacity:1;stroke-opacity:1;" /><circle cx="780" cy="242.02249" r="2" style="fill:rgb(253,204,229);stroke:none;fill-opacity:1;stroke-opacity:1;" /><path d="M 780 242.02249 L 630.77246 251.2925" style="stroke:rgb(253,204,229);stroke-width:1" /><circle cx="630.77246" cy="251.2925" r="2" style="fill:rgb(253,204,229);stroke:none;fill-opacity:1;stroke-opacity:1;" /><path d="M 630.77246 251.2925 L 517.8862 255.9175" style="stroke:rgb(253,204,229);stroke-width:1" /><circle cx="517.8862" cy="255.9175" r="2" style="fill:rgb(253,204,229);stroke:none;fill-opacity:1;stroke-opacity:1;" /><path d="M 517.8862 255.9175 L 451.85202 257.9875" style="stroke:rgb(253,204,229);stroke-width:1" /><circle cx="451.85202" cy="257.9875" r="2" style="fill:rgb(253,204,229);stroke:none;fill-opacity:1;stroke-opacity:1;" /><path d="M 451.85202 257.9875 L 405 259.2225" style="stroke:rgb(253,204,229);stroke-width:1" /><circle cx="405" cy="259.2225" r="2" style="fill:rgb(253,204,229);stroke:none;fill-opacity:1;stroke-opacity:1;" /><path d="M 405 259.2225 L 338.96576 260.7075" style="stroke:rgb(253,204,229);stroke-width:1" /><circle cx="338.96576" cy="260.7075" r="2" style="fill:rgb(253,204,229);stroke:none;fill-opacity:1;stroke-opacity:1;" /><path d="M 338.96576 260.7075 L 292.11377 261.655" style="stroke:rgb(253,204,229);stroke-width:1" /><circle cx="292.11377" cy="261.655" r="2" style="fill:rgb(253,204,229);stroke:none;fill-opacity:1;stroke-opacity:1;" /><path d="M 292.11377 261.655 L 255.7725 262.255" style="stroke:rgb(253,204,229);stroke-width:1" /><circle cx="255.7725" cy="262.255" r="2" style="fill:rgb(253,204,229);stroke:none;fill-opacity:1;stroke-opacity:1;" /><path d="M 255.7725 262.255 L 142.88626 263.9475" style="stroke:rgb(253,204,229);stroke-width:1" /><circle cx="142.88626" cy="263.9475" r="2" style="fill:rgb(253,204,229);stroke:none;fill-opacity:1;stroke-opacity:1;" /><path d="M 142.88626 263.9475 L 30 265.195" style="stroke:rgb(253,204,229);stroke-width:1" /><circle cx="30" cy="265.195" r="2" style="fill:rgb(253,204,229);stroke:none;fill-opacity:1;stroke-opacity:1;" /><circle cx="780" cy="250.0175" r="2" style="fill:rgb(120,68,33);stroke:none;fill-opacity:1;stroke-opacity:1;" /><path d="M 780 250.0175 L 630.77246 253.52249" style="stroke:rgb(120,68,33);stroke-width:1" /><circle cx="630.77246" cy="253.52249" r="2" style="fill:rgb(120,68,33);stroke:none;fill-opacity:1;stroke-opacity:1;" /><path d="M 630.77246 253.52249 L 517.8862 255.26" style="stroke:rgb(120,68,33);stroke-width:1" /><circle cx="517.8862" cy="255.26" r="2" style="fill:rgb(120,68,33);stroke:none;fill-opacity:1;stroke-opacity:1;" /><path d="M 517.8862 255.26 L 451.85202 256.14" style="stroke:rgb(120,68,33);stroke-width:1" /><circle cx="451.85202" cy="256.14" r="2" style="fill:rgb(120,68,33);stroke:none;fill-opacity:1;stroke-opacity:1;" /><path d="M 451.85202 256.14 L 405 256.7625" style="stroke:rgb(120,68,33);stroke-width:1" /><circle cx="405" cy="256.7625" r="2" style="fill:rgb(120,68,33);stroke:none;fill-opacity:1;stroke-opacity:1;" /><path d="M 405 256.7625 L 338.96576 257.5125" style="stroke:rgb(120,68,33);stroke-width:1" /><circle cx="338.96576" cy="257.5125" r="2" style="fill:rgb(120,68,33);stroke:none;fill-opacity:1;stroke-opacity:1;" /><path d="M 338.96576 257.5125 L 292.11377 258.07" style="stroke:rgb(120,68,33);stroke-width:1" /><circle cx="292.11377" cy="258.07" r="2" style="fill:rgb(120,68,33);stroke:none;fill-opacity:1;stroke-opacity:1;" /><path d="M 292.11377 258.07 L 255.7725 258.545" style="stroke:rgb(120,68,33);stroke-width:1" /><circle cx="255.7725" cy="258.545" r="2" style="fill:rgb(120,68,33);stroke:none;fill-opacity:1;stroke-opacity:1;" /><path d="M 255.7725 258.545 L 142.88626 259.685" style="stroke:rgb(120,68,33);stroke-width:1" /><circle cx="142.88626" cy="259.685" r="2" style="fill:rgb(120,68,33);stroke:none;fill-opacity:1;stroke-opacity:1;" /><path d="M 142.88626 259.685 L 30 260.3" style="stroke:rgb(120,68,33);stroke-width:1" /><circle cx="30" cy="260.3" r="2" style="fill:rgb(120,68,33);stroke:none;fill-opacity:1;stroke-opacity:1;" /><circle cx="780" cy="253.3625" r="2" style="fill:rgb(200,113,55);stroke:none;fill-opacity:1;stroke-opacity:1;" /><path d="M 780 253.3625 L 630.77246 256.0175" style="stroke:rgb(200,113,55);stroke-width:1" /><circle cx="630.77246" cy="256.0175" r="2" style="fill:rgb(200,113,55);stroke:none;fill-opacity:1;stroke-opacity:1;" /><path d="M 630.77246 256.0175 L 517.8862 257.46" style="stroke:rgb(200,113,55);stroke-width:1" /><circle cx="517.8862" cy="257.46" r="2" style="fill:rgb(200,113,55);stroke:none;fill-opacity:1;stroke-opacity:1;" /><path d="M 517.8862 257.46 L 451.85202 258.2" style="stroke:rgb(200,113,55);stroke-width:1" /><circle cx="451.85202" cy="258.2" r="2" style="fill:rgb(200,113,55);stroke:none;fill-opacity:1;stroke-opacity:1;" /><path d="M 451.85202 258.2 L 405 258.64" style="stroke:rgb(200,113,55);stroke-width:1" /><circle cx="405" cy="258.64" r="2" style="fill:rgb(200,113,55);stroke:none;fill-opacity:1;stroke-opacity:1;" /><path d="M 405 258.64 L 338.96576 259.1775" style="stroke:rgb(200,113,55);stroke-width:1" /><circle cx="338.96576" cy="259.1775" r="2" style="fill:rgb(200,113,55);stroke:none;fill-opacity:1;stroke-opacity:1;" /><path d="M 338.96576 259.1775 L 292.11377 259.5475" style="stroke:rgb(200,113,55);stroke-width:1" /><circle cx="292.11377" cy="259.5475" r="2" style="fill:rgb(200,113,55);stroke:none;fill-opacity:1;stroke-opacity:1;" /><path d="M 292.11377 259.5475 L 255.7725 259.925" style="stroke:rgb(200,113,55);stroke-width:1" /><circle cx="255.7725" cy="259.925" r="2" style="fill:rgb(200,113,55);stroke:none;fill-opacity:1;stroke-opacity:1;" /><path d="M 255.7725 259.925 L 142.88626 260.7275" style="stroke:rgb(200,113,55);stroke-width:1" /><circle cx="142.88626" cy="260.7275" r="2" style="fill:rgb(200,113,55);stroke:none;fill-opacity:1;stroke-opacity:1;" /><path d="M 142.88626 260.7275 L 30 261.0975" style="stroke:rgb(200,113,55);stroke-width:1" /><circle cx="30" cy="261.0975" r="2" style="fill:rgb(200,113,55);stroke:none;fill-opacity:1;stroke-opacity:1;" /><circle cx="780" cy="244.9575" r="2" style="fill:rgb(253,127,111);stroke:none;fill-opacity:1;stroke-opacity:1;" /><path d="M 780 244.9575 L 630.77246 253.1425" style="stroke:rgb(253,127,111);stroke-width:1" /><circle cx="630.77246" cy="253.1425" r="2" style="fill:rgb(253,127,111);stroke:none;fill-opacity:1;stroke-opacity:1;" /><path d="M 630.77246 253.1425 L 517.8862 257.2275" style="stroke:rgb(253,127,111);stroke-width:1" /><circle cx="517.8862" cy="257.2275" r="2" style="fill:rgb(253,127,111);stroke:none;fill-opacity:1;stroke-opacity:1;" /><path d="M 517.8862 257.2275 L 451.85202 258.975" style="stroke:rgb(253,127,111);stroke-width:1" /><circle cx="451.85202" cy="258.975" r="2" style="fill:rgb(253,127,111);stroke:none;fill-opacity:1;stroke-opacity:1;" /><path d="M 451.85202 258.975 L 405 260.0725" style="stroke:rgb(253,127,111);stroke-width:1" /><circle cx="405" cy="260.0725" r="2" style="fill:rgb(253,127,111);stroke:none;fill-opacity:1;stroke-opacity:1;" /><path d="M 405 260.0725 L 338.96576 261.3425" style="stroke:rgb(253,127,111);stroke-width:1" /><circle cx="338.96576" cy="261.3425" r="2" style="fill:rgb(253,127,111);stroke:none;fill-opacity:1;stroke-opacity:1;" /><path d="M 338.96576 261.3425 L 292.11377 262.195" style="stroke:rgb(253,127,111);stroke-width:1" /><circle cx="292.11377" cy="262.195" r="2" style="fill:rgb(253,127,111);stroke:none;fill-opacity:1;stroke-opacity:1;" /><path d="M 292.11377 262.195 L 255.7725 262.7375" style="stroke:rgb(253,127,111);stroke-width:1" /><circle cx="255.7725" cy="262.7375" r="2" style="fill:rgb(253,127,111);stroke:none;fill-opacity:1;stroke-opacity:1;" /><path d="M 255.7725 262.7375 L 142.88626 264.13" style="stroke:rgb(253,127,111);stroke-width:1" /><circle cx="142.88626" cy="264.13" r="2" style="fill:rgb(253,127,111);stroke:none;fill-opacity:1;stroke-opacity:1;" /><path d="M 142.88626 264.13 L 30 265.2675" style="stroke:rgb(253,127,111);stroke-width:1" /><circle cx="30" cy="265.2675" r="2" style="fill:rgb(253,127,111);stroke:none;fill-opacity:1;stroke-opacity:1;" /><circle cx="780" cy="61.197495" r="2" style="fill:rgb(255,238,101);stroke:none;fill-opacity:1;stroke-opacity:1;" /><path d="M 780 61.197495 L 630.77246 145.27249" style="stroke:rgb(255,238,101);stroke-width:1" /><circle cx="630.77246" cy="145.27249" r="2" style="fill:rgb(255,238,101);stroke:none;fill-opacity:1;stroke-opacity:1;" /><path d="M 630.77246 145.27249 L 517.8862 173.85501" style="stroke:rgb(255,238,101);stroke-width:1" /><circle cx="517.8862" cy="173.85501" r="2" style="fill:rgb(255,238,101);stroke:none;fill-opacity:1;stroke-opacity:1;" /><path d="M 517.8862 173.85501 L 451.85202 194.9075" style="stroke:rgb(255,238,101);stroke-width:1" /><circle cx="451.85202" cy="194.9075" r="2" style="fill:rgb(255,238,101);stroke:none;fill-opacity:1;stroke-opacity:1;" /><path d="M 451.85202 194.9075 L 405 207.75" style="stroke:rgb(255,238,101);stroke-width:1" /><circle cx="405" cy="207.75" r="2" style="fill:rgb(255,238,101);stroke:none;fill-opacity:1;stroke-opacity:1;" /><path d="M 405 207.75 L 338.96576 216.6425" style="stroke:rgb(255,238,101);stroke-width:1" /><circle cx="338.96576" cy="216.6425" r="2" style="fill:rgb(255,238,101);stroke:none;fill-opacity:1;stroke-opacity:1;" /><path d="M 338.96576 216.6425 L 292.11377 222.3825" style="stroke:rgb(255,238,101);stroke-width:1" /><circle cx="292.11377" cy="222.3825" r="2" style="fill:rgb(255,238,101);stroke:none;fill-opacity:1;stroke-opacity:1;" /><path d="M 292.11377 222.3825 L 255.7725 227.64749" style="stroke:rgb(255,238,101);stroke-width:1" /><circle cx="255.7725" cy="227.64749" r="2" style="fill:rgb(255,238,101);stroke:none;fill-opacity:1;stroke-opacity:1;" /><path d="M 255.7725 227.64749 L 142.88626 242.26" style="stroke:rgb(255,238,101);stroke-width:1" /><circle cx="142.88626" cy="242.26" r="2" style="fill:rgb(255,238,101);stroke:none;fill-opacity:1;stroke-opacity:1;" /><path d="M 142.88626 242.26 L 30 249.0525" style="stroke:rgb(255,238,101);stroke-width:1" /><circle cx="30" cy="249.0525" r="2" style="fill:rgb(255,238,101);stroke:none;fill-opacity:1;stroke-opacity:1;" /><circle cx="780" cy="238.11499" r="2" style="fill:rgb(119,211,179);stroke:none;fill-opacity:1;stroke-opacity:1;" /><path d="M 780 238.11499 L 630.77246 245.6275" style="stroke:rgb(119,211,179);stroke-width:1" /><circle cx="630.77246" cy="245.6275" r="2" style="fill:rgb(119,211,179);stroke:none;fill-opacity:1;stroke-opacity:1;" /><path d="M 630.77246 245.6275 L 517.8862 249.4225" style="stroke:rgb(119,211,179);stroke-width:1" /><circle cx="517.8862" cy="249.4225" r="2" style="fill:rgb(119,211,179);stroke:none;fill-opacity:1;stroke-opacity:1;" /><path d="M 517.8862 249.4225 L 451.85202 251.4425" style="stroke:rgb(119,211,179);stroke-width:1" /><circle cx="451.85202" cy="251.4425" r="2" style="fill:rgb(119,211,179);stroke:none;fill-opacity:1;stroke-opacity:1;" /><path d="M 451.85202 251.4425 L 405 252.7875" style="stroke:rgb(119,211,179);stroke-width:1" /><circle cx="405" cy="252.7875" r="2" style="fill:rgb(119,211,179);stroke:none;fill-opacity:1;stroke-opacity:1;" /><path d="M 405 252.7875 L 338.96576 254.5075" style="stroke:rgb(119,211,179);stroke-width:1" /><circle cx="338.96576" cy="254.5075" r="2" style="fill:rgb(119,211,179);stroke:none;fill-opacity:1;stroke-opacity:1;" /><path d="M 338.96576 254.5075 L 292.11377 255.435" style="stroke:rgb(119,211,179);stroke-width:1" /><circle cx="292.11377" cy="255.435" r="2" style="fill:rgb(119,211,179);stroke:none;fill-opacity:1;stroke-opacity:1;" /><path d="M 292.11377 255.435 L 255.7725 256.2725" style="stroke:rgb(119,211,179);stroke-width:1" /><circle cx="255.7725" cy="256.2725" r="2" style="fill:rgb(119,211,179);stroke:none;fill-opacity:1;stroke-opacity:1;" /><path d="M 255.7725 256.2725 L 142.88626 258.4025" style="stroke:rgb(119,211,179);stroke-width:1" /><circle cx="142.88626" cy="258.4025" r="2" style="fill:rgb(119,211,179);stroke:none;fill-opacity:1;stroke-opacity:1;" /><path d="M 142.88626 258.4025 L 30 259.98" style="stroke:rgb(119,211,179);stroke-width:1" /><circle cx="30" cy="259.98" r="2" style="fill:rgb(119,211,179);stroke:none;fill-opacity:1;stroke-opacity:1;" /><circle cx="780" cy="238.01" r="2" style="fill:rgb(126,176,213);stroke:none;fill-opacity:1;stroke-opacity:1;" /><path d="M 780 238.01 L 630.77246 245.245" style="stroke:rgb(126,176,213);stroke-width:1" /><circle cx="630.77246" cy="245.245" r="2" style="fill:rgb(126,176,213);stroke:none;fill-opacity:1;stroke-opacity:1;" /><path d="M 630.77246 245.245 L 517.8862 248.53" style="stroke:rgb(126,176,213);stroke-width:1" /><circle cx="517.8862" cy="248.53" r="2" style="fill:rgb(126,176,213);stroke:none;fill-opacity:1;stroke-opacity:1;" /><path d="M 517.8862 248.53 L 451.85202 250.03" style="stroke:rgb(126,176,213);stroke-width:1" /><circle cx="451.85202" cy="250.03" r="2" style="fill:rgb(126,176,213);stroke:none;fill-opacity:1;stroke-opacity:1;" /><path d="M 451.85202 250.03 L 405 250.92" style="stroke:rgb(126,176,213);stroke-width:1" /><circle cx="405" cy="250.92" r="2" style="fill:rgb(126,176,213);stroke:none;fill-opacity:1;stroke-opacity:1;" /><path d="M 405 250.92 L 338.96576 252.2175" style="stroke:rgb(126,176,213);stroke-width:1" /><circle cx="338.96576" cy="252.2175" r="2" style="fill:rgb(126,176,213);stroke:none;fill-opacity:1;stroke-opacity:1;" /><path d="M 338.96576 252.2175 L 292.11377 252.825" style="stroke:rgb(126,176,213);stroke-width:1" /><circle cx="292.11377" cy="252.825" r="2" style="fill:rgb(126,176,213);stroke:none;fill-opacity:1;stroke-opacity:1;" /><path d="M 292.11377 252.825 L 255.7725 253.2925" style="stroke:rgb(126,176,213);stroke-width:1" /><circle cx="255.7725" cy="253.2925" r="2" style="fill:rgb(126,176,213);stroke:none;fill-opacity:1;stroke-opacity:1;" /><path d="M 255.7725 253.2925 L 142.88626 254.4625" style="stroke:rgb(126,176,213);stroke-width:1" /><circle cx="142.88626" cy="254.4625" r="2" style="fill:rgb(126,176,213);stroke:none;fill-opacity:1;stroke-opacity:1;" /><path d="M 142.88626 254.4625 L 30 255.5725" style="stroke:rgb(126,176,213);stroke-width:1" /><circle cx="30" cy="255.5725" r="2" style="fill:rgb(126,176,213);stroke:none;fill-opacity:1;stroke-opacity:1;" /><circle cx="780" cy="20" r="2" style="fill:rgb(128,214,87);stroke:none;fill-opacity:1;stroke-opacity:1;" /><path d="M 780 20 L 630.77246 112.447495" style="stroke:rgb(128,214,87);stroke-width:1" /><circle cx="630.77246" cy="112.447495" r="2" style="fill:rgb(128,214,87);stroke:none;fill-opacity:1;stroke-opacity:1;" /><path d="M 630.77246 112.447495 L 517.8862 157.3075" style="stroke:rgb(128,214,87);stroke-width:1" /><circle cx="517.8862" cy="157.3075" r="2" style="fill:rgb(128,214,87);stroke:none;fill-opacity:1;stroke-opacity:1;" /><path d="M 517.8862 157.3075 L 451.85202 178.63" style="stroke:rgb(128,214,87);stroke-width:1" /><circle cx="451.85202" cy="178.63" r="2" style="fill:rgb(128,214,87);stroke:none;fill-opacity:1;stroke-opacity:1;" /><path d="M 451.85202 178.63 L 405 190.655" style="stroke:rgb(128,214,87);stroke-width:1" /><circle cx="405" cy="190.655" r="2" style="fill:rgb(128,214,87);stroke:none;fill-opacity:1;stroke-opacity:1;" /><path d="M 405 190.655 L 338.96576 204.9675" style="stroke:rgb(128,214,87);stroke-width:1" /><circle cx="338.96576" cy="204.9675" r="2" style="fill:rgb(128,214,87);stroke:none;fill-opacity:1;stroke-opacity:1;" /><path d="M 338.96576 204.9675 L 292.11377 214.23" style="stroke:rgb(128,214,87);stroke-width:1" /><circle cx="292.11377" cy="214.23" r="2" style="fill:rgb(128,214,87);stroke:none;fill-opacity:1;stroke-opacity:1;" /><path d="M 292.11377 214.23 L 255.7725 220.59" style="stroke:rgb(128,214,87);stroke-width:1" /><circle cx="255.7725" cy="220.59" r="2" style="fill:rgb(128,214,87);stroke:none;fill-opacity:1;stroke-opacity:1;" /><path d="M 255.7725 220.59 L 142.88626 235.0175" style="stroke:rgb(128,214,87);stroke-width:1" /><circle cx="142.88626" cy="235.0175" r="2" style="fill:rgb(128,214,87);stroke:none;fill-opacity:1;stroke-opacity:1;" /><path d="M 142.88626 235.0175 L 30 245.5275" style="stroke:rgb(128,214,87);stroke-width:1" /><circle cx="30" cy="245.5275" r="2" style="fill:rgb(128,214,87);stroke:none;fill-opacity:1;stroke-opacity:1;" /><circle cx="780" cy="189.805" r="2" style="fill:rgb(50,125,209);stroke:none;fill-opacity:1;stroke-opacity:1;" /><path d="M 780 189.805 L 630.77246 214.425" style="stroke:rgb(50,125,209);stroke-width:1" /><circle cx="630.77246" cy="214.425" r="2" style="fill:rgb(50,125,209);stroke:none;fill-opacity:1;stroke-opacity:1;" /><path d="M 630.77246 214.425 L 517.8862 226.5625" style="stroke:rgb(50,125,209);stroke-width:1" /><circle cx="517.8862" cy="226.5625" r="2" style="fill:rgb(50,125,209);stroke:none;fill-opacity:1;stroke-opacity:1;" /><path d="M 517.8862 226.5625 L 451.85202 232.075" style="stroke:rgb(50,125,209);stroke-width:1" /><circle cx="451.85202" cy="232.075" r="2" style="fill:rgb(50,125,209);stroke:none;fill-opacity:1;stroke-opacity:1;" /><path d="M 451.85202 232.075 L 405 235.45" style="stroke:rgb(50,125,209);stroke-width:1" /><circle cx="405" cy="235.45" r="2" style="fill:rgb(50,125,209);stroke:none;fill-opacity:1;stroke-opacity:1;" /><path d="M 405 235.45 L 338.96576 239.51" style="stroke:rgb(50,125,209);stroke-width:1" /><circle cx="338.96576" cy="239.51" r="2" style="fill:rgb(50,125,209);stroke:none;fill-opacity:1;stroke-opacity:1;" /><path d="M 338.96576 239.51 L 292.11377 242.0275" style="stroke:rgb(50,125,209);stroke-width:1" /><circle cx="292.11377" cy="242.0275" r="2" style="fill:rgb(50,125,209);stroke:none;fill-opacity:1;stroke-opacity:1;" /><path d="M 292.11377 242.0275 L 255.7725 243.7175" style="stroke:rgb(50,125,209);stroke-width:1" /><circle cx="255.7725" cy="243.7175" r="2" style="fill:rgb(50,125,209);stroke:none;fill-opacity:1;stroke-opacity:1;" /><path d="M 255.7725 243.7175 L 142.88626 247.9425" style="stroke:rgb(50,125,209);stroke-width:1" /><circle cx="142.88626" cy="247.9425" r="2" style="fill:rgb(50,125,209);stroke:none;fill-opacity:1;stroke-opacity:1;" /><path d="M 142.88626 247.9425 L 30 251.4975" style="stroke:rgb(50,125,209);stroke-width:1" /><circle cx="30" cy="251.4975" r="2" style="fill:rgb(50,125,209);stroke:none;fill-opacity:1;stroke-opacity:1;" /><circle cx="780" cy="24.994995" r="2" style="fill:rgb(255,181,90);stroke:none;fill-opacity:1;stroke-opacity:1;" /><path d="M 780 24.994995 L 630.77246 108.6075" style="stroke:rgb(255,181,90);stroke-width:1" /><circle cx="630.77246" cy="108.6075" r="2" style="fill:rgb(255,181,90);stroke:none;fill-opacity:1;stroke-opacity:1;" /><path d="M 630.77246 108.6075 L 517.8862 148.845" style="stroke:rgb(255,181,90);stroke-width:1" /><circle cx="517.8862" cy="148.845" r="2" style="fill:rgb(255,181,90);stroke:none;fill-opacity:1;stroke-opacity:1;" /><path d="M 517.8862 148.845 L 451.85202 164.7675" style="stroke:rgb(255,181,90);stroke-width:1" /><circle cx="451.85202" cy="164.7675" r="2" style="fill:rgb(255,181,90);stroke:none;fill-opacity:1;stroke-opacity:1;" /><path d="M 451.85202 164.7675 L 405 172.77249" style="stroke:rgb(255,181,90);stroke-width:1" /><circle cx="405" cy="172.77249" r="2" style="fill:rgb(255,181,90);stroke:none;fill-opacity:1;stroke-opacity:1;" /><path d="M 405 172.77249 L 338.96576 179.1525" style="stroke:rgb(255,181,90);stroke-width:1" /><circle cx="338.96576" cy="179.1525" r="2" style="fill:rgb(255,181,90);stroke:none;fill-opacity:1;stroke-opacity:1;" /><path d="M 338.96576 179.1525 L 292.11377 178.48001" style="stroke:rgb(255,181,90);stroke-width:1" /><circle cx="292.11377" cy="178.48001" r="2" style="fill:rgb(255,181,90);stroke:none;fill-opacity:1;stroke-opacity:1;" /><path d="M 292.11377 178.48001 L 255.7725 172.205" style="stroke:rgb(255,181,90);stroke-width:1" /><circle cx="255.7725" cy="172.205" r="2" style="fill:rgb(255,181,90);stroke:none;fill-opacity:1;stroke-opacity:1;" /><path d="M 255.7725 172.205 L 142.88626 199.88501" style="stroke:rgb(255,181,90);stroke-width:1" /><circle cx="142.88626" cy="199.88501" r="2" style="fill:rgb(255,181,90);stroke:none;fill-opacity:1;stroke-opacity:1;" /><path d="M 142.88626 199.88501 L 30 219.5125" style="stroke:rgb(255,181,90);stroke-width:1" /><circle cx="30" cy="219.5125" r="2" style="fill:rgb(255,181,90);stroke:none;fill-opacity:1;stroke-opacity:1;" /><rect x="676" y="16" width="80" height="238" ry="4" style="fill:rgb(30,30,30);stroke:none;fill-opacity:0.8;stroke-opacity:1;" /><rect x="680" y="20" width="20" height="20" ry="2" style="fill:rgb(253,127,111);stroke:none;fill-opacity:1;stroke-opacity:1;" /><text x="705" y="33" style="font-size:10px;fill:rgb(255,255,255);text-anchor:start;text-align:left;"> fwd-diff </text><rect x="680" y="41" width="20" height="20" ry="2" style="fill:rgb(255,181,90);stroke:none;fill-opacity:1;stroke-opacity:1;" /><text x="705" y="54" style="font-size:10px;fill:rgb(255,255,255);text-anchor:start;text-align:left;"> hain </text><rect x="680" y="62" width="20" height="20" ry="2" style="fill:rgb(50,125,209);stroke:none;fill-opacity:1;stroke-opacity:1;" /><text x="705" y="75" style="font-size:10px;fill:rgb(255,255,255);text-anchor:start;text-align:left;"> levien </text><rect x="680" y="83" width="20" height="20" ry="2" style="fill:rgb(119,211,179);stroke:none;fill-opacity:1;stroke-opacity:1;" /><text x="705" y="96" style="font-size:10px;fill:rgb(255,255,255);text-anchor:start;text-align:left;"> levien-linear </text><rect x="680" y="104" width="20" height="20" ry="2" style="fill:rgb(126,176,213);stroke:none;fill-opacity:1;stroke-opacity:1;" /><text x="705" y="117" style="font-size:10px;fill:rgb(255,255,255);text-anchor:start;text-align:left;"> levien-simd </text><rect x="680" y="125" width="20" height="20" ry="2" style="fill:rgb(128,214,87);stroke:none;fill-opacity:1;stroke-opacity:1;" /><text x="705" y="138" style="font-size:10px;fill:rgb(255,255,255);text-anchor:start;text-align:left;"> linear </text><rect x="680" y="146" width="20" height="20" ry="2" style="fill:rgb(255,238,101);stroke:none;fill-opacity:1;stroke-opacity:1;" /><text x="705" y="159" style="font-size:10px;fill:rgb(255,255,255);text-anchor:start;text-align:left;"> recursive </text><rect x="680" y="167" width="20" height="20" ry="2" style="fill:rgb(253,204,229);stroke:none;fill-opacity:1;stroke-opacity:1;" /><text x="705" y="180" style="font-size:10px;fill:rgb(255,255,255);text-anchor:start;text-align:left;"> wang </text><rect x="680" y="188" width="20" height="20" ry="2" style="fill:rgb(199,126,190);stroke:none;fill-opacity:1;stroke-opacity:1;" /><text x="705" y="201" style="font-size:10px;fill:rgb(255,255,255);text-anchor:start;text-align:left;"> wang-simd </text><rect x="680" y="209" width="20" height="20" ry="2" style="fill:rgb(120,68,33);stroke:none;fill-opacity:1;stroke-opacity:1;" /><text x="705" y="222" style="font-size:10px;fill:rgb(255,255,255);text-anchor:start;text-align:left;"> yzerman </text><rect x="680" y="230" width="20" height="20" ry="2" style="fill:rgb(200,113,55);stroke:none;fill-opacity:1;stroke-opacity:1;" /><text x="705" y="243" style="font-size:10px;fill:rgb(255,255,255);text-anchor:start;text-align:left;"> yzerman-simd </text><text x="400" y="30" style="font-size:20px;fill:rgb(255,255,255);text-anchor:middle;text-align:center;"> nehab dataset: cubic </text><text x="400" y="42" style="font-size:8px;fill:rgb(200,200,200);text-anchor:middle;text-align:center;"> Normalized performance score (lower is better) </text></svg>