<svg xmlns="http://www.w3.org/2000/svg" viewBox="0 0 800 300"><rect x="0" y="0" width="800" height="300" ry="6" style="fill:rgb(30,30,30);stroke:none;fill-opacity:1;stroke-opacity:1;" /><path d="M 30 20 L 30 270" style="stroke:rgb(200,200,200);stroke-width:1" /><path d="M 30 270 L 780 270" style="stroke:rgb(200,200,200);stroke-width:1" /><path d="M 780 270 L 780 272" style="stroke:rgb(200,200,200);stroke-width:1" /><text x="780" y="282" style="font-size:10px;fill:rgb(200,200,200);text-anchor:middle;text-align:center;"> 0.01 </text><path d="M 630.77246 270 L 630.77246 272" style="stroke:rgb(200,200,200);stroke-width:1" /><text x="630.77246" y="282" style="font-size:10px;fill:rgb(200,200,200);text-anchor:middle;text-align:center;"> 0.025 </text><path d="M 517.8862 270 L 517.8862 272" style="stroke:rgb(200,200,200);stroke-width:1" /><text x="517.8862" y="282" style="font-size:10px;fill:rgb(200,200,200);text-anchor:middle;text-align:center;"> 0.05 </text><path d="M 451.85202 270 L 451.85202 272" style="stroke:rgb(200,200,200);stroke-width:1" /><text x="451.85202" y="282" style="font-size:10px;fill:rgb(200,200,200);text-anchor:middle;text-align:center;"> 0.075 </text><path d="M 405 270 L 405 272" style="stroke:rgb(200,200,200);stroke-width:1" /><text x="405" y="282" style="font-size:10px;fill:rgb(200,200,200);text-anchor:middle;text-align:center;"> 0.1 </text><path d="M 338.96576 270 L 338.96576 272" style="stroke:rgb(200,200,200);stroke-width:1" /><text x="338.96576" y="282" style="font-size:10px;fill:rgb(200,200,200);text-anchor:middle;text-align:center;"> 0.15 </text><path d="M 292.11377 270 L 292.11377 272" style="stroke:rgb(200,200,200);stroke-width:1" /><text x="292.11377" y="282" style="font-size:10px;fill:rgb(200,200,200);text-anchor:middle;text-align:center;"> 0.2 </text><path d="M 255.7725 270 L 255.7725 272" style="stroke:rgb(200,200,200);stroke-width:1" /><text x="255.7725" y="282" style="font-size:10px;fill:rgb(200,200,200);text-anchor:middle;text-align:center;"> 0.25 </text><path d="M 142.88626 270 L 142.88626 272" style="stroke:rgb(200,200,200);stroke-width:1" /><text x="142.88626" y="282" style="font-size:10px;fill:rgb(200,200,200);text-anchor:middle;text-align:center;"> 0.5 </text><path d="M 30 270 L 30 272" style="stroke:rgb(200,200,200);stroke-width:1" /><text x="30" y="282" style="font-size:10px;fill:rgb(200,200,200);text-anchor:middle;text-align:center;"> 1 </text><path d="M 28 270 L 30 270" style="stroke:rgb(200,200,200);stroke-width:1" /><text x="26" y="274" style="font-size:10px;fill:rgb(200,200,200);text-anchor:end;text-align:right;"> 0 </text><path d="M 28 207.5 L 30 207.5" style="stroke:rgb(200,200,200);stroke-width:1" /><text x="26" y="211.5" style="font-size:10px;fill:rgb(200,200,200);text-anchor:end;text-align:right;"> 0.25 </text><path d="M 28 145 L 30 145" style="stroke:rgb(200,200,200);stroke-width:1" /><text x="26" y="149" style="font-size:10px;fill:rgb(200,200,200);text-anchor:end;text-align:right;"> 0.5 </text><path d="M 28 82.5 L 30 82.5" style="stroke:rgb(200,200,200);stroke-width:1" /><text x="26" y="86.5" style="font-size:10px;fill:rgb(200,200,200);text-anchor:end;text-align:right;"> 0.75 </text><path d="M 28 20 L 30 20" style="stroke:rgb(200,200,200);stroke-width:1" /><text x="26" y="24" style="font-size:10px;fill:rgb(200,200,200);text-anchor:end;text-align:right;"> 1 </text><text x="400" y="294" style="font-size:10px;fill:rgb(200,200,200);text-anchor:middle;text-align:center;"> Tolerance </text><circle cx="780" cy="20" r="2" style="fill:rgb(128,214,87);stroke:none;fill-opacity:1;stroke-opacity:1;" /><path d="M 780 20 L 630.77246 111.55" style="stroke:rgb(128,214,87);stroke-width:1" /><circle cx="630.77246" cy="111.55" r="2" style="fill:rgb(128,214,87);stroke:none;fill-opacity:1;stroke-opacity:1;" /><path d="M 630.77246 111.55 L 517.8862 156.35251" style="stroke:rgb(128,214,87);stroke-width:1" /><circle cx="517.8862" cy="156.35251" r="2" style="fill:rgb(128,214,87);stroke:none;fill-opacity:1;stroke-opacity:1;" /><path d="M 517.8862 156.35251 L 451.85202 177.5575" style="stroke:rgb(128,214,87);stroke-width:1" /><circle cx="451.85202" cy="177.5575" r="2" style="fill:rgb(128,214,87);stroke:none;fill-opacity:1;stroke-opacity:1;" /><path d="M 451.85202 177.5575 L 405 189.575" style="stroke:rgb(128,214,87);stroke-width:1" /><circle cx="405" cy="189.575" r="2" style="fill:rgb(128,214,87);stroke:none;fill-opacity:1;stroke-opacity:1;" /><path d="M 405 189.575 L 338.96576 203.92749" style="stroke:rgb(128,214,87);stroke-width:1" /><circle cx="338.96576" cy="203.92749" r="2" style="fill:rgb(128,214,87);stroke:none;fill-opacity:1;stroke-opacity:1;" /><path d="M 338.96576 203.92749 L 292.11377 212.9975" style="stroke:rgb(128,214,87);stroke-width:1" /><circle cx="292.11377" cy="212.9975" r="2" style="fill:rgb(128,214,87);stroke:none;fill-opacity:1;stroke-opacity:1;" /><path d="M 292.11377 212.9975 L 255.7725 219.42" style="stroke:rgb(128,214,87);stroke-width:1" /><circle cx="255.7725" cy="219.42" r="2" style="fill:rgb(128,214,87);stroke:none;fill-opacity:1;stroke-opacity:1;" /><path d="M 255.7725 219.42 L 142.88626 234.3925" style="stroke:rgb(128,214,87);stroke-width:1" /><circle cx="142.88626" cy="234.3925" r="2" style="fill:rgb(128,214,87);stroke:none;fill-opacity:1;stroke-opacity:1;" /><path d="M 142.88626 234.3925 L 30 244.9075" style="stroke:rgb(128,214,87);stroke-width:1" /><circle cx="30" cy="244.9075" r="2" style="fill:rgb(128,214,87);stroke:none;fill-opacity:1;stroke-opacity:1;" /><circle cx="780" cy="144.82751" r="2" style="fill:rgb(50,125,209);stroke:none;fill-opacity:1;stroke-opacity:1;" /><path d="M 780 144.82751 L 630.77246 186.9" style="stroke:rgb(50,125,209);stroke-width:1" /><circle cx="630.77246" cy="186.9" r="2" style="fill:rgb(50,125,209);stroke:none;fill-opacity:1;stroke-opacity:1;" /><path d="M 630.77246 186.9 L 517.8862 208.3075" style="stroke:rgb(50,125,209);stroke-width:1" /><circle cx="517.8862" cy="208.3075" r="2" style="fill:rgb(50,125,209);stroke:none;fill-opacity:1;stroke-opacity:1;" /><path d="M 517.8862 208.3075 L 451.85202 217.8575" style="stroke:rgb(50,125,209);stroke-width:1" /><circle cx="451.85202" cy="217.8575" r="2" style="fill:rgb(50,125,209);stroke:none;fill-opacity:1;stroke-opacity:1;" /><path d="M 451.85202 217.8575 L 405 223.56" style="stroke:rgb(50,125,209);stroke-width:1" /><circle cx="405" cy="223.56" r="2" style="fill:rgb(50,125,209);stroke:none;fill-opacity:1;stroke-opacity:1;" /><path d="M 405 223.56 L 338.96576 230.45" style="stroke:rgb(50,125,209);stroke-width:1" /><circle cx="338.96576" cy="230.45" r="2" style="fill:rgb(50,125,209);stroke:none;fill-opacity:1;stroke-opacity:1;" /><path d="M 338.96576 230.45 L 292.11377 234.475" style="stroke:rgb(50,125,209);stroke-width:1" /><circle cx="292.11377" cy="234.475" r="2" style="fill:rgb(50,125,209);stroke:none;fill-opacity:1;stroke-opacity:1;" /><path d="M 292.11377 234.475 L 255.7725 237.58" style="stroke:rgb(50,125,209);stroke-width:1" /><circle cx="255.7725" cy="237.58" r="2" style="fill:rgb(50,125,209);stroke:none;fill-opacity:1;stroke-opacity:1;" /><path d="M 255.7725 237.58 L 142.88626 244.66" style="stroke:rgb(50,125,209);stroke-width:1" /><circle cx="142.88626" cy="244.66" r="2" style="fill:rgb(50,125,209);stroke:none;fill-opacity:1;stroke-opacity:1;" /><path d="M 142.88626 244.66 L 30 249.70999" style="stroke:rgb(50,125,209);stroke-width:1" /><circle cx="30" cy="249.70999" r="2" style="fill:rgb(50,125,209);stroke:none;fill-opacity:1;stroke-opacity:1;" /><circle cx="780" cy="235.695" r="2" style="fill:rgb(126,176,213);stroke:none;fill-opacity:1;stroke-opacity:1;" /><path d="M 780 235.695 L 630.77246 245.4825" style="stroke:rgb(126,176,213);stroke-width:1" /><circle cx="630.77246" cy="245.4825" r="2" style="fill:rgb(126,176,213);stroke:none;fill-opacity:1;stroke-opacity:1;" /><path d="M 630.77246 245.4825 L 517.8862 250.5425" style="stroke:rgb(126,176,213);stroke-width:1" /><circle cx="517.8862" cy="250.5425" r="2" style="fill:rgb(126,176,213);stroke:none;fill-opacity:1;stroke-opacity:1;" /><path d="M 517.8862 250.5425 L 451.85202 252.8775" style="stroke:rgb(126,176,213);stroke-width:1" /><circle cx="451.85202" cy="252.8775" r="2" style="fill:rgb(126,176,213);stroke:none;fill-opacity:1;stroke-opacity:1;" /><path d="M 451.85202 252.8775 L 405 254.33" style="stroke:rgb(126,176,213);stroke-width:1" /><circle cx="405" cy="254.33" r="2" style="fill:rgb(126,176,213);stroke:none;fill-opacity:1;stroke-opacity:1;" /><path d="M 405 254.33 L 338.96576 256.26" style="stroke:rgb(126,176,213);stroke-width:1" /><circle cx="338.96576" cy="256.26" r="2" style="fill:rgb(126,176,213);stroke:none;fill-opacity:1;stroke-opacity:1;" /><path d="M 338.96576 256.26 L 292.11377 257.3775" style="stroke:rgb(126,176,213);stroke-width:1" /><circle cx="292.11377" cy="257.3775" r="2" style="fill:rgb(126,176,213);stroke:none;fill-opacity:1;stroke-opacity:1;" /><path d="M 292.11377 257.3775 L 255.7725 258.2375" style="stroke:rgb(126,176,213);stroke-width:1" /><circle cx="255.7725" cy="258.2375" r="2" style="fill:rgb(126,176,213);stroke:none;fill-opacity:1;stroke-opacity:1;" /><path d="M 255.7725 258.2375 L 142.88626 260.27" style="stroke:rgb(126,176,213);stroke-width:1" /><circle cx="142.88626" cy="260.27" r="2" style="fill:rgb(126,176,213);stroke:none;fill-opacity:1;stroke-opacity:1;" /><path d="M 142.88626 260.27 L 30 261.8375" style="stroke:rgb(126,176,213);stroke-width:1" /><circle cx="30" cy="261.8375" r="2" style="fill:rgb(126,176,213);stroke:none;fill-opacity:1;stroke-opacity:1;" /><circle cx="780" cy="248.3825" r="2" style="fill:rgb(253,127,111);stroke:none;fill-opacity:1;stroke-opacity:1;" /><path d="M 780 248.3825 L 630.77246 254.56" style="stroke:rgb(253,127,111);stroke-width:1" /><circle cx="630.77246" cy="254.56" r="2" style="fill:rgb(253,127,111);stroke:none;fill-opacity:1;stroke-opacity:1;" /><path d="M 630.77246 254.56 L 517.8862 257.8575" style="stroke:rgb(253,127,111);stroke-width:1" /><circle cx="517.8862" cy="257.8575" r="2" style="fill:rgb(253,127,111);stroke:none;fill-opacity:1;stroke-opacity:1;" /><path d="M 517.8862 257.8575 L 451.85202 259.295" style="stroke:rgb(253,127,111);stroke-width:1" /><circle cx="451.85202" cy="259.295" r="2" style="fill:rgb(253,127,111);stroke:none;fill-opacity:1;stroke-opacity:1;" /><path d="M 451.85202 259.295 L 405 260.245" style="stroke:rgb(253,127,111);stroke-width:1" /><circle cx="405" cy="260.245" r="2" style="fill:rgb(253,127,111);stroke:none;fill-opacity:1;stroke-opacity:1;" /><path d="M 405 260.245 L 338.96576 261.4675" style="stroke:rgb(253,127,111);stroke-width:1" /><circle cx="338.96576" cy="261.4675" r="2" style="fill:rgb(253,127,111);stroke:none;fill-opacity:1;stroke-opacity:1;" /><path d="M 338.96576 261.4675 L 292.11377 262.195" style="stroke:rgb(253,127,111);stroke-width:1" /><circle cx="292.11377" cy="262.195" r="2" style="fill:rgb(253,127,111);stroke:none;fill-opacity:1;stroke-opacity:1;" /><path d="M 292.11377 262.195 L 255.7725 262.8375" style="stroke:rgb(253,127,111);stroke-width:1" /><circle cx="255.7725" cy="262.8375" r="2" style="fill:rgb(253,127,111);stroke:none;fill-opacity:1;stroke-opacity:1;" /><path d="M 255.7725 262.8375 L 142.88626 264.2425" style="stroke:rgb(253,127,111);stroke-width:1" /><circle cx="142.88626" cy="264.2425" r="2" style="fill:rgb(253,127,111);stroke:none;fill-opacity:1;stroke-opacity:1;" /><path d="M 142.88626 264.2425 L 30 265.18" style="stroke:rgb(253,127,111);stroke-width:1" /><circle cx="30" cy="265.18" r="2" style="fill:rgb(253,127,111);stroke:none;fill-opacity:1;stroke-opacity:1;" /><circle cx="780" cy="21.567505" r="2" style="fill:rgb(255,238,101);stroke:none;fill-opacity:1;stroke-opacity:1;" /><path d="M 780 21.567505 L 630.77246 123.2775" style="stroke:rgb(255,238,101);stroke-width:1" /><circle cx="630.77246" cy="123.2775" r="2" style="fill:rgb(255,238,101);stroke:none;fill-opacity:1;stroke-opacity:1;" /><path d="M 630.77246 123.2775 L 517.8862 155.94751" style="stroke:rgb(255,238,101);stroke-width:1" /><circle cx="517.8862" cy="155.94751" r="2" style="fill:rgb(255,238,101);stroke:none;fill-opacity:1;stroke-opacity:1;" /><path d="M 517.8862 155.94751 L 451.85202 180.9225" style="stroke:rgb(255,238,101);stroke-width:1" /><circle cx="451.85202" cy="180.9225" r="2" style="fill:rgb(255,238,101);stroke:none;fill-opacity:1;stroke-opacity:1;" /><path d="M 451.85202 180.9225 L 405 196.7575" style="stroke:rgb(255,238,101);stroke-width:1" /><circle cx="405" cy="196.7575" r="2" style="fill:rgb(255,238,101);stroke:none;fill-opacity:1;stroke-opacity:1;" /><path d="M 405 196.7575 L 338.96576 206.91501" style="stroke:rgb(255,238,101);stroke-width:1" /><circle cx="338.96576" cy="206.91501" r="2" style="fill:rgb(255,238,101);stroke:none;fill-opacity:1;stroke-opacity:1;" /><path d="M 338.96576 206.91501 L 292.11377 212.5625" style="stroke:rgb(255,238,101);stroke-width:1" /><circle cx="292.11377" cy="212.5625" r="2" style="fill:rgb(255,238,101);stroke:none;fill-opacity:1;stroke-opacity:1;" /><path d="M 292.11377 212.5625 L 255.7725 219.48" style="stroke:rgb(255,238,101);stroke-width:1" /><circle cx="255.7725" cy="219.48" r="2" style="fill:rgb(255,238,101);stroke:none;fill-opacity:1;stroke-opacity:1;" /><path d="M 255.7725 219.48 L 142.88626 237.195" style="stroke:rgb(255,238,101);stroke-width:1" /><circle cx="142.88626" cy="237.195" r="2" style="fill:rgb(255,238,101);stroke:none;fill-opacity:1;stroke-opacity:1;" /><path d="M 142.88626 237.195 L 30 245.035" style="stroke:rgb(255,238,101);stroke-width:1" /><circle cx="30" cy="245.035" r="2" style="fill:rgb(255,238,101);stroke:none;fill-opacity:1;stroke-opacity:1;" /><circle cx="780" cy="247.385" r="2" style="fill:rgb(253,204,229);stroke:none;fill-opacity:1;stroke-opacity:1;" /><path d="M 780 247.385 L 630.77246 253.7875" style="stroke:rgb(253,204,229);stroke-width:1" /><circle cx="630.77246" cy="253.7875" r="2" style="fill:rgb(253,204,229);stroke:none;fill-opacity:1;stroke-opacity:1;" /><path d="M 630.77246 253.7875 L 517.8862 257.2425" style="stroke:rgb(253,204,229);stroke-width:1" /><circle cx="517.8862" cy="257.2425" r="2" style="fill:rgb(253,204,229);stroke:none;fill-opacity:1;stroke-opacity:1;" /><path d="M 517.8862 257.2425 L 451.85202 258.7625" style="stroke:rgb(253,204,229);stroke-width:1" /><circle cx="451.85202" cy="258.7625" r="2" style="fill:rgb(253,204,229);stroke:none;fill-opacity:1;stroke-opacity:1;" /><path d="M 451.85202 258.7625 L 405 259.7675" style="stroke:rgb(253,204,229);stroke-width:1" /><circle cx="405" cy="259.7675" r="2" style="fill:rgb(253,204,229);stroke:none;fill-opacity:1;stroke-opacity:1;" /><path d="M 405 259.7675 L 338.96576 260.9825" style="stroke:rgb(253,204,229);stroke-width:1" /><circle cx="338.96576" cy="260.9825" r="2" style="fill:rgb(253,204,229);stroke:none;fill-opacity:1;stroke-opacity:1;" /><path d="M 338.96576 260.9825 L 292.11377 261.7875" style="stroke:rgb(253,204,229);stroke-width:1" /><circle cx="292.11377" cy="261.7875" r="2" style="fill:rgb(253,204,229);stroke:none;fill-opacity:1;stroke-opacity:1;" /><path d="M 292.11377 261.7875 L 255.7725 262.33" style="stroke:rgb(253,204,229);stroke-width:1" /><circle cx="255.7725" cy="262.33" r="2" style="fill:rgb(253,204,229);stroke:none;fill-opacity:1;stroke-opacity:1;" /><path d="M 255.7725 262.33 L 142.88626 263.8625" style="stroke:rgb(253,204,229);stroke-width:1" /><circle cx="142.88626" cy="263.8625" r="2" style="fill:rgb(253,204,229);stroke:none;fill-opacity:1;stroke-opacity:1;" /><path d="M 142.88626 263.8625 L 30 264.92" style="stroke:rgb(253,204,229);stroke-width:1" /><circle cx="30" cy="264.92" r="2" style="fill:rgb(253,204,229);stroke:none;fill-opacity:1;stroke-opacity:1;" /><rect x="676" y="16" width="80" height="133" ry="4" style="fill:rgb(30,30,30);stroke:none;fill-opacity:0.8;stroke-opacity:1;" /><rect x="680" y="20" width="20" height="20" ry="2" style="fill:rgb(253,127,111);stroke:none;fill-opacity:1;stroke-opacity:1;" /><text x="705" y="33" style="font-size:10px;fill:rgb(255,255,255);text-anchor:start;text-align:left;"> fwd-diff </text><rect x="680" y="41" width="20" height="20" ry="2" style="fill:rgb(50,125,209);stroke:none;fill-opacity:1;stroke-opacity:1;" /><text x="705" y="54" style="font-size:10px;fill:rgb(255,255,255);text-anchor:start;text-align:left;"> levien </text><rect x="680" y="62" width="20" height="20" ry="2" style="fill:rgb(126,176,213);stroke:none;fill-opacity:1;stroke-opacity:1;" /><text x="705" y="75" style="font-size:10px;fill:rgb(255,255,255);text-anchor:start;text-align:left;"> levien-simd </text><rect x="680" y="83" width="20" height="20" ry="2" style="fill:rgb(128,214,87);stroke:none;fill-opacity:1;stroke-opacity:1;" /><text x="705" y="96" style="font-size:10px;fill:rgb(255,255,255);text-anchor:start;text-align:left;"> linear </text><rect x="680" y="104" width="20" height="20" ry="2" style="fill:rgb(255,238,101);stroke:none;fill-opacity:1;stroke-opacity:1;" /><text x="705" y="117" style="font-size:10px;fill:rgb(255,255,255);text-anchor:start;text-align:left;"> recursive </text><rect x="680" y="125" width="20" height="20" ry="2" style="fill:rgb(253,204,229);stroke:none;fill-opacity:1;stroke-opacity:1;" /><text x="705" y="138" style="font-size:10px;fill:rgb(255,255,255);text-anchor:start;text-align:left;"> wang </text><text x="400" y="30" style="font-size:20px;fill:rgb(255,255,255);text-anchor:middle;text-align:center;"> nehab dataset: quadratic </text><text x="400" y="42" style="font-size:8px;fill:rgb(200,200,200);text-anchor:middle;text-align:center;"> Normalized performance score (lower is better) </text></svg>