<svg xmlns="http://www.w3.org/2000/svg" viewBox="0 0 800 300"><rect x="0" y="0" width="800" height="300" ry="6" style="fill:rgb(30,30,30);stroke:none;fill-opacity:1;stroke-opacity:1;" /><path d="M 30 20 L 30 270" style="stroke:rgb(200,200,200);stroke-width:1" /><path d="M 30 270 L 780 270" style="stroke:rgb(200,200,200);stroke-width:1" /><path d="M 780 270 L 780 272" style="stroke:rgb(200,200,200);stroke-width:1" /><text x="780" y="282" style="font-size:10px;fill:rgb(200,200,200);text-anchor:middle;text-align:center;"> 0.01 </text><path d="M 630.77246 270 L 630.77246 272" style="stroke:rgb(200,200,200);stroke-width:1" /><text x="630.77246" y="282" style="font-size:10px;fill:rgb(200,200,200);text-anchor:middle;text-align:center;"> 0.025 </text><path d="M 517.8862 270 L 517.8862 272" style="stroke:rgb(200,200,200);stroke-width:1" /><text x="517.8862" y="282" style="font-size:10px;fill:rgb(200,200,200);text-anchor:middle;text-align:center;"> 0.05 </text><path d="M 451.85202 270 L 451.85202 272" style="stroke:rgb(200,200,200);stroke-width:1" /><text x="451.85202" y="282" style="font-size:10px;fill:rgb(200,200,200);text-anchor:middle;text-align:center;"> 0.075 </text><path d="M 405 270 L 405 272" style="stroke:rgb(200,200,200);stroke-width:1" /><text x="405" y="282" style="font-size:10px;fill:rgb(200,200,200);text-anchor:middle;text-align:center;"> 0.1 </text><path d="M 338.96576 270 L 338.96576 272" style="stroke:rgb(200,200,200);stroke-width:1" /><text x="338.96576" y="282" style="font-size:10px;fill:rgb(200,200,200);text-anchor:middle;text-align:center;"> 0.15 </text><path d="M 292.11377 270 L 292.11377 272" style="stroke:rgb(200,200,200);stroke-width:1" /><text x="292.11377" y="282" style="font-size:10px;fill:rgb(200,200,200);text-anchor:middle;text-align:center;"> 0.2 </text><path d="M 255.7725 270 L 255.7725 272" style="stroke:rgb(200,200,200);stroke-width:1" /><text x="255.7725" y="282" style="font-size:10px;fill:rgb(200,200,200);text-anchor:middle;text-align:center;"> 0.25 </text><path d="M 142.88626 270 L 142.88626 272" style="stroke:rgb(200,200,200);stroke-width:1" /><text x="142.88626" y="282" style="font-size:10px;fill:rgb(200,200,200);text-anchor:middle;text-align:center;"> 0.5 </text><path d="M 30 270 L 30 272" style="stroke:rgb(200,200,200);stroke-width:1" /><text x="30" y="282" style="font-size:10px;fill:rgb(200,200,200);text-anchor:middle;text-align:center;"> 1 </text><path d="M 28 270 L 30 270" style="stroke:rgb(200,200,200);stroke-width:1" /><text x="26" y="274" style="font-size:10px;fill:rgb(200,200,200);text-anchor:end;text-align:right;"> 0 </text><path d="M 28 207.5 L 30 207.5" style="stroke:rgb(200,200,200);stroke-width:1" /><text x="26" y="211.5" style="font-size:10px;fill:rgb(200,200,200);text-anchor:end;text-align:right;"> 0.25 </text><path d="M 28 145 L 30 145" style="stroke:rgb(200,200,200);stroke-width:1" /><text x="26" y="149" style="font-size:10px;fill:rgb(200,200,200);text-anchor:end;text-align:right;"> 0.5 </text><path d="M 28 82.5 L 30 82.5" style="stroke:rgb(200,200,200);stroke-width:1" /><text x="26" y="86.5" style="font-size:10px;fill:rgb(200,200,200);text-anchor:end;text-align:right;"> 0.75 </text><path d="M 28 20 L 30 20" style="stroke:rgb(200,200,200);stroke-width:1" /><text x="26" y="24" style="font-size:10px;fill:rgb(200,200,200);text-anchor:end;text-align:right;"> 1 </text><text x="400" y="294" style="font-size:10px;fill:rgb(200,200,200);text-anchor:middle;text-align:center;"> Tolerance </text><circle cx="780" cy="116.39" r="2" style="fill:rgb(128,214,87);stroke:none;fill-opacity:1;stroke-opacity:1;" /><path d="M 780 116.39 L 630.77246 173.08499" style="stroke:rgb(128,214,87);stroke-width:1" /><circle cx="630.77246" cy="173.08499" r="2" style="fill:rgb(128,214,87);stroke:none;fill-opacity:1;stroke-opacity:1;" /><path d="M 630.77246 173.08499 L 517.8862 202.59" style="stroke:rgb(128,214,87);stroke-width:1" /><circle cx="517.8862" cy="202.59" r="2" style="fill:rgb(128,214,87);stroke:none;fill-opacity:1;stroke-opacity:1;" /><path d="M 517.8862 202.59 L 451.85202 216.3325" style="stroke:rgb(128,214,87);stroke-width:1" /><circle cx="451.85202" cy="216.3325" r="2" style="fill:rgb(128,214,87);stroke:none;fill-opacity:1;stroke-opacity:1;" /><path d="M 451.85202 216.3325 L 405 225.6125" style="stroke:rgb(128,214,87);stroke-width:1" /><circle cx="405" cy="225.6125" r="2" style="fill:rgb(128,214,87);stroke:none;fill-opacity:1;stroke-opacity:1;" /><path d="M 405 225.6125 L 338.96576 236.8125" style="stroke:rgb(128,214,87);stroke-width:1" /><circle cx="338.96576" cy="236.8125" r="2" style="fill:rgb(128,214,87);stroke:none;fill-opacity:1;stroke-opacity:1;" /><path d="M 338.96576 236.8125 L 292.11377 243.1875" style="stroke:rgb(128,214,87);stroke-width:1" /><circle cx="292.11377" cy="243.1875" r="2" style="fill:rgb(128,214,87);stroke:none;fill-opacity:1;stroke-opacity:1;" /><path d="M 292.11377 243.1875 L 255.7725 247.6675" style="stroke:rgb(128,214,87);stroke-width:1" /><circle cx="255.7725" cy="247.6675" r="2" style="fill:rgb(128,214,87);stroke:none;fill-opacity:1;stroke-opacity:1;" /><path d="M 255.7725 247.6675 L 142.88626 255.825" style="stroke:rgb(128,214,87);stroke-width:1" /><circle cx="142.88626" cy="255.825" r="2" style="fill:rgb(128,214,87);stroke:none;fill-opacity:1;stroke-opacity:1;" /><path d="M 142.88626 255.825 L 30 260.6075" style="stroke:rgb(128,214,87);stroke-width:1" /><circle cx="30" cy="260.6075" r="2" style="fill:rgb(128,214,87);stroke:none;fill-opacity:1;stroke-opacity:1;" /><circle cx="780" cy="144.55" r="2" style="fill:rgb(255,238,101);stroke:none;fill-opacity:1;stroke-opacity:1;" /><path d="M 780 144.55 L 630.77246 188.64749" style="stroke:rgb(255,238,101);stroke-width:1" /><circle cx="630.77246" cy="188.64749" r="2" style="fill:rgb(255,238,101);stroke:none;fill-opacity:1;stroke-opacity:1;" /><path d="M 630.77246 188.64749 L 517.8862 211.1175" style="stroke:rgb(255,238,101);stroke-width:1" /><circle cx="517.8862" cy="211.1175" r="2" style="fill:rgb(255,238,101);stroke:none;fill-opacity:1;stroke-opacity:1;" /><path d="M 517.8862 211.1175 L 451.85202 221.6975" style="stroke:rgb(255,238,101);stroke-width:1" /><circle cx="451.85202" cy="221.6975" r="2" style="fill:rgb(255,238,101);stroke:none;fill-opacity:1;stroke-opacity:1;" /><path d="M 451.85202 221.6975 L 405 228.83" style="stroke:rgb(255,238,101);stroke-width:1" /><circle cx="405" cy="228.83" r="2" style="fill:rgb(255,238,101);stroke:none;fill-opacity:1;stroke-opacity:1;" /><path d="M 405 228.83 L 338.96576 237.42" style="stroke:rgb(255,238,101);stroke-width:1" /><circle cx="338.96576" cy="237.42" r="2" style="fill:rgb(255,238,101);stroke:none;fill-opacity:1;stroke-opacity:1;" /><path d="M 338.96576 237.42 L 292.11377 242.04001" style="stroke:rgb(255,238,101);stroke-width:1" /><circle cx="292.11377" cy="242.04001" r="2" style="fill:rgb(255,238,101);stroke:none;fill-opacity:1;stroke-opacity:1;" /><path d="M 292.11377 242.04001 L 255.7725 245.3875" style="stroke:rgb(255,238,101);stroke-width:1" /><circle cx="255.7725" cy="245.3875" r="2" style="fill:rgb(255,238,101);stroke:none;fill-opacity:1;stroke-opacity:1;" /><path d="M 255.7725 245.3875 L 142.88626 254.065" style="stroke:rgb(255,238,101);stroke-width:1" /><circle cx="142.88626" cy="254.065" r="2" style="fill:rgb(255,238,101);stroke:none;fill-opacity:1;stroke-opacity:1;" /><path d="M 142.88626 254.065 L 30 259.665" style="stroke:rgb(255,238,101);stroke-width:1" /><circle cx="30" cy="259.665" r="2" style="fill:rgb(255,238,101);stroke:none;fill-opacity:1;stroke-opacity:1;" /><circle cx="780" cy="159.4" r="2" style="fill:rgb(126,176,213);stroke:none;fill-opacity:1;stroke-opacity:1;" /><path d="M 780 159.4 L 630.77246 183.39499" style="stroke:rgb(126,176,213);stroke-width:1" /><circle cx="630.77246" cy="183.39499" r="2" style="fill:rgb(126,176,213);stroke:none;fill-opacity:1;stroke-opacity:1;" /><path d="M 630.77246 183.39499 L 517.8862 197.9875" style="stroke:rgb(126,176,213);stroke-width:1" /><circle cx="517.8862" cy="197.9875" r="2" style="fill:rgb(126,176,213);stroke:none;fill-opacity:1;stroke-opacity:1;" /><path d="M 517.8862 197.9875 L 451.85202 204.41" style="stroke:rgb(126,176,213);stroke-width:1" /><circle cx="451.85202" cy="204.41" r="2" style="fill:rgb(126,176,213);stroke:none;fill-opacity:1;stroke-opacity:1;" /><path d="M 451.85202 204.41 L 405 209.3675" style="stroke:rgb(126,176,213);stroke-width:1" /><circle cx="405" cy="209.3675" r="2" style="fill:rgb(126,176,213);stroke:none;fill-opacity:1;stroke-opacity:1;" /><path d="M 405 209.3675 L 338.96576 214.9225" style="stroke:rgb(126,176,213);stroke-width:1" /><circle cx="338.96576" cy="214.9225" r="2" style="fill:rgb(126,176,213);stroke:none;fill-opacity:1;stroke-opacity:1;" /><path d="M 338.96576 214.9225 L 292.11377 218.8075" style="stroke:rgb(126,176,213);stroke-width:1" /><circle cx="292.11377" cy="218.8075" r="2" style="fill:rgb(126,176,213);stroke:none;fill-opacity:1;stroke-opacity:1;" /><path d="M 292.11377 218.8075 L 255.7725 221.13" style="stroke:rgb(126,176,213);stroke-width:1" /><circle cx="255.7725" cy="221.13" r="2" style="fill:rgb(126,176,213);stroke:none;fill-opacity:1;stroke-opacity:1;" /><path d="M 255.7725 221.13 L 142.88626 228.32" style="stroke:rgb(126,176,213);stroke-width:1" /><circle cx="142.88626" cy="228.32" r="2" style="fill:rgb(126,176,213);stroke:none;fill-opacity:1;stroke-opacity:1;" /><path d="M 142.88626 228.32 L 30 231.815" style="stroke:rgb(126,176,213);stroke-width:1" /><circle cx="30" cy="231.815" r="2" style="fill:rgb(126,176,213);stroke:none;fill-opacity:1;stroke-opacity:1;" /><circle cx="780" cy="248.355" r="2" style="fill:rgb(253,127,111);stroke:none;fill-opacity:1;stroke-opacity:1;" /><path d="M 780 248.355 L 630.77246 253.59" style="stroke:rgb(253,127,111);stroke-width:1" /><circle cx="630.77246" cy="253.59" r="2" style="fill:rgb(253,127,111);stroke:none;fill-opacity:1;stroke-opacity:1;" /><path d="M 630.77246 253.59 L 517.8862 256.305" style="stroke:rgb(253,127,111);stroke-width:1" /><circle cx="517.8862" cy="256.305" r="2" style="fill:rgb(253,127,111);stroke:none;fill-opacity:1;stroke-opacity:1;" /><path d="M 517.8862 256.305 L 451.85202 257.5675" style="stroke:rgb(253,127,111);stroke-width:1" /><circle cx="451.85202" cy="257.5675" r="2" style="fill:rgb(253,127,111);stroke:none;fill-opacity:1;stroke-opacity:1;" /><path d="M 451.85202 257.5675 L 405 258.3275" style="stroke:rgb(253,127,111);stroke-width:1" /><circle cx="405" cy="258.3275" r="2" style="fill:rgb(253,127,111);stroke:none;fill-opacity:1;stroke-opacity:1;" /><path d="M 405 258.3275 L 338.96576 259.1775" style="stroke:rgb(253,127,111);stroke-width:1" /><circle cx="338.96576" cy="259.1775" r="2" style="fill:rgb(253,127,111);stroke:none;fill-opacity:1;stroke-opacity:1;" /><path d="M 338.96576 259.1775 L 292.11377 259.7875" style="stroke:rgb(253,127,111);stroke-width:1" /><circle cx="292.11377" cy="259.7875" r="2" style="fill:rgb(253,127,111);stroke:none;fill-opacity:1;stroke-opacity:1;" /><path d="M 292.11377 259.7875 L 255.7725 260.115" style="stroke:rgb(253,127,111);stroke-width:1" /><circle cx="255.7725" cy="260.115" r="2" style="fill:rgb(253,127,111);stroke:none;fill-opacity:1;stroke-opacity:1;" /><path d="M 255.7725 260.115 L 142.88626 261.3925" style="stroke:rgb(253,127,111);stroke-width:1" /><circle cx="142.88626" cy="261.3925" r="2" style="fill:rgb(253,127,111);stroke:none;fill-opacity:1;stroke-opacity:1;" /><path d="M 142.88626 261.3925 L 30 262.665" style="stroke:rgb(253,127,111);stroke-width:1" /><circle cx="30" cy="262.665" r="2" style="fill:rgb(253,127,111);stroke:none;fill-opacity:1;stroke-opacity:1;" /><circle cx="780" cy="229.1425" r="2" style="fill:rgb(120,68,33);stroke:none;fill-opacity:1;stroke-opacity:1;" /><path d="M 780 229.1425 L 630.77246 227.0375" style="stroke:rgb(120,68,33);stroke-width:1" /><circle cx="630.77246" cy="227.0375" r="2" style="fill:rgb(120,68,33);stroke:none;fill-opacity:1;stroke-opacity:1;" /><path d="M 630.77246 227.0375 L 517.8862 225.47" style="stroke:rgb(120,68,33);stroke-width:1" /><circle cx="517.8862" cy="225.47" r="2" style="fill:rgb(120,68,33);stroke:none;fill-opacity:1;stroke-opacity:1;" /><path d="M 517.8862 225.47 L 451.85202 226.17" style="stroke:rgb(120,68,33);stroke-width:1" /><circle cx="451.85202" cy="226.17" r="2" style="fill:rgb(120,68,33);stroke:none;fill-opacity:1;stroke-opacity:1;" /><path d="M 451.85202 226.17 L 405 227.09" style="stroke:rgb(120,68,33);stroke-width:1" /><circle cx="405" cy="227.09" r="2" style="fill:rgb(120,68,33);stroke:none;fill-opacity:1;stroke-opacity:1;" /><path d="M 405 227.09 L 338.96576 230.14749" style="stroke:rgb(120,68,33);stroke-width:1" /><circle cx="338.96576" cy="230.14749" r="2" style="fill:rgb(120,68,33);stroke:none;fill-opacity:1;stroke-opacity:1;" /><path d="M 338.96576 230.14749 L 292.11377 232.34" style="stroke:rgb(120,68,33);stroke-width:1" /><circle cx="292.11377" cy="232.34" r="2" style="fill:rgb(120,68,33);stroke:none;fill-opacity:1;stroke-opacity:1;" /><path d="M 292.11377 232.34 L 255.7725 233.8725" style="stroke:rgb(120,68,33);stroke-width:1" /><circle cx="255.7725" cy="233.8725" r="2" style="fill:rgb(120,68,33);stroke:none;fill-opacity:1;stroke-opacity:1;" /><path d="M 255.7725 233.8725 L 142.88626 239.42" style="stroke:rgb(120,68,33);stroke-width:1" /><circle cx="142.88626" cy="239.42" r="2" style="fill:rgb(120,68,33);stroke:none;fill-opacity:1;stroke-opacity:1;" /><path d="M 142.88626 239.42 L 30 237.91" style="stroke:rgb(120,68,33);stroke-width:1" /><circle cx="30" cy="237.91" r="2" style="fill:rgb(120,68,33);stroke:none;fill-opacity:1;stroke-opacity:1;" /><circle cx="780" cy="253.8425" r="2" style="fill:rgb(199,126,190);stroke:none;fill-opacity:1;stroke-opacity:1;" /><path d="M 780 253.8425 L 630.77246 257.1" style="stroke:rgb(199,126,190);stroke-width:1" /><circle cx="630.77246" cy="257.1" r="2" style="fill:rgb(199,126,190);stroke:none;fill-opacity:1;stroke-opacity:1;" /><path d="M 630.77246 257.1 L 517.8862 259.0325" style="stroke:rgb(199,126,190);stroke-width:1" /><circle cx="517.8862" cy="259.0325" r="2" style="fill:rgb(199,126,190);stroke:none;fill-opacity:1;stroke-opacity:1;" /><path d="M 517.8862 259.0325 L 451.85202 260.1225" style="stroke:rgb(199,126,190);stroke-width:1" /><circle cx="451.85202" cy="260.1225" r="2" style="fill:rgb(199,126,190);stroke:none;fill-opacity:1;stroke-opacity:1;" /><path d="M 451.85202 260.1225 L 405 260.965" style="stroke:rgb(199,126,190);stroke-width:1" /><circle cx="405" cy="260.965" r="2" style="fill:rgb(199,126,190);stroke:none;fill-opacity:1;stroke-opacity:1;" /><path d="M 405 260.965 L 338.96576 261.68" style="stroke:rgb(199,126,190);stroke-width:1" /><circle cx="338.96576" cy="261.68" r="2" style="fill:rgb(199,126,190);stroke:none;fill-opacity:1;stroke-opacity:1;" /><path d="M 338.96576 261.68 L 292.11377 262.0825" style="stroke:rgb(199,126,190);stroke-width:1" /><circle cx="292.11377" cy="262.0825" r="2" style="fill:rgb(199,126,190);stroke:none;fill-opacity:1;stroke-opacity:1;" /><path d="M 292.11377 262.0825 L 255.7725 262.44" style="stroke:rgb(199,126,190);stroke-width:1" /><circle cx="255.7725" cy="262.44" r="2" style="fill:rgb(199,126,190);stroke:none;fill-opacity:1;stroke-opacity:1;" /><path d="M 255.7725 262.44 L 142.88626 263.32" style="stroke:rgb(199,126,190);stroke-width:1" /><circle cx="142.88626" cy="263.32" r="2" style="fill:rgb(199,126,190);stroke:none;fill-opacity:1;stroke-opacity:1;" /><path d="M 142.88626 263.32 L 30 263.9275" style="stroke:rgb(199,126,190);stroke-width:1" /><circle cx="30" cy="263.9275" r="2" style="fill:rgb(199,126,190);stroke:none;fill-opacity:1;stroke-opacity:1;" /><circle cx="780" cy="20" r="2" style="fill:rgb(50,125,209);stroke:none;fill-opacity:1;stroke-opacity:1;" /><path d="M 780 20 L 630.77246 82.1725" style="stroke:rgb(50,125,209);stroke-width:1" /><circle cx="630.77246" cy="82.1725" r="2" style="fill:rgb(50,125,209);stroke:none;fill-opacity:1;stroke-opacity:1;" /><path d="M 630.77246 82.1725 L 517.8862 117.83501" style="stroke:rgb(50,125,209);stroke-width:1" /><circle cx="517.8862" cy="117.83501" r="2" style="fill:rgb(50,125,209);stroke:none;fill-opacity:1;stroke-opacity:1;" /><path d="M 517.8862 117.83501 L 451.85202 134.635" style="stroke:rgb(50,125,209);stroke-width:1" /><circle cx="451.85202" cy="134.635" r="2" style="fill:rgb(50,125,209);stroke:none;fill-opacity:1;stroke-opacity:1;" /><path d="M 451.85202 134.635 L 405 146.0025" style="stroke:rgb(50,125,209);stroke-width:1" /><circle cx="405" cy="146.0025" r="2" style="fill:rgb(50,125,209);stroke:none;fill-opacity:1;stroke-opacity:1;" /><path d="M 405 146.0025 L 338.96576 158.54251" style="stroke:rgb(50,125,209);stroke-width:1" /><circle cx="338.96576" cy="158.54251" r="2" style="fill:rgb(50,125,209);stroke:none;fill-opacity:1;stroke-opacity:1;" /><path d="M 338.96576 158.54251 L 292.11377 167.0475" style="stroke:rgb(50,125,209);stroke-width:1" /><circle cx="292.11377" cy="167.0475" r="2" style="fill:rgb(50,125,209);stroke:none;fill-opacity:1;stroke-opacity:1;" /><path d="M 292.11377 167.0475 L 255.7725 173.20999" style="stroke:rgb(50,125,209);stroke-width:1" /><circle cx="255.7725" cy="173.20999" r="2" style="fill:rgb(50,125,209);stroke:none;fill-opacity:1;stroke-opacity:1;" /><path d="M 255.7725 173.20999 L 142.88626 189.055" style="stroke:rgb(50,125,209);stroke-width:1" /><circle cx="142.88626" cy="189.055" r="2" style="fill:rgb(50,125,209);stroke:none;fill-opacity:1;stroke-opacity:1;" /><path d="M 142.88626 189.055 L 30 201.84" style="stroke:rgb(50,125,209);stroke-width:1" /><circle cx="30" cy="201.84" r="2" style="fill:rgb(50,125,209);stroke:none;fill-opacity:1;stroke-opacity:1;" /><circle cx="780" cy="239.35" r="2" style="fill:rgb(200,113,55);stroke:none;fill-opacity:1;stroke-opacity:1;" /><path d="M 780 239.35 L 630.77246 240.435" style="stroke:rgb(200,113,55);stroke-width:1" /><circle cx="630.77246" cy="240.435" r="2" style="fill:rgb(200,113,55);stroke:none;fill-opacity:1;stroke-opacity:1;" /><path d="M 630.77246 240.435 L 517.8862 241.0975" style="stroke:rgb(200,113,55);stroke-width:1" /><circle cx="517.8862" cy="241.0975" r="2" style="fill:rgb(200,113,55);stroke:none;fill-opacity:1;stroke-opacity:1;" /><path d="M 517.8862 241.0975 L 451.85202 241.9025" style="stroke:rgb(200,113,55);stroke-width:1" /><circle cx="451.85202" cy="241.9025" r="2" style="fill:rgb(200,113,55);stroke:none;fill-opacity:1;stroke-opacity:1;" /><path d="M 451.85202 241.9025 L 405 242.195" style="stroke:rgb(200,113,55);stroke-width:1" /><circle cx="405" cy="242.195" r="2" style="fill:rgb(200,113,55);stroke:none;fill-opacity:1;stroke-opacity:1;" /><path d="M 405 242.195 L 338.96576 243.16" style="stroke:rgb(200,113,55);stroke-width:1" /><circle cx="338.96576" cy="243.16" r="2" style="fill:rgb(200,113,55);stroke:none;fill-opacity:1;stroke-opacity:1;" /><path d="M 338.96576 243.16 L 292.11377 243.45999" style="stroke:rgb(200,113,55);stroke-width:1" /><circle cx="292.11377" cy="243.45999" r="2" style="fill:rgb(200,113,55);stroke:none;fill-opacity:1;stroke-opacity:1;" /><path d="M 292.11377 243.45999 L 255.7725 243.39749" style="stroke:rgb(200,113,55);stroke-width:1" /><circle cx="255.7725" cy="243.39749" r="2" style="fill:rgb(200,113,55);stroke:none;fill-opacity:1;stroke-opacity:1;" /><path d="M 255.7725 243.39749 L 142.88626 242.7075" style="stroke:rgb(200,113,55);stroke-width:1" /><circle cx="142.88626" cy="242.7075" r="2" style="fill:rgb(200,113,55);stroke:none;fill-opacity:1;stroke-opacity:1;" /><path d="M 142.88626 242.7075 L 30 241.935" style="stroke:rgb(200,113,55);stroke-width:1" /><circle cx="30" cy="241.935" r="2" style="fill:rgb(200,113,55);stroke:none;fill-opacity:1;stroke-opacity:1;" /><circle cx="780" cy="139.825" r="2" style="fill:rgb(255,181,90);stroke:none;fill-opacity:1;stroke-opacity:1;" /><path d="M 780 139.825 L 630.77246 181.11499" style="stroke:rgb(255,181,90);stroke-width:1" /><circle cx="630.77246" cy="181.11499" r="2" style="fill:rgb(255,181,90);stroke:none;fill-opacity:1;stroke-opacity:1;" /><path d="M 630.77246 181.11499 L 517.8862 200.7775" style="stroke:rgb(255,181,90);stroke-width:1" /><circle cx="517.8862" cy="200.7775" r="2" style="fill:rgb(255,181,90);stroke:none;fill-opacity:1;stroke-opacity:1;" /><path d="M 517.8862 200.7775 L 451.85202 209.5275" style="stroke:rgb(255,181,90);stroke-width:1" /><circle cx="451.85202" cy="209.5275" r="2" style="fill:rgb(255,181,90);stroke:none;fill-opacity:1;stroke-opacity:1;" /><path d="M 451.85202 209.5275 L 405 214.055" style="stroke:rgb(255,181,90);stroke-width:1" /><circle cx="405" cy="214.055" r="2" style="fill:rgb(255,181,90);stroke:none;fill-opacity:1;stroke-opacity:1;" /><path d="M 405 214.055 L 338.96576 217.865" style="stroke:rgb(255,181,90);stroke-width:1" /><circle cx="338.96576" cy="217.865" r="2" style="fill:rgb(255,181,90);stroke:none;fill-opacity:1;stroke-opacity:1;" /><path d="M 338.96576 217.865 L 292.11377 218.4675" style="stroke:rgb(255,181,90);stroke-width:1" /><circle cx="292.11377" cy="218.4675" r="2" style="fill:rgb(255,181,90);stroke:none;fill-opacity:1;stroke-opacity:1;" /><path d="M 292.11377 218.4675 L 255.7725 215.845" style="stroke:rgb(255,181,90);stroke-width:1" /><circle cx="255.7725" cy="215.845" r="2" style="fill:rgb(255,181,90);stroke:none;fill-opacity:1;stroke-opacity:1;" /><path d="M 255.7725 215.845 L 142.88626 229.87" style="stroke:rgb(255,181,90);stroke-width:1" /><circle cx="142.88626" cy="229.87" r="2" style="fill:rgb(255,181,90);stroke:none;fill-opacity:1;stroke-opacity:1;" /><path d="M 142.88626 229.87 L 30 240.0075" style="stroke:rgb(255,181,90);stroke-width:1" /><circle cx="30" cy="240.0075" r="2" style="fill:rgb(255,181,90);stroke:none;fill-opacity:1;stroke-opacity:1;" /><circle cx="780" cy="159.41501" r="2" style="fill:rgb(119,211,179);stroke:none;fill-opacity:1;stroke-opacity:1;" /><path d="M 780 159.41501 L 630.77246 184.7875" style="stroke:rgb(119,211,179);stroke-width:1" /><circle cx="630.77246" cy="184.7875" r="2" style="fill:rgb(119,211,179);stroke:none;fill-opacity:1;stroke-opacity:1;" /><path d="M 630.77246 184.7875 L 517.8862 199.8275" style="stroke:rgb(119,211,179);stroke-width:1" /><circle cx="517.8862" cy="199.8275" r="2" style="fill:rgb(119,211,179);stroke:none;fill-opacity:1;stroke-opacity:1;" /><path d="M 517.8862 199.8275 L 451.85202 208.20999" style="stroke:rgb(119,211,179);stroke-width:1" /><circle cx="451.85202" cy="208.20999" r="2" style="fill:rgb(119,211,179);stroke:none;fill-opacity:1;stroke-opacity:1;" /><path d="M 451.85202 208.20999 L 405 214.855" style="stroke:rgb(119,211,179);stroke-width:1" /><circle cx="405" cy="214.855" r="2" style="fill:rgb(119,211,179);stroke:none;fill-opacity:1;stroke-opacity:1;" /><path d="M 405 214.855 L 338.96576 223.375" style="stroke:rgb(119,211,179);stroke-width:1" /><circle cx="338.96576" cy="223.375" r="2" style="fill:rgb(119,211,179);stroke:none;fill-opacity:1;stroke-opacity:1;" /><path d="M 338.96576 223.375 L 292.11377 230.0175" style="stroke:rgb(119,211,179);stroke-width:1" /><circle cx="292.11377" cy="230.0175" r="2" style="fill:rgb(119,211,179);stroke:none;fill-opacity:1;stroke-opacity:1;" /><path d="M 292.11377 230.0175 L 255.7725 234.86" style="stroke:rgb(119,211,179);stroke-width:1" /><circle cx="255.7725" cy="234.86" r="2" style="fill:rgb(119,211,179);stroke:none;fill-opacity:1;stroke-opacity:1;" /><path d="M 255.7725 234.86 L 142.88626 249.7" style="stroke:rgb(119,211,179);stroke-width:1" /><circle cx="142.88626" cy="249.7" r="2" style="fill:rgb(119,211,179);stroke:none;fill-opacity:1;stroke-opacity:1;" /><path d="M 142.88626 249.7 L 30 257.79" style="stroke:rgb(119,211,179);stroke-width:1" /><circle cx="30" cy="257.79" r="2" style="fill:rgb(119,211,179);stroke:none;fill-opacity:1;stroke-opacity:1;" /><circle cx="780" cy="247.025" r="2" style="fill:rgb(253,204,229);stroke:none;fill-opacity:1;stroke-opacity:1;" /><path d="M 780 247.025 L 630.77246 253.1975" style="stroke:rgb(253,204,229);stroke-width:1" /><circle cx="630.77246" cy="253.1975" r="2" style="fill:rgb(253,204,229);stroke:none;fill-opacity:1;stroke-opacity:1;" /><path d="M 630.77246 253.1975 L 517.8862 256.285" style="stroke:rgb(253,204,229);stroke-width:1" /><circle cx="517.8862" cy="256.285" r="2" style="fill:rgb(253,204,229);stroke:none;fill-opacity:1;stroke-opacity:1;" /><path d="M 517.8862 256.285 L 451.85202 257.72" style="stroke:rgb(253,204,229);stroke-width:1" /><circle cx="451.85202" cy="257.72" r="2" style="fill:rgb(253,204,229);stroke:none;fill-opacity:1;stroke-opacity:1;" /><path d="M 451.85202 257.72 L 405 258.615" style="stroke:rgb(253,204,229);stroke-width:1" /><circle cx="405" cy="258.615" r="2" style="fill:rgb(253,204,229);stroke:none;fill-opacity:1;stroke-opacity:1;" /><path d="M 405 258.615 L 338.96576 259.655" style="stroke:rgb(253,204,229);stroke-width:1" /><circle cx="338.96576" cy="259.655" r="2" style="fill:rgb(253,204,229);stroke:none;fill-opacity:1;stroke-opacity:1;" /><path d="M 338.96576 259.655 L 292.11377 260.2175" style="stroke:rgb(253,204,229);stroke-width:1" /><circle cx="292.11377" cy="260.2175" r="2" style="fill:rgb(253,204,229);stroke:none;fill-opacity:1;stroke-opacity:1;" /><path d="M 292.11377 260.2175 L 255.7725 260.6225" style="stroke:rgb(253,204,229);stroke-width:1" /><circle cx="255.7725" cy="260.6225" r="2" style="fill:rgb(253,204,229);stroke:none;fill-opacity:1;stroke-opacity:1;" /><path d="M 255.7725 260.6225 L 142.88626 262.025" style="stroke:rgb(253,204,229);stroke-width:1" /><circle cx="142.88626" cy="262.025" r="2" style="fill:rgb(253,204,229);stroke:none;fill-opacity:1;stroke-opacity:1;" /><path d="M 142.88626 262.025 L 30 263.1775" style="stroke:rgb(253,204,229);stroke-width:1" /><circle cx="30" cy="263.1775" r="2" style="fill:rgb(253,204,229);stroke:none;fill-opacity:1;stroke-opacity:1;" /><rect x="676" y="16" width="80" height="238" ry="4" style="fill:rgb(30,30,30);stroke:none;fill-opacity:0.8;stroke-opacity:1;" /><rect x="680" y="20" width="20" height="20" ry="2" style="fill:rgb(253,127,111);stroke:none;fill-opacity:1;stroke-opacity:1;" /><text x="705" y="33" style="font-size:10px;fill:rgb(255,255,255);text-anchor:start;text-align:left;"> fwd-diff </text><rect x="680" y="41" width="20" height="20" ry="2" style="fill:rgb(255,181,90);stroke:none;fill-opacity:1;stroke-opacity:1;" /><text x="705" y="54" style="font-size:10px;fill:rgb(255,255,255);text-anchor:start;text-align:left;"> hain </text><rect x="680" y="62" width="20" height="20" ry="2" style="fill:rgb(50,125,209);stroke:none;fill-opacity:1;stroke-opacity:1;" /><text x="705" y="75" style="font-size:10px;fill:rgb(255,255,255);text-anchor:start;text-align:left;"> levien </text><rect x="680" y="83" width="20" height="20" ry="2" style="fill:rgb(119,211,179);stroke:none;fill-opacity:1;stroke-opacity:1;" /><text x="705" y="96" style="font-size:10px;fill:rgb(255,255,255);text-anchor:start;text-align:left;"> levien-linear </text><rect x="680" y="104" width="20" height="20" ry="2" style="fill:rgb(126,176,213);stroke:none;fill-opacity:1;stroke-opacity:1;" /><text x="705" y="117" style="font-size:10px;fill:rgb(255,255,255);text-anchor:start;text-align:left;"> levien-simd </text><rect x="680" y="125" width="20" height="20" ry="2" style="fill:rgb(128,214,87);stroke:none;fill-opacity:1;stroke-opacity:1;" /><text x="705" y="138" style="font-size:10px;fill:rgb(255,255,255);text-anchor:start;text-align:left;"> linear </text><rect x="680" y="146" width="20" height="20" ry="2" style="fill:rgb(255,238,101);stroke:none;fill-opacity:1;stroke-opacity:1;" /><text x="705" y="159" style="font-size:10px;fill:rgb(255,255,255);text-anchor:start;text-align:left;"> recursive </text><rect x="680" y="167" width="20" height="20" ry="2" style="fill:rgb(253,204,229);stroke:none;fill-opacity:1;stroke-opacity:1;" /><text x="705" y="180" style="font-size:10px;fill:rgb(255,255,255);text-anchor:start;text-align:left;"> wang </text><rect x="680" y="188" width="20" height="20" ry="2" style="fill:rgb(199,126,190);stroke:none;fill-opacity:1;stroke-opacity:1;" /><text x="705" y="201" style="font-size:10px;fill:rgb(255,255,255);text-anchor:start;text-align:left;"> wang-simd </text><rect x="680" y="209" width="20" height="20" ry="2" style="fill:rgb(120,68,33);stroke:none;fill-opacity:1;stroke-opacity:1;" /><text x="705" y="222" style="font-size:10px;fill:rgb(255,255,255);text-anchor:start;text-align:left;"> yzerman </text><rect x="680" y="230" width="20" height="20" ry="2" style="fill:rgb(200,113,55);stroke:none;fill-opacity:1;stroke-opacity:1;" /><text x="705" y="243" style="font-size:10px;fill:rgb(255,255,255);text-anchor:start;text-align:left;"> yzerman-simd </text><text x="400" y="30" style="font-size:20px;fill:rgb(255,255,255);text-anchor:middle;text-align:center;"> tiger dataset: cubic </text><text x="400" y="42" style="font-size:8px;fill:rgb(200,200,200);text-anchor:middle;text-align:center;"> Normalized performance score (lower is better) </text></svg>