<svg xmlns="http://www.w3.org/2000/svg" viewBox="0 0 800 300"><rect x="0" y="0" width="800" height="300" ry="6" style="fill:rgb(30,30,30);stroke:none;fill-opacity:1;stroke-opacity:1;" /><path d="M 30 20 L 30 270" style="stroke:rgb(200,200,200);stroke-width:1" /><path d="M 30 270 L 780 270" style="stroke:rgb(200,200,200);stroke-width:1" /><path d="M 780 270 L 780 272" style="stroke:rgb(200,200,200);stroke-width:1" /><text x="780" y="282" style="font-size:10px;fill:rgb(200,200,200);text-anchor:middle;text-align:center;"> 0.01 </text><path d="M 630.77246 270 L 630.77246 272" style="stroke:rgb(200,200,200);stroke-width:1" /><text x="630.77246" y="282" style="font-size:10px;fill:rgb(200,200,200);text-anchor:middle;text-align:center;"> 0.025 </text><path d="M 517.8862 270 L 517.8862 272" style="stroke:rgb(200,200,200);stroke-width:1" /><text x="517.8862" y="282" style="font-size:10px;fill:rgb(200,200,200);text-anchor:middle;text-align:center;"> 0.05 </text><path d="M 451.85202 270 L 451.85202 272" style="stroke:rgb(200,200,200);stroke-width:1" /><text x="451.85202" y="282" style="font-size:10px;fill:rgb(200,200,200);text-anchor:middle;text-align:center;"> 0.075 </text><path d="M 405 270 L 405 272" style="stroke:rgb(200,200,200);stroke-width:1" /><text x="405" y="282" style="font-size:10px;fill:rgb(200,200,200);text-anchor:middle;text-align:center;"> 0.1 </text><path d="M 338.96576 270 L 338.96576 272" style="stroke:rgb(200,200,200);stroke-width:1" /><text x="338.96576" y="282" style="font-size:10px;fill:rgb(200,200,200);text-anchor:middle;text-align:center;"> 0.15 </text><path d="M 292.11377 270 L 292.11377 272" style="stroke:rgb(200,200,200);stroke-width:1" /><text x="292.11377" y="282" style="font-size:10px;fill:rgb(200,200,200);text-anchor:middle;text-align:center;"> 0.2 </text><path d="M 255.7725 270 L 255.7725 272" style="stroke:rgb(200,200,200);stroke-width:1" /><text x="255.7725" y="282" style="font-size:10px;fill:rgb(200,200,200);text-anchor:middle;text-align:center;"> 0.25 </text><path d="M 142.88626 270 L 142.88626 272" style="stroke:rgb(200,200,200);stroke-width:1" /><text x="142.88626" y="282" style="font-size:10px;fill:rgb(200,200,200);text-anchor:middle;text-align:center;"> 0.5 </text><path d="M 30 270 L 30 272" style="stroke:rgb(200,200,200);stroke-width:1" /><text x="30" y="282" style="font-size:10px;fill:rgb(200,200,200);text-anchor:middle;text-align:center;"> 1 </text><path d="M 28 270 L 30 270" style="stroke:rgb(200,200,200);stroke-width:1" /><text x="26" y="274" style="font-size:10px;fill:rgb(200,200,200);text-anchor:end;text-align:right;"> 0 </text><path d="M 28 207.5 L 30 207.5" style="stroke:rgb(200,200,200);stroke-width:1" /><text x="26" y="211.5" style="font-size:10px;fill:rgb(200,200,200);text-anchor:end;text-align:right;"> 0.25 </text><path d="M 28 145 L 30 145" style="stroke:rgb(200,200,200);stroke-width:1" /><text x="26" y="149" style="font-size:10px;fill:rgb(200,200,200);text-anchor:end;text-align:right;"> 0.5 </text><path d="M 28 82.5 L 30 82.5" style="stroke:rgb(200,200,200);stroke-width:1" /><text x="26" y="86.5" style="font-size:10px;fill:rgb(200,200,200);text-anchor:end;text-align:right;"> 0.75 </text><path d="M 28 20 L 30 20" style="stroke:rgb(200,200,200);stroke-width:1" /><text x="26" y="24" style="font-size:10px;fill:rgb(200,200,200);text-anchor:end;text-align:right;"> 1 </text><text x="400" y="294" style="font-size:10px;fill:rgb(200,200,200);text-anchor:middle;text-align:center;"> Tolerance </text><circle cx="780" cy="216.95" r="2" style="fill:rgb(128,214,87);stroke:none;fill-opacity:1;stroke-opacity:1;" /><path d="M 780 216.95 L 630.77246 239.055" style="stroke:rgb(128,214,87);stroke-width:1" /><circle cx="630.77246" cy="239.055" r="2" style="fill:rgb(128,214,87);stroke:none;fill-opacity:1;stroke-opacity:1;" /><path d="M 630.77246 239.055 L 517.8862 246.9825" style="stroke:rgb(128,214,87);stroke-width:1" /><circle cx="517.8862" cy="246.9825" r="2" style="fill:rgb(128,214,87);stroke:none;fill-opacity:1;stroke-opacity:1;" /><path d="M 517.8862 246.9825 L 451.85202 250.4225" style="stroke:rgb(128,214,87);stroke-width:1" /><circle cx="451.85202" cy="250.4225" r="2" style="fill:rgb(128,214,87);stroke:none;fill-opacity:1;stroke-opacity:1;" /><path d="M 451.85202 250.4225 L 405 252.02249" style="stroke:rgb(128,214,87);stroke-width:1" /><circle cx="405" cy="252.02249" r="2" style="fill:rgb(128,214,87);stroke:none;fill-opacity:1;stroke-opacity:1;" /><path d="M 405 252.02249 L 338.96576 253.075" style="stroke:rgb(128,214,87);stroke-width:1" /><circle cx="338.96576" cy="253.075" r="2" style="fill:rgb(128,214,87);stroke:none;fill-opacity:1;stroke-opacity:1;" /><path d="M 338.96576 253.075 L 292.11377 253.88" style="stroke:rgb(128,214,87);stroke-width:1" /><circle cx="292.11377" cy="253.88" r="2" style="fill:rgb(128,214,87);stroke:none;fill-opacity:1;stroke-opacity:1;" /><path d="M 292.11377 253.88 L 255.7725 254.735" style="stroke:rgb(128,214,87);stroke-width:1" /><circle cx="255.7725" cy="254.735" r="2" style="fill:rgb(128,214,87);stroke:none;fill-opacity:1;stroke-opacity:1;" /><path d="M 255.7725 254.735 L 142.88626 258.4675" style="stroke:rgb(128,214,87);stroke-width:1" /><circle cx="142.88626" cy="258.4675" r="2" style="fill:rgb(128,214,87);stroke:none;fill-opacity:1;stroke-opacity:1;" /><path d="M 142.88626 258.4675 L 30 261.7575" style="stroke:rgb(128,214,87);stroke-width:1" /><circle cx="30" cy="261.7575" r="2" style="fill:rgb(128,214,87);stroke:none;fill-opacity:1;stroke-opacity:1;" /><circle cx="780" cy="227.145" r="2" style="fill:rgb(199,126,190);stroke:none;fill-opacity:1;stroke-opacity:1;" /><path d="M 780 227.145 L 630.77246 230.9975" style="stroke:rgb(199,126,190);stroke-width:1" /><circle cx="630.77246" cy="230.9975" r="2" style="fill:rgb(199,126,190);stroke:none;fill-opacity:1;stroke-opacity:1;" /><path d="M 630.77246 230.9975 L 517.8862 233.23" style="stroke:rgb(199,126,190);stroke-width:1" /><circle cx="517.8862" cy="233.23" r="2" style="fill:rgb(199,126,190);stroke:none;fill-opacity:1;stroke-opacity:1;" /><path d="M 517.8862 233.23 L 451.85202 236.035" style="stroke:rgb(199,126,190);stroke-width:1" /><circle cx="451.85202" cy="236.035" r="2" style="fill:rgb(199,126,190);stroke:none;fill-opacity:1;stroke-opacity:1;" /><path d="M 451.85202 236.035 L 405 237.8825" style="stroke:rgb(199,126,190);stroke-width:1" /><circle cx="405" cy="237.8825" r="2" style="fill:rgb(199,126,190);stroke:none;fill-opacity:1;stroke-opacity:1;" /><path d="M 405 237.8825 L 338.96576 241.7175" style="stroke:rgb(199,126,190);stroke-width:1" /><circle cx="338.96576" cy="241.7175" r="2" style="fill:rgb(199,126,190);stroke:none;fill-opacity:1;stroke-opacity:1;" /><path d="M 338.96576 241.7175 L 292.11377 244.51" style="stroke:rgb(199,126,190);stroke-width:1" /><circle cx="292.11377" cy="244.51" r="2" style="fill:rgb(199,126,190);stroke:none;fill-opacity:1;stroke-opacity:1;" /><path d="M 292.11377 244.51 L 255.7725 246.045" style="stroke:rgb(199,126,190);stroke-width:1" /><circle cx="255.7725" cy="246.045" r="2" style="fill:rgb(199,126,190);stroke:none;fill-opacity:1;stroke-opacity:1;" /><path d="M 255.7725 246.045 L 142.88626 248.555" style="stroke:rgb(199,126,190);stroke-width:1" /><circle cx="142.88626" cy="248.555" r="2" style="fill:rgb(199,126,190);stroke:none;fill-opacity:1;stroke-opacity:1;" /><path d="M 142.88626 248.555 L 30 249.5975" style="stroke:rgb(199,126,190);stroke-width:1" /><circle cx="30" cy="249.5975" r="2" style="fill:rgb(199,126,190);stroke:none;fill-opacity:1;stroke-opacity:1;" /><circle cx="780" cy="221.10251" r="2" style="fill:rgb(253,127,111);stroke:none;fill-opacity:1;stroke-opacity:1;" /><path d="M 780 221.10251 L 630.77246 230.4225" style="stroke:rgb(253,127,111);stroke-width:1" /><circle cx="630.77246" cy="230.4225" r="2" style="fill:rgb(253,127,111);stroke:none;fill-opacity:1;stroke-opacity:1;" /><path d="M 630.77246 230.4225 L 517.8862 235.31" style="stroke:rgb(253,127,111);stroke-width:1" /><circle cx="517.8862" cy="235.31" r="2" style="fill:rgb(253,127,111);stroke:none;fill-opacity:1;stroke-opacity:1;" /><path d="M 517.8862 235.31 L 451.85202 238.7425" style="stroke:rgb(253,127,111);stroke-width:1" /><circle cx="451.85202" cy="238.7425" r="2" style="fill:rgb(253,127,111);stroke:none;fill-opacity:1;stroke-opacity:1;" /><path d="M 451.85202 238.7425 L 405 241.03" style="stroke:rgb(253,127,111);stroke-width:1" /><circle cx="405" cy="241.03" r="2" style="fill:rgb(253,127,111);stroke:none;fill-opacity:1;stroke-opacity:1;" /><path d="M 405 241.03 L 338.96576 244.8825" style="stroke:rgb(253,127,111);stroke-width:1" /><circle cx="338.96576" cy="244.8825" r="2" style="fill:rgb(253,127,111);stroke:none;fill-opacity:1;stroke-opacity:1;" /><path d="M 338.96576 244.8825 L 292.11377 247.755" style="stroke:rgb(253,127,111);stroke-width:1" /><circle cx="292.11377" cy="247.755" r="2" style="fill:rgb(253,127,111);stroke:none;fill-opacity:1;stroke-opacity:1;" /><path d="M 292.11377 247.755 L 255.7725 249.2025" style="stroke:rgb(253,127,111);stroke-width:1" /><circle cx="255.7725" cy="249.2025" r="2" style="fill:rgb(253,127,111);stroke:none;fill-opacity:1;stroke-opacity:1;" /><path d="M 255.7725 249.2025 L 142.88626 251.73" style="stroke:rgb(253,127,111);stroke-width:1" /><circle cx="142.88626" cy="251.73" r="2" style="fill:rgb(253,127,111);stroke:none;fill-opacity:1;stroke-opacity:1;" /><path d="M 142.88626 251.73 L 30 252.645" style="stroke:rgb(253,127,111);stroke-width:1" /><circle cx="30" cy="252.645" r="2" style="fill:rgb(253,127,111);stroke:none;fill-opacity:1;stroke-opacity:1;" /><circle cx="780" cy="20" r="2" style="fill:rgb(50,125,209);stroke:none;fill-opacity:1;stroke-opacity:1;" /><path d="M 780 20 L 630.77246 45.247498" style="stroke:rgb(50,125,209);stroke-width:1" /><circle cx="630.77246" cy="45.247498" r="2" style="fill:rgb(50,125,209);stroke:none;fill-opacity:1;stroke-opacity:1;" /><path d="M 630.77246 45.247498 L 517.8862 59.902496" style="stroke:rgb(50,125,209);stroke-width:1" /><circle cx="517.8862" cy="59.902496" r="2" style="fill:rgb(50,125,209);stroke:none;fill-opacity:1;stroke-opacity:1;" /><path d="M 517.8862 59.902496 L 451.85202 67.384995" style="stroke:rgb(50,125,209);stroke-width:1" /><circle cx="451.85202" cy="67.384995" r="2" style="fill:rgb(50,125,209);stroke:none;fill-opacity:1;stroke-opacity:1;" /><path d="M 451.85202 67.384995 L 405 69.67999" style="stroke:rgb(50,125,209);stroke-width:1" /><circle cx="405" cy="69.67999" r="2" style="fill:rgb(50,125,209);stroke:none;fill-opacity:1;stroke-opacity:1;" /><path d="M 405 69.67999 L 338.96576 74.9525" style="stroke:rgb(50,125,209);stroke-width:1" /><circle cx="338.96576" cy="74.9525" r="2" style="fill:rgb(50,125,209);stroke:none;fill-opacity:1;stroke-opacity:1;" /><path d="M 338.96576 74.9525 L 292.11377 76.465" style="stroke:rgb(50,125,209);stroke-width:1" /><circle cx="292.11377" cy="76.465" r="2" style="fill:rgb(50,125,209);stroke:none;fill-opacity:1;stroke-opacity:1;" /><path d="M 292.11377 76.465 L 255.7725 78.1075" style="stroke:rgb(50,125,209);stroke-width:1" /><circle cx="255.7725" cy="78.1075" r="2" style="fill:rgb(50,125,209);stroke:none;fill-opacity:1;stroke-opacity:1;" /><path d="M 255.7725 78.1075 L 142.88626 79.0175" style="stroke:rgb(50,125,209);stroke-width:1" /><circle cx="142.88626" cy="79.0175" r="2" style="fill:rgb(50,125,209);stroke:none;fill-opacity:1;stroke-opacity:1;" /><path d="M 142.88626 79.0175 L 30 81.3725" style="stroke:rgb(50,125,209);stroke-width:1" /><circle cx="30" cy="81.3725" r="2" style="fill:rgb(50,125,209);stroke:none;fill-opacity:1;stroke-opacity:1;" /><circle cx="780" cy="212.3125" r="2" style="fill:rgb(255,238,101);stroke:none;fill-opacity:1;stroke-opacity:1;" /><path d="M 780 212.3125 L 630.77246 237.36" style="stroke:rgb(255,238,101);stroke-width:1" /><circle cx="630.77246" cy="237.36" r="2" style="fill:rgb(255,238,101);stroke:none;fill-opacity:1;stroke-opacity:1;" /><path d="M 630.77246 237.36 L 517.8862 246.22751" style="stroke:rgb(255,238,101);stroke-width:1" /><circle cx="517.8862" cy="246.22751" r="2" style="fill:rgb(255,238,101);stroke:none;fill-opacity:1;stroke-opacity:1;" /><path d="M 517.8862 246.22751 L 451.85202 250.3125" style="stroke:rgb(255,238,101);stroke-width:1" /><circle cx="451.85202" cy="250.3125" r="2" style="fill:rgb(255,238,101);stroke:none;fill-opacity:1;stroke-opacity:1;" /><path d="M 451.85202 250.3125 L 405 252.5325" style="stroke:rgb(255,238,101);stroke-width:1" /><circle cx="405" cy="252.5325" r="2" style="fill:rgb(255,238,101);stroke:none;fill-opacity:1;stroke-opacity:1;" /><path d="M 405 252.5325 L 338.96576 254.0475" style="stroke:rgb(255,238,101);stroke-width:1" /><circle cx="338.96576" cy="254.0475" r="2" style="fill:rgb(255,238,101);stroke:none;fill-opacity:1;stroke-opacity:1;" /><path d="M 338.96576 254.0475 L 292.11377 255.415" style="stroke:rgb(255,238,101);stroke-width:1" /><circle cx="292.11377" cy="255.415" r="2" style="fill:rgb(255,238,101);stroke:none;fill-opacity:1;stroke-opacity:1;" /><path d="M 292.11377 255.415 L 255.7725 256.8225" style="stroke:rgb(255,238,101);stroke-width:1" /><circle cx="255.7725" cy="256.8225" r="2" style="fill:rgb(255,238,101);stroke:none;fill-opacity:1;stroke-opacity:1;" /><path d="M 255.7725 256.8225 L 142.88626 261.5475" style="stroke:rgb(255,238,101);stroke-width:1" /><circle cx="142.88626" cy="261.5475" r="2" style="fill:rgb(255,238,101);stroke:none;fill-opacity:1;stroke-opacity:1;" /><path d="M 142.88626 261.5475 L 30 264.2025" style="stroke:rgb(255,238,101);stroke-width:1" /><circle cx="30" cy="264.2025" r="2" style="fill:rgb(255,238,101);stroke:none;fill-opacity:1;stroke-opacity:1;" /><circle cx="780" cy="222.285" r="2" style="fill:rgb(253,204,229);stroke:none;fill-opacity:1;stroke-opacity:1;" /><path d="M 780 222.285 L 630.77246 231.7675" style="stroke:rgb(253,204,229);stroke-width:1" /><circle cx="630.77246" cy="231.7675" r="2" style="fill:rgb(253,204,229);stroke:none;fill-opacity:1;stroke-opacity:1;" /><path d="M 630.77246 231.7675 L 517.8862 236.995" style="stroke:rgb(253,204,229);stroke-width:1" /><circle cx="517.8862" cy="236.995" r="2" style="fill:rgb(253,204,229);stroke:none;fill-opacity:1;stroke-opacity:1;" /><path d="M 517.8862 236.995 L 451.85202 239.47" style="stroke:rgb(253,204,229);stroke-width:1" /><circle cx="451.85202" cy="239.47" r="2" style="fill:rgb(253,204,229);stroke:none;fill-opacity:1;stroke-opacity:1;" /><path d="M 451.85202 239.47 L 405 241.905" style="stroke:rgb(253,204,229);stroke-width:1" /><circle cx="405" cy="241.905" r="2" style="fill:rgb(253,204,229);stroke:none;fill-opacity:1;stroke-opacity:1;" /><path d="M 405 241.905 L 338.96576 245.2525" style="stroke:rgb(253,204,229);stroke-width:1" /><circle cx="338.96576" cy="245.2525" r="2" style="fill:rgb(253,204,229);stroke:none;fill-opacity:1;stroke-opacity:1;" /><path d="M 338.96576 245.2525 L 292.11377 247.9325" style="stroke:rgb(253,204,229);stroke-width:1" /><circle cx="292.11377" cy="247.9325" r="2" style="fill:rgb(253,204,229);stroke:none;fill-opacity:1;stroke-opacity:1;" /><path d="M 292.11377 247.9325 L 255.7725 249.295" style="stroke:rgb(253,204,229);stroke-width:1" /><circle cx="255.7725" cy="249.295" r="2" style="fill:rgb(253,204,229);stroke:none;fill-opacity:1;stroke-opacity:1;" /><path d="M 255.7725 249.295 L 142.88626 251.69" style="stroke:rgb(253,204,229);stroke-width:1" /><circle cx="142.88626" cy="251.69" r="2" style="fill:rgb(253,204,229);stroke:none;fill-opacity:1;stroke-opacity:1;" /><path d="M 142.88626 251.69 L 30 252.565" style="stroke:rgb(253,204,229);stroke-width:1" /><circle cx="30" cy="252.565" r="2" style="fill:rgb(253,204,229);stroke:none;fill-opacity:1;stroke-opacity:1;" /><circle cx="780" cy="54.012497" r="2" style="fill:rgb(126,176,213);stroke:none;fill-opacity:1;stroke-opacity:1;" /><path d="M 780 54.012497 L 630.77246 66.89" style="stroke:rgb(126,176,213);stroke-width:1" /><circle cx="630.77246" cy="66.89" r="2" style="fill:rgb(126,176,213);stroke:none;fill-opacity:1;stroke-opacity:1;" /><path d="M 630.77246 66.89 L 517.8862 76.770004" style="stroke:rgb(126,176,213);stroke-width:1" /><circle cx="517.8862" cy="76.770004" r="2" style="fill:rgb(126,176,213);stroke:none;fill-opacity:1;stroke-opacity:1;" /><path d="M 517.8862 76.770004 L 451.85202 81.42999" style="stroke:rgb(126,176,213);stroke-width:1" /><circle cx="451.85202" cy="81.42999" r="2" style="fill:rgb(126,176,213);stroke:none;fill-opacity:1;stroke-opacity:1;" /><path d="M 451.85202 81.42999 L 405 83.149994" style="stroke:rgb(126,176,213);stroke-width:1" /><circle cx="405" cy="83.149994" r="2" style="fill:rgb(126,176,213);stroke:none;fill-opacity:1;stroke-opacity:1;" /><path d="M 405 83.149994 L 338.96576 85.325" style="stroke:rgb(126,176,213);stroke-width:1" /><circle cx="338.96576" cy="85.325" r="2" style="fill:rgb(126,176,213);stroke:none;fill-opacity:1;stroke-opacity:1;" /><path d="M 338.96576 85.325 L 292.11377 85.735" style="stroke:rgb(126,176,213);stroke-width:1" /><circle cx="292.11377" cy="85.735" r="2" style="fill:rgb(126,176,213);stroke:none;fill-opacity:1;stroke-opacity:1;" /><path d="M 292.11377 85.735 L 255.7725 85.78" style="stroke:rgb(126,176,213);stroke-width:1" /><circle cx="255.7725" cy="85.78" r="2" style="fill:rgb(126,176,213);stroke:none;fill-opacity:1;stroke-opacity:1;" /><path d="M 255.7725 85.78 L 142.88626 87.325" style="stroke:rgb(126,176,213);stroke-width:1" /><circle cx="142.88626" cy="87.325" r="2" style="fill:rgb(126,176,213);stroke:none;fill-opacity:1;stroke-opacity:1;" /><path d="M 142.88626 87.325 L 30 87.542496" style="stroke:rgb(126,176,213);stroke-width:1" /><circle cx="30" cy="87.542496" r="2" style="fill:rgb(126,176,213);stroke:none;fill-opacity:1;stroke-opacity:1;" /><circle cx="780" cy="179.79251" r="2" style="fill:rgb(255,181,90);stroke:none;fill-opacity:1;stroke-opacity:1;" /><path d="M 780 179.79251 L 630.77246 205.3475" style="stroke:rgb(255,181,90);stroke-width:1" /><circle cx="630.77246" cy="205.3475" r="2" style="fill:rgb(255,181,90);stroke:none;fill-opacity:1;stroke-opacity:1;" /><path d="M 630.77246 205.3475 L 517.8862 216.1375" style="stroke:rgb(255,181,90);stroke-width:1" /><circle cx="517.8862" cy="216.1375" r="2" style="fill:rgb(255,181,90);stroke:none;fill-opacity:1;stroke-opacity:1;" /><path d="M 517.8862 216.1375 L 451.85202 220.0125" style="stroke:rgb(255,181,90);stroke-width:1" /><circle cx="451.85202" cy="220.0125" r="2" style="fill:rgb(255,181,90);stroke:none;fill-opacity:1;stroke-opacity:1;" /><path d="M 451.85202 220.0125 L 405 221.5775" style="stroke:rgb(255,181,90);stroke-width:1" /><circle cx="405" cy="221.5775" r="2" style="fill:rgb(255,181,90);stroke:none;fill-opacity:1;stroke-opacity:1;" /><path d="M 405 221.5775 L 338.96576 222.825" style="stroke:rgb(255,181,90);stroke-width:1" /><circle cx="338.96576" cy="222.825" r="2" style="fill:rgb(255,181,90);stroke:none;fill-opacity:1;stroke-opacity:1;" /><path d="M 338.96576 222.825 L 292.11377 222.2775" style="stroke:rgb(255,181,90);stroke-width:1" /><circle cx="292.11377" cy="222.2775" r="2" style="fill:rgb(255,181,90);stroke:none;fill-opacity:1;stroke-opacity:1;" /><path d="M 292.11377 222.2775 L 255.7725 221.4675" style="stroke:rgb(255,181,90);stroke-width:1" /><circle cx="255.7725" cy="221.4675" r="2" style="fill:rgb(255,181,90);stroke:none;fill-opacity:1;stroke-opacity:1;" /><path d="M 255.7725 221.4675 L 142.88626 226.5325" style="stroke:rgb(255,181,90);stroke-width:1" /><circle cx="142.88626" cy="226.5325" r="2" style="fill:rgb(255,181,90);stroke:none;fill-opacity:1;stroke-opacity:1;" /><path d="M 142.88626 226.5325 L 30 227.9625" style="stroke:rgb(255,181,90);stroke-width:1" /><circle cx="30" cy="227.9625" r="2" style="fill:rgb(255,181,90);stroke:none;fill-opacity:1;stroke-opacity:1;" /><circle cx="780" cy="177.095" r="2" style="fill:rgb(119,211,179);stroke:none;fill-opacity:1;stroke-opacity:1;" /><path d="M 780 177.095 L 630.77246 230.285" style="stroke:rgb(119,211,179);stroke-width:1" /><circle cx="630.77246" cy="230.285" r="2" style="fill:rgb(119,211,179);stroke:none;fill-opacity:1;stroke-opacity:1;" /><path d="M 630.77246 230.285 L 517.8862 245.385" style="stroke:rgb(119,211,179);stroke-width:1" /><circle cx="517.8862" cy="245.385" r="2" style="fill:rgb(119,211,179);stroke:none;fill-opacity:1;stroke-opacity:1;" /><path d="M 517.8862 245.385 L 451.85202 249.2625" style="stroke:rgb(119,211,179);stroke-width:1" /><circle cx="451.85202" cy="249.2625" r="2" style="fill:rgb(119,211,179);stroke:none;fill-opacity:1;stroke-opacity:1;" /><path d="M 451.85202 249.2625 L 405 251.01" style="stroke:rgb(119,211,179);stroke-width:1" /><circle cx="405" cy="251.01" r="2" style="fill:rgb(119,211,179);stroke:none;fill-opacity:1;stroke-opacity:1;" /><path d="M 405 251.01 L 338.96576 252.0125" style="stroke:rgb(119,211,179);stroke-width:1" /><circle cx="338.96576" cy="252.0125" r="2" style="fill:rgb(119,211,179);stroke:none;fill-opacity:1;stroke-opacity:1;" /><path d="M 338.96576 252.0125 L 292.11377 252.8425" style="stroke:rgb(119,211,179);stroke-width:1" /><circle cx="292.11377" cy="252.8425" r="2" style="fill:rgb(119,211,179);stroke:none;fill-opacity:1;stroke-opacity:1;" /><path d="M 292.11377 252.8425 L 255.7725 253.6375" style="stroke:rgb(119,211,179);stroke-width:1" /><circle cx="255.7725" cy="253.6375" r="2" style="fill:rgb(119,211,179);stroke:none;fill-opacity:1;stroke-opacity:1;" /><path d="M 255.7725 253.6375 L 142.88626 257.6025" style="stroke:rgb(119,211,179);stroke-width:1" /><circle cx="142.88626" cy="257.6025" r="2" style="fill:rgb(119,211,179);stroke:none;fill-opacity:1;stroke-opacity:1;" /><path d="M 142.88626 257.6025 L 30 261.07" style="stroke:rgb(119,211,179);stroke-width:1" /><circle cx="30" cy="261.07" r="2" style="fill:rgb(119,211,179);stroke:none;fill-opacity:1;stroke-opacity:1;" /><rect x="676" y="16" width="80" height="196" ry="4" style="fill:rgb(30,30,30);stroke:none;fill-opacity:0.8;stroke-opacity:1;" /><rect x="680" y="20" width="20" height="20" ry="2" style="fill:rgb(253,127,111);stroke:none;fill-opacity:1;stroke-opacity:1;" /><text x="705" y="33" style="font-size:10px;fill:rgb(255,255,255);text-anchor:start;text-align:left;"> fwd-diff </text><rect x="680" y="41" width="20" height="20" ry="2" style="fill:rgb(255,181,90);stroke:none;fill-opacity:1;stroke-opacity:1;" /><text x="705" y="54" style="font-size:10px;fill:rgb(255,255,255);text-anchor:start;text-align:left;"> hain </text><rect x="680" y="62" width="20" height="20" ry="2" style="fill:rgb(50,125,209);stroke:none;fill-opacity:1;stroke-opacity:1;" /><text x="705" y="75" style="font-size:10px;fill:rgb(255,255,255);text-anchor:start;text-align:left;"> levien </text><rect x="680" y="83" width="20" height="20" ry="2" style="fill:rgb(119,211,179);stroke:none;fill-opacity:1;stroke-opacity:1;" /><text x="705" y="96" style="font-size:10px;fill:rgb(255,255,255);text-anchor:start;text-align:left;"> levien-linear </text><rect x="680" y="104" width="20" height="20" ry="2" style="fill:rgb(126,176,213);stroke:none;fill-opacity:1;stroke-opacity:1;" /><text x="705" y="117" style="font-size:10px;fill:rgb(255,255,255);text-anchor:start;text-align:left;"> levien-simd </text><rect x="680" y="125" width="20" height="20" ry="2" style="fill:rgb(128,214,87);stroke:none;fill-opacity:1;stroke-opacity:1;" /><text x="705" y="138" style="font-size:10px;fill:rgb(255,255,255);text-anchor:start;text-align:left;"> linear </text><rect x="680" y="146" width="20" height="20" ry="2" style="fill:rgb(255,238,101);stroke:none;fill-opacity:1;stroke-opacity:1;" /><text x="705" y="159" style="font-size:10px;fill:rgb(255,255,255);text-anchor:start;text-align:left;"> recursive </text><rect x="680" y="167" width="20" height="20" ry="2" style="fill:rgb(253,204,229);stroke:none;fill-opacity:1;stroke-opacity:1;" /><text x="705" y="180" style="font-size:10px;fill:rgb(255,255,255);text-anchor:start;text-align:left;"> wang </text><rect x="680" y="188" width="20" height="20" ry="2" style="fill:rgb(199,126,190);stroke:none;fill-opacity:1;stroke-opacity:1;" /><text x="705" y="201" style="font-size:10px;fill:rgb(255,255,255);text-anchor:start;text-align:left;"> wang-simd </text><text x="400" y="30" style="font-size:20px;fill:rgb(255,255,255);text-anchor:middle;text-align:center;"> font dataset: cubic </text><text x="400" y="42" style="font-size:8px;fill:rgb(200,200,200);text-anchor:middle;text-align:center;"> Normalized performance score (lower is better) </text></svg>