<svg xmlns="http://www.w3.org/2000/svg" viewBox="0 0 800 300"><rect x="0" y="0" width="800" height="300" ry="6" style="fill:rgb(30,30,30);stroke:none;fill-opacity:1;stroke-opacity:1;" /><path d="M 30 20 L 30 270" style="stroke:rgb(200,200,200);stroke-width:1" /><path d="M 30 270 L 780 270" style="stroke:rgb(200,200,200);stroke-width:1" /><path d="M 780 270 L 780 272" style="stroke:rgb(200,200,200);stroke-width:1" /><text x="780" y="282" style="font-size:10px;fill:rgb(200,200,200);text-anchor:middle;text-align:center;"> 0.01 </text><path d="M 630.77246 270 L 630.77246 272" style="stroke:rgb(200,200,200);stroke-width:1" /><text x="630.77246" y="282" style="font-size:10px;fill:rgb(200,200,200);text-anchor:middle;text-align:center;"> 0.025 </text><path d="M 517.8862 270 L 517.8862 272" style="stroke:rgb(200,200,200);stroke-width:1" /><text x="517.8862" y="282" style="font-size:10px;fill:rgb(200,200,200);text-anchor:middle;text-align:center;"> 0.05 </text><path d="M 451.85202 270 L 451.85202 272" style="stroke:rgb(200,200,200);stroke-width:1" /><text x="451.85202" y="282" style="font-size:10px;fill:rgb(200,200,200);text-anchor:middle;text-align:center;"> 0.075 </text><path d="M 405 270 L 405 272" style="stroke:rgb(200,200,200);stroke-width:1" /><text x="405" y="282" style="font-size:10px;fill:rgb(200,200,200);text-anchor:middle;text-align:center;"> 0.1 </text><path d="M 338.96576 270 L 338.96576 272" style="stroke:rgb(200,200,200);stroke-width:1" /><text x="338.96576" y="282" style="font-size:10px;fill:rgb(200,200,200);text-anchor:middle;text-align:center;"> 0.15 </text><path d="M 292.11377 270 L 292.11377 272" style="stroke:rgb(200,200,200);stroke-width:1" /><text x="292.11377" y="282" style="font-size:10px;fill:rgb(200,200,200);text-anchor:middle;text-align:center;"> 0.2 </text><path d="M 255.7725 270 L 255.7725 272" style="stroke:rgb(200,200,200);stroke-width:1" /><text x="255.7725" y="282" style="font-size:10px;fill:rgb(200,200,200);text-anchor:middle;text-align:center;"> 0.25 </text><path d="M 142.88626 270 L 142.88626 272" style="stroke:rgb(200,200,200);stroke-width:1" /><text x="142.88626" y="282" style="font-size:10px;fill:rgb(200,200,200);text-anchor:middle;text-align:center;"> 0.5 </text><path d="M 30 270 L 30 272" style="stroke:rgb(200,200,200);stroke-width:1" /><text x="30" y="282" style="font-size:10px;fill:rgb(200,200,200);text-anchor:middle;text-align:center;"> 1 </text><path d="M 28 270 L 30 270" style="stroke:rgb(200,200,200);stroke-width:1" /><text x="26" y="274" style="font-size:10px;fill:rgb(200,200,200);text-anchor:end;text-align:right;"> 0 </text><path d="M 28 207.5 L 30 207.5" style="stroke:rgb(200,200,200);stroke-width:1" /><text x="26" y="211.5" style="font-size:10px;fill:rgb(200,200,200);text-anchor:end;text-align:right;"> 0.25 </text><path d="M 28 145 L 30 145" style="stroke:rgb(200,200,200);stroke-width:1" /><text x="26" y="149" style="font-size:10px;fill:rgb(200,200,200);text-anchor:end;text-align:right;"> 0.5 </text><path d="M 28 82.5 L 30 82.5" style="stroke:rgb(200,200,200);stroke-width:1" /><text x="26" y="86.5" style="font-size:10px;fill:rgb(200,200,200);text-anchor:end;text-align:right;"> 0.75 </text><path d="M 28 20 L 30 20" style="stroke:rgb(200,200,200);stroke-width:1" /><text x="26" y="24" style="font-size:10px;fill:rgb(200,200,200);text-anchor:end;text-align:right;"> 1 </text><text x="400" y="294" style="font-size:10px;fill:rgb(200,200,200);text-anchor:middle;text-align:center;"> Tolerance </text><circle cx="780" cy="238.0675" r="2" style="fill:rgb(199,126,190);stroke:none;fill-opacity:1;stroke-opacity:1;" /><path d="M 780 238.0675 L 630.77246 240" style="stroke:rgb(199,126,190);stroke-width:1" /><circle cx="630.77246" cy="240" r="2" style="fill:rgb(199,126,190);stroke:none;fill-opacity:1;stroke-opacity:1;" /><path d="M 630.77246 240 L 517.8862 241.3" style="stroke:rgb(199,126,190);stroke-width:1" /><circle cx="517.8862" cy="241.3" r="2" style="fill:rgb(199,126,190);stroke:none;fill-opacity:1;stroke-opacity:1;" /><path d="M 517.8862 241.3 L 451.85202 242.8175" style="stroke:rgb(199,126,190);stroke-width:1" /><circle cx="451.85202" cy="242.8175" r="2" style="fill:rgb(199,126,190);stroke:none;fill-opacity:1;stroke-opacity:1;" /><path d="M 451.85202 242.8175 L 405 244.0775" style="stroke:rgb(199,126,190);stroke-width:1" /><circle cx="405" cy="244.0775" r="2" style="fill:rgb(199,126,190);stroke:none;fill-opacity:1;stroke-opacity:1;" /><path d="M 405 244.0775 L 338.96576 245.6625" style="stroke:rgb(199,126,190);stroke-width:1" /><circle cx="338.96576" cy="245.6625" r="2" style="fill:rgb(199,126,190);stroke:none;fill-opacity:1;stroke-opacity:1;" /><path d="M 338.96576 245.6625 L 292.11377 247.3225" style="stroke:rgb(199,126,190);stroke-width:1" /><circle cx="292.11377" cy="247.3225" r="2" style="fill:rgb(199,126,190);stroke:none;fill-opacity:1;stroke-opacity:1;" /><path d="M 292.11377 247.3225 L 255.7725 248.4675" style="stroke:rgb(199,126,190);stroke-width:1" /><circle cx="255.7725" cy="248.4675" r="2" style="fill:rgb(199,126,190);stroke:none;fill-opacity:1;stroke-opacity:1;" /><path d="M 255.7725 248.4675 L 142.88626 252.12" style="stroke:rgb(199,126,190);stroke-width:1" /><circle cx="142.88626" cy="252.12" r="2" style="fill:rgb(199,126,190);stroke:none;fill-opacity:1;stroke-opacity:1;" /><path d="M 142.88626 252.12 L 30 255.74" style="stroke:rgb(199,126,190);stroke-width:1" /><circle cx="30" cy="255.74" r="2" style="fill:rgb(199,126,190);stroke:none;fill-opacity:1;stroke-opacity:1;" /><circle cx="780" cy="237.5775" r="2" style="fill:rgb(253,127,111);stroke:none;fill-opacity:1;stroke-opacity:1;" /><path d="M 780 237.5775 L 630.77246 239.63" style="stroke:rgb(253,127,111);stroke-width:1" /><circle cx="630.77246" cy="239.63" r="2" style="fill:rgb(253,127,111);stroke:none;fill-opacity:1;stroke-opacity:1;" /><path d="M 630.77246 239.63 L 517.8862 241.1825" style="stroke:rgb(253,127,111);stroke-width:1" /><circle cx="517.8862" cy="241.1825" r="2" style="fill:rgb(253,127,111);stroke:none;fill-opacity:1;stroke-opacity:1;" /><path d="M 517.8862 241.1825 L 451.85202 242.4325" style="stroke:rgb(253,127,111);stroke-width:1" /><circle cx="451.85202" cy="242.4325" r="2" style="fill:rgb(253,127,111);stroke:none;fill-opacity:1;stroke-opacity:1;" /><path d="M 451.85202 242.4325 L 405 243.995" style="stroke:rgb(253,127,111);stroke-width:1" /><circle cx="405" cy="243.995" r="2" style="fill:rgb(253,127,111);stroke:none;fill-opacity:1;stroke-opacity:1;" /><path d="M 405 243.995 L 338.96576 245.81" style="stroke:rgb(253,127,111);stroke-width:1" /><circle cx="338.96576" cy="245.81" r="2" style="fill:rgb(253,127,111);stroke:none;fill-opacity:1;stroke-opacity:1;" /><path d="M 338.96576 245.81 L 292.11377 247.84" style="stroke:rgb(253,127,111);stroke-width:1" /><circle cx="292.11377" cy="247.84" r="2" style="fill:rgb(253,127,111);stroke:none;fill-opacity:1;stroke-opacity:1;" /><path d="M 292.11377 247.84 L 255.7725 249.2025" style="stroke:rgb(253,127,111);stroke-width:1" /><circle cx="255.7725" cy="249.2025" r="2" style="fill:rgb(253,127,111);stroke:none;fill-opacity:1;stroke-opacity:1;" /><path d="M 255.7725 249.2025 L 142.88626 253.7425" style="stroke:rgb(253,127,111);stroke-width:1" /><circle cx="142.88626" cy="253.7425" r="2" style="fill:rgb(253,127,111);stroke:none;fill-opacity:1;stroke-opacity:1;" /><path d="M 142.88626 253.7425 L 30 257.5875" style="stroke:rgb(253,127,111);stroke-width:1" /><circle cx="30" cy="257.5875" r="2" style="fill:rgb(253,127,111);stroke:none;fill-opacity:1;stroke-opacity:1;" /><circle cx="780" cy="20" r="2" style="fill:rgb(50,125,209);stroke:none;fill-opacity:1;stroke-opacity:1;" /><path d="M 780 20 L 630.77246 68.005005" style="stroke:rgb(50,125,209);stroke-width:1" /><circle cx="630.77246" cy="68.005005" r="2" style="fill:rgb(50,125,209);stroke:none;fill-opacity:1;stroke-opacity:1;" /><path d="M 630.77246 68.005005 L 517.8862 95.1225" style="stroke:rgb(50,125,209);stroke-width:1" /><circle cx="517.8862" cy="95.1225" r="2" style="fill:rgb(50,125,209);stroke:none;fill-opacity:1;stroke-opacity:1;" /><path d="M 517.8862 95.1225 L 451.85202 109.42999" style="stroke:rgb(50,125,209);stroke-width:1" /><circle cx="451.85202" cy="109.42999" r="2" style="fill:rgb(50,125,209);stroke:none;fill-opacity:1;stroke-opacity:1;" /><path d="M 451.85202 109.42999 L 405 119.5475" style="stroke:rgb(50,125,209);stroke-width:1" /><circle cx="405" cy="119.5475" r="2" style="fill:rgb(50,125,209);stroke:none;fill-opacity:1;stroke-opacity:1;" /><path d="M 405 119.5475 L 338.96576 131.955" style="stroke:rgb(50,125,209);stroke-width:1" /><circle cx="338.96576" cy="131.955" r="2" style="fill:rgb(50,125,209);stroke:none;fill-opacity:1;stroke-opacity:1;" /><path d="M 338.96576 131.955 L 292.11377 139.845" style="stroke:rgb(50,125,209);stroke-width:1" /><circle cx="292.11377" cy="139.845" r="2" style="fill:rgb(50,125,209);stroke:none;fill-opacity:1;stroke-opacity:1;" /><path d="M 292.11377 139.845 L 255.7725 145.6125" style="stroke:rgb(50,125,209);stroke-width:1" /><circle cx="255.7725" cy="145.6125" r="2" style="fill:rgb(50,125,209);stroke:none;fill-opacity:1;stroke-opacity:1;" /><path d="M 255.7725 145.6125 L 142.88626 161.3625" style="stroke:rgb(50,125,209);stroke-width:1" /><circle cx="142.88626" cy="161.3625" r="2" style="fill:rgb(50,125,209);stroke:none;fill-opacity:1;stroke-opacity:1;" /><path d="M 142.88626 161.3625 L 30 172.08499" style="stroke:rgb(50,125,209);stroke-width:1" /><circle cx="30" cy="172.08499" r="2" style="fill:rgb(50,125,209);stroke:none;fill-opacity:1;stroke-opacity:1;" /><circle cx="780" cy="191.255" r="2" style="fill:rgb(200,113,55);stroke:none;fill-opacity:1;stroke-opacity:1;" /><path d="M 780 191.255 L 630.77246 193.39499" style="stroke:rgb(200,113,55);stroke-width:1" /><circle cx="630.77246" cy="193.39499" r="2" style="fill:rgb(200,113,55);stroke:none;fill-opacity:1;stroke-opacity:1;" /><path d="M 630.77246 193.39499 L 517.8862 197.315" style="stroke:rgb(200,113,55);stroke-width:1" /><circle cx="517.8862" cy="197.315" r="2" style="fill:rgb(200,113,55);stroke:none;fill-opacity:1;stroke-opacity:1;" /><path d="M 517.8862 197.315 L 451.85202 200.1325" style="stroke:rgb(200,113,55);stroke-width:1" /><circle cx="451.85202" cy="200.1325" r="2" style="fill:rgb(200,113,55);stroke:none;fill-opacity:1;stroke-opacity:1;" /><path d="M 451.85202 200.1325 L 405 202.14499" style="stroke:rgb(200,113,55);stroke-width:1" /><circle cx="405" cy="202.14499" r="2" style="fill:rgb(200,113,55);stroke:none;fill-opacity:1;stroke-opacity:1;" /><path d="M 405 202.14499 L 338.96576 204.77249" style="stroke:rgb(200,113,55);stroke-width:1" /><circle cx="338.96576" cy="204.77249" r="2" style="fill:rgb(200,113,55);stroke:none;fill-opacity:1;stroke-opacity:1;" /><path d="M 338.96576 204.77249 L 292.11377 207.1825" style="stroke:rgb(200,113,55);stroke-width:1" /><circle cx="292.11377" cy="207.1825" r="2" style="fill:rgb(200,113,55);stroke:none;fill-opacity:1;stroke-opacity:1;" /><path d="M 292.11377 207.1825 L 255.7725 209.1225" style="stroke:rgb(200,113,55);stroke-width:1" /><circle cx="255.7725" cy="209.1225" r="2" style="fill:rgb(200,113,55);stroke:none;fill-opacity:1;stroke-opacity:1;" /><path d="M 255.7725 209.1225 L 142.88626 215.78" style="stroke:rgb(200,113,55);stroke-width:1" /><circle cx="142.88626" cy="215.78" r="2" style="fill:rgb(200,113,55);stroke:none;fill-opacity:1;stroke-opacity:1;" /><path d="M 142.88626 215.78 L 30 215.1875" style="stroke:rgb(200,113,55);stroke-width:1" /><circle cx="30" cy="215.1875" r="2" style="fill:rgb(200,113,55);stroke:none;fill-opacity:1;stroke-opacity:1;" /><circle cx="780" cy="122.185" r="2" style="fill:rgb(126,176,213);stroke:none;fill-opacity:1;stroke-opacity:1;" /><path d="M 780 122.185 L 630.77246 140.7275" style="stroke:rgb(126,176,213);stroke-width:1" /><circle cx="630.77246" cy="140.7275" r="2" style="fill:rgb(126,176,213);stroke:none;fill-opacity:1;stroke-opacity:1;" /><path d="M 630.77246 140.7275 L 517.8862 150.7975" style="stroke:rgb(126,176,213);stroke-width:1" /><circle cx="517.8862" cy="150.7975" r="2" style="fill:rgb(126,176,213);stroke:none;fill-opacity:1;stroke-opacity:1;" /><path d="M 517.8862 150.7975 L 451.85202 155.8075" style="stroke:rgb(126,176,213);stroke-width:1" /><circle cx="451.85202" cy="155.8075" r="2" style="fill:rgb(126,176,213);stroke:none;fill-opacity:1;stroke-opacity:1;" /><path d="M 451.85202 155.8075 L 405 159.7375" style="stroke:rgb(126,176,213);stroke-width:1" /><circle cx="405" cy="159.7375" r="2" style="fill:rgb(126,176,213);stroke:none;fill-opacity:1;stroke-opacity:1;" /><path d="M 405 159.7375 L 338.96576 165.205" style="stroke:rgb(126,176,213);stroke-width:1" /><circle cx="338.96576" cy="165.205" r="2" style="fill:rgb(126,176,213);stroke:none;fill-opacity:1;stroke-opacity:1;" /><path d="M 338.96576 165.205 L 292.11377 168.26001" style="stroke:rgb(126,176,213);stroke-width:1" /><circle cx="292.11377" cy="168.26001" r="2" style="fill:rgb(126,176,213);stroke:none;fill-opacity:1;stroke-opacity:1;" /><path d="M 292.11377 168.26001 L 255.7725 171.15" style="stroke:rgb(126,176,213);stroke-width:1" /><circle cx="255.7725" cy="171.15" r="2" style="fill:rgb(126,176,213);stroke:none;fill-opacity:1;stroke-opacity:1;" /><path d="M 255.7725 171.15 L 142.88626 178.825" style="stroke:rgb(126,176,213);stroke-width:1" /><circle cx="142.88626" cy="178.825" r="2" style="fill:rgb(126,176,213);stroke:none;fill-opacity:1;stroke-opacity:1;" /><path d="M 142.88626 178.825 L 30 183.72751" style="stroke:rgb(126,176,213);stroke-width:1" /><circle cx="30" cy="183.72751" r="2" style="fill:rgb(126,176,213);stroke:none;fill-opacity:1;stroke-opacity:1;" /><circle cx="780" cy="132.2125" r="2" style="fill:rgb(119,211,179);stroke:none;fill-opacity:1;stroke-opacity:1;" /><path d="M 780 132.2125 L 630.77246 165.4525" style="stroke:rgb(119,211,179);stroke-width:1" /><circle cx="630.77246" cy="165.4525" r="2" style="fill:rgb(119,211,179);stroke:none;fill-opacity:1;stroke-opacity:1;" /><path d="M 630.77246 165.4525 L 517.8862 192.0375" style="stroke:rgb(119,211,179);stroke-width:1" /><circle cx="517.8862" cy="192.0375" r="2" style="fill:rgb(119,211,179);stroke:none;fill-opacity:1;stroke-opacity:1;" /><path d="M 517.8862 192.0375 L 451.85202 208.7575" style="stroke:rgb(119,211,179);stroke-width:1" /><circle cx="451.85202" cy="208.7575" r="2" style="fill:rgb(119,211,179);stroke:none;fill-opacity:1;stroke-opacity:1;" /><path d="M 451.85202 208.7575 L 405 219.535" style="stroke:rgb(119,211,179);stroke-width:1" /><circle cx="405" cy="219.535" r="2" style="fill:rgb(119,211,179);stroke:none;fill-opacity:1;stroke-opacity:1;" /><path d="M 405 219.535 L 338.96576 232.85251" style="stroke:rgb(119,211,179);stroke-width:1" /><circle cx="338.96576" cy="232.85251" r="2" style="fill:rgb(119,211,179);stroke:none;fill-opacity:1;stroke-opacity:1;" /><path d="M 338.96576 232.85251 L 292.11377 241.505" style="stroke:rgb(119,211,179);stroke-width:1" /><circle cx="292.11377" cy="241.505" r="2" style="fill:rgb(119,211,179);stroke:none;fill-opacity:1;stroke-opacity:1;" /><path d="M 292.11377 241.505 L 255.7725 247.0075" style="stroke:rgb(119,211,179);stroke-width:1" /><circle cx="255.7725" cy="247.0075" r="2" style="fill:rgb(119,211,179);stroke:none;fill-opacity:1;stroke-opacity:1;" /><path d="M 255.7725 247.0075 L 142.88626 256.65" style="stroke:rgb(119,211,179);stroke-width:1" /><circle cx="142.88626" cy="256.65" r="2" style="fill:rgb(119,211,179);stroke:none;fill-opacity:1;stroke-opacity:1;" /><path d="M 142.88626 256.65 L 30 259.2275" style="stroke:rgb(119,211,179);stroke-width:1" /><circle cx="30" cy="259.2275" r="2" style="fill:rgb(119,211,179);stroke:none;fill-opacity:1;stroke-opacity:1;" /><circle cx="780" cy="125.4525" r="2" style="fill:rgb(128,214,87);stroke:none;fill-opacity:1;stroke-opacity:1;" /><path d="M 780 125.4525 L 630.77246 178.0075" style="stroke:rgb(128,214,87);stroke-width:1" /><circle cx="630.77246" cy="178.0075" r="2" style="fill:rgb(128,214,87);stroke:none;fill-opacity:1;stroke-opacity:1;" /><path d="M 630.77246 178.0075 L 517.8862 207.33" style="stroke:rgb(128,214,87);stroke-width:1" /><circle cx="517.8862" cy="207.33" r="2" style="fill:rgb(128,214,87);stroke:none;fill-opacity:1;stroke-opacity:1;" /><path d="M 517.8862 207.33 L 451.85202 220.555" style="stroke:rgb(128,214,87);stroke-width:1" /><circle cx="451.85202" cy="220.555" r="2" style="fill:rgb(128,214,87);stroke:none;fill-opacity:1;stroke-opacity:1;" /><path d="M 451.85202 220.555 L 405 229.345" style="stroke:rgb(128,214,87);stroke-width:1" /><circle cx="405" cy="229.345" r="2" style="fill:rgb(128,214,87);stroke:none;fill-opacity:1;stroke-opacity:1;" /><path d="M 405 229.345 L 338.96576 239.6525" style="stroke:rgb(128,214,87);stroke-width:1" /><circle cx="338.96576" cy="239.6525" r="2" style="fill:rgb(128,214,87);stroke:none;fill-opacity:1;stroke-opacity:1;" /><path d="M 338.96576 239.6525 L 292.11377 245.845" style="stroke:rgb(128,214,87);stroke-width:1" /><circle cx="292.11377" cy="245.845" r="2" style="fill:rgb(128,214,87);stroke:none;fill-opacity:1;stroke-opacity:1;" /><path d="M 292.11377 245.845 L 255.7725 249.5925" style="stroke:rgb(128,214,87);stroke-width:1" /><circle cx="255.7725" cy="249.5925" r="2" style="fill:rgb(128,214,87);stroke:none;fill-opacity:1;stroke-opacity:1;" /><path d="M 255.7725 249.5925 L 142.88626 257.32" style="stroke:rgb(128,214,87);stroke-width:1" /><circle cx="142.88626" cy="257.32" r="2" style="fill:rgb(128,214,87);stroke:none;fill-opacity:1;stroke-opacity:1;" /><path d="M 142.88626 257.32 L 30 259.7625" style="stroke:rgb(128,214,87);stroke-width:1" /><circle cx="30" cy="259.7625" r="2" style="fill:rgb(128,214,87);stroke:none;fill-opacity:1;stroke-opacity:1;" /><circle cx="780" cy="236.9275" r="2" style="fill:rgb(253,204,229);stroke:none;fill-opacity:1;stroke-opacity:1;" /><path d="M 780 236.9275 L 630.77246 239.9275" style="stroke:rgb(253,204,229);stroke-width:1" /><circle cx="630.77246" cy="239.9275" r="2" style="fill:rgb(253,204,229);stroke:none;fill-opacity:1;stroke-opacity:1;" /><path d="M 630.77246 239.9275 L 517.8862 241.065" style="stroke:rgb(253,204,229);stroke-width:1" /><circle cx="517.8862" cy="241.065" r="2" style="fill:rgb(253,204,229);stroke:none;fill-opacity:1;stroke-opacity:1;" /><path d="M 517.8862 241.065 L 451.85202 242.8025" style="stroke:rgb(253,204,229);stroke-width:1" /><circle cx="451.85202" cy="242.8025" r="2" style="fill:rgb(253,204,229);stroke:none;fill-opacity:1;stroke-opacity:1;" /><path d="M 451.85202 242.8025 L 405 244" style="stroke:rgb(253,204,229);stroke-width:1" /><circle cx="405" cy="244" r="2" style="fill:rgb(253,204,229);stroke:none;fill-opacity:1;stroke-opacity:1;" /><path d="M 405 244 L 338.96576 246.14749" style="stroke:rgb(253,204,229);stroke-width:1" /><circle cx="338.96576" cy="246.14749" r="2" style="fill:rgb(253,204,229);stroke:none;fill-opacity:1;stroke-opacity:1;" /><path d="M 338.96576 246.14749 L 292.11377 248.035" style="stroke:rgb(253,204,229);stroke-width:1" /><circle cx="292.11377" cy="248.035" r="2" style="fill:rgb(253,204,229);stroke:none;fill-opacity:1;stroke-opacity:1;" /><path d="M 292.11377 248.035 L 255.7725 249.27" style="stroke:rgb(253,204,229);stroke-width:1" /><circle cx="255.7725" cy="249.27" r="2" style="fill:rgb(253,204,229);stroke:none;fill-opacity:1;stroke-opacity:1;" /><path d="M 255.7725 249.27 L 142.88626 254.2" style="stroke:rgb(253,204,229);stroke-width:1" /><circle cx="142.88626" cy="254.2" r="2" style="fill:rgb(253,204,229);stroke:none;fill-opacity:1;stroke-opacity:1;" /><path d="M 142.88626 254.2 L 30 257.9575" style="stroke:rgb(253,204,229);stroke-width:1" /><circle cx="30" cy="257.9575" r="2" style="fill:rgb(253,204,229);stroke:none;fill-opacity:1;stroke-opacity:1;" /><circle cx="780" cy="188.4075" r="2" style="fill:rgb(120,68,33);stroke:none;fill-opacity:1;stroke-opacity:1;" /><path d="M 780 188.4075 L 630.77246 191.0975" style="stroke:rgb(120,68,33);stroke-width:1" /><circle cx="630.77246" cy="191.0975" r="2" style="fill:rgb(120,68,33);stroke:none;fill-opacity:1;stroke-opacity:1;" /><path d="M 630.77246 191.0975 L 517.8862 194.94751" style="stroke:rgb(120,68,33);stroke-width:1" /><circle cx="517.8862" cy="194.94751" r="2" style="fill:rgb(120,68,33);stroke:none;fill-opacity:1;stroke-opacity:1;" /><path d="M 517.8862 194.94751 L 451.85202 199.91751" style="stroke:rgb(120,68,33);stroke-width:1" /><circle cx="451.85202" cy="199.91751" r="2" style="fill:rgb(120,68,33);stroke:none;fill-opacity:1;stroke-opacity:1;" /><path d="M 451.85202 199.91751 L 405 202.41" style="stroke:rgb(120,68,33);stroke-width:1" /><circle cx="405" cy="202.41" r="2" style="fill:rgb(120,68,33);stroke:none;fill-opacity:1;stroke-opacity:1;" /><path d="M 405 202.41 L 338.96576 207.5975" style="stroke:rgb(120,68,33);stroke-width:1" /><circle cx="338.96576" cy="207.5975" r="2" style="fill:rgb(120,68,33);stroke:none;fill-opacity:1;stroke-opacity:1;" /><path d="M 338.96576 207.5975 L 292.11377 211.34" style="stroke:rgb(120,68,33);stroke-width:1" /><circle cx="292.11377" cy="211.34" r="2" style="fill:rgb(120,68,33);stroke:none;fill-opacity:1;stroke-opacity:1;" /><path d="M 292.11377 211.34 L 255.7725 214.34" style="stroke:rgb(120,68,33);stroke-width:1" /><circle cx="255.7725" cy="214.34" r="2" style="fill:rgb(120,68,33);stroke:none;fill-opacity:1;stroke-opacity:1;" /><path d="M 255.7725 214.34 L 142.88626 219.16" style="stroke:rgb(120,68,33);stroke-width:1" /><circle cx="142.88626" cy="219.16" r="2" style="fill:rgb(120,68,33);stroke:none;fill-opacity:1;stroke-opacity:1;" /><path d="M 142.88626 219.16 L 30 216.54001" style="stroke:rgb(120,68,33);stroke-width:1" /><circle cx="30" cy="216.54001" r="2" style="fill:rgb(120,68,33);stroke:none;fill-opacity:1;stroke-opacity:1;" /><circle cx="780" cy="110.270004" r="2" style="fill:rgb(255,181,90);stroke:none;fill-opacity:1;stroke-opacity:1;" /><path d="M 780 110.270004 L 630.77246 154.5675" style="stroke:rgb(255,181,90);stroke-width:1" /><circle cx="630.77246" cy="154.5675" r="2" style="fill:rgb(255,181,90);stroke:none;fill-opacity:1;stroke-opacity:1;" /><path d="M 630.77246 154.5675 L 517.8862 178.29251" style="stroke:rgb(255,181,90);stroke-width:1" /><circle cx="517.8862" cy="178.29251" r="2" style="fill:rgb(255,181,90);stroke:none;fill-opacity:1;stroke-opacity:1;" /><path d="M 517.8862 178.29251 L 451.85202 187.28" style="stroke:rgb(255,181,90);stroke-width:1" /><circle cx="451.85202" cy="187.28" r="2" style="fill:rgb(255,181,90);stroke:none;fill-opacity:1;stroke-opacity:1;" /><path d="M 451.85202 187.28 L 405 192.3575" style="stroke:rgb(255,181,90);stroke-width:1" /><circle cx="405" cy="192.3575" r="2" style="fill:rgb(255,181,90);stroke:none;fill-opacity:1;stroke-opacity:1;" /><path d="M 405 192.3575 L 338.96576 197.05249" style="stroke:rgb(255,181,90);stroke-width:1" /><circle cx="338.96576" cy="197.05249" r="2" style="fill:rgb(255,181,90);stroke:none;fill-opacity:1;stroke-opacity:1;" /><path d="M 338.96576 197.05249 L 292.11377 198.015" style="stroke:rgb(255,181,90);stroke-width:1" /><circle cx="292.11377" cy="198.015" r="2" style="fill:rgb(255,181,90);stroke:none;fill-opacity:1;stroke-opacity:1;" /><path d="M 292.11377 198.015 L 255.7725 195.63" style="stroke:rgb(255,181,90);stroke-width:1" /><circle cx="255.7725" cy="195.63" r="2" style="fill:rgb(255,181,90);stroke:none;fill-opacity:1;stroke-opacity:1;" /><path d="M 255.7725 195.63 L 142.88626 212.78" style="stroke:rgb(255,181,90);stroke-width:1" /><circle cx="142.88626" cy="212.78" r="2" style="fill:rgb(255,181,90);stroke:none;fill-opacity:1;stroke-opacity:1;" /><path d="M 142.88626 212.78 L 30 223.17" style="stroke:rgb(255,181,90);stroke-width:1" /><circle cx="30" cy="223.17" r="2" style="fill:rgb(255,181,90);stroke:none;fill-opacity:1;stroke-opacity:1;" /><circle cx="780" cy="154.9825" r="2" style="fill:rgb(255,238,101);stroke:none;fill-opacity:1;stroke-opacity:1;" /><path d="M 780 154.9825 L 630.77246 192.85501" style="stroke:rgb(255,238,101);stroke-width:1" /><circle cx="630.77246" cy="192.85501" r="2" style="fill:rgb(255,238,101);stroke:none;fill-opacity:1;stroke-opacity:1;" /><path d="M 630.77246 192.85501 L 517.8862 215.0375" style="stroke:rgb(255,238,101);stroke-width:1" /><circle cx="517.8862" cy="215.0375" r="2" style="fill:rgb(255,238,101);stroke:none;fill-opacity:1;stroke-opacity:1;" /><path d="M 517.8862 215.0375 L 451.85202 224.72" style="stroke:rgb(255,238,101);stroke-width:1" /><circle cx="451.85202" cy="224.72" r="2" style="fill:rgb(255,238,101);stroke:none;fill-opacity:1;stroke-opacity:1;" /><path d="M 451.85202 224.72 L 405 231.92" style="stroke:rgb(255,238,101);stroke-width:1" /><circle cx="405" cy="231.92" r="2" style="fill:rgb(255,238,101);stroke:none;fill-opacity:1;stroke-opacity:1;" /><path d="M 405 231.92 L 338.96576 240.47751" style="stroke:rgb(255,238,101);stroke-width:1" /><circle cx="338.96576" cy="240.47751" r="2" style="fill:rgb(255,238,101);stroke:none;fill-opacity:1;stroke-opacity:1;" /><path d="M 338.96576 240.47751 L 292.11377 245.7925" style="stroke:rgb(255,238,101);stroke-width:1" /><circle cx="292.11377" cy="245.7925" r="2" style="fill:rgb(255,238,101);stroke:none;fill-opacity:1;stroke-opacity:1;" /><path d="M 292.11377 245.7925 L 255.7725 248.95999" style="stroke:rgb(255,238,101);stroke-width:1" /><circle cx="255.7725" cy="248.95999" r="2" style="fill:rgb(255,238,101);stroke:none;fill-opacity:1;stroke-opacity:1;" /><path d="M 255.7725 248.95999 L 142.88626 257.4525" style="stroke:rgb(255,238,101);stroke-width:1" /><circle cx="142.88626" cy="257.4525" r="2" style="fill:rgb(255,238,101);stroke:none;fill-opacity:1;stroke-opacity:1;" /><path d="M 142.88626 257.4525 L 30 261.49" style="stroke:rgb(255,238,101);stroke-width:1" /><circle cx="30" cy="261.49" r="2" style="fill:rgb(255,238,101);stroke:none;fill-opacity:1;stroke-opacity:1;" /><rect x="676" y="16" width="80" height="238" ry="4" style="fill:rgb(30,30,30);stroke:none;fill-opacity:0.8;stroke-opacity:1;" /><rect x="680" y="20" width="20" height="20" ry="2" style="fill:rgb(253,127,111);stroke:none;fill-opacity:1;stroke-opacity:1;" /><text x="705" y="33" style="font-size:10px;fill:rgb(255,255,255);text-anchor:start;text-align:left;"> fwd-diff </text><rect x="680" y="41" width="20" height="20" ry="2" style="fill:rgb(255,181,90);stroke:none;fill-opacity:1;stroke-opacity:1;" /><text x="705" y="54" style="font-size:10px;fill:rgb(255,255,255);text-anchor:start;text-align:left;"> hain </text><rect x="680" y="62" width="20" height="20" ry="2" style="fill:rgb(50,125,209);stroke:none;fill-opacity:1;stroke-opacity:1;" /><text x="705" y="75" style="font-size:10px;fill:rgb(255,255,255);text-anchor:start;text-align:left;"> levien </text><rect x="680" y="83" width="20" height="20" ry="2" style="fill:rgb(119,211,179);stroke:none;fill-opacity:1;stroke-opacity:1;" /><text x="705" y="96" style="font-size:10px;fill:rgb(255,255,255);text-anchor:start;text-align:left;"> levien-linear </text><rect x="680" y="104" width="20" height="20" ry="2" style="fill:rgb(126,176,213);stroke:none;fill-opacity:1;stroke-opacity:1;" /><text x="705" y="117" style="font-size:10px;fill:rgb(255,255,255);text-anchor:start;text-align:left;"> levien-simd </text><rect x="680" y="125" width="20" height="20" ry="2" style="fill:rgb(128,214,87);stroke:none;fill-opacity:1;stroke-opacity:1;" /><text x="705" y="138" style="font-size:10px;fill:rgb(255,255,255);text-anchor:start;text-align:left;"> linear </text><rect x="680" y="146" width="20" height="20" ry="2" style="fill:rgb(255,238,101);stroke:none;fill-opacity:1;stroke-opacity:1;" /><text x="705" y="159" style="font-size:10px;fill:rgb(255,255,255);text-anchor:start;text-align:left;"> recursive </text><rect x="680" y="167" width="20" height="20" ry="2" style="fill:rgb(253,204,229);stroke:none;fill-opacity:1;stroke-opacity:1;" /><text x="705" y="180" style="font-size:10px;fill:rgb(255,255,255);text-anchor:start;text-align:left;"> wang </text><rect x="680" y="188" width="20" height="20" ry="2" style="fill:rgb(199,126,190);stroke:none;fill-opacity:1;stroke-opacity:1;" /><text x="705" y="201" style="font-size:10px;fill:rgb(255,255,255);text-anchor:start;text-align:left;"> wang-simd </text><rect x="680" y="209" width="20" height="20" ry="2" style="fill:rgb(120,68,33);stroke:none;fill-opacity:1;stroke-opacity:1;" /><text x="705" y="222" style="font-size:10px;fill:rgb(255,255,255);text-anchor:start;text-align:left;"> yzerman </text><rect x="680" y="230" width="20" height="20" ry="2" style="fill:rgb(200,113,55);stroke:none;fill-opacity:1;stroke-opacity:1;" /><text x="705" y="243" style="font-size:10px;fill:rgb(255,255,255);text-anchor:start;text-align:left;"> yzerman-simd </text><text x="400" y="30" style="font-size:20px;fill:rgb(255,255,255);text-anchor:middle;text-align:center;"> inkscape dataset: cubic </text><text x="400" y="42" style="font-size:8px;fill:rgb(200,200,200);text-anchor:middle;text-align:center;"> Normalized performance score (lower is better) </text></svg>