<svg xmlns="http://www.w3.org/2000/svg" viewBox="0 0 800 300"><rect x="0" y="0" width="800" height="300" ry="6" style="fill:rgb(30,30,30);stroke:none;fill-opacity:1;stroke-opacity:1;" /><path d="M 30 20 L 30 270" style="stroke:rgb(200,200,200);stroke-width:1" /><path d="M 30 270 L 780 270" style="stroke:rgb(200,200,200);stroke-width:1" /><path d="M 780 270 L 780 272" style="stroke:rgb(200,200,200);stroke-width:1" /><text x="780" y="282" style="font-size:10px;fill:rgb(200,200,200);text-anchor:middle;text-align:center;"> 0.01 </text><path d="M 630.77246 270 L 630.77246 272" style="stroke:rgb(200,200,200);stroke-width:1" /><text x="630.77246" y="282" style="font-size:10px;fill:rgb(200,200,200);text-anchor:middle;text-align:center;"> 0.025 </text><path d="M 517.8862 270 L 517.8862 272" style="stroke:rgb(200,200,200);stroke-width:1" /><text x="517.8862" y="282" style="font-size:10px;fill:rgb(200,200,200);text-anchor:middle;text-align:center;"> 0.05 </text><path d="M 451.85202 270 L 451.85202 272" style="stroke:rgb(200,200,200);stroke-width:1" /><text x="451.85202" y="282" style="font-size:10px;fill:rgb(200,200,200);text-anchor:middle;text-align:center;"> 0.075 </text><path d="M 405 270 L 405 272" style="stroke:rgb(200,200,200);stroke-width:1" /><text x="405" y="282" style="font-size:10px;fill:rgb(200,200,200);text-anchor:middle;text-align:center;"> 0.1 </text><path d="M 338.96576 270 L 338.96576 272" style="stroke:rgb(200,200,200);stroke-width:1" /><text x="338.96576" y="282" style="font-size:10px;fill:rgb(200,200,200);text-anchor:middle;text-align:center;"> 0.15 </text><path d="M 292.11377 270 L 292.11377 272" style="stroke:rgb(200,200,200);stroke-width:1" /><text x="292.11377" y="282" style="font-size:10px;fill:rgb(200,200,200);text-anchor:middle;text-align:center;"> 0.2 </text><path d="M 255.7725 270 L 255.7725 272" style="stroke:rgb(200,200,200);stroke-width:1" /><text x="255.7725" y="282" style="font-size:10px;fill:rgb(200,200,200);text-anchor:middle;text-align:center;"> 0.25 </text><path d="M 142.88626 270 L 142.88626 272" style="stroke:rgb(200,200,200);stroke-width:1" /><text x="142.88626" y="282" style="font-size:10px;fill:rgb(200,200,200);text-anchor:middle;text-align:center;"> 0.5 </text><path d="M 30 270 L 30 272" style="stroke:rgb(200,200,200);stroke-width:1" /><text x="30" y="282" style="font-size:10px;fill:rgb(200,200,200);text-anchor:middle;text-align:center;"> 1 </text><path d="M 28 270 L 30 270" style="stroke:rgb(200,200,200);stroke-width:1" /><text x="26" y="274" style="font-size:10px;fill:rgb(200,200,200);text-anchor:end;text-align:right;"> 0 </text><path d="M 28 207.5 L 30 207.5" style="stroke:rgb(200,200,200);stroke-width:1" /><text x="26" y="211.5" style="font-size:10px;fill:rgb(200,200,200);text-anchor:end;text-align:right;"> 0.25 </text><path d="M 28 145 L 30 145" style="stroke:rgb(200,200,200);stroke-width:1" /><text x="26" y="149" style="font-size:10px;fill:rgb(200,200,200);text-anchor:end;text-align:right;"> 0.5 </text><path d="M 28 82.5 L 30 82.5" style="stroke:rgb(200,200,200);stroke-width:1" /><text x="26" y="86.5" style="font-size:10px;fill:rgb(200,200,200);text-anchor:end;text-align:right;"> 0.75 </text><path d="M 28 20 L 30 20" style="stroke:rgb(200,200,200);stroke-width:1" /><text x="26" y="24" style="font-size:10px;fill:rgb(200,200,200);text-anchor:end;text-align:right;"> 1 </text><text x="400" y="294" style="font-size:10px;fill:rgb(200,200,200);text-anchor:middle;text-align:center;"> Tolerance </text><circle cx="780" cy="20" r="2" style="fill:rgb(128,214,87);stroke:none;fill-opacity:1;stroke-opacity:1;" /><path d="M 780 20 L 630.77246 112.979996" style="stroke:rgb(128,214,87);stroke-width:1" /><circle cx="630.77246" cy="112.979996" r="2" style="fill:rgb(128,214,87);stroke:none;fill-opacity:1;stroke-opacity:1;" /><path d="M 630.77246 112.979996 L 517.8862 157.62" style="stroke:rgb(128,214,87);stroke-width:1" /><circle cx="517.8862" cy="157.62" r="2" style="fill:rgb(128,214,87);stroke:none;fill-opacity:1;stroke-opacity:1;" /><path d="M 517.8862 157.62 L 451.85202 178.79001" style="stroke:rgb(128,214,87);stroke-width:1" /><circle cx="451.85202" cy="178.79001" r="2" style="fill:rgb(128,214,87);stroke:none;fill-opacity:1;stroke-opacity:1;" /><path d="M 451.85202 178.79001 L 405 190.7325" style="stroke:rgb(128,214,87);stroke-width:1" /><circle cx="405" cy="190.7325" r="2" style="fill:rgb(128,214,87);stroke:none;fill-opacity:1;stroke-opacity:1;" /><path d="M 405 190.7325 L 338.96576 204.7975" style="stroke:rgb(128,214,87);stroke-width:1" /><circle cx="338.96576" cy="204.7975" r="2" style="fill:rgb(128,214,87);stroke:none;fill-opacity:1;stroke-opacity:1;" /><path d="M 338.96576 204.7975 L 292.11377 214.485" style="stroke:rgb(128,214,87);stroke-width:1" /><circle cx="292.11377" cy="214.485" r="2" style="fill:rgb(128,214,87);stroke:none;fill-opacity:1;stroke-opacity:1;" /><path d="M 292.11377 214.485 L 255.7725 220.735" style="stroke:rgb(128,214,87);stroke-width:1" /><circle cx="255.7725" cy="220.735" r="2" style="fill:rgb(128,214,87);stroke:none;fill-opacity:1;stroke-opacity:1;" /><path d="M 255.7725 220.735 L 142.88626 235.2075" style="stroke:rgb(128,214,87);stroke-width:1" /><circle cx="142.88626" cy="235.2075" r="2" style="fill:rgb(128,214,87);stroke:none;fill-opacity:1;stroke-opacity:1;" /><path d="M 142.88626 235.2075 L 30 245.7425" style="stroke:rgb(128,214,87);stroke-width:1" /><circle cx="30" cy="245.7425" r="2" style="fill:rgb(128,214,87);stroke:none;fill-opacity:1;stroke-opacity:1;" /><circle cx="780" cy="24.847504" r="2" style="fill:rgb(255,181,90);stroke:none;fill-opacity:1;stroke-opacity:1;" /><path d="M 780 24.847504 L 630.77246 107.744995" style="stroke:rgb(255,181,90);stroke-width:1" /><circle cx="630.77246" cy="107.744995" r="2" style="fill:rgb(255,181,90);stroke:none;fill-opacity:1;stroke-opacity:1;" /><path d="M 630.77246 107.744995 L 517.8862 147.4875" style="stroke:rgb(255,181,90);stroke-width:1" /><circle cx="517.8862" cy="147.4875" r="2" style="fill:rgb(255,181,90);stroke:none;fill-opacity:1;stroke-opacity:1;" /><path d="M 517.8862 147.4875 L 451.85202 163.2575" style="stroke:rgb(255,181,90);stroke-width:1" /><circle cx="451.85202" cy="163.2575" r="2" style="fill:rgb(255,181,90);stroke:none;fill-opacity:1;stroke-opacity:1;" /><path d="M 451.85202 163.2575 L 405 171.1" style="stroke:rgb(255,181,90);stroke-width:1" /><circle cx="405" cy="171.1" r="2" style="fill:rgb(255,181,90);stroke:none;fill-opacity:1;stroke-opacity:1;" /><path d="M 405 171.1 L 338.96576 177.58499" style="stroke:rgb(255,181,90);stroke-width:1" /><circle cx="338.96576" cy="177.58499" r="2" style="fill:rgb(255,181,90);stroke:none;fill-opacity:1;stroke-opacity:1;" /><path d="M 338.96576 177.58499 L 292.11377 177.01999" style="stroke:rgb(255,181,90);stroke-width:1" /><circle cx="292.11377" cy="177.01999" r="2" style="fill:rgb(255,181,90);stroke:none;fill-opacity:1;stroke-opacity:1;" /><path d="M 292.11377 177.01999 L 255.7725 170.9725" style="stroke:rgb(255,181,90);stroke-width:1" /><circle cx="255.7725" cy="170.9725" r="2" style="fill:rgb(255,181,90);stroke:none;fill-opacity:1;stroke-opacity:1;" /><path d="M 255.7725 170.9725 L 142.88626 198.3425" style="stroke:rgb(255,181,90);stroke-width:1" /><circle cx="142.88626" cy="198.3425" r="2" style="fill:rgb(255,181,90);stroke:none;fill-opacity:1;stroke-opacity:1;" /><path d="M 142.88626 198.3425 L 30 217.6625" style="stroke:rgb(255,181,90);stroke-width:1" /><circle cx="30" cy="217.6625" r="2" style="fill:rgb(255,181,90);stroke:none;fill-opacity:1;stroke-opacity:1;" /><circle cx="780" cy="221.5025" r="2" style="fill:rgb(126,176,213);stroke:none;fill-opacity:1;stroke-opacity:1;" /><path d="M 780 221.5025 L 630.77246 230.53" style="stroke:rgb(126,176,213);stroke-width:1" /><circle cx="630.77246" cy="230.53" r="2" style="fill:rgb(126,176,213);stroke:none;fill-opacity:1;stroke-opacity:1;" /><path d="M 630.77246 230.53 L 517.8862 234.81" style="stroke:rgb(126,176,213);stroke-width:1" /><circle cx="517.8862" cy="234.81" r="2" style="fill:rgb(126,176,213);stroke:none;fill-opacity:1;stroke-opacity:1;" /><path d="M 517.8862 234.81 L 451.85202 236.8025" style="stroke:rgb(126,176,213);stroke-width:1" /><circle cx="451.85202" cy="236.8025" r="2" style="fill:rgb(126,176,213);stroke:none;fill-opacity:1;stroke-opacity:1;" /><path d="M 451.85202 236.8025 L 405 238.11751" style="stroke:rgb(126,176,213);stroke-width:1" /><circle cx="405" cy="238.11751" r="2" style="fill:rgb(126,176,213);stroke:none;fill-opacity:1;stroke-opacity:1;" /><path d="M 405 238.11751 L 338.96576 239.5825" style="stroke:rgb(126,176,213);stroke-width:1" /><circle cx="338.96576" cy="239.5825" r="2" style="fill:rgb(126,176,213);stroke:none;fill-opacity:1;stroke-opacity:1;" /><path d="M 338.96576 239.5825 L 292.11377 240.39" style="stroke:rgb(126,176,213);stroke-width:1" /><circle cx="292.11377" cy="240.39" r="2" style="fill:rgb(126,176,213);stroke:none;fill-opacity:1;stroke-opacity:1;" /><path d="M 292.11377 240.39 L 255.7725 241.115" style="stroke:rgb(126,176,213);stroke-width:1" /><circle cx="255.7725" cy="241.115" r="2" style="fill:rgb(126,176,213);stroke:none;fill-opacity:1;stroke-opacity:1;" /><path d="M 255.7725 241.115 L 142.88626 242.91501" style="stroke:rgb(126,176,213);stroke-width:1" /><circle cx="142.88626" cy="242.91501" r="2" style="fill:rgb(126,176,213);stroke:none;fill-opacity:1;stroke-opacity:1;" /><path d="M 142.88626 242.91501 L 30 244.32" style="stroke:rgb(126,176,213);stroke-width:1" /><circle cx="30" cy="244.32" r="2" style="fill:rgb(126,176,213);stroke:none;fill-opacity:1;stroke-opacity:1;" /><circle cx="780" cy="164.32251" r="2" style="fill:rgb(50,125,209);stroke:none;fill-opacity:1;stroke-opacity:1;" /><path d="M 780 164.32251 L 630.77246 192.9975" style="stroke:rgb(50,125,209);stroke-width:1" /><circle cx="630.77246" cy="192.9975" r="2" style="fill:rgb(50,125,209);stroke:none;fill-opacity:1;stroke-opacity:1;" /><path d="M 630.77246 192.9975 L 517.8862 207.4575" style="stroke:rgb(50,125,209);stroke-width:1" /><circle cx="517.8862" cy="207.4575" r="2" style="fill:rgb(50,125,209);stroke:none;fill-opacity:1;stroke-opacity:1;" /><path d="M 517.8862 207.4575 L 451.85202 214.1925" style="stroke:rgb(50,125,209);stroke-width:1" /><circle cx="451.85202" cy="214.1925" r="2" style="fill:rgb(50,125,209);stroke:none;fill-opacity:1;stroke-opacity:1;" /><path d="M 451.85202 214.1925 L 405 218.465" style="stroke:rgb(50,125,209);stroke-width:1" /><circle cx="405" cy="218.465" r="2" style="fill:rgb(50,125,209);stroke:none;fill-opacity:1;stroke-opacity:1;" /><path d="M 405 218.465 L 338.96576 223.48" style="stroke:rgb(50,125,209);stroke-width:1" /><circle cx="338.96576" cy="223.48" r="2" style="fill:rgb(50,125,209);stroke:none;fill-opacity:1;stroke-opacity:1;" /><path d="M 338.96576 223.48 L 292.11377 226.385" style="stroke:rgb(50,125,209);stroke-width:1" /><circle cx="292.11377" cy="226.385" r="2" style="fill:rgb(50,125,209);stroke:none;fill-opacity:1;stroke-opacity:1;" /><path d="M 292.11377 226.385 L 255.7725 228.5175" style="stroke:rgb(50,125,209);stroke-width:1" /><circle cx="255.7725" cy="228.5175" r="2" style="fill:rgb(50,125,209);stroke:none;fill-opacity:1;stroke-opacity:1;" /><path d="M 255.7725 228.5175 L 142.88626 233.99" style="stroke:rgb(50,125,209);stroke-width:1" /><circle cx="142.88626" cy="233.99" r="2" style="fill:rgb(50,125,209);stroke:none;fill-opacity:1;stroke-opacity:1;" /><path d="M 142.88626 233.99 L 30 238.2775" style="stroke:rgb(50,125,209);stroke-width:1" /><circle cx="30" cy="238.2775" r="2" style="fill:rgb(50,125,209);stroke:none;fill-opacity:1;stroke-opacity:1;" /><circle cx="780" cy="250.1325" r="2" style="fill:rgb(199,126,190);stroke:none;fill-opacity:1;stroke-opacity:1;" /><path d="M 780 250.1325 L 630.77246 255.155" style="stroke:rgb(199,126,190);stroke-width:1" /><circle cx="630.77246" cy="255.155" r="2" style="fill:rgb(199,126,190);stroke:none;fill-opacity:1;stroke-opacity:1;" /><path d="M 630.77246 255.155 L 517.8862 257.705" style="stroke:rgb(199,126,190);stroke-width:1" /><circle cx="517.8862" cy="257.705" r="2" style="fill:rgb(199,126,190);stroke:none;fill-opacity:1;stroke-opacity:1;" /><path d="M 517.8862 257.705 L 451.85202 258.9375" style="stroke:rgb(199,126,190);stroke-width:1" /><circle cx="451.85202" cy="258.9375" r="2" style="fill:rgb(199,126,190);stroke:none;fill-opacity:1;stroke-opacity:1;" /><path d="M 451.85202 258.9375 L 405 259.8175" style="stroke:rgb(199,126,190);stroke-width:1" /><circle cx="405" cy="259.8175" r="2" style="fill:rgb(199,126,190);stroke:none;fill-opacity:1;stroke-opacity:1;" /><path d="M 405 259.8175 L 338.96576 260.865" style="stroke:rgb(199,126,190);stroke-width:1" /><circle cx="338.96576" cy="260.865" r="2" style="fill:rgb(199,126,190);stroke:none;fill-opacity:1;stroke-opacity:1;" /><path d="M 338.96576 260.865 L 292.11377 261.555" style="stroke:rgb(199,126,190);stroke-width:1" /><circle cx="292.11377" cy="261.555" r="2" style="fill:rgb(199,126,190);stroke:none;fill-opacity:1;stroke-opacity:1;" /><path d="M 292.11377 261.555 L 255.7725 262.0425" style="stroke:rgb(199,126,190);stroke-width:1" /><circle cx="255.7725" cy="262.0425" r="2" style="fill:rgb(199,126,190);stroke:none;fill-opacity:1;stroke-opacity:1;" /><path d="M 255.7725 262.0425 L 142.88626 263.2475" style="stroke:rgb(199,126,190);stroke-width:1" /><circle cx="142.88626" cy="263.2475" r="2" style="fill:rgb(199,126,190);stroke:none;fill-opacity:1;stroke-opacity:1;" /><path d="M 142.88626 263.2475 L 30 264.19" style="stroke:rgb(199,126,190);stroke-width:1" /><circle cx="30" cy="264.19" r="2" style="fill:rgb(199,126,190);stroke:none;fill-opacity:1;stroke-opacity:1;" /><circle cx="780" cy="61.725006" r="2" style="fill:rgb(255,238,101);stroke:none;fill-opacity:1;stroke-opacity:1;" /><path d="M 780 61.725006 L 630.77246 145.525" style="stroke:rgb(255,238,101);stroke-width:1" /><circle cx="630.77246" cy="145.525" r="2" style="fill:rgb(255,238,101);stroke:none;fill-opacity:1;stroke-opacity:1;" /><path d="M 630.77246 145.525 L 517.8862 174.19" style="stroke:rgb(255,238,101);stroke-width:1" /><circle cx="517.8862" cy="174.19" r="2" style="fill:rgb(255,238,101);stroke:none;fill-opacity:1;stroke-opacity:1;" /><path d="M 517.8862 174.19 L 451.85202 194.685" style="stroke:rgb(255,238,101);stroke-width:1" /><circle cx="451.85202" cy="194.685" r="2" style="fill:rgb(255,238,101);stroke:none;fill-opacity:1;stroke-opacity:1;" /><path d="M 451.85202 194.685 L 405 207.5425" style="stroke:rgb(255,238,101);stroke-width:1" /><circle cx="405" cy="207.5425" r="2" style="fill:rgb(255,238,101);stroke:none;fill-opacity:1;stroke-opacity:1;" /><path d="M 405 207.5425 L 338.96576 216.52" style="stroke:rgb(255,238,101);stroke-width:1" /><circle cx="338.96576" cy="216.52" r="2" style="fill:rgb(255,238,101);stroke:none;fill-opacity:1;stroke-opacity:1;" /><path d="M 338.96576 216.52 L 292.11377 222.1275" style="stroke:rgb(255,238,101);stroke-width:1" /><circle cx="292.11377" cy="222.1275" r="2" style="fill:rgb(255,238,101);stroke:none;fill-opacity:1;stroke-opacity:1;" /><path d="M 292.11377 222.1275 L 255.7725 227.555" style="stroke:rgb(255,238,101);stroke-width:1" /><circle cx="255.7725" cy="227.555" r="2" style="fill:rgb(255,238,101);stroke:none;fill-opacity:1;stroke-opacity:1;" /><path d="M 255.7725 227.555 L 142.88626 242.18" style="stroke:rgb(255,238,101);stroke-width:1" /><circle cx="142.88626" cy="242.18" r="2" style="fill:rgb(255,238,101);stroke:none;fill-opacity:1;stroke-opacity:1;" /><path d="M 142.88626 242.18 L 30 249.03" style="stroke:rgb(255,238,101);stroke-width:1" /><circle cx="30" cy="249.03" r="2" style="fill:rgb(255,238,101);stroke:none;fill-opacity:1;stroke-opacity:1;" /><circle cx="780" cy="226.7" r="2" style="fill:rgb(119,211,179);stroke:none;fill-opacity:1;stroke-opacity:1;" /><path d="M 780 226.7 L 630.77246 238.02" style="stroke:rgb(119,211,179);stroke-width:1" /><circle cx="630.77246" cy="238.02" r="2" style="fill:rgb(119,211,179);stroke:none;fill-opacity:1;stroke-opacity:1;" /><path d="M 630.77246 238.02 L 517.8862 243.93" style="stroke:rgb(119,211,179);stroke-width:1" /><circle cx="517.8862" cy="243.93" r="2" style="fill:rgb(119,211,179);stroke:none;fill-opacity:1;stroke-opacity:1;" /><path d="M 517.8862 243.93 L 451.85202 246.8875" style="stroke:rgb(119,211,179);stroke-width:1" /><circle cx="451.85202" cy="246.8875" r="2" style="fill:rgb(119,211,179);stroke:none;fill-opacity:1;stroke-opacity:1;" /><path d="M 451.85202 246.8875 L 405 249.0025" style="stroke:rgb(119,211,179);stroke-width:1" /><circle cx="405" cy="249.0025" r="2" style="fill:rgb(119,211,179);stroke:none;fill-opacity:1;stroke-opacity:1;" /><path d="M 405 249.0025 L 338.96576 251.3575" style="stroke:rgb(119,211,179);stroke-width:1" /><circle cx="338.96576" cy="251.3575" r="2" style="fill:rgb(119,211,179);stroke:none;fill-opacity:1;stroke-opacity:1;" /><path d="M 338.96576 251.3575 L 292.11377 252.74" style="stroke:rgb(119,211,179);stroke-width:1" /><circle cx="292.11377" cy="252.74" r="2" style="fill:rgb(119,211,179);stroke:none;fill-opacity:1;stroke-opacity:1;" /><path d="M 292.11377 252.74 L 255.7725 253.8475" style="stroke:rgb(119,211,179);stroke-width:1" /><circle cx="255.7725" cy="253.8475" r="2" style="fill:rgb(119,211,179);stroke:none;fill-opacity:1;stroke-opacity:1;" /><path d="M 255.7725 253.8475 L 142.88626 257.0575" style="stroke:rgb(119,211,179);stroke-width:1" /><circle cx="142.88626" cy="257.0575" r="2" style="fill:rgb(119,211,179);stroke:none;fill-opacity:1;stroke-opacity:1;" /><path d="M 142.88626 257.0575 L 30 259.1325" style="stroke:rgb(119,211,179);stroke-width:1" /><circle cx="30" cy="259.1325" r="2" style="fill:rgb(119,211,179);stroke:none;fill-opacity:1;stroke-opacity:1;" /><circle cx="780" cy="239.0875" r="2" style="fill:rgb(253,204,229);stroke:none;fill-opacity:1;stroke-opacity:1;" /><path d="M 780 239.0875 L 630.77246 248.48" style="stroke:rgb(253,204,229);stroke-width:1" /><circle cx="630.77246" cy="248.48" r="2" style="fill:rgb(253,204,229);stroke:none;fill-opacity:1;stroke-opacity:1;" /><path d="M 630.77246 248.48 L 517.8862 253.195" style="stroke:rgb(253,204,229);stroke-width:1" /><circle cx="517.8862" cy="253.195" r="2" style="fill:rgb(253,204,229);stroke:none;fill-opacity:1;stroke-opacity:1;" /><path d="M 517.8862 253.195 L 451.85202 255.315" style="stroke:rgb(253,204,229);stroke-width:1" /><circle cx="451.85202" cy="255.315" r="2" style="fill:rgb(253,204,229);stroke:none;fill-opacity:1;stroke-opacity:1;" /><path d="M 451.85202 255.315 L 405 256.65" style="stroke:rgb(253,204,229);stroke-width:1" /><circle cx="405" cy="256.65" r="2" style="fill:rgb(253,204,229);stroke:none;fill-opacity:1;stroke-opacity:1;" /><path d="M 405 256.65 L 338.96576 258.2375" style="stroke:rgb(253,204,229);stroke-width:1" /><circle cx="338.96576" cy="258.2375" r="2" style="fill:rgb(253,204,229);stroke:none;fill-opacity:1;stroke-opacity:1;" /><path d="M 338.96576 258.2375 L 292.11377 259.3875" style="stroke:rgb(253,204,229);stroke-width:1" /><circle cx="292.11377" cy="259.3875" r="2" style="fill:rgb(253,204,229);stroke:none;fill-opacity:1;stroke-opacity:1;" /><path d="M 292.11377 259.3875 L 255.7725 260.1575" style="stroke:rgb(253,204,229);stroke-width:1" /><circle cx="255.7725" cy="260.1575" r="2" style="fill:rgb(253,204,229);stroke:none;fill-opacity:1;stroke-opacity:1;" /><path d="M 255.7725 260.1575 L 142.88626 262.08" style="stroke:rgb(253,204,229);stroke-width:1" /><circle cx="142.88626" cy="262.08" r="2" style="fill:rgb(253,204,229);stroke:none;fill-opacity:1;stroke-opacity:1;" /><path d="M 142.88626 262.08 L 30 263.5675" style="stroke:rgb(253,204,229);stroke-width:1" /><circle cx="30" cy="263.5675" r="2" style="fill:rgb(253,204,229);stroke:none;fill-opacity:1;stroke-opacity:1;" /><circle cx="780" cy="242.2125" r="2" style="fill:rgb(253,127,111);stroke:none;fill-opacity:1;stroke-opacity:1;" /><path d="M 780 242.2125 L 630.77246 250.4675" style="stroke:rgb(253,127,111);stroke-width:1" /><circle cx="630.77246" cy="250.4675" r="2" style="fill:rgb(253,127,111);stroke:none;fill-opacity:1;stroke-opacity:1;" /><path d="M 630.77246 250.4675 L 517.8862 254.51" style="stroke:rgb(253,127,111);stroke-width:1" /><circle cx="517.8862" cy="254.51" r="2" style="fill:rgb(253,127,111);stroke:none;fill-opacity:1;stroke-opacity:1;" /><path d="M 517.8862 254.51 L 451.85202 256.37" style="stroke:rgb(253,127,111);stroke-width:1" /><circle cx="451.85202" cy="256.37" r="2" style="fill:rgb(253,127,111);stroke:none;fill-opacity:1;stroke-opacity:1;" /><path d="M 451.85202 256.37 L 405 257.59" style="stroke:rgb(253,127,111);stroke-width:1" /><circle cx="405" cy="257.59" r="2" style="fill:rgb(253,127,111);stroke:none;fill-opacity:1;stroke-opacity:1;" /><path d="M 405 257.59 L 338.96576 259.075" style="stroke:rgb(253,127,111);stroke-width:1" /><circle cx="338.96576" cy="259.075" r="2" style="fill:rgb(253,127,111);stroke:none;fill-opacity:1;stroke-opacity:1;" /><path d="M 338.96576 259.075 L 292.11377 260.0525" style="stroke:rgb(253,127,111);stroke-width:1" /><circle cx="292.11377" cy="260.0525" r="2" style="fill:rgb(253,127,111);stroke:none;fill-opacity:1;stroke-opacity:1;" /><path d="M 292.11377 260.0525 L 255.7725 260.715" style="stroke:rgb(253,127,111);stroke-width:1" /><circle cx="255.7725" cy="260.715" r="2" style="fill:rgb(253,127,111);stroke:none;fill-opacity:1;stroke-opacity:1;" /><path d="M 255.7725 260.715 L 142.88626 262.3825" style="stroke:rgb(253,127,111);stroke-width:1" /><circle cx="142.88626" cy="262.3825" r="2" style="fill:rgb(253,127,111);stroke:none;fill-opacity:1;stroke-opacity:1;" /><path d="M 142.88626 262.3825 L 30 263.7475" style="stroke:rgb(253,127,111);stroke-width:1" /><circle cx="30" cy="263.7475" r="2" style="fill:rgb(253,127,111);stroke:none;fill-opacity:1;stroke-opacity:1;" /><rect x="676" y="16" width="80" height="196" ry="4" style="fill:rgb(30,30,30);stroke:none;fill-opacity:0.8;stroke-opacity:1;" /><rect x="680" y="20" width="20" height="20" ry="2" style="fill:rgb(253,127,111);stroke:none;fill-opacity:1;stroke-opacity:1;" /><text x="705" y="33" style="font-size:10px;fill:rgb(255,255,255);text-anchor:start;text-align:left;"> fwd-diff </text><rect x="680" y="41" width="20" height="20" ry="2" style="fill:rgb(255,181,90);stroke:none;fill-opacity:1;stroke-opacity:1;" /><text x="705" y="54" style="font-size:10px;fill:rgb(255,255,255);text-anchor:start;text-align:left;"> hain </text><rect x="680" y="62" width="20" height="20" ry="2" style="fill:rgb(50,125,209);stroke:none;fill-opacity:1;stroke-opacity:1;" /><text x="705" y="75" style="font-size:10px;fill:rgb(255,255,255);text-anchor:start;text-align:left;"> levien </text><rect x="680" y="83" width="20" height="20" ry="2" style="fill:rgb(119,211,179);stroke:none;fill-opacity:1;stroke-opacity:1;" /><text x="705" y="96" style="font-size:10px;fill:rgb(255,255,255);text-anchor:start;text-align:left;"> levien-linear </text><rect x="680" y="104" width="20" height="20" ry="2" style="fill:rgb(126,176,213);stroke:none;fill-opacity:1;stroke-opacity:1;" /><text x="705" y="117" style="font-size:10px;fill:rgb(255,255,255);text-anchor:start;text-align:left;"> levien-simd </text><rect x="680" y="125" width="20" height="20" ry="2" style="fill:rgb(128,214,87);stroke:none;fill-opacity:1;stroke-opacity:1;" /><text x="705" y="138" style="font-size:10px;fill:rgb(255,255,255);text-anchor:start;text-align:left;"> linear </text><rect x="680" y="146" width="20" height="20" ry="2" style="fill:rgb(255,238,101);stroke:none;fill-opacity:1;stroke-opacity:1;" /><text x="705" y="159" style="font-size:10px;fill:rgb(255,255,255);text-anchor:start;text-align:left;"> recursive </text><rect x="680" y="167" width="20" height="20" ry="2" style="fill:rgb(253,204,229);stroke:none;fill-opacity:1;stroke-opacity:1;" /><text x="705" y="180" style="font-size:10px;fill:rgb(255,255,255);text-anchor:start;text-align:left;"> wang </text><rect x="680" y="188" width="20" height="20" ry="2" style="fill:rgb(199,126,190);stroke:none;fill-opacity:1;stroke-opacity:1;" /><text x="705" y="201" style="font-size:10px;fill:rgb(255,255,255);text-anchor:start;text-align:left;"> wang-simd </text><text x="400" y="30" style="font-size:20px;fill:rgb(255,255,255);text-anchor:middle;text-align:center;"> all dataset: quadratic </text><text x="400" y="42" style="font-size:8px;fill:rgb(200,200,200);text-anchor:middle;text-align:center;"> Normalized performance score (lower is better) </text></svg>