<svg xmlns="http://www.w3.org/2000/svg" viewBox="0 0 800 300"><rect x="0" y="0" width="800" height="300" ry="6" style="fill:rgb(30,30,30);stroke:none;fill-opacity:1;stroke-opacity:1;" /><path d="M 30 20 L 30 270" style="stroke:rgb(200,200,200);stroke-width:1" /><path d="M 30 270 L 780 270" style="stroke:rgb(200,200,200);stroke-width:1" /><path d="M 780 270 L 780 272" style="stroke:rgb(200,200,200);stroke-width:1" /><text x="780" y="282" style="font-size:10px;fill:rgb(200,200,200);text-anchor:middle;text-align:center;"> 0.01 </text><path d="M 630.77246 270 L 630.77246 272" style="stroke:rgb(200,200,200);stroke-width:1" /><text x="630.77246" y="282" style="font-size:10px;fill:rgb(200,200,200);text-anchor:middle;text-align:center;"> 0.025 </text><path d="M 517.8862 270 L 517.8862 272" style="stroke:rgb(200,200,200);stroke-width:1" /><text x="517.8862" y="282" style="font-size:10px;fill:rgb(200,200,200);text-anchor:middle;text-align:center;"> 0.05 </text><path d="M 451.85202 270 L 451.85202 272" style="stroke:rgb(200,200,200);stroke-width:1" /><text x="451.85202" y="282" style="font-size:10px;fill:rgb(200,200,200);text-anchor:middle;text-align:center;"> 0.075 </text><path d="M 405 270 L 405 272" style="stroke:rgb(200,200,200);stroke-width:1" /><text x="405" y="282" style="font-size:10px;fill:rgb(200,200,200);text-anchor:middle;text-align:center;"> 0.1 </text><path d="M 338.96576 270 L 338.96576 272" style="stroke:rgb(200,200,200);stroke-width:1" /><text x="338.96576" y="282" style="font-size:10px;fill:rgb(200,200,200);text-anchor:middle;text-align:center;"> 0.15 </text><path d="M 292.11377 270 L 292.11377 272" style="stroke:rgb(200,200,200);stroke-width:1" /><text x="292.11377" y="282" style="font-size:10px;fill:rgb(200,200,200);text-anchor:middle;text-align:center;"> 0.2 </text><path d="M 255.7725 270 L 255.7725 272" style="stroke:rgb(200,200,200);stroke-width:1" /><text x="255.7725" y="282" style="font-size:10px;fill:rgb(200,200,200);text-anchor:middle;text-align:center;"> 0.25 </text><path d="M 142.88626 270 L 142.88626 272" style="stroke:rgb(200,200,200);stroke-width:1" /><text x="142.88626" y="282" style="font-size:10px;fill:rgb(200,200,200);text-anchor:middle;text-align:center;"> 0.5 </text><path d="M 30 270 L 30 272" style="stroke:rgb(200,200,200);stroke-width:1" /><text x="30" y="282" style="font-size:10px;fill:rgb(200,200,200);text-anchor:middle;text-align:center;"> 1 </text><path d="M 28 270 L 30 270" style="stroke:rgb(200,200,200);stroke-width:1" /><text x="26" y="274" style="font-size:10px;fill:rgb(200,200,200);text-anchor:end;text-align:right;"> 0 </text><path d="M 28 207.5 L 30 207.5" style="stroke:rgb(200,200,200);stroke-width:1" /><text x="26" y="211.5" style="font-size:10px;fill:rgb(200,200,200);text-anchor:end;text-align:right;"> 0.25 </text><path d="M 28 145 L 30 145" style="stroke:rgb(200,200,200);stroke-width:1" /><text x="26" y="149" style="font-size:10px;fill:rgb(200,200,200);text-anchor:end;text-align:right;"> 0.5 </text><path d="M 28 82.5 L 30 82.5" style="stroke:rgb(200,200,200);stroke-width:1" /><text x="26" y="86.5" style="font-size:10px;fill:rgb(200,200,200);text-anchor:end;text-align:right;"> 0.75 </text><path d="M 28 20 L 30 20" style="stroke:rgb(200,200,200);stroke-width:1" /><text x="26" y="24" style="font-size:10px;fill:rgb(200,200,200);text-anchor:end;text-align:right;"> 1 </text><text x="400" y="294" style="font-size:10px;fill:rgb(200,200,200);text-anchor:middle;text-align:center;"> Tolerance </text><circle cx="780" cy="253.245" r="2" style="fill:rgb(199,126,190);stroke:none;fill-opacity:1;stroke-opacity:1;" /><path d="M 780 253.245 L 630.77246 257.11" style="stroke:rgb(199,126,190);stroke-width:1" /><circle cx="630.77246" cy="257.11" r="2" style="fill:rgb(199,126,190);stroke:none;fill-opacity:1;stroke-opacity:1;" /><path d="M 630.77246 257.11 L 517.8862 259.13" style="stroke:rgb(199,126,190);stroke-width:1" /><circle cx="517.8862" cy="259.13" r="2" style="fill:rgb(199,126,190);stroke:none;fill-opacity:1;stroke-opacity:1;" /><path d="M 517.8862 259.13 L 451.85202 260.2125" style="stroke:rgb(199,126,190);stroke-width:1" /><circle cx="451.85202" cy="260.2125" r="2" style="fill:rgb(199,126,190);stroke:none;fill-opacity:1;stroke-opacity:1;" /><path d="M 451.85202 260.2125 L 405 260.7375" style="stroke:rgb(199,126,190);stroke-width:1" /><circle cx="405" cy="260.7375" r="2" style="fill:rgb(199,126,190);stroke:none;fill-opacity:1;stroke-opacity:1;" /><path d="M 405 260.7375 L 338.96576 261.415" style="stroke:rgb(199,126,190);stroke-width:1" /><circle cx="338.96576" cy="261.415" r="2" style="fill:rgb(199,126,190);stroke:none;fill-opacity:1;stroke-opacity:1;" /><path d="M 338.96576 261.415 L 292.11377 261.8725" style="stroke:rgb(199,126,190);stroke-width:1" /><circle cx="292.11377" cy="261.8725" r="2" style="fill:rgb(199,126,190);stroke:none;fill-opacity:1;stroke-opacity:1;" /><path d="M 292.11377 261.8725 L 255.7725 262.2975" style="stroke:rgb(199,126,190);stroke-width:1" /><circle cx="255.7725" cy="262.2975" r="2" style="fill:rgb(199,126,190);stroke:none;fill-opacity:1;stroke-opacity:1;" /><path d="M 255.7725 262.2975 L 142.88626 263.27" style="stroke:rgb(199,126,190);stroke-width:1" /><circle cx="142.88626" cy="263.27" r="2" style="fill:rgb(199,126,190);stroke:none;fill-opacity:1;stroke-opacity:1;" /><path d="M 142.88626 263.27 L 30 264.145" style="stroke:rgb(199,126,190);stroke-width:1" /><circle cx="30" cy="264.145" r="2" style="fill:rgb(199,126,190);stroke:none;fill-opacity:1;stroke-opacity:1;" /><circle cx="780" cy="151.9375" r="2" style="fill:rgb(255,238,101);stroke:none;fill-opacity:1;stroke-opacity:1;" /><path d="M 780 151.9375 L 630.77246 194.02249" style="stroke:rgb(255,238,101);stroke-width:1" /><circle cx="630.77246" cy="194.02249" r="2" style="fill:rgb(255,238,101);stroke:none;fill-opacity:1;stroke-opacity:1;" /><path d="M 630.77246 194.02249 L 517.8862 214.85" style="stroke:rgb(255,238,101);stroke-width:1" /><circle cx="517.8862" cy="214.85" r="2" style="fill:rgb(255,238,101);stroke:none;fill-opacity:1;stroke-opacity:1;" /><path d="M 517.8862 214.85 L 451.85202 224.83499" style="stroke:rgb(255,238,101);stroke-width:1" /><circle cx="451.85202" cy="224.83499" r="2" style="fill:rgb(255,238,101);stroke:none;fill-opacity:1;stroke-opacity:1;" /><path d="M 451.85202 224.83499 L 405 231.4125" style="stroke:rgb(255,238,101);stroke-width:1" /><circle cx="405" cy="231.4125" r="2" style="fill:rgb(255,238,101);stroke:none;fill-opacity:1;stroke-opacity:1;" /><path d="M 405 231.4125 L 338.96576 239.495" style="stroke:rgb(255,238,101);stroke-width:1" /><circle cx="338.96576" cy="239.495" r="2" style="fill:rgb(255,238,101);stroke:none;fill-opacity:1;stroke-opacity:1;" /><path d="M 338.96576 239.495 L 292.11377 243.99" style="stroke:rgb(255,238,101);stroke-width:1" /><circle cx="292.11377" cy="243.99" r="2" style="fill:rgb(255,238,101);stroke:none;fill-opacity:1;stroke-opacity:1;" /><path d="M 292.11377 243.99 L 255.7725 247.0075" style="stroke:rgb(255,238,101);stroke-width:1" /><circle cx="255.7725" cy="247.0075" r="2" style="fill:rgb(255,238,101);stroke:none;fill-opacity:1;stroke-opacity:1;" /><path d="M 255.7725 247.0075 L 142.88626 255.0125" style="stroke:rgb(255,238,101);stroke-width:1" /><circle cx="142.88626" cy="255.0125" r="2" style="fill:rgb(255,238,101);stroke:none;fill-opacity:1;stroke-opacity:1;" /><path d="M 142.88626 255.0125 L 30 260.4675" style="stroke:rgb(255,238,101);stroke-width:1" /><circle cx="30" cy="260.4675" r="2" style="fill:rgb(255,238,101);stroke:none;fill-opacity:1;stroke-opacity:1;" /><circle cx="780" cy="167.14499" r="2" style="fill:rgb(119,211,179);stroke:none;fill-opacity:1;stroke-opacity:1;" /><path d="M 780 167.14499 L 630.77246 191.195" style="stroke:rgb(119,211,179);stroke-width:1" /><circle cx="630.77246" cy="191.195" r="2" style="fill:rgb(119,211,179);stroke:none;fill-opacity:1;stroke-opacity:1;" /><path d="M 630.77246 191.195 L 517.8862 204.7425" style="stroke:rgb(119,211,179);stroke-width:1" /><circle cx="517.8862" cy="204.7425" r="2" style="fill:rgb(119,211,179);stroke:none;fill-opacity:1;stroke-opacity:1;" /><path d="M 517.8862 204.7425 L 451.85202 211.3125" style="stroke:rgb(119,211,179);stroke-width:1" /><circle cx="451.85202" cy="211.3125" r="2" style="fill:rgb(119,211,179);stroke:none;fill-opacity:1;stroke-opacity:1;" /><path d="M 451.85202 211.3125 L 405 218.7125" style="stroke:rgb(119,211,179);stroke-width:1" /><circle cx="405" cy="218.7125" r="2" style="fill:rgb(119,211,179);stroke:none;fill-opacity:1;stroke-opacity:1;" /><path d="M 405 218.7125 L 338.96576 226.39749" style="stroke:rgb(119,211,179);stroke-width:1" /><circle cx="338.96576" cy="226.39749" r="2" style="fill:rgb(119,211,179);stroke:none;fill-opacity:1;stroke-opacity:1;" /><path d="M 338.96576 226.39749 L 292.11377 232.4625" style="stroke:rgb(119,211,179);stroke-width:1" /><circle cx="292.11377" cy="232.4625" r="2" style="fill:rgb(119,211,179);stroke:none;fill-opacity:1;stroke-opacity:1;" /><path d="M 292.11377 232.4625 L 255.7725 237.42" style="stroke:rgb(119,211,179);stroke-width:1" /><circle cx="255.7725" cy="237.42" r="2" style="fill:rgb(119,211,179);stroke:none;fill-opacity:1;stroke-opacity:1;" /><path d="M 255.7725 237.42 L 142.88626 250.98" style="stroke:rgb(119,211,179);stroke-width:1" /><circle cx="142.88626" cy="250.98" r="2" style="fill:rgb(119,211,179);stroke:none;fill-opacity:1;stroke-opacity:1;" /><path d="M 142.88626 250.98 L 30 258.6675" style="stroke:rgb(119,211,179);stroke-width:1" /><circle cx="30" cy="258.6675" r="2" style="fill:rgb(119,211,179);stroke:none;fill-opacity:1;stroke-opacity:1;" /><circle cx="780" cy="167.54001" r="2" style="fill:rgb(126,176,213);stroke:none;fill-opacity:1;stroke-opacity:1;" /><path d="M 780 167.54001 L 630.77246 190.155" style="stroke:rgb(126,176,213);stroke-width:1" /><circle cx="630.77246" cy="190.155" r="2" style="fill:rgb(126,176,213);stroke:none;fill-opacity:1;stroke-opacity:1;" /><path d="M 630.77246 190.155 L 517.8862 202.985" style="stroke:rgb(126,176,213);stroke-width:1" /><circle cx="517.8862" cy="202.985" r="2" style="fill:rgb(126,176,213);stroke:none;fill-opacity:1;stroke-opacity:1;" /><path d="M 517.8862 202.985 L 451.85202 209.0075" style="stroke:rgb(126,176,213);stroke-width:1" /><circle cx="451.85202" cy="209.0075" r="2" style="fill:rgb(126,176,213);stroke:none;fill-opacity:1;stroke-opacity:1;" /><path d="M 451.85202 209.0075 L 405 213.5925" style="stroke:rgb(126,176,213);stroke-width:1" /><circle cx="405" cy="213.5925" r="2" style="fill:rgb(126,176,213);stroke:none;fill-opacity:1;stroke-opacity:1;" /><path d="M 405 213.5925 L 338.96576 218.385" style="stroke:rgb(126,176,213);stroke-width:1" /><circle cx="338.96576" cy="218.385" r="2" style="fill:rgb(126,176,213);stroke:none;fill-opacity:1;stroke-opacity:1;" /><path d="M 338.96576 218.385 L 292.11377 222.41" style="stroke:rgb(126,176,213);stroke-width:1" /><circle cx="292.11377" cy="222.41" r="2" style="fill:rgb(126,176,213);stroke:none;fill-opacity:1;stroke-opacity:1;" /><path d="M 292.11377 222.41 L 255.7725 224.725" style="stroke:rgb(126,176,213);stroke-width:1" /><circle cx="255.7725" cy="224.725" r="2" style="fill:rgb(126,176,213);stroke:none;fill-opacity:1;stroke-opacity:1;" /><path d="M 255.7725 224.725 L 142.88626 230.795" style="stroke:rgb(126,176,213);stroke-width:1" /><circle cx="142.88626" cy="230.795" r="2" style="fill:rgb(126,176,213);stroke:none;fill-opacity:1;stroke-opacity:1;" /><path d="M 142.88626 230.795 L 30 234.845" style="stroke:rgb(126,176,213);stroke-width:1" /><circle cx="30" cy="234.845" r="2" style="fill:rgb(126,176,213);stroke:none;fill-opacity:1;stroke-opacity:1;" /><circle cx="780" cy="57.057495" r="2" style="fill:rgb(50,125,209);stroke:none;fill-opacity:1;stroke-opacity:1;" /><path d="M 780 57.057495 L 630.77246 109.66" style="stroke:rgb(50,125,209);stroke-width:1" /><circle cx="630.77246" cy="109.66" r="2" style="fill:rgb(50,125,209);stroke:none;fill-opacity:1;stroke-opacity:1;" /><path d="M 630.77246 109.66 L 517.8862 139.6875" style="stroke:rgb(50,125,209);stroke-width:1" /><circle cx="517.8862" cy="139.6875" r="2" style="fill:rgb(50,125,209);stroke:none;fill-opacity:1;stroke-opacity:1;" /><path d="M 517.8862 139.6875 L 451.85202 153.7025" style="stroke:rgb(50,125,209);stroke-width:1" /><circle cx="451.85202" cy="153.7025" r="2" style="fill:rgb(50,125,209);stroke:none;fill-opacity:1;stroke-opacity:1;" /><path d="M 451.85202 153.7025 L 405 163.7" style="stroke:rgb(50,125,209);stroke-width:1" /><circle cx="405" cy="163.7" r="2" style="fill:rgb(50,125,209);stroke:none;fill-opacity:1;stroke-opacity:1;" /><path d="M 405 163.7 L 338.96576 174.38501" style="stroke:rgb(50,125,209);stroke-width:1" /><circle cx="338.96576" cy="174.38501" r="2" style="fill:rgb(50,125,209);stroke:none;fill-opacity:1;stroke-opacity:1;" /><path d="M 338.96576 174.38501 L 292.11377 181.3825" style="stroke:rgb(50,125,209);stroke-width:1" /><circle cx="292.11377" cy="181.3825" r="2" style="fill:rgb(50,125,209);stroke:none;fill-opacity:1;stroke-opacity:1;" /><path d="M 292.11377 181.3825 L 255.7725 186.7575" style="stroke:rgb(50,125,209);stroke-width:1" /><circle cx="255.7725" cy="186.7575" r="2" style="fill:rgb(50,125,209);stroke:none;fill-opacity:1;stroke-opacity:1;" /><path d="M 255.7725 186.7575 L 142.88626 199.8375" style="stroke:rgb(50,125,209);stroke-width:1" /><circle cx="142.88626" cy="199.8375" r="2" style="fill:rgb(50,125,209);stroke:none;fill-opacity:1;stroke-opacity:1;" /><path d="M 142.88626 199.8375 L 30 211.02249" style="stroke:rgb(50,125,209);stroke-width:1" /><circle cx="30" cy="211.02249" r="2" style="fill:rgb(50,125,209);stroke:none;fill-opacity:1;stroke-opacity:1;" /><circle cx="780" cy="125.8725" r="2" style="fill:rgb(128,214,87);stroke:none;fill-opacity:1;stroke-opacity:1;" /><path d="M 780 125.8725 L 630.77246 178.655" style="stroke:rgb(128,214,87);stroke-width:1" /><circle cx="630.77246" cy="178.655" r="2" style="fill:rgb(128,214,87);stroke:none;fill-opacity:1;stroke-opacity:1;" /><path d="M 630.77246 178.655 L 517.8862 205.9375" style="stroke:rgb(128,214,87);stroke-width:1" /><circle cx="517.8862" cy="205.9375" r="2" style="fill:rgb(128,214,87);stroke:none;fill-opacity:1;stroke-opacity:1;" /><path d="M 517.8862 205.9375 L 451.85202 219.1675" style="stroke:rgb(128,214,87);stroke-width:1" /><circle cx="451.85202" cy="219.1675" r="2" style="fill:rgb(128,214,87);stroke:none;fill-opacity:1;stroke-opacity:1;" /><path d="M 451.85202 219.1675 L 405 227.9875" style="stroke:rgb(128,214,87);stroke-width:1" /><circle cx="405" cy="227.9875" r="2" style="fill:rgb(128,214,87);stroke:none;fill-opacity:1;stroke-opacity:1;" /><path d="M 405 227.9875 L 338.96576 238.425" style="stroke:rgb(128,214,87);stroke-width:1" /><circle cx="338.96576" cy="238.425" r="2" style="fill:rgb(128,214,87);stroke:none;fill-opacity:1;stroke-opacity:1;" /><path d="M 338.96576 238.425 L 292.11377 244.5275" style="stroke:rgb(128,214,87);stroke-width:1" /><circle cx="292.11377" cy="244.5275" r="2" style="fill:rgb(128,214,87);stroke:none;fill-opacity:1;stroke-opacity:1;" /><path d="M 292.11377 244.5275 L 255.7725 248.83" style="stroke:rgb(128,214,87);stroke-width:1" /><circle cx="255.7725" cy="248.83" r="2" style="fill:rgb(128,214,87);stroke:none;fill-opacity:1;stroke-opacity:1;" /><path d="M 255.7725 248.83 L 142.88626 256.6" style="stroke:rgb(128,214,87);stroke-width:1" /><circle cx="142.88626" cy="256.6" r="2" style="fill:rgb(128,214,87);stroke:none;fill-opacity:1;stroke-opacity:1;" /><path d="M 142.88626 256.6 L 30 261.3025" style="stroke:rgb(128,214,87);stroke-width:1" /><circle cx="30" cy="261.3025" r="2" style="fill:rgb(128,214,87);stroke:none;fill-opacity:1;stroke-opacity:1;" /><circle cx="780" cy="247.2875" r="2" style="fill:rgb(253,204,229);stroke:none;fill-opacity:1;stroke-opacity:1;" /><path d="M 780 247.2875 L 630.77246 253.09" style="stroke:rgb(253,204,229);stroke-width:1" /><circle cx="630.77246" cy="253.09" r="2" style="fill:rgb(253,204,229);stroke:none;fill-opacity:1;stroke-opacity:1;" /><path d="M 630.77246 253.09 L 517.8862 256.155" style="stroke:rgb(253,204,229);stroke-width:1" /><circle cx="517.8862" cy="256.155" r="2" style="fill:rgb(253,204,229);stroke:none;fill-opacity:1;stroke-opacity:1;" /><path d="M 517.8862 256.155 L 451.85202 257.6225" style="stroke:rgb(253,204,229);stroke-width:1" /><circle cx="451.85202" cy="257.6225" r="2" style="fill:rgb(253,204,229);stroke:none;fill-opacity:1;stroke-opacity:1;" /><path d="M 451.85202 257.6225 L 405 258.385" style="stroke:rgb(253,204,229);stroke-width:1" /><circle cx="405" cy="258.385" r="2" style="fill:rgb(253,204,229);stroke:none;fill-opacity:1;stroke-opacity:1;" /><path d="M 405 258.385 L 338.96576 259.415" style="stroke:rgb(253,204,229);stroke-width:1" /><circle cx="338.96576" cy="259.415" r="2" style="fill:rgb(253,204,229);stroke:none;fill-opacity:1;stroke-opacity:1;" /><path d="M 338.96576 259.415 L 292.11377 259.95" style="stroke:rgb(253,204,229);stroke-width:1" /><circle cx="292.11377" cy="259.95" r="2" style="fill:rgb(253,204,229);stroke:none;fill-opacity:1;stroke-opacity:1;" /><path d="M 292.11377 259.95 L 255.7725 260.5" style="stroke:rgb(253,204,229);stroke-width:1" /><circle cx="255.7725" cy="260.5" r="2" style="fill:rgb(253,204,229);stroke:none;fill-opacity:1;stroke-opacity:1;" /><path d="M 255.7725 260.5 L 142.88626 261.7175" style="stroke:rgb(253,204,229);stroke-width:1" /><circle cx="142.88626" cy="261.7175" r="2" style="fill:rgb(253,204,229);stroke:none;fill-opacity:1;stroke-opacity:1;" /><path d="M 142.88626 261.7175 L 30 262.865" style="stroke:rgb(253,204,229);stroke-width:1" /><circle cx="30" cy="262.865" r="2" style="fill:rgb(253,204,229);stroke:none;fill-opacity:1;stroke-opacity:1;" /><circle cx="780" cy="20" r="2" style="fill:rgb(255,181,90);stroke:none;fill-opacity:1;stroke-opacity:1;" /><path d="M 780 20 L 630.77246 104.6375" style="stroke:rgb(255,181,90);stroke-width:1" /><circle cx="630.77246" cy="104.6375" r="2" style="fill:rgb(255,181,90);stroke:none;fill-opacity:1;stroke-opacity:1;" /><path d="M 630.77246 104.6375 L 517.8862 148.41751" style="stroke:rgb(255,181,90);stroke-width:1" /><circle cx="517.8862" cy="148.41751" r="2" style="fill:rgb(255,181,90);stroke:none;fill-opacity:1;stroke-opacity:1;" /><path d="M 517.8862 148.41751 L 451.85202 167.76001" style="stroke:rgb(255,181,90);stroke-width:1" /><circle cx="451.85202" cy="167.76001" r="2" style="fill:rgb(255,181,90);stroke:none;fill-opacity:1;stroke-opacity:1;" /><path d="M 451.85202 167.76001 L 405 179.1825" style="stroke:rgb(255,181,90);stroke-width:1" /><circle cx="405" cy="179.1825" r="2" style="fill:rgb(255,181,90);stroke:none;fill-opacity:1;stroke-opacity:1;" /><path d="M 405 179.1825 L 338.96576 192.67749" style="stroke:rgb(255,181,90);stroke-width:1" /><circle cx="338.96576" cy="192.67749" r="2" style="fill:rgb(255,181,90);stroke:none;fill-opacity:1;stroke-opacity:1;" /><path d="M 338.96576 192.67749 L 292.11377 201.5075" style="stroke:rgb(255,181,90);stroke-width:1" /><circle cx="292.11377" cy="201.5075" r="2" style="fill:rgb(255,181,90);stroke:none;fill-opacity:1;stroke-opacity:1;" /><path d="M 292.11377 201.5075 L 255.7725 206.79999" style="stroke:rgb(255,181,90);stroke-width:1" /><circle cx="255.7725" cy="206.79999" r="2" style="fill:rgb(255,181,90);stroke:none;fill-opacity:1;stroke-opacity:1;" /><path d="M 255.7725 206.79999 L 142.88626 222.15" style="stroke:rgb(255,181,90);stroke-width:1" /><circle cx="142.88626" cy="222.15" r="2" style="fill:rgb(255,181,90);stroke:none;fill-opacity:1;stroke-opacity:1;" /><path d="M 142.88626 222.15 L 30 232.3925" style="stroke:rgb(255,181,90);stroke-width:1" /><circle cx="30" cy="232.3925" r="2" style="fill:rgb(255,181,90);stroke:none;fill-opacity:1;stroke-opacity:1;" /><circle cx="780" cy="249.24" r="2" style="fill:rgb(253,127,111);stroke:none;fill-opacity:1;stroke-opacity:1;" /><path d="M 780 249.24 L 630.77246 254.0925" style="stroke:rgb(253,127,111);stroke-width:1" /><circle cx="630.77246" cy="254.0925" r="2" style="fill:rgb(253,127,111);stroke:none;fill-opacity:1;stroke-opacity:1;" /><path d="M 630.77246 254.0925 L 517.8862 256.605" style="stroke:rgb(253,127,111);stroke-width:1" /><circle cx="517.8862" cy="256.605" r="2" style="fill:rgb(253,127,111);stroke:none;fill-opacity:1;stroke-opacity:1;" /><path d="M 517.8862 256.605 L 451.85202 257.7025" style="stroke:rgb(253,127,111);stroke-width:1" /><circle cx="451.85202" cy="257.7025" r="2" style="fill:rgb(253,127,111);stroke:none;fill-opacity:1;stroke-opacity:1;" /><path d="M 451.85202 257.7025 L 405 258.49" style="stroke:rgb(253,127,111);stroke-width:1" /><circle cx="405" cy="258.49" r="2" style="fill:rgb(253,127,111);stroke:none;fill-opacity:1;stroke-opacity:1;" /><path d="M 405 258.49 L 338.96576 259.275" style="stroke:rgb(253,127,111);stroke-width:1" /><circle cx="338.96576" cy="259.275" r="2" style="fill:rgb(253,127,111);stroke:none;fill-opacity:1;stroke-opacity:1;" /><path d="M 338.96576 259.275 L 292.11377 259.785" style="stroke:rgb(253,127,111);stroke-width:1" /><circle cx="292.11377" cy="259.785" r="2" style="fill:rgb(253,127,111);stroke:none;fill-opacity:1;stroke-opacity:1;" /><path d="M 292.11377 259.785 L 255.7725 260.185" style="stroke:rgb(253,127,111);stroke-width:1" /><circle cx="255.7725" cy="260.185" r="2" style="fill:rgb(253,127,111);stroke:none;fill-opacity:1;stroke-opacity:1;" /><path d="M 255.7725 260.185 L 142.88626 261.4025" style="stroke:rgb(253,127,111);stroke-width:1" /><circle cx="142.88626" cy="261.4025" r="2" style="fill:rgb(253,127,111);stroke:none;fill-opacity:1;stroke-opacity:1;" /><path d="M 142.88626 261.4025 L 30 262.515" style="stroke:rgb(253,127,111);stroke-width:1" /><circle cx="30" cy="262.515" r="2" style="fill:rgb(253,127,111);stroke:none;fill-opacity:1;stroke-opacity:1;" /><rect x="676" y="16" width="80" height="196" ry="4" style="fill:rgb(30,30,30);stroke:none;fill-opacity:0.8;stroke-opacity:1;" /><rect x="680" y="20" width="20" height="20" ry="2" style="fill:rgb(253,127,111);stroke:none;fill-opacity:1;stroke-opacity:1;" /><text x="705" y="33" style="font-size:10px;fill:rgb(255,255,255);text-anchor:start;text-align:left;"> fwd-diff </text><rect x="680" y="41" width="20" height="20" ry="2" style="fill:rgb(255,181,90);stroke:none;fill-opacity:1;stroke-opacity:1;" /><text x="705" y="54" style="font-size:10px;fill:rgb(255,255,255);text-anchor:start;text-align:left;"> hain </text><rect x="680" y="62" width="20" height="20" ry="2" style="fill:rgb(50,125,209);stroke:none;fill-opacity:1;stroke-opacity:1;" /><text x="705" y="75" style="font-size:10px;fill:rgb(255,255,255);text-anchor:start;text-align:left;"> levien </text><rect x="680" y="83" width="20" height="20" ry="2" style="fill:rgb(119,211,179);stroke:none;fill-opacity:1;stroke-opacity:1;" /><text x="705" y="96" style="font-size:10px;fill:rgb(255,255,255);text-anchor:start;text-align:left;"> levien-linear </text><rect x="680" y="104" width="20" height="20" ry="2" style="fill:rgb(126,176,213);stroke:none;fill-opacity:1;stroke-opacity:1;" /><text x="705" y="117" style="font-size:10px;fill:rgb(255,255,255);text-anchor:start;text-align:left;"> levien-simd </text><rect x="680" y="125" width="20" height="20" ry="2" style="fill:rgb(128,214,87);stroke:none;fill-opacity:1;stroke-opacity:1;" /><text x="705" y="138" style="font-size:10px;fill:rgb(255,255,255);text-anchor:start;text-align:left;"> linear </text><rect x="680" y="146" width="20" height="20" ry="2" style="fill:rgb(255,238,101);stroke:none;fill-opacity:1;stroke-opacity:1;" /><text x="705" y="159" style="font-size:10px;fill:rgb(255,255,255);text-anchor:start;text-align:left;"> recursive </text><rect x="680" y="167" width="20" height="20" ry="2" style="fill:rgb(253,204,229);stroke:none;fill-opacity:1;stroke-opacity:1;" /><text x="705" y="180" style="font-size:10px;fill:rgb(255,255,255);text-anchor:start;text-align:left;"> wang </text><rect x="680" y="188" width="20" height="20" ry="2" style="fill:rgb(199,126,190);stroke:none;fill-opacity:1;stroke-opacity:1;" /><text x="705" y="201" style="font-size:10px;fill:rgb(255,255,255);text-anchor:start;text-align:left;"> wang-simd </text><text x="400" y="30" style="font-size:20px;fill:rgb(255,255,255);text-anchor:middle;text-align:center;"> Tiger </text><text x="400" y="42" style="font-size:8px;fill:rgb(200,200,200);text-anchor:middle;text-align:center;"> Normalized performance score (lower is better) </text></svg>