<svg xmlns="http://www.w3.org/2000/svg" viewBox="0 0 800 300"><rect x="0" y="0" width="800" height="300" ry="6" style="fill:rgb(30,30,30);stroke:none;fill-opacity:1;stroke-opacity:1;" /><path d="M 30 20 L 30 270" style="stroke:rgb(200,200,200);stroke-width:1" /><path d="M 30 270 L 780 270" style="stroke:rgb(200,200,200);stroke-width:1" /><path d="M 780 270 L 780 272" style="stroke:rgb(200,200,200);stroke-width:1" /><text x="780" y="282" style="font-size:10px;fill:rgb(200,200,200);text-anchor:middle;text-align:center;"> 0.01 </text><path d="M 630.77246 270 L 630.77246 272" style="stroke:rgb(200,200,200);stroke-width:1" /><text x="630.77246" y="282" style="font-size:10px;fill:rgb(200,200,200);text-anchor:middle;text-align:center;"> 0.025 </text><path d="M 517.8862 270 L 517.8862 272" style="stroke:rgb(200,200,200);stroke-width:1" /><text x="517.8862" y="282" style="font-size:10px;fill:rgb(200,200,200);text-anchor:middle;text-align:center;"> 0.05 </text><path d="M 451.85202 270 L 451.85202 272" style="stroke:rgb(200,200,200);stroke-width:1" /><text x="451.85202" y="282" style="font-size:10px;fill:rgb(200,200,200);text-anchor:middle;text-align:center;"> 0.075 </text><path d="M 405 270 L 405 272" style="stroke:rgb(200,200,200);stroke-width:1" /><text x="405" y="282" style="font-size:10px;fill:rgb(200,200,200);text-anchor:middle;text-align:center;"> 0.1 </text><path d="M 338.96576 270 L 338.96576 272" style="stroke:rgb(200,200,200);stroke-width:1" /><text x="338.96576" y="282" style="font-size:10px;fill:rgb(200,200,200);text-anchor:middle;text-align:center;"> 0.15 </text><path d="M 292.11377 270 L 292.11377 272" style="stroke:rgb(200,200,200);stroke-width:1" /><text x="292.11377" y="282" style="font-size:10px;fill:rgb(200,200,200);text-anchor:middle;text-align:center;"> 0.2 </text><path d="M 255.7725 270 L 255.7725 272" style="stroke:rgb(200,200,200);stroke-width:1" /><text x="255.7725" y="282" style="font-size:10px;fill:rgb(200,200,200);text-anchor:middle;text-align:center;"> 0.25 </text><path d="M 142.88626 270 L 142.88626 272" style="stroke:rgb(200,200,200);stroke-width:1" /><text x="142.88626" y="282" style="font-size:10px;fill:rgb(200,200,200);text-anchor:middle;text-align:center;"> 0.5 </text><path d="M 30 270 L 30 272" style="stroke:rgb(200,200,200);stroke-width:1" /><text x="30" y="282" style="font-size:10px;fill:rgb(200,200,200);text-anchor:middle;text-align:center;"> 1 </text><path d="M 28 270 L 30 270" style="stroke:rgb(200,200,200);stroke-width:1" /><text x="26" y="274" style="font-size:10px;fill:rgb(200,200,200);text-anchor:end;text-align:right;"> 0 </text><path d="M 28 207.5 L 30 207.5" style="stroke:rgb(200,200,200);stroke-width:1" /><text x="26" y="211.5" style="font-size:10px;fill:rgb(200,200,200);text-anchor:end;text-align:right;"> 0.25 </text><path d="M 28 145 L 30 145" style="stroke:rgb(200,200,200);stroke-width:1" /><text x="26" y="149" style="font-size:10px;fill:rgb(200,200,200);text-anchor:end;text-align:right;"> 0.5 </text><path d="M 28 82.5 L 30 82.5" style="stroke:rgb(200,200,200);stroke-width:1" /><text x="26" y="86.5" style="font-size:10px;fill:rgb(200,200,200);text-anchor:end;text-align:right;"> 0.75 </text><path d="M 28 20 L 30 20" style="stroke:rgb(200,200,200);stroke-width:1" /><text x="26" y="24" style="font-size:10px;fill:rgb(200,200,200);text-anchor:end;text-align:right;"> 1 </text><text x="400" y="294" style="font-size:10px;fill:rgb(200,200,200);text-anchor:middle;text-align:center;"> Tolerance </text><circle cx="780" cy="60.649994" r="2" style="fill:rgb(255,238,101);stroke:none;fill-opacity:1;stroke-opacity:1;" /><path d="M 780 60.649994 L 630.77246 145.58249" style="stroke:rgb(255,238,101);stroke-width:1" /><circle cx="630.77246" cy="145.58249" r="2" style="fill:rgb(255,238,101);stroke:none;fill-opacity:1;stroke-opacity:1;" /><path d="M 630.77246 145.58249 L 517.8862 174.08249" style="stroke:rgb(255,238,101);stroke-width:1" /><circle cx="517.8862" cy="174.08249" r="2" style="fill:rgb(255,238,101);stroke:none;fill-opacity:1;stroke-opacity:1;" /><path d="M 517.8862 174.08249 L 451.85202 194.5675" style="stroke:rgb(255,238,101);stroke-width:1" /><circle cx="451.85202" cy="194.5675" r="2" style="fill:rgb(255,238,101);stroke:none;fill-opacity:1;stroke-opacity:1;" /><path d="M 451.85202 194.5675 L 405 207.66" style="stroke:rgb(255,238,101);stroke-width:1" /><circle cx="405" cy="207.66" r="2" style="fill:rgb(255,238,101);stroke:none;fill-opacity:1;stroke-opacity:1;" /><path d="M 405 207.66 L 338.96576 216.76" style="stroke:rgb(255,238,101);stroke-width:1" /><circle cx="338.96576" cy="216.76" r="2" style="fill:rgb(255,238,101);stroke:none;fill-opacity:1;stroke-opacity:1;" /><path d="M 338.96576 216.76 L 292.11377 221.315" style="stroke:rgb(255,238,101);stroke-width:1" /><circle cx="292.11377" cy="221.315" r="2" style="fill:rgb(255,238,101);stroke:none;fill-opacity:1;stroke-opacity:1;" /><path d="M 292.11377 221.315 L 255.7725 227.55" style="stroke:rgb(255,238,101);stroke-width:1" /><circle cx="255.7725" cy="227.55" r="2" style="fill:rgb(255,238,101);stroke:none;fill-opacity:1;stroke-opacity:1;" /><path d="M 255.7725 227.55 L 142.88626 242.3225" style="stroke:rgb(255,238,101);stroke-width:1" /><circle cx="142.88626" cy="242.3225" r="2" style="fill:rgb(255,238,101);stroke:none;fill-opacity:1;stroke-opacity:1;" /><path d="M 142.88626 242.3225 L 30 249.0925" style="stroke:rgb(255,238,101);stroke-width:1" /><circle cx="30" cy="249.0925" r="2" style="fill:rgb(255,238,101);stroke:none;fill-opacity:1;stroke-opacity:1;" /><circle cx="780" cy="253.0625" r="2" style="fill:rgb(200,113,55);stroke:none;fill-opacity:1;stroke-opacity:1;" /><path d="M 780 253.0625 L 630.77246 255.7725" style="stroke:rgb(200,113,55);stroke-width:1" /><circle cx="630.77246" cy="255.7725" r="2" style="fill:rgb(200,113,55);stroke:none;fill-opacity:1;stroke-opacity:1;" /><path d="M 630.77246 255.7725 L 517.8862 257.2225" style="stroke:rgb(200,113,55);stroke-width:1" /><circle cx="517.8862" cy="257.2225" r="2" style="fill:rgb(200,113,55);stroke:none;fill-opacity:1;stroke-opacity:1;" /><path d="M 517.8862 257.2225 L 451.85202 257.9275" style="stroke:rgb(200,113,55);stroke-width:1" /><circle cx="451.85202" cy="257.9275" r="2" style="fill:rgb(200,113,55);stroke:none;fill-opacity:1;stroke-opacity:1;" /><path d="M 451.85202 257.9275 L 405 258.3875" style="stroke:rgb(200,113,55);stroke-width:1" /><circle cx="405" cy="258.3875" r="2" style="fill:rgb(200,113,55);stroke:none;fill-opacity:1;stroke-opacity:1;" /><path d="M 405 258.3875 L 338.96576 258.94" style="stroke:rgb(200,113,55);stroke-width:1" /><circle cx="338.96576" cy="258.94" r="2" style="fill:rgb(200,113,55);stroke:none;fill-opacity:1;stroke-opacity:1;" /><path d="M 338.96576 258.94 L 292.11377 259.335" style="stroke:rgb(200,113,55);stroke-width:1" /><circle cx="292.11377" cy="259.335" r="2" style="fill:rgb(200,113,55);stroke:none;fill-opacity:1;stroke-opacity:1;" /><path d="M 292.11377 259.335 L 255.7725 259.735" style="stroke:rgb(200,113,55);stroke-width:1" /><circle cx="255.7725" cy="259.735" r="2" style="fill:rgb(200,113,55);stroke:none;fill-opacity:1;stroke-opacity:1;" /><path d="M 255.7725 259.735 L 142.88626 260.5825" style="stroke:rgb(200,113,55);stroke-width:1" /><circle cx="142.88626" cy="260.5825" r="2" style="fill:rgb(200,113,55);stroke:none;fill-opacity:1;stroke-opacity:1;" /><path d="M 142.88626 260.5825 L 30 260.95" style="stroke:rgb(200,113,55);stroke-width:1" /><circle cx="30" cy="260.95" r="2" style="fill:rgb(200,113,55);stroke:none;fill-opacity:1;stroke-opacity:1;" /><circle cx="780" cy="244.92" r="2" style="fill:rgb(253,127,111);stroke:none;fill-opacity:1;stroke-opacity:1;" /><path d="M 780 244.92 L 630.77246 253.0625" style="stroke:rgb(253,127,111);stroke-width:1" /><circle cx="630.77246" cy="253.0625" r="2" style="fill:rgb(253,127,111);stroke:none;fill-opacity:1;stroke-opacity:1;" /><path d="M 630.77246 253.0625 L 517.8862 257.03" style="stroke:rgb(253,127,111);stroke-width:1" /><circle cx="517.8862" cy="257.03" r="2" style="fill:rgb(253,127,111);stroke:none;fill-opacity:1;stroke-opacity:1;" /><path d="M 517.8862 257.03 L 451.85202 258.8125" style="stroke:rgb(253,127,111);stroke-width:1" /><circle cx="451.85202" cy="258.8125" r="2" style="fill:rgb(253,127,111);stroke:none;fill-opacity:1;stroke-opacity:1;" /><path d="M 451.85202 258.8125 L 405 259.8625" style="stroke:rgb(253,127,111);stroke-width:1" /><circle cx="405" cy="259.8625" r="2" style="fill:rgb(253,127,111);stroke:none;fill-opacity:1;stroke-opacity:1;" /><path d="M 405 259.8625 L 338.96576 261.2" style="stroke:rgb(253,127,111);stroke-width:1" /><circle cx="338.96576" cy="261.2" r="2" style="fill:rgb(253,127,111);stroke:none;fill-opacity:1;stroke-opacity:1;" /><path d="M 338.96576 261.2 L 292.11377 261.8325" style="stroke:rgb(253,127,111);stroke-width:1" /><circle cx="292.11377" cy="261.8325" r="2" style="fill:rgb(253,127,111);stroke:none;fill-opacity:1;stroke-opacity:1;" /><path d="M 292.11377 261.8325 L 255.7725 262.535" style="stroke:rgb(253,127,111);stroke-width:1" /><circle cx="255.7725" cy="262.535" r="2" style="fill:rgb(253,127,111);stroke:none;fill-opacity:1;stroke-opacity:1;" /><path d="M 255.7725 262.535 L 142.88626 263.9575" style="stroke:rgb(253,127,111);stroke-width:1" /><circle cx="142.88626" cy="263.9575" r="2" style="fill:rgb(253,127,111);stroke:none;fill-opacity:1;stroke-opacity:1;" /><path d="M 142.88626 263.9575 L 30 265.0925" style="stroke:rgb(253,127,111);stroke-width:1" /><circle cx="30" cy="265.0925" r="2" style="fill:rgb(253,127,111);stroke:none;fill-opacity:1;stroke-opacity:1;" /><circle cx="780" cy="238.0775" r="2" style="fill:rgb(119,211,179);stroke:none;fill-opacity:1;stroke-opacity:1;" /><path d="M 780 238.0775 L 630.77246 245.595" style="stroke:rgb(119,211,179);stroke-width:1" /><circle cx="630.77246" cy="245.595" r="2" style="fill:rgb(119,211,179);stroke:none;fill-opacity:1;stroke-opacity:1;" /><path d="M 630.77246 245.595 L 517.8862 249.42" style="stroke:rgb(119,211,179);stroke-width:1" /><circle cx="517.8862" cy="249.42" r="2" style="fill:rgb(119,211,179);stroke:none;fill-opacity:1;stroke-opacity:1;" /><path d="M 517.8862 249.42 L 451.85202 251.44" style="stroke:rgb(119,211,179);stroke-width:1" /><circle cx="451.85202" cy="251.44" r="2" style="fill:rgb(119,211,179);stroke:none;fill-opacity:1;stroke-opacity:1;" /><path d="M 451.85202 251.44 L 405 252.77" style="stroke:rgb(119,211,179);stroke-width:1" /><circle cx="405" cy="252.77" r="2" style="fill:rgb(119,211,179);stroke:none;fill-opacity:1;stroke-opacity:1;" /><path d="M 405 252.77 L 338.96576 254.48" style="stroke:rgb(119,211,179);stroke-width:1" /><circle cx="338.96576" cy="254.48" r="2" style="fill:rgb(119,211,179);stroke:none;fill-opacity:1;stroke-opacity:1;" /><path d="M 338.96576 254.48 L 292.11377 255.2475" style="stroke:rgb(119,211,179);stroke-width:1" /><circle cx="292.11377" cy="255.2475" r="2" style="fill:rgb(119,211,179);stroke:none;fill-opacity:1;stroke-opacity:1;" /><path d="M 292.11377 255.2475 L 255.7725 256.185" style="stroke:rgb(119,211,179);stroke-width:1" /><circle cx="255.7725" cy="256.185" r="2" style="fill:rgb(119,211,179);stroke:none;fill-opacity:1;stroke-opacity:1;" /><path d="M 255.7725 256.185 L 142.88626 258.445" style="stroke:rgb(119,211,179);stroke-width:1" /><circle cx="142.88626" cy="258.445" r="2" style="fill:rgb(119,211,179);stroke:none;fill-opacity:1;stroke-opacity:1;" /><path d="M 142.88626 258.445 L 30 259.9825" style="stroke:rgb(119,211,179);stroke-width:1" /><circle cx="30" cy="259.9825" r="2" style="fill:rgb(119,211,179);stroke:none;fill-opacity:1;stroke-opacity:1;" /><circle cx="780" cy="238.09" r="2" style="fill:rgb(126,176,213);stroke:none;fill-opacity:1;stroke-opacity:1;" /><path d="M 780 238.09 L 630.77246 245.2175" style="stroke:rgb(126,176,213);stroke-width:1" /><circle cx="630.77246" cy="245.2175" r="2" style="fill:rgb(126,176,213);stroke:none;fill-opacity:1;stroke-opacity:1;" /><path d="M 630.77246 245.2175 L 517.8862 248.55" style="stroke:rgb(126,176,213);stroke-width:1" /><circle cx="517.8862" cy="248.55" r="2" style="fill:rgb(126,176,213);stroke:none;fill-opacity:1;stroke-opacity:1;" /><path d="M 517.8862 248.55 L 451.85202 250.05" style="stroke:rgb(126,176,213);stroke-width:1" /><circle cx="451.85202" cy="250.05" r="2" style="fill:rgb(126,176,213);stroke:none;fill-opacity:1;stroke-opacity:1;" /><path d="M 451.85202 250.05 L 405 251.0575" style="stroke:rgb(126,176,213);stroke-width:1" /><circle cx="405" cy="251.0575" r="2" style="fill:rgb(126,176,213);stroke:none;fill-opacity:1;stroke-opacity:1;" /><path d="M 405 251.0575 L 338.96576 252.2325" style="stroke:rgb(126,176,213);stroke-width:1" /><circle cx="338.96576" cy="252.2325" r="2" style="fill:rgb(126,176,213);stroke:none;fill-opacity:1;stroke-opacity:1;" /><path d="M 338.96576 252.2325 L 292.11377 252.6875" style="stroke:rgb(126,176,213);stroke-width:1" /><circle cx="292.11377" cy="252.6875" r="2" style="fill:rgb(126,176,213);stroke:none;fill-opacity:1;stroke-opacity:1;" /><path d="M 292.11377 252.6875 L 255.7725 253.3625" style="stroke:rgb(126,176,213);stroke-width:1" /><circle cx="255.7725" cy="253.3625" r="2" style="fill:rgb(126,176,213);stroke:none;fill-opacity:1;stroke-opacity:1;" /><path d="M 255.7725 253.3625 L 142.88626 254.55" style="stroke:rgb(126,176,213);stroke-width:1" /><circle cx="142.88626" cy="254.55" r="2" style="fill:rgb(126,176,213);stroke:none;fill-opacity:1;stroke-opacity:1;" /><path d="M 142.88626 254.55 L 30 255.5825" style="stroke:rgb(126,176,213);stroke-width:1" /><circle cx="30" cy="255.5825" r="2" style="fill:rgb(126,176,213);stroke:none;fill-opacity:1;stroke-opacity:1;" /><circle cx="780" cy="249.875" r="2" style="fill:rgb(120,68,33);stroke:none;fill-opacity:1;stroke-opacity:1;" /><path d="M 780 249.875 L 630.77246 253.315" style="stroke:rgb(120,68,33);stroke-width:1" /><circle cx="630.77246" cy="253.315" r="2" style="fill:rgb(120,68,33);stroke:none;fill-opacity:1;stroke-opacity:1;" /><path d="M 630.77246 253.315 L 517.8862 255.09" style="stroke:rgb(120,68,33);stroke-width:1" /><circle cx="517.8862" cy="255.09" r="2" style="fill:rgb(120,68,33);stroke:none;fill-opacity:1;stroke-opacity:1;" /><path d="M 517.8862 255.09 L 451.85202 255.995" style="stroke:rgb(120,68,33);stroke-width:1" /><circle cx="451.85202" cy="255.995" r="2" style="fill:rgb(120,68,33);stroke:none;fill-opacity:1;stroke-opacity:1;" /><path d="M 451.85202 255.995 L 405 256.605" style="stroke:rgb(120,68,33);stroke-width:1" /><circle cx="405" cy="256.605" r="2" style="fill:rgb(120,68,33);stroke:none;fill-opacity:1;stroke-opacity:1;" /><path d="M 405 256.605 L 338.96576 257.3825" style="stroke:rgb(120,68,33);stroke-width:1" /><circle cx="338.96576" cy="257.3825" r="2" style="fill:rgb(120,68,33);stroke:none;fill-opacity:1;stroke-opacity:1;" /><path d="M 338.96576 257.3825 L 292.11377 257.97" style="stroke:rgb(120,68,33);stroke-width:1" /><circle cx="292.11377" cy="257.97" r="2" style="fill:rgb(120,68,33);stroke:none;fill-opacity:1;stroke-opacity:1;" /><path d="M 292.11377 257.97 L 255.7725 258.43" style="stroke:rgb(120,68,33);stroke-width:1" /><circle cx="255.7725" cy="258.43" r="2" style="fill:rgb(120,68,33);stroke:none;fill-opacity:1;stroke-opacity:1;" /><path d="M 255.7725 258.43 L 142.88626 259.5825" style="stroke:rgb(120,68,33);stroke-width:1" /><circle cx="142.88626" cy="259.5825" r="2" style="fill:rgb(120,68,33);stroke:none;fill-opacity:1;stroke-opacity:1;" /><path d="M 142.88626 259.5825 L 30 260.2175" style="stroke:rgb(120,68,33);stroke-width:1" /><circle cx="30" cy="260.2175" r="2" style="fill:rgb(120,68,33);stroke:none;fill-opacity:1;stroke-opacity:1;" /><circle cx="780" cy="24.732498" r="2" style="fill:rgb(255,181,90);stroke:none;fill-opacity:1;stroke-opacity:1;" /><path d="M 780 24.732498 L 630.77246 108.5975" style="stroke:rgb(255,181,90);stroke-width:1" /><circle cx="630.77246" cy="108.5975" r="2" style="fill:rgb(255,181,90);stroke:none;fill-opacity:1;stroke-opacity:1;" /><path d="M 630.77246 108.5975 L 517.8862 148.7525" style="stroke:rgb(255,181,90);stroke-width:1" /><circle cx="517.8862" cy="148.7525" r="2" style="fill:rgb(255,181,90);stroke:none;fill-opacity:1;stroke-opacity:1;" /><path d="M 517.8862 148.7525 L 451.85202 164.6375" style="stroke:rgb(255,181,90);stroke-width:1" /><circle cx="451.85202" cy="164.6375" r="2" style="fill:rgb(255,181,90);stroke:none;fill-opacity:1;stroke-opacity:1;" /><path d="M 451.85202 164.6375 L 405 172.82" style="stroke:rgb(255,181,90);stroke-width:1" /><circle cx="405" cy="172.82" r="2" style="fill:rgb(255,181,90);stroke:none;fill-opacity:1;stroke-opacity:1;" /><path d="M 405 172.82 L 338.96576 179.1925" style="stroke:rgb(255,181,90);stroke-width:1" /><circle cx="338.96576" cy="179.1925" r="2" style="fill:rgb(255,181,90);stroke:none;fill-opacity:1;stroke-opacity:1;" /><path d="M 338.96576 179.1925 L 292.11377 177.26001" style="stroke:rgb(255,181,90);stroke-width:1" /><circle cx="292.11377" cy="177.26001" r="2" style="fill:rgb(255,181,90);stroke:none;fill-opacity:1;stroke-opacity:1;" /><path d="M 292.11377 177.26001 L 255.7725 172.22751" style="stroke:rgb(255,181,90);stroke-width:1" /><circle cx="255.7725" cy="172.22751" r="2" style="fill:rgb(255,181,90);stroke:none;fill-opacity:1;stroke-opacity:1;" /><path d="M 255.7725 172.22751 L 142.88626 199.98999" style="stroke:rgb(255,181,90);stroke-width:1" /><circle cx="142.88626" cy="199.98999" r="2" style="fill:rgb(255,181,90);stroke:none;fill-opacity:1;stroke-opacity:1;" /><path d="M 142.88626 199.98999 L 30 219.52249" style="stroke:rgb(255,181,90);stroke-width:1" /><circle cx="30" cy="219.52249" r="2" style="fill:rgb(255,181,90);stroke:none;fill-opacity:1;stroke-opacity:1;" /><circle cx="780" cy="241.9225" r="2" style="fill:rgb(253,204,229);stroke:none;fill-opacity:1;stroke-opacity:1;" /><path d="M 780 241.9225 L 630.77246 251.1925" style="stroke:rgb(253,204,229);stroke-width:1" /><circle cx="630.77246" cy="251.1925" r="2" style="fill:rgb(253,204,229);stroke:none;fill-opacity:1;stroke-opacity:1;" /><path d="M 630.77246 251.1925 L 517.8862 255.8" style="stroke:rgb(253,204,229);stroke-width:1" /><circle cx="517.8862" cy="255.8" r="2" style="fill:rgb(253,204,229);stroke:none;fill-opacity:1;stroke-opacity:1;" /><path d="M 517.8862 255.8 L 451.85202 257.8325" style="stroke:rgb(253,204,229);stroke-width:1" /><circle cx="451.85202" cy="257.8325" r="2" style="fill:rgb(253,204,229);stroke:none;fill-opacity:1;stroke-opacity:1;" /><path d="M 451.85202 257.8325 L 405 259.055" style="stroke:rgb(253,204,229);stroke-width:1" /><circle cx="405" cy="259.055" r="2" style="fill:rgb(253,204,229);stroke:none;fill-opacity:1;stroke-opacity:1;" /><path d="M 405 259.055 L 338.96576 260.5475" style="stroke:rgb(253,204,229);stroke-width:1" /><circle cx="338.96576" cy="260.5475" r="2" style="fill:rgb(253,204,229);stroke:none;fill-opacity:1;stroke-opacity:1;" /><path d="M 338.96576 260.5475 L 292.11377 261.445" style="stroke:rgb(253,204,229);stroke-width:1" /><circle cx="292.11377" cy="261.445" r="2" style="fill:rgb(253,204,229);stroke:none;fill-opacity:1;stroke-opacity:1;" /><path d="M 292.11377 261.445 L 255.7725 262.0925" style="stroke:rgb(253,204,229);stroke-width:1" /><circle cx="255.7725" cy="262.0925" r="2" style="fill:rgb(253,204,229);stroke:none;fill-opacity:1;stroke-opacity:1;" /><path d="M 255.7725 262.0925 L 142.88626 263.7675" style="stroke:rgb(253,204,229);stroke-width:1" /><circle cx="142.88626" cy="263.7675" r="2" style="fill:rgb(253,204,229);stroke:none;fill-opacity:1;stroke-opacity:1;" /><path d="M 142.88626 263.7675 L 30 265.0475" style="stroke:rgb(253,204,229);stroke-width:1" /><circle cx="30" cy="265.0475" r="2" style="fill:rgb(253,204,229);stroke:none;fill-opacity:1;stroke-opacity:1;" /><circle cx="780" cy="252.9475" r="2" style="fill:rgb(199,126,190);stroke:none;fill-opacity:1;stroke-opacity:1;" /><path d="M 780 252.9475 L 630.77246 257.97" style="stroke:rgb(199,126,190);stroke-width:1" /><circle cx="630.77246" cy="257.97" r="2" style="fill:rgb(199,126,190);stroke:none;fill-opacity:1;stroke-opacity:1;" /><path d="M 630.77246 257.97 L 517.8862 260.46" style="stroke:rgb(199,126,190);stroke-width:1" /><circle cx="517.8862" cy="260.46" r="2" style="fill:rgb(199,126,190);stroke:none;fill-opacity:1;stroke-opacity:1;" /><path d="M 517.8862 260.46 L 451.85202 261.6225" style="stroke:rgb(199,126,190);stroke-width:1" /><circle cx="451.85202" cy="261.6225" r="2" style="fill:rgb(199,126,190);stroke:none;fill-opacity:1;stroke-opacity:1;" /><path d="M 451.85202 261.6225 L 405 262.345" style="stroke:rgb(199,126,190);stroke-width:1" /><circle cx="405" cy="262.345" r="2" style="fill:rgb(199,126,190);stroke:none;fill-opacity:1;stroke-opacity:1;" /><path d="M 405 262.345 L 338.96576 263.1725" style="stroke:rgb(199,126,190);stroke-width:1" /><circle cx="338.96576" cy="263.1725" r="2" style="fill:rgb(199,126,190);stroke:none;fill-opacity:1;stroke-opacity:1;" /><path d="M 338.96576 263.1725 L 292.11377 263.705" style="stroke:rgb(199,126,190);stroke-width:1" /><circle cx="292.11377" cy="263.705" r="2" style="fill:rgb(199,126,190);stroke:none;fill-opacity:1;stroke-opacity:1;" /><path d="M 292.11377 263.705 L 255.7725 264.095" style="stroke:rgb(199,126,190);stroke-width:1" /><circle cx="255.7725" cy="264.095" r="2" style="fill:rgb(199,126,190);stroke:none;fill-opacity:1;stroke-opacity:1;" /><path d="M 255.7725 264.095 L 142.88626 265.025" style="stroke:rgb(199,126,190);stroke-width:1" /><circle cx="142.88626" cy="265.025" r="2" style="fill:rgb(199,126,190);stroke:none;fill-opacity:1;stroke-opacity:1;" /><path d="M 142.88626 265.025 L 30 265.7675" style="stroke:rgb(199,126,190);stroke-width:1" /><circle cx="30" cy="265.7675" r="2" style="fill:rgb(199,126,190);stroke:none;fill-opacity:1;stroke-opacity:1;" /><circle cx="780" cy="20" r="2" style="fill:rgb(128,214,87);stroke:none;fill-opacity:1;stroke-opacity:1;" /><path d="M 780 20 L 630.77246 112.0625" style="stroke:rgb(128,214,87);stroke-width:1" /><circle cx="630.77246" cy="112.0625" r="2" style="fill:rgb(128,214,87);stroke:none;fill-opacity:1;stroke-opacity:1;" /><path d="M 630.77246 112.0625 L 517.8862 157.0675" style="stroke:rgb(128,214,87);stroke-width:1" /><circle cx="517.8862" cy="157.0675" r="2" style="fill:rgb(128,214,87);stroke:none;fill-opacity:1;stroke-opacity:1;" /><path d="M 517.8862 157.0675 L 451.85202 178.2675" style="stroke:rgb(128,214,87);stroke-width:1" /><circle cx="451.85202" cy="178.2675" r="2" style="fill:rgb(128,214,87);stroke:none;fill-opacity:1;stroke-opacity:1;" /><path d="M 451.85202 178.2675 L 405 190.67749" style="stroke:rgb(128,214,87);stroke-width:1" /><circle cx="405" cy="190.67749" r="2" style="fill:rgb(128,214,87);stroke:none;fill-opacity:1;stroke-opacity:1;" /><path d="M 405 190.67749 L 338.96576 205.1325" style="stroke:rgb(128,214,87);stroke-width:1" /><circle cx="338.96576" cy="205.1325" r="2" style="fill:rgb(128,214,87);stroke:none;fill-opacity:1;stroke-opacity:1;" /><path d="M 338.96576 205.1325 L 292.11377 213.85" style="stroke:rgb(128,214,87);stroke-width:1" /><circle cx="292.11377" cy="213.85" r="2" style="fill:rgb(128,214,87);stroke:none;fill-opacity:1;stroke-opacity:1;" /><path d="M 292.11377 213.85 L 255.7725 220.3725" style="stroke:rgb(128,214,87);stroke-width:1" /><circle cx="255.7725" cy="220.3725" r="2" style="fill:rgb(128,214,87);stroke:none;fill-opacity:1;stroke-opacity:1;" /><path d="M 255.7725 220.3725 L 142.88626 235.08" style="stroke:rgb(128,214,87);stroke-width:1" /><circle cx="142.88626" cy="235.08" r="2" style="fill:rgb(128,214,87);stroke:none;fill-opacity:1;stroke-opacity:1;" /><path d="M 142.88626 235.08 L 30 245.575" style="stroke:rgb(128,214,87);stroke-width:1" /><circle cx="30" cy="245.575" r="2" style="fill:rgb(128,214,87);stroke:none;fill-opacity:1;stroke-opacity:1;" /><circle cx="780" cy="187.61499" r="2" style="fill:rgb(50,125,209);stroke:none;fill-opacity:1;stroke-opacity:1;" /><path d="M 780 187.61499 L 630.77246 212.8275" style="stroke:rgb(50,125,209);stroke-width:1" /><circle cx="630.77246" cy="212.8275" r="2" style="fill:rgb(50,125,209);stroke:none;fill-opacity:1;stroke-opacity:1;" /><path d="M 630.77246 212.8275 L 517.8862 225.235" style="stroke:rgb(50,125,209);stroke-width:1" /><circle cx="517.8862" cy="225.235" r="2" style="fill:rgb(50,125,209);stroke:none;fill-opacity:1;stroke-opacity:1;" /><path d="M 517.8862 225.235 L 451.85202 230.8675" style="stroke:rgb(50,125,209);stroke-width:1" /><circle cx="451.85202" cy="230.8675" r="2" style="fill:rgb(50,125,209);stroke:none;fill-opacity:1;stroke-opacity:1;" /><path d="M 451.85202 230.8675 L 405 234.295" style="stroke:rgb(50,125,209);stroke-width:1" /><circle cx="405" cy="234.295" r="2" style="fill:rgb(50,125,209);stroke:none;fill-opacity:1;stroke-opacity:1;" /><path d="M 405 234.295 L 338.96576 238.67749" style="stroke:rgb(50,125,209);stroke-width:1" /><circle cx="338.96576" cy="238.67749" r="2" style="fill:rgb(50,125,209);stroke:none;fill-opacity:1;stroke-opacity:1;" /><path d="M 338.96576 238.67749 L 292.11377 240.74" style="stroke:rgb(50,125,209);stroke-width:1" /><circle cx="292.11377" cy="240.74" r="2" style="fill:rgb(50,125,209);stroke:none;fill-opacity:1;stroke-opacity:1;" /><path d="M 292.11377 240.74 L 255.7725 242.8825" style="stroke:rgb(50,125,209);stroke-width:1" /><circle cx="255.7725" cy="242.8825" r="2" style="fill:rgb(50,125,209);stroke:none;fill-opacity:1;stroke-opacity:1;" /><path d="M 255.7725 242.8825 L 142.88626 247.215" style="stroke:rgb(50,125,209);stroke-width:1" /><circle cx="142.88626" cy="247.215" r="2" style="fill:rgb(50,125,209);stroke:none;fill-opacity:1;stroke-opacity:1;" /><path d="M 142.88626 247.215 L 30 250.9275" style="stroke:rgb(50,125,209);stroke-width:1" /><circle cx="30" cy="250.9275" r="2" style="fill:rgb(50,125,209);stroke:none;fill-opacity:1;stroke-opacity:1;" /><rect x="676" y="16" width="80" height="238" ry="4" style="fill:rgb(30,30,30);stroke:none;fill-opacity:0.8;stroke-opacity:1;" /><rect x="680" y="20" width="20" height="20" ry="2" style="fill:rgb(253,127,111);stroke:none;fill-opacity:1;stroke-opacity:1;" /><text x="705" y="33" style="font-size:10px;fill:rgb(255,255,255);text-anchor:start;text-align:left;"> fwd-diff </text><rect x="680" y="41" width="20" height="20" ry="2" style="fill:rgb(255,181,90);stroke:none;fill-opacity:1;stroke-opacity:1;" /><text x="705" y="54" style="font-size:10px;fill:rgb(255,255,255);text-anchor:start;text-align:left;"> hain </text><rect x="680" y="62" width="20" height="20" ry="2" style="fill:rgb(50,125,209);stroke:none;fill-opacity:1;stroke-opacity:1;" /><text x="705" y="75" style="font-size:10px;fill:rgb(255,255,255);text-anchor:start;text-align:left;"> levien </text><rect x="680" y="83" width="20" height="20" ry="2" style="fill:rgb(119,211,179);stroke:none;fill-opacity:1;stroke-opacity:1;" /><text x="705" y="96" style="font-size:10px;fill:rgb(255,255,255);text-anchor:start;text-align:left;"> levien-linear </text><rect x="680" y="104" width="20" height="20" ry="2" style="fill:rgb(126,176,213);stroke:none;fill-opacity:1;stroke-opacity:1;" /><text x="705" y="117" style="font-size:10px;fill:rgb(255,255,255);text-anchor:start;text-align:left;"> levien-simd </text><rect x="680" y="125" width="20" height="20" ry="2" style="fill:rgb(128,214,87);stroke:none;fill-opacity:1;stroke-opacity:1;" /><text x="705" y="138" style="font-size:10px;fill:rgb(255,255,255);text-anchor:start;text-align:left;"> linear </text><rect x="680" y="146" width="20" height="20" ry="2" style="fill:rgb(255,238,101);stroke:none;fill-opacity:1;stroke-opacity:1;" /><text x="705" y="159" style="font-size:10px;fill:rgb(255,255,255);text-anchor:start;text-align:left;"> recursive </text><rect x="680" y="167" width="20" height="20" ry="2" style="fill:rgb(253,204,229);stroke:none;fill-opacity:1;stroke-opacity:1;" /><text x="705" y="180" style="font-size:10px;fill:rgb(255,255,255);text-anchor:start;text-align:left;"> wang </text><rect x="680" y="188" width="20" height="20" ry="2" style="fill:rgb(199,126,190);stroke:none;fill-opacity:1;stroke-opacity:1;" /><text x="705" y="201" style="font-size:10px;fill:rgb(255,255,255);text-anchor:start;text-align:left;"> wang-simd </text><rect x="680" y="209" width="20" height="20" ry="2" style="fill:rgb(120,68,33);stroke:none;fill-opacity:1;stroke-opacity:1;" /><text x="705" y="222" style="font-size:10px;fill:rgb(255,255,255);text-anchor:start;text-align:left;"> yzerman </text><rect x="680" y="230" width="20" height="20" ry="2" style="fill:rgb(200,113,55);stroke:none;fill-opacity:1;stroke-opacity:1;" /><text x="705" y="243" style="font-size:10px;fill:rgb(255,255,255);text-anchor:start;text-align:left;"> yzerman-simd </text><text x="400" y="30" style="font-size:20px;fill:rgb(255,255,255);text-anchor:middle;text-align:center;"> nehab dataset: cubic </text><text x="400" y="42" style="font-size:8px;fill:rgb(200,200,200);text-anchor:middle;text-align:center;"> Normalized performance score (lower is better) </text></svg>