<svg xmlns="http://www.w3.org/2000/svg" viewBox="0 0 800 300"><rect x="0" y="0" width="800" height="300" ry="6" style="fill:rgb(30,30,30);stroke:none;fill-opacity:1;stroke-opacity:1;" /><path d="M 30 20 L 30 270" style="stroke:rgb(200,200,200);stroke-width:1" /><path d="M 30 270 L 780 270" style="stroke:rgb(200,200,200);stroke-width:1" /><path d="M 780 270 L 780 272" style="stroke:rgb(200,200,200);stroke-width:1" /><text x="780" y="282" style="font-size:10px;fill:rgb(200,200,200);text-anchor:middle;text-align:center;"> 0.01 </text><path d="M 630.77246 270 L 630.77246 272" style="stroke:rgb(200,200,200);stroke-width:1" /><text x="630.77246" y="282" style="font-size:10px;fill:rgb(200,200,200);text-anchor:middle;text-align:center;"> 0.025 </text><path d="M 517.8862 270 L 517.8862 272" style="stroke:rgb(200,200,200);stroke-width:1" /><text x="517.8862" y="282" style="font-size:10px;fill:rgb(200,200,200);text-anchor:middle;text-align:center;"> 0.05 </text><path d="M 451.85202 270 L 451.85202 272" style="stroke:rgb(200,200,200);stroke-width:1" /><text x="451.85202" y="282" style="font-size:10px;fill:rgb(200,200,200);text-anchor:middle;text-align:center;"> 0.075 </text><path d="M 405 270 L 405 272" style="stroke:rgb(200,200,200);stroke-width:1" /><text x="405" y="282" style="font-size:10px;fill:rgb(200,200,200);text-anchor:middle;text-align:center;"> 0.1 </text><path d="M 338.96576 270 L 338.96576 272" style="stroke:rgb(200,200,200);stroke-width:1" /><text x="338.96576" y="282" style="font-size:10px;fill:rgb(200,200,200);text-anchor:middle;text-align:center;"> 0.15 </text><path d="M 292.11377 270 L 292.11377 272" style="stroke:rgb(200,200,200);stroke-width:1" /><text x="292.11377" y="282" style="font-size:10px;fill:rgb(200,200,200);text-anchor:middle;text-align:center;"> 0.2 </text><path d="M 255.7725 270 L 255.7725 272" style="stroke:rgb(200,200,200);stroke-width:1" /><text x="255.7725" y="282" style="font-size:10px;fill:rgb(200,200,200);text-anchor:middle;text-align:center;"> 0.25 </text><path d="M 142.88626 270 L 142.88626 272" style="stroke:rgb(200,200,200);stroke-width:1" /><text x="142.88626" y="282" style="font-size:10px;fill:rgb(200,200,200);text-anchor:middle;text-align:center;"> 0.5 </text><path d="M 30 270 L 30 272" style="stroke:rgb(200,200,200);stroke-width:1" /><text x="30" y="282" style="font-size:10px;fill:rgb(200,200,200);text-anchor:middle;text-align:center;"> 1 </text><path d="M 28 270 L 30 270" style="stroke:rgb(200,200,200);stroke-width:1" /><text x="26" y="274" style="font-size:10px;fill:rgb(200,200,200);text-anchor:end;text-align:right;"> 0 </text><path d="M 28 207.5 L 30 207.5" style="stroke:rgb(200,200,200);stroke-width:1" /><text x="26" y="211.5" style="font-size:10px;fill:rgb(200,200,200);text-anchor:end;text-align:right;"> 0.25 </text><path d="M 28 145 L 30 145" style="stroke:rgb(200,200,200);stroke-width:1" /><text x="26" y="149" style="font-size:10px;fill:rgb(200,200,200);text-anchor:end;text-align:right;"> 0.5 </text><path d="M 28 82.5 L 30 82.5" style="stroke:rgb(200,200,200);stroke-width:1" /><text x="26" y="86.5" style="font-size:10px;fill:rgb(200,200,200);text-anchor:end;text-align:right;"> 0.75 </text><path d="M 28 20 L 30 20" style="stroke:rgb(200,200,200);stroke-width:1" /><text x="26" y="24" style="font-size:10px;fill:rgb(200,200,200);text-anchor:end;text-align:right;"> 1 </text><text x="400" y="294" style="font-size:10px;fill:rgb(200,200,200);text-anchor:middle;text-align:center;"> Tolerance </text><circle cx="780" cy="241.8275" r="2" style="fill:rgb(253,204,229);stroke:none;fill-opacity:1;stroke-opacity:1;" /><path d="M 780 241.8275 L 630.77246 251.09" style="stroke:rgb(253,204,229);stroke-width:1" /><circle cx="630.77246" cy="251.09" r="2" style="fill:rgb(253,204,229);stroke:none;fill-opacity:1;stroke-opacity:1;" /><path d="M 630.77246 251.09 L 517.8862 255.665" style="stroke:rgb(253,204,229);stroke-width:1" /><circle cx="517.8862" cy="255.665" r="2" style="fill:rgb(253,204,229);stroke:none;fill-opacity:1;stroke-opacity:1;" /><path d="M 517.8862 255.665 L 451.85202 257.7075" style="stroke:rgb(253,204,229);stroke-width:1" /><circle cx="451.85202" cy="257.7075" r="2" style="fill:rgb(253,204,229);stroke:none;fill-opacity:1;stroke-opacity:1;" /><path d="M 451.85202 257.7075 L 405 258.9275" style="stroke:rgb(253,204,229);stroke-width:1" /><circle cx="405" cy="258.9275" r="2" style="fill:rgb(253,204,229);stroke:none;fill-opacity:1;stroke-opacity:1;" /><path d="M 405 258.9275 L 338.96576 260.405" style="stroke:rgb(253,204,229);stroke-width:1" /><circle cx="338.96576" cy="260.405" r="2" style="fill:rgb(253,204,229);stroke:none;fill-opacity:1;stroke-opacity:1;" /><path d="M 338.96576 260.405 L 292.11377 261.345" style="stroke:rgb(253,204,229);stroke-width:1" /><circle cx="292.11377" cy="261.345" r="2" style="fill:rgb(253,204,229);stroke:none;fill-opacity:1;stroke-opacity:1;" /><path d="M 292.11377 261.345 L 255.7725 261.96" style="stroke:rgb(253,204,229);stroke-width:1" /><circle cx="255.7725" cy="261.96" r="2" style="fill:rgb(253,204,229);stroke:none;fill-opacity:1;stroke-opacity:1;" /><path d="M 255.7725 261.96 L 142.88626 263.6375" style="stroke:rgb(253,204,229);stroke-width:1" /><circle cx="142.88626" cy="263.6375" r="2" style="fill:rgb(253,204,229);stroke:none;fill-opacity:1;stroke-opacity:1;" /><path d="M 142.88626 263.6375 L 30 264.94" style="stroke:rgb(253,204,229);stroke-width:1" /><circle cx="30" cy="264.94" r="2" style="fill:rgb(253,204,229);stroke:none;fill-opacity:1;stroke-opacity:1;" /><circle cx="780" cy="187.6225" r="2" style="fill:rgb(50,125,209);stroke:none;fill-opacity:1;stroke-opacity:1;" /><path d="M 780 187.6225 L 630.77246 213.1" style="stroke:rgb(50,125,209);stroke-width:1" /><circle cx="630.77246" cy="213.1" r="2" style="fill:rgb(50,125,209);stroke:none;fill-opacity:1;stroke-opacity:1;" /><path d="M 630.77246 213.1 L 517.8862 225.3475" style="stroke:rgb(50,125,209);stroke-width:1" /><circle cx="517.8862" cy="225.3475" r="2" style="fill:rgb(50,125,209);stroke:none;fill-opacity:1;stroke-opacity:1;" /><path d="M 517.8862 225.3475 L 451.85202 231.035" style="stroke:rgb(50,125,209);stroke-width:1" /><circle cx="451.85202" cy="231.035" r="2" style="fill:rgb(50,125,209);stroke:none;fill-opacity:1;stroke-opacity:1;" /><path d="M 451.85202 231.035 L 405 234.4425" style="stroke:rgb(50,125,209);stroke-width:1" /><circle cx="405" cy="234.4425" r="2" style="fill:rgb(50,125,209);stroke:none;fill-opacity:1;stroke-opacity:1;" /><path d="M 405 234.4425 L 338.96576 238.715" style="stroke:rgb(50,125,209);stroke-width:1" /><circle cx="338.96576" cy="238.715" r="2" style="fill:rgb(50,125,209);stroke:none;fill-opacity:1;stroke-opacity:1;" /><path d="M 338.96576 238.715 L 292.11377 240.8825" style="stroke:rgb(50,125,209);stroke-width:1" /><circle cx="292.11377" cy="240.8825" r="2" style="fill:rgb(50,125,209);stroke:none;fill-opacity:1;stroke-opacity:1;" /><path d="M 292.11377 240.8825 L 255.7725 242.9475" style="stroke:rgb(50,125,209);stroke-width:1" /><circle cx="255.7725" cy="242.9475" r="2" style="fill:rgb(50,125,209);stroke:none;fill-opacity:1;stroke-opacity:1;" /><path d="M 255.7725 242.9475 L 142.88626 247.345" style="stroke:rgb(50,125,209);stroke-width:1" /><circle cx="142.88626" cy="247.345" r="2" style="fill:rgb(50,125,209);stroke:none;fill-opacity:1;stroke-opacity:1;" /><path d="M 142.88626 247.345 L 30 251.005" style="stroke:rgb(50,125,209);stroke-width:1" /><circle cx="30" cy="251.005" r="2" style="fill:rgb(50,125,209);stroke:none;fill-opacity:1;stroke-opacity:1;" /><circle cx="780" cy="20" r="2" style="fill:rgb(128,214,87);stroke:none;fill-opacity:1;stroke-opacity:1;" /><path d="M 780 20 L 630.77246 112.7325" style="stroke:rgb(128,214,87);stroke-width:1" /><circle cx="630.77246" cy="112.7325" r="2" style="fill:rgb(128,214,87);stroke:none;fill-opacity:1;stroke-opacity:1;" /><path d="M 630.77246 112.7325 L 517.8862 157.6925" style="stroke:rgb(128,214,87);stroke-width:1" /><circle cx="517.8862" cy="157.6925" r="2" style="fill:rgb(128,214,87);stroke:none;fill-opacity:1;stroke-opacity:1;" /><path d="M 517.8862 157.6925 L 451.85202 179.1625" style="stroke:rgb(128,214,87);stroke-width:1" /><circle cx="451.85202" cy="179.1625" r="2" style="fill:rgb(128,214,87);stroke:none;fill-opacity:1;stroke-opacity:1;" /><path d="M 451.85202 179.1625 L 405 191.0175" style="stroke:rgb(128,214,87);stroke-width:1" /><circle cx="405" cy="191.0175" r="2" style="fill:rgb(128,214,87);stroke:none;fill-opacity:1;stroke-opacity:1;" /><path d="M 405 191.0175 L 338.96576 205.0975" style="stroke:rgb(128,214,87);stroke-width:1" /><circle cx="338.96576" cy="205.0975" r="2" style="fill:rgb(128,214,87);stroke:none;fill-opacity:1;stroke-opacity:1;" /><path d="M 338.96576 205.0975 L 292.11377 214.18" style="stroke:rgb(128,214,87);stroke-width:1" /><circle cx="292.11377" cy="214.18" r="2" style="fill:rgb(128,214,87);stroke:none;fill-opacity:1;stroke-opacity:1;" /><path d="M 292.11377 214.18 L 255.7725 220.5125" style="stroke:rgb(128,214,87);stroke-width:1" /><circle cx="255.7725" cy="220.5125" r="2" style="fill:rgb(128,214,87);stroke:none;fill-opacity:1;stroke-opacity:1;" /><path d="M 255.7725 220.5125 L 142.88626 235.0075" style="stroke:rgb(128,214,87);stroke-width:1" /><circle cx="142.88626" cy="235.0075" r="2" style="fill:rgb(128,214,87);stroke:none;fill-opacity:1;stroke-opacity:1;" /><path d="M 142.88626 235.0075 L 30 245.5575" style="stroke:rgb(128,214,87);stroke-width:1" /><circle cx="30" cy="245.5575" r="2" style="fill:rgb(128,214,87);stroke:none;fill-opacity:1;stroke-opacity:1;" /><circle cx="780" cy="238.125" r="2" style="fill:rgb(119,211,179);stroke:none;fill-opacity:1;stroke-opacity:1;" /><path d="M 780 238.125 L 630.77246 245.6125" style="stroke:rgb(119,211,179);stroke-width:1" /><circle cx="630.77246" cy="245.6125" r="2" style="fill:rgb(119,211,179);stroke:none;fill-opacity:1;stroke-opacity:1;" /><path d="M 630.77246 245.6125 L 517.8862 249.45999" style="stroke:rgb(119,211,179);stroke-width:1" /><circle cx="517.8862" cy="249.45999" r="2" style="fill:rgb(119,211,179);stroke:none;fill-opacity:1;stroke-opacity:1;" /><path d="M 517.8862 249.45999 L 451.85202 251.5025" style="stroke:rgb(119,211,179);stroke-width:1" /><circle cx="451.85202" cy="251.5025" r="2" style="fill:rgb(119,211,179);stroke:none;fill-opacity:1;stroke-opacity:1;" /><path d="M 451.85202 251.5025 L 405 252.7875" style="stroke:rgb(119,211,179);stroke-width:1" /><circle cx="405" cy="252.7875" r="2" style="fill:rgb(119,211,179);stroke:none;fill-opacity:1;stroke-opacity:1;" /><path d="M 405 252.7875 L 338.96576 254.5025" style="stroke:rgb(119,211,179);stroke-width:1" /><circle cx="338.96576" cy="254.5025" r="2" style="fill:rgb(119,211,179);stroke:none;fill-opacity:1;stroke-opacity:1;" /><path d="M 338.96576 254.5025 L 292.11377 255.355" style="stroke:rgb(119,211,179);stroke-width:1" /><circle cx="292.11377" cy="255.355" r="2" style="fill:rgb(119,211,179);stroke:none;fill-opacity:1;stroke-opacity:1;" /><path d="M 292.11377 255.355 L 255.7725 256.26" style="stroke:rgb(119,211,179);stroke-width:1" /><circle cx="255.7725" cy="256.26" r="2" style="fill:rgb(119,211,179);stroke:none;fill-opacity:1;stroke-opacity:1;" /><path d="M 255.7725 256.26 L 142.88626 258.4975" style="stroke:rgb(119,211,179);stroke-width:1" /><circle cx="142.88626" cy="258.4975" r="2" style="fill:rgb(119,211,179);stroke:none;fill-opacity:1;stroke-opacity:1;" /><path d="M 142.88626 258.4975 L 30 260.05" style="stroke:rgb(119,211,179);stroke-width:1" /><circle cx="30" cy="260.05" r="2" style="fill:rgb(119,211,179);stroke:none;fill-opacity:1;stroke-opacity:1;" /><circle cx="780" cy="61.369995" r="2" style="fill:rgb(255,238,101);stroke:none;fill-opacity:1;stroke-opacity:1;" /><path d="M 780 61.369995 L 630.77246 145.8675" style="stroke:rgb(255,238,101);stroke-width:1" /><circle cx="630.77246" cy="145.8675" r="2" style="fill:rgb(255,238,101);stroke:none;fill-opacity:1;stroke-opacity:1;" /><path d="M 630.77246 145.8675 L 517.8862 174.2475" style="stroke:rgb(255,238,101);stroke-width:1" /><circle cx="517.8862" cy="174.2475" r="2" style="fill:rgb(255,238,101);stroke:none;fill-opacity:1;stroke-opacity:1;" /><path d="M 517.8862 174.2475 L 451.85202 194.9975" style="stroke:rgb(255,238,101);stroke-width:1" /><circle cx="451.85202" cy="194.9975" r="2" style="fill:rgb(255,238,101);stroke:none;fill-opacity:1;stroke-opacity:1;" /><path d="M 451.85202 194.9975 L 405 207.9825" style="stroke:rgb(255,238,101);stroke-width:1" /><circle cx="405" cy="207.9825" r="2" style="fill:rgb(255,238,101);stroke:none;fill-opacity:1;stroke-opacity:1;" /><path d="M 405 207.9825 L 338.96576 216.79001" style="stroke:rgb(255,238,101);stroke-width:1" /><circle cx="338.96576" cy="216.79001" r="2" style="fill:rgb(255,238,101);stroke:none;fill-opacity:1;stroke-opacity:1;" /><path d="M 338.96576 216.79001 L 292.11377 221.655" style="stroke:rgb(255,238,101);stroke-width:1" /><circle cx="292.11377" cy="221.655" r="2" style="fill:rgb(255,238,101);stroke:none;fill-opacity:1;stroke-opacity:1;" /><path d="M 292.11377 221.655 L 255.7725 227.7775" style="stroke:rgb(255,238,101);stroke-width:1" /><circle cx="255.7725" cy="227.7775" r="2" style="fill:rgb(255,238,101);stroke:none;fill-opacity:1;stroke-opacity:1;" /><path d="M 255.7725 227.7775 L 142.88626 242.345" style="stroke:rgb(255,238,101);stroke-width:1" /><circle cx="142.88626" cy="242.345" r="2" style="fill:rgb(255,238,101);stroke:none;fill-opacity:1;stroke-opacity:1;" /><path d="M 142.88626 242.345 L 30 249.1325" style="stroke:rgb(255,238,101);stroke-width:1" /><circle cx="30" cy="249.1325" r="2" style="fill:rgb(255,238,101);stroke:none;fill-opacity:1;stroke-opacity:1;" /><circle cx="780" cy="26" r="2" style="fill:rgb(255,181,90);stroke:none;fill-opacity:1;stroke-opacity:1;" /><path d="M 780 26 L 630.77246 109.44" style="stroke:rgb(255,181,90);stroke-width:1" /><circle cx="630.77246" cy="109.44" r="2" style="fill:rgb(255,181,90);stroke:none;fill-opacity:1;stroke-opacity:1;" /><path d="M 630.77246 109.44 L 517.8862 149.20749" style="stroke:rgb(255,181,90);stroke-width:1" /><circle cx="517.8862" cy="149.20749" r="2" style="fill:rgb(255,181,90);stroke:none;fill-opacity:1;stroke-opacity:1;" /><path d="M 517.8862 149.20749 L 451.85202 165.1425" style="stroke:rgb(255,181,90);stroke-width:1" /><circle cx="451.85202" cy="165.1425" r="2" style="fill:rgb(255,181,90);stroke:none;fill-opacity:1;stroke-opacity:1;" /><path d="M 451.85202 165.1425 L 405 173.1325" style="stroke:rgb(255,181,90);stroke-width:1" /><circle cx="405" cy="173.1325" r="2" style="fill:rgb(255,181,90);stroke:none;fill-opacity:1;stroke-opacity:1;" /><path d="M 405 173.1325 L 338.96576 179.64" style="stroke:rgb(255,181,90);stroke-width:1" /><circle cx="338.96576" cy="179.64" r="2" style="fill:rgb(255,181,90);stroke:none;fill-opacity:1;stroke-opacity:1;" /><path d="M 338.96576 179.64 L 292.11377 177.8" style="stroke:rgb(255,181,90);stroke-width:1" /><circle cx="292.11377" cy="177.8" r="2" style="fill:rgb(255,181,90);stroke:none;fill-opacity:1;stroke-opacity:1;" /><path d="M 292.11377 177.8 L 255.7725 172.64749" style="stroke:rgb(255,181,90);stroke-width:1" /><circle cx="255.7725" cy="172.64749" r="2" style="fill:rgb(255,181,90);stroke:none;fill-opacity:1;stroke-opacity:1;" /><path d="M 255.7725 172.64749 L 142.88626 200.33" style="stroke:rgb(255,181,90);stroke-width:1" /><circle cx="142.88626" cy="200.33" r="2" style="fill:rgb(255,181,90);stroke:none;fill-opacity:1;stroke-opacity:1;" /><path d="M 142.88626 200.33 L 30 219.7" style="stroke:rgb(255,181,90);stroke-width:1" /><circle cx="30" cy="219.7" r="2" style="fill:rgb(255,181,90);stroke:none;fill-opacity:1;stroke-opacity:1;" /><circle cx="780" cy="253.045" r="2" style="fill:rgb(199,126,190);stroke:none;fill-opacity:1;stroke-opacity:1;" /><path d="M 780 253.045 L 630.77246 258.0075" style="stroke:rgb(199,126,190);stroke-width:1" /><circle cx="630.77246" cy="258.0075" r="2" style="fill:rgb(199,126,190);stroke:none;fill-opacity:1;stroke-opacity:1;" /><path d="M 630.77246 258.0075 L 517.8862 260.49" style="stroke:rgb(199,126,190);stroke-width:1" /><circle cx="517.8862" cy="260.49" r="2" style="fill:rgb(199,126,190);stroke:none;fill-opacity:1;stroke-opacity:1;" /><path d="M 517.8862 260.49 L 451.85202 261.63" style="stroke:rgb(199,126,190);stroke-width:1" /><circle cx="451.85202" cy="261.63" r="2" style="fill:rgb(199,126,190);stroke:none;fill-opacity:1;stroke-opacity:1;" /><path d="M 451.85202 261.63 L 405 262.375" style="stroke:rgb(199,126,190);stroke-width:1" /><circle cx="405" cy="262.375" r="2" style="fill:rgb(199,126,190);stroke:none;fill-opacity:1;stroke-opacity:1;" /><path d="M 405 262.375 L 338.96576 263.2125" style="stroke:rgb(199,126,190);stroke-width:1" /><circle cx="338.96576" cy="263.2125" r="2" style="fill:rgb(199,126,190);stroke:none;fill-opacity:1;stroke-opacity:1;" /><path d="M 338.96576 263.2125 L 292.11377 263.7425" style="stroke:rgb(199,126,190);stroke-width:1" /><circle cx="292.11377" cy="263.7425" r="2" style="fill:rgb(199,126,190);stroke:none;fill-opacity:1;stroke-opacity:1;" /><path d="M 292.11377 263.7425 L 255.7725 264.1225" style="stroke:rgb(199,126,190);stroke-width:1" /><circle cx="255.7725" cy="264.1225" r="2" style="fill:rgb(199,126,190);stroke:none;fill-opacity:1;stroke-opacity:1;" /><path d="M 255.7725 264.1225 L 142.88626 265.0225" style="stroke:rgb(199,126,190);stroke-width:1" /><circle cx="142.88626" cy="265.0225" r="2" style="fill:rgb(199,126,190);stroke:none;fill-opacity:1;stroke-opacity:1;" /><path d="M 142.88626 265.0225 L 30 265.785" style="stroke:rgb(199,126,190);stroke-width:1" /><circle cx="30" cy="265.785" r="2" style="fill:rgb(199,126,190);stroke:none;fill-opacity:1;stroke-opacity:1;" /><circle cx="780" cy="238.1875" r="2" style="fill:rgb(126,176,213);stroke:none;fill-opacity:1;stroke-opacity:1;" /><path d="M 780 238.1875 L 630.77246 245.2425" style="stroke:rgb(126,176,213);stroke-width:1" /><circle cx="630.77246" cy="245.2425" r="2" style="fill:rgb(126,176,213);stroke:none;fill-opacity:1;stroke-opacity:1;" /><path d="M 630.77246 245.2425 L 517.8862 248.5075" style="stroke:rgb(126,176,213);stroke-width:1" /><circle cx="517.8862" cy="248.5075" r="2" style="fill:rgb(126,176,213);stroke:none;fill-opacity:1;stroke-opacity:1;" /><path d="M 517.8862 248.5075 L 451.85202 250.0375" style="stroke:rgb(126,176,213);stroke-width:1" /><circle cx="451.85202" cy="250.0375" r="2" style="fill:rgb(126,176,213);stroke:none;fill-opacity:1;stroke-opacity:1;" /><path d="M 451.85202 250.0375 L 405 250.9875" style="stroke:rgb(126,176,213);stroke-width:1" /><circle cx="405" cy="250.9875" r="2" style="fill:rgb(126,176,213);stroke:none;fill-opacity:1;stroke-opacity:1;" /><path d="M 405 250.9875 L 338.96576 252.2925" style="stroke:rgb(126,176,213);stroke-width:1" /><circle cx="338.96576" cy="252.2925" r="2" style="fill:rgb(126,176,213);stroke:none;fill-opacity:1;stroke-opacity:1;" /><path d="M 338.96576 252.2925 L 292.11377 252.75" style="stroke:rgb(126,176,213);stroke-width:1" /><circle cx="292.11377" cy="252.75" r="2" style="fill:rgb(126,176,213);stroke:none;fill-opacity:1;stroke-opacity:1;" /><path d="M 292.11377 252.75 L 255.7725 253.3775" style="stroke:rgb(126,176,213);stroke-width:1" /><circle cx="255.7725" cy="253.3775" r="2" style="fill:rgb(126,176,213);stroke:none;fill-opacity:1;stroke-opacity:1;" /><path d="M 255.7725 253.3775 L 142.88626 254.5675" style="stroke:rgb(126,176,213);stroke-width:1" /><circle cx="142.88626" cy="254.5675" r="2" style="fill:rgb(126,176,213);stroke:none;fill-opacity:1;stroke-opacity:1;" /><path d="M 142.88626 254.5675 L 30 255.5225" style="stroke:rgb(126,176,213);stroke-width:1" /><circle cx="30" cy="255.5225" r="2" style="fill:rgb(126,176,213);stroke:none;fill-opacity:1;stroke-opacity:1;" /><circle cx="780" cy="244.9975" r="2" style="fill:rgb(253,127,111);stroke:none;fill-opacity:1;stroke-opacity:1;" /><path d="M 780 244.9975 L 630.77246 253.08499" style="stroke:rgb(253,127,111);stroke-width:1" /><circle cx="630.77246" cy="253.08499" r="2" style="fill:rgb(253,127,111);stroke:none;fill-opacity:1;stroke-opacity:1;" /><path d="M 630.77246 253.08499 L 517.8862 257.07" style="stroke:rgb(253,127,111);stroke-width:1" /><circle cx="517.8862" cy="257.07" r="2" style="fill:rgb(253,127,111);stroke:none;fill-opacity:1;stroke-opacity:1;" /><path d="M 517.8862 257.07 L 451.85202 258.8625" style="stroke:rgb(253,127,111);stroke-width:1" /><circle cx="451.85202" cy="258.8625" r="2" style="fill:rgb(253,127,111);stroke:none;fill-opacity:1;stroke-opacity:1;" /><path d="M 451.85202 258.8625 L 405 259.91" style="stroke:rgb(253,127,111);stroke-width:1" /><circle cx="405" cy="259.91" r="2" style="fill:rgb(253,127,111);stroke:none;fill-opacity:1;stroke-opacity:1;" /><path d="M 405 259.91 L 338.96576 261.21" style="stroke:rgb(253,127,111);stroke-width:1" /><circle cx="338.96576" cy="261.21" r="2" style="fill:rgb(253,127,111);stroke:none;fill-opacity:1;stroke-opacity:1;" /><path d="M 338.96576 261.21 L 292.11377 261.9175" style="stroke:rgb(253,127,111);stroke-width:1" /><circle cx="292.11377" cy="261.9175" r="2" style="fill:rgb(253,127,111);stroke:none;fill-opacity:1;stroke-opacity:1;" /><path d="M 292.11377 261.9175 L 255.7725 262.565" style="stroke:rgb(253,127,111);stroke-width:1" /><circle cx="255.7725" cy="262.565" r="2" style="fill:rgb(253,127,111);stroke:none;fill-opacity:1;stroke-opacity:1;" /><path d="M 255.7725 262.565 L 142.88626 263.98" style="stroke:rgb(253,127,111);stroke-width:1" /><circle cx="142.88626" cy="263.98" r="2" style="fill:rgb(253,127,111);stroke:none;fill-opacity:1;stroke-opacity:1;" /><path d="M 142.88626 263.98 L 30 265.115" style="stroke:rgb(253,127,111);stroke-width:1" /><circle cx="30" cy="265.115" r="2" style="fill:rgb(253,127,111);stroke:none;fill-opacity:1;stroke-opacity:1;" /><rect x="676" y="16" width="80" height="196" ry="4" style="fill:rgb(30,30,30);stroke:none;fill-opacity:0.8;stroke-opacity:1;" /><rect x="680" y="20" width="20" height="20" ry="2" style="fill:rgb(253,127,111);stroke:none;fill-opacity:1;stroke-opacity:1;" /><text x="705" y="33" style="font-size:10px;fill:rgb(255,255,255);text-anchor:start;text-align:left;"> fwd-diff </text><rect x="680" y="41" width="20" height="20" ry="2" style="fill:rgb(255,181,90);stroke:none;fill-opacity:1;stroke-opacity:1;" /><text x="705" y="54" style="font-size:10px;fill:rgb(255,255,255);text-anchor:start;text-align:left;"> hain </text><rect x="680" y="62" width="20" height="20" ry="2" style="fill:rgb(50,125,209);stroke:none;fill-opacity:1;stroke-opacity:1;" /><text x="705" y="75" style="font-size:10px;fill:rgb(255,255,255);text-anchor:start;text-align:left;"> levien </text><rect x="680" y="83" width="20" height="20" ry="2" style="fill:rgb(119,211,179);stroke:none;fill-opacity:1;stroke-opacity:1;" /><text x="705" y="96" style="font-size:10px;fill:rgb(255,255,255);text-anchor:start;text-align:left;"> levien-linear </text><rect x="680" y="104" width="20" height="20" ry="2" style="fill:rgb(126,176,213);stroke:none;fill-opacity:1;stroke-opacity:1;" /><text x="705" y="117" style="font-size:10px;fill:rgb(255,255,255);text-anchor:start;text-align:left;"> levien-simd </text><rect x="680" y="125" width="20" height="20" ry="2" style="fill:rgb(128,214,87);stroke:none;fill-opacity:1;stroke-opacity:1;" /><text x="705" y="138" style="font-size:10px;fill:rgb(255,255,255);text-anchor:start;text-align:left;"> linear </text><rect x="680" y="146" width="20" height="20" ry="2" style="fill:rgb(255,238,101);stroke:none;fill-opacity:1;stroke-opacity:1;" /><text x="705" y="159" style="font-size:10px;fill:rgb(255,255,255);text-anchor:start;text-align:left;"> recursive </text><rect x="680" y="167" width="20" height="20" ry="2" style="fill:rgb(253,204,229);stroke:none;fill-opacity:1;stroke-opacity:1;" /><text x="705" y="180" style="font-size:10px;fill:rgb(255,255,255);text-anchor:start;text-align:left;"> wang </text><rect x="680" y="188" width="20" height="20" ry="2" style="fill:rgb(199,126,190);stroke:none;fill-opacity:1;stroke-opacity:1;" /><text x="705" y="201" style="font-size:10px;fill:rgb(255,255,255);text-anchor:start;text-align:left;"> wang-simd </text><text x="400" y="30" style="font-size:20px;fill:rgb(255,255,255);text-anchor:middle;text-align:center;"> nehab dataset: cubic </text><text x="400" y="42" style="font-size:8px;fill:rgb(200,200,200);text-anchor:middle;text-align:center;"> Normalized performance score (lower is better) </text></svg>