<svg xmlns="http://www.w3.org/2000/svg" viewBox="0 0 800 300"><rect x="0" y="0" width="800" height="300" ry="6" style="fill:rgb(30,30,30);stroke:none;fill-opacity:1;stroke-opacity:1;" /><path d="M 30 20 L 30 270" style="stroke:rgb(200,200,200);stroke-width:1" /><path d="M 30 270 L 780 270" style="stroke:rgb(200,200,200);stroke-width:1" /><path d="M 780 270 L 780 272" style="stroke:rgb(200,200,200);stroke-width:1" /><text x="780" y="282" style="font-size:10px;fill:rgb(200,200,200);text-anchor:middle;text-align:center;"> 0.01 </text><path d="M 630.77246 270 L 630.77246 272" style="stroke:rgb(200,200,200);stroke-width:1" /><text x="630.77246" y="282" style="font-size:10px;fill:rgb(200,200,200);text-anchor:middle;text-align:center;"> 0.025 </text><path d="M 517.8862 270 L 517.8862 272" style="stroke:rgb(200,200,200);stroke-width:1" /><text x="517.8862" y="282" style="font-size:10px;fill:rgb(200,200,200);text-anchor:middle;text-align:center;"> 0.05 </text><path d="M 451.85202 270 L 451.85202 272" style="stroke:rgb(200,200,200);stroke-width:1" /><text x="451.85202" y="282" style="font-size:10px;fill:rgb(200,200,200);text-anchor:middle;text-align:center;"> 0.075 </text><path d="M 405 270 L 405 272" style="stroke:rgb(200,200,200);stroke-width:1" /><text x="405" y="282" style="font-size:10px;fill:rgb(200,200,200);text-anchor:middle;text-align:center;"> 0.1 </text><path d="M 338.96576 270 L 338.96576 272" style="stroke:rgb(200,200,200);stroke-width:1" /><text x="338.96576" y="282" style="font-size:10px;fill:rgb(200,200,200);text-anchor:middle;text-align:center;"> 0.15 </text><path d="M 292.11377 270 L 292.11377 272" style="stroke:rgb(200,200,200);stroke-width:1" /><text x="292.11377" y="282" style="font-size:10px;fill:rgb(200,200,200);text-anchor:middle;text-align:center;"> 0.2 </text><path d="M 255.7725 270 L 255.7725 272" style="stroke:rgb(200,200,200);stroke-width:1" /><text x="255.7725" y="282" style="font-size:10px;fill:rgb(200,200,200);text-anchor:middle;text-align:center;"> 0.25 </text><path d="M 142.88626 270 L 142.88626 272" style="stroke:rgb(200,200,200);stroke-width:1" /><text x="142.88626" y="282" style="font-size:10px;fill:rgb(200,200,200);text-anchor:middle;text-align:center;"> 0.5 </text><path d="M 30 270 L 30 272" style="stroke:rgb(200,200,200);stroke-width:1" /><text x="30" y="282" style="font-size:10px;fill:rgb(200,200,200);text-anchor:middle;text-align:center;"> 1 </text><path d="M 28 270 L 30 270" style="stroke:rgb(200,200,200);stroke-width:1" /><text x="26" y="274" style="font-size:10px;fill:rgb(200,200,200);text-anchor:end;text-align:right;"> 0 </text><path d="M 28 207.5 L 30 207.5" style="stroke:rgb(200,200,200);stroke-width:1" /><text x="26" y="211.5" style="font-size:10px;fill:rgb(200,200,200);text-anchor:end;text-align:right;"> 0.25 </text><path d="M 28 145 L 30 145" style="stroke:rgb(200,200,200);stroke-width:1" /><text x="26" y="149" style="font-size:10px;fill:rgb(200,200,200);text-anchor:end;text-align:right;"> 0.5 </text><path d="M 28 82.5 L 30 82.5" style="stroke:rgb(200,200,200);stroke-width:1" /><text x="26" y="86.5" style="font-size:10px;fill:rgb(200,200,200);text-anchor:end;text-align:right;"> 0.75 </text><path d="M 28 20 L 30 20" style="stroke:rgb(200,200,200);stroke-width:1" /><text x="26" y="24" style="font-size:10px;fill:rgb(200,200,200);text-anchor:end;text-align:right;"> 1 </text><text x="400" y="294" style="font-size:10px;fill:rgb(200,200,200);text-anchor:middle;text-align:center;"> Tolerance </text><circle cx="780" cy="158.86499" r="2" style="fill:rgb(119,211,179);stroke:none;fill-opacity:1;stroke-opacity:1;" /><path d="M 780 158.86499 L 630.77246 185.015" style="stroke:rgb(119,211,179);stroke-width:1" /><circle cx="630.77246" cy="185.015" r="2" style="fill:rgb(119,211,179);stroke:none;fill-opacity:1;stroke-opacity:1;" /><path d="M 630.77246 185.015 L 517.8862 200.125" style="stroke:rgb(119,211,179);stroke-width:1" /><circle cx="517.8862" cy="200.125" r="2" style="fill:rgb(119,211,179);stroke:none;fill-opacity:1;stroke-opacity:1;" /><path d="M 517.8862 200.125 L 451.85202 208.1675" style="stroke:rgb(119,211,179);stroke-width:1" /><circle cx="451.85202" cy="208.1675" r="2" style="fill:rgb(119,211,179);stroke:none;fill-opacity:1;stroke-opacity:1;" /><path d="M 451.85202 208.1675 L 405 214.5525" style="stroke:rgb(119,211,179);stroke-width:1" /><circle cx="405" cy="214.5525" r="2" style="fill:rgb(119,211,179);stroke:none;fill-opacity:1;stroke-opacity:1;" /><path d="M 405 214.5525 L 338.96576 223.5325" style="stroke:rgb(119,211,179);stroke-width:1" /><circle cx="338.96576" cy="223.5325" r="2" style="fill:rgb(119,211,179);stroke:none;fill-opacity:1;stroke-opacity:1;" /><path d="M 338.96576 223.5325 L 292.11377 229.955" style="stroke:rgb(119,211,179);stroke-width:1" /><circle cx="292.11377" cy="229.955" r="2" style="fill:rgb(119,211,179);stroke:none;fill-opacity:1;stroke-opacity:1;" /><path d="M 292.11377 229.955 L 255.7725 234.7375" style="stroke:rgb(119,211,179);stroke-width:1" /><circle cx="255.7725" cy="234.7375" r="2" style="fill:rgb(119,211,179);stroke:none;fill-opacity:1;stroke-opacity:1;" /><path d="M 255.7725 234.7375 L 142.88626 249.62" style="stroke:rgb(119,211,179);stroke-width:1" /><circle cx="142.88626" cy="249.62" r="2" style="fill:rgb(119,211,179);stroke:none;fill-opacity:1;stroke-opacity:1;" /><path d="M 142.88626 249.62 L 30 257.785" style="stroke:rgb(119,211,179);stroke-width:1" /><circle cx="30" cy="257.785" r="2" style="fill:rgb(119,211,179);stroke:none;fill-opacity:1;stroke-opacity:1;" /><circle cx="780" cy="143.945" r="2" style="fill:rgb(255,238,101);stroke:none;fill-opacity:1;stroke-opacity:1;" /><path d="M 780 143.945 L 630.77246 188.91" style="stroke:rgb(255,238,101);stroke-width:1" /><circle cx="630.77246" cy="188.91" r="2" style="fill:rgb(255,238,101);stroke:none;fill-opacity:1;stroke-opacity:1;" /><path d="M 630.77246 188.91 L 517.8862 210.8125" style="stroke:rgb(255,238,101);stroke-width:1" /><circle cx="517.8862" cy="210.8125" r="2" style="fill:rgb(255,238,101);stroke:none;fill-opacity:1;stroke-opacity:1;" /><path d="M 517.8862 210.8125 L 451.85202 221.635" style="stroke:rgb(255,238,101);stroke-width:1" /><circle cx="451.85202" cy="221.635" r="2" style="fill:rgb(255,238,101);stroke:none;fill-opacity:1;stroke-opacity:1;" /><path d="M 451.85202 221.635 L 405 228.58" style="stroke:rgb(255,238,101);stroke-width:1" /><circle cx="405" cy="228.58" r="2" style="fill:rgb(255,238,101);stroke:none;fill-opacity:1;stroke-opacity:1;" /><path d="M 405 228.58 L 338.96576 237.345" style="stroke:rgb(255,238,101);stroke-width:1" /><circle cx="338.96576" cy="237.345" r="2" style="fill:rgb(255,238,101);stroke:none;fill-opacity:1;stroke-opacity:1;" /><path d="M 338.96576 237.345 L 292.11377 241.89" style="stroke:rgb(255,238,101);stroke-width:1" /><circle cx="292.11377" cy="241.89" r="2" style="fill:rgb(255,238,101);stroke:none;fill-opacity:1;stroke-opacity:1;" /><path d="M 292.11377 241.89 L 255.7725 245.285" style="stroke:rgb(255,238,101);stroke-width:1" /><circle cx="255.7725" cy="245.285" r="2" style="fill:rgb(255,238,101);stroke:none;fill-opacity:1;stroke-opacity:1;" /><path d="M 255.7725 245.285 L 142.88626 253.81" style="stroke:rgb(255,238,101);stroke-width:1" /><circle cx="142.88626" cy="253.81" r="2" style="fill:rgb(255,238,101);stroke:none;fill-opacity:1;stroke-opacity:1;" /><path d="M 142.88626 253.81 L 30 259.705" style="stroke:rgb(255,238,101);stroke-width:1" /><circle cx="30" cy="259.705" r="2" style="fill:rgb(255,238,101);stroke:none;fill-opacity:1;stroke-opacity:1;" /><circle cx="780" cy="246.565" r="2" style="fill:rgb(253,204,229);stroke:none;fill-opacity:1;stroke-opacity:1;" /><path d="M 780 246.565 L 630.77246 252.435" style="stroke:rgb(253,204,229);stroke-width:1" /><circle cx="630.77246" cy="252.435" r="2" style="fill:rgb(253,204,229);stroke:none;fill-opacity:1;stroke-opacity:1;" /><path d="M 630.77246 252.435 L 517.8862 255.6475" style="stroke:rgb(253,204,229);stroke-width:1" /><circle cx="517.8862" cy="255.6475" r="2" style="fill:rgb(253,204,229);stroke:none;fill-opacity:1;stroke-opacity:1;" /><path d="M 517.8862 255.6475 L 451.85202 257.105" style="stroke:rgb(253,204,229);stroke-width:1" /><circle cx="451.85202" cy="257.105" r="2" style="fill:rgb(253,204,229);stroke:none;fill-opacity:1;stroke-opacity:1;" /><path d="M 451.85202 257.105 L 405 258.0125" style="stroke:rgb(253,204,229);stroke-width:1" /><circle cx="405" cy="258.0125" r="2" style="fill:rgb(253,204,229);stroke:none;fill-opacity:1;stroke-opacity:1;" /><path d="M 405 258.0125 L 338.96576 259.125" style="stroke:rgb(253,204,229);stroke-width:1" /><circle cx="338.96576" cy="259.125" r="2" style="fill:rgb(253,204,229);stroke:none;fill-opacity:1;stroke-opacity:1;" /><path d="M 338.96576 259.125 L 292.11377 259.7875" style="stroke:rgb(253,204,229);stroke-width:1" /><circle cx="292.11377" cy="259.7875" r="2" style="fill:rgb(253,204,229);stroke:none;fill-opacity:1;stroke-opacity:1;" /><path d="M 292.11377 259.7875 L 255.7725 260.2475" style="stroke:rgb(253,204,229);stroke-width:1" /><circle cx="255.7725" cy="260.2475" r="2" style="fill:rgb(253,204,229);stroke:none;fill-opacity:1;stroke-opacity:1;" /><path d="M 255.7725 260.2475 L 142.88626 261.7075" style="stroke:rgb(253,204,229);stroke-width:1" /><circle cx="142.88626" cy="261.7075" r="2" style="fill:rgb(253,204,229);stroke:none;fill-opacity:1;stroke-opacity:1;" /><path d="M 142.88626 261.7075 L 30 262.9675" style="stroke:rgb(253,204,229);stroke-width:1" /><circle cx="30" cy="262.9675" r="2" style="fill:rgb(253,204,229);stroke:none;fill-opacity:1;stroke-opacity:1;" /><circle cx="780" cy="159.325" r="2" style="fill:rgb(126,176,213);stroke:none;fill-opacity:1;stroke-opacity:1;" /><path d="M 780 159.325 L 630.77246 184.075" style="stroke:rgb(126,176,213);stroke-width:1" /><circle cx="630.77246" cy="184.075" r="2" style="fill:rgb(126,176,213);stroke:none;fill-opacity:1;stroke-opacity:1;" /><path d="M 630.77246 184.075 L 517.8862 198.2175" style="stroke:rgb(126,176,213);stroke-width:1" /><circle cx="517.8862" cy="198.2175" r="2" style="fill:rgb(126,176,213);stroke:none;fill-opacity:1;stroke-opacity:1;" /><path d="M 517.8862 198.2175 L 451.85202 204.35" style="stroke:rgb(126,176,213);stroke-width:1" /><circle cx="451.85202" cy="204.35" r="2" style="fill:rgb(126,176,213);stroke:none;fill-opacity:1;stroke-opacity:1;" /><path d="M 451.85202 204.35 L 405 209.24" style="stroke:rgb(126,176,213);stroke-width:1" /><circle cx="405" cy="209.24" r="2" style="fill:rgb(126,176,213);stroke:none;fill-opacity:1;stroke-opacity:1;" /><path d="M 405 209.24 L 338.96576 214.8625" style="stroke:rgb(126,176,213);stroke-width:1" /><circle cx="338.96576" cy="214.8625" r="2" style="fill:rgb(126,176,213);stroke:none;fill-opacity:1;stroke-opacity:1;" /><path d="M 338.96576 214.8625 L 292.11377 218.5575" style="stroke:rgb(126,176,213);stroke-width:1" /><circle cx="292.11377" cy="218.5575" r="2" style="fill:rgb(126,176,213);stroke:none;fill-opacity:1;stroke-opacity:1;" /><path d="M 292.11377 218.5575 L 255.7725 221.49" style="stroke:rgb(126,176,213);stroke-width:1" /><circle cx="255.7725" cy="221.49" r="2" style="fill:rgb(126,176,213);stroke:none;fill-opacity:1;stroke-opacity:1;" /><path d="M 255.7725 221.49 L 142.88626 228.44" style="stroke:rgb(126,176,213);stroke-width:1" /><circle cx="142.88626" cy="228.44" r="2" style="fill:rgb(126,176,213);stroke:none;fill-opacity:1;stroke-opacity:1;" /><path d="M 142.88626 228.44 L 30 232.2425" style="stroke:rgb(126,176,213);stroke-width:1" /><circle cx="30" cy="232.2425" r="2" style="fill:rgb(126,176,213);stroke:none;fill-opacity:1;stroke-opacity:1;" /><circle cx="780" cy="253.1425" r="2" style="fill:rgb(199,126,190);stroke:none;fill-opacity:1;stroke-opacity:1;" /><path d="M 780 253.1425 L 630.77246 256.7325" style="stroke:rgb(199,126,190);stroke-width:1" /><circle cx="630.77246" cy="256.7325" r="2" style="fill:rgb(199,126,190);stroke:none;fill-opacity:1;stroke-opacity:1;" /><path d="M 630.77246 256.7325 L 517.8862 258.575" style="stroke:rgb(199,126,190);stroke-width:1" /><circle cx="517.8862" cy="258.575" r="2" style="fill:rgb(199,126,190);stroke:none;fill-opacity:1;stroke-opacity:1;" /><path d="M 517.8862 258.575 L 451.85202 259.505" style="stroke:rgb(199,126,190);stroke-width:1" /><circle cx="451.85202" cy="259.505" r="2" style="fill:rgb(199,126,190);stroke:none;fill-opacity:1;stroke-opacity:1;" /><path d="M 451.85202 259.505 L 405 260.14" style="stroke:rgb(199,126,190);stroke-width:1" /><circle cx="405" cy="260.14" r="2" style="fill:rgb(199,126,190);stroke:none;fill-opacity:1;stroke-opacity:1;" /><path d="M 405 260.14 L 338.96576 260.93" style="stroke:rgb(199,126,190);stroke-width:1" /><circle cx="338.96576" cy="260.93" r="2" style="fill:rgb(199,126,190);stroke:none;fill-opacity:1;stroke-opacity:1;" /><path d="M 338.96576 260.93 L 292.11377 261.4575" style="stroke:rgb(199,126,190);stroke-width:1" /><circle cx="292.11377" cy="261.4575" r="2" style="fill:rgb(199,126,190);stroke:none;fill-opacity:1;stroke-opacity:1;" /><path d="M 292.11377 261.4575 L 255.7725 261.795" style="stroke:rgb(199,126,190);stroke-width:1" /><circle cx="255.7725" cy="261.795" r="2" style="fill:rgb(199,126,190);stroke:none;fill-opacity:1;stroke-opacity:1;" /><path d="M 255.7725 261.795 L 142.88626 262.855" style="stroke:rgb(199,126,190);stroke-width:1" /><circle cx="142.88626" cy="262.855" r="2" style="fill:rgb(199,126,190);stroke:none;fill-opacity:1;stroke-opacity:1;" /><path d="M 142.88626 262.855 L 30 263.4625" style="stroke:rgb(199,126,190);stroke-width:1" /><circle cx="30" cy="263.4625" r="2" style="fill:rgb(199,126,190);stroke:none;fill-opacity:1;stroke-opacity:1;" /><circle cx="780" cy="247.795" r="2" style="fill:rgb(253,127,111);stroke:none;fill-opacity:1;stroke-opacity:1;" /><path d="M 780 247.795 L 630.77246 252.995" style="stroke:rgb(253,127,111);stroke-width:1" /><circle cx="630.77246" cy="252.995" r="2" style="fill:rgb(253,127,111);stroke:none;fill-opacity:1;stroke-opacity:1;" /><path d="M 630.77246 252.995 L 517.8862 255.69" style="stroke:rgb(253,127,111);stroke-width:1" /><circle cx="517.8862" cy="255.69" r="2" style="fill:rgb(253,127,111);stroke:none;fill-opacity:1;stroke-opacity:1;" /><path d="M 517.8862 255.69 L 451.85202 256.885" style="stroke:rgb(253,127,111);stroke-width:1" /><circle cx="451.85202" cy="256.885" r="2" style="fill:rgb(253,127,111);stroke:none;fill-opacity:1;stroke-opacity:1;" /><path d="M 451.85202 256.885 L 405 257.76" style="stroke:rgb(253,127,111);stroke-width:1" /><circle cx="405" cy="257.76" r="2" style="fill:rgb(253,127,111);stroke:none;fill-opacity:1;stroke-opacity:1;" /><path d="M 405 257.76 L 338.96576 258.59" style="stroke:rgb(253,127,111);stroke-width:1" /><circle cx="338.96576" cy="258.59" r="2" style="fill:rgb(253,127,111);stroke:none;fill-opacity:1;stroke-opacity:1;" /><path d="M 338.96576 258.59 L 292.11377 259.13" style="stroke:rgb(253,127,111);stroke-width:1" /><circle cx="292.11377" cy="259.13" r="2" style="fill:rgb(253,127,111);stroke:none;fill-opacity:1;stroke-opacity:1;" /><path d="M 292.11377 259.13 L 255.7725 259.5325" style="stroke:rgb(253,127,111);stroke-width:1" /><circle cx="255.7725" cy="259.5325" r="2" style="fill:rgb(253,127,111);stroke:none;fill-opacity:1;stroke-opacity:1;" /><path d="M 255.7725 259.5325 L 142.88626 260.9475" style="stroke:rgb(253,127,111);stroke-width:1" /><circle cx="142.88626" cy="260.9475" r="2" style="fill:rgb(253,127,111);stroke:none;fill-opacity:1;stroke-opacity:1;" /><path d="M 142.88626 260.9475 L 30 262.2025" style="stroke:rgb(253,127,111);stroke-width:1" /><circle cx="30" cy="262.2025" r="2" style="fill:rgb(253,127,111);stroke:none;fill-opacity:1;stroke-opacity:1;" /><circle cx="780" cy="140" r="2" style="fill:rgb(255,181,90);stroke:none;fill-opacity:1;stroke-opacity:1;" /><path d="M 780 140 L 630.77246 181.26001" style="stroke:rgb(255,181,90);stroke-width:1" /><circle cx="630.77246" cy="181.26001" r="2" style="fill:rgb(255,181,90);stroke:none;fill-opacity:1;stroke-opacity:1;" /><path d="M 630.77246 181.26001 L 517.8862 201.17" style="stroke:rgb(255,181,90);stroke-width:1" /><circle cx="517.8862" cy="201.17" r="2" style="fill:rgb(255,181,90);stroke:none;fill-opacity:1;stroke-opacity:1;" /><path d="M 517.8862 201.17 L 451.85202 209.4325" style="stroke:rgb(255,181,90);stroke-width:1" /><circle cx="451.85202" cy="209.4325" r="2" style="fill:rgb(255,181,90);stroke:none;fill-opacity:1;stroke-opacity:1;" /><path d="M 451.85202 209.4325 L 405 213.9975" style="stroke:rgb(255,181,90);stroke-width:1" /><circle cx="405" cy="213.9975" r="2" style="fill:rgb(255,181,90);stroke:none;fill-opacity:1;stroke-opacity:1;" /><path d="M 405 213.9975 L 338.96576 218.16" style="stroke:rgb(255,181,90);stroke-width:1" /><circle cx="338.96576" cy="218.16" r="2" style="fill:rgb(255,181,90);stroke:none;fill-opacity:1;stroke-opacity:1;" /><path d="M 338.96576 218.16 L 292.11377 218.39" style="stroke:rgb(255,181,90);stroke-width:1" /><circle cx="292.11377" cy="218.39" r="2" style="fill:rgb(255,181,90);stroke:none;fill-opacity:1;stroke-opacity:1;" /><path d="M 292.11377 218.39 L 255.7725 215.9625" style="stroke:rgb(255,181,90);stroke-width:1" /><circle cx="255.7725" cy="215.9625" r="2" style="fill:rgb(255,181,90);stroke:none;fill-opacity:1;stroke-opacity:1;" /><path d="M 255.7725 215.9625 L 142.88626 229.44" style="stroke:rgb(255,181,90);stroke-width:1" /><circle cx="142.88626" cy="229.44" r="2" style="fill:rgb(255,181,90);stroke:none;fill-opacity:1;stroke-opacity:1;" /><path d="M 142.88626 229.44 L 30 240.27" style="stroke:rgb(255,181,90);stroke-width:1" /><circle cx="30" cy="240.27" r="2" style="fill:rgb(255,181,90);stroke:none;fill-opacity:1;stroke-opacity:1;" /><circle cx="780" cy="117.7625" r="2" style="fill:rgb(128,214,87);stroke:none;fill-opacity:1;stroke-opacity:1;" /><path d="M 780 117.7625 L 630.77246 173.5125" style="stroke:rgb(128,214,87);stroke-width:1" /><circle cx="630.77246" cy="173.5125" r="2" style="fill:rgb(128,214,87);stroke:none;fill-opacity:1;stroke-opacity:1;" /><path d="M 630.77246 173.5125 L 517.8862 202.56" style="stroke:rgb(128,214,87);stroke-width:1" /><circle cx="517.8862" cy="202.56" r="2" style="fill:rgb(128,214,87);stroke:none;fill-opacity:1;stroke-opacity:1;" /><path d="M 517.8862 202.56 L 451.85202 216.285" style="stroke:rgb(128,214,87);stroke-width:1" /><circle cx="451.85202" cy="216.285" r="2" style="fill:rgb(128,214,87);stroke:none;fill-opacity:1;stroke-opacity:1;" /><path d="M 451.85202 216.285 L 405 225.77249" style="stroke:rgb(128,214,87);stroke-width:1" /><circle cx="405" cy="225.77249" r="2" style="fill:rgb(128,214,87);stroke:none;fill-opacity:1;stroke-opacity:1;" /><path d="M 405 225.77249 L 338.96576 236.7025" style="stroke:rgb(128,214,87);stroke-width:1" /><circle cx="338.96576" cy="236.7025" r="2" style="fill:rgb(128,214,87);stroke:none;fill-opacity:1;stroke-opacity:1;" /><path d="M 338.96576 236.7025 L 292.11377 243.08499" style="stroke:rgb(128,214,87);stroke-width:1" /><circle cx="292.11377" cy="243.08499" r="2" style="fill:rgb(128,214,87);stroke:none;fill-opacity:1;stroke-opacity:1;" /><path d="M 292.11377 243.08499 L 255.7725 247.015" style="stroke:rgb(128,214,87);stroke-width:1" /><circle cx="255.7725" cy="247.015" r="2" style="fill:rgb(128,214,87);stroke:none;fill-opacity:1;stroke-opacity:1;" /><path d="M 255.7725 247.015 L 142.88626 255.95" style="stroke:rgb(128,214,87);stroke-width:1" /><circle cx="142.88626" cy="255.95" r="2" style="fill:rgb(128,214,87);stroke:none;fill-opacity:1;stroke-opacity:1;" /><path d="M 142.88626 255.95 L 30 260.62" style="stroke:rgb(128,214,87);stroke-width:1" /><circle cx="30" cy="260.62" r="2" style="fill:rgb(128,214,87);stroke:none;fill-opacity:1;stroke-opacity:1;" /><circle cx="780" cy="238.33499" r="2" style="fill:rgb(200,113,55);stroke:none;fill-opacity:1;stroke-opacity:1;" /><path d="M 780 238.33499 L 630.77246 239.39749" style="stroke:rgb(200,113,55);stroke-width:1" /><circle cx="630.77246" cy="239.39749" r="2" style="fill:rgb(200,113,55);stroke:none;fill-opacity:1;stroke-opacity:1;" /><path d="M 630.77246 239.39749 L 517.8862 240.1675" style="stroke:rgb(200,113,55);stroke-width:1" /><circle cx="517.8862" cy="240.1675" r="2" style="fill:rgb(200,113,55);stroke:none;fill-opacity:1;stroke-opacity:1;" /><path d="M 517.8862 240.1675 L 451.85202 240.8625" style="stroke:rgb(200,113,55);stroke-width:1" /><circle cx="451.85202" cy="240.8625" r="2" style="fill:rgb(200,113,55);stroke:none;fill-opacity:1;stroke-opacity:1;" /><path d="M 451.85202 240.8625 L 405 241.345" style="stroke:rgb(200,113,55);stroke-width:1" /><circle cx="405" cy="241.345" r="2" style="fill:rgb(200,113,55);stroke:none;fill-opacity:1;stroke-opacity:1;" /><path d="M 405 241.345 L 338.96576 242.2775" style="stroke:rgb(200,113,55);stroke-width:1" /><circle cx="338.96576" cy="242.2775" r="2" style="fill:rgb(200,113,55);stroke:none;fill-opacity:1;stroke-opacity:1;" /><path d="M 338.96576 242.2775 L 292.11377 242.245" style="stroke:rgb(200,113,55);stroke-width:1" /><circle cx="292.11377" cy="242.245" r="2" style="fill:rgb(200,113,55);stroke:none;fill-opacity:1;stroke-opacity:1;" /><path d="M 292.11377 242.245 L 255.7725 242.5975" style="stroke:rgb(200,113,55);stroke-width:1" /><circle cx="255.7725" cy="242.5975" r="2" style="fill:rgb(200,113,55);stroke:none;fill-opacity:1;stroke-opacity:1;" /><path d="M 255.7725 242.5975 L 142.88626 242.3625" style="stroke:rgb(200,113,55);stroke-width:1" /><circle cx="142.88626" cy="242.3625" r="2" style="fill:rgb(200,113,55);stroke:none;fill-opacity:1;stroke-opacity:1;" /><path d="M 142.88626 242.3625 L 30 241.4375" style="stroke:rgb(200,113,55);stroke-width:1" /><circle cx="30" cy="241.4375" r="2" style="fill:rgb(200,113,55);stroke:none;fill-opacity:1;stroke-opacity:1;" /><circle cx="780" cy="20" r="2" style="fill:rgb(50,125,209);stroke:none;fill-opacity:1;stroke-opacity:1;" /><path d="M 780 20 L 630.77246 82.6525" style="stroke:rgb(50,125,209);stroke-width:1" /><circle cx="630.77246" cy="82.6525" r="2" style="fill:rgb(50,125,209);stroke:none;fill-opacity:1;stroke-opacity:1;" /><path d="M 630.77246 82.6525 L 517.8862 118.1075" style="stroke:rgb(50,125,209);stroke-width:1" /><circle cx="517.8862" cy="118.1075" r="2" style="fill:rgb(50,125,209);stroke:none;fill-opacity:1;stroke-opacity:1;" /><path d="M 517.8862 118.1075 L 451.85202 134.59" style="stroke:rgb(50,125,209);stroke-width:1" /><circle cx="451.85202" cy="134.59" r="2" style="fill:rgb(50,125,209);stroke:none;fill-opacity:1;stroke-opacity:1;" /><path d="M 451.85202 134.59 L 405 145.995" style="stroke:rgb(50,125,209);stroke-width:1" /><circle cx="405" cy="145.995" r="2" style="fill:rgb(50,125,209);stroke:none;fill-opacity:1;stroke-opacity:1;" /><path d="M 405 145.995 L 338.96576 158.685" style="stroke:rgb(50,125,209);stroke-width:1" /><circle cx="338.96576" cy="158.685" r="2" style="fill:rgb(50,125,209);stroke:none;fill-opacity:1;stroke-opacity:1;" /><path d="M 338.96576 158.685 L 292.11377 167.455" style="stroke:rgb(50,125,209);stroke-width:1" /><circle cx="292.11377" cy="167.455" r="2" style="fill:rgb(50,125,209);stroke:none;fill-opacity:1;stroke-opacity:1;" /><path d="M 292.11377 167.455 L 255.7725 173.8175" style="stroke:rgb(50,125,209);stroke-width:1" /><circle cx="255.7725" cy="173.8175" r="2" style="fill:rgb(50,125,209);stroke:none;fill-opacity:1;stroke-opacity:1;" /><path d="M 255.7725 173.8175 L 142.88626 189.63" style="stroke:rgb(50,125,209);stroke-width:1" /><circle cx="142.88626" cy="189.63" r="2" style="fill:rgb(50,125,209);stroke:none;fill-opacity:1;stroke-opacity:1;" /><path d="M 142.88626 189.63 L 30 202.4375" style="stroke:rgb(50,125,209);stroke-width:1" /><circle cx="30" cy="202.4375" r="2" style="fill:rgb(50,125,209);stroke:none;fill-opacity:1;stroke-opacity:1;" /><circle cx="780" cy="228.095" r="2" style="fill:rgb(120,68,33);stroke:none;fill-opacity:1;stroke-opacity:1;" /><path d="M 780 228.095 L 630.77246 225.84" style="stroke:rgb(120,68,33);stroke-width:1" /><circle cx="630.77246" cy="225.84" r="2" style="fill:rgb(120,68,33);stroke:none;fill-opacity:1;stroke-opacity:1;" /><path d="M 630.77246 225.84 L 517.8862 224.405" style="stroke:rgb(120,68,33);stroke-width:1" /><circle cx="517.8862" cy="224.405" r="2" style="fill:rgb(120,68,33);stroke:none;fill-opacity:1;stroke-opacity:1;" /><path d="M 517.8862 224.405 L 451.85202 225.0975" style="stroke:rgb(120,68,33);stroke-width:1" /><circle cx="451.85202" cy="225.0975" r="2" style="fill:rgb(120,68,33);stroke:none;fill-opacity:1;stroke-opacity:1;" /><path d="M 451.85202 225.0975 L 405 226.1675" style="stroke:rgb(120,68,33);stroke-width:1" /><circle cx="405" cy="226.1675" r="2" style="fill:rgb(120,68,33);stroke:none;fill-opacity:1;stroke-opacity:1;" /><path d="M 405 226.1675 L 338.96576 229.3125" style="stroke:rgb(120,68,33);stroke-width:1" /><circle cx="338.96576" cy="229.3125" r="2" style="fill:rgb(120,68,33);stroke:none;fill-opacity:1;stroke-opacity:1;" /><path d="M 338.96576 229.3125 L 292.11377 231.7975" style="stroke:rgb(120,68,33);stroke-width:1" /><circle cx="292.11377" cy="231.7975" r="2" style="fill:rgb(120,68,33);stroke:none;fill-opacity:1;stroke-opacity:1;" /><path d="M 292.11377 231.7975 L 255.7725 233.6825" style="stroke:rgb(120,68,33);stroke-width:1" /><circle cx="255.7725" cy="233.6825" r="2" style="fill:rgb(120,68,33);stroke:none;fill-opacity:1;stroke-opacity:1;" /><path d="M 255.7725 233.6825 L 142.88626 239.31" style="stroke:rgb(120,68,33);stroke-width:1" /><circle cx="142.88626" cy="239.31" r="2" style="fill:rgb(120,68,33);stroke:none;fill-opacity:1;stroke-opacity:1;" /><path d="M 142.88626 239.31 L 30 238" style="stroke:rgb(120,68,33);stroke-width:1" /><circle cx="30" cy="238" r="2" style="fill:rgb(120,68,33);stroke:none;fill-opacity:1;stroke-opacity:1;" /><rect x="676" y="16" width="80" height="238" ry="4" style="fill:rgb(30,30,30);stroke:none;fill-opacity:0.8;stroke-opacity:1;" /><rect x="680" y="20" width="20" height="20" ry="2" style="fill:rgb(253,127,111);stroke:none;fill-opacity:1;stroke-opacity:1;" /><text x="705" y="33" style="font-size:10px;fill:rgb(255,255,255);text-anchor:start;text-align:left;"> fwd-diff </text><rect x="680" y="41" width="20" height="20" ry="2" style="fill:rgb(255,181,90);stroke:none;fill-opacity:1;stroke-opacity:1;" /><text x="705" y="54" style="font-size:10px;fill:rgb(255,255,255);text-anchor:start;text-align:left;"> hain </text><rect x="680" y="62" width="20" height="20" ry="2" style="fill:rgb(50,125,209);stroke:none;fill-opacity:1;stroke-opacity:1;" /><text x="705" y="75" style="font-size:10px;fill:rgb(255,255,255);text-anchor:start;text-align:left;"> levien </text><rect x="680" y="83" width="20" height="20" ry="2" style="fill:rgb(119,211,179);stroke:none;fill-opacity:1;stroke-opacity:1;" /><text x="705" y="96" style="font-size:10px;fill:rgb(255,255,255);text-anchor:start;text-align:left;"> levien-linear </text><rect x="680" y="104" width="20" height="20" ry="2" style="fill:rgb(126,176,213);stroke:none;fill-opacity:1;stroke-opacity:1;" /><text x="705" y="117" style="font-size:10px;fill:rgb(255,255,255);text-anchor:start;text-align:left;"> levien-simd </text><rect x="680" y="125" width="20" height="20" ry="2" style="fill:rgb(128,214,87);stroke:none;fill-opacity:1;stroke-opacity:1;" /><text x="705" y="138" style="font-size:10px;fill:rgb(255,255,255);text-anchor:start;text-align:left;"> linear </text><rect x="680" y="146" width="20" height="20" ry="2" style="fill:rgb(255,238,101);stroke:none;fill-opacity:1;stroke-opacity:1;" /><text x="705" y="159" style="font-size:10px;fill:rgb(255,255,255);text-anchor:start;text-align:left;"> recursive </text><rect x="680" y="167" width="20" height="20" ry="2" style="fill:rgb(253,204,229);stroke:none;fill-opacity:1;stroke-opacity:1;" /><text x="705" y="180" style="font-size:10px;fill:rgb(255,255,255);text-anchor:start;text-align:left;"> wang </text><rect x="680" y="188" width="20" height="20" ry="2" style="fill:rgb(199,126,190);stroke:none;fill-opacity:1;stroke-opacity:1;" /><text x="705" y="201" style="font-size:10px;fill:rgb(255,255,255);text-anchor:start;text-align:left;"> wang-simd </text><rect x="680" y="209" width="20" height="20" ry="2" style="fill:rgb(120,68,33);stroke:none;fill-opacity:1;stroke-opacity:1;" /><text x="705" y="222" style="font-size:10px;fill:rgb(255,255,255);text-anchor:start;text-align:left;"> yzerman </text><rect x="680" y="230" width="20" height="20" ry="2" style="fill:rgb(200,113,55);stroke:none;fill-opacity:1;stroke-opacity:1;" /><text x="705" y="243" style="font-size:10px;fill:rgb(255,255,255);text-anchor:start;text-align:left;"> yzerman-simd </text><text x="400" y="30" style="font-size:20px;fill:rgb(255,255,255);text-anchor:middle;text-align:center;"> tiger dataset: cubic </text><text x="400" y="42" style="font-size:8px;fill:rgb(200,200,200);text-anchor:middle;text-align:center;"> Normalized performance score (lower is better) </text></svg>