<svg xmlns="http://www.w3.org/2000/svg" viewBox="0 0 800 300"><rect x="0" y="0" width="800" height="300" ry="6" style="fill:rgb(30,30,30);stroke:none;fill-opacity:1;stroke-opacity:1;" /><path d="M 30 20 L 30 270" style="stroke:rgb(200,200,200);stroke-width:1" /><path d="M 30 270 L 780 270" style="stroke:rgb(200,200,200);stroke-width:1" /><path d="M 780 270 L 780 272" style="stroke:rgb(200,200,200);stroke-width:1" /><text x="780" y="282" style="font-size:10px;fill:rgb(200,200,200);text-anchor:middle;text-align:center;"> 0.01 </text><path d="M 630.77246 270 L 630.77246 272" style="stroke:rgb(200,200,200);stroke-width:1" /><text x="630.77246" y="282" style="font-size:10px;fill:rgb(200,200,200);text-anchor:middle;text-align:center;"> 0.025 </text><path d="M 517.8862 270 L 517.8862 272" style="stroke:rgb(200,200,200);stroke-width:1" /><text x="517.8862" y="282" style="font-size:10px;fill:rgb(200,200,200);text-anchor:middle;text-align:center;"> 0.05 </text><path d="M 451.85202 270 L 451.85202 272" style="stroke:rgb(200,200,200);stroke-width:1" /><text x="451.85202" y="282" style="font-size:10px;fill:rgb(200,200,200);text-anchor:middle;text-align:center;"> 0.075 </text><path d="M 405 270 L 405 272" style="stroke:rgb(200,200,200);stroke-width:1" /><text x="405" y="282" style="font-size:10px;fill:rgb(200,200,200);text-anchor:middle;text-align:center;"> 0.1 </text><path d="M 338.96576 270 L 338.96576 272" style="stroke:rgb(200,200,200);stroke-width:1" /><text x="338.96576" y="282" style="font-size:10px;fill:rgb(200,200,200);text-anchor:middle;text-align:center;"> 0.15 </text><path d="M 292.11377 270 L 292.11377 272" style="stroke:rgb(200,200,200);stroke-width:1" /><text x="292.11377" y="282" style="font-size:10px;fill:rgb(200,200,200);text-anchor:middle;text-align:center;"> 0.2 </text><path d="M 255.7725 270 L 255.7725 272" style="stroke:rgb(200,200,200);stroke-width:1" /><text x="255.7725" y="282" style="font-size:10px;fill:rgb(200,200,200);text-anchor:middle;text-align:center;"> 0.25 </text><path d="M 142.88626 270 L 142.88626 272" style="stroke:rgb(200,200,200);stroke-width:1" /><text x="142.88626" y="282" style="font-size:10px;fill:rgb(200,200,200);text-anchor:middle;text-align:center;"> 0.5 </text><path d="M 30 270 L 30 272" style="stroke:rgb(200,200,200);stroke-width:1" /><text x="30" y="282" style="font-size:10px;fill:rgb(200,200,200);text-anchor:middle;text-align:center;"> 1 </text><path d="M 28 270 L 30 270" style="stroke:rgb(200,200,200);stroke-width:1" /><text x="26" y="274" style="font-size:10px;fill:rgb(200,200,200);text-anchor:end;text-align:right;"> 0 </text><path d="M 28 207.5 L 30 207.5" style="stroke:rgb(200,200,200);stroke-width:1" /><text x="26" y="211.5" style="font-size:10px;fill:rgb(200,200,200);text-anchor:end;text-align:right;"> 0.25 </text><path d="M 28 145 L 30 145" style="stroke:rgb(200,200,200);stroke-width:1" /><text x="26" y="149" style="font-size:10px;fill:rgb(200,200,200);text-anchor:end;text-align:right;"> 0.5 </text><path d="M 28 82.5 L 30 82.5" style="stroke:rgb(200,200,200);stroke-width:1" /><text x="26" y="86.5" style="font-size:10px;fill:rgb(200,200,200);text-anchor:end;text-align:right;"> 0.75 </text><path d="M 28 20 L 30 20" style="stroke:rgb(200,200,200);stroke-width:1" /><text x="26" y="24" style="font-size:10px;fill:rgb(200,200,200);text-anchor:end;text-align:right;"> 1 </text><text x="400" y="294" style="font-size:10px;fill:rgb(200,200,200);text-anchor:middle;text-align:center;"> Tolerance </text><circle cx="780" cy="248.60251" r="2" style="fill:rgb(253,127,111);stroke:none;fill-opacity:1;stroke-opacity:1;" /><path d="M 780 248.60251 L 630.77246 254.8525" style="stroke:rgb(253,127,111);stroke-width:1" /><circle cx="630.77246" cy="254.8525" r="2" style="fill:rgb(253,127,111);stroke:none;fill-opacity:1;stroke-opacity:1;" /><path d="M 630.77246 254.8525 L 517.8862 258.2025" style="stroke:rgb(253,127,111);stroke-width:1" /><circle cx="517.8862" cy="258.2025" r="2" style="fill:rgb(253,127,111);stroke:none;fill-opacity:1;stroke-opacity:1;" /><path d="M 517.8862 258.2025 L 451.85202 259.635" style="stroke:rgb(253,127,111);stroke-width:1" /><circle cx="451.85202" cy="259.635" r="2" style="fill:rgb(253,127,111);stroke:none;fill-opacity:1;stroke-opacity:1;" /><path d="M 451.85202 259.635 L 405 260.5775" style="stroke:rgb(253,127,111);stroke-width:1" /><circle cx="405" cy="260.5775" r="2" style="fill:rgb(253,127,111);stroke:none;fill-opacity:1;stroke-opacity:1;" /><path d="M 405 260.5775 L 338.96576 261.7475" style="stroke:rgb(253,127,111);stroke-width:1" /><circle cx="338.96576" cy="261.7475" r="2" style="fill:rgb(253,127,111);stroke:none;fill-opacity:1;stroke-opacity:1;" /><path d="M 338.96576 261.7475 L 292.11377 262.5775" style="stroke:rgb(253,127,111);stroke-width:1" /><circle cx="292.11377" cy="262.5775" r="2" style="fill:rgb(253,127,111);stroke:none;fill-opacity:1;stroke-opacity:1;" /><path d="M 292.11377 262.5775 L 255.7725 263.1175" style="stroke:rgb(253,127,111);stroke-width:1" /><circle cx="255.7725" cy="263.1175" r="2" style="fill:rgb(253,127,111);stroke:none;fill-opacity:1;stroke-opacity:1;" /><path d="M 255.7725 263.1175 L 142.88626 264.485" style="stroke:rgb(253,127,111);stroke-width:1" /><circle cx="142.88626" cy="264.485" r="2" style="fill:rgb(253,127,111);stroke:none;fill-opacity:1;stroke-opacity:1;" /><path d="M 142.88626 264.485 L 30 265.405" style="stroke:rgb(253,127,111);stroke-width:1" /><circle cx="30" cy="265.405" r="2" style="fill:rgb(253,127,111);stroke:none;fill-opacity:1;stroke-opacity:1;" /><circle cx="780" cy="235.3475" r="2" style="fill:rgb(126,176,213);stroke:none;fill-opacity:1;stroke-opacity:1;" /><path d="M 780 235.3475 L 630.77246 245.255" style="stroke:rgb(126,176,213);stroke-width:1" /><circle cx="630.77246" cy="245.255" r="2" style="fill:rgb(126,176,213);stroke:none;fill-opacity:1;stroke-opacity:1;" /><path d="M 630.77246 245.255 L 517.8862 250.35251" style="stroke:rgb(126,176,213);stroke-width:1" /><circle cx="517.8862" cy="250.35251" r="2" style="fill:rgb(126,176,213);stroke:none;fill-opacity:1;stroke-opacity:1;" /><path d="M 517.8862 250.35251 L 451.85202 252.705" style="stroke:rgb(126,176,213);stroke-width:1" /><circle cx="451.85202" cy="252.705" r="2" style="fill:rgb(126,176,213);stroke:none;fill-opacity:1;stroke-opacity:1;" /><path d="M 451.85202 252.705 L 405 254.2125" style="stroke:rgb(126,176,213);stroke-width:1" /><circle cx="405" cy="254.2125" r="2" style="fill:rgb(126,176,213);stroke:none;fill-opacity:1;stroke-opacity:1;" /><path d="M 405 254.2125 L 338.96576 256.09" style="stroke:rgb(126,176,213);stroke-width:1" /><circle cx="338.96576" cy="256.09" r="2" style="fill:rgb(126,176,213);stroke:none;fill-opacity:1;stroke-opacity:1;" /><path d="M 338.96576 256.09 L 292.11377 257.3075" style="stroke:rgb(126,176,213);stroke-width:1" /><circle cx="292.11377" cy="257.3075" r="2" style="fill:rgb(126,176,213);stroke:none;fill-opacity:1;stroke-opacity:1;" /><path d="M 292.11377 257.3075 L 255.7725 258.1225" style="stroke:rgb(126,176,213);stroke-width:1" /><circle cx="255.7725" cy="258.1225" r="2" style="fill:rgb(126,176,213);stroke:none;fill-opacity:1;stroke-opacity:1;" /><path d="M 255.7725 258.1225 L 142.88626 260.235" style="stroke:rgb(126,176,213);stroke-width:1" /><circle cx="142.88626" cy="260.235" r="2" style="fill:rgb(126,176,213);stroke:none;fill-opacity:1;stroke-opacity:1;" /><path d="M 142.88626 260.235 L 30 261.75" style="stroke:rgb(126,176,213);stroke-width:1" /><circle cx="30" cy="261.75" r="2" style="fill:rgb(126,176,213);stroke:none;fill-opacity:1;stroke-opacity:1;" /><circle cx="780" cy="20.115005" r="2" style="fill:rgb(128,214,87);stroke:none;fill-opacity:1;stroke-opacity:1;" /><path d="M 780 20.115005 L 630.77246 111.03999" style="stroke:rgb(128,214,87);stroke-width:1" /><circle cx="630.77246" cy="111.03999" r="2" style="fill:rgb(128,214,87);stroke:none;fill-opacity:1;stroke-opacity:1;" /><path d="M 630.77246 111.03999 L 517.8862 155.73001" style="stroke:rgb(128,214,87);stroke-width:1" /><circle cx="517.8862" cy="155.73001" r="2" style="fill:rgb(128,214,87);stroke:none;fill-opacity:1;stroke-opacity:1;" /><path d="M 517.8862 155.73001 L 451.85202 177.3575" style="stroke:rgb(128,214,87);stroke-width:1" /><circle cx="451.85202" cy="177.3575" r="2" style="fill:rgb(128,214,87);stroke:none;fill-opacity:1;stroke-opacity:1;" /><path d="M 451.85202 177.3575 L 405 189.4675" style="stroke:rgb(128,214,87);stroke-width:1" /><circle cx="405" cy="189.4675" r="2" style="fill:rgb(128,214,87);stroke:none;fill-opacity:1;stroke-opacity:1;" /><path d="M 405 189.4675 L 338.96576 203.62" style="stroke:rgb(128,214,87);stroke-width:1" /><circle cx="338.96576" cy="203.62" r="2" style="fill:rgb(128,214,87);stroke:none;fill-opacity:1;stroke-opacity:1;" /><path d="M 338.96576 203.62 L 292.11377 212.7875" style="stroke:rgb(128,214,87);stroke-width:1" /><circle cx="292.11377" cy="212.7875" r="2" style="fill:rgb(128,214,87);stroke:none;fill-opacity:1;stroke-opacity:1;" /><path d="M 292.11377 212.7875 L 255.7725 219.4275" style="stroke:rgb(128,214,87);stroke-width:1" /><circle cx="255.7725" cy="219.4275" r="2" style="fill:rgb(128,214,87);stroke:none;fill-opacity:1;stroke-opacity:1;" /><path d="M 255.7725 219.4275 L 142.88626 234.1425" style="stroke:rgb(128,214,87);stroke-width:1" /><circle cx="142.88626" cy="234.1425" r="2" style="fill:rgb(128,214,87);stroke:none;fill-opacity:1;stroke-opacity:1;" /><path d="M 142.88626 234.1425 L 30 244.765" style="stroke:rgb(128,214,87);stroke-width:1" /><circle cx="30" cy="244.765" r="2" style="fill:rgb(128,214,87);stroke:none;fill-opacity:1;stroke-opacity:1;" /><circle cx="780" cy="143.83499" r="2" style="fill:rgb(50,125,209);stroke:none;fill-opacity:1;stroke-opacity:1;" /><path d="M 780 143.83499 L 630.77246 186.2675" style="stroke:rgb(50,125,209);stroke-width:1" /><circle cx="630.77246" cy="186.2675" r="2" style="fill:rgb(50,125,209);stroke:none;fill-opacity:1;stroke-opacity:1;" /><path d="M 630.77246 186.2675 L 517.8862 207.8125" style="stroke:rgb(50,125,209);stroke-width:1" /><circle cx="517.8862" cy="207.8125" r="2" style="fill:rgb(50,125,209);stroke:none;fill-opacity:1;stroke-opacity:1;" /><path d="M 517.8862 207.8125 L 451.85202 217.39" style="stroke:rgb(50,125,209);stroke-width:1" /><circle cx="451.85202" cy="217.39" r="2" style="fill:rgb(50,125,209);stroke:none;fill-opacity:1;stroke-opacity:1;" /><path d="M 451.85202 217.39 L 405 223.2775" style="stroke:rgb(50,125,209);stroke-width:1" /><circle cx="405" cy="223.2775" r="2" style="fill:rgb(50,125,209);stroke:none;fill-opacity:1;stroke-opacity:1;" /><path d="M 405 223.2775 L 338.96576 230.1575" style="stroke:rgb(50,125,209);stroke-width:1" /><circle cx="338.96576" cy="230.1575" r="2" style="fill:rgb(50,125,209);stroke:none;fill-opacity:1;stroke-opacity:1;" /><path d="M 338.96576 230.1575 L 292.11377 234.4525" style="stroke:rgb(50,125,209);stroke-width:1" /><circle cx="292.11377" cy="234.4525" r="2" style="fill:rgb(50,125,209);stroke:none;fill-opacity:1;stroke-opacity:1;" /><path d="M 292.11377 234.4525 L 255.7725 237.3725" style="stroke:rgb(50,125,209);stroke-width:1" /><circle cx="255.7725" cy="237.3725" r="2" style="fill:rgb(50,125,209);stroke:none;fill-opacity:1;stroke-opacity:1;" /><path d="M 255.7725 237.3725 L 142.88626 244.47" style="stroke:rgb(50,125,209);stroke-width:1" /><circle cx="142.88626" cy="244.47" r="2" style="fill:rgb(50,125,209);stroke:none;fill-opacity:1;stroke-opacity:1;" /><path d="M 142.88626 244.47 L 30 249.495" style="stroke:rgb(50,125,209);stroke-width:1" /><circle cx="30" cy="249.495" r="2" style="fill:rgb(50,125,209);stroke:none;fill-opacity:1;stroke-opacity:1;" /><circle cx="780" cy="20" r="2" style="fill:rgb(255,238,101);stroke:none;fill-opacity:1;stroke-opacity:1;" /><path d="M 780 20 L 630.77246 121.985" style="stroke:rgb(255,238,101);stroke-width:1" /><circle cx="630.77246" cy="121.985" r="2" style="fill:rgb(255,238,101);stroke:none;fill-opacity:1;stroke-opacity:1;" /><path d="M 630.77246 121.985 L 517.8862 155.255" style="stroke:rgb(255,238,101);stroke-width:1" /><circle cx="517.8862" cy="155.255" r="2" style="fill:rgb(255,238,101);stroke:none;fill-opacity:1;stroke-opacity:1;" /><path d="M 517.8862 155.255 L 451.85202 180.1525" style="stroke:rgb(255,238,101);stroke-width:1" /><circle cx="451.85202" cy="180.1525" r="2" style="fill:rgb(255,238,101);stroke:none;fill-opacity:1;stroke-opacity:1;" /><path d="M 451.85202 180.1525 L 405 196.195" style="stroke:rgb(255,238,101);stroke-width:1" /><circle cx="405" cy="196.195" r="2" style="fill:rgb(255,238,101);stroke:none;fill-opacity:1;stroke-opacity:1;" /><path d="M 405 196.195 L 338.96576 206.445" style="stroke:rgb(255,238,101);stroke-width:1" /><circle cx="338.96576" cy="206.445" r="2" style="fill:rgb(255,238,101);stroke:none;fill-opacity:1;stroke-opacity:1;" /><path d="M 338.96576 206.445 L 292.11377 212.8075" style="stroke:rgb(255,238,101);stroke-width:1" /><circle cx="292.11377" cy="212.8075" r="2" style="fill:rgb(255,238,101);stroke:none;fill-opacity:1;stroke-opacity:1;" /><path d="M 292.11377 212.8075 L 255.7725 219.32" style="stroke:rgb(255,238,101);stroke-width:1" /><circle cx="255.7725" cy="219.32" r="2" style="fill:rgb(255,238,101);stroke:none;fill-opacity:1;stroke-opacity:1;" /><path d="M 255.7725 219.32 L 142.88626 236.10251" style="stroke:rgb(255,238,101);stroke-width:1" /><circle cx="142.88626" cy="236.10251" r="2" style="fill:rgb(255,238,101);stroke:none;fill-opacity:1;stroke-opacity:1;" /><path d="M 142.88626 236.10251 L 30 244.8775" style="stroke:rgb(255,238,101);stroke-width:1" /><circle cx="30" cy="244.8775" r="2" style="fill:rgb(255,238,101);stroke:none;fill-opacity:1;stroke-opacity:1;" /><circle cx="780" cy="247.695" r="2" style="fill:rgb(253,204,229);stroke:none;fill-opacity:1;stroke-opacity:1;" /><path d="M 780 247.695 L 630.77246 254.2" style="stroke:rgb(253,204,229);stroke-width:1" /><circle cx="630.77246" cy="254.2" r="2" style="fill:rgb(253,204,229);stroke:none;fill-opacity:1;stroke-opacity:1;" /><path d="M 630.77246 254.2 L 517.8862 257.635" style="stroke:rgb(253,204,229);stroke-width:1" /><circle cx="517.8862" cy="257.635" r="2" style="fill:rgb(253,204,229);stroke:none;fill-opacity:1;stroke-opacity:1;" /><path d="M 517.8862 257.635 L 451.85202 259.145" style="stroke:rgb(253,204,229);stroke-width:1" /><circle cx="451.85202" cy="259.145" r="2" style="fill:rgb(253,204,229);stroke:none;fill-opacity:1;stroke-opacity:1;" /><path d="M 451.85202 259.145 L 405 260.07" style="stroke:rgb(253,204,229);stroke-width:1" /><circle cx="405" cy="260.07" r="2" style="fill:rgb(253,204,229);stroke:none;fill-opacity:1;stroke-opacity:1;" /><path d="M 405 260.07 L 338.96576 261.305" style="stroke:rgb(253,204,229);stroke-width:1" /><circle cx="338.96576" cy="261.305" r="2" style="fill:rgb(253,204,229);stroke:none;fill-opacity:1;stroke-opacity:1;" /><path d="M 338.96576 261.305 L 292.11377 262.215" style="stroke:rgb(253,204,229);stroke-width:1" /><circle cx="292.11377" cy="262.215" r="2" style="fill:rgb(253,204,229);stroke:none;fill-opacity:1;stroke-opacity:1;" /><path d="M 292.11377 262.215 L 255.7725 262.8175" style="stroke:rgb(253,204,229);stroke-width:1" /><circle cx="255.7725" cy="262.8175" r="2" style="fill:rgb(253,204,229);stroke:none;fill-opacity:1;stroke-opacity:1;" /><path d="M 255.7725 262.8175 L 142.88626 264.2675" style="stroke:rgb(253,204,229);stroke-width:1" /><circle cx="142.88626" cy="264.2675" r="2" style="fill:rgb(253,204,229);stroke:none;fill-opacity:1;stroke-opacity:1;" /><path d="M 142.88626 264.2675 L 30 265.345" style="stroke:rgb(253,204,229);stroke-width:1" /><circle cx="30" cy="265.345" r="2" style="fill:rgb(253,204,229);stroke:none;fill-opacity:1;stroke-opacity:1;" /><rect x="676" y="16" width="80" height="133" ry="4" style="fill:rgb(30,30,30);stroke:none;fill-opacity:0.8;stroke-opacity:1;" /><rect x="680" y="20" width="20" height="20" ry="2" style="fill:rgb(253,127,111);stroke:none;fill-opacity:1;stroke-opacity:1;" /><text x="705" y="33" style="font-size:10px;fill:rgb(255,255,255);text-anchor:start;text-align:left;"> fwd-diff </text><rect x="680" y="41" width="20" height="20" ry="2" style="fill:rgb(50,125,209);stroke:none;fill-opacity:1;stroke-opacity:1;" /><text x="705" y="54" style="font-size:10px;fill:rgb(255,255,255);text-anchor:start;text-align:left;"> levien </text><rect x="680" y="62" width="20" height="20" ry="2" style="fill:rgb(126,176,213);stroke:none;fill-opacity:1;stroke-opacity:1;" /><text x="705" y="75" style="font-size:10px;fill:rgb(255,255,255);text-anchor:start;text-align:left;"> levien-simd </text><rect x="680" y="83" width="20" height="20" ry="2" style="fill:rgb(128,214,87);stroke:none;fill-opacity:1;stroke-opacity:1;" /><text x="705" y="96" style="font-size:10px;fill:rgb(255,255,255);text-anchor:start;text-align:left;"> linear </text><rect x="680" y="104" width="20" height="20" ry="2" style="fill:rgb(255,238,101);stroke:none;fill-opacity:1;stroke-opacity:1;" /><text x="705" y="117" style="font-size:10px;fill:rgb(255,255,255);text-anchor:start;text-align:left;"> recursive </text><rect x="680" y="125" width="20" height="20" ry="2" style="fill:rgb(253,204,229);stroke:none;fill-opacity:1;stroke-opacity:1;" /><text x="705" y="138" style="font-size:10px;fill:rgb(255,255,255);text-anchor:start;text-align:left;"> wang </text><text x="400" y="30" style="font-size:20px;fill:rgb(255,255,255);text-anchor:middle;text-align:center;"> nehab dataset: quadratic </text><text x="400" y="42" style="font-size:8px;fill:rgb(200,200,200);text-anchor:middle;text-align:center;"> Normalized performance score (lower is better) </text></svg>