<svg xmlns="http://www.w3.org/2000/svg" viewBox="0 0 800 300"><rect x="0" y="0" width="800" height="300" ry="6" style="fill:rgb(30,30,30);stroke:none;fill-opacity:1;stroke-opacity:1;" /><path d="M 30 20 L 30 270" style="stroke:rgb(200,200,200);stroke-width:1" /><path d="M 30 270 L 780 270" style="stroke:rgb(200,200,200);stroke-width:1" /><path d="M 780 270 L 780 272" style="stroke:rgb(200,200,200);stroke-width:1" /><text x="780" y="282" style="font-size:10px;fill:rgb(200,200,200);text-anchor:middle;text-align:center;"> 0.01 </text><path d="M 630.77246 270 L 630.77246 272" style="stroke:rgb(200,200,200);stroke-width:1" /><text x="630.77246" y="282" style="font-size:10px;fill:rgb(200,200,200);text-anchor:middle;text-align:center;"> 0.025 </text><path d="M 517.8862 270 L 517.8862 272" style="stroke:rgb(200,200,200);stroke-width:1" /><text x="517.8862" y="282" style="font-size:10px;fill:rgb(200,200,200);text-anchor:middle;text-align:center;"> 0.05 </text><path d="M 451.85202 270 L 451.85202 272" style="stroke:rgb(200,200,200);stroke-width:1" /><text x="451.85202" y="282" style="font-size:10px;fill:rgb(200,200,200);text-anchor:middle;text-align:center;"> 0.075 </text><path d="M 405 270 L 405 272" style="stroke:rgb(200,200,200);stroke-width:1" /><text x="405" y="282" style="font-size:10px;fill:rgb(200,200,200);text-anchor:middle;text-align:center;"> 0.1 </text><path d="M 338.96576 270 L 338.96576 272" style="stroke:rgb(200,200,200);stroke-width:1" /><text x="338.96576" y="282" style="font-size:10px;fill:rgb(200,200,200);text-anchor:middle;text-align:center;"> 0.15 </text><path d="M 292.11377 270 L 292.11377 272" style="stroke:rgb(200,200,200);stroke-width:1" /><text x="292.11377" y="282" style="font-size:10px;fill:rgb(200,200,200);text-anchor:middle;text-align:center;"> 0.2 </text><path d="M 255.7725 270 L 255.7725 272" style="stroke:rgb(200,200,200);stroke-width:1" /><text x="255.7725" y="282" style="font-size:10px;fill:rgb(200,200,200);text-anchor:middle;text-align:center;"> 0.25 </text><path d="M 142.88626 270 L 142.88626 272" style="stroke:rgb(200,200,200);stroke-width:1" /><text x="142.88626" y="282" style="font-size:10px;fill:rgb(200,200,200);text-anchor:middle;text-align:center;"> 0.5 </text><path d="M 30 270 L 30 272" style="stroke:rgb(200,200,200);stroke-width:1" /><text x="30" y="282" style="font-size:10px;fill:rgb(200,200,200);text-anchor:middle;text-align:center;"> 1 </text><path d="M 28 270 L 30 270" style="stroke:rgb(200,200,200);stroke-width:1" /><text x="26" y="274" style="font-size:10px;fill:rgb(200,200,200);text-anchor:end;text-align:right;"> 0 </text><path d="M 28 207.5 L 30 207.5" style="stroke:rgb(200,200,200);stroke-width:1" /><text x="26" y="211.5" style="font-size:10px;fill:rgb(200,200,200);text-anchor:end;text-align:right;"> 0.25 </text><path d="M 28 145 L 30 145" style="stroke:rgb(200,200,200);stroke-width:1" /><text x="26" y="149" style="font-size:10px;fill:rgb(200,200,200);text-anchor:end;text-align:right;"> 0.5 </text><path d="M 28 82.5 L 30 82.5" style="stroke:rgb(200,200,200);stroke-width:1" /><text x="26" y="86.5" style="font-size:10px;fill:rgb(200,200,200);text-anchor:end;text-align:right;"> 0.75 </text><path d="M 28 20 L 30 20" style="stroke:rgb(200,200,200);stroke-width:1" /><text x="26" y="24" style="font-size:10px;fill:rgb(200,200,200);text-anchor:end;text-align:right;"> 1 </text><text x="400" y="294" style="font-size:10px;fill:rgb(200,200,200);text-anchor:middle;text-align:center;"> Tolerance </text><circle cx="780" cy="202.32" r="2" style="fill:rgb(126,176,213);stroke:none;fill-opacity:1;stroke-opacity:1;" /><path d="M 780 202.32 L 630.77246 214.005" style="stroke:rgb(126,176,213);stroke-width:1" /><circle cx="630.77246" cy="214.005" r="2" style="fill:rgb(126,176,213);stroke:none;fill-opacity:1;stroke-opacity:1;" /><path d="M 630.77246 214.005 L 517.8862 220.56" style="stroke:rgb(126,176,213);stroke-width:1" /><circle cx="517.8862" cy="220.56" r="2" style="fill:rgb(126,176,213);stroke:none;fill-opacity:1;stroke-opacity:1;" /><path d="M 517.8862 220.56 L 451.85202 223.795" style="stroke:rgb(126,176,213);stroke-width:1" /><circle cx="451.85202" cy="223.795" r="2" style="fill:rgb(126,176,213);stroke:none;fill-opacity:1;stroke-opacity:1;" /><path d="M 451.85202 223.795 L 405 225.4925" style="stroke:rgb(126,176,213);stroke-width:1" /><circle cx="405" cy="225.4925" r="2" style="fill:rgb(126,176,213);stroke:none;fill-opacity:1;stroke-opacity:1;" /><path d="M 405 225.4925 L 338.96576 228.3875" style="stroke:rgb(126,176,213);stroke-width:1" /><circle cx="338.96576" cy="228.3875" r="2" style="fill:rgb(126,176,213);stroke:none;fill-opacity:1;stroke-opacity:1;" /><path d="M 338.96576 228.3875 L 292.11377 230.74" style="stroke:rgb(126,176,213);stroke-width:1" /><circle cx="292.11377" cy="230.74" r="2" style="fill:rgb(126,176,213);stroke:none;fill-opacity:1;stroke-opacity:1;" /><path d="M 292.11377 230.74 L 255.7725 231.5025" style="stroke:rgb(126,176,213);stroke-width:1" /><circle cx="255.7725" cy="231.5025" r="2" style="fill:rgb(126,176,213);stroke:none;fill-opacity:1;stroke-opacity:1;" /><path d="M 255.7725 231.5025 L 142.88626 234.6075" style="stroke:rgb(126,176,213);stroke-width:1" /><circle cx="142.88626" cy="234.6075" r="2" style="fill:rgb(126,176,213);stroke:none;fill-opacity:1;stroke-opacity:1;" /><path d="M 142.88626 234.6075 L 30 239.055" style="stroke:rgb(126,176,213);stroke-width:1" /><circle cx="30" cy="239.055" r="2" style="fill:rgb(126,176,213);stroke:none;fill-opacity:1;stroke-opacity:1;" /><circle cx="780" cy="100.052505" r="2" style="fill:rgb(50,125,209);stroke:none;fill-opacity:1;stroke-opacity:1;" /><path d="M 780 100.052505 L 630.77246 139.8675" style="stroke:rgb(50,125,209);stroke-width:1" /><circle cx="630.77246" cy="139.8675" r="2" style="fill:rgb(50,125,209);stroke:none;fill-opacity:1;stroke-opacity:1;" /><path d="M 630.77246 139.8675 L 517.8862 161.2875" style="stroke:rgb(50,125,209);stroke-width:1" /><circle cx="517.8862" cy="161.2875" r="2" style="fill:rgb(50,125,209);stroke:none;fill-opacity:1;stroke-opacity:1;" /><path d="M 517.8862 161.2875 L 451.85202 171.17" style="stroke:rgb(50,125,209);stroke-width:1" /><circle cx="451.85202" cy="171.17" r="2" style="fill:rgb(50,125,209);stroke:none;fill-opacity:1;stroke-opacity:1;" /><path d="M 451.85202 171.17 L 405 177.07251" style="stroke:rgb(50,125,209);stroke-width:1" /><circle cx="405" cy="177.07251" r="2" style="fill:rgb(50,125,209);stroke:none;fill-opacity:1;stroke-opacity:1;" /><path d="M 405 177.07251 L 338.96576 185.695" style="stroke:rgb(50,125,209);stroke-width:1" /><circle cx="338.96576" cy="185.695" r="2" style="fill:rgb(50,125,209);stroke:none;fill-opacity:1;stroke-opacity:1;" /><path d="M 338.96576 185.695 L 292.11377 191.715" style="stroke:rgb(50,125,209);stroke-width:1" /><circle cx="292.11377" cy="191.715" r="2" style="fill:rgb(50,125,209);stroke:none;fill-opacity:1;stroke-opacity:1;" /><path d="M 292.11377 191.715 L 255.7725 195.435" style="stroke:rgb(50,125,209);stroke-width:1" /><circle cx="255.7725" cy="195.435" r="2" style="fill:rgb(50,125,209);stroke:none;fill-opacity:1;stroke-opacity:1;" /><path d="M 255.7725 195.435 L 142.88626 206.2075" style="stroke:rgb(50,125,209);stroke-width:1" /><circle cx="142.88626" cy="206.2075" r="2" style="fill:rgb(50,125,209);stroke:none;fill-opacity:1;stroke-opacity:1;" /><path d="M 142.88626 206.2075 L 30 216.215" style="stroke:rgb(50,125,209);stroke-width:1" /><circle cx="30" cy="216.215" r="2" style="fill:rgb(50,125,209);stroke:none;fill-opacity:1;stroke-opacity:1;" /><circle cx="780" cy="219.5125" r="2" style="fill:rgb(253,127,111);stroke:none;fill-opacity:1;stroke-opacity:1;" /><path d="M 780 219.5125 L 630.77246 228.135" style="stroke:rgb(253,127,111);stroke-width:1" /><circle cx="630.77246" cy="228.135" r="2" style="fill:rgb(253,127,111);stroke:none;fill-opacity:1;stroke-opacity:1;" /><path d="M 630.77246 228.135 L 517.8862 234.8275" style="stroke:rgb(253,127,111);stroke-width:1" /><circle cx="517.8862" cy="234.8275" r="2" style="fill:rgb(253,127,111);stroke:none;fill-opacity:1;stroke-opacity:1;" /><path d="M 517.8862 234.8275 L 451.85202 239.0875" style="stroke:rgb(253,127,111);stroke-width:1" /><circle cx="451.85202" cy="239.0875" r="2" style="fill:rgb(253,127,111);stroke:none;fill-opacity:1;stroke-opacity:1;" /><path d="M 451.85202 239.0875 L 405 241.8075" style="stroke:rgb(253,127,111);stroke-width:1" /><circle cx="405" cy="241.8075" r="2" style="fill:rgb(253,127,111);stroke:none;fill-opacity:1;stroke-opacity:1;" /><path d="M 405 241.8075 L 338.96576 245.2925" style="stroke:rgb(253,127,111);stroke-width:1" /><circle cx="338.96576" cy="245.2925" r="2" style="fill:rgb(253,127,111);stroke:none;fill-opacity:1;stroke-opacity:1;" /><path d="M 338.96576 245.2925 L 292.11377 247.5" style="stroke:rgb(253,127,111);stroke-width:1" /><circle cx="292.11377" cy="247.5" r="2" style="fill:rgb(253,127,111);stroke:none;fill-opacity:1;stroke-opacity:1;" /><path d="M 292.11377 247.5 L 255.7725 248.86" style="stroke:rgb(253,127,111);stroke-width:1" /><circle cx="255.7725" cy="248.86" r="2" style="fill:rgb(253,127,111);stroke:none;fill-opacity:1;stroke-opacity:1;" /><path d="M 255.7725 248.86 L 142.88626 251.4725" style="stroke:rgb(253,127,111);stroke-width:1" /><circle cx="142.88626" cy="251.4725" r="2" style="fill:rgb(253,127,111);stroke:none;fill-opacity:1;stroke-opacity:1;" /><path d="M 142.88626 251.4725 L 30 253.7875" style="stroke:rgb(253,127,111);stroke-width:1" /><circle cx="30" cy="253.7875" r="2" style="fill:rgb(253,127,111);stroke:none;fill-opacity:1;stroke-opacity:1;" /><circle cx="780" cy="23.942505" r="2" style="fill:rgb(255,238,101);stroke:none;fill-opacity:1;stroke-opacity:1;" /><path d="M 780 23.942505 L 630.77246 114.28999" style="stroke:rgb(255,238,101);stroke-width:1" /><circle cx="630.77246" cy="114.28999" r="2" style="fill:rgb(255,238,101);stroke:none;fill-opacity:1;stroke-opacity:1;" /><path d="M 630.77246 114.28999 L 517.8862 160.9" style="stroke:rgb(255,238,101);stroke-width:1" /><circle cx="517.8862" cy="160.9" r="2" style="fill:rgb(255,238,101);stroke:none;fill-opacity:1;stroke-opacity:1;" /><path d="M 517.8862 160.9 L 451.85202 184.76999" style="stroke:rgb(255,238,101);stroke-width:1" /><circle cx="451.85202" cy="184.76999" r="2" style="fill:rgb(255,238,101);stroke:none;fill-opacity:1;stroke-opacity:1;" /><path d="M 451.85202 184.76999 L 405 194.675" style="stroke:rgb(255,238,101);stroke-width:1" /><circle cx="405" cy="194.675" r="2" style="fill:rgb(255,238,101);stroke:none;fill-opacity:1;stroke-opacity:1;" /><path d="M 405 194.675 L 338.96576 211.54001" style="stroke:rgb(255,238,101);stroke-width:1" /><circle cx="338.96576" cy="211.54001" r="2" style="fill:rgb(255,238,101);stroke:none;fill-opacity:1;stroke-opacity:1;" /><path d="M 338.96576 211.54001 L 292.11377 221.7075" style="stroke:rgb(255,238,101);stroke-width:1" /><circle cx="292.11377" cy="221.7075" r="2" style="fill:rgb(255,238,101);stroke:none;fill-opacity:1;stroke-opacity:1;" /><path d="M 292.11377 221.7075 L 255.7725 228.4175" style="stroke:rgb(255,238,101);stroke-width:1" /><circle cx="255.7725" cy="228.4175" r="2" style="fill:rgb(255,238,101);stroke:none;fill-opacity:1;stroke-opacity:1;" /><path d="M 255.7725 228.4175 L 142.88626 243.14" style="stroke:rgb(255,238,101);stroke-width:1" /><circle cx="142.88626" cy="243.14" r="2" style="fill:rgb(255,238,101);stroke:none;fill-opacity:1;stroke-opacity:1;" /><path d="M 142.88626 243.14 L 30 253.72751" style="stroke:rgb(255,238,101);stroke-width:1" /><circle cx="30" cy="253.72751" r="2" style="fill:rgb(255,238,101);stroke:none;fill-opacity:1;stroke-opacity:1;" /><circle cx="780" cy="20" r="2" style="fill:rgb(128,214,87);stroke:none;fill-opacity:1;stroke-opacity:1;" /><path d="M 780 20 L 630.77246 116.89751" style="stroke:rgb(128,214,87);stroke-width:1" /><circle cx="630.77246" cy="116.89751" r="2" style="fill:rgb(128,214,87);stroke:none;fill-opacity:1;stroke-opacity:1;" /><path d="M 630.77246 116.89751 L 517.8862 173.3775" style="stroke:rgb(128,214,87);stroke-width:1" /><circle cx="517.8862" cy="173.3775" r="2" style="fill:rgb(128,214,87);stroke:none;fill-opacity:1;stroke-opacity:1;" /><path d="M 517.8862 173.3775 L 451.85202 197.295" style="stroke:rgb(128,214,87);stroke-width:1" /><circle cx="451.85202" cy="197.295" r="2" style="fill:rgb(128,214,87);stroke:none;fill-opacity:1;stroke-opacity:1;" /><path d="M 451.85202 197.295 L 405 210.6" style="stroke:rgb(128,214,87);stroke-width:1" /><circle cx="405" cy="210.6" r="2" style="fill:rgb(128,214,87);stroke:none;fill-opacity:1;stroke-opacity:1;" /><path d="M 405 210.6 L 338.96576 226.34" style="stroke:rgb(128,214,87);stroke-width:1" /><circle cx="338.96576" cy="226.34" r="2" style="fill:rgb(128,214,87);stroke:none;fill-opacity:1;stroke-opacity:1;" /><path d="M 338.96576 226.34 L 292.11377 235.4575" style="stroke:rgb(128,214,87);stroke-width:1" /><circle cx="292.11377" cy="235.4575" r="2" style="fill:rgb(128,214,87);stroke:none;fill-opacity:1;stroke-opacity:1;" /><path d="M 292.11377 235.4575 L 255.7725 240.5775" style="stroke:rgb(128,214,87);stroke-width:1" /><circle cx="255.7725" cy="240.5775" r="2" style="fill:rgb(128,214,87);stroke:none;fill-opacity:1;stroke-opacity:1;" /><path d="M 255.7725 240.5775 L 142.88626 251.685" style="stroke:rgb(128,214,87);stroke-width:1" /><circle cx="142.88626" cy="251.685" r="2" style="fill:rgb(128,214,87);stroke:none;fill-opacity:1;stroke-opacity:1;" /><path d="M 142.88626 251.685 L 30 258.575" style="stroke:rgb(128,214,87);stroke-width:1" /><circle cx="30" cy="258.575" r="2" style="fill:rgb(128,214,87);stroke:none;fill-opacity:1;stroke-opacity:1;" /><circle cx="780" cy="215.88" r="2" style="fill:rgb(253,204,229);stroke:none;fill-opacity:1;stroke-opacity:1;" /><path d="M 780 215.88 L 630.77246 225.58" style="stroke:rgb(253,204,229);stroke-width:1" /><circle cx="630.77246" cy="225.58" r="2" style="fill:rgb(253,204,229);stroke:none;fill-opacity:1;stroke-opacity:1;" /><path d="M 630.77246 225.58 L 517.8862 231.4575" style="stroke:rgb(253,204,229);stroke-width:1" /><circle cx="517.8862" cy="231.4575" r="2" style="fill:rgb(253,204,229);stroke:none;fill-opacity:1;stroke-opacity:1;" /><path d="M 517.8862 231.4575 L 451.85202 234.73" style="stroke:rgb(253,204,229);stroke-width:1" /><circle cx="451.85202" cy="234.73" r="2" style="fill:rgb(253,204,229);stroke:none;fill-opacity:1;stroke-opacity:1;" /><path d="M 451.85202 234.73 L 405 237.0375" style="stroke:rgb(253,204,229);stroke-width:1" /><circle cx="405" cy="237.0375" r="2" style="fill:rgb(253,204,229);stroke:none;fill-opacity:1;stroke-opacity:1;" /><path d="M 405 237.0375 L 338.96576 240.065" style="stroke:rgb(253,204,229);stroke-width:1" /><circle cx="338.96576" cy="240.065" r="2" style="fill:rgb(253,204,229);stroke:none;fill-opacity:1;stroke-opacity:1;" /><path d="M 338.96576 240.065 L 292.11377 242.515" style="stroke:rgb(253,204,229);stroke-width:1" /><circle cx="292.11377" cy="242.515" r="2" style="fill:rgb(253,204,229);stroke:none;fill-opacity:1;stroke-opacity:1;" /><path d="M 292.11377 242.515 L 255.7725 244.055" style="stroke:rgb(253,204,229);stroke-width:1" /><circle cx="255.7725" cy="244.055" r="2" style="fill:rgb(253,204,229);stroke:none;fill-opacity:1;stroke-opacity:1;" /><path d="M 255.7725 244.055 L 142.88626 248.8675" style="stroke:rgb(253,204,229);stroke-width:1" /><circle cx="142.88626" cy="248.8675" r="2" style="fill:rgb(253,204,229);stroke:none;fill-opacity:1;stroke-opacity:1;" /><path d="M 142.88626 248.8675 L 30 250.245" style="stroke:rgb(253,204,229);stroke-width:1" /><circle cx="30" cy="250.245" r="2" style="fill:rgb(253,204,229);stroke:none;fill-opacity:1;stroke-opacity:1;" /><rect x="676" y="16" width="80" height="133" ry="4" style="fill:rgb(30,30,30);stroke:none;fill-opacity:0.8;stroke-opacity:1;" /><rect x="680" y="20" width="20" height="20" ry="2" style="fill:rgb(253,127,111);stroke:none;fill-opacity:1;stroke-opacity:1;" /><text x="705" y="33" style="font-size:10px;fill:rgb(255,255,255);text-anchor:start;text-align:left;"> fwd-diff </text><rect x="680" y="41" width="20" height="20" ry="2" style="fill:rgb(50,125,209);stroke:none;fill-opacity:1;stroke-opacity:1;" /><text x="705" y="54" style="font-size:10px;fill:rgb(255,255,255);text-anchor:start;text-align:left;"> levien </text><rect x="680" y="62" width="20" height="20" ry="2" style="fill:rgb(126,176,213);stroke:none;fill-opacity:1;stroke-opacity:1;" /><text x="705" y="75" style="font-size:10px;fill:rgb(255,255,255);text-anchor:start;text-align:left;"> levien-simd </text><rect x="680" y="83" width="20" height="20" ry="2" style="fill:rgb(128,214,87);stroke:none;fill-opacity:1;stroke-opacity:1;" /><text x="705" y="96" style="font-size:10px;fill:rgb(255,255,255);text-anchor:start;text-align:left;"> linear </text><rect x="680" y="104" width="20" height="20" ry="2" style="fill:rgb(255,238,101);stroke:none;fill-opacity:1;stroke-opacity:1;" /><text x="705" y="117" style="font-size:10px;fill:rgb(255,255,255);text-anchor:start;text-align:left;"> recursive </text><rect x="680" y="125" width="20" height="20" ry="2" style="fill:rgb(253,204,229);stroke:none;fill-opacity:1;stroke-opacity:1;" /><text x="705" y="138" style="font-size:10px;fill:rgb(255,255,255);text-anchor:start;text-align:left;"> wang </text><text x="400" y="30" style="font-size:20px;fill:rgb(255,255,255);text-anchor:middle;text-align:center;"> tiger dataset: quadratic </text><text x="400" y="42" style="font-size:8px;fill:rgb(200,200,200);text-anchor:middle;text-align:center;"> Normalized performance score (lower is better) </text></svg>