<svg xmlns="http://www.w3.org/2000/svg" viewBox="0 0 800 300"><rect x="0" y="0" width="800" height="300" ry="6" style="fill:rgb(30,30,30);stroke:none;fill-opacity:1;stroke-opacity:1;" /><path d="M 30 20 L 30 270" style="stroke:rgb(200,200,200);stroke-width:1" /><path d="M 30 270 L 780 270" style="stroke:rgb(200,200,200);stroke-width:1" /><path d="M 780 270 L 780 272" style="stroke:rgb(200,200,200);stroke-width:1" /><text x="780" y="282" style="font-size:10px;fill:rgb(200,200,200);text-anchor:middle;text-align:center;"> 0.01 </text><path d="M 630.77246 270 L 630.77246 272" style="stroke:rgb(200,200,200);stroke-width:1" /><text x="630.77246" y="282" style="font-size:10px;fill:rgb(200,200,200);text-anchor:middle;text-align:center;"> 0.025 </text><path d="M 517.8862 270 L 517.8862 272" style="stroke:rgb(200,200,200);stroke-width:1" /><text x="517.8862" y="282" style="font-size:10px;fill:rgb(200,200,200);text-anchor:middle;text-align:center;"> 0.05 </text><path d="M 451.85202 270 L 451.85202 272" style="stroke:rgb(200,200,200);stroke-width:1" /><text x="451.85202" y="282" style="font-size:10px;fill:rgb(200,200,200);text-anchor:middle;text-align:center;"> 0.075 </text><path d="M 405 270 L 405 272" style="stroke:rgb(200,200,200);stroke-width:1" /><text x="405" y="282" style="font-size:10px;fill:rgb(200,200,200);text-anchor:middle;text-align:center;"> 0.1 </text><path d="M 338.96576 270 L 338.96576 272" style="stroke:rgb(200,200,200);stroke-width:1" /><text x="338.96576" y="282" style="font-size:10px;fill:rgb(200,200,200);text-anchor:middle;text-align:center;"> 0.15 </text><path d="M 292.11377 270 L 292.11377 272" style="stroke:rgb(200,200,200);stroke-width:1" /><text x="292.11377" y="282" style="font-size:10px;fill:rgb(200,200,200);text-anchor:middle;text-align:center;"> 0.2 </text><path d="M 255.7725 270 L 255.7725 272" style="stroke:rgb(200,200,200);stroke-width:1" /><text x="255.7725" y="282" style="font-size:10px;fill:rgb(200,200,200);text-anchor:middle;text-align:center;"> 0.25 </text><path d="M 142.88626 270 L 142.88626 272" style="stroke:rgb(200,200,200);stroke-width:1" /><text x="142.88626" y="282" style="font-size:10px;fill:rgb(200,200,200);text-anchor:middle;text-align:center;"> 0.5 </text><path d="M 30 270 L 30 272" style="stroke:rgb(200,200,200);stroke-width:1" /><text x="30" y="282" style="font-size:10px;fill:rgb(200,200,200);text-anchor:middle;text-align:center;"> 1 </text><path d="M 28 270 L 30 270" style="stroke:rgb(200,200,200);stroke-width:1" /><text x="26" y="274" style="font-size:10px;fill:rgb(200,200,200);text-anchor:end;text-align:right;"> 0 </text><path d="M 28 207.5 L 30 207.5" style="stroke:rgb(200,200,200);stroke-width:1" /><text x="26" y="211.5" style="font-size:10px;fill:rgb(200,200,200);text-anchor:end;text-align:right;"> 0.25 </text><path d="M 28 145 L 30 145" style="stroke:rgb(200,200,200);stroke-width:1" /><text x="26" y="149" style="font-size:10px;fill:rgb(200,200,200);text-anchor:end;text-align:right;"> 0.5 </text><path d="M 28 82.5 L 30 82.5" style="stroke:rgb(200,200,200);stroke-width:1" /><text x="26" y="86.5" style="font-size:10px;fill:rgb(200,200,200);text-anchor:end;text-align:right;"> 0.75 </text><path d="M 28 20 L 30 20" style="stroke:rgb(200,200,200);stroke-width:1" /><text x="26" y="24" style="font-size:10px;fill:rgb(200,200,200);text-anchor:end;text-align:right;"> 1 </text><text x="400" y="294" style="font-size:10px;fill:rgb(200,200,200);text-anchor:middle;text-align:center;"> Tolerance </text><circle cx="780" cy="260.22" r="2" style="fill:rgb(255,238,101);stroke:none;fill-opacity:1;stroke-opacity:1;" /><path d="M 780 260.22 L 630.77246 263.845" style="stroke:rgb(255,238,101);stroke-width:1" /><circle cx="630.77246" cy="263.845" r="2" style="fill:rgb(255,238,101);stroke:none;fill-opacity:1;stroke-opacity:1;" /><path d="M 630.77246 263.845 L 517.8862 265.5825" style="stroke:rgb(255,238,101);stroke-width:1" /><circle cx="517.8862" cy="265.5825" r="2" style="fill:rgb(255,238,101);stroke:none;fill-opacity:1;stroke-opacity:1;" /><path d="M 517.8862 265.5825 L 451.85202 266.47" style="stroke:rgb(255,238,101);stroke-width:1" /><circle cx="451.85202" cy="266.47" r="2" style="fill:rgb(255,238,101);stroke:none;fill-opacity:1;stroke-opacity:1;" /><path d="M 451.85202 266.47 L 405 267.0275" style="stroke:rgb(255,238,101);stroke-width:1" /><circle cx="405" cy="267.0275" r="2" style="fill:rgb(255,238,101);stroke:none;fill-opacity:1;stroke-opacity:1;" /><path d="M 405 267.0275 L 338.96576 267.6375" style="stroke:rgb(255,238,101);stroke-width:1" /><circle cx="338.96576" cy="267.6375" r="2" style="fill:rgb(255,238,101);stroke:none;fill-opacity:1;stroke-opacity:1;" /><path d="M 338.96576 267.6375 L 292.11377 267.9975" style="stroke:rgb(255,238,101);stroke-width:1" /><circle cx="292.11377" cy="267.9975" r="2" style="fill:rgb(255,238,101);stroke:none;fill-opacity:1;stroke-opacity:1;" /><path d="M 292.11377 267.9975 L 255.7725 268.255" style="stroke:rgb(255,238,101);stroke-width:1" /><circle cx="255.7725" cy="268.255" r="2" style="fill:rgb(255,238,101);stroke:none;fill-opacity:1;stroke-opacity:1;" /><path d="M 255.7725 268.255 L 142.88626 268.9325" style="stroke:rgb(255,238,101);stroke-width:1" /><circle cx="142.88626" cy="268.9325" r="2" style="fill:rgb(255,238,101);stroke:none;fill-opacity:1;stroke-opacity:1;" /><path d="M 142.88626 268.9325 L 30 269.3525" style="stroke:rgb(255,238,101);stroke-width:1" /><circle cx="30" cy="269.3525" r="2" style="fill:rgb(255,238,101);stroke:none;fill-opacity:1;stroke-opacity:1;" /><circle cx="780" cy="258.8075" r="2" style="fill:rgb(50,125,209);stroke:none;fill-opacity:1;stroke-opacity:1;" /><path d="M 780 258.8075 L 630.77246 261.28" style="stroke:rgb(50,125,209);stroke-width:1" /><circle cx="630.77246" cy="261.28" r="2" style="fill:rgb(50,125,209);stroke:none;fill-opacity:1;stroke-opacity:1;" /><path d="M 630.77246 261.28 L 517.8862 262.765" style="stroke:rgb(50,125,209);stroke-width:1" /><circle cx="517.8862" cy="262.765" r="2" style="fill:rgb(50,125,209);stroke:none;fill-opacity:1;stroke-opacity:1;" /><path d="M 517.8862 262.765 L 451.85202 263.47" style="stroke:rgb(50,125,209);stroke-width:1" /><circle cx="451.85202" cy="263.47" r="2" style="fill:rgb(50,125,209);stroke:none;fill-opacity:1;stroke-opacity:1;" /><path d="M 451.85202 263.47 L 405 263.9825" style="stroke:rgb(50,125,209);stroke-width:1" /><circle cx="405" cy="263.9825" r="2" style="fill:rgb(50,125,209);stroke:none;fill-opacity:1;stroke-opacity:1;" /><path d="M 405 263.9825 L 338.96576 264.5225" style="stroke:rgb(50,125,209);stroke-width:1" /><circle cx="338.96576" cy="264.5225" r="2" style="fill:rgb(50,125,209);stroke:none;fill-opacity:1;stroke-opacity:1;" /><path d="M 338.96576 264.5225 L 292.11377 264.9025" style="stroke:rgb(50,125,209);stroke-width:1" /><circle cx="292.11377" cy="264.9025" r="2" style="fill:rgb(50,125,209);stroke:none;fill-opacity:1;stroke-opacity:1;" /><path d="M 292.11377 264.9025 L 255.7725 265.2075" style="stroke:rgb(50,125,209);stroke-width:1" /><circle cx="255.7725" cy="265.2075" r="2" style="fill:rgb(50,125,209);stroke:none;fill-opacity:1;stroke-opacity:1;" /><path d="M 255.7725 265.2075 L 142.88626 265.945" style="stroke:rgb(50,125,209);stroke-width:1" /><circle cx="142.88626" cy="265.945" r="2" style="fill:rgb(50,125,209);stroke:none;fill-opacity:1;stroke-opacity:1;" /><path d="M 142.88626 265.945 L 30 266.585" style="stroke:rgb(50,125,209);stroke-width:1" /><circle cx="30" cy="266.585" r="2" style="fill:rgb(50,125,209);stroke:none;fill-opacity:1;stroke-opacity:1;" /><circle cx="780" cy="269.1625" r="2" style="fill:rgb(199,126,190);stroke:none;fill-opacity:1;stroke-opacity:1;" /><path d="M 780 269.1625 L 630.77246 269.395" style="stroke:rgb(199,126,190);stroke-width:1" /><circle cx="630.77246" cy="269.395" r="2" style="fill:rgb(199,126,190);stroke:none;fill-opacity:1;stroke-opacity:1;" /><path d="M 630.77246 269.395 L 517.8862 269.5325" style="stroke:rgb(199,126,190);stroke-width:1" /><circle cx="517.8862" cy="269.5325" r="2" style="fill:rgb(199,126,190);stroke:none;fill-opacity:1;stroke-opacity:1;" /><path d="M 517.8862 269.5325 L 451.85202 269.6275" style="stroke:rgb(199,126,190);stroke-width:1" /><circle cx="451.85202" cy="269.6275" r="2" style="fill:rgb(199,126,190);stroke:none;fill-opacity:1;stroke-opacity:1;" /><path d="M 451.85202 269.6275 L 405 269.655" style="stroke:rgb(199,126,190);stroke-width:1" /><circle cx="405" cy="269.655" r="2" style="fill:rgb(199,126,190);stroke:none;fill-opacity:1;stroke-opacity:1;" /><path d="M 405 269.655 L 338.96576 269.7025" style="stroke:rgb(199,126,190);stroke-width:1" /><circle cx="338.96576" cy="269.7025" r="2" style="fill:rgb(199,126,190);stroke:none;fill-opacity:1;stroke-opacity:1;" /><path d="M 338.96576 269.7025 L 292.11377 269.7325" style="stroke:rgb(199,126,190);stroke-width:1" /><circle cx="292.11377" cy="269.7325" r="2" style="fill:rgb(199,126,190);stroke:none;fill-opacity:1;stroke-opacity:1;" /><path d="M 292.11377 269.7325 L 255.7725 269.7425" style="stroke:rgb(199,126,190);stroke-width:1" /><circle cx="255.7725" cy="269.7425" r="2" style="fill:rgb(199,126,190);stroke:none;fill-opacity:1;stroke-opacity:1;" /><path d="M 255.7725 269.7425 L 142.88626 269.7925" style="stroke:rgb(199,126,190);stroke-width:1" /><circle cx="142.88626" cy="269.7925" r="2" style="fill:rgb(199,126,190);stroke:none;fill-opacity:1;stroke-opacity:1;" /><path d="M 142.88626 269.7925 L 30 269.8125" style="stroke:rgb(199,126,190);stroke-width:1" /><circle cx="30" cy="269.8125" r="2" style="fill:rgb(199,126,190);stroke:none;fill-opacity:1;stroke-opacity:1;" /><circle cx="780" cy="268.4925" r="2" style="fill:rgb(253,204,229);stroke:none;fill-opacity:1;stroke-opacity:1;" /><path d="M 780 268.4925 L 630.77246 268.9475" style="stroke:rgb(253,204,229);stroke-width:1" /><circle cx="630.77246" cy="268.9475" r="2" style="fill:rgb(253,204,229);stroke:none;fill-opacity:1;stroke-opacity:1;" /><path d="M 630.77246 268.9475 L 517.8862 269.195" style="stroke:rgb(253,204,229);stroke-width:1" /><circle cx="517.8862" cy="269.195" r="2" style="fill:rgb(253,204,229);stroke:none;fill-opacity:1;stroke-opacity:1;" /><path d="M 517.8862 269.195 L 451.85202 269.3225" style="stroke:rgb(253,204,229);stroke-width:1" /><circle cx="451.85202" cy="269.3225" r="2" style="fill:rgb(253,204,229);stroke:none;fill-opacity:1;stroke-opacity:1;" /><path d="M 451.85202 269.3225 L 405 269.3875" style="stroke:rgb(253,204,229);stroke-width:1" /><circle cx="405" cy="269.3875" r="2" style="fill:rgb(253,204,229);stroke:none;fill-opacity:1;stroke-opacity:1;" /><path d="M 405 269.3875 L 338.96576 269.4875" style="stroke:rgb(253,204,229);stroke-width:1" /><circle cx="338.96576" cy="269.4875" r="2" style="fill:rgb(253,204,229);stroke:none;fill-opacity:1;stroke-opacity:1;" /><path d="M 338.96576 269.4875 L 292.11377 269.52" style="stroke:rgb(253,204,229);stroke-width:1" /><circle cx="292.11377" cy="269.52" r="2" style="fill:rgb(253,204,229);stroke:none;fill-opacity:1;stroke-opacity:1;" /><path d="M 292.11377 269.52 L 255.7725 269.5625" style="stroke:rgb(253,204,229);stroke-width:1" /><circle cx="255.7725" cy="269.5625" r="2" style="fill:rgb(253,204,229);stroke:none;fill-opacity:1;stroke-opacity:1;" /><path d="M 255.7725 269.5625 L 142.88626 269.685" style="stroke:rgb(253,204,229);stroke-width:1" /><circle cx="142.88626" cy="269.685" r="2" style="fill:rgb(253,204,229);stroke:none;fill-opacity:1;stroke-opacity:1;" /><path d="M 142.88626 269.685 L 30 269.755" style="stroke:rgb(253,204,229);stroke-width:1" /><circle cx="30" cy="269.755" r="2" style="fill:rgb(253,204,229);stroke:none;fill-opacity:1;stroke-opacity:1;" /><circle cx="780" cy="263.535" r="2" style="fill:rgb(119,211,179);stroke:none;fill-opacity:1;stroke-opacity:1;" /><path d="M 780 263.535 L 630.77246 265.025" style="stroke:rgb(119,211,179);stroke-width:1" /><circle cx="630.77246" cy="265.025" r="2" style="fill:rgb(119,211,179);stroke:none;fill-opacity:1;stroke-opacity:1;" /><path d="M 630.77246 265.025 L 517.8862 265.915" style="stroke:rgb(119,211,179);stroke-width:1" /><circle cx="517.8862" cy="265.915" r="2" style="fill:rgb(119,211,179);stroke:none;fill-opacity:1;stroke-opacity:1;" /><path d="M 517.8862 265.915 L 451.85202 266.46" style="stroke:rgb(119,211,179);stroke-width:1" /><circle cx="451.85202" cy="266.46" r="2" style="fill:rgb(119,211,179);stroke:none;fill-opacity:1;stroke-opacity:1;" /><path d="M 451.85202 266.46 L 405 266.895" style="stroke:rgb(119,211,179);stroke-width:1" /><circle cx="405" cy="266.895" r="2" style="fill:rgb(119,211,179);stroke:none;fill-opacity:1;stroke-opacity:1;" /><path d="M 405 266.895 L 338.96576 267.405" style="stroke:rgb(119,211,179);stroke-width:1" /><circle cx="338.96576" cy="267.405" r="2" style="fill:rgb(119,211,179);stroke:none;fill-opacity:1;stroke-opacity:1;" /><path d="M 338.96576 267.405 L 292.11377 267.78" style="stroke:rgb(119,211,179);stroke-width:1" /><circle cx="292.11377" cy="267.78" r="2" style="fill:rgb(119,211,179);stroke:none;fill-opacity:1;stroke-opacity:1;" /><path d="M 292.11377 267.78 L 255.7725 268.0575" style="stroke:rgb(119,211,179);stroke-width:1" /><circle cx="255.7725" cy="268.0575" r="2" style="fill:rgb(119,211,179);stroke:none;fill-opacity:1;stroke-opacity:1;" /><path d="M 255.7725 268.0575 L 142.88626 268.845" style="stroke:rgb(119,211,179);stroke-width:1" /><circle cx="142.88626" cy="268.845" r="2" style="fill:rgb(119,211,179);stroke:none;fill-opacity:1;stroke-opacity:1;" /><path d="M 142.88626 268.845 L 30 269.325" style="stroke:rgb(119,211,179);stroke-width:1" /><circle cx="30" cy="269.325" r="2" style="fill:rgb(119,211,179);stroke:none;fill-opacity:1;stroke-opacity:1;" /><circle cx="780" cy="268.535" r="2" style="fill:rgb(253,127,111);stroke:none;fill-opacity:1;stroke-opacity:1;" /><path d="M 780 268.535 L 630.77246 268.995" style="stroke:rgb(253,127,111);stroke-width:1" /><circle cx="630.77246" cy="268.995" r="2" style="fill:rgb(253,127,111);stroke:none;fill-opacity:1;stroke-opacity:1;" /><path d="M 630.77246 268.995 L 517.8862 269.23" style="stroke:rgb(253,127,111);stroke-width:1" /><circle cx="517.8862" cy="269.23" r="2" style="fill:rgb(253,127,111);stroke:none;fill-opacity:1;stroke-opacity:1;" /><path d="M 517.8862 269.23 L 451.85202 269.3525" style="stroke:rgb(253,127,111);stroke-width:1" /><circle cx="451.85202" cy="269.3525" r="2" style="fill:rgb(253,127,111);stroke:none;fill-opacity:1;stroke-opacity:1;" /><path d="M 451.85202 269.3525 L 405 269.41" style="stroke:rgb(253,127,111);stroke-width:1" /><circle cx="405" cy="269.41" r="2" style="fill:rgb(253,127,111);stroke:none;fill-opacity:1;stroke-opacity:1;" /><path d="M 405 269.41 L 338.96576 269.495" style="stroke:rgb(253,127,111);stroke-width:1" /><circle cx="338.96576" cy="269.495" r="2" style="fill:rgb(253,127,111);stroke:none;fill-opacity:1;stroke-opacity:1;" /><path d="M 338.96576 269.495 L 292.11377 269.5325" style="stroke:rgb(253,127,111);stroke-width:1" /><circle cx="292.11377" cy="269.5325" r="2" style="fill:rgb(253,127,111);stroke:none;fill-opacity:1;stroke-opacity:1;" /><path d="M 292.11377 269.5325 L 255.7725 269.5875" style="stroke:rgb(253,127,111);stroke-width:1" /><circle cx="255.7725" cy="269.5875" r="2" style="fill:rgb(253,127,111);stroke:none;fill-opacity:1;stroke-opacity:1;" /><path d="M 255.7725 269.5875 L 142.88626 269.6775" style="stroke:rgb(253,127,111);stroke-width:1" /><circle cx="142.88626" cy="269.6775" r="2" style="fill:rgb(253,127,111);stroke:none;fill-opacity:1;stroke-opacity:1;" /><path d="M 142.88626 269.6775 L 30 269.7325" style="stroke:rgb(253,127,111);stroke-width:1" /><circle cx="30" cy="269.7325" r="2" style="fill:rgb(253,127,111);stroke:none;fill-opacity:1;stroke-opacity:1;" /><circle cx="780" cy="20" r="2" style="fill:rgb(139,211,199);stroke:none;fill-opacity:1;stroke-opacity:1;" /><path d="M 780 20 L 630.77246 102.255005" style="stroke:rgb(139,211,199);stroke-width:1" /><circle cx="630.77246" cy="102.255005" r="2" style="fill:rgb(139,211,199);stroke:none;fill-opacity:1;stroke-opacity:1;" /><path d="M 630.77246 102.255005 L 517.8862 150.3375" style="stroke:rgb(139,211,199);stroke-width:1" /><circle cx="517.8862" cy="150.3375" r="2" style="fill:rgb(139,211,199);stroke:none;fill-opacity:1;stroke-opacity:1;" /><path d="M 517.8862 150.3375 L 451.85202 167.655" style="stroke:rgb(139,211,199);stroke-width:1" /><circle cx="451.85202" cy="167.655" r="2" style="fill:rgb(139,211,199);stroke:none;fill-opacity:1;stroke-opacity:1;" /><path d="M 451.85202 167.655 L 405 182.8125" style="stroke:rgb(139,211,199);stroke-width:1" /><circle cx="405" cy="182.8125" r="2" style="fill:rgb(139,211,199);stroke:none;fill-opacity:1;stroke-opacity:1;" /><path d="M 405 182.8125 L 338.96576 200.2775" style="stroke:rgb(139,211,199);stroke-width:1" /><circle cx="338.96576" cy="200.2775" r="2" style="fill:rgb(139,211,199);stroke:none;fill-opacity:1;stroke-opacity:1;" /><path d="M 338.96576 200.2775 L 292.11377 207.2475" style="stroke:rgb(139,211,199);stroke-width:1" /><circle cx="292.11377" cy="207.2475" r="2" style="fill:rgb(139,211,199);stroke:none;fill-opacity:1;stroke-opacity:1;" /><path d="M 292.11377 207.2475 L 255.7725 211.5725" style="stroke:rgb(139,211,199);stroke-width:1" /><circle cx="255.7725" cy="211.5725" r="2" style="fill:rgb(139,211,199);stroke:none;fill-opacity:1;stroke-opacity:1;" /><path d="M 255.7725 211.5725 L 142.88626 228.8925" style="stroke:rgb(139,211,199);stroke-width:1" /><circle cx="142.88626" cy="228.8925" r="2" style="fill:rgb(139,211,199);stroke:none;fill-opacity:1;stroke-opacity:1;" /><path d="M 142.88626 228.8925 L 30 238.645" style="stroke:rgb(139,211,199);stroke-width:1" /><circle cx="30" cy="238.645" r="2" style="fill:rgb(139,211,199);stroke:none;fill-opacity:1;stroke-opacity:1;" /><circle cx="780" cy="261.775" r="2" style="fill:rgb(128,214,87);stroke:none;fill-opacity:1;stroke-opacity:1;" /><path d="M 780 261.775 L 630.77246 264.8475" style="stroke:rgb(128,214,87);stroke-width:1" /><circle cx="630.77246" cy="264.8475" r="2" style="fill:rgb(128,214,87);stroke:none;fill-opacity:1;stroke-opacity:1;" /><path d="M 630.77246 264.8475 L 517.8862 266.555" style="stroke:rgb(128,214,87);stroke-width:1" /><circle cx="517.8862" cy="266.555" r="2" style="fill:rgb(128,214,87);stroke:none;fill-opacity:1;stroke-opacity:1;" /><path d="M 517.8862 266.555 L 451.85202 267.415" style="stroke:rgb(128,214,87);stroke-width:1" /><circle cx="451.85202" cy="267.415" r="2" style="fill:rgb(128,214,87);stroke:none;fill-opacity:1;stroke-opacity:1;" /><path d="M 451.85202 267.415 L 405 267.925" style="stroke:rgb(128,214,87);stroke-width:1" /><circle cx="405" cy="267.925" r="2" style="fill:rgb(128,214,87);stroke:none;fill-opacity:1;stroke-opacity:1;" /><path d="M 405 267.925 L 338.96576 268.3875" style="stroke:rgb(128,214,87);stroke-width:1" /><circle cx="338.96576" cy="268.3875" r="2" style="fill:rgb(128,214,87);stroke:none;fill-opacity:1;stroke-opacity:1;" /><path d="M 338.96576 268.3875 L 292.11377 268.6525" style="stroke:rgb(128,214,87);stroke-width:1" /><circle cx="292.11377" cy="268.6525" r="2" style="fill:rgb(128,214,87);stroke:none;fill-opacity:1;stroke-opacity:1;" /><path d="M 292.11377 268.6525 L 255.7725 268.825" style="stroke:rgb(128,214,87);stroke-width:1" /><circle cx="255.7725" cy="268.825" r="2" style="fill:rgb(128,214,87);stroke:none;fill-opacity:1;stroke-opacity:1;" /><path d="M 255.7725 268.825 L 142.88626 269.25" style="stroke:rgb(128,214,87);stroke-width:1" /><circle cx="142.88626" cy="269.25" r="2" style="fill:rgb(128,214,87);stroke:none;fill-opacity:1;stroke-opacity:1;" /><path d="M 142.88626 269.25 L 30 269.5075" style="stroke:rgb(128,214,87);stroke-width:1" /><circle cx="30" cy="269.5075" r="2" style="fill:rgb(128,214,87);stroke:none;fill-opacity:1;stroke-opacity:1;" /><circle cx="780" cy="248.1325" r="2" style="fill:rgb(255,181,90);stroke:none;fill-opacity:1;stroke-opacity:1;" /><path d="M 780 248.1325 L 630.77246 255.7075" style="stroke:rgb(255,181,90);stroke-width:1" /><circle cx="630.77246" cy="255.7075" r="2" style="fill:rgb(255,181,90);stroke:none;fill-opacity:1;stroke-opacity:1;" /><path d="M 630.77246 255.7075 L 517.8862 259.7075" style="stroke:rgb(255,181,90);stroke-width:1" /><circle cx="517.8862" cy="259.7075" r="2" style="fill:rgb(255,181,90);stroke:none;fill-opacity:1;stroke-opacity:1;" /><path d="M 517.8862 259.7075 L 451.85202 261.5475" style="stroke:rgb(255,181,90);stroke-width:1" /><circle cx="451.85202" cy="261.5475" r="2" style="fill:rgb(255,181,90);stroke:none;fill-opacity:1;stroke-opacity:1;" /><path d="M 451.85202 261.5475 L 405 262.61" style="stroke:rgb(255,181,90);stroke-width:1" /><circle cx="405" cy="262.61" r="2" style="fill:rgb(255,181,90);stroke:none;fill-opacity:1;stroke-opacity:1;" /><path d="M 405 262.61 L 338.96576 263.8725" style="stroke:rgb(255,181,90);stroke-width:1" /><circle cx="338.96576" cy="263.8725" r="2" style="fill:rgb(255,181,90);stroke:none;fill-opacity:1;stroke-opacity:1;" /><path d="M 338.96576 263.8725 L 292.11377 264.765" style="stroke:rgb(255,181,90);stroke-width:1" /><circle cx="292.11377" cy="264.765" r="2" style="fill:rgb(255,181,90);stroke:none;fill-opacity:1;stroke-opacity:1;" /><path d="M 292.11377 264.765 L 255.7725 265.2675" style="stroke:rgb(255,181,90);stroke-width:1" /><circle cx="255.7725" cy="265.2675" r="2" style="fill:rgb(255,181,90);stroke:none;fill-opacity:1;stroke-opacity:1;" /><path d="M 255.7725 265.2675 L 142.88626 266.6325" style="stroke:rgb(255,181,90);stroke-width:1" /><circle cx="142.88626" cy="266.6325" r="2" style="fill:rgb(255,181,90);stroke:none;fill-opacity:1;stroke-opacity:1;" /><path d="M 142.88626 266.6325 L 30 267.5675" style="stroke:rgb(255,181,90);stroke-width:1" /><circle cx="30" cy="267.5675" r="2" style="fill:rgb(255,181,90);stroke:none;fill-opacity:1;stroke-opacity:1;" /><circle cx="780" cy="263.565" r="2" style="fill:rgb(126,176,213);stroke:none;fill-opacity:1;stroke-opacity:1;" /><path d="M 780 263.565 L 630.77246 264.92" style="stroke:rgb(126,176,213);stroke-width:1" /><circle cx="630.77246" cy="264.92" r="2" style="fill:rgb(126,176,213);stroke:none;fill-opacity:1;stroke-opacity:1;" /><path d="M 630.77246 264.92 L 517.8862 265.6775" style="stroke:rgb(126,176,213);stroke-width:1" /><circle cx="517.8862" cy="265.6775" r="2" style="fill:rgb(126,176,213);stroke:none;fill-opacity:1;stroke-opacity:1;" /><path d="M 517.8862 265.6775 L 451.85202 266.04" style="stroke:rgb(126,176,213);stroke-width:1" /><circle cx="451.85202" cy="266.04" r="2" style="fill:rgb(126,176,213);stroke:none;fill-opacity:1;stroke-opacity:1;" /><path d="M 451.85202 266.04 L 405 266.2425" style="stroke:rgb(126,176,213);stroke-width:1" /><circle cx="405" cy="266.2425" r="2" style="fill:rgb(126,176,213);stroke:none;fill-opacity:1;stroke-opacity:1;" /><path d="M 405 266.2425 L 338.96576 266.63" style="stroke:rgb(126,176,213);stroke-width:1" /><circle cx="338.96576" cy="266.63" r="2" style="fill:rgb(126,176,213);stroke:none;fill-opacity:1;stroke-opacity:1;" /><path d="M 338.96576 266.63 L 292.11377 266.805" style="stroke:rgb(126,176,213);stroke-width:1" /><circle cx="292.11377" cy="266.805" r="2" style="fill:rgb(126,176,213);stroke:none;fill-opacity:1;stroke-opacity:1;" /><path d="M 292.11377 266.805 L 255.7725 266.9825" style="stroke:rgb(126,176,213);stroke-width:1" /><circle cx="255.7725" cy="266.9825" r="2" style="fill:rgb(126,176,213);stroke:none;fill-opacity:1;stroke-opacity:1;" /><path d="M 255.7725 266.9825 L 142.88626 267.4025" style="stroke:rgb(126,176,213);stroke-width:1" /><circle cx="142.88626" cy="267.4025" r="2" style="fill:rgb(126,176,213);stroke:none;fill-opacity:1;stroke-opacity:1;" /><path d="M 142.88626 267.4025 L 30 267.7575" style="stroke:rgb(126,176,213);stroke-width:1" /><circle cx="30" cy="267.7575" r="2" style="fill:rgb(126,176,213);stroke:none;fill-opacity:1;stroke-opacity:1;" /><rect x="676" y="16" width="80" height="217" ry="4" style="fill:rgb(30,30,30);stroke:none;fill-opacity:0.8;stroke-opacity:1;" /><rect x="680" y="20" width="20" height="20" ry="2" style="fill:rgb(253,127,111);stroke:none;fill-opacity:1;stroke-opacity:1;" /><text x="705" y="33" style="font-size:10px;fill:rgb(255,255,255);text-anchor:start;text-align:left;"> fwd-diff </text><rect x="680" y="41" width="20" height="20" ry="2" style="fill:rgb(255,181,90);stroke:none;fill-opacity:1;stroke-opacity:1;" /><text x="705" y="54" style="font-size:10px;fill:rgb(255,255,255);text-anchor:start;text-align:left;"> hain </text><rect x="680" y="62" width="20" height="20" ry="2" style="fill:rgb(139,211,199);stroke:none;fill-opacity:1;stroke-opacity:1;" /><text x="705" y="75" style="font-size:10px;fill:rgb(255,255,255);text-anchor:start;text-align:left;"> hfd </text><rect x="680" y="83" width="20" height="20" ry="2" style="fill:rgb(50,125,209);stroke:none;fill-opacity:1;stroke-opacity:1;" /><text x="705" y="96" style="font-size:10px;fill:rgb(255,255,255);text-anchor:start;text-align:left;"> levien </text><rect x="680" y="104" width="20" height="20" ry="2" style="fill:rgb(119,211,179);stroke:none;fill-opacity:1;stroke-opacity:1;" /><text x="705" y="117" style="font-size:10px;fill:rgb(255,255,255);text-anchor:start;text-align:left;"> levien-linear </text><rect x="680" y="125" width="20" height="20" ry="2" style="fill:rgb(126,176,213);stroke:none;fill-opacity:1;stroke-opacity:1;" /><text x="705" y="138" style="font-size:10px;fill:rgb(255,255,255);text-anchor:start;text-align:left;"> levien-simd </text><rect x="680" y="146" width="20" height="20" ry="2" style="fill:rgb(128,214,87);stroke:none;fill-opacity:1;stroke-opacity:1;" /><text x="705" y="159" style="font-size:10px;fill:rgb(255,255,255);text-anchor:start;text-align:left;"> linear </text><rect x="680" y="167" width="20" height="20" ry="2" style="fill:rgb(255,238,101);stroke:none;fill-opacity:1;stroke-opacity:1;" /><text x="705" y="180" style="font-size:10px;fill:rgb(255,255,255);text-anchor:start;text-align:left;"> recursive </text><rect x="680" y="188" width="20" height="20" ry="2" style="fill:rgb(253,204,229);stroke:none;fill-opacity:1;stroke-opacity:1;" /><text x="705" y="201" style="font-size:10px;fill:rgb(255,255,255);text-anchor:start;text-align:left;"> wang </text><rect x="680" y="209" width="20" height="20" ry="2" style="fill:rgb(199,126,190);stroke:none;fill-opacity:1;stroke-opacity:1;" /><text x="705" y="222" style="font-size:10px;fill:rgb(255,255,255);text-anchor:start;text-align:left;"> wang-simd </text><text x="400" y="30" style="font-size:20px;fill:rgb(255,255,255);text-anchor:middle;text-align:center;">  </text><text x="400" y="42" style="font-size:8px;fill:rgb(200,200,200);text-anchor:middle;text-align:center;"> Normalized performance score (lower is better) </text></svg>