<svg xmlns="http://www.w3.org/2000/svg" viewBox="0 0 800 300"><rect x="0" y="0" width="800" height="300" ry="6" style="fill:rgb(30,30,30);stroke:none;fill-opacity:1;stroke-opacity:1;" /><path d="M 30 20 L 30 270" style="stroke:rgb(200,200,200);stroke-width:1" /><path d="M 30 270 L 780 270" style="stroke:rgb(200,200,200);stroke-width:1" /><path d="M 780 270 L 780 272" style="stroke:rgb(200,200,200);stroke-width:1" /><text x="780" y="282" style="font-size:10px;fill:rgb(200,200,200);text-anchor:middle;text-align:center;"> 0.01 </text><path d="M 630.77246 270 L 630.77246 272" style="stroke:rgb(200,200,200);stroke-width:1" /><text x="630.77246" y="282" style="font-size:10px;fill:rgb(200,200,200);text-anchor:middle;text-align:center;"> 0.025 </text><path d="M 517.8862 270 L 517.8862 272" style="stroke:rgb(200,200,200);stroke-width:1" /><text x="517.8862" y="282" style="font-size:10px;fill:rgb(200,200,200);text-anchor:middle;text-align:center;"> 0.05 </text><path d="M 451.85202 270 L 451.85202 272" style="stroke:rgb(200,200,200);stroke-width:1" /><text x="451.85202" y="282" style="font-size:10px;fill:rgb(200,200,200);text-anchor:middle;text-align:center;"> 0.075 </text><path d="M 405 270 L 405 272" style="stroke:rgb(200,200,200);stroke-width:1" /><text x="405" y="282" style="font-size:10px;fill:rgb(200,200,200);text-anchor:middle;text-align:center;"> 0.1 </text><path d="M 338.96576 270 L 338.96576 272" style="stroke:rgb(200,200,200);stroke-width:1" /><text x="338.96576" y="282" style="font-size:10px;fill:rgb(200,200,200);text-anchor:middle;text-align:center;"> 0.15 </text><path d="M 292.11377 270 L 292.11377 272" style="stroke:rgb(200,200,200);stroke-width:1" /><text x="292.11377" y="282" style="font-size:10px;fill:rgb(200,200,200);text-anchor:middle;text-align:center;"> 0.2 </text><path d="M 255.7725 270 L 255.7725 272" style="stroke:rgb(200,200,200);stroke-width:1" /><text x="255.7725" y="282" style="font-size:10px;fill:rgb(200,200,200);text-anchor:middle;text-align:center;"> 0.25 </text><path d="M 142.88626 270 L 142.88626 272" style="stroke:rgb(200,200,200);stroke-width:1" /><text x="142.88626" y="282" style="font-size:10px;fill:rgb(200,200,200);text-anchor:middle;text-align:center;"> 0.5 </text><path d="M 30 270 L 30 272" style="stroke:rgb(200,200,200);stroke-width:1" /><text x="30" y="282" style="font-size:10px;fill:rgb(200,200,200);text-anchor:middle;text-align:center;"> 1 </text><path d="M 28 270 L 30 270" style="stroke:rgb(200,200,200);stroke-width:1" /><text x="26" y="274" style="font-size:10px;fill:rgb(200,200,200);text-anchor:end;text-align:right;"> 0 </text><path d="M 28 207.5 L 30 207.5" style="stroke:rgb(200,200,200);stroke-width:1" /><text x="26" y="211.5" style="font-size:10px;fill:rgb(200,200,200);text-anchor:end;text-align:right;"> 0.25 </text><path d="M 28 145 L 30 145" style="stroke:rgb(200,200,200);stroke-width:1" /><text x="26" y="149" style="font-size:10px;fill:rgb(200,200,200);text-anchor:end;text-align:right;"> 0.5 </text><path d="M 28 82.5 L 30 82.5" style="stroke:rgb(200,200,200);stroke-width:1" /><text x="26" y="86.5" style="font-size:10px;fill:rgb(200,200,200);text-anchor:end;text-align:right;"> 0.75 </text><path d="M 28 20 L 30 20" style="stroke:rgb(200,200,200);stroke-width:1" /><text x="26" y="24" style="font-size:10px;fill:rgb(200,200,200);text-anchor:end;text-align:right;"> 1 </text><text x="400" y="294" style="font-size:10px;fill:rgb(200,200,200);text-anchor:middle;text-align:center;"> Tolerance </text><circle cx="780" cy="174.4375" r="2" style="fill:rgb(119,211,179);stroke:none;fill-opacity:1;stroke-opacity:1;" /><path d="M 780 174.4375 L 630.77246 229.14" style="stroke:rgb(119,211,179);stroke-width:1" /><circle cx="630.77246" cy="229.14" r="2" style="fill:rgb(119,211,179);stroke:none;fill-opacity:1;stroke-opacity:1;" /><path d="M 630.77246 229.14 L 517.8862 244.41" style="stroke:rgb(119,211,179);stroke-width:1" /><circle cx="517.8862" cy="244.41" r="2" style="fill:rgb(119,211,179);stroke:none;fill-opacity:1;stroke-opacity:1;" /><path d="M 517.8862 244.41 L 451.85202 248.2525" style="stroke:rgb(119,211,179);stroke-width:1" /><circle cx="451.85202" cy="248.2525" r="2" style="fill:rgb(119,211,179);stroke:none;fill-opacity:1;stroke-opacity:1;" /><path d="M 451.85202 248.2525 L 405 250.095" style="stroke:rgb(119,211,179);stroke-width:1" /><circle cx="405" cy="250.095" r="2" style="fill:rgb(119,211,179);stroke:none;fill-opacity:1;stroke-opacity:1;" /><path d="M 405 250.095 L 338.96576 250.995" style="stroke:rgb(119,211,179);stroke-width:1" /><circle cx="338.96576" cy="250.995" r="2" style="fill:rgb(119,211,179);stroke:none;fill-opacity:1;stroke-opacity:1;" /><path d="M 338.96576 250.995 L 292.11377 251.7825" style="stroke:rgb(119,211,179);stroke-width:1" /><circle cx="292.11377" cy="251.7825" r="2" style="fill:rgb(119,211,179);stroke:none;fill-opacity:1;stroke-opacity:1;" /><path d="M 292.11377 251.7825 L 255.7725 252.39749" style="stroke:rgb(119,211,179);stroke-width:1" /><circle cx="255.7725" cy="252.39749" r="2" style="fill:rgb(119,211,179);stroke:none;fill-opacity:1;stroke-opacity:1;" /><path d="M 255.7725 252.39749 L 142.88626 256.6925" style="stroke:rgb(119,211,179);stroke-width:1" /><circle cx="142.88626" cy="256.6925" r="2" style="fill:rgb(119,211,179);stroke:none;fill-opacity:1;stroke-opacity:1;" /><path d="M 142.88626 256.6925 L 30 260.5" style="stroke:rgb(119,211,179);stroke-width:1" /><circle cx="30" cy="260.5" r="2" style="fill:rgb(119,211,179);stroke:none;fill-opacity:1;stroke-opacity:1;" /><circle cx="780" cy="228.1975" r="2" style="fill:rgb(199,126,190);stroke:none;fill-opacity:1;stroke-opacity:1;" /><path d="M 780 228.1975 L 630.77246 233.9325" style="stroke:rgb(199,126,190);stroke-width:1" /><circle cx="630.77246" cy="233.9325" r="2" style="fill:rgb(199,126,190);stroke:none;fill-opacity:1;stroke-opacity:1;" /><path d="M 630.77246 233.9325 L 517.8862 235.8825" style="stroke:rgb(199,126,190);stroke-width:1" /><circle cx="517.8862" cy="235.8825" r="2" style="fill:rgb(199,126,190);stroke:none;fill-opacity:1;stroke-opacity:1;" /><path d="M 517.8862 235.8825 L 451.85202 238.6125" style="stroke:rgb(199,126,190);stroke-width:1" /><circle cx="451.85202" cy="238.6125" r="2" style="fill:rgb(199,126,190);stroke:none;fill-opacity:1;stroke-opacity:1;" /><path d="M 451.85202 238.6125 L 405 240.405" style="stroke:rgb(199,126,190);stroke-width:1" /><circle cx="405" cy="240.405" r="2" style="fill:rgb(199,126,190);stroke:none;fill-opacity:1;stroke-opacity:1;" /><path d="M 405 240.405 L 338.96576 244.02" style="stroke:rgb(199,126,190);stroke-width:1" /><circle cx="338.96576" cy="244.02" r="2" style="fill:rgb(199,126,190);stroke:none;fill-opacity:1;stroke-opacity:1;" /><path d="M 338.96576 244.02 L 292.11377 246.6175" style="stroke:rgb(199,126,190);stroke-width:1" /><circle cx="292.11377" cy="246.6175" r="2" style="fill:rgb(199,126,190);stroke:none;fill-opacity:1;stroke-opacity:1;" /><path d="M 292.11377 246.6175 L 255.7725 248.145" style="stroke:rgb(199,126,190);stroke-width:1" /><circle cx="255.7725" cy="248.145" r="2" style="fill:rgb(199,126,190);stroke:none;fill-opacity:1;stroke-opacity:1;" /><path d="M 255.7725 248.145 L 142.88626 250.8375" style="stroke:rgb(199,126,190);stroke-width:1" /><circle cx="142.88626" cy="250.8375" r="2" style="fill:rgb(199,126,190);stroke:none;fill-opacity:1;stroke-opacity:1;" /><path d="M 142.88626 250.8375 L 30 251.8725" style="stroke:rgb(199,126,190);stroke-width:1" /><circle cx="30" cy="251.8725" r="2" style="fill:rgb(199,126,190);stroke:none;fill-opacity:1;stroke-opacity:1;" /><circle cx="780" cy="20" r="2" style="fill:rgb(50,125,209);stroke:none;fill-opacity:1;stroke-opacity:1;" /><path d="M 780 20 L 630.77246 43.824997" style="stroke:rgb(50,125,209);stroke-width:1" /><circle cx="630.77246" cy="43.824997" r="2" style="fill:rgb(50,125,209);stroke:none;fill-opacity:1;stroke-opacity:1;" /><path d="M 630.77246 43.824997 L 517.8862 59.977493" style="stroke:rgb(50,125,209);stroke-width:1" /><circle cx="517.8862" cy="59.977493" r="2" style="fill:rgb(50,125,209);stroke:none;fill-opacity:1;stroke-opacity:1;" /><path d="M 517.8862 59.977493 L 451.85202 68.2225" style="stroke:rgb(50,125,209);stroke-width:1" /><circle cx="451.85202" cy="68.2225" r="2" style="fill:rgb(50,125,209);stroke:none;fill-opacity:1;stroke-opacity:1;" /><path d="M 451.85202 68.2225 L 405 71.774994" style="stroke:rgb(50,125,209);stroke-width:1" /><circle cx="405" cy="71.774994" r="2" style="fill:rgb(50,125,209);stroke:none;fill-opacity:1;stroke-opacity:1;" /><path d="M 405 71.774994 L 338.96576 75.615005" style="stroke:rgb(50,125,209);stroke-width:1" /><circle cx="338.96576" cy="75.615005" r="2" style="fill:rgb(50,125,209);stroke:none;fill-opacity:1;stroke-opacity:1;" /><path d="M 338.96576 75.615005 L 292.11377 77.24249" style="stroke:rgb(50,125,209);stroke-width:1" /><circle cx="292.11377" cy="77.24249" r="2" style="fill:rgb(50,125,209);stroke:none;fill-opacity:1;stroke-opacity:1;" /><path d="M 292.11377 77.24249 L 255.7725 78.17999" style="stroke:rgb(50,125,209);stroke-width:1" /><circle cx="255.7725" cy="78.17999" r="2" style="fill:rgb(50,125,209);stroke:none;fill-opacity:1;stroke-opacity:1;" /><path d="M 255.7725 78.17999 L 142.88626 80.494995" style="stroke:rgb(50,125,209);stroke-width:1" /><circle cx="142.88626" cy="80.494995" r="2" style="fill:rgb(50,125,209);stroke:none;fill-opacity:1;stroke-opacity:1;" /><path d="M 142.88626 80.494995 L 30 81.0175" style="stroke:rgb(50,125,209);stroke-width:1" /><circle cx="30" cy="81.0175" r="2" style="fill:rgb(50,125,209);stroke:none;fill-opacity:1;stroke-opacity:1;" /><circle cx="780" cy="213.995" r="2" style="fill:rgb(128,214,87);stroke:none;fill-opacity:1;stroke-opacity:1;" /><path d="M 780 213.995 L 630.77246 237.155" style="stroke:rgb(128,214,87);stroke-width:1" /><circle cx="630.77246" cy="237.155" r="2" style="fill:rgb(128,214,87);stroke:none;fill-opacity:1;stroke-opacity:1;" /><path d="M 630.77246 237.155 L 517.8862 245.8775" style="stroke:rgb(128,214,87);stroke-width:1" /><circle cx="517.8862" cy="245.8775" r="2" style="fill:rgb(128,214,87);stroke:none;fill-opacity:1;stroke-opacity:1;" /><path d="M 517.8862 245.8775 L 451.85202 249.4375" style="stroke:rgb(128,214,87);stroke-width:1" /><circle cx="451.85202" cy="249.4375" r="2" style="fill:rgb(128,214,87);stroke:none;fill-opacity:1;stroke-opacity:1;" /><path d="M 451.85202 249.4375 L 405 251.1125" style="stroke:rgb(128,214,87);stroke-width:1" /><circle cx="405" cy="251.1125" r="2" style="fill:rgb(128,214,87);stroke:none;fill-opacity:1;stroke-opacity:1;" /><path d="M 405 251.1125 L 338.96576 252.1125" style="stroke:rgb(128,214,87);stroke-width:1" /><circle cx="338.96576" cy="252.1125" r="2" style="fill:rgb(128,214,87);stroke:none;fill-opacity:1;stroke-opacity:1;" /><path d="M 338.96576 252.1125 L 292.11377 252.7475" style="stroke:rgb(128,214,87);stroke-width:1" /><circle cx="292.11377" cy="252.7475" r="2" style="fill:rgb(128,214,87);stroke:none;fill-opacity:1;stroke-opacity:1;" /><path d="M 292.11377 252.7475 L 255.7725 253.525" style="stroke:rgb(128,214,87);stroke-width:1" /><circle cx="255.7725" cy="253.525" r="2" style="fill:rgb(128,214,87);stroke:none;fill-opacity:1;stroke-opacity:1;" /><path d="M 255.7725 253.525 L 142.88626 257.545" style="stroke:rgb(128,214,87);stroke-width:1" /><circle cx="142.88626" cy="257.545" r="2" style="fill:rgb(128,214,87);stroke:none;fill-opacity:1;stroke-opacity:1;" /><path d="M 142.88626 257.545 L 30 261.2875" style="stroke:rgb(128,214,87);stroke-width:1" /><circle cx="30" cy="261.2875" r="2" style="fill:rgb(128,214,87);stroke:none;fill-opacity:1;stroke-opacity:1;" /><circle cx="780" cy="45.179993" r="2" style="fill:rgb(126,176,213);stroke:none;fill-opacity:1;stroke-opacity:1;" /><path d="M 780 45.179993 L 630.77246 60.160004" style="stroke:rgb(126,176,213);stroke-width:1" /><circle cx="630.77246" cy="60.160004" r="2" style="fill:rgb(126,176,213);stroke:none;fill-opacity:1;stroke-opacity:1;" /><path d="M 630.77246 60.160004 L 517.8862 68.82001" style="stroke:rgb(126,176,213);stroke-width:1" /><circle cx="517.8862" cy="68.82001" r="2" style="fill:rgb(126,176,213);stroke:none;fill-opacity:1;stroke-opacity:1;" /><path d="M 517.8862 68.82001 L 451.85202 73.4875" style="stroke:rgb(126,176,213);stroke-width:1" /><circle cx="451.85202" cy="73.4875" r="2" style="fill:rgb(126,176,213);stroke:none;fill-opacity:1;stroke-opacity:1;" /><path d="M 451.85202 73.4875 L 405 75.07001" style="stroke:rgb(126,176,213);stroke-width:1" /><circle cx="405" cy="75.07001" r="2" style="fill:rgb(126,176,213);stroke:none;fill-opacity:1;stroke-opacity:1;" /><path d="M 405 75.07001 L 338.96576 77.015" style="stroke:rgb(126,176,213);stroke-width:1" /><circle cx="338.96576" cy="77.015" r="2" style="fill:rgb(126,176,213);stroke:none;fill-opacity:1;stroke-opacity:1;" /><path d="M 338.96576 77.015 L 292.11377 77.9075" style="stroke:rgb(126,176,213);stroke-width:1" /><circle cx="292.11377" cy="77.9075" r="2" style="fill:rgb(126,176,213);stroke:none;fill-opacity:1;stroke-opacity:1;" /><path d="M 292.11377 77.9075 L 255.7725 78.042496" style="stroke:rgb(126,176,213);stroke-width:1" /><circle cx="255.7725" cy="78.042496" r="2" style="fill:rgb(126,176,213);stroke:none;fill-opacity:1;stroke-opacity:1;" /><path d="M 255.7725 78.042496 L 142.88626 79.52251" style="stroke:rgb(126,176,213);stroke-width:1" /><circle cx="142.88626" cy="79.52251" r="2" style="fill:rgb(126,176,213);stroke:none;fill-opacity:1;stroke-opacity:1;" /><path d="M 142.88626 79.52251 L 30 80.44" style="stroke:rgb(126,176,213);stroke-width:1" /><circle cx="30" cy="80.44" r="2" style="fill:rgb(126,176,213);stroke:none;fill-opacity:1;stroke-opacity:1;" /><circle cx="780" cy="210.91501" r="2" style="fill:rgb(255,238,101);stroke:none;fill-opacity:1;stroke-opacity:1;" /><path d="M 780 210.91501 L 630.77246 236.185" style="stroke:rgb(255,238,101);stroke-width:1" /><circle cx="630.77246" cy="236.185" r="2" style="fill:rgb(255,238,101);stroke:none;fill-opacity:1;stroke-opacity:1;" /><path d="M 630.77246 236.185 L 517.8862 245.365" style="stroke:rgb(255,238,101);stroke-width:1" /><circle cx="517.8862" cy="245.365" r="2" style="fill:rgb(255,238,101);stroke:none;fill-opacity:1;stroke-opacity:1;" /><path d="M 517.8862 245.365 L 451.85202 249.635" style="stroke:rgb(255,238,101);stroke-width:1" /><circle cx="451.85202" cy="249.635" r="2" style="fill:rgb(255,238,101);stroke:none;fill-opacity:1;stroke-opacity:1;" /><path d="M 451.85202 249.635 L 405 251.825" style="stroke:rgb(255,238,101);stroke-width:1" /><circle cx="405" cy="251.825" r="2" style="fill:rgb(255,238,101);stroke:none;fill-opacity:1;stroke-opacity:1;" /><path d="M 405 251.825 L 338.96576 253.3425" style="stroke:rgb(255,238,101);stroke-width:1" /><circle cx="338.96576" cy="253.3425" r="2" style="fill:rgb(255,238,101);stroke:none;fill-opacity:1;stroke-opacity:1;" /><path d="M 338.96576 253.3425 L 292.11377 254.81" style="stroke:rgb(255,238,101);stroke-width:1" /><circle cx="292.11377" cy="254.81" r="2" style="fill:rgb(255,238,101);stroke:none;fill-opacity:1;stroke-opacity:1;" /><path d="M 292.11377 254.81 L 255.7725 256.3725" style="stroke:rgb(255,238,101);stroke-width:1" /><circle cx="255.7725" cy="256.3725" r="2" style="fill:rgb(255,238,101);stroke:none;fill-opacity:1;stroke-opacity:1;" /><path d="M 255.7725 256.3725 L 142.88626 261.2625" style="stroke:rgb(255,238,101);stroke-width:1" /><circle cx="142.88626" cy="261.2625" r="2" style="fill:rgb(255,238,101);stroke:none;fill-opacity:1;stroke-opacity:1;" /><path d="M 142.88626 261.2625 L 30 263.9475" style="stroke:rgb(255,238,101);stroke-width:1" /><circle cx="30" cy="263.9475" r="2" style="fill:rgb(255,238,101);stroke:none;fill-opacity:1;stroke-opacity:1;" /><circle cx="780" cy="220.4" r="2" style="fill:rgb(253,204,229);stroke:none;fill-opacity:1;stroke-opacity:1;" /><path d="M 780 220.4 L 630.77246 230.0775" style="stroke:rgb(253,204,229);stroke-width:1" /><circle cx="630.77246" cy="230.0775" r="2" style="fill:rgb(253,204,229);stroke:none;fill-opacity:1;stroke-opacity:1;" /><path d="M 630.77246 230.0775 L 517.8862 234.755" style="stroke:rgb(253,204,229);stroke-width:1" /><circle cx="517.8862" cy="234.755" r="2" style="fill:rgb(253,204,229);stroke:none;fill-opacity:1;stroke-opacity:1;" /><path d="M 517.8862 234.755 L 451.85202 237.795" style="stroke:rgb(253,204,229);stroke-width:1" /><circle cx="451.85202" cy="237.795" r="2" style="fill:rgb(253,204,229);stroke:none;fill-opacity:1;stroke-opacity:1;" /><path d="M 451.85202 237.795 L 405 240.05" style="stroke:rgb(253,204,229);stroke-width:1" /><circle cx="405" cy="240.05" r="2" style="fill:rgb(253,204,229);stroke:none;fill-opacity:1;stroke-opacity:1;" /><path d="M 405 240.05 L 338.96576 243.7125" style="stroke:rgb(253,204,229);stroke-width:1" /><circle cx="338.96576" cy="243.7125" r="2" style="fill:rgb(253,204,229);stroke:none;fill-opacity:1;stroke-opacity:1;" /><path d="M 338.96576 243.7125 L 292.11377 246.675" style="stroke:rgb(253,204,229);stroke-width:1" /><circle cx="292.11377" cy="246.675" r="2" style="fill:rgb(253,204,229);stroke:none;fill-opacity:1;stroke-opacity:1;" /><path d="M 292.11377 246.675 L 255.7725 248.22751" style="stroke:rgb(253,204,229);stroke-width:1" /><circle cx="255.7725" cy="248.22751" r="2" style="fill:rgb(253,204,229);stroke:none;fill-opacity:1;stroke-opacity:1;" /><path d="M 255.7725 248.22751 L 142.88626 250.8925" style="stroke:rgb(253,204,229);stroke-width:1" /><circle cx="142.88626" cy="250.8925" r="2" style="fill:rgb(253,204,229);stroke:none;fill-opacity:1;stroke-opacity:1;" /><path d="M 142.88626 250.8925 L 30 251.7375" style="stroke:rgb(253,204,229);stroke-width:1" /><circle cx="30" cy="251.7375" r="2" style="fill:rgb(253,204,229);stroke:none;fill-opacity:1;stroke-opacity:1;" /><circle cx="780" cy="219.3125" r="2" style="fill:rgb(253,127,111);stroke:none;fill-opacity:1;stroke-opacity:1;" /><path d="M 780 219.3125 L 630.77246 228.8725" style="stroke:rgb(253,127,111);stroke-width:1" /><circle cx="630.77246" cy="228.8725" r="2" style="fill:rgb(253,127,111);stroke:none;fill-opacity:1;stroke-opacity:1;" /><path d="M 630.77246 228.8725 L 517.8862 234.1675" style="stroke:rgb(253,127,111);stroke-width:1" /><circle cx="517.8862" cy="234.1675" r="2" style="fill:rgb(253,127,111);stroke:none;fill-opacity:1;stroke-opacity:1;" /><path d="M 517.8862 234.1675 L 451.85202 237.205" style="stroke:rgb(253,127,111);stroke-width:1" /><circle cx="451.85202" cy="237.205" r="2" style="fill:rgb(253,127,111);stroke:none;fill-opacity:1;stroke-opacity:1;" /><path d="M 451.85202 237.205 L 405 239.815" style="stroke:rgb(253,127,111);stroke-width:1" /><circle cx="405" cy="239.815" r="2" style="fill:rgb(253,127,111);stroke:none;fill-opacity:1;stroke-opacity:1;" /><path d="M 405 239.815 L 338.96576 243.6175" style="stroke:rgb(253,127,111);stroke-width:1" /><circle cx="338.96576" cy="243.6175" r="2" style="fill:rgb(253,127,111);stroke:none;fill-opacity:1;stroke-opacity:1;" /><path d="M 338.96576 243.6175 L 292.11377 246.66" style="stroke:rgb(253,127,111);stroke-width:1" /><circle cx="292.11377" cy="246.66" r="2" style="fill:rgb(253,127,111);stroke:none;fill-opacity:1;stroke-opacity:1;" /><path d="M 292.11377 246.66 L 255.7725 248.225" style="stroke:rgb(253,127,111);stroke-width:1" /><circle cx="255.7725" cy="248.225" r="2" style="fill:rgb(253,127,111);stroke:none;fill-opacity:1;stroke-opacity:1;" /><path d="M 255.7725 248.225 L 142.88626 250.8725" style="stroke:rgb(253,127,111);stroke-width:1" /><circle cx="142.88626" cy="250.8725" r="2" style="fill:rgb(253,127,111);stroke:none;fill-opacity:1;stroke-opacity:1;" /><path d="M 142.88626 250.8725 L 30 251.8675" style="stroke:rgb(253,127,111);stroke-width:1" /><circle cx="30" cy="251.8675" r="2" style="fill:rgb(253,127,111);stroke:none;fill-opacity:1;stroke-opacity:1;" /><circle cx="780" cy="94.9725" r="2" style="fill:rgb(255,181,90);stroke:none;fill-opacity:1;stroke-opacity:1;" /><path d="M 780 94.9725 L 630.77246 150.94" style="stroke:rgb(255,181,90);stroke-width:1" /><circle cx="630.77246" cy="150.94" r="2" style="fill:rgb(255,181,90);stroke:none;fill-opacity:1;stroke-opacity:1;" /><path d="M 630.77246 150.94 L 517.8862 179.15" style="stroke:rgb(255,181,90);stroke-width:1" /><circle cx="517.8862" cy="179.15" r="2" style="fill:rgb(255,181,90);stroke:none;fill-opacity:1;stroke-opacity:1;" /><path d="M 517.8862 179.15 L 451.85202 191.075" style="stroke:rgb(255,181,90);stroke-width:1" /><circle cx="451.85202" cy="191.075" r="2" style="fill:rgb(255,181,90);stroke:none;fill-opacity:1;stroke-opacity:1;" /><path d="M 451.85202 191.075 L 405 198.02249" style="stroke:rgb(255,181,90);stroke-width:1" /><circle cx="405" cy="198.02249" r="2" style="fill:rgb(255,181,90);stroke:none;fill-opacity:1;stroke-opacity:1;" /><path d="M 405 198.02249 L 338.96576 206.14749" style="stroke:rgb(255,181,90);stroke-width:1" /><circle cx="338.96576" cy="206.14749" r="2" style="fill:rgb(255,181,90);stroke:none;fill-opacity:1;stroke-opacity:1;" /><path d="M 338.96576 206.14749 L 292.11377 210.5775" style="stroke:rgb(255,181,90);stroke-width:1" /><circle cx="292.11377" cy="210.5775" r="2" style="fill:rgb(255,181,90);stroke:none;fill-opacity:1;stroke-opacity:1;" /><path d="M 292.11377 210.5775 L 255.7725 213.4475" style="stroke:rgb(255,181,90);stroke-width:1" /><circle cx="255.7725" cy="213.4475" r="2" style="fill:rgb(255,181,90);stroke:none;fill-opacity:1;stroke-opacity:1;" /><path d="M 255.7725 213.4475 L 142.88626 218.865" style="stroke:rgb(255,181,90);stroke-width:1" /><circle cx="142.88626" cy="218.865" r="2" style="fill:rgb(255,181,90);stroke:none;fill-opacity:1;stroke-opacity:1;" /><path d="M 142.88626 218.865 L 30 220.4075" style="stroke:rgb(255,181,90);stroke-width:1" /><circle cx="30" cy="220.4075" r="2" style="fill:rgb(255,181,90);stroke:none;fill-opacity:1;stroke-opacity:1;" /><rect x="676" y="16" width="80" height="196" ry="4" style="fill:rgb(30,30,30);stroke:none;fill-opacity:0.8;stroke-opacity:1;" /><rect x="680" y="20" width="20" height="20" ry="2" style="fill:rgb(253,127,111);stroke:none;fill-opacity:1;stroke-opacity:1;" /><text x="705" y="33" style="font-size:10px;fill:rgb(255,255,255);text-anchor:start;text-align:left;"> fwd-diff </text><rect x="680" y="41" width="20" height="20" ry="2" style="fill:rgb(255,181,90);stroke:none;fill-opacity:1;stroke-opacity:1;" /><text x="705" y="54" style="font-size:10px;fill:rgb(255,255,255);text-anchor:start;text-align:left;"> hain </text><rect x="680" y="62" width="20" height="20" ry="2" style="fill:rgb(50,125,209);stroke:none;fill-opacity:1;stroke-opacity:1;" /><text x="705" y="75" style="font-size:10px;fill:rgb(255,255,255);text-anchor:start;text-align:left;"> levien </text><rect x="680" y="83" width="20" height="20" ry="2" style="fill:rgb(119,211,179);stroke:none;fill-opacity:1;stroke-opacity:1;" /><text x="705" y="96" style="font-size:10px;fill:rgb(255,255,255);text-anchor:start;text-align:left;"> levien-linear </text><rect x="680" y="104" width="20" height="20" ry="2" style="fill:rgb(126,176,213);stroke:none;fill-opacity:1;stroke-opacity:1;" /><text x="705" y="117" style="font-size:10px;fill:rgb(255,255,255);text-anchor:start;text-align:left;"> levien-simd </text><rect x="680" y="125" width="20" height="20" ry="2" style="fill:rgb(128,214,87);stroke:none;fill-opacity:1;stroke-opacity:1;" /><text x="705" y="138" style="font-size:10px;fill:rgb(255,255,255);text-anchor:start;text-align:left;"> linear </text><rect x="680" y="146" width="20" height="20" ry="2" style="fill:rgb(255,238,101);stroke:none;fill-opacity:1;stroke-opacity:1;" /><text x="705" y="159" style="font-size:10px;fill:rgb(255,255,255);text-anchor:start;text-align:left;"> recursive </text><rect x="680" y="167" width="20" height="20" ry="2" style="fill:rgb(253,204,229);stroke:none;fill-opacity:1;stroke-opacity:1;" /><text x="705" y="180" style="font-size:10px;fill:rgb(255,255,255);text-anchor:start;text-align:left;"> wang </text><rect x="680" y="188" width="20" height="20" ry="2" style="fill:rgb(199,126,190);stroke:none;fill-opacity:1;stroke-opacity:1;" /><text x="705" y="201" style="font-size:10px;fill:rgb(255,255,255);text-anchor:start;text-align:left;"> wang-simd </text><text x="400" y="30" style="font-size:20px;fill:rgb(255,255,255);text-anchor:middle;text-align:center;"> Fonts </text><text x="400" y="42" style="font-size:8px;fill:rgb(200,200,200);text-anchor:middle;text-align:center;"> Normalized performance score (lower is better) </text></svg>