<svg xmlns="http://www.w3.org/2000/svg" viewBox="0 0 800 300"><rect x="0" y="0" width="800" height="300" ry="6" style="fill:rgb(30,30,30);stroke:none;fill-opacity:1;stroke-opacity:1;" /><path d="M 30 20 L 30 270" style="stroke:rgb(200,200,200);stroke-width:1" /><path d="M 30 270 L 780 270" style="stroke:rgb(200,200,200);stroke-width:1" /><path d="M 780 270 L 780 272" style="stroke:rgb(200,200,200);stroke-width:1" /><text x="780" y="282" style="font-size:10px;fill:rgb(200,200,200);text-anchor:middle;text-align:center;"> 0.01 </text><path d="M 630.77246 270 L 630.77246 272" style="stroke:rgb(200,200,200);stroke-width:1" /><text x="630.77246" y="282" style="font-size:10px;fill:rgb(200,200,200);text-anchor:middle;text-align:center;"> 0.025 </text><path d="M 517.8862 270 L 517.8862 272" style="stroke:rgb(200,200,200);stroke-width:1" /><text x="517.8862" y="282" style="font-size:10px;fill:rgb(200,200,200);text-anchor:middle;text-align:center;"> 0.05 </text><path d="M 451.85202 270 L 451.85202 272" style="stroke:rgb(200,200,200);stroke-width:1" /><text x="451.85202" y="282" style="font-size:10px;fill:rgb(200,200,200);text-anchor:middle;text-align:center;"> 0.075 </text><path d="M 405 270 L 405 272" style="stroke:rgb(200,200,200);stroke-width:1" /><text x="405" y="282" style="font-size:10px;fill:rgb(200,200,200);text-anchor:middle;text-align:center;"> 0.1 </text><path d="M 338.96576 270 L 338.96576 272" style="stroke:rgb(200,200,200);stroke-width:1" /><text x="338.96576" y="282" style="font-size:10px;fill:rgb(200,200,200);text-anchor:middle;text-align:center;"> 0.15 </text><path d="M 292.11377 270 L 292.11377 272" style="stroke:rgb(200,200,200);stroke-width:1" /><text x="292.11377" y="282" style="font-size:10px;fill:rgb(200,200,200);text-anchor:middle;text-align:center;"> 0.2 </text><path d="M 255.7725 270 L 255.7725 272" style="stroke:rgb(200,200,200);stroke-width:1" /><text x="255.7725" y="282" style="font-size:10px;fill:rgb(200,200,200);text-anchor:middle;text-align:center;"> 0.25 </text><path d="M 142.88626 270 L 142.88626 272" style="stroke:rgb(200,200,200);stroke-width:1" /><text x="142.88626" y="282" style="font-size:10px;fill:rgb(200,200,200);text-anchor:middle;text-align:center;"> 0.5 </text><path d="M 30 270 L 30 272" style="stroke:rgb(200,200,200);stroke-width:1" /><text x="30" y="282" style="font-size:10px;fill:rgb(200,200,200);text-anchor:middle;text-align:center;"> 1 </text><path d="M 28 270 L 30 270" style="stroke:rgb(200,200,200);stroke-width:1" /><text x="26" y="274" style="font-size:10px;fill:rgb(200,200,200);text-anchor:end;text-align:right;"> 0 </text><path d="M 28 207.5 L 30 207.5" style="stroke:rgb(200,200,200);stroke-width:1" /><text x="26" y="211.5" style="font-size:10px;fill:rgb(200,200,200);text-anchor:end;text-align:right;"> 0.25 </text><path d="M 28 145 L 30 145" style="stroke:rgb(200,200,200);stroke-width:1" /><text x="26" y="149" style="font-size:10px;fill:rgb(200,200,200);text-anchor:end;text-align:right;"> 0.5 </text><path d="M 28 82.5 L 30 82.5" style="stroke:rgb(200,200,200);stroke-width:1" /><text x="26" y="86.5" style="font-size:10px;fill:rgb(200,200,200);text-anchor:end;text-align:right;"> 0.75 </text><path d="M 28 20 L 30 20" style="stroke:rgb(200,200,200);stroke-width:1" /><text x="26" y="24" style="font-size:10px;fill:rgb(200,200,200);text-anchor:end;text-align:right;"> 1 </text><text x="400" y="294" style="font-size:10px;fill:rgb(200,200,200);text-anchor:middle;text-align:center;"> Tolerance </text><circle cx="780" cy="135.17" r="2" style="fill:rgb(50,125,209);stroke:none;fill-opacity:1;stroke-opacity:1;" /><path d="M 780 135.17 L 630.77246 178.1625" style="stroke:rgb(50,125,209);stroke-width:1" /><circle cx="630.77246" cy="178.1625" r="2" style="fill:rgb(50,125,209);stroke:none;fill-opacity:1;stroke-opacity:1;" /><path d="M 630.77246 178.1625 L 517.8862 200.07" style="stroke:rgb(50,125,209);stroke-width:1" /><circle cx="517.8862" cy="200.07" r="2" style="fill:rgb(50,125,209);stroke:none;fill-opacity:1;stroke-opacity:1;" /><path d="M 517.8862 200.07 L 451.85202 209.895" style="stroke:rgb(50,125,209);stroke-width:1" /><circle cx="451.85202" cy="209.895" r="2" style="fill:rgb(50,125,209);stroke:none;fill-opacity:1;stroke-opacity:1;" /><path d="M 451.85202 209.895 L 405 215.8275" style="stroke:rgb(50,125,209);stroke-width:1" /><circle cx="405" cy="215.8275" r="2" style="fill:rgb(50,125,209);stroke:none;fill-opacity:1;stroke-opacity:1;" /><path d="M 405 215.8275 L 338.96576 222.955" style="stroke:rgb(50,125,209);stroke-width:1" /><circle cx="338.96576" cy="222.955" r="2" style="fill:rgb(50,125,209);stroke:none;fill-opacity:1;stroke-opacity:1;" /><path d="M 338.96576 222.955 L 292.11377 227.275" style="stroke:rgb(50,125,209);stroke-width:1" /><circle cx="292.11377" cy="227.275" r="2" style="fill:rgb(50,125,209);stroke:none;fill-opacity:1;stroke-opacity:1;" /><path d="M 292.11377 227.275 L 255.7725 230.33499" style="stroke:rgb(50,125,209);stroke-width:1" /><circle cx="255.7725" cy="230.33499" r="2" style="fill:rgb(50,125,209);stroke:none;fill-opacity:1;stroke-opacity:1;" /><path d="M 255.7725 230.33499 L 142.88626 237.8775" style="stroke:rgb(50,125,209);stroke-width:1" /><circle cx="142.88626" cy="237.8775" r="2" style="fill:rgb(50,125,209);stroke:none;fill-opacity:1;stroke-opacity:1;" /><path d="M 142.88626 237.8775 L 30 243.14749" style="stroke:rgb(50,125,209);stroke-width:1" /><circle cx="30" cy="243.14749" r="2" style="fill:rgb(50,125,209);stroke:none;fill-opacity:1;stroke-opacity:1;" /><circle cx="780" cy="228.6275" r="2" style="fill:rgb(126,176,213);stroke:none;fill-opacity:1;stroke-opacity:1;" /><path d="M 780 228.6275 L 630.77246 239.04001" style="stroke:rgb(126,176,213);stroke-width:1" /><circle cx="630.77246" cy="239.04001" r="2" style="fill:rgb(126,176,213);stroke:none;fill-opacity:1;stroke-opacity:1;" /><path d="M 630.77246 239.04001 L 517.8862 244.64749" style="stroke:rgb(126,176,213);stroke-width:1" /><circle cx="517.8862" cy="244.64749" r="2" style="fill:rgb(126,176,213);stroke:none;fill-opacity:1;stroke-opacity:1;" /><path d="M 517.8862 244.64749 L 451.85202 247.39749" style="stroke:rgb(126,176,213);stroke-width:1" /><circle cx="451.85202" cy="247.39749" r="2" style="fill:rgb(126,176,213);stroke:none;fill-opacity:1;stroke-opacity:1;" /><path d="M 451.85202 247.39749 L 405 249.15" style="stroke:rgb(126,176,213);stroke-width:1" /><circle cx="405" cy="249.15" r="2" style="fill:rgb(126,176,213);stroke:none;fill-opacity:1;stroke-opacity:1;" /><path d="M 405 249.15 L 338.96576 251.3925" style="stroke:rgb(126,176,213);stroke-width:1" /><circle cx="338.96576" cy="251.3925" r="2" style="fill:rgb(126,176,213);stroke:none;fill-opacity:1;stroke-opacity:1;" /><path d="M 338.96576 251.3925 L 292.11377 252.8575" style="stroke:rgb(126,176,213);stroke-width:1" /><circle cx="292.11377" cy="252.8575" r="2" style="fill:rgb(126,176,213);stroke:none;fill-opacity:1;stroke-opacity:1;" /><path d="M 292.11377 252.8575 L 255.7725 253.8225" style="stroke:rgb(126,176,213);stroke-width:1" /><circle cx="255.7725" cy="253.8225" r="2" style="fill:rgb(126,176,213);stroke:none;fill-opacity:1;stroke-opacity:1;" /><path d="M 255.7725 253.8225 L 142.88626 256.4025" style="stroke:rgb(126,176,213);stroke-width:1" /><circle cx="142.88626" cy="256.4025" r="2" style="fill:rgb(126,176,213);stroke:none;fill-opacity:1;stroke-opacity:1;" /><path d="M 142.88626 256.4025 L 30 258.2575" style="stroke:rgb(126,176,213);stroke-width:1" /><circle cx="30" cy="258.2575" r="2" style="fill:rgb(126,176,213);stroke:none;fill-opacity:1;stroke-opacity:1;" /><circle cx="780" cy="20" r="2" style="fill:rgb(255,238,101);stroke:none;fill-opacity:1;stroke-opacity:1;" /><path d="M 780 20 L 630.77246 121.5175" style="stroke:rgb(255,238,101);stroke-width:1" /><circle cx="630.77246" cy="121.5175" r="2" style="fill:rgb(255,238,101);stroke:none;fill-opacity:1;stroke-opacity:1;" /><path d="M 630.77246 121.5175 L 517.8862 155.1125" style="stroke:rgb(255,238,101);stroke-width:1" /><circle cx="517.8862" cy="155.1125" r="2" style="fill:rgb(255,238,101);stroke:none;fill-opacity:1;stroke-opacity:1;" /><path d="M 517.8862 155.1125 L 451.85202 180.08249" style="stroke:rgb(255,238,101);stroke-width:1" /><circle cx="451.85202" cy="180.08249" r="2" style="fill:rgb(255,238,101);stroke:none;fill-opacity:1;stroke-opacity:1;" /><path d="M 451.85202 180.08249 L 405 195.83499" style="stroke:rgb(255,238,101);stroke-width:1" /><circle cx="405" cy="195.83499" r="2" style="fill:rgb(255,238,101);stroke:none;fill-opacity:1;stroke-opacity:1;" /><path d="M 405 195.83499 L 338.96576 206.2825" style="stroke:rgb(255,238,101);stroke-width:1" /><circle cx="338.96576" cy="206.2825" r="2" style="fill:rgb(255,238,101);stroke:none;fill-opacity:1;stroke-opacity:1;" /><path d="M 338.96576 206.2825 L 292.11377 212.7975" style="stroke:rgb(255,238,101);stroke-width:1" /><circle cx="292.11377" cy="212.7975" r="2" style="fill:rgb(255,238,101);stroke:none;fill-opacity:1;stroke-opacity:1;" /><path d="M 292.11377 212.7975 L 255.7725 219.2475" style="stroke:rgb(255,238,101);stroke-width:1" /><circle cx="255.7725" cy="219.2475" r="2" style="fill:rgb(255,238,101);stroke:none;fill-opacity:1;stroke-opacity:1;" /><path d="M 255.7725 219.2475 L 142.88626 236.855" style="stroke:rgb(255,238,101);stroke-width:1" /><circle cx="142.88626" cy="236.855" r="2" style="fill:rgb(255,238,101);stroke:none;fill-opacity:1;stroke-opacity:1;" /><path d="M 142.88626 236.855 L 30 244.795" style="stroke:rgb(255,238,101);stroke-width:1" /><circle cx="30" cy="244.795" r="2" style="fill:rgb(255,238,101);stroke:none;fill-opacity:1;stroke-opacity:1;" /><circle cx="780" cy="20.0775" r="2" style="fill:rgb(128,214,87);stroke:none;fill-opacity:1;stroke-opacity:1;" /><path d="M 780 20.0775 L 630.77246 111.5125" style="stroke:rgb(128,214,87);stroke-width:1" /><circle cx="630.77246" cy="111.5125" r="2" style="fill:rgb(128,214,87);stroke:none;fill-opacity:1;stroke-opacity:1;" /><path d="M 630.77246 111.5125 L 517.8862 156.10501" style="stroke:rgb(128,214,87);stroke-width:1" /><circle cx="517.8862" cy="156.10501" r="2" style="fill:rgb(128,214,87);stroke:none;fill-opacity:1;stroke-opacity:1;" /><path d="M 517.8862 156.10501 L 451.85202 177.3725" style="stroke:rgb(128,214,87);stroke-width:1" /><circle cx="451.85202" cy="177.3725" r="2" style="fill:rgb(128,214,87);stroke:none;fill-opacity:1;stroke-opacity:1;" /><path d="M 451.85202 177.3725 L 405 189.6375" style="stroke:rgb(128,214,87);stroke-width:1" /><circle cx="405" cy="189.6375" r="2" style="fill:rgb(128,214,87);stroke:none;fill-opacity:1;stroke-opacity:1;" /><path d="M 405 189.6375 L 338.96576 203.8" style="stroke:rgb(128,214,87);stroke-width:1" /><circle cx="338.96576" cy="203.8" r="2" style="fill:rgb(128,214,87);stroke:none;fill-opacity:1;stroke-opacity:1;" /><path d="M 338.96576 203.8 L 292.11377 213.215" style="stroke:rgb(128,214,87);stroke-width:1" /><circle cx="292.11377" cy="213.215" r="2" style="fill:rgb(128,214,87);stroke:none;fill-opacity:1;stroke-opacity:1;" /><path d="M 292.11377 213.215 L 255.7725 219.545" style="stroke:rgb(128,214,87);stroke-width:1" /><circle cx="255.7725" cy="219.545" r="2" style="fill:rgb(128,214,87);stroke:none;fill-opacity:1;stroke-opacity:1;" /><path d="M 255.7725 219.545 L 142.88626 234.4375" style="stroke:rgb(128,214,87);stroke-width:1" /><circle cx="142.88626" cy="234.4375" r="2" style="fill:rgb(128,214,87);stroke:none;fill-opacity:1;stroke-opacity:1;" /><path d="M 142.88626 234.4375 L 30 244.895" style="stroke:rgb(128,214,87);stroke-width:1" /><circle cx="30" cy="244.895" r="2" style="fill:rgb(128,214,87);stroke:none;fill-opacity:1;stroke-opacity:1;" /><circle cx="780" cy="243.4925" r="2" style="fill:rgb(253,127,111);stroke:none;fill-opacity:1;stroke-opacity:1;" /><path d="M 780 243.4925 L 630.77246 250.145" style="stroke:rgb(253,127,111);stroke-width:1" /><circle cx="630.77246" cy="250.145" r="2" style="fill:rgb(253,127,111);stroke:none;fill-opacity:1;stroke-opacity:1;" /><path d="M 630.77246 250.145 L 517.8862 253.89749" style="stroke:rgb(253,127,111);stroke-width:1" /><circle cx="517.8862" cy="253.89749" r="2" style="fill:rgb(253,127,111);stroke:none;fill-opacity:1;stroke-opacity:1;" /><path d="M 517.8862 253.89749 L 451.85202 255.7525" style="stroke:rgb(253,127,111);stroke-width:1" /><circle cx="451.85202" cy="255.7525" r="2" style="fill:rgb(253,127,111);stroke:none;fill-opacity:1;stroke-opacity:1;" /><path d="M 451.85202 255.7525 L 405 256.9475" style="stroke:rgb(253,127,111);stroke-width:1" /><circle cx="405" cy="256.9475" r="2" style="fill:rgb(253,127,111);stroke:none;fill-opacity:1;stroke-opacity:1;" /><path d="M 405 256.9475 L 338.96576 258.5175" style="stroke:rgb(253,127,111);stroke-width:1" /><circle cx="338.96576" cy="258.5175" r="2" style="fill:rgb(253,127,111);stroke:none;fill-opacity:1;stroke-opacity:1;" /><path d="M 338.96576 258.5175 L 292.11377 259.54" style="stroke:rgb(253,127,111);stroke-width:1" /><circle cx="292.11377" cy="259.54" r="2" style="fill:rgb(253,127,111);stroke:none;fill-opacity:1;stroke-opacity:1;" /><path d="M 292.11377 259.54 L 255.7725 260.25" style="stroke:rgb(253,127,111);stroke-width:1" /><circle cx="255.7725" cy="260.25" r="2" style="fill:rgb(253,127,111);stroke:none;fill-opacity:1;stroke-opacity:1;" /><path d="M 255.7725 260.25 L 142.88626 262.2" style="stroke:rgb(253,127,111);stroke-width:1" /><circle cx="142.88626" cy="262.2" r="2" style="fill:rgb(253,127,111);stroke:none;fill-opacity:1;stroke-opacity:1;" /><path d="M 142.88626 262.2 L 30 263.4975" style="stroke:rgb(253,127,111);stroke-width:1" /><circle cx="30" cy="263.4975" r="2" style="fill:rgb(253,127,111);stroke:none;fill-opacity:1;stroke-opacity:1;" /><circle cx="780" cy="242.1525" r="2" style="fill:rgb(253,204,229);stroke:none;fill-opacity:1;stroke-opacity:1;" /><path d="M 780 242.1525 L 630.77246 248.91" style="stroke:rgb(253,204,229);stroke-width:1" /><circle cx="630.77246" cy="248.91" r="2" style="fill:rgb(253,204,229);stroke:none;fill-opacity:1;stroke-opacity:1;" /><path d="M 630.77246 248.91 L 517.8862 253.055" style="stroke:rgb(253,204,229);stroke-width:1" /><circle cx="517.8862" cy="253.055" r="2" style="fill:rgb(253,204,229);stroke:none;fill-opacity:1;stroke-opacity:1;" /><path d="M 517.8862 253.055 L 451.85202 255.0625" style="stroke:rgb(253,204,229);stroke-width:1" /><circle cx="451.85202" cy="255.0625" r="2" style="fill:rgb(253,204,229);stroke:none;fill-opacity:1;stroke-opacity:1;" /><path d="M 451.85202 255.0625 L 405 256.33" style="stroke:rgb(253,204,229);stroke-width:1" /><circle cx="405" cy="256.33" r="2" style="fill:rgb(253,204,229);stroke:none;fill-opacity:1;stroke-opacity:1;" /><path d="M 405 256.33 L 338.96576 257.9975" style="stroke:rgb(253,204,229);stroke-width:1" /><circle cx="338.96576" cy="257.9975" r="2" style="fill:rgb(253,204,229);stroke:none;fill-opacity:1;stroke-opacity:1;" /><path d="M 338.96576 257.9975 L 292.11377 259.0825" style="stroke:rgb(253,204,229);stroke-width:1" /><circle cx="292.11377" cy="259.0825" r="2" style="fill:rgb(253,204,229);stroke:none;fill-opacity:1;stroke-opacity:1;" /><path d="M 292.11377 259.0825 L 255.7725 259.7575" style="stroke:rgb(253,204,229);stroke-width:1" /><circle cx="255.7725" cy="259.7575" r="2" style="fill:rgb(253,204,229);stroke:none;fill-opacity:1;stroke-opacity:1;" /><path d="M 255.7725 259.7575 L 142.88626 261.825" style="stroke:rgb(253,204,229);stroke-width:1" /><circle cx="142.88626" cy="261.825" r="2" style="fill:rgb(253,204,229);stroke:none;fill-opacity:1;stroke-opacity:1;" /><path d="M 142.88626 261.825 L 30 263.1825" style="stroke:rgb(253,204,229);stroke-width:1" /><circle cx="30" cy="263.1825" r="2" style="fill:rgb(253,204,229);stroke:none;fill-opacity:1;stroke-opacity:1;" /><rect x="676" y="16" width="80" height="133" ry="4" style="fill:rgb(30,30,30);stroke:none;fill-opacity:0.8;stroke-opacity:1;" /><rect x="680" y="20" width="20" height="20" ry="2" style="fill:rgb(253,127,111);stroke:none;fill-opacity:1;stroke-opacity:1;" /><text x="705" y="33" style="font-size:10px;fill:rgb(255,255,255);text-anchor:start;text-align:left;"> fwd-diff </text><rect x="680" y="41" width="20" height="20" ry="2" style="fill:rgb(50,125,209);stroke:none;fill-opacity:1;stroke-opacity:1;" /><text x="705" y="54" style="font-size:10px;fill:rgb(255,255,255);text-anchor:start;text-align:left;"> levien </text><rect x="680" y="62" width="20" height="20" ry="2" style="fill:rgb(126,176,213);stroke:none;fill-opacity:1;stroke-opacity:1;" /><text x="705" y="75" style="font-size:10px;fill:rgb(255,255,255);text-anchor:start;text-align:left;"> levien-simd </text><rect x="680" y="83" width="20" height="20" ry="2" style="fill:rgb(128,214,87);stroke:none;fill-opacity:1;stroke-opacity:1;" /><text x="705" y="96" style="font-size:10px;fill:rgb(255,255,255);text-anchor:start;text-align:left;"> linear </text><rect x="680" y="104" width="20" height="20" ry="2" style="fill:rgb(255,238,101);stroke:none;fill-opacity:1;stroke-opacity:1;" /><text x="705" y="117" style="font-size:10px;fill:rgb(255,255,255);text-anchor:start;text-align:left;"> recursive </text><rect x="680" y="125" width="20" height="20" ry="2" style="fill:rgb(253,204,229);stroke:none;fill-opacity:1;stroke-opacity:1;" /><text x="705" y="138" style="font-size:10px;fill:rgb(255,255,255);text-anchor:start;text-align:left;"> wang </text><text x="400" y="30" style="font-size:20px;fill:rgb(255,255,255);text-anchor:middle;text-align:center;"> all dataset: quadratic </text><text x="400" y="42" style="font-size:8px;fill:rgb(200,200,200);text-anchor:middle;text-align:center;"> Normalized performance score (lower is better) </text></svg>