<svg xmlns="http://www.w3.org/2000/svg" viewBox="0 0 800 300"><rect x="0" y="0" width="800" height="300" ry="6" style="fill:rgb(30,30,30);stroke:none;fill-opacity:1;stroke-opacity:1;" /><path d="M 30 20 L 30 270" style="stroke:rgb(200,200,200);stroke-width:1" /><path d="M 30 270 L 780 270" style="stroke:rgb(200,200,200);stroke-width:1" /><path d="M 780 270 L 780 272" style="stroke:rgb(200,200,200);stroke-width:1" /><text x="780" y="282" style="font-size:10px;fill:rgb(200,200,200);text-anchor:middle;text-align:center;"> 0.01 </text><path d="M 630.77246 270 L 630.77246 272" style="stroke:rgb(200,200,200);stroke-width:1" /><text x="630.77246" y="282" style="font-size:10px;fill:rgb(200,200,200);text-anchor:middle;text-align:center;"> 0.025 </text><path d="M 517.8862 270 L 517.8862 272" style="stroke:rgb(200,200,200);stroke-width:1" /><text x="517.8862" y="282" style="font-size:10px;fill:rgb(200,200,200);text-anchor:middle;text-align:center;"> 0.05 </text><path d="M 451.85202 270 L 451.85202 272" style="stroke:rgb(200,200,200);stroke-width:1" /><text x="451.85202" y="282" style="font-size:10px;fill:rgb(200,200,200);text-anchor:middle;text-align:center;"> 0.075 </text><path d="M 405 270 L 405 272" style="stroke:rgb(200,200,200);stroke-width:1" /><text x="405" y="282" style="font-size:10px;fill:rgb(200,200,200);text-anchor:middle;text-align:center;"> 0.1 </text><path d="M 338.96576 270 L 338.96576 272" style="stroke:rgb(200,200,200);stroke-width:1" /><text x="338.96576" y="282" style="font-size:10px;fill:rgb(200,200,200);text-anchor:middle;text-align:center;"> 0.15 </text><path d="M 292.11377 270 L 292.11377 272" style="stroke:rgb(200,200,200);stroke-width:1" /><text x="292.11377" y="282" style="font-size:10px;fill:rgb(200,200,200);text-anchor:middle;text-align:center;"> 0.2 </text><path d="M 255.7725 270 L 255.7725 272" style="stroke:rgb(200,200,200);stroke-width:1" /><text x="255.7725" y="282" style="font-size:10px;fill:rgb(200,200,200);text-anchor:middle;text-align:center;"> 0.25 </text><path d="M 142.88626 270 L 142.88626 272" style="stroke:rgb(200,200,200);stroke-width:1" /><text x="142.88626" y="282" style="font-size:10px;fill:rgb(200,200,200);text-anchor:middle;text-align:center;"> 0.5 </text><path d="M 30 270 L 30 272" style="stroke:rgb(200,200,200);stroke-width:1" /><text x="30" y="282" style="font-size:10px;fill:rgb(200,200,200);text-anchor:middle;text-align:center;"> 1 </text><path d="M 28 270 L 30 270" style="stroke:rgb(200,200,200);stroke-width:1" /><text x="26" y="274" style="font-size:10px;fill:rgb(200,200,200);text-anchor:end;text-align:right;"> 0 </text><path d="M 28 207.5 L 30 207.5" style="stroke:rgb(200,200,200);stroke-width:1" /><text x="26" y="211.5" style="font-size:10px;fill:rgb(200,200,200);text-anchor:end;text-align:right;"> 0.25 </text><path d="M 28 145 L 30 145" style="stroke:rgb(200,200,200);stroke-width:1" /><text x="26" y="149" style="font-size:10px;fill:rgb(200,200,200);text-anchor:end;text-align:right;"> 0.5 </text><path d="M 28 82.5 L 30 82.5" style="stroke:rgb(200,200,200);stroke-width:1" /><text x="26" y="86.5" style="font-size:10px;fill:rgb(200,200,200);text-anchor:end;text-align:right;"> 0.75 </text><path d="M 28 20 L 30 20" style="stroke:rgb(200,200,200);stroke-width:1" /><text x="26" y="24" style="font-size:10px;fill:rgb(200,200,200);text-anchor:end;text-align:right;"> 1 </text><text x="400" y="294" style="font-size:10px;fill:rgb(200,200,200);text-anchor:middle;text-align:center;"> Tolerance </text><circle cx="780" cy="99.2825" r="2" style="fill:rgb(128,214,87);stroke:none;fill-opacity:1;stroke-opacity:1;" /><path d="M 780 99.2825 L 630.77246 160.41" style="stroke:rgb(128,214,87);stroke-width:1" /><circle cx="630.77246" cy="160.41" r="2" style="fill:rgb(128,214,87);stroke:none;fill-opacity:1;stroke-opacity:1;" /><path d="M 630.77246 160.41 L 517.8862 194.02249" style="stroke:rgb(128,214,87);stroke-width:1" /><circle cx="517.8862" cy="194.02249" r="2" style="fill:rgb(128,214,87);stroke:none;fill-opacity:1;stroke-opacity:1;" /><path d="M 517.8862 194.02249 L 451.85202 209.1275" style="stroke:rgb(128,214,87);stroke-width:1" /><circle cx="451.85202" cy="209.1275" r="2" style="fill:rgb(128,214,87);stroke:none;fill-opacity:1;stroke-opacity:1;" /><path d="M 451.85202 209.1275 L 405 220.185" style="stroke:rgb(128,214,87);stroke-width:1" /><circle cx="405" cy="220.185" r="2" style="fill:rgb(128,214,87);stroke:none;fill-opacity:1;stroke-opacity:1;" /><path d="M 405 220.185 L 338.96576 232.3925" style="stroke:rgb(128,214,87);stroke-width:1" /><circle cx="338.96576" cy="232.3925" r="2" style="fill:rgb(128,214,87);stroke:none;fill-opacity:1;stroke-opacity:1;" /><path d="M 338.96576 232.3925 L 292.11377 239.855" style="stroke:rgb(128,214,87);stroke-width:1" /><circle cx="292.11377" cy="239.855" r="2" style="fill:rgb(128,214,87);stroke:none;fill-opacity:1;stroke-opacity:1;" /><path d="M 292.11377 239.855 L 255.7725 244.47" style="stroke:rgb(128,214,87);stroke-width:1" /><circle cx="255.7725" cy="244.47" r="2" style="fill:rgb(128,214,87);stroke:none;fill-opacity:1;stroke-opacity:1;" /><path d="M 255.7725 244.47 L 142.88626 254.125" style="stroke:rgb(128,214,87);stroke-width:1" /><circle cx="142.88626" cy="254.125" r="2" style="fill:rgb(128,214,87);stroke:none;fill-opacity:1;stroke-opacity:1;" /><path d="M 142.88626 254.125 L 30 259.76" style="stroke:rgb(128,214,87);stroke-width:1" /><circle cx="30" cy="259.76" r="2" style="fill:rgb(128,214,87);stroke:none;fill-opacity:1;stroke-opacity:1;" /><circle cx="780" cy="130.77" r="2" style="fill:rgb(255,238,101);stroke:none;fill-opacity:1;stroke-opacity:1;" /><path d="M 780 130.77 L 630.77246 180.2675" style="stroke:rgb(255,238,101);stroke-width:1" /><circle cx="630.77246" cy="180.2675" r="2" style="fill:rgb(255,238,101);stroke:none;fill-opacity:1;stroke-opacity:1;" /><path d="M 630.77246 180.2675 L 517.8862 204.9075" style="stroke:rgb(255,238,101);stroke-width:1" /><circle cx="517.8862" cy="204.9075" r="2" style="fill:rgb(255,238,101);stroke:none;fill-opacity:1;stroke-opacity:1;" /><path d="M 517.8862 204.9075 L 451.85202 216.7" style="stroke:rgb(255,238,101);stroke-width:1" /><circle cx="451.85202" cy="216.7" r="2" style="fill:rgb(255,238,101);stroke:none;fill-opacity:1;stroke-opacity:1;" /><path d="M 451.85202 216.7 L 405 224.4875" style="stroke:rgb(255,238,101);stroke-width:1" /><circle cx="405" cy="224.4875" r="2" style="fill:rgb(255,238,101);stroke:none;fill-opacity:1;stroke-opacity:1;" /><path d="M 405 224.4875 L 338.96576 234.1425" style="stroke:rgb(255,238,101);stroke-width:1" /><circle cx="338.96576" cy="234.1425" r="2" style="fill:rgb(255,238,101);stroke:none;fill-opacity:1;stroke-opacity:1;" /><path d="M 338.96576 234.1425 L 292.11377 239.3175" style="stroke:rgb(255,238,101);stroke-width:1" /><circle cx="292.11377" cy="239.3175" r="2" style="fill:rgb(255,238,101);stroke:none;fill-opacity:1;stroke-opacity:1;" /><path d="M 292.11377 239.3175 L 255.7725 243.1925" style="stroke:rgb(255,238,101);stroke-width:1" /><circle cx="255.7725" cy="243.1925" r="2" style="fill:rgb(255,238,101);stroke:none;fill-opacity:1;stroke-opacity:1;" /><path d="M 255.7725 243.1925 L 142.88626 252.63" style="stroke:rgb(255,238,101);stroke-width:1" /><circle cx="142.88626" cy="252.63" r="2" style="fill:rgb(255,238,101);stroke:none;fill-opacity:1;stroke-opacity:1;" /><path d="M 142.88626 252.63 L 30 258.675" style="stroke:rgb(255,238,101);stroke-width:1" /><circle cx="30" cy="258.675" r="2" style="fill:rgb(255,238,101);stroke:none;fill-opacity:1;stroke-opacity:1;" /><circle cx="780" cy="126.19501" r="2" style="fill:rgb(255,181,90);stroke:none;fill-opacity:1;stroke-opacity:1;" /><path d="M 780 126.19501 L 630.77246 171.965" style="stroke:rgb(255,181,90);stroke-width:1" /><circle cx="630.77246" cy="171.965" r="2" style="fill:rgb(255,181,90);stroke:none;fill-opacity:1;stroke-opacity:1;" /><path d="M 630.77246 171.965 L 517.8862 194.0275" style="stroke:rgb(255,181,90);stroke-width:1" /><circle cx="517.8862" cy="194.0275" r="2" style="fill:rgb(255,181,90);stroke:none;fill-opacity:1;stroke-opacity:1;" /><path d="M 517.8862 194.0275 L 451.85202 202.98999" style="stroke:rgb(255,181,90);stroke-width:1" /><circle cx="451.85202" cy="202.98999" r="2" style="fill:rgb(255,181,90);stroke:none;fill-opacity:1;stroke-opacity:1;" /><path d="M 451.85202 202.98999 L 405 208.225" style="stroke:rgb(255,181,90);stroke-width:1" /><circle cx="405" cy="208.225" r="2" style="fill:rgb(255,181,90);stroke:none;fill-opacity:1;stroke-opacity:1;" /><path d="M 405 208.225 L 338.96576 212.3025" style="stroke:rgb(255,181,90);stroke-width:1" /><circle cx="338.96576" cy="212.3025" r="2" style="fill:rgb(255,181,90);stroke:none;fill-opacity:1;stroke-opacity:1;" /><path d="M 338.96576 212.3025 L 292.11377 212.955" style="stroke:rgb(255,181,90);stroke-width:1" /><circle cx="292.11377" cy="212.955" r="2" style="fill:rgb(255,181,90);stroke:none;fill-opacity:1;stroke-opacity:1;" /><path d="M 292.11377 212.955 L 255.7725 210.3125" style="stroke:rgb(255,181,90);stroke-width:1" /><circle cx="255.7725" cy="210.3125" r="2" style="fill:rgb(255,181,90);stroke:none;fill-opacity:1;stroke-opacity:1;" /><path d="M 255.7725 210.3125 L 142.88626 225.5475" style="stroke:rgb(255,181,90);stroke-width:1" /><circle cx="142.88626" cy="225.5475" r="2" style="fill:rgb(255,181,90);stroke:none;fill-opacity:1;stroke-opacity:1;" /><path d="M 142.88626 225.5475 L 30 236.9575" style="stroke:rgb(255,181,90);stroke-width:1" /><circle cx="30" cy="236.9575" r="2" style="fill:rgb(255,181,90);stroke:none;fill-opacity:1;stroke-opacity:1;" /><circle cx="780" cy="245.505" r="2" style="fill:rgb(253,127,111);stroke:none;fill-opacity:1;stroke-opacity:1;" /><path d="M 780 245.505 L 630.77246 251.1675" style="stroke:rgb(253,127,111);stroke-width:1" /><circle cx="630.77246" cy="251.1675" r="2" style="fill:rgb(253,127,111);stroke:none;fill-opacity:1;stroke-opacity:1;" /><path d="M 630.77246 251.1675 L 517.8862 254.215" style="stroke:rgb(253,127,111);stroke-width:1" /><circle cx="517.8862" cy="254.215" r="2" style="fill:rgb(253,127,111);stroke:none;fill-opacity:1;stroke-opacity:1;" /><path d="M 517.8862 254.215 L 451.85202 255.6375" style="stroke:rgb(253,127,111);stroke-width:1" /><circle cx="451.85202" cy="255.6375" r="2" style="fill:rgb(253,127,111);stroke:none;fill-opacity:1;stroke-opacity:1;" /><path d="M 451.85202 255.6375 L 405 256.435" style="stroke:rgb(253,127,111);stroke-width:1" /><circle cx="405" cy="256.435" r="2" style="fill:rgb(253,127,111);stroke:none;fill-opacity:1;stroke-opacity:1;" /><path d="M 405 256.435 L 338.96576 257.395" style="stroke:rgb(253,127,111);stroke-width:1" /><circle cx="338.96576" cy="257.395" r="2" style="fill:rgb(253,127,111);stroke:none;fill-opacity:1;stroke-opacity:1;" /><path d="M 338.96576 257.395 L 292.11377 257.9425" style="stroke:rgb(253,127,111);stroke-width:1" /><circle cx="292.11377" cy="257.9425" r="2" style="fill:rgb(253,127,111);stroke:none;fill-opacity:1;stroke-opacity:1;" /><path d="M 292.11377 257.9425 L 255.7725 258.415" style="stroke:rgb(253,127,111);stroke-width:1" /><circle cx="255.7725" cy="258.415" r="2" style="fill:rgb(253,127,111);stroke:none;fill-opacity:1;stroke-opacity:1;" /><path d="M 255.7725 258.415 L 142.88626 259.8375" style="stroke:rgb(253,127,111);stroke-width:1" /><circle cx="142.88626" cy="259.8375" r="2" style="fill:rgb(253,127,111);stroke:none;fill-opacity:1;stroke-opacity:1;" /><path d="M 142.88626 259.8375 L 30 261.2775" style="stroke:rgb(253,127,111);stroke-width:1" /><circle cx="30" cy="261.2775" r="2" style="fill:rgb(253,127,111);stroke:none;fill-opacity:1;stroke-opacity:1;" /><circle cx="780" cy="20" r="2" style="fill:rgb(50,125,209);stroke:none;fill-opacity:1;stroke-opacity:1;" /><path d="M 780 20 L 630.77246 81.442505" style="stroke:rgb(50,125,209);stroke-width:1" /><circle cx="630.77246" cy="81.442505" r="2" style="fill:rgb(50,125,209);stroke:none;fill-opacity:1;stroke-opacity:1;" /><path d="M 630.77246 81.442505 L 517.8862 116.41" style="stroke:rgb(50,125,209);stroke-width:1" /><circle cx="517.8862" cy="116.41" r="2" style="fill:rgb(50,125,209);stroke:none;fill-opacity:1;stroke-opacity:1;" /><path d="M 517.8862 116.41 L 451.85202 132.7275" style="stroke:rgb(50,125,209);stroke-width:1" /><circle cx="451.85202" cy="132.7275" r="2" style="fill:rgb(50,125,209);stroke:none;fill-opacity:1;stroke-opacity:1;" /><path d="M 451.85202 132.7275 L 405 144.56" style="stroke:rgb(50,125,209);stroke-width:1" /><circle cx="405" cy="144.56" r="2" style="fill:rgb(50,125,209);stroke:none;fill-opacity:1;stroke-opacity:1;" /><path d="M 405 144.56 L 338.96576 157.17749" style="stroke:rgb(50,125,209);stroke-width:1" /><circle cx="338.96576" cy="157.17749" r="2" style="fill:rgb(50,125,209);stroke:none;fill-opacity:1;stroke-opacity:1;" /><path d="M 338.96576 157.17749 L 292.11377 165.4325" style="stroke:rgb(50,125,209);stroke-width:1" /><circle cx="292.11377" cy="165.4325" r="2" style="fill:rgb(50,125,209);stroke:none;fill-opacity:1;stroke-opacity:1;" /><path d="M 292.11377 165.4325 L 255.7725 171.905" style="stroke:rgb(50,125,209);stroke-width:1" /><circle cx="255.7725" cy="171.905" r="2" style="fill:rgb(50,125,209);stroke:none;fill-opacity:1;stroke-opacity:1;" /><path d="M 255.7725 171.905 L 142.88626 187.54001" style="stroke:rgb(50,125,209);stroke-width:1" /><circle cx="142.88626" cy="187.54001" r="2" style="fill:rgb(50,125,209);stroke:none;fill-opacity:1;stroke-opacity:1;" /><path d="M 142.88626 187.54001 L 30 200.35251" style="stroke:rgb(50,125,209);stroke-width:1" /><circle cx="30" cy="200.35251" r="2" style="fill:rgb(50,125,209);stroke:none;fill-opacity:1;stroke-opacity:1;" /><circle cx="780" cy="243.255" r="2" style="fill:rgb(253,204,229);stroke:none;fill-opacity:1;stroke-opacity:1;" /><path d="M 780 243.255 L 630.77246 250.18" style="stroke:rgb(253,204,229);stroke-width:1" /><circle cx="630.77246" cy="250.18" r="2" style="fill:rgb(253,204,229);stroke:none;fill-opacity:1;stroke-opacity:1;" /><path d="M 630.77246 250.18 L 517.8862 253.7675" style="stroke:rgb(253,204,229);stroke-width:1" /><circle cx="517.8862" cy="253.7675" r="2" style="fill:rgb(253,204,229);stroke:none;fill-opacity:1;stroke-opacity:1;" /><path d="M 517.8862 253.7675 L 451.85202 255.355" style="stroke:rgb(253,204,229);stroke-width:1" /><circle cx="451.85202" cy="255.355" r="2" style="fill:rgb(253,204,229);stroke:none;fill-opacity:1;stroke-opacity:1;" /><path d="M 451.85202 255.355 L 405 256.3025" style="stroke:rgb(253,204,229);stroke-width:1" /><circle cx="405" cy="256.3025" r="2" style="fill:rgb(253,204,229);stroke:none;fill-opacity:1;stroke-opacity:1;" /><path d="M 405 256.3025 L 338.96576 257.4875" style="stroke:rgb(253,204,229);stroke-width:1" /><circle cx="338.96576" cy="257.4875" r="2" style="fill:rgb(253,204,229);stroke:none;fill-opacity:1;stroke-opacity:1;" /><path d="M 338.96576 257.4875 L 292.11377 258.1825" style="stroke:rgb(253,204,229);stroke-width:1" /><circle cx="292.11377" cy="258.1825" r="2" style="fill:rgb(253,204,229);stroke:none;fill-opacity:1;stroke-opacity:1;" /><path d="M 292.11377 258.1825 L 255.7725 258.595" style="stroke:rgb(253,204,229);stroke-width:1" /><circle cx="255.7725" cy="258.595" r="2" style="fill:rgb(253,204,229);stroke:none;fill-opacity:1;stroke-opacity:1;" /><path d="M 255.7725 258.595 L 142.88626 260.215" style="stroke:rgb(253,204,229);stroke-width:1" /><circle cx="142.88626" cy="260.215" r="2" style="fill:rgb(253,204,229);stroke:none;fill-opacity:1;stroke-opacity:1;" /><path d="M 142.88626 260.215 L 30 261.615" style="stroke:rgb(253,204,229);stroke-width:1" /><circle cx="30" cy="261.615" r="2" style="fill:rgb(253,204,229);stroke:none;fill-opacity:1;stroke-opacity:1;" /><circle cx="780" cy="251.27" r="2" style="fill:rgb(199,126,190);stroke:none;fill-opacity:1;stroke-opacity:1;" /><path d="M 780 251.27 L 630.77246 255.2625" style="stroke:rgb(199,126,190);stroke-width:1" /><circle cx="630.77246" cy="255.2625" r="2" style="fill:rgb(199,126,190);stroke:none;fill-opacity:1;stroke-opacity:1;" /><path d="M 630.77246 255.2625 L 517.8862 257.35" style="stroke:rgb(199,126,190);stroke-width:1" /><circle cx="517.8862" cy="257.35" r="2" style="fill:rgb(199,126,190);stroke:none;fill-opacity:1;stroke-opacity:1;" /><path d="M 517.8862 257.35 L 451.85202 258.3675" style="stroke:rgb(199,126,190);stroke-width:1" /><circle cx="451.85202" cy="258.3675" r="2" style="fill:rgb(199,126,190);stroke:none;fill-opacity:1;stroke-opacity:1;" /><path d="M 451.85202 258.3675 L 405 259.0425" style="stroke:rgb(199,126,190);stroke-width:1" /><circle cx="405" cy="259.0425" r="2" style="fill:rgb(199,126,190);stroke:none;fill-opacity:1;stroke-opacity:1;" /><path d="M 405 259.0425 L 338.96576 259.9275" style="stroke:rgb(199,126,190);stroke-width:1" /><circle cx="338.96576" cy="259.9275" r="2" style="fill:rgb(199,126,190);stroke:none;fill-opacity:1;stroke-opacity:1;" /><path d="M 338.96576 259.9275 L 292.11377 260.4975" style="stroke:rgb(199,126,190);stroke-width:1" /><circle cx="292.11377" cy="260.4975" r="2" style="fill:rgb(199,126,190);stroke:none;fill-opacity:1;stroke-opacity:1;" /><path d="M 292.11377 260.4975 L 255.7725 260.9675" style="stroke:rgb(199,126,190);stroke-width:1" /><circle cx="255.7725" cy="260.9675" r="2" style="fill:rgb(199,126,190);stroke:none;fill-opacity:1;stroke-opacity:1;" /><path d="M 255.7725 260.9675 L 142.88626 262.045" style="stroke:rgb(199,126,190);stroke-width:1" /><circle cx="142.88626" cy="262.045" r="2" style="fill:rgb(199,126,190);stroke:none;fill-opacity:1;stroke-opacity:1;" /><path d="M 142.88626 262.045 L 30 262.6825" style="stroke:rgb(199,126,190);stroke-width:1" /><circle cx="30" cy="262.6825" r="2" style="fill:rgb(199,126,190);stroke:none;fill-opacity:1;stroke-opacity:1;" /><circle cx="780" cy="147.9425" r="2" style="fill:rgb(126,176,213);stroke:none;fill-opacity:1;stroke-opacity:1;" /><path d="M 780 147.9425 L 630.77246 174.98001" style="stroke:rgb(126,176,213);stroke-width:1" /><circle cx="630.77246" cy="174.98001" r="2" style="fill:rgb(126,176,213);stroke:none;fill-opacity:1;stroke-opacity:1;" /><path d="M 630.77246 174.98001 L 517.8862 190.14749" style="stroke:rgb(126,176,213);stroke-width:1" /><circle cx="517.8862" cy="190.14749" r="2" style="fill:rgb(126,176,213);stroke:none;fill-opacity:1;stroke-opacity:1;" /><path d="M 517.8862 190.14749 L 451.85202 197.30249" style="stroke:rgb(126,176,213);stroke-width:1" /><circle cx="451.85202" cy="197.30249" r="2" style="fill:rgb(126,176,213);stroke:none;fill-opacity:1;stroke-opacity:1;" /><path d="M 451.85202 197.30249 L 405 202.8875" style="stroke:rgb(126,176,213);stroke-width:1" /><circle cx="405" cy="202.8875" r="2" style="fill:rgb(126,176,213);stroke:none;fill-opacity:1;stroke-opacity:1;" /><path d="M 405 202.8875 L 338.96576 208.7775" style="stroke:rgb(126,176,213);stroke-width:1" /><circle cx="338.96576" cy="208.7775" r="2" style="fill:rgb(126,176,213);stroke:none;fill-opacity:1;stroke-opacity:1;" /><path d="M 338.96576 208.7775 L 292.11377 213.14749" style="stroke:rgb(126,176,213);stroke-width:1" /><circle cx="292.11377" cy="213.14749" r="2" style="fill:rgb(126,176,213);stroke:none;fill-opacity:1;stroke-opacity:1;" /><path d="M 292.11377 213.14749 L 255.7725 215.945" style="stroke:rgb(126,176,213);stroke-width:1" /><circle cx="255.7725" cy="215.945" r="2" style="fill:rgb(126,176,213);stroke:none;fill-opacity:1;stroke-opacity:1;" /><path d="M 255.7725 215.945 L 142.88626 223.7775" style="stroke:rgb(126,176,213);stroke-width:1" /><circle cx="142.88626" cy="223.7775" r="2" style="fill:rgb(126,176,213);stroke:none;fill-opacity:1;stroke-opacity:1;" /><path d="M 142.88626 223.7775 L 30 228.2775" style="stroke:rgb(126,176,213);stroke-width:1" /><circle cx="30" cy="228.2775" r="2" style="fill:rgb(126,176,213);stroke:none;fill-opacity:1;stroke-opacity:1;" /><circle cx="780" cy="147.2425" r="2" style="fill:rgb(119,211,179);stroke:none;fill-opacity:1;stroke-opacity:1;" /><path d="M 780 147.2425 L 630.77246 175.87" style="stroke:rgb(119,211,179);stroke-width:1" /><circle cx="630.77246" cy="175.87" r="2" style="fill:rgb(119,211,179);stroke:none;fill-opacity:1;stroke-opacity:1;" /><path d="M 630.77246 175.87 L 517.8862 192.66" style="stroke:rgb(119,211,179);stroke-width:1" /><circle cx="517.8862" cy="192.66" r="2" style="fill:rgb(119,211,179);stroke:none;fill-opacity:1;stroke-opacity:1;" /><path d="M 517.8862 192.66 L 451.85202 201.695" style="stroke:rgb(119,211,179);stroke-width:1" /><circle cx="451.85202" cy="201.695" r="2" style="fill:rgb(119,211,179);stroke:none;fill-opacity:1;stroke-opacity:1;" /><path d="M 451.85202 201.695 L 405 208.95" style="stroke:rgb(119,211,179);stroke-width:1" /><circle cx="405" cy="208.95" r="2" style="fill:rgb(119,211,179);stroke:none;fill-opacity:1;stroke-opacity:1;" /><path d="M 405 208.95 L 338.96576 218.6" style="stroke:rgb(119,211,179);stroke-width:1" /><circle cx="338.96576" cy="218.6" r="2" style="fill:rgb(119,211,179);stroke:none;fill-opacity:1;stroke-opacity:1;" /><path d="M 338.96576 218.6 L 292.11377 225.6325" style="stroke:rgb(119,211,179);stroke-width:1" /><circle cx="292.11377" cy="225.6325" r="2" style="fill:rgb(119,211,179);stroke:none;fill-opacity:1;stroke-opacity:1;" /><path d="M 292.11377 225.6325 L 255.7725 231.6375" style="stroke:rgb(119,211,179);stroke-width:1" /><circle cx="255.7725" cy="231.6375" r="2" style="fill:rgb(119,211,179);stroke:none;fill-opacity:1;stroke-opacity:1;" /><path d="M 255.7725 231.6375 L 142.88626 247.5875" style="stroke:rgb(119,211,179);stroke-width:1" /><circle cx="142.88626" cy="247.5875" r="2" style="fill:rgb(119,211,179);stroke:none;fill-opacity:1;stroke-opacity:1;" /><path d="M 142.88626 247.5875 L 30 256.6" style="stroke:rgb(119,211,179);stroke-width:1" /><circle cx="30" cy="256.6" r="2" style="fill:rgb(119,211,179);stroke:none;fill-opacity:1;stroke-opacity:1;" /><rect x="676" y="16" width="80" height="196" ry="4" style="fill:rgb(30,30,30);stroke:none;fill-opacity:0.8;stroke-opacity:1;" /><rect x="680" y="20" width="20" height="20" ry="2" style="fill:rgb(253,127,111);stroke:none;fill-opacity:1;stroke-opacity:1;" /><text x="705" y="33" style="font-size:10px;fill:rgb(255,255,255);text-anchor:start;text-align:left;"> fwd-diff </text><rect x="680" y="41" width="20" height="20" ry="2" style="fill:rgb(255,181,90);stroke:none;fill-opacity:1;stroke-opacity:1;" /><text x="705" y="54" style="font-size:10px;fill:rgb(255,255,255);text-anchor:start;text-align:left;"> hain </text><rect x="680" y="62" width="20" height="20" ry="2" style="fill:rgb(50,125,209);stroke:none;fill-opacity:1;stroke-opacity:1;" /><text x="705" y="75" style="font-size:10px;fill:rgb(255,255,255);text-anchor:start;text-align:left;"> levien </text><rect x="680" y="83" width="20" height="20" ry="2" style="fill:rgb(119,211,179);stroke:none;fill-opacity:1;stroke-opacity:1;" /><text x="705" y="96" style="font-size:10px;fill:rgb(255,255,255);text-anchor:start;text-align:left;"> levien-linear </text><rect x="680" y="104" width="20" height="20" ry="2" style="fill:rgb(126,176,213);stroke:none;fill-opacity:1;stroke-opacity:1;" /><text x="705" y="117" style="font-size:10px;fill:rgb(255,255,255);text-anchor:start;text-align:left;"> levien-simd </text><rect x="680" y="125" width="20" height="20" ry="2" style="fill:rgb(128,214,87);stroke:none;fill-opacity:1;stroke-opacity:1;" /><text x="705" y="138" style="font-size:10px;fill:rgb(255,255,255);text-anchor:start;text-align:left;"> linear </text><rect x="680" y="146" width="20" height="20" ry="2" style="fill:rgb(255,238,101);stroke:none;fill-opacity:1;stroke-opacity:1;" /><text x="705" y="159" style="font-size:10px;fill:rgb(255,255,255);text-anchor:start;text-align:left;"> recursive </text><rect x="680" y="167" width="20" height="20" ry="2" style="fill:rgb(253,204,229);stroke:none;fill-opacity:1;stroke-opacity:1;" /><text x="705" y="180" style="font-size:10px;fill:rgb(255,255,255);text-anchor:start;text-align:left;"> wang </text><rect x="680" y="188" width="20" height="20" ry="2" style="fill:rgb(199,126,190);stroke:none;fill-opacity:1;stroke-opacity:1;" /><text x="705" y="201" style="font-size:10px;fill:rgb(255,255,255);text-anchor:start;text-align:left;"> wang-simd </text><text x="400" y="30" style="font-size:20px;fill:rgb(255,255,255);text-anchor:middle;text-align:center;"> tiger dataset: cubic </text><text x="400" y="42" style="font-size:8px;fill:rgb(200,200,200);text-anchor:middle;text-align:center;"> Normalized performance score (lower is better) </text></svg>