<svg xmlns="http://www.w3.org/2000/svg" viewBox="0 0 800 300"><rect x="0" y="0" width="800" height="300" ry="6" style="fill:rgb(30,30,30);stroke:none;fill-opacity:1;stroke-opacity:1;" /><path d="M 30 20 L 30 270" style="stroke:rgb(200,200,200);stroke-width:1" /><path d="M 30 270 L 780 270" style="stroke:rgb(200,200,200);stroke-width:1" /><path d="M 780 270 L 780 272" style="stroke:rgb(200,200,200);stroke-width:1" /><text x="780" y="282" style="font-size:10px;fill:rgb(200,200,200);text-anchor:middle;text-align:center;"> 0.01 </text><path d="M 630.77246 270 L 630.77246 272" style="stroke:rgb(200,200,200);stroke-width:1" /><text x="630.77246" y="282" style="font-size:10px;fill:rgb(200,200,200);text-anchor:middle;text-align:center;"> 0.025 </text><path d="M 517.8862 270 L 517.8862 272" style="stroke:rgb(200,200,200);stroke-width:1" /><text x="517.8862" y="282" style="font-size:10px;fill:rgb(200,200,200);text-anchor:middle;text-align:center;"> 0.05 </text><path d="M 451.85202 270 L 451.85202 272" style="stroke:rgb(200,200,200);stroke-width:1" /><text x="451.85202" y="282" style="font-size:10px;fill:rgb(200,200,200);text-anchor:middle;text-align:center;"> 0.075 </text><path d="M 405 270 L 405 272" style="stroke:rgb(200,200,200);stroke-width:1" /><text x="405" y="282" style="font-size:10px;fill:rgb(200,200,200);text-anchor:middle;text-align:center;"> 0.1 </text><path d="M 338.96576 270 L 338.96576 272" style="stroke:rgb(200,200,200);stroke-width:1" /><text x="338.96576" y="282" style="font-size:10px;fill:rgb(200,200,200);text-anchor:middle;text-align:center;"> 0.15 </text><path d="M 292.11377 270 L 292.11377 272" style="stroke:rgb(200,200,200);stroke-width:1" /><text x="292.11377" y="282" style="font-size:10px;fill:rgb(200,200,200);text-anchor:middle;text-align:center;"> 0.2 </text><path d="M 255.7725 270 L 255.7725 272" style="stroke:rgb(200,200,200);stroke-width:1" /><text x="255.7725" y="282" style="font-size:10px;fill:rgb(200,200,200);text-anchor:middle;text-align:center;"> 0.25 </text><path d="M 142.88626 270 L 142.88626 272" style="stroke:rgb(200,200,200);stroke-width:1" /><text x="142.88626" y="282" style="font-size:10px;fill:rgb(200,200,200);text-anchor:middle;text-align:center;"> 0.5 </text><path d="M 30 270 L 30 272" style="stroke:rgb(200,200,200);stroke-width:1" /><text x="30" y="282" style="font-size:10px;fill:rgb(200,200,200);text-anchor:middle;text-align:center;"> 1 </text><path d="M 28 270 L 30 270" style="stroke:rgb(200,200,200);stroke-width:1" /><text x="26" y="274" style="font-size:10px;fill:rgb(200,200,200);text-anchor:end;text-align:right;"> 0 </text><path d="M 28 207.5 L 30 207.5" style="stroke:rgb(200,200,200);stroke-width:1" /><text x="26" y="211.5" style="font-size:10px;fill:rgb(200,200,200);text-anchor:end;text-align:right;"> 0.25 </text><path d="M 28 145 L 30 145" style="stroke:rgb(200,200,200);stroke-width:1" /><text x="26" y="149" style="font-size:10px;fill:rgb(200,200,200);text-anchor:end;text-align:right;"> 0.5 </text><path d="M 28 82.5 L 30 82.5" style="stroke:rgb(200,200,200);stroke-width:1" /><text x="26" y="86.5" style="font-size:10px;fill:rgb(200,200,200);text-anchor:end;text-align:right;"> 0.75 </text><path d="M 28 20 L 30 20" style="stroke:rgb(200,200,200);stroke-width:1" /><text x="26" y="24" style="font-size:10px;fill:rgb(200,200,200);text-anchor:end;text-align:right;"> 1 </text><text x="400" y="294" style="font-size:10px;fill:rgb(200,200,200);text-anchor:middle;text-align:center;"> Tolerance </text><circle cx="780" cy="253.8825" r="2" style="fill:rgb(119,211,179);stroke:none;fill-opacity:1;stroke-opacity:1;" /><path d="M 780 253.8825 L 630.77246 257.765" style="stroke:rgb(119,211,179);stroke-width:1" /><circle cx="630.77246" cy="257.765" r="2" style="fill:rgb(119,211,179);stroke:none;fill-opacity:1;stroke-opacity:1;" /><path d="M 630.77246 257.765 L 517.8862 259.97" style="stroke:rgb(119,211,179);stroke-width:1" /><circle cx="517.8862" cy="259.97" r="2" style="fill:rgb(119,211,179);stroke:none;fill-opacity:1;stroke-opacity:1;" /><path d="M 517.8862 259.97 L 451.85202 261.05" style="stroke:rgb(119,211,179);stroke-width:1" /><circle cx="451.85202" cy="261.05" r="2" style="fill:rgb(119,211,179);stroke:none;fill-opacity:1;stroke-opacity:1;" /><path d="M 451.85202 261.05 L 405 261.705" style="stroke:rgb(119,211,179);stroke-width:1" /><circle cx="405" cy="261.705" r="2" style="fill:rgb(119,211,179);stroke:none;fill-opacity:1;stroke-opacity:1;" /><path d="M 405 261.705 L 338.96576 262.5675" style="stroke:rgb(119,211,179);stroke-width:1" /><circle cx="338.96576" cy="262.5675" r="2" style="fill:rgb(119,211,179);stroke:none;fill-opacity:1;stroke-opacity:1;" /><path d="M 338.96576 262.5675 L 292.11377 263.075" style="stroke:rgb(119,211,179);stroke-width:1" /><circle cx="292.11377" cy="263.075" r="2" style="fill:rgb(119,211,179);stroke:none;fill-opacity:1;stroke-opacity:1;" /><path d="M 292.11377 263.075 L 255.7725 263.495" style="stroke:rgb(119,211,179);stroke-width:1" /><circle cx="255.7725" cy="263.495" r="2" style="fill:rgb(119,211,179);stroke:none;fill-opacity:1;stroke-opacity:1;" /><path d="M 255.7725 263.495 L 142.88626 264.5875" style="stroke:rgb(119,211,179);stroke-width:1" /><circle cx="142.88626" cy="264.5875" r="2" style="fill:rgb(119,211,179);stroke:none;fill-opacity:1;stroke-opacity:1;" /><path d="M 142.88626 264.5875 L 30 265.4225" style="stroke:rgb(119,211,179);stroke-width:1" /><circle cx="30" cy="265.4225" r="2" style="fill:rgb(119,211,179);stroke:none;fill-opacity:1;stroke-opacity:1;" /><circle cx="780" cy="253.8075" r="2" style="fill:rgb(126,176,213);stroke:none;fill-opacity:1;stroke-opacity:1;" /><path d="M 780 253.8075 L 630.77246 257.365" style="stroke:rgb(126,176,213);stroke-width:1" /><circle cx="630.77246" cy="257.365" r="2" style="fill:rgb(126,176,213);stroke:none;fill-opacity:1;stroke-opacity:1;" /><path d="M 630.77246 257.365 L 517.8862 259.2525" style="stroke:rgb(126,176,213);stroke-width:1" /><circle cx="517.8862" cy="259.2525" r="2" style="fill:rgb(126,176,213);stroke:none;fill-opacity:1;stroke-opacity:1;" /><path d="M 517.8862 259.2525 L 451.85202 260.1" style="stroke:rgb(126,176,213);stroke-width:1" /><circle cx="451.85202" cy="260.1" r="2" style="fill:rgb(126,176,213);stroke:none;fill-opacity:1;stroke-opacity:1;" /><path d="M 451.85202 260.1 L 405 260.6125" style="stroke:rgb(126,176,213);stroke-width:1" /><circle cx="405" cy="260.6125" r="2" style="fill:rgb(126,176,213);stroke:none;fill-opacity:1;stroke-opacity:1;" /><path d="M 405 260.6125 L 338.96576 261.3" style="stroke:rgb(126,176,213);stroke-width:1" /><circle cx="338.96576" cy="261.3" r="2" style="fill:rgb(126,176,213);stroke:none;fill-opacity:1;stroke-opacity:1;" /><path d="M 338.96576 261.3 L 292.11377 261.715" style="stroke:rgb(126,176,213);stroke-width:1" /><circle cx="292.11377" cy="261.715" r="2" style="fill:rgb(126,176,213);stroke:none;fill-opacity:1;stroke-opacity:1;" /><path d="M 292.11377 261.715 L 255.7725 262.025" style="stroke:rgb(126,176,213);stroke-width:1" /><circle cx="255.7725" cy="262.025" r="2" style="fill:rgb(126,176,213);stroke:none;fill-opacity:1;stroke-opacity:1;" /><path d="M 255.7725 262.025 L 142.88626 262.82" style="stroke:rgb(126,176,213);stroke-width:1" /><circle cx="142.88626" cy="262.82" r="2" style="fill:rgb(126,176,213);stroke:none;fill-opacity:1;stroke-opacity:1;" /><path d="M 142.88626 262.82 L 30 263.575" style="stroke:rgb(126,176,213);stroke-width:1" /><circle cx="30" cy="263.575" r="2" style="fill:rgb(126,176,213);stroke:none;fill-opacity:1;stroke-opacity:1;" /><circle cx="780" cy="185.5" r="2" style="fill:rgb(128,214,87);stroke:none;fill-opacity:1;stroke-opacity:1;" /><path d="M 780 185.5 L 630.77246 216.1525" style="stroke:rgb(128,214,87);stroke-width:1" /><circle cx="630.77246" cy="216.1525" r="2" style="fill:rgb(128,214,87);stroke:none;fill-opacity:1;stroke-opacity:1;" /><path d="M 630.77246 216.1525 L 517.8862 231.06" style="stroke:rgb(128,214,87);stroke-width:1" /><circle cx="517.8862" cy="231.06" r="2" style="fill:rgb(128,214,87);stroke:none;fill-opacity:1;stroke-opacity:1;" /><path d="M 517.8862 231.06 L 451.85202 238.18" style="stroke:rgb(128,214,87);stroke-width:1" /><circle cx="451.85202" cy="238.18" r="2" style="fill:rgb(128,214,87);stroke:none;fill-opacity:1;stroke-opacity:1;" /><path d="M 451.85202 238.18 L 405 242.1325" style="stroke:rgb(128,214,87);stroke-width:1" /><circle cx="405" cy="242.1325" r="2" style="fill:rgb(128,214,87);stroke:none;fill-opacity:1;stroke-opacity:1;" /><path d="M 405 242.1325 L 338.96576 246.775" style="stroke:rgb(128,214,87);stroke-width:1" /><circle cx="338.96576" cy="246.775" r="2" style="fill:rgb(128,214,87);stroke:none;fill-opacity:1;stroke-opacity:1;" /><path d="M 338.96576 246.775 L 292.11377 249.885" style="stroke:rgb(128,214,87);stroke-width:1" /><circle cx="292.11377" cy="249.885" r="2" style="fill:rgb(128,214,87);stroke:none;fill-opacity:1;stroke-opacity:1;" /><path d="M 292.11377 249.885 L 255.7725 252.175" style="stroke:rgb(128,214,87);stroke-width:1" /><circle cx="255.7725" cy="252.175" r="2" style="fill:rgb(128,214,87);stroke:none;fill-opacity:1;stroke-opacity:1;" /><path d="M 255.7725 252.175 L 142.88626 257.49" style="stroke:rgb(128,214,87);stroke-width:1" /><circle cx="142.88626" cy="257.49" r="2" style="fill:rgb(128,214,87);stroke:none;fill-opacity:1;stroke-opacity:1;" /><path d="M 142.88626 257.49 L 30 261.1625" style="stroke:rgb(128,214,87);stroke-width:1" /><circle cx="30" cy="261.1625" r="2" style="fill:rgb(128,214,87);stroke:none;fill-opacity:1;stroke-opacity:1;" /><circle cx="780" cy="163.4" r="2" style="fill:rgb(255,238,101);stroke:none;fill-opacity:1;stroke-opacity:1;" /><path d="M 780 163.4 L 630.77246 206.74" style="stroke:rgb(255,238,101);stroke-width:1" /><circle cx="630.77246" cy="206.74" r="2" style="fill:rgb(255,238,101);stroke:none;fill-opacity:1;stroke-opacity:1;" /><path d="M 630.77246 206.74 L 517.8862 221.2025" style="stroke:rgb(255,238,101);stroke-width:1" /><circle cx="517.8862" cy="221.2025" r="2" style="fill:rgb(255,238,101);stroke:none;fill-opacity:1;stroke-opacity:1;" /><path d="M 517.8862 221.2025 L 451.85202 231.89749" style="stroke:rgb(255,238,101);stroke-width:1" /><circle cx="451.85202" cy="231.89749" r="2" style="fill:rgb(255,238,101);stroke:none;fill-opacity:1;stroke-opacity:1;" /><path d="M 451.85202 231.89749 L 405 238.5825" style="stroke:rgb(255,238,101);stroke-width:1" /><circle cx="405" cy="238.5825" r="2" style="fill:rgb(255,238,101);stroke:none;fill-opacity:1;stroke-opacity:1;" /><path d="M 405 238.5825 L 338.96576 243.0725" style="stroke:rgb(255,238,101);stroke-width:1" /><circle cx="338.96576" cy="243.0725" r="2" style="fill:rgb(255,238,101);stroke:none;fill-opacity:1;stroke-opacity:1;" /><path d="M 338.96576 243.0725 L 292.11377 245.8375" style="stroke:rgb(255,238,101);stroke-width:1" /><circle cx="292.11377" cy="245.8375" r="2" style="fill:rgb(255,238,101);stroke:none;fill-opacity:1;stroke-opacity:1;" /><path d="M 292.11377 245.8375 L 255.7725 248.615" style="stroke:rgb(255,238,101);stroke-width:1" /><circle cx="255.7725" cy="248.615" r="2" style="fill:rgb(255,238,101);stroke:none;fill-opacity:1;stroke-opacity:1;" /><path d="M 255.7725 248.615 L 142.88626 256.0725" style="stroke:rgb(255,238,101);stroke-width:1" /><circle cx="142.88626" cy="256.0725" r="2" style="fill:rgb(255,238,101);stroke:none;fill-opacity:1;stroke-opacity:1;" /><path d="M 142.88626 256.0725 L 30 259.5625" style="stroke:rgb(255,238,101);stroke-width:1" /><circle cx="30" cy="259.5625" r="2" style="fill:rgb(255,238,101);stroke:none;fill-opacity:1;stroke-opacity:1;" /><circle cx="780" cy="20" r="2" style="fill:rgb(255,181,90);stroke:none;fill-opacity:1;stroke-opacity:1;" /><path d="M 780 20 L 630.77246 111.1375" style="stroke:rgb(255,181,90);stroke-width:1" /><circle cx="630.77246" cy="111.1375" r="2" style="fill:rgb(255,181,90);stroke:none;fill-opacity:1;stroke-opacity:1;" /><path d="M 630.77246 111.1375 L 517.8862 156.75" style="stroke:rgb(255,181,90);stroke-width:1" /><circle cx="517.8862" cy="156.75" r="2" style="fill:rgb(255,181,90);stroke:none;fill-opacity:1;stroke-opacity:1;" /><path d="M 517.8862 156.75 L 451.85202 177.0925" style="stroke:rgb(255,181,90);stroke-width:1" /><circle cx="451.85202" cy="177.0925" r="2" style="fill:rgb(255,181,90);stroke:none;fill-opacity:1;stroke-opacity:1;" /><path d="M 451.85202 177.0925 L 405 189.61499" style="stroke:rgb(255,181,90);stroke-width:1" /><circle cx="405" cy="189.61499" r="2" style="fill:rgb(255,181,90);stroke:none;fill-opacity:1;stroke-opacity:1;" /><path d="M 405 189.61499 L 338.96576 204.03" style="stroke:rgb(255,181,90);stroke-width:1" /><circle cx="338.96576" cy="204.03" r="2" style="fill:rgb(255,181,90);stroke:none;fill-opacity:1;stroke-opacity:1;" /><path d="M 338.96576 204.03 L 292.11377 212.8625" style="stroke:rgb(255,181,90);stroke-width:1" /><circle cx="292.11377" cy="212.8625" r="2" style="fill:rgb(255,181,90);stroke:none;fill-opacity:1;stroke-opacity:1;" /><path d="M 292.11377 212.8625 L 255.7725 218.7825" style="stroke:rgb(255,181,90);stroke-width:1" /><circle cx="255.7725" cy="218.7825" r="2" style="fill:rgb(255,181,90);stroke:none;fill-opacity:1;stroke-opacity:1;" /><path d="M 255.7725 218.7825 L 142.88626 233.3925" style="stroke:rgb(255,181,90);stroke-width:1" /><circle cx="142.88626" cy="233.3925" r="2" style="fill:rgb(255,181,90);stroke:none;fill-opacity:1;stroke-opacity:1;" /><path d="M 142.88626 233.3925 L 30 243.815" style="stroke:rgb(255,181,90);stroke-width:1" /><circle cx="30" cy="243.815" r="2" style="fill:rgb(255,181,90);stroke:none;fill-opacity:1;stroke-opacity:1;" /><circle cx="780" cy="255.6525" r="2" style="fill:rgb(253,127,111);stroke:none;fill-opacity:1;stroke-opacity:1;" /><path d="M 780 255.6525 L 630.77246 260.8775" style="stroke:rgb(253,127,111);stroke-width:1" /><circle cx="630.77246" cy="260.8775" r="2" style="fill:rgb(253,127,111);stroke:none;fill-opacity:1;stroke-opacity:1;" /><path d="M 630.77246 260.8775 L 517.8862 263.51" style="stroke:rgb(253,127,111);stroke-width:1" /><circle cx="517.8862" cy="263.51" r="2" style="fill:rgb(253,127,111);stroke:none;fill-opacity:1;stroke-opacity:1;" /><path d="M 517.8862 263.51 L 451.85202 264.62" style="stroke:rgb(253,127,111);stroke-width:1" /><circle cx="451.85202" cy="264.62" r="2" style="fill:rgb(253,127,111);stroke:none;fill-opacity:1;stroke-opacity:1;" /><path d="M 451.85202 264.62 L 405 265.2475" style="stroke:rgb(253,127,111);stroke-width:1" /><circle cx="405" cy="265.2475" r="2" style="fill:rgb(253,127,111);stroke:none;fill-opacity:1;stroke-opacity:1;" /><path d="M 405 265.2475 L 338.96576 265.9625" style="stroke:rgb(253,127,111);stroke-width:1" /><circle cx="338.96576" cy="265.9625" r="2" style="fill:rgb(253,127,111);stroke:none;fill-opacity:1;stroke-opacity:1;" /><path d="M 338.96576 265.9625 L 292.11377 266.3925" style="stroke:rgb(253,127,111);stroke-width:1" /><circle cx="292.11377" cy="266.3925" r="2" style="fill:rgb(253,127,111);stroke:none;fill-opacity:1;stroke-opacity:1;" /><path d="M 292.11377 266.3925 L 255.7725 266.69" style="stroke:rgb(253,127,111);stroke-width:1" /><circle cx="255.7725" cy="266.69" r="2" style="fill:rgb(253,127,111);stroke:none;fill-opacity:1;stroke-opacity:1;" /><path d="M 255.7725 266.69 L 142.88626 267.4475" style="stroke:rgb(253,127,111);stroke-width:1" /><circle cx="142.88626" cy="267.4475" r="2" style="fill:rgb(253,127,111);stroke:none;fill-opacity:1;stroke-opacity:1;" /><path d="M 142.88626 267.4475 L 30 268" style="stroke:rgb(253,127,111);stroke-width:1" /><circle cx="30" cy="268" r="2" style="fill:rgb(253,127,111);stroke:none;fill-opacity:1;stroke-opacity:1;" /><circle cx="780" cy="246.5475" r="2" style="fill:rgb(50,125,209);stroke:none;fill-opacity:1;stroke-opacity:1;" /><path d="M 780 246.5475 L 630.77246 252.54001" style="stroke:rgb(50,125,209);stroke-width:1" /><circle cx="630.77246" cy="252.54001" r="2" style="fill:rgb(50,125,209);stroke:none;fill-opacity:1;stroke-opacity:1;" /><path d="M 630.77246 252.54001 L 517.8862 255.555" style="stroke:rgb(50,125,209);stroke-width:1" /><circle cx="517.8862" cy="255.555" r="2" style="fill:rgb(50,125,209);stroke:none;fill-opacity:1;stroke-opacity:1;" /><path d="M 517.8862 255.555 L 451.85202 256.9575" style="stroke:rgb(50,125,209);stroke-width:1" /><circle cx="451.85202" cy="256.9575" r="2" style="fill:rgb(50,125,209);stroke:none;fill-opacity:1;stroke-opacity:1;" /><path d="M 451.85202 256.9575 L 405 257.825" style="stroke:rgb(50,125,209);stroke-width:1" /><circle cx="405" cy="257.825" r="2" style="fill:rgb(50,125,209);stroke:none;fill-opacity:1;stroke-opacity:1;" /><path d="M 405 257.825 L 338.96576 258.9225" style="stroke:rgb(50,125,209);stroke-width:1" /><circle cx="338.96576" cy="258.9225" r="2" style="fill:rgb(50,125,209);stroke:none;fill-opacity:1;stroke-opacity:1;" /><path d="M 338.96576 258.9225 L 292.11377 259.61" style="stroke:rgb(50,125,209);stroke-width:1" /><circle cx="292.11377" cy="259.61" r="2" style="fill:rgb(50,125,209);stroke:none;fill-opacity:1;stroke-opacity:1;" /><path d="M 292.11377 259.61 L 255.7725 260.0975" style="stroke:rgb(50,125,209);stroke-width:1" /><circle cx="255.7725" cy="260.0975" r="2" style="fill:rgb(50,125,209);stroke:none;fill-opacity:1;stroke-opacity:1;" /><path d="M 255.7725 260.0975 L 142.88626 261.3275" style="stroke:rgb(50,125,209);stroke-width:1" /><circle cx="142.88626" cy="261.3275" r="2" style="fill:rgb(50,125,209);stroke:none;fill-opacity:1;stroke-opacity:1;" /><path d="M 142.88626 261.3275 L 30 262.415" style="stroke:rgb(50,125,209);stroke-width:1" /><circle cx="30" cy="262.415" r="2" style="fill:rgb(50,125,209);stroke:none;fill-opacity:1;stroke-opacity:1;" /><circle cx="780" cy="263.425" r="2" style="fill:rgb(199,126,190);stroke:none;fill-opacity:1;stroke-opacity:1;" /><path d="M 780 263.425 L 630.77246 265.3275" style="stroke:rgb(199,126,190);stroke-width:1" /><circle cx="630.77246" cy="265.3275" r="2" style="fill:rgb(199,126,190);stroke:none;fill-opacity:1;stroke-opacity:1;" /><path d="M 630.77246 265.3275 L 517.8862 266.33" style="stroke:rgb(199,126,190);stroke-width:1" /><circle cx="517.8862" cy="266.33" r="2" style="fill:rgb(199,126,190);stroke:none;fill-opacity:1;stroke-opacity:1;" /><path d="M 517.8862 266.33 L 451.85202 266.7975" style="stroke:rgb(199,126,190);stroke-width:1" /><circle cx="451.85202" cy="266.7975" r="2" style="fill:rgb(199,126,190);stroke:none;fill-opacity:1;stroke-opacity:1;" /><path d="M 451.85202 266.7975 L 405 267.07" style="stroke:rgb(199,126,190);stroke-width:1" /><circle cx="405" cy="267.07" r="2" style="fill:rgb(199,126,190);stroke:none;fill-opacity:1;stroke-opacity:1;" /><path d="M 405 267.07 L 338.96576 267.425" style="stroke:rgb(199,126,190);stroke-width:1" /><circle cx="338.96576" cy="267.425" r="2" style="fill:rgb(199,126,190);stroke:none;fill-opacity:1;stroke-opacity:1;" /><path d="M 338.96576 267.425 L 292.11377 267.6775" style="stroke:rgb(199,126,190);stroke-width:1" /><circle cx="292.11377" cy="267.6775" r="2" style="fill:rgb(199,126,190);stroke:none;fill-opacity:1;stroke-opacity:1;" /><path d="M 292.11377 267.6775 L 255.7725 267.86" style="stroke:rgb(199,126,190);stroke-width:1" /><circle cx="255.7725" cy="267.86" r="2" style="fill:rgb(199,126,190);stroke:none;fill-opacity:1;stroke-opacity:1;" /><path d="M 255.7725 267.86 L 142.88626 268.325" style="stroke:rgb(199,126,190);stroke-width:1" /><circle cx="142.88626" cy="268.325" r="2" style="fill:rgb(199,126,190);stroke:none;fill-opacity:1;stroke-opacity:1;" /><path d="M 142.88626 268.325 L 30 268.7375" style="stroke:rgb(199,126,190);stroke-width:1" /><circle cx="30" cy="268.7375" r="2" style="fill:rgb(199,126,190);stroke:none;fill-opacity:1;stroke-opacity:1;" /><circle cx="780" cy="257.435" r="2" style="fill:rgb(253,204,229);stroke:none;fill-opacity:1;stroke-opacity:1;" /><path d="M 780 257.435 L 630.77246 261.62" style="stroke:rgb(253,204,229);stroke-width:1" /><circle cx="630.77246" cy="261.62" r="2" style="fill:rgb(253,204,229);stroke:none;fill-opacity:1;stroke-opacity:1;" /><path d="M 630.77246 261.62 L 517.8862 263.7275" style="stroke:rgb(253,204,229);stroke-width:1" /><circle cx="517.8862" cy="263.7275" r="2" style="fill:rgb(253,204,229);stroke:none;fill-opacity:1;stroke-opacity:1;" /><path d="M 517.8862 263.7275 L 451.85202 264.6475" style="stroke:rgb(253,204,229);stroke-width:1" /><circle cx="451.85202" cy="264.6475" r="2" style="fill:rgb(253,204,229);stroke:none;fill-opacity:1;stroke-opacity:1;" /><path d="M 451.85202 264.6475 L 405 265.215" style="stroke:rgb(253,204,229);stroke-width:1" /><circle cx="405" cy="265.215" r="2" style="fill:rgb(253,204,229);stroke:none;fill-opacity:1;stroke-opacity:1;" /><path d="M 405 265.215 L 338.96576 265.9075" style="stroke:rgb(253,204,229);stroke-width:1" /><circle cx="338.96576" cy="265.9075" r="2" style="fill:rgb(253,204,229);stroke:none;fill-opacity:1;stroke-opacity:1;" /><path d="M 338.96576 265.9075 L 292.11377 266.335" style="stroke:rgb(253,204,229);stroke-width:1" /><circle cx="292.11377" cy="266.335" r="2" style="fill:rgb(253,204,229);stroke:none;fill-opacity:1;stroke-opacity:1;" /><path d="M 292.11377 266.335 L 255.7725 266.6275" style="stroke:rgb(253,204,229);stroke-width:1" /><circle cx="255.7725" cy="266.6275" r="2" style="fill:rgb(253,204,229);stroke:none;fill-opacity:1;stroke-opacity:1;" /><path d="M 255.7725 266.6275 L 142.88626 267.3975" style="stroke:rgb(253,204,229);stroke-width:1" /><circle cx="142.88626" cy="267.3975" r="2" style="fill:rgb(253,204,229);stroke:none;fill-opacity:1;stroke-opacity:1;" /><path d="M 142.88626 267.3975 L 30 267.955" style="stroke:rgb(253,204,229);stroke-width:1" /><circle cx="30" cy="267.955" r="2" style="fill:rgb(253,204,229);stroke:none;fill-opacity:1;stroke-opacity:1;" /><circle cx="780" cy="220.175" r="2" style="fill:rgb(139,211,199);stroke:none;fill-opacity:1;stroke-opacity:1;" /><path d="M 780 220.175 L 630.77246 236.57" style="stroke:rgb(139,211,199);stroke-width:1" /><circle cx="630.77246" cy="236.57" r="2" style="fill:rgb(139,211,199);stroke:none;fill-opacity:1;stroke-opacity:1;" /><path d="M 630.77246 236.57 L 517.8862 246.1525" style="stroke:rgb(139,211,199);stroke-width:1" /><circle cx="517.8862" cy="246.1525" r="2" style="fill:rgb(139,211,199);stroke:none;fill-opacity:1;stroke-opacity:1;" /><path d="M 517.8862 246.1525 L 451.85202 249.60251" style="stroke:rgb(139,211,199);stroke-width:1" /><circle cx="451.85202" cy="249.60251" r="2" style="fill:rgb(139,211,199);stroke:none;fill-opacity:1;stroke-opacity:1;" /><path d="M 451.85202 249.60251 L 405 252.6225" style="stroke:rgb(139,211,199);stroke-width:1" /><circle cx="405" cy="252.6225" r="2" style="fill:rgb(139,211,199);stroke:none;fill-opacity:1;stroke-opacity:1;" /><path d="M 405 252.6225 L 338.96576 256.105" style="stroke:rgb(139,211,199);stroke-width:1" /><circle cx="338.96576" cy="256.105" r="2" style="fill:rgb(139,211,199);stroke:none;fill-opacity:1;stroke-opacity:1;" /><path d="M 338.96576 256.105 L 292.11377 257.4925" style="stroke:rgb(139,211,199);stroke-width:1" /><circle cx="292.11377" cy="257.4925" r="2" style="fill:rgb(139,211,199);stroke:none;fill-opacity:1;stroke-opacity:1;" /><path d="M 292.11377 257.4925 L 255.7725 258.355" style="stroke:rgb(139,211,199);stroke-width:1" /><circle cx="255.7725" cy="258.355" r="2" style="fill:rgb(139,211,199);stroke:none;fill-opacity:1;stroke-opacity:1;" /><path d="M 255.7725 258.355 L 142.88626 261.8075" style="stroke:rgb(139,211,199);stroke-width:1" /><circle cx="142.88626" cy="261.8075" r="2" style="fill:rgb(139,211,199);stroke:none;fill-opacity:1;stroke-opacity:1;" /><path d="M 142.88626 261.8075 L 30 263.75" style="stroke:rgb(139,211,199);stroke-width:1" /><circle cx="30" cy="263.75" r="2" style="fill:rgb(139,211,199);stroke:none;fill-opacity:1;stroke-opacity:1;" /><rect x="676" y="16" width="80" height="217" ry="4" style="fill:rgb(30,30,30);stroke:none;fill-opacity:0.8;stroke-opacity:1;" /><rect x="680" y="20" width="20" height="20" ry="2" style="fill:rgb(253,127,111);stroke:none;fill-opacity:1;stroke-opacity:1;" /><text x="705" y="33" style="font-size:10px;fill:rgb(255,255,255);text-anchor:start;text-align:left;"> fwd-diff </text><rect x="680" y="41" width="20" height="20" ry="2" style="fill:rgb(255,181,90);stroke:none;fill-opacity:1;stroke-opacity:1;" /><text x="705" y="54" style="font-size:10px;fill:rgb(255,255,255);text-anchor:start;text-align:left;"> hain </text><rect x="680" y="62" width="20" height="20" ry="2" style="fill:rgb(139,211,199);stroke:none;fill-opacity:1;stroke-opacity:1;" /><text x="705" y="75" style="font-size:10px;fill:rgb(255,255,255);text-anchor:start;text-align:left;"> hfd </text><rect x="680" y="83" width="20" height="20" ry="2" style="fill:rgb(50,125,209);stroke:none;fill-opacity:1;stroke-opacity:1;" /><text x="705" y="96" style="font-size:10px;fill:rgb(255,255,255);text-anchor:start;text-align:left;"> levien </text><rect x="680" y="104" width="20" height="20" ry="2" style="fill:rgb(119,211,179);stroke:none;fill-opacity:1;stroke-opacity:1;" /><text x="705" y="117" style="font-size:10px;fill:rgb(255,255,255);text-anchor:start;text-align:left;"> levien-linear </text><rect x="680" y="125" width="20" height="20" ry="2" style="fill:rgb(126,176,213);stroke:none;fill-opacity:1;stroke-opacity:1;" /><text x="705" y="138" style="font-size:10px;fill:rgb(255,255,255);text-anchor:start;text-align:left;"> levien-simd </text><rect x="680" y="146" width="20" height="20" ry="2" style="fill:rgb(128,214,87);stroke:none;fill-opacity:1;stroke-opacity:1;" /><text x="705" y="159" style="font-size:10px;fill:rgb(255,255,255);text-anchor:start;text-align:left;"> linear </text><rect x="680" y="167" width="20" height="20" ry="2" style="fill:rgb(255,238,101);stroke:none;fill-opacity:1;stroke-opacity:1;" /><text x="705" y="180" style="font-size:10px;fill:rgb(255,255,255);text-anchor:start;text-align:left;"> recursive </text><rect x="680" y="188" width="20" height="20" ry="2" style="fill:rgb(253,204,229);stroke:none;fill-opacity:1;stroke-opacity:1;" /><text x="705" y="201" style="font-size:10px;fill:rgb(255,255,255);text-anchor:start;text-align:left;"> wang </text><rect x="680" y="209" width="20" height="20" ry="2" style="fill:rgb(199,126,190);stroke:none;fill-opacity:1;stroke-opacity:1;" /><text x="705" y="222" style="font-size:10px;fill:rgb(255,255,255);text-anchor:start;text-align:left;"> wang-simd </text><text x="400" y="30" style="font-size:20px;fill:rgb(255,255,255);text-anchor:middle;text-align:center;"> nehab dataset: cubic </text><text x="400" y="42" style="font-size:8px;fill:rgb(200,200,200);text-anchor:middle;text-align:center;"> Normalized performance score (lower is better) </text></svg>