<svg xmlns="http://www.w3.org/2000/svg" viewBox="0 0 800 300"><rect x="0" y="0" width="800" height="300" ry="6" style="fill:rgb(30,30,30);stroke:none;fill-opacity:1;stroke-opacity:1;" /><path d="M 30 20 L 30 270" style="stroke:rgb(200,200,200);stroke-width:1" /><path d="M 30 270 L 780 270" style="stroke:rgb(200,200,200);stroke-width:1" /><path d="M 780 270 L 780 272" style="stroke:rgb(200,200,200);stroke-width:1" /><text x="780" y="282" style="font-size:10px;fill:rgb(200,200,200);text-anchor:middle;text-align:center;"> 0.01 </text><path d="M 630.77246 270 L 630.77246 272" style="stroke:rgb(200,200,200);stroke-width:1" /><text x="630.77246" y="282" style="font-size:10px;fill:rgb(200,200,200);text-anchor:middle;text-align:center;"> 0.025 </text><path d="M 517.8862 270 L 517.8862 272" style="stroke:rgb(200,200,200);stroke-width:1" /><text x="517.8862" y="282" style="font-size:10px;fill:rgb(200,200,200);text-anchor:middle;text-align:center;"> 0.05 </text><path d="M 451.85202 270 L 451.85202 272" style="stroke:rgb(200,200,200);stroke-width:1" /><text x="451.85202" y="282" style="font-size:10px;fill:rgb(200,200,200);text-anchor:middle;text-align:center;"> 0.075 </text><path d="M 405 270 L 405 272" style="stroke:rgb(200,200,200);stroke-width:1" /><text x="405" y="282" style="font-size:10px;fill:rgb(200,200,200);text-anchor:middle;text-align:center;"> 0.1 </text><path d="M 338.96576 270 L 338.96576 272" style="stroke:rgb(200,200,200);stroke-width:1" /><text x="338.96576" y="282" style="font-size:10px;fill:rgb(200,200,200);text-anchor:middle;text-align:center;"> 0.15 </text><path d="M 292.11377 270 L 292.11377 272" style="stroke:rgb(200,200,200);stroke-width:1" /><text x="292.11377" y="282" style="font-size:10px;fill:rgb(200,200,200);text-anchor:middle;text-align:center;"> 0.2 </text><path d="M 255.7725 270 L 255.7725 272" style="stroke:rgb(200,200,200);stroke-width:1" /><text x="255.7725" y="282" style="font-size:10px;fill:rgb(200,200,200);text-anchor:middle;text-align:center;"> 0.25 </text><path d="M 142.88626 270 L 142.88626 272" style="stroke:rgb(200,200,200);stroke-width:1" /><text x="142.88626" y="282" style="font-size:10px;fill:rgb(200,200,200);text-anchor:middle;text-align:center;"> 0.5 </text><path d="M 30 270 L 30 272" style="stroke:rgb(200,200,200);stroke-width:1" /><text x="30" y="282" style="font-size:10px;fill:rgb(200,200,200);text-anchor:middle;text-align:center;"> 1 </text><path d="M 28 270 L 30 270" style="stroke:rgb(200,200,200);stroke-width:1" /><text x="26" y="274" style="font-size:10px;fill:rgb(200,200,200);text-anchor:end;text-align:right;"> 0 </text><path d="M 28 207.5 L 30 207.5" style="stroke:rgb(200,200,200);stroke-width:1" /><text x="26" y="211.5" style="font-size:10px;fill:rgb(200,200,200);text-anchor:end;text-align:right;"> 0.25 </text><path d="M 28 145 L 30 145" style="stroke:rgb(200,200,200);stroke-width:1" /><text x="26" y="149" style="font-size:10px;fill:rgb(200,200,200);text-anchor:end;text-align:right;"> 0.5 </text><path d="M 28 82.5 L 30 82.5" style="stroke:rgb(200,200,200);stroke-width:1" /><text x="26" y="86.5" style="font-size:10px;fill:rgb(200,200,200);text-anchor:end;text-align:right;"> 0.75 </text><path d="M 28 20 L 30 20" style="stroke:rgb(200,200,200);stroke-width:1" /><text x="26" y="24" style="font-size:10px;fill:rgb(200,200,200);text-anchor:end;text-align:right;"> 1 </text><text x="400" y="294" style="font-size:10px;fill:rgb(200,200,200);text-anchor:middle;text-align:center;"> Tolerance </text><circle cx="780" cy="220.4225" r="2" style="fill:rgb(253,204,229);stroke:none;fill-opacity:1;stroke-opacity:1;" /><path d="M 780 220.4225 L 630.77246 230.3125" style="stroke:rgb(253,204,229);stroke-width:1" /><circle cx="630.77246" cy="230.3125" r="2" style="fill:rgb(253,204,229);stroke:none;fill-opacity:1;stroke-opacity:1;" /><path d="M 630.77246 230.3125 L 517.8862 234.725" style="stroke:rgb(253,204,229);stroke-width:1" /><circle cx="517.8862" cy="234.725" r="2" style="fill:rgb(253,204,229);stroke:none;fill-opacity:1;stroke-opacity:1;" /><path d="M 517.8862 234.725 L 451.85202 237.69" style="stroke:rgb(253,204,229);stroke-width:1" /><circle cx="451.85202" cy="237.69" r="2" style="fill:rgb(253,204,229);stroke:none;fill-opacity:1;stroke-opacity:1;" /><path d="M 451.85202 237.69 L 405 239.9125" style="stroke:rgb(253,204,229);stroke-width:1" /><circle cx="405" cy="239.9125" r="2" style="fill:rgb(253,204,229);stroke:none;fill-opacity:1;stroke-opacity:1;" /><path d="M 405 239.9125 L 338.96576 243.7125" style="stroke:rgb(253,204,229);stroke-width:1" /><circle cx="338.96576" cy="243.7125" r="2" style="fill:rgb(253,204,229);stroke:none;fill-opacity:1;stroke-opacity:1;" /><path d="M 338.96576 243.7125 L 292.11377 246.54001" style="stroke:rgb(253,204,229);stroke-width:1" /><circle cx="292.11377" cy="246.54001" r="2" style="fill:rgb(253,204,229);stroke:none;fill-opacity:1;stroke-opacity:1;" /><path d="M 292.11377 246.54001 L 255.7725 248.1925" style="stroke:rgb(253,204,229);stroke-width:1" /><circle cx="255.7725" cy="248.1925" r="2" style="fill:rgb(253,204,229);stroke:none;fill-opacity:1;stroke-opacity:1;" /><path d="M 255.7725 248.1925 L 142.88626 250.805" style="stroke:rgb(253,204,229);stroke-width:1" /><circle cx="142.88626" cy="250.805" r="2" style="fill:rgb(253,204,229);stroke:none;fill-opacity:1;stroke-opacity:1;" /><path d="M 142.88626 250.805 L 30 251.7625" style="stroke:rgb(253,204,229);stroke-width:1" /><circle cx="30" cy="251.7625" r="2" style="fill:rgb(253,204,229);stroke:none;fill-opacity:1;stroke-opacity:1;" /><circle cx="780" cy="210.735" r="2" style="fill:rgb(255,238,101);stroke:none;fill-opacity:1;stroke-opacity:1;" /><path d="M 780 210.735 L 630.77246 236.1875" style="stroke:rgb(255,238,101);stroke-width:1" /><circle cx="630.77246" cy="236.1875" r="2" style="fill:rgb(255,238,101);stroke:none;fill-opacity:1;stroke-opacity:1;" /><path d="M 630.77246 236.1875 L 517.8862 245.38" style="stroke:rgb(255,238,101);stroke-width:1" /><circle cx="517.8862" cy="245.38" r="2" style="fill:rgb(255,238,101);stroke:none;fill-opacity:1;stroke-opacity:1;" /><path d="M 517.8862 245.38 L 451.85202 249.5875" style="stroke:rgb(255,238,101);stroke-width:1" /><circle cx="451.85202" cy="249.5875" r="2" style="fill:rgb(255,238,101);stroke:none;fill-opacity:1;stroke-opacity:1;" /><path d="M 451.85202 249.5875 L 405 251.785" style="stroke:rgb(255,238,101);stroke-width:1" /><circle cx="405" cy="251.785" r="2" style="fill:rgb(255,238,101);stroke:none;fill-opacity:1;stroke-opacity:1;" /><path d="M 405 251.785 L 338.96576 253.42" style="stroke:rgb(255,238,101);stroke-width:1" /><circle cx="338.96576" cy="253.42" r="2" style="fill:rgb(255,238,101);stroke:none;fill-opacity:1;stroke-opacity:1;" /><path d="M 338.96576 253.42 L 292.11377 254.9525" style="stroke:rgb(255,238,101);stroke-width:1" /><circle cx="292.11377" cy="254.9525" r="2" style="fill:rgb(255,238,101);stroke:none;fill-opacity:1;stroke-opacity:1;" /><path d="M 292.11377 254.9525 L 255.7725 256.365" style="stroke:rgb(255,238,101);stroke-width:1" /><circle cx="255.7725" cy="256.365" r="2" style="fill:rgb(255,238,101);stroke:none;fill-opacity:1;stroke-opacity:1;" /><path d="M 255.7725 256.365 L 142.88626 261.2425" style="stroke:rgb(255,238,101);stroke-width:1" /><circle cx="142.88626" cy="261.2425" r="2" style="fill:rgb(255,238,101);stroke:none;fill-opacity:1;stroke-opacity:1;" /><path d="M 142.88626 261.2425 L 30 263.9025" style="stroke:rgb(255,238,101);stroke-width:1" /><circle cx="30" cy="263.9025" r="2" style="fill:rgb(255,238,101);stroke:none;fill-opacity:1;stroke-opacity:1;" /><circle cx="780" cy="173.525" r="2" style="fill:rgb(119,211,179);stroke:none;fill-opacity:1;stroke-opacity:1;" /><path d="M 780 173.525 L 630.77246 228.8775" style="stroke:rgb(119,211,179);stroke-width:1" /><circle cx="630.77246" cy="228.8775" r="2" style="fill:rgb(119,211,179);stroke:none;fill-opacity:1;stroke-opacity:1;" /><path d="M 630.77246 228.8775 L 517.8862 244.3225" style="stroke:rgb(119,211,179);stroke-width:1" /><circle cx="517.8862" cy="244.3225" r="2" style="fill:rgb(119,211,179);stroke:none;fill-opacity:1;stroke-opacity:1;" /><path d="M 517.8862 244.3225 L 451.85202 248.4075" style="stroke:rgb(119,211,179);stroke-width:1" /><circle cx="451.85202" cy="248.4075" r="2" style="fill:rgb(119,211,179);stroke:none;fill-opacity:1;stroke-opacity:1;" /><path d="M 451.85202 248.4075 L 405 250.07" style="stroke:rgb(119,211,179);stroke-width:1" /><circle cx="405" cy="250.07" r="2" style="fill:rgb(119,211,179);stroke:none;fill-opacity:1;stroke-opacity:1;" /><path d="M 405 250.07 L 338.96576 251.045" style="stroke:rgb(119,211,179);stroke-width:1" /><circle cx="338.96576" cy="251.045" r="2" style="fill:rgb(119,211,179);stroke:none;fill-opacity:1;stroke-opacity:1;" /><path d="M 338.96576 251.045 L 292.11377 251.66501" style="stroke:rgb(119,211,179);stroke-width:1" /><circle cx="292.11377" cy="251.66501" r="2" style="fill:rgb(119,211,179);stroke:none;fill-opacity:1;stroke-opacity:1;" /><path d="M 292.11377 251.66501 L 255.7725 252.39749" style="stroke:rgb(119,211,179);stroke-width:1" /><circle cx="255.7725" cy="252.39749" r="2" style="fill:rgb(119,211,179);stroke:none;fill-opacity:1;stroke-opacity:1;" /><path d="M 255.7725 252.39749 L 142.88626 256.585" style="stroke:rgb(119,211,179);stroke-width:1" /><circle cx="142.88626" cy="256.585" r="2" style="fill:rgb(119,211,179);stroke:none;fill-opacity:1;stroke-opacity:1;" /><path d="M 142.88626 256.585 L 30 260.5275" style="stroke:rgb(119,211,179);stroke-width:1" /><circle cx="30" cy="260.5275" r="2" style="fill:rgb(119,211,179);stroke:none;fill-opacity:1;stroke-opacity:1;" /><circle cx="780" cy="213.905" r="2" style="fill:rgb(128,214,87);stroke:none;fill-opacity:1;stroke-opacity:1;" /><path d="M 780 213.905 L 630.77246 237.35" style="stroke:rgb(128,214,87);stroke-width:1" /><circle cx="630.77246" cy="237.35" r="2" style="fill:rgb(128,214,87);stroke:none;fill-opacity:1;stroke-opacity:1;" /><path d="M 630.77246 237.35 L 517.8862 245.8225" style="stroke:rgb(128,214,87);stroke-width:1" /><circle cx="517.8862" cy="245.8225" r="2" style="fill:rgb(128,214,87);stroke:none;fill-opacity:1;stroke-opacity:1;" /><path d="M 517.8862 245.8225 L 451.85202 249.435" style="stroke:rgb(128,214,87);stroke-width:1" /><circle cx="451.85202" cy="249.435" r="2" style="fill:rgb(128,214,87);stroke:none;fill-opacity:1;stroke-opacity:1;" /><path d="M 451.85202 249.435 L 405 251.20999" style="stroke:rgb(128,214,87);stroke-width:1" /><circle cx="405" cy="251.20999" r="2" style="fill:rgb(128,214,87);stroke:none;fill-opacity:1;stroke-opacity:1;" /><path d="M 405 251.20999 L 338.96576 252.0525" style="stroke:rgb(128,214,87);stroke-width:1" /><circle cx="338.96576" cy="252.0525" r="2" style="fill:rgb(128,214,87);stroke:none;fill-opacity:1;stroke-opacity:1;" /><path d="M 338.96576 252.0525 L 292.11377 252.7475" style="stroke:rgb(128,214,87);stroke-width:1" /><circle cx="292.11377" cy="252.7475" r="2" style="fill:rgb(128,214,87);stroke:none;fill-opacity:1;stroke-opacity:1;" /><path d="M 292.11377 252.7475 L 255.7725 253.36" style="stroke:rgb(128,214,87);stroke-width:1" /><circle cx="255.7725" cy="253.36" r="2" style="fill:rgb(128,214,87);stroke:none;fill-opacity:1;stroke-opacity:1;" /><path d="M 255.7725 253.36 L 142.88626 257.54" style="stroke:rgb(128,214,87);stroke-width:1" /><circle cx="142.88626" cy="257.54" r="2" style="fill:rgb(128,214,87);stroke:none;fill-opacity:1;stroke-opacity:1;" /><path d="M 142.88626 257.54 L 30 261.2575" style="stroke:rgb(128,214,87);stroke-width:1" /><circle cx="30" cy="261.2575" r="2" style="fill:rgb(128,214,87);stroke:none;fill-opacity:1;stroke-opacity:1;" /><circle cx="780" cy="94.6875" r="2" style="fill:rgb(255,181,90);stroke:none;fill-opacity:1;stroke-opacity:1;" /><path d="M 780 94.6875 L 630.77246 150.58" style="stroke:rgb(255,181,90);stroke-width:1" /><circle cx="630.77246" cy="150.58" r="2" style="fill:rgb(255,181,90);stroke:none;fill-opacity:1;stroke-opacity:1;" /><path d="M 630.77246 150.58 L 517.8862 178.4875" style="stroke:rgb(255,181,90);stroke-width:1" /><circle cx="517.8862" cy="178.4875" r="2" style="fill:rgb(255,181,90);stroke:none;fill-opacity:1;stroke-opacity:1;" /><path d="M 517.8862 178.4875 L 451.85202 190.795" style="stroke:rgb(255,181,90);stroke-width:1" /><circle cx="451.85202" cy="190.795" r="2" style="fill:rgb(255,181,90);stroke:none;fill-opacity:1;stroke-opacity:1;" /><path d="M 451.85202 190.795 L 405 197.6" style="stroke:rgb(255,181,90);stroke-width:1" /><circle cx="405" cy="197.6" r="2" style="fill:rgb(255,181,90);stroke:none;fill-opacity:1;stroke-opacity:1;" /><path d="M 405 197.6 L 338.96576 205.82251" style="stroke:rgb(255,181,90);stroke-width:1" /><circle cx="338.96576" cy="205.82251" r="2" style="fill:rgb(255,181,90);stroke:none;fill-opacity:1;stroke-opacity:1;" /><path d="M 338.96576 205.82251 L 292.11377 210.2425" style="stroke:rgb(255,181,90);stroke-width:1" /><circle cx="292.11377" cy="210.2425" r="2" style="fill:rgb(255,181,90);stroke:none;fill-opacity:1;stroke-opacity:1;" /><path d="M 292.11377 210.2425 L 255.7725 213.08" style="stroke:rgb(255,181,90);stroke-width:1" /><circle cx="255.7725" cy="213.08" r="2" style="fill:rgb(255,181,90);stroke:none;fill-opacity:1;stroke-opacity:1;" /><path d="M 255.7725 213.08 L 142.88626 218.49" style="stroke:rgb(255,181,90);stroke-width:1" /><circle cx="142.88626" cy="218.49" r="2" style="fill:rgb(255,181,90);stroke:none;fill-opacity:1;stroke-opacity:1;" /><path d="M 142.88626 218.49 L 30 220.185" style="stroke:rgb(255,181,90);stroke-width:1" /><circle cx="30" cy="220.185" r="2" style="fill:rgb(255,181,90);stroke:none;fill-opacity:1;stroke-opacity:1;" /><circle cx="780" cy="20" r="2" style="fill:rgb(50,125,209);stroke:none;fill-opacity:1;stroke-opacity:1;" /><path d="M 780 20 L 630.77246 44.455" style="stroke:rgb(50,125,209);stroke-width:1" /><circle cx="630.77246" cy="44.455" r="2" style="fill:rgb(50,125,209);stroke:none;fill-opacity:1;stroke-opacity:1;" /><path d="M 630.77246 44.455 L 517.8862 60.9375" style="stroke:rgb(50,125,209);stroke-width:1" /><circle cx="517.8862" cy="60.9375" r="2" style="fill:rgb(50,125,209);stroke:none;fill-opacity:1;stroke-opacity:1;" /><path d="M 517.8862 60.9375 L 451.85202 66.685" style="stroke:rgb(50,125,209);stroke-width:1" /><circle cx="451.85202" cy="66.685" r="2" style="fill:rgb(50,125,209);stroke:none;fill-opacity:1;stroke-opacity:1;" /><path d="M 451.85202 66.685 L 405 70.7175" style="stroke:rgb(50,125,209);stroke-width:1" /><circle cx="405" cy="70.7175" r="2" style="fill:rgb(50,125,209);stroke:none;fill-opacity:1;stroke-opacity:1;" /><path d="M 405 70.7175 L 338.96576 75.255005" style="stroke:rgb(50,125,209);stroke-width:1" /><circle cx="338.96576" cy="75.255005" r="2" style="fill:rgb(50,125,209);stroke:none;fill-opacity:1;stroke-opacity:1;" /><path d="M 338.96576 75.255005 L 292.11377 77.16499" style="stroke:rgb(50,125,209);stroke-width:1" /><circle cx="292.11377" cy="77.16499" r="2" style="fill:rgb(50,125,209);stroke:none;fill-opacity:1;stroke-opacity:1;" /><path d="M 292.11377 77.16499 L 255.7725 77.5975" style="stroke:rgb(50,125,209);stroke-width:1" /><circle cx="255.7725" cy="77.5975" r="2" style="fill:rgb(50,125,209);stroke:none;fill-opacity:1;stroke-opacity:1;" /><path d="M 255.7725 77.5975 L 142.88626 80.655" style="stroke:rgb(50,125,209);stroke-width:1" /><circle cx="142.88626" cy="80.655" r="2" style="fill:rgb(50,125,209);stroke:none;fill-opacity:1;stroke-opacity:1;" /><path d="M 142.88626 80.655 L 30 80.7525" style="stroke:rgb(50,125,209);stroke-width:1" /><circle cx="30" cy="80.7525" r="2" style="fill:rgb(50,125,209);stroke:none;fill-opacity:1;stroke-opacity:1;" /><circle cx="780" cy="44.167496" r="2" style="fill:rgb(126,176,213);stroke:none;fill-opacity:1;stroke-opacity:1;" /><path d="M 780 44.167496 L 630.77246 58.522507" style="stroke:rgb(126,176,213);stroke-width:1" /><circle cx="630.77246" cy="58.522507" r="2" style="fill:rgb(126,176,213);stroke:none;fill-opacity:1;stroke-opacity:1;" /><path d="M 630.77246 58.522507 L 517.8862 68.155" style="stroke:rgb(126,176,213);stroke-width:1" /><circle cx="517.8862" cy="68.155" r="2" style="fill:rgb(126,176,213);stroke:none;fill-opacity:1;stroke-opacity:1;" /><path d="M 517.8862 68.155 L 451.85202 71.7175" style="stroke:rgb(126,176,213);stroke-width:1" /><circle cx="451.85202" cy="71.7175" r="2" style="fill:rgb(126,176,213);stroke:none;fill-opacity:1;stroke-opacity:1;" /><path d="M 451.85202 71.7175 L 405 73.850006" style="stroke:rgb(126,176,213);stroke-width:1" /><circle cx="405" cy="73.850006" r="2" style="fill:rgb(126,176,213);stroke:none;fill-opacity:1;stroke-opacity:1;" /><path d="M 405 73.850006 L 338.96576 75.5925" style="stroke:rgb(126,176,213);stroke-width:1" /><circle cx="338.96576" cy="75.5925" r="2" style="fill:rgb(126,176,213);stroke:none;fill-opacity:1;stroke-opacity:1;" /><path d="M 338.96576 75.5925 L 292.11377 76.28999" style="stroke:rgb(126,176,213);stroke-width:1" /><circle cx="292.11377" cy="76.28999" r="2" style="fill:rgb(126,176,213);stroke:none;fill-opacity:1;stroke-opacity:1;" /><path d="M 292.11377 76.28999 L 255.7725 76.61" style="stroke:rgb(126,176,213);stroke-width:1" /><circle cx="255.7725" cy="76.61" r="2" style="fill:rgb(126,176,213);stroke:none;fill-opacity:1;stroke-opacity:1;" /><path d="M 255.7725 76.61 L 142.88626 77.962494" style="stroke:rgb(126,176,213);stroke-width:1" /><circle cx="142.88626" cy="77.962494" r="2" style="fill:rgb(126,176,213);stroke:none;fill-opacity:1;stroke-opacity:1;" /><path d="M 142.88626 77.962494 L 30 78.0625" style="stroke:rgb(126,176,213);stroke-width:1" /><circle cx="30" cy="78.0625" r="2" style="fill:rgb(126,176,213);stroke:none;fill-opacity:1;stroke-opacity:1;" /><circle cx="780" cy="219.125" r="2" style="fill:rgb(253,127,111);stroke:none;fill-opacity:1;stroke-opacity:1;" /><path d="M 780 219.125 L 630.77246 228.7525" style="stroke:rgb(253,127,111);stroke-width:1" /><circle cx="630.77246" cy="228.7525" r="2" style="fill:rgb(253,127,111);stroke:none;fill-opacity:1;stroke-opacity:1;" /><path d="M 630.77246 228.7525 L 517.8862 234.0325" style="stroke:rgb(253,127,111);stroke-width:1" /><circle cx="517.8862" cy="234.0325" r="2" style="fill:rgb(253,127,111);stroke:none;fill-opacity:1;stroke-opacity:1;" /><path d="M 517.8862 234.0325 L 451.85202 237.06" style="stroke:rgb(253,127,111);stroke-width:1" /><circle cx="451.85202" cy="237.06" r="2" style="fill:rgb(253,127,111);stroke:none;fill-opacity:1;stroke-opacity:1;" /><path d="M 451.85202 237.06 L 405 239.7975" style="stroke:rgb(253,127,111);stroke-width:1" /><circle cx="405" cy="239.7975" r="2" style="fill:rgb(253,127,111);stroke:none;fill-opacity:1;stroke-opacity:1;" /><path d="M 405 239.7975 L 338.96576 243.87" style="stroke:rgb(253,127,111);stroke-width:1" /><circle cx="338.96576" cy="243.87" r="2" style="fill:rgb(253,127,111);stroke:none;fill-opacity:1;stroke-opacity:1;" /><path d="M 338.96576 243.87 L 292.11377 246.66" style="stroke:rgb(253,127,111);stroke-width:1" /><circle cx="292.11377" cy="246.66" r="2" style="fill:rgb(253,127,111);stroke:none;fill-opacity:1;stroke-opacity:1;" /><path d="M 292.11377 246.66 L 255.7725 248.2175" style="stroke:rgb(253,127,111);stroke-width:1" /><circle cx="255.7725" cy="248.2175" r="2" style="fill:rgb(253,127,111);stroke:none;fill-opacity:1;stroke-opacity:1;" /><path d="M 255.7725 248.2175 L 142.88626 250.855" style="stroke:rgb(253,127,111);stroke-width:1" /><circle cx="142.88626" cy="250.855" r="2" style="fill:rgb(253,127,111);stroke:none;fill-opacity:1;stroke-opacity:1;" /><path d="M 142.88626 250.855 L 30 251.9025" style="stroke:rgb(253,127,111);stroke-width:1" /><circle cx="30" cy="251.9025" r="2" style="fill:rgb(253,127,111);stroke:none;fill-opacity:1;stroke-opacity:1;" /><circle cx="780" cy="227.85" r="2" style="fill:rgb(199,126,190);stroke:none;fill-opacity:1;stroke-opacity:1;" /><path d="M 780 227.85 L 630.77246 233.8775" style="stroke:rgb(199,126,190);stroke-width:1" /><circle cx="630.77246" cy="233.8775" r="2" style="fill:rgb(199,126,190);stroke:none;fill-opacity:1;stroke-opacity:1;" /><path d="M 630.77246 233.8775 L 517.8862 235.97" style="stroke:rgb(199,126,190);stroke-width:1" /><circle cx="517.8862" cy="235.97" r="2" style="fill:rgb(199,126,190);stroke:none;fill-opacity:1;stroke-opacity:1;" /><path d="M 517.8862 235.97 L 451.85202 238.525" style="stroke:rgb(199,126,190);stroke-width:1" /><circle cx="451.85202" cy="238.525" r="2" style="fill:rgb(199,126,190);stroke:none;fill-opacity:1;stroke-opacity:1;" /><path d="M 451.85202 238.525 L 405 240.61" style="stroke:rgb(199,126,190);stroke-width:1" /><circle cx="405" cy="240.61" r="2" style="fill:rgb(199,126,190);stroke:none;fill-opacity:1;stroke-opacity:1;" /><path d="M 405 240.61 L 338.96576 243.9375" style="stroke:rgb(199,126,190);stroke-width:1" /><circle cx="338.96576" cy="243.9375" r="2" style="fill:rgb(199,126,190);stroke:none;fill-opacity:1;stroke-opacity:1;" /><path d="M 338.96576 243.9375 L 292.11377 246.735" style="stroke:rgb(199,126,190);stroke-width:1" /><circle cx="292.11377" cy="246.735" r="2" style="fill:rgb(199,126,190);stroke:none;fill-opacity:1;stroke-opacity:1;" /><path d="M 292.11377 246.735 L 255.7725 248.06" style="stroke:rgb(199,126,190);stroke-width:1" /><circle cx="255.7725" cy="248.06" r="2" style="fill:rgb(199,126,190);stroke:none;fill-opacity:1;stroke-opacity:1;" /><path d="M 255.7725 248.06 L 142.88626 250.7875" style="stroke:rgb(199,126,190);stroke-width:1" /><circle cx="142.88626" cy="250.7875" r="2" style="fill:rgb(199,126,190);stroke:none;fill-opacity:1;stroke-opacity:1;" /><path d="M 142.88626 250.7875 L 30 251.535" style="stroke:rgb(199,126,190);stroke-width:1" /><circle cx="30" cy="251.535" r="2" style="fill:rgb(199,126,190);stroke:none;fill-opacity:1;stroke-opacity:1;" /><rect x="676" y="16" width="80" height="196" ry="4" style="fill:rgb(30,30,30);stroke:none;fill-opacity:0.8;stroke-opacity:1;" /><rect x="680" y="20" width="20" height="20" ry="2" style="fill:rgb(253,127,111);stroke:none;fill-opacity:1;stroke-opacity:1;" /><text x="705" y="33" style="font-size:10px;fill:rgb(255,255,255);text-anchor:start;text-align:left;"> fwd-diff </text><rect x="680" y="41" width="20" height="20" ry="2" style="fill:rgb(255,181,90);stroke:none;fill-opacity:1;stroke-opacity:1;" /><text x="705" y="54" style="font-size:10px;fill:rgb(255,255,255);text-anchor:start;text-align:left;"> hain </text><rect x="680" y="62" width="20" height="20" ry="2" style="fill:rgb(50,125,209);stroke:none;fill-opacity:1;stroke-opacity:1;" /><text x="705" y="75" style="font-size:10px;fill:rgb(255,255,255);text-anchor:start;text-align:left;"> levien </text><rect x="680" y="83" width="20" height="20" ry="2" style="fill:rgb(119,211,179);stroke:none;fill-opacity:1;stroke-opacity:1;" /><text x="705" y="96" style="font-size:10px;fill:rgb(255,255,255);text-anchor:start;text-align:left;"> levien-linear </text><rect x="680" y="104" width="20" height="20" ry="2" style="fill:rgb(126,176,213);stroke:none;fill-opacity:1;stroke-opacity:1;" /><text x="705" y="117" style="font-size:10px;fill:rgb(255,255,255);text-anchor:start;text-align:left;"> levien-simd </text><rect x="680" y="125" width="20" height="20" ry="2" style="fill:rgb(128,214,87);stroke:none;fill-opacity:1;stroke-opacity:1;" /><text x="705" y="138" style="font-size:10px;fill:rgb(255,255,255);text-anchor:start;text-align:left;"> linear </text><rect x="680" y="146" width="20" height="20" ry="2" style="fill:rgb(255,238,101);stroke:none;fill-opacity:1;stroke-opacity:1;" /><text x="705" y="159" style="font-size:10px;fill:rgb(255,255,255);text-anchor:start;text-align:left;"> recursive </text><rect x="680" y="167" width="20" height="20" ry="2" style="fill:rgb(253,204,229);stroke:none;fill-opacity:1;stroke-opacity:1;" /><text x="705" y="180" style="font-size:10px;fill:rgb(255,255,255);text-anchor:start;text-align:left;"> wang </text><rect x="680" y="188" width="20" height="20" ry="2" style="fill:rgb(199,126,190);stroke:none;fill-opacity:1;stroke-opacity:1;" /><text x="705" y="201" style="font-size:10px;fill:rgb(255,255,255);text-anchor:start;text-align:left;"> wang-simd </text><text x="400" y="30" style="font-size:20px;fill:rgb(255,255,255);text-anchor:middle;text-align:center;"> font dataset: cubic </text><text x="400" y="42" style="font-size:8px;fill:rgb(200,200,200);text-anchor:middle;text-align:center;"> Normalized performance score (lower is better) </text></svg>