<svg xmlns="http://www.w3.org/2000/svg" viewBox="0 0 800 300"><rect x="0" y="0" width="800" height="300" ry="6" style="fill:rgb(30,30,30);stroke:none;fill-opacity:1;stroke-opacity:1;" /><path d="M 30 20 L 30 270" style="stroke:rgb(200,200,200);stroke-width:1" /><path d="M 30 270 L 780 270" style="stroke:rgb(200,200,200);stroke-width:1" /><path d="M 780 270 L 780 272" style="stroke:rgb(200,200,200);stroke-width:1" /><text x="780" y="282" style="font-size:10px;fill:rgb(200,200,200);text-anchor:middle;text-align:center;"> 0.01 </text><path d="M 630.77246 270 L 630.77246 272" style="stroke:rgb(200,200,200);stroke-width:1" /><text x="630.77246" y="282" style="font-size:10px;fill:rgb(200,200,200);text-anchor:middle;text-align:center;"> 0.025 </text><path d="M 517.8862 270 L 517.8862 272" style="stroke:rgb(200,200,200);stroke-width:1" /><text x="517.8862" y="282" style="font-size:10px;fill:rgb(200,200,200);text-anchor:middle;text-align:center;"> 0.05 </text><path d="M 451.85202 270 L 451.85202 272" style="stroke:rgb(200,200,200);stroke-width:1" /><text x="451.85202" y="282" style="font-size:10px;fill:rgb(200,200,200);text-anchor:middle;text-align:center;"> 0.075 </text><path d="M 405 270 L 405 272" style="stroke:rgb(200,200,200);stroke-width:1" /><text x="405" y="282" style="font-size:10px;fill:rgb(200,200,200);text-anchor:middle;text-align:center;"> 0.1 </text><path d="M 338.96576 270 L 338.96576 272" style="stroke:rgb(200,200,200);stroke-width:1" /><text x="338.96576" y="282" style="font-size:10px;fill:rgb(200,200,200);text-anchor:middle;text-align:center;"> 0.15 </text><path d="M 292.11377 270 L 292.11377 272" style="stroke:rgb(200,200,200);stroke-width:1" /><text x="292.11377" y="282" style="font-size:10px;fill:rgb(200,200,200);text-anchor:middle;text-align:center;"> 0.2 </text><path d="M 255.7725 270 L 255.7725 272" style="stroke:rgb(200,200,200);stroke-width:1" /><text x="255.7725" y="282" style="font-size:10px;fill:rgb(200,200,200);text-anchor:middle;text-align:center;"> 0.25 </text><path d="M 142.88626 270 L 142.88626 272" style="stroke:rgb(200,200,200);stroke-width:1" /><text x="142.88626" y="282" style="font-size:10px;fill:rgb(200,200,200);text-anchor:middle;text-align:center;"> 0.5 </text><path d="M 30 270 L 30 272" style="stroke:rgb(200,200,200);stroke-width:1" /><text x="30" y="282" style="font-size:10px;fill:rgb(200,200,200);text-anchor:middle;text-align:center;"> 1 </text><path d="M 28 270 L 30 270" style="stroke:rgb(200,200,200);stroke-width:1" /><text x="26" y="274" style="font-size:10px;fill:rgb(200,200,200);text-anchor:end;text-align:right;"> 0 </text><path d="M 28 207.5 L 30 207.5" style="stroke:rgb(200,200,200);stroke-width:1" /><text x="26" y="211.5" style="font-size:10px;fill:rgb(200,200,200);text-anchor:end;text-align:right;"> 0.25 </text><path d="M 28 145 L 30 145" style="stroke:rgb(200,200,200);stroke-width:1" /><text x="26" y="149" style="font-size:10px;fill:rgb(200,200,200);text-anchor:end;text-align:right;"> 0.5 </text><path d="M 28 82.5 L 30 82.5" style="stroke:rgb(200,200,200);stroke-width:1" /><text x="26" y="86.5" style="font-size:10px;fill:rgb(200,200,200);text-anchor:end;text-align:right;"> 0.75 </text><path d="M 28 20 L 30 20" style="stroke:rgb(200,200,200);stroke-width:1" /><text x="26" y="24" style="font-size:10px;fill:rgb(200,200,200);text-anchor:end;text-align:right;"> 1 </text><text x="400" y="294" style="font-size:10px;fill:rgb(200,200,200);text-anchor:middle;text-align:center;"> Tolerance </text><circle cx="780" cy="262.8425" r="2" style="fill:rgb(119,211,179);stroke:none;fill-opacity:1;stroke-opacity:1;" /><path d="M 780 262.8425 L 630.77246 267.09" style="stroke:rgb(119,211,179);stroke-width:1" /><circle cx="630.77246" cy="267.09" r="2" style="fill:rgb(119,211,179);stroke:none;fill-opacity:1;stroke-opacity:1;" /><path d="M 630.77246 267.09 L 517.8862 268.3025" style="stroke:rgb(119,211,179);stroke-width:1" /><circle cx="517.8862" cy="268.3025" r="2" style="fill:rgb(119,211,179);stroke:none;fill-opacity:1;stroke-opacity:1;" /><path d="M 517.8862 268.3025 L 451.85202 268.5875" style="stroke:rgb(119,211,179);stroke-width:1" /><circle cx="451.85202" cy="268.5875" r="2" style="fill:rgb(119,211,179);stroke:none;fill-opacity:1;stroke-opacity:1;" /><path d="M 451.85202 268.5875 L 405 268.7125" style="stroke:rgb(119,211,179);stroke-width:1" /><circle cx="405" cy="268.7125" r="2" style="fill:rgb(119,211,179);stroke:none;fill-opacity:1;stroke-opacity:1;" /><path d="M 405 268.7125 L 338.96576 268.8125" style="stroke:rgb(119,211,179);stroke-width:1" /><circle cx="338.96576" cy="268.8125" r="2" style="fill:rgb(119,211,179);stroke:none;fill-opacity:1;stroke-opacity:1;" /><path d="M 338.96576 268.8125 L 292.11377 268.9" style="stroke:rgb(119,211,179);stroke-width:1" /><circle cx="292.11377" cy="268.9" r="2" style="fill:rgb(119,211,179);stroke:none;fill-opacity:1;stroke-opacity:1;" /><path d="M 292.11377 268.9 L 255.7725 268.9825" style="stroke:rgb(119,211,179);stroke-width:1" /><circle cx="255.7725" cy="268.9825" r="2" style="fill:rgb(119,211,179);stroke:none;fill-opacity:1;stroke-opacity:1;" /><path d="M 255.7725 268.9825 L 142.88626 269.2675" style="stroke:rgb(119,211,179);stroke-width:1" /><circle cx="142.88626" cy="269.2675" r="2" style="fill:rgb(119,211,179);stroke:none;fill-opacity:1;stroke-opacity:1;" /><path d="M 142.88626 269.2675 L 30 269.53" style="stroke:rgb(119,211,179);stroke-width:1" /><circle cx="30" cy="269.53" r="2" style="fill:rgb(119,211,179);stroke:none;fill-opacity:1;stroke-opacity:1;" /><circle cx="780" cy="249.545" r="2" style="fill:rgb(50,125,209);stroke:none;fill-opacity:1;stroke-opacity:1;" /><path d="M 780 249.545 L 630.77246 252.8225" style="stroke:rgb(50,125,209);stroke-width:1" /><circle cx="630.77246" cy="252.8225" r="2" style="fill:rgb(50,125,209);stroke:none;fill-opacity:1;stroke-opacity:1;" /><path d="M 630.77246 252.8225 L 517.8862 254.445" style="stroke:rgb(50,125,209);stroke-width:1" /><circle cx="517.8862" cy="254.445" r="2" style="fill:rgb(50,125,209);stroke:none;fill-opacity:1;stroke-opacity:1;" /><path d="M 517.8862 254.445 L 451.85202 255.1425" style="stroke:rgb(50,125,209);stroke-width:1" /><circle cx="451.85202" cy="255.1425" r="2" style="fill:rgb(50,125,209);stroke:none;fill-opacity:1;stroke-opacity:1;" /><path d="M 451.85202 255.1425 L 405 255.515" style="stroke:rgb(50,125,209);stroke-width:1" /><circle cx="405" cy="255.515" r="2" style="fill:rgb(50,125,209);stroke:none;fill-opacity:1;stroke-opacity:1;" /><path d="M 405 255.515 L 338.96576 255.8725" style="stroke:rgb(50,125,209);stroke-width:1" /><circle cx="338.96576" cy="255.8725" r="2" style="fill:rgb(50,125,209);stroke:none;fill-opacity:1;stroke-opacity:1;" /><path d="M 338.96576 255.8725 L 292.11377 255.9575" style="stroke:rgb(50,125,209);stroke-width:1" /><circle cx="292.11377" cy="255.9575" r="2" style="fill:rgb(50,125,209);stroke:none;fill-opacity:1;stroke-opacity:1;" /><path d="M 292.11377 255.9575 L 255.7725 255.9975" style="stroke:rgb(50,125,209);stroke-width:1" /><circle cx="255.7725" cy="255.9975" r="2" style="fill:rgb(50,125,209);stroke:none;fill-opacity:1;stroke-opacity:1;" /><path d="M 255.7725 255.9975 L 142.88626 256.125" style="stroke:rgb(50,125,209);stroke-width:1" /><circle cx="142.88626" cy="256.125" r="2" style="fill:rgb(50,125,209);stroke:none;fill-opacity:1;stroke-opacity:1;" /><path d="M 142.88626 256.125 L 30 256.1625" style="stroke:rgb(50,125,209);stroke-width:1" /><circle cx="30" cy="256.1625" r="2" style="fill:rgb(50,125,209);stroke:none;fill-opacity:1;stroke-opacity:1;" /><circle cx="780" cy="265.335" r="2" style="fill:rgb(255,238,101);stroke:none;fill-opacity:1;stroke-opacity:1;" /><path d="M 780 265.335 L 630.77246 267.5275" style="stroke:rgb(255,238,101);stroke-width:1" /><circle cx="630.77246" cy="267.5275" r="2" style="fill:rgb(255,238,101);stroke:none;fill-opacity:1;stroke-opacity:1;" /><path d="M 630.77246 267.5275 L 517.8862 268.2725" style="stroke:rgb(255,238,101);stroke-width:1" /><circle cx="517.8862" cy="268.2725" r="2" style="fill:rgb(255,238,101);stroke:none;fill-opacity:1;stroke-opacity:1;" /><path d="M 517.8862 268.2725 L 451.85202 268.605" style="stroke:rgb(255,238,101);stroke-width:1" /><circle cx="451.85202" cy="268.605" r="2" style="fill:rgb(255,238,101);stroke:none;fill-opacity:1;stroke-opacity:1;" /><path d="M 451.85202 268.605 L 405 268.795" style="stroke:rgb(255,238,101);stroke-width:1" /><circle cx="405" cy="268.795" r="2" style="fill:rgb(255,238,101);stroke:none;fill-opacity:1;stroke-opacity:1;" /><path d="M 405 268.795 L 338.96576 268.9075" style="stroke:rgb(255,238,101);stroke-width:1" /><circle cx="338.96576" cy="268.9075" r="2" style="fill:rgb(255,238,101);stroke:none;fill-opacity:1;stroke-opacity:1;" /><path d="M 338.96576 268.9075 L 292.11377 269.0175" style="stroke:rgb(255,238,101);stroke-width:1" /><circle cx="292.11377" cy="269.0175" r="2" style="fill:rgb(255,238,101);stroke:none;fill-opacity:1;stroke-opacity:1;" /><path d="M 292.11377 269.0175 L 255.7725 269.13" style="stroke:rgb(255,238,101);stroke-width:1" /><circle cx="255.7725" cy="269.13" r="2" style="fill:rgb(255,238,101);stroke:none;fill-opacity:1;stroke-opacity:1;" /><path d="M 255.7725 269.13 L 142.88626 269.5025" style="stroke:rgb(255,238,101);stroke-width:1" /><circle cx="142.88626" cy="269.5025" r="2" style="fill:rgb(255,238,101);stroke:none;fill-opacity:1;stroke-opacity:1;" /><path d="M 142.88626 269.5025 L 30 269.6775" style="stroke:rgb(255,238,101);stroke-width:1" /><circle cx="30" cy="269.6775" r="2" style="fill:rgb(255,238,101);stroke:none;fill-opacity:1;stroke-opacity:1;" /><circle cx="780" cy="267.4975" r="2" style="fill:rgb(253,127,111);stroke:none;fill-opacity:1;stroke-opacity:1;" /><path d="M 780 267.4975 L 630.77246 267.9275" style="stroke:rgb(253,127,111);stroke-width:1" /><circle cx="630.77246" cy="267.9275" r="2" style="fill:rgb(253,127,111);stroke:none;fill-opacity:1;stroke-opacity:1;" /><path d="M 630.77246 267.9275 L 517.8862 267.915" style="stroke:rgb(253,127,111);stroke-width:1" /><circle cx="517.8862" cy="267.915" r="2" style="fill:rgb(253,127,111);stroke:none;fill-opacity:1;stroke-opacity:1;" /><path d="M 517.8862 267.915 L 451.85202 267.9975" style="stroke:rgb(253,127,111);stroke-width:1" /><circle cx="451.85202" cy="267.9975" r="2" style="fill:rgb(253,127,111);stroke:none;fill-opacity:1;stroke-opacity:1;" /><path d="M 451.85202 267.9975 L 405 268.0325" style="stroke:rgb(253,127,111);stroke-width:1" /><circle cx="405" cy="268.0325" r="2" style="fill:rgb(253,127,111);stroke:none;fill-opacity:1;stroke-opacity:1;" /><path d="M 405 268.0325 L 338.96576 268.425" style="stroke:rgb(253,127,111);stroke-width:1" /><circle cx="338.96576" cy="268.425" r="2" style="fill:rgb(253,127,111);stroke:none;fill-opacity:1;stroke-opacity:1;" /><path d="M 338.96576 268.425 L 292.11377 268.705" style="stroke:rgb(253,127,111);stroke-width:1" /><circle cx="292.11377" cy="268.705" r="2" style="fill:rgb(253,127,111);stroke:none;fill-opacity:1;stroke-opacity:1;" /><path d="M 292.11377 268.705 L 255.7725 268.855" style="stroke:rgb(253,127,111);stroke-width:1" /><circle cx="255.7725" cy="268.855" r="2" style="fill:rgb(253,127,111);stroke:none;fill-opacity:1;stroke-opacity:1;" /><path d="M 255.7725 268.855 L 142.88626 269.105" style="stroke:rgb(253,127,111);stroke-width:1" /><circle cx="142.88626" cy="269.105" r="2" style="fill:rgb(253,127,111);stroke:none;fill-opacity:1;stroke-opacity:1;" /><path d="M 142.88626 269.105 L 30 269.195" style="stroke:rgb(253,127,111);stroke-width:1" /><circle cx="30" cy="269.195" r="2" style="fill:rgb(253,127,111);stroke:none;fill-opacity:1;stroke-opacity:1;" /><circle cx="780" cy="267.63" r="2" style="fill:rgb(253,204,229);stroke:none;fill-opacity:1;stroke-opacity:1;" /><path d="M 780 267.63 L 630.77246 268.1275" style="stroke:rgb(253,204,229);stroke-width:1" /><circle cx="630.77246" cy="268.1275" r="2" style="fill:rgb(253,204,229);stroke:none;fill-opacity:1;stroke-opacity:1;" /><path d="M 630.77246 268.1275 L 517.8862 268.34" style="stroke:rgb(253,204,229);stroke-width:1" /><circle cx="517.8862" cy="268.34" r="2" style="fill:rgb(253,204,229);stroke:none;fill-opacity:1;stroke-opacity:1;" /><path d="M 517.8862 268.34 L 451.85202 268.3575" style="stroke:rgb(253,204,229);stroke-width:1" /><circle cx="451.85202" cy="268.3575" r="2" style="fill:rgb(253,204,229);stroke:none;fill-opacity:1;stroke-opacity:1;" /><path d="M 451.85202 268.3575 L 405 268.4625" style="stroke:rgb(253,204,229);stroke-width:1" /><circle cx="405" cy="268.4625" r="2" style="fill:rgb(253,204,229);stroke:none;fill-opacity:1;stroke-opacity:1;" /><path d="M 405 268.4625 L 338.96576 268.6525" style="stroke:rgb(253,204,229);stroke-width:1" /><circle cx="338.96576" cy="268.6525" r="2" style="fill:rgb(253,204,229);stroke:none;fill-opacity:1;stroke-opacity:1;" /><path d="M 338.96576 268.6525 L 292.11377 268.8475" style="stroke:rgb(253,204,229);stroke-width:1" /><circle cx="292.11377" cy="268.8475" r="2" style="fill:rgb(253,204,229);stroke:none;fill-opacity:1;stroke-opacity:1;" /><path d="M 292.11377 268.8475 L 255.7725 268.92" style="stroke:rgb(253,204,229);stroke-width:1" /><circle cx="255.7725" cy="268.92" r="2" style="fill:rgb(253,204,229);stroke:none;fill-opacity:1;stroke-opacity:1;" /><path d="M 255.7725 268.92 L 142.88626 269.12" style="stroke:rgb(253,204,229);stroke-width:1" /><circle cx="142.88626" cy="269.12" r="2" style="fill:rgb(253,204,229);stroke:none;fill-opacity:1;stroke-opacity:1;" /><path d="M 142.88626 269.12 L 30 269.1875" style="stroke:rgb(253,204,229);stroke-width:1" /><circle cx="30" cy="269.1875" r="2" style="fill:rgb(253,204,229);stroke:none;fill-opacity:1;stroke-opacity:1;" /><circle cx="780" cy="268.0025" r="2" style="fill:rgb(199,126,190);stroke:none;fill-opacity:1;stroke-opacity:1;" /><path d="M 780 268.0025 L 630.77246 268.4475" style="stroke:rgb(199,126,190);stroke-width:1" /><circle cx="630.77246" cy="268.4475" r="2" style="fill:rgb(199,126,190);stroke:none;fill-opacity:1;stroke-opacity:1;" /><path d="M 630.77246 268.4475 L 517.8862 268.475" style="stroke:rgb(199,126,190);stroke-width:1" /><circle cx="517.8862" cy="268.475" r="2" style="fill:rgb(199,126,190);stroke:none;fill-opacity:1;stroke-opacity:1;" /><path d="M 517.8862 268.475 L 451.85202 268.41" style="stroke:rgb(199,126,190);stroke-width:1" /><circle cx="451.85202" cy="268.41" r="2" style="fill:rgb(199,126,190);stroke:none;fill-opacity:1;stroke-opacity:1;" /><path d="M 451.85202 268.41 L 405 268.465" style="stroke:rgb(199,126,190);stroke-width:1" /><circle cx="405" cy="268.465" r="2" style="fill:rgb(199,126,190);stroke:none;fill-opacity:1;stroke-opacity:1;" /><path d="M 405 268.465 L 338.96576 268.675" style="stroke:rgb(199,126,190);stroke-width:1" /><circle cx="338.96576" cy="268.675" r="2" style="fill:rgb(199,126,190);stroke:none;fill-opacity:1;stroke-opacity:1;" /><path d="M 338.96576 268.675 L 292.11377 268.8575" style="stroke:rgb(199,126,190);stroke-width:1" /><circle cx="292.11377" cy="268.8575" r="2" style="fill:rgb(199,126,190);stroke:none;fill-opacity:1;stroke-opacity:1;" /><path d="M 292.11377 268.8575 L 255.7725 268.9475" style="stroke:rgb(199,126,190);stroke-width:1" /><circle cx="255.7725" cy="268.9475" r="2" style="fill:rgb(199,126,190);stroke:none;fill-opacity:1;stroke-opacity:1;" /><path d="M 255.7725 268.9475 L 142.88626 269.1325" style="stroke:rgb(199,126,190);stroke-width:1" /><circle cx="142.88626" cy="269.1325" r="2" style="fill:rgb(199,126,190);stroke:none;fill-opacity:1;stroke-opacity:1;" /><path d="M 142.88626 269.1325 L 30 269.2025" style="stroke:rgb(199,126,190);stroke-width:1" /><circle cx="30" cy="269.2025" r="2" style="fill:rgb(199,126,190);stroke:none;fill-opacity:1;stroke-opacity:1;" /><circle cx="780" cy="254.2325" r="2" style="fill:rgb(255,181,90);stroke:none;fill-opacity:1;stroke-opacity:1;" /><path d="M 780 254.2325 L 630.77246 260.405" style="stroke:rgb(255,181,90);stroke-width:1" /><circle cx="630.77246" cy="260.405" r="2" style="fill:rgb(255,181,90);stroke:none;fill-opacity:1;stroke-opacity:1;" /><path d="M 630.77246 260.405 L 517.8862 263.12" style="stroke:rgb(255,181,90);stroke-width:1" /><circle cx="517.8862" cy="263.12" r="2" style="fill:rgb(255,181,90);stroke:none;fill-opacity:1;stroke-opacity:1;" /><path d="M 517.8862 263.12 L 451.85202 264.275" style="stroke:rgb(255,181,90);stroke-width:1" /><circle cx="451.85202" cy="264.275" r="2" style="fill:rgb(255,181,90);stroke:none;fill-opacity:1;stroke-opacity:1;" /><path d="M 451.85202 264.275 L 405 264.9275" style="stroke:rgb(255,181,90);stroke-width:1" /><circle cx="405" cy="264.9275" r="2" style="fill:rgb(255,181,90);stroke:none;fill-opacity:1;stroke-opacity:1;" /><path d="M 405 264.9275 L 338.96576 265.6975" style="stroke:rgb(255,181,90);stroke-width:1" /><circle cx="338.96576" cy="265.6975" r="2" style="fill:rgb(255,181,90);stroke:none;fill-opacity:1;stroke-opacity:1;" /><path d="M 338.96576 265.6975 L 292.11377 266.135" style="stroke:rgb(255,181,90);stroke-width:1" /><circle cx="292.11377" cy="266.135" r="2" style="fill:rgb(255,181,90);stroke:none;fill-opacity:1;stroke-opacity:1;" /><path d="M 292.11377 266.135 L 255.7725 266.365" style="stroke:rgb(255,181,90);stroke-width:1" /><circle cx="255.7725" cy="266.365" r="2" style="fill:rgb(255,181,90);stroke:none;fill-opacity:1;stroke-opacity:1;" /><path d="M 255.7725 266.365 L 142.88626 266.87" style="stroke:rgb(255,181,90);stroke-width:1" /><circle cx="142.88626" cy="266.87" r="2" style="fill:rgb(255,181,90);stroke:none;fill-opacity:1;stroke-opacity:1;" /><path d="M 142.88626 266.87 L 30 266.985" style="stroke:rgb(255,181,90);stroke-width:1" /><circle cx="30" cy="266.985" r="2" style="fill:rgb(255,181,90);stroke:none;fill-opacity:1;stroke-opacity:1;" /><circle cx="780" cy="266.455" r="2" style="fill:rgb(128,214,87);stroke:none;fill-opacity:1;stroke-opacity:1;" /><path d="M 780 266.455 L 630.77246 267.8775" style="stroke:rgb(128,214,87);stroke-width:1" /><circle cx="630.77246" cy="267.8775" r="2" style="fill:rgb(128,214,87);stroke:none;fill-opacity:1;stroke-opacity:1;" /><path d="M 630.77246 267.8775 L 517.8862 268.4125" style="stroke:rgb(128,214,87);stroke-width:1" /><circle cx="517.8862" cy="268.4125" r="2" style="fill:rgb(128,214,87);stroke:none;fill-opacity:1;stroke-opacity:1;" /><path d="M 517.8862 268.4125 L 451.85202 268.6475" style="stroke:rgb(128,214,87);stroke-width:1" /><circle cx="451.85202" cy="268.6475" r="2" style="fill:rgb(128,214,87);stroke:none;fill-opacity:1;stroke-opacity:1;" /><path d="M 451.85202 268.6475 L 405 268.7725" style="stroke:rgb(128,214,87);stroke-width:1" /><circle cx="405" cy="268.7725" r="2" style="fill:rgb(128,214,87);stroke:none;fill-opacity:1;stroke-opacity:1;" /><path d="M 405 268.7725 L 338.96576 268.8575" style="stroke:rgb(128,214,87);stroke-width:1" /><circle cx="338.96576" cy="268.8575" r="2" style="fill:rgb(128,214,87);stroke:none;fill-opacity:1;stroke-opacity:1;" /><path d="M 338.96576 268.8575 L 292.11377 268.95" style="stroke:rgb(128,214,87);stroke-width:1" /><circle cx="292.11377" cy="268.95" r="2" style="fill:rgb(128,214,87);stroke:none;fill-opacity:1;stroke-opacity:1;" /><path d="M 292.11377 268.95 L 255.7725 269.0375" style="stroke:rgb(128,214,87);stroke-width:1" /><circle cx="255.7725" cy="269.0375" r="2" style="fill:rgb(128,214,87);stroke:none;fill-opacity:1;stroke-opacity:1;" /><path d="M 255.7725 269.0375 L 142.88626 269.34" style="stroke:rgb(128,214,87);stroke-width:1" /><circle cx="142.88626" cy="269.34" r="2" style="fill:rgb(128,214,87);stroke:none;fill-opacity:1;stroke-opacity:1;" /><path d="M 142.88626 269.34 L 30 269.565" style="stroke:rgb(128,214,87);stroke-width:1" /><circle cx="30" cy="269.565" r="2" style="fill:rgb(128,214,87);stroke:none;fill-opacity:1;stroke-opacity:1;" /><circle cx="780" cy="251.5175" r="2" style="fill:rgb(126,176,213);stroke:none;fill-opacity:1;stroke-opacity:1;" /><path d="M 780 251.5175 L 630.77246 252.84" style="stroke:rgb(126,176,213);stroke-width:1" /><circle cx="630.77246" cy="252.84" r="2" style="fill:rgb(126,176,213);stroke:none;fill-opacity:1;stroke-opacity:1;" /><path d="M 630.77246 252.84 L 517.8862 253.745" style="stroke:rgb(126,176,213);stroke-width:1" /><circle cx="517.8862" cy="253.745" r="2" style="fill:rgb(126,176,213);stroke:none;fill-opacity:1;stroke-opacity:1;" /><path d="M 517.8862 253.745 L 451.85202 254.1575" style="stroke:rgb(126,176,213);stroke-width:1" /><circle cx="451.85202" cy="254.1575" r="2" style="fill:rgb(126,176,213);stroke:none;fill-opacity:1;stroke-opacity:1;" /><path d="M 451.85202 254.1575 L 405 254.25" style="stroke:rgb(126,176,213);stroke-width:1" /><circle cx="405" cy="254.25" r="2" style="fill:rgb(126,176,213);stroke:none;fill-opacity:1;stroke-opacity:1;" /><path d="M 405 254.25 L 338.96576 254.3475" style="stroke:rgb(126,176,213);stroke-width:1" /><circle cx="338.96576" cy="254.3475" r="2" style="fill:rgb(126,176,213);stroke:none;fill-opacity:1;stroke-opacity:1;" /><path d="M 338.96576 254.3475 L 292.11377 254.36751" style="stroke:rgb(126,176,213);stroke-width:1" /><circle cx="292.11377" cy="254.36751" r="2" style="fill:rgb(126,176,213);stroke:none;fill-opacity:1;stroke-opacity:1;" /><path d="M 292.11377 254.36751 L 255.7725 254.3625" style="stroke:rgb(126,176,213);stroke-width:1" /><circle cx="255.7725" cy="254.3625" r="2" style="fill:rgb(126,176,213);stroke:none;fill-opacity:1;stroke-opacity:1;" /><path d="M 255.7725 254.3625 L 142.88626 254.52" style="stroke:rgb(126,176,213);stroke-width:1" /><circle cx="142.88626" cy="254.52" r="2" style="fill:rgb(126,176,213);stroke:none;fill-opacity:1;stroke-opacity:1;" /><path d="M 142.88626 254.52 L 30 254.54" style="stroke:rgb(126,176,213);stroke-width:1" /><circle cx="30" cy="254.54" r="2" style="fill:rgb(126,176,213);stroke:none;fill-opacity:1;stroke-opacity:1;" /><rect x="676" y="16" width="80" height="196" ry="4" style="fill:rgb(30,30,30);stroke:none;fill-opacity:0.8;stroke-opacity:1;" /><rect x="680" y="20" width="20" height="20" ry="2" style="fill:rgb(253,127,111);stroke:none;fill-opacity:1;stroke-opacity:1;" /><text x="705" y="33" style="font-size:10px;fill:rgb(255,255,255);text-anchor:start;text-align:left;"> fwd-diff </text><rect x="680" y="41" width="20" height="20" ry="2" style="fill:rgb(255,181,90);stroke:none;fill-opacity:1;stroke-opacity:1;" /><text x="705" y="54" style="font-size:10px;fill:rgb(255,255,255);text-anchor:start;text-align:left;"> hain </text><rect x="680" y="62" width="20" height="20" ry="2" style="fill:rgb(50,125,209);stroke:none;fill-opacity:1;stroke-opacity:1;" /><text x="705" y="75" style="font-size:10px;fill:rgb(255,255,255);text-anchor:start;text-align:left;"> levien </text><rect x="680" y="83" width="20" height="20" ry="2" style="fill:rgb(119,211,179);stroke:none;fill-opacity:1;stroke-opacity:1;" /><text x="705" y="96" style="font-size:10px;fill:rgb(255,255,255);text-anchor:start;text-align:left;"> levien-linear </text><rect x="680" y="104" width="20" height="20" ry="2" style="fill:rgb(126,176,213);stroke:none;fill-opacity:1;stroke-opacity:1;" /><text x="705" y="117" style="font-size:10px;fill:rgb(255,255,255);text-anchor:start;text-align:left;"> levien-simd </text><rect x="680" y="125" width="20" height="20" ry="2" style="fill:rgb(128,214,87);stroke:none;fill-opacity:1;stroke-opacity:1;" /><text x="705" y="138" style="font-size:10px;fill:rgb(255,255,255);text-anchor:start;text-align:left;"> linear </text><rect x="680" y="146" width="20" height="20" ry="2" style="fill:rgb(255,238,101);stroke:none;fill-opacity:1;stroke-opacity:1;" /><text x="705" y="159" style="font-size:10px;fill:rgb(255,255,255);text-anchor:start;text-align:left;"> recursive </text><rect x="680" y="167" width="20" height="20" ry="2" style="fill:rgb(253,204,229);stroke:none;fill-opacity:1;stroke-opacity:1;" /><text x="705" y="180" style="font-size:10px;fill:rgb(255,255,255);text-anchor:start;text-align:left;"> wang </text><rect x="680" y="188" width="20" height="20" ry="2" style="fill:rgb(199,126,190);stroke:none;fill-opacity:1;stroke-opacity:1;" /><text x="705" y="201" style="font-size:10px;fill:rgb(255,255,255);text-anchor:start;text-align:left;"> wang-simd </text><text x="400" y="30" style="font-size:20px;fill:rgb(255,255,255);text-anchor:middle;text-align:center;"> font dataset: cubic </text><text x="400" y="42" style="font-size:8px;fill:rgb(200,200,200);text-anchor:middle;text-align:center;"> Normalized performance score (lower is better) </text></svg>