<svg xmlns="http://www.w3.org/2000/svg" viewBox="0 0 800 300"><rect x="0" y="0" width="800" height="300" ry="6" style="fill:rgb(30,30,30);stroke:none;fill-opacity:1;stroke-opacity:1;" /><path d="M 30 20 L 30 270" style="stroke:rgb(200,200,200);stroke-width:1" /><path d="M 30 270 L 780 270" style="stroke:rgb(200,200,200);stroke-width:1" /><path d="M 780 270 L 780 272" style="stroke:rgb(200,200,200);stroke-width:1" /><text x="780" y="282" style="font-size:10px;fill:rgb(200,200,200);text-anchor:middle;text-align:center;"> 0.01 </text><path d="M 630.77246 270 L 630.77246 272" style="stroke:rgb(200,200,200);stroke-width:1" /><text x="630.77246" y="282" style="font-size:10px;fill:rgb(200,200,200);text-anchor:middle;text-align:center;"> 0.025 </text><path d="M 517.8862 270 L 517.8862 272" style="stroke:rgb(200,200,200);stroke-width:1" /><text x="517.8862" y="282" style="font-size:10px;fill:rgb(200,200,200);text-anchor:middle;text-align:center;"> 0.05 </text><path d="M 451.85202 270 L 451.85202 272" style="stroke:rgb(200,200,200);stroke-width:1" /><text x="451.85202" y="282" style="font-size:10px;fill:rgb(200,200,200);text-anchor:middle;text-align:center;"> 0.075 </text><path d="M 405 270 L 405 272" style="stroke:rgb(200,200,200);stroke-width:1" /><text x="405" y="282" style="font-size:10px;fill:rgb(200,200,200);text-anchor:middle;text-align:center;"> 0.1 </text><path d="M 338.96576 270 L 338.96576 272" style="stroke:rgb(200,200,200);stroke-width:1" /><text x="338.96576" y="282" style="font-size:10px;fill:rgb(200,200,200);text-anchor:middle;text-align:center;"> 0.15 </text><path d="M 292.11377 270 L 292.11377 272" style="stroke:rgb(200,200,200);stroke-width:1" /><text x="292.11377" y="282" style="font-size:10px;fill:rgb(200,200,200);text-anchor:middle;text-align:center;"> 0.2 </text><path d="M 255.7725 270 L 255.7725 272" style="stroke:rgb(200,200,200);stroke-width:1" /><text x="255.7725" y="282" style="font-size:10px;fill:rgb(200,200,200);text-anchor:middle;text-align:center;"> 0.25 </text><path d="M 142.88626 270 L 142.88626 272" style="stroke:rgb(200,200,200);stroke-width:1" /><text x="142.88626" y="282" style="font-size:10px;fill:rgb(200,200,200);text-anchor:middle;text-align:center;"> 0.5 </text><path d="M 30 270 L 30 272" style="stroke:rgb(200,200,200);stroke-width:1" /><text x="30" y="282" style="font-size:10px;fill:rgb(200,200,200);text-anchor:middle;text-align:center;"> 1 </text><path d="M 28 270 L 30 270" style="stroke:rgb(200,200,200);stroke-width:1" /><text x="26" y="274" style="font-size:10px;fill:rgb(200,200,200);text-anchor:end;text-align:right;"> 0 </text><path d="M 28 207.5 L 30 207.5" style="stroke:rgb(200,200,200);stroke-width:1" /><text x="26" y="211.5" style="font-size:10px;fill:rgb(200,200,200);text-anchor:end;text-align:right;"> 0.25 </text><path d="M 28 145 L 30 145" style="stroke:rgb(200,200,200);stroke-width:1" /><text x="26" y="149" style="font-size:10px;fill:rgb(200,200,200);text-anchor:end;text-align:right;"> 0.5 </text><path d="M 28 82.5 L 30 82.5" style="stroke:rgb(200,200,200);stroke-width:1" /><text x="26" y="86.5" style="font-size:10px;fill:rgb(200,200,200);text-anchor:end;text-align:right;"> 0.75 </text><path d="M 28 20 L 30 20" style="stroke:rgb(200,200,200);stroke-width:1" /><text x="26" y="24" style="font-size:10px;fill:rgb(200,200,200);text-anchor:end;text-align:right;"> 1 </text><text x="400" y="294" style="font-size:10px;fill:rgb(200,200,200);text-anchor:middle;text-align:center;"> Tolerance </text><circle cx="780" cy="22.615005" r="2" style="fill:rgb(128,214,87);stroke:none;fill-opacity:1;stroke-opacity:1;" /><path d="M 780 22.615005 L 630.77246 120.182495" style="stroke:rgb(128,214,87);stroke-width:1" /><circle cx="630.77246" cy="120.182495" r="2" style="fill:rgb(128,214,87);stroke:none;fill-opacity:1;stroke-opacity:1;" /><path d="M 630.77246 120.182495 L 517.8862 171.9" style="stroke:rgb(128,214,87);stroke-width:1" /><circle cx="517.8862" cy="171.9" r="2" style="fill:rgb(128,214,87);stroke:none;fill-opacity:1;stroke-opacity:1;" /><path d="M 517.8862 171.9 L 451.85202 197" style="stroke:rgb(128,214,87);stroke-width:1" /><circle cx="451.85202" cy="197" r="2" style="fill:rgb(128,214,87);stroke:none;fill-opacity:1;stroke-opacity:1;" /><path d="M 451.85202 197 L 405 212.5575" style="stroke:rgb(128,214,87);stroke-width:1" /><circle cx="405" cy="212.5575" r="2" style="fill:rgb(128,214,87);stroke:none;fill-opacity:1;stroke-opacity:1;" /><path d="M 405 212.5575 L 338.96576 229.95" style="stroke:rgb(128,214,87);stroke-width:1" /><circle cx="338.96576" cy="229.95" r="2" style="fill:rgb(128,214,87);stroke:none;fill-opacity:1;stroke-opacity:1;" /><path d="M 338.96576 229.95 L 292.11377 237.855" style="stroke:rgb(128,214,87);stroke-width:1" /><circle cx="292.11377" cy="237.855" r="2" style="fill:rgb(128,214,87);stroke:none;fill-opacity:1;stroke-opacity:1;" /><path d="M 292.11377 237.855 L 255.7725 243.02" style="stroke:rgb(128,214,87);stroke-width:1" /><circle cx="255.7725" cy="243.02" r="2" style="fill:rgb(128,214,87);stroke:none;fill-opacity:1;stroke-opacity:1;" /><path d="M 255.7725 243.02 L 142.88626 253.1" style="stroke:rgb(128,214,87);stroke-width:1" /><circle cx="142.88626" cy="253.1" r="2" style="fill:rgb(128,214,87);stroke:none;fill-opacity:1;stroke-opacity:1;" /><path d="M 142.88626 253.1 L 30 257.8325" style="stroke:rgb(128,214,87);stroke-width:1" /><circle cx="30" cy="257.8325" r="2" style="fill:rgb(128,214,87);stroke:none;fill-opacity:1;stroke-opacity:1;" /><circle cx="780" cy="48.0775" r="2" style="fill:rgb(255,238,101);stroke:none;fill-opacity:1;stroke-opacity:1;" /><path d="M 780 48.0775 L 630.77246 122.8475" style="stroke:rgb(255,238,101);stroke-width:1" /><circle cx="630.77246" cy="122.8475" r="2" style="fill:rgb(255,238,101);stroke:none;fill-opacity:1;stroke-opacity:1;" /><path d="M 630.77246 122.8475 L 517.8862 165.91501" style="stroke:rgb(255,238,101);stroke-width:1" /><circle cx="517.8862" cy="165.91501" r="2" style="fill:rgb(255,238,101);stroke:none;fill-opacity:1;stroke-opacity:1;" /><path d="M 517.8862 165.91501 L 451.85202 185.08249" style="stroke:rgb(255,238,101);stroke-width:1" /><circle cx="451.85202" cy="185.08249" r="2" style="fill:rgb(255,238,101);stroke:none;fill-opacity:1;stroke-opacity:1;" /><path d="M 451.85202 185.08249 L 405 198.3425" style="stroke:rgb(255,238,101);stroke-width:1" /><circle cx="405" cy="198.3425" r="2" style="fill:rgb(255,238,101);stroke:none;fill-opacity:1;stroke-opacity:1;" /><path d="M 405 198.3425 L 338.96576 216.0975" style="stroke:rgb(255,238,101);stroke-width:1" /><circle cx="338.96576" cy="216.0975" r="2" style="fill:rgb(255,238,101);stroke:none;fill-opacity:1;stroke-opacity:1;" /><path d="M 338.96576 216.0975 L 292.11377 226.01" style="stroke:rgb(255,238,101);stroke-width:1" /><circle cx="292.11377" cy="226.01" r="2" style="fill:rgb(255,238,101);stroke:none;fill-opacity:1;stroke-opacity:1;" /><path d="M 292.11377 226.01 L 255.7725 232.57" style="stroke:rgb(255,238,101);stroke-width:1" /><circle cx="255.7725" cy="232.57" r="2" style="fill:rgb(255,238,101);stroke:none;fill-opacity:1;stroke-opacity:1;" /><path d="M 255.7725 232.57 L 142.88626 247.905" style="stroke:rgb(255,238,101);stroke-width:1" /><circle cx="142.88626" cy="247.905" r="2" style="fill:rgb(255,238,101);stroke:none;fill-opacity:1;stroke-opacity:1;" /><path d="M 142.88626 247.905 L 30 254.6925" style="stroke:rgb(255,238,101);stroke-width:1" /><circle cx="30" cy="254.6925" r="2" style="fill:rgb(255,238,101);stroke:none;fill-opacity:1;stroke-opacity:1;" /><circle cx="780" cy="131.1125" r="2" style="fill:rgb(126,176,213);stroke:none;fill-opacity:1;stroke-opacity:1;" /><path d="M 780 131.1125 L 630.77246 141.875" style="stroke:rgb(126,176,213);stroke-width:1" /><circle cx="630.77246" cy="141.875" r="2" style="fill:rgb(126,176,213);stroke:none;fill-opacity:1;stroke-opacity:1;" /><path d="M 630.77246 141.875 L 517.8862 154.4125" style="stroke:rgb(126,176,213);stroke-width:1" /><circle cx="517.8862" cy="154.4125" r="2" style="fill:rgb(126,176,213);stroke:none;fill-opacity:1;stroke-opacity:1;" /><path d="M 517.8862 154.4125 L 451.85202 166.79001" style="stroke:rgb(126,176,213);stroke-width:1" /><circle cx="451.85202" cy="166.79001" r="2" style="fill:rgb(126,176,213);stroke:none;fill-opacity:1;stroke-opacity:1;" /><path d="M 451.85202 166.79001 L 405 174.57" style="stroke:rgb(126,176,213);stroke-width:1" /><circle cx="405" cy="174.57" r="2" style="fill:rgb(126,176,213);stroke:none;fill-opacity:1;stroke-opacity:1;" /><path d="M 405 174.57 L 338.96576 187.88501" style="stroke:rgb(126,176,213);stroke-width:1" /><circle cx="338.96576" cy="187.88501" r="2" style="fill:rgb(126,176,213);stroke:none;fill-opacity:1;stroke-opacity:1;" /><path d="M 338.96576 187.88501 L 292.11377 195.58" style="stroke:rgb(126,176,213);stroke-width:1" /><circle cx="292.11377" cy="195.58" r="2" style="fill:rgb(126,176,213);stroke:none;fill-opacity:1;stroke-opacity:1;" /><path d="M 292.11377 195.58 L 255.7725 200.88" style="stroke:rgb(126,176,213);stroke-width:1" /><circle cx="255.7725" cy="200.88" r="2" style="fill:rgb(126,176,213);stroke:none;fill-opacity:1;stroke-opacity:1;" /><path d="M 255.7725 200.88 L 142.88626 213.6175" style="stroke:rgb(126,176,213);stroke-width:1" /><circle cx="142.88626" cy="213.6175" r="2" style="fill:rgb(126,176,213);stroke:none;fill-opacity:1;stroke-opacity:1;" /><path d="M 142.88626 213.6175 L 30 220.885" style="stroke:rgb(126,176,213);stroke-width:1" /><circle cx="30" cy="220.885" r="2" style="fill:rgb(126,176,213);stroke:none;fill-opacity:1;stroke-opacity:1;" /><circle cx="780" cy="175.625" r="2" style="fill:rgb(253,204,229);stroke:none;fill-opacity:1;stroke-opacity:1;" /><path d="M 780 175.625 L 630.77246 183.945" style="stroke:rgb(253,204,229);stroke-width:1" /><circle cx="630.77246" cy="183.945" r="2" style="fill:rgb(253,204,229);stroke:none;fill-opacity:1;stroke-opacity:1;" /><path d="M 630.77246 183.945 L 517.8862 196.025" style="stroke:rgb(253,204,229);stroke-width:1" /><circle cx="517.8862" cy="196.025" r="2" style="fill:rgb(253,204,229);stroke:none;fill-opacity:1;stroke-opacity:1;" /><path d="M 517.8862 196.025 L 451.85202 206.5375" style="stroke:rgb(253,204,229);stroke-width:1" /><circle cx="451.85202" cy="206.5375" r="2" style="fill:rgb(253,204,229);stroke:none;fill-opacity:1;stroke-opacity:1;" /><path d="M 451.85202 206.5375 L 405 212.145" style="stroke:rgb(253,204,229);stroke-width:1" /><circle cx="405" cy="212.145" r="2" style="fill:rgb(253,204,229);stroke:none;fill-opacity:1;stroke-opacity:1;" /><path d="M 405 212.145 L 338.96576 224.3025" style="stroke:rgb(253,204,229);stroke-width:1" /><circle cx="338.96576" cy="224.3025" r="2" style="fill:rgb(253,204,229);stroke:none;fill-opacity:1;stroke-opacity:1;" /><path d="M 338.96576 224.3025 L 292.11377 231.35" style="stroke:rgb(253,204,229);stroke-width:1" /><circle cx="292.11377" cy="231.35" r="2" style="fill:rgb(253,204,229);stroke:none;fill-opacity:1;stroke-opacity:1;" /><path d="M 292.11377 231.35 L 255.7725 234.3925" style="stroke:rgb(253,204,229);stroke-width:1" /><circle cx="255.7725" cy="234.3925" r="2" style="fill:rgb(253,204,229);stroke:none;fill-opacity:1;stroke-opacity:1;" /><path d="M 255.7725 234.3925 L 142.88626 243.16" style="stroke:rgb(253,204,229);stroke-width:1" /><circle cx="142.88626" cy="243.16" r="2" style="fill:rgb(253,204,229);stroke:none;fill-opacity:1;stroke-opacity:1;" /><path d="M 142.88626 243.16 L 30 247.86" style="stroke:rgb(253,204,229);stroke-width:1" /><circle cx="30" cy="247.86" r="2" style="fill:rgb(253,204,229);stroke:none;fill-opacity:1;stroke-opacity:1;" /><circle cx="780" cy="175.625" r="2" style="fill:rgb(253,127,111);stroke:none;fill-opacity:1;stroke-opacity:1;" /><path d="M 780 175.625 L 630.77246 185.735" style="stroke:rgb(253,127,111);stroke-width:1" /><circle cx="630.77246" cy="185.735" r="2" style="fill:rgb(253,127,111);stroke:none;fill-opacity:1;stroke-opacity:1;" /><path d="M 630.77246 185.735 L 517.8862 197.89749" style="stroke:rgb(253,127,111);stroke-width:1" /><circle cx="517.8862" cy="197.89749" r="2" style="fill:rgb(253,127,111);stroke:none;fill-opacity:1;stroke-opacity:1;" /><path d="M 517.8862 197.89749 L 451.85202 208.295" style="stroke:rgb(253,127,111);stroke-width:1" /><circle cx="451.85202" cy="208.295" r="2" style="fill:rgb(253,127,111);stroke:none;fill-opacity:1;stroke-opacity:1;" /><path d="M 451.85202 208.295 L 405 214.2125" style="stroke:rgb(253,127,111);stroke-width:1" /><circle cx="405" cy="214.2125" r="2" style="fill:rgb(253,127,111);stroke:none;fill-opacity:1;stroke-opacity:1;" /><path d="M 405 214.2125 L 338.96576 223.6625" style="stroke:rgb(253,127,111);stroke-width:1" /><circle cx="338.96576" cy="223.6625" r="2" style="fill:rgb(253,127,111);stroke:none;fill-opacity:1;stroke-opacity:1;" /><path d="M 338.96576 223.6625 L 292.11377 230.115" style="stroke:rgb(253,127,111);stroke-width:1" /><circle cx="292.11377" cy="230.115" r="2" style="fill:rgb(253,127,111);stroke:none;fill-opacity:1;stroke-opacity:1;" /><path d="M 292.11377 230.115 L 255.7725 233.125" style="stroke:rgb(253,127,111);stroke-width:1" /><circle cx="255.7725" cy="233.125" r="2" style="fill:rgb(253,127,111);stroke:none;fill-opacity:1;stroke-opacity:1;" /><path d="M 255.7725 233.125 L 142.88626 242.8725" style="stroke:rgb(253,127,111);stroke-width:1" /><circle cx="142.88626" cy="242.8725" r="2" style="fill:rgb(253,127,111);stroke:none;fill-opacity:1;stroke-opacity:1;" /><path d="M 142.88626 242.8725 L 30 247.9975" style="stroke:rgb(253,127,111);stroke-width:1" /><circle cx="30" cy="247.9975" r="2" style="fill:rgb(253,127,111);stroke:none;fill-opacity:1;stroke-opacity:1;" /><circle cx="780" cy="20" r="2" style="fill:rgb(50,125,209);stroke:none;fill-opacity:1;stroke-opacity:1;" /><path d="M 780 20 L 630.77246 59.880005" style="stroke:rgb(50,125,209);stroke-width:1" /><circle cx="630.77246" cy="59.880005" r="2" style="fill:rgb(50,125,209);stroke:none;fill-opacity:1;stroke-opacity:1;" /><path d="M 630.77246 59.880005 L 517.8862 84.39" style="stroke:rgb(50,125,209);stroke-width:1" /><circle cx="517.8862" cy="84.39" r="2" style="fill:rgb(50,125,209);stroke:none;fill-opacity:1;stroke-opacity:1;" /><path d="M 517.8862 84.39 L 451.85202 99.94501" style="stroke:rgb(50,125,209);stroke-width:1" /><circle cx="451.85202" cy="99.94501" r="2" style="fill:rgb(50,125,209);stroke:none;fill-opacity:1;stroke-opacity:1;" /><path d="M 451.85202 99.94501 L 405 109.274994" style="stroke:rgb(50,125,209);stroke-width:1" /><circle cx="405" cy="109.274994" r="2" style="fill:rgb(50,125,209);stroke:none;fill-opacity:1;stroke-opacity:1;" /><path d="M 405 109.274994 L 338.96576 123.770004" style="stroke:rgb(50,125,209);stroke-width:1" /><circle cx="338.96576" cy="123.770004" r="2" style="fill:rgb(50,125,209);stroke:none;fill-opacity:1;stroke-opacity:1;" /><path d="M 338.96576 123.770004 L 292.11377 134.9625" style="stroke:rgb(50,125,209);stroke-width:1" /><circle cx="292.11377" cy="134.9625" r="2" style="fill:rgb(50,125,209);stroke:none;fill-opacity:1;stroke-opacity:1;" /><path d="M 292.11377 134.9625 L 255.7725 143.2025" style="stroke:rgb(50,125,209);stroke-width:1" /><circle cx="255.7725" cy="143.2025" r="2" style="fill:rgb(50,125,209);stroke:none;fill-opacity:1;stroke-opacity:1;" /><path d="M 255.7725 143.2025 L 142.88626 161.8725" style="stroke:rgb(50,125,209);stroke-width:1" /><circle cx="142.88626" cy="161.8725" r="2" style="fill:rgb(50,125,209);stroke:none;fill-opacity:1;stroke-opacity:1;" /><path d="M 142.88626 161.8725 L 30 172.5275" style="stroke:rgb(50,125,209);stroke-width:1" /><circle cx="30" cy="172.5275" r="2" style="fill:rgb(50,125,209);stroke:none;fill-opacity:1;stroke-opacity:1;" /><rect x="676" y="16" width="80" height="133" ry="4" style="fill:rgb(30,30,30);stroke:none;fill-opacity:0.8;stroke-opacity:1;" /><rect x="680" y="20" width="20" height="20" ry="2" style="fill:rgb(253,127,111);stroke:none;fill-opacity:1;stroke-opacity:1;" /><text x="705" y="33" style="font-size:10px;fill:rgb(255,255,255);text-anchor:start;text-align:left;"> fwd-diff </text><rect x="680" y="41" width="20" height="20" ry="2" style="fill:rgb(50,125,209);stroke:none;fill-opacity:1;stroke-opacity:1;" /><text x="705" y="54" style="font-size:10px;fill:rgb(255,255,255);text-anchor:start;text-align:left;"> levien </text><rect x="680" y="62" width="20" height="20" ry="2" style="fill:rgb(126,176,213);stroke:none;fill-opacity:1;stroke-opacity:1;" /><text x="705" y="75" style="font-size:10px;fill:rgb(255,255,255);text-anchor:start;text-align:left;"> levien-simd </text><rect x="680" y="83" width="20" height="20" ry="2" style="fill:rgb(128,214,87);stroke:none;fill-opacity:1;stroke-opacity:1;" /><text x="705" y="96" style="font-size:10px;fill:rgb(255,255,255);text-anchor:start;text-align:left;"> linear </text><rect x="680" y="104" width="20" height="20" ry="2" style="fill:rgb(255,238,101);stroke:none;fill-opacity:1;stroke-opacity:1;" /><text x="705" y="117" style="font-size:10px;fill:rgb(255,255,255);text-anchor:start;text-align:left;"> recursive </text><rect x="680" y="125" width="20" height="20" ry="2" style="fill:rgb(253,204,229);stroke:none;fill-opacity:1;stroke-opacity:1;" /><text x="705" y="138" style="font-size:10px;fill:rgb(255,255,255);text-anchor:start;text-align:left;"> wang </text><text x="400" y="30" style="font-size:20px;fill:rgb(255,255,255);text-anchor:middle;text-align:center;"> inkscape dataset: quadratic </text><text x="400" y="42" style="font-size:8px;fill:rgb(200,200,200);text-anchor:middle;text-align:center;"> Normalized performance score (lower is better) </text></svg>