<svg xmlns="http://www.w3.org/2000/svg" viewBox="0 0 800 300"><rect x="0" y="0" width="800" height="300" ry="6" style="fill:rgb(30,30,30);stroke:none;fill-opacity:1;stroke-opacity:1;" /><path d="M 30 20 L 30 270" style="stroke:rgb(200,200,200);stroke-width:1" /><path d="M 30 270 L 780 270" style="stroke:rgb(200,200,200);stroke-width:1" /><path d="M 780 270 L 780 272" style="stroke:rgb(200,200,200);stroke-width:1" /><text x="780" y="282" style="font-size:10px;fill:rgb(200,200,200);text-anchor:middle;text-align:center;"> 0.01 </text><path d="M 630.77246 270 L 630.77246 272" style="stroke:rgb(200,200,200);stroke-width:1" /><text x="630.77246" y="282" style="font-size:10px;fill:rgb(200,200,200);text-anchor:middle;text-align:center;"> 0.025 </text><path d="M 517.8862 270 L 517.8862 272" style="stroke:rgb(200,200,200);stroke-width:1" /><text x="517.8862" y="282" style="font-size:10px;fill:rgb(200,200,200);text-anchor:middle;text-align:center;"> 0.05 </text><path d="M 451.85202 270 L 451.85202 272" style="stroke:rgb(200,200,200);stroke-width:1" /><text x="451.85202" y="282" style="font-size:10px;fill:rgb(200,200,200);text-anchor:middle;text-align:center;"> 0.075 </text><path d="M 405 270 L 405 272" style="stroke:rgb(200,200,200);stroke-width:1" /><text x="405" y="282" style="font-size:10px;fill:rgb(200,200,200);text-anchor:middle;text-align:center;"> 0.1 </text><path d="M 338.96576 270 L 338.96576 272" style="stroke:rgb(200,200,200);stroke-width:1" /><text x="338.96576" y="282" style="font-size:10px;fill:rgb(200,200,200);text-anchor:middle;text-align:center;"> 0.15 </text><path d="M 292.11377 270 L 292.11377 272" style="stroke:rgb(200,200,200);stroke-width:1" /><text x="292.11377" y="282" style="font-size:10px;fill:rgb(200,200,200);text-anchor:middle;text-align:center;"> 0.2 </text><path d="M 255.7725 270 L 255.7725 272" style="stroke:rgb(200,200,200);stroke-width:1" /><text x="255.7725" y="282" style="font-size:10px;fill:rgb(200,200,200);text-anchor:middle;text-align:center;"> 0.25 </text><path d="M 142.88626 270 L 142.88626 272" style="stroke:rgb(200,200,200);stroke-width:1" /><text x="142.88626" y="282" style="font-size:10px;fill:rgb(200,200,200);text-anchor:middle;text-align:center;"> 0.5 </text><path d="M 30 270 L 30 272" style="stroke:rgb(200,200,200);stroke-width:1" /><text x="30" y="282" style="font-size:10px;fill:rgb(200,200,200);text-anchor:middle;text-align:center;"> 1 </text><path d="M 28 270 L 30 270" style="stroke:rgb(200,200,200);stroke-width:1" /><text x="26" y="274" style="font-size:10px;fill:rgb(200,200,200);text-anchor:end;text-align:right;"> 0 </text><path d="M 28 207.5 L 30 207.5" style="stroke:rgb(200,200,200);stroke-width:1" /><text x="26" y="211.5" style="font-size:10px;fill:rgb(200,200,200);text-anchor:end;text-align:right;"> 0.25 </text><path d="M 28 145 L 30 145" style="stroke:rgb(200,200,200);stroke-width:1" /><text x="26" y="149" style="font-size:10px;fill:rgb(200,200,200);text-anchor:end;text-align:right;"> 0.5 </text><path d="M 28 82.5 L 30 82.5" style="stroke:rgb(200,200,200);stroke-width:1" /><text x="26" y="86.5" style="font-size:10px;fill:rgb(200,200,200);text-anchor:end;text-align:right;"> 0.75 </text><path d="M 28 20 L 30 20" style="stroke:rgb(200,200,200);stroke-width:1" /><text x="26" y="24" style="font-size:10px;fill:rgb(200,200,200);text-anchor:end;text-align:right;"> 1 </text><text x="400" y="294" style="font-size:10px;fill:rgb(200,200,200);text-anchor:middle;text-align:center;"> Tolerance </text><circle cx="780" cy="177.3725" r="2" style="fill:rgb(119,211,179);stroke:none;fill-opacity:1;stroke-opacity:1;" /><path d="M 780 177.3725 L 630.77246 230.36" style="stroke:rgb(119,211,179);stroke-width:1" /><circle cx="630.77246" cy="230.36" r="2" style="fill:rgb(119,211,179);stroke:none;fill-opacity:1;stroke-opacity:1;" /><path d="M 630.77246 230.36 L 517.8862 245" style="stroke:rgb(119,211,179);stroke-width:1" /><circle cx="517.8862" cy="245" r="2" style="fill:rgb(119,211,179);stroke:none;fill-opacity:1;stroke-opacity:1;" /><path d="M 517.8862 245 L 451.85202 248.7825" style="stroke:rgb(119,211,179);stroke-width:1" /><circle cx="451.85202" cy="248.7825" r="2" style="fill:rgb(119,211,179);stroke:none;fill-opacity:1;stroke-opacity:1;" /><path d="M 451.85202 248.7825 L 405 249.95" style="stroke:rgb(119,211,179);stroke-width:1" /><circle cx="405" cy="249.95" r="2" style="fill:rgb(119,211,179);stroke:none;fill-opacity:1;stroke-opacity:1;" /><path d="M 405 249.95 L 338.96576 248.9275" style="stroke:rgb(119,211,179);stroke-width:1" /><circle cx="338.96576" cy="248.9275" r="2" style="fill:rgb(119,211,179);stroke:none;fill-opacity:1;stroke-opacity:1;" /><path d="M 338.96576 248.9275 L 292.11377 247.23" style="stroke:rgb(119,211,179);stroke-width:1" /><circle cx="292.11377" cy="247.23" r="2" style="fill:rgb(119,211,179);stroke:none;fill-opacity:1;stroke-opacity:1;" /><path d="M 292.11377 247.23 L 255.7725 246.7025" style="stroke:rgb(119,211,179);stroke-width:1" /><circle cx="255.7725" cy="246.7025" r="2" style="fill:rgb(119,211,179);stroke:none;fill-opacity:1;stroke-opacity:1;" /><path d="M 255.7725 246.7025 L 142.88626 253.5075" style="stroke:rgb(119,211,179);stroke-width:1" /><circle cx="142.88626" cy="253.5075" r="2" style="fill:rgb(119,211,179);stroke:none;fill-opacity:1;stroke-opacity:1;" /><path d="M 142.88626 253.5075 L 30 259.57" style="stroke:rgb(119,211,179);stroke-width:1" /><circle cx="30" cy="259.57" r="2" style="fill:rgb(119,211,179);stroke:none;fill-opacity:1;stroke-opacity:1;" /><circle cx="780" cy="179.92" r="2" style="fill:rgb(255,181,90);stroke:none;fill-opacity:1;stroke-opacity:1;" /><path d="M 780 179.92 L 630.77246 205.6275" style="stroke:rgb(255,181,90);stroke-width:1" /><circle cx="630.77246" cy="205.6275" r="2" style="fill:rgb(255,181,90);stroke:none;fill-opacity:1;stroke-opacity:1;" /><path d="M 630.77246 205.6275 L 517.8862 215.8575" style="stroke:rgb(255,181,90);stroke-width:1" /><circle cx="517.8862" cy="215.8575" r="2" style="fill:rgb(255,181,90);stroke:none;fill-opacity:1;stroke-opacity:1;" /><path d="M 517.8862 215.8575 L 451.85202 220.1275" style="stroke:rgb(255,181,90);stroke-width:1" /><circle cx="451.85202" cy="220.1275" r="2" style="fill:rgb(255,181,90);stroke:none;fill-opacity:1;stroke-opacity:1;" /><path d="M 451.85202 220.1275 L 405 221.865" style="stroke:rgb(255,181,90);stroke-width:1" /><circle cx="405" cy="221.865" r="2" style="fill:rgb(255,181,90);stroke:none;fill-opacity:1;stroke-opacity:1;" /><path d="M 405 221.865 L 338.96576 223.10251" style="stroke:rgb(255,181,90);stroke-width:1" /><circle cx="338.96576" cy="223.10251" r="2" style="fill:rgb(255,181,90);stroke:none;fill-opacity:1;stroke-opacity:1;" /><path d="M 338.96576 223.10251 L 292.11377 222.8125" style="stroke:rgb(255,181,90);stroke-width:1" /><circle cx="292.11377" cy="222.8125" r="2" style="fill:rgb(255,181,90);stroke:none;fill-opacity:1;stroke-opacity:1;" /><path d="M 292.11377 222.8125 L 255.7725 221.6725" style="stroke:rgb(255,181,90);stroke-width:1" /><circle cx="255.7725" cy="221.6725" r="2" style="fill:rgb(255,181,90);stroke:none;fill-opacity:1;stroke-opacity:1;" /><path d="M 255.7725 221.6725 L 142.88626 226.945" style="stroke:rgb(255,181,90);stroke-width:1" /><circle cx="142.88626" cy="226.945" r="2" style="fill:rgb(255,181,90);stroke:none;fill-opacity:1;stroke-opacity:1;" /><path d="M 142.88626 226.945 L 30 228.3425" style="stroke:rgb(255,181,90);stroke-width:1" /><circle cx="30" cy="228.3425" r="2" style="fill:rgb(255,181,90);stroke:none;fill-opacity:1;stroke-opacity:1;" /><circle cx="780" cy="229.005" r="2" style="fill:rgb(199,126,190);stroke:none;fill-opacity:1;stroke-opacity:1;" /><path d="M 780 229.005 L 630.77246 230.6975" style="stroke:rgb(199,126,190);stroke-width:1" /><circle cx="630.77246" cy="230.6975" r="2" style="fill:rgb(199,126,190);stroke:none;fill-opacity:1;stroke-opacity:1;" /><path d="M 630.77246 230.6975 L 517.8862 233.0275" style="stroke:rgb(199,126,190);stroke-width:1" /><circle cx="517.8862" cy="233.0275" r="2" style="fill:rgb(199,126,190);stroke:none;fill-opacity:1;stroke-opacity:1;" /><path d="M 517.8862 233.0275 L 451.85202 237.0325" style="stroke:rgb(199,126,190);stroke-width:1" /><circle cx="451.85202" cy="237.0325" r="2" style="fill:rgb(199,126,190);stroke:none;fill-opacity:1;stroke-opacity:1;" /><path d="M 451.85202 237.0325 L 405 239.08499" style="stroke:rgb(199,126,190);stroke-width:1" /><circle cx="405" cy="239.08499" r="2" style="fill:rgb(199,126,190);stroke:none;fill-opacity:1;stroke-opacity:1;" /><path d="M 405 239.08499 L 338.96576 242.8625" style="stroke:rgb(199,126,190);stroke-width:1" /><circle cx="338.96576" cy="242.8625" r="2" style="fill:rgb(199,126,190);stroke:none;fill-opacity:1;stroke-opacity:1;" /><path d="M 338.96576 242.8625 L 292.11377 245.68" style="stroke:rgb(199,126,190);stroke-width:1" /><circle cx="292.11377" cy="245.68" r="2" style="fill:rgb(199,126,190);stroke:none;fill-opacity:1;stroke-opacity:1;" /><path d="M 292.11377 245.68 L 255.7725 247.29001" style="stroke:rgb(199,126,190);stroke-width:1" /><circle cx="255.7725" cy="247.29001" r="2" style="fill:rgb(199,126,190);stroke:none;fill-opacity:1;stroke-opacity:1;" /><path d="M 255.7725 247.29001 L 142.88626 250.0475" style="stroke:rgb(199,126,190);stroke-width:1" /><circle cx="142.88626" cy="250.0475" r="2" style="fill:rgb(199,126,190);stroke:none;fill-opacity:1;stroke-opacity:1;" /><path d="M 142.88626 250.0475 L 30 250.9975" style="stroke:rgb(199,126,190);stroke-width:1" /><circle cx="30" cy="250.9975" r="2" style="fill:rgb(199,126,190);stroke:none;fill-opacity:1;stroke-opacity:1;" /><circle cx="780" cy="216.52249" r="2" style="fill:rgb(128,214,87);stroke:none;fill-opacity:1;stroke-opacity:1;" /><path d="M 780 216.52249 L 630.77246 238.9075" style="stroke:rgb(128,214,87);stroke-width:1" /><circle cx="630.77246" cy="238.9075" r="2" style="fill:rgb(128,214,87);stroke:none;fill-opacity:1;stroke-opacity:1;" /><path d="M 630.77246 238.9075 L 517.8862 246.6725" style="stroke:rgb(128,214,87);stroke-width:1" /><circle cx="517.8862" cy="246.6725" r="2" style="fill:rgb(128,214,87);stroke:none;fill-opacity:1;stroke-opacity:1;" /><path d="M 517.8862 246.6725 L 451.85202 249.965" style="stroke:rgb(128,214,87);stroke-width:1" /><circle cx="451.85202" cy="249.965" r="2" style="fill:rgb(128,214,87);stroke:none;fill-opacity:1;stroke-opacity:1;" /><path d="M 451.85202 249.965 L 405 250.93" style="stroke:rgb(128,214,87);stroke-width:1" /><circle cx="405" cy="250.93" r="2" style="fill:rgb(128,214,87);stroke:none;fill-opacity:1;stroke-opacity:1;" /><path d="M 405 250.93 L 338.96576 249.92" style="stroke:rgb(128,214,87);stroke-width:1" /><circle cx="338.96576" cy="249.92" r="2" style="fill:rgb(128,214,87);stroke:none;fill-opacity:1;stroke-opacity:1;" /><path d="M 338.96576 249.92 L 292.11377 248.4475" style="stroke:rgb(128,214,87);stroke-width:1" /><circle cx="292.11377" cy="248.4475" r="2" style="fill:rgb(128,214,87);stroke:none;fill-opacity:1;stroke-opacity:1;" /><path d="M 292.11377 248.4475 L 255.7725 248.105" style="stroke:rgb(128,214,87);stroke-width:1" /><circle cx="255.7725" cy="248.105" r="2" style="fill:rgb(128,214,87);stroke:none;fill-opacity:1;stroke-opacity:1;" /><path d="M 255.7725 248.105 L 142.88626 254.4825" style="stroke:rgb(128,214,87);stroke-width:1" /><circle cx="142.88626" cy="254.4825" r="2" style="fill:rgb(128,214,87);stroke:none;fill-opacity:1;stroke-opacity:1;" /><path d="M 142.88626 254.4825 L 30 260.3875" style="stroke:rgb(128,214,87);stroke-width:1" /><circle cx="30" cy="260.3875" r="2" style="fill:rgb(128,214,87);stroke:none;fill-opacity:1;stroke-opacity:1;" /><circle cx="780" cy="52.945007" r="2" style="fill:rgb(126,176,213);stroke:none;fill-opacity:1;stroke-opacity:1;" /><path d="M 780 52.945007 L 630.77246 67.369995" style="stroke:rgb(126,176,213);stroke-width:1" /><circle cx="630.77246" cy="67.369995" r="2" style="fill:rgb(126,176,213);stroke:none;fill-opacity:1;stroke-opacity:1;" /><path d="M 630.77246 67.369995 L 517.8862 73.7825" style="stroke:rgb(126,176,213);stroke-width:1" /><circle cx="517.8862" cy="73.7825" r="2" style="fill:rgb(126,176,213);stroke:none;fill-opacity:1;stroke-opacity:1;" /><path d="M 517.8862 73.7825 L 451.85202 80.97749" style="stroke:rgb(126,176,213);stroke-width:1" /><circle cx="451.85202" cy="80.97749" r="2" style="fill:rgb(126,176,213);stroke:none;fill-opacity:1;stroke-opacity:1;" /><path d="M 451.85202 80.97749 L 405 83.9525" style="stroke:rgb(126,176,213);stroke-width:1" /><circle cx="405" cy="83.9525" r="2" style="fill:rgb(126,176,213);stroke:none;fill-opacity:1;stroke-opacity:1;" /><path d="M 405 83.9525 L 338.96576 85.7825" style="stroke:rgb(126,176,213);stroke-width:1" /><circle cx="338.96576" cy="85.7825" r="2" style="fill:rgb(126,176,213);stroke:none;fill-opacity:1;stroke-opacity:1;" /><path d="M 338.96576 85.7825 L 292.11377 86.7175" style="stroke:rgb(126,176,213);stroke-width:1" /><circle cx="292.11377" cy="86.7175" r="2" style="fill:rgb(126,176,213);stroke:none;fill-opacity:1;stroke-opacity:1;" /><path d="M 292.11377 86.7175 L 255.7725 86.8875" style="stroke:rgb(126,176,213);stroke-width:1" /><circle cx="255.7725" cy="86.8875" r="2" style="fill:rgb(126,176,213);stroke:none;fill-opacity:1;stroke-opacity:1;" /><path d="M 255.7725 86.8875 L 142.88626 88.317505" style="stroke:rgb(126,176,213);stroke-width:1" /><circle cx="142.88626" cy="88.317505" r="2" style="fill:rgb(126,176,213);stroke:none;fill-opacity:1;stroke-opacity:1;" /><path d="M 142.88626 88.317505 L 30 88.72749" style="stroke:rgb(126,176,213);stroke-width:1" /><circle cx="30" cy="88.72749" r="2" style="fill:rgb(126,176,213);stroke:none;fill-opacity:1;stroke-opacity:1;" /><circle cx="780" cy="20" r="2" style="fill:rgb(50,125,209);stroke:none;fill-opacity:1;stroke-opacity:1;" /><path d="M 780 20 L 630.77246 44.03" style="stroke:rgb(50,125,209);stroke-width:1" /><circle cx="630.77246" cy="44.03" r="2" style="fill:rgb(50,125,209);stroke:none;fill-opacity:1;stroke-opacity:1;" /><path d="M 630.77246 44.03 L 517.8862 57.58" style="stroke:rgb(50,125,209);stroke-width:1" /><circle cx="517.8862" cy="57.58" r="2" style="fill:rgb(50,125,209);stroke:none;fill-opacity:1;stroke-opacity:1;" /><path d="M 517.8862 57.58 L 451.85202 66.075" style="stroke:rgb(50,125,209);stroke-width:1" /><circle cx="451.85202" cy="66.075" r="2" style="fill:rgb(50,125,209);stroke:none;fill-opacity:1;stroke-opacity:1;" /><path d="M 451.85202 66.075 L 405 72.61749" style="stroke:rgb(50,125,209);stroke-width:1" /><circle cx="405" cy="72.61749" r="2" style="fill:rgb(50,125,209);stroke:none;fill-opacity:1;stroke-opacity:1;" /><path d="M 405 72.61749 L 338.96576 75.8875" style="stroke:rgb(50,125,209);stroke-width:1" /><circle cx="338.96576" cy="75.8875" r="2" style="fill:rgb(50,125,209);stroke:none;fill-opacity:1;stroke-opacity:1;" /><path d="M 338.96576 75.8875 L 292.11377 78.2975" style="stroke:rgb(50,125,209);stroke-width:1" /><circle cx="292.11377" cy="78.2975" r="2" style="fill:rgb(50,125,209);stroke:none;fill-opacity:1;stroke-opacity:1;" /><path d="M 292.11377 78.2975 L 255.7725 79.802505" style="stroke:rgb(50,125,209);stroke-width:1" /><circle cx="255.7725" cy="79.802505" r="2" style="fill:rgb(50,125,209);stroke:none;fill-opacity:1;stroke-opacity:1;" /><path d="M 255.7725 79.802505 L 142.88626 82.427505" style="stroke:rgb(50,125,209);stroke-width:1" /><circle cx="142.88626" cy="82.427505" r="2" style="fill:rgb(50,125,209);stroke:none;fill-opacity:1;stroke-opacity:1;" /><path d="M 142.88626 82.427505 L 30 82.64751" style="stroke:rgb(50,125,209);stroke-width:1" /><circle cx="30" cy="82.64751" r="2" style="fill:rgb(50,125,209);stroke:none;fill-opacity:1;stroke-opacity:1;" /><circle cx="780" cy="213.215" r="2" style="fill:rgb(255,238,101);stroke:none;fill-opacity:1;stroke-opacity:1;" /><path d="M 780 213.215 L 630.77246 237.2975" style="stroke:rgb(255,238,101);stroke-width:1" /><circle cx="630.77246" cy="237.2975" r="2" style="fill:rgb(255,238,101);stroke:none;fill-opacity:1;stroke-opacity:1;" /><path d="M 630.77246 237.2975 L 517.8862 246.41501" style="stroke:rgb(255,238,101);stroke-width:1" /><circle cx="517.8862" cy="246.41501" r="2" style="fill:rgb(255,238,101);stroke:none;fill-opacity:1;stroke-opacity:1;" /><path d="M 517.8862 246.41501 L 451.85202 250.2175" style="stroke:rgb(255,238,101);stroke-width:1" /><circle cx="451.85202" cy="250.2175" r="2" style="fill:rgb(255,238,101);stroke:none;fill-opacity:1;stroke-opacity:1;" /><path d="M 451.85202 250.2175 L 405 252.645" style="stroke:rgb(255,238,101);stroke-width:1" /><circle cx="405" cy="252.645" r="2" style="fill:rgb(255,238,101);stroke:none;fill-opacity:1;stroke-opacity:1;" /><path d="M 405 252.645 L 338.96576 254.0075" style="stroke:rgb(255,238,101);stroke-width:1" /><circle cx="338.96576" cy="254.0075" r="2" style="fill:rgb(255,238,101);stroke:none;fill-opacity:1;stroke-opacity:1;" /><path d="M 338.96576 254.0075 L 292.11377 255.33" style="stroke:rgb(255,238,101);stroke-width:1" /><circle cx="292.11377" cy="255.33" r="2" style="fill:rgb(255,238,101);stroke:none;fill-opacity:1;stroke-opacity:1;" /><path d="M 292.11377 255.33 L 255.7725 256.73" style="stroke:rgb(255,238,101);stroke-width:1" /><circle cx="255.7725" cy="256.73" r="2" style="fill:rgb(255,238,101);stroke:none;fill-opacity:1;stroke-opacity:1;" /><path d="M 255.7725 256.73 L 142.88626 261.53" style="stroke:rgb(255,238,101);stroke-width:1" /><circle cx="142.88626" cy="261.53" r="2" style="fill:rgb(255,238,101);stroke:none;fill-opacity:1;stroke-opacity:1;" /><path d="M 142.88626 261.53 L 30 264.2" style="stroke:rgb(255,238,101);stroke-width:1" /><circle cx="30" cy="264.2" r="2" style="fill:rgb(255,238,101);stroke:none;fill-opacity:1;stroke-opacity:1;" /><circle cx="780" cy="226.83" r="2" style="fill:rgb(253,204,229);stroke:none;fill-opacity:1;stroke-opacity:1;" /><path d="M 780 226.83 L 630.77246 235.11" style="stroke:rgb(253,204,229);stroke-width:1" /><circle cx="630.77246" cy="235.11" r="2" style="fill:rgb(253,204,229);stroke:none;fill-opacity:1;stroke-opacity:1;" /><path d="M 630.77246 235.11 L 517.8862 239.1" style="stroke:rgb(253,204,229);stroke-width:1" /><circle cx="517.8862" cy="239.1" r="2" style="fill:rgb(253,204,229);stroke:none;fill-opacity:1;stroke-opacity:1;" /><path d="M 517.8862 239.1 L 451.85202 241.91501" style="stroke:rgb(253,204,229);stroke-width:1" /><circle cx="451.85202" cy="241.91501" r="2" style="fill:rgb(253,204,229);stroke:none;fill-opacity:1;stroke-opacity:1;" /><path d="M 451.85202 241.91501 L 405 243.7925" style="stroke:rgb(253,204,229);stroke-width:1" /><circle cx="405" cy="243.7925" r="2" style="fill:rgb(253,204,229);stroke:none;fill-opacity:1;stroke-opacity:1;" /><path d="M 405 243.7925 L 338.96576 246.945" style="stroke:rgb(253,204,229);stroke-width:1" /><circle cx="338.96576" cy="246.945" r="2" style="fill:rgb(253,204,229);stroke:none;fill-opacity:1;stroke-opacity:1;" /><path d="M 338.96576 246.945 L 292.11377 249.4975" style="stroke:rgb(253,204,229);stroke-width:1" /><circle cx="292.11377" cy="249.4975" r="2" style="fill:rgb(253,204,229);stroke:none;fill-opacity:1;stroke-opacity:1;" /><path d="M 292.11377 249.4975 L 255.7725 250.6525" style="stroke:rgb(253,204,229);stroke-width:1" /><circle cx="255.7725" cy="250.6525" r="2" style="fill:rgb(253,204,229);stroke:none;fill-opacity:1;stroke-opacity:1;" /><path d="M 255.7725 250.6525 L 142.88626 253.015" style="stroke:rgb(253,204,229);stroke-width:1" /><circle cx="142.88626" cy="253.015" r="2" style="fill:rgb(253,204,229);stroke:none;fill-opacity:1;stroke-opacity:1;" /><path d="M 142.88626 253.015 L 30 253.845" style="stroke:rgb(253,204,229);stroke-width:1" /><circle cx="30" cy="253.845" r="2" style="fill:rgb(253,204,229);stroke:none;fill-opacity:1;stroke-opacity:1;" /><circle cx="780" cy="224.555" r="2" style="fill:rgb(253,127,111);stroke:none;fill-opacity:1;stroke-opacity:1;" /><path d="M 780 224.555 L 630.77246 233.115" style="stroke:rgb(253,127,111);stroke-width:1" /><circle cx="630.77246" cy="233.115" r="2" style="fill:rgb(253,127,111);stroke:none;fill-opacity:1;stroke-opacity:1;" /><path d="M 630.77246 233.115 L 517.8862 236.725" style="stroke:rgb(253,127,111);stroke-width:1" /><circle cx="517.8862" cy="236.725" r="2" style="fill:rgb(253,127,111);stroke:none;fill-opacity:1;stroke-opacity:1;" /><path d="M 517.8862 236.725 L 451.85202 240.5725" style="stroke:rgb(253,127,111);stroke-width:1" /><circle cx="451.85202" cy="240.5725" r="2" style="fill:rgb(253,127,111);stroke:none;fill-opacity:1;stroke-opacity:1;" /><path d="M 451.85202 240.5725 L 405 242.805" style="stroke:rgb(253,127,111);stroke-width:1" /><circle cx="405" cy="242.805" r="2" style="fill:rgb(253,127,111);stroke:none;fill-opacity:1;stroke-opacity:1;" /><path d="M 405 242.805 L 338.96576 246.6775" style="stroke:rgb(253,127,111);stroke-width:1" /><circle cx="338.96576" cy="246.6775" r="2" style="fill:rgb(253,127,111);stroke:none;fill-opacity:1;stroke-opacity:1;" /><path d="M 338.96576 246.6775 L 292.11377 249.38" style="stroke:rgb(253,127,111);stroke-width:1" /><circle cx="292.11377" cy="249.38" r="2" style="fill:rgb(253,127,111);stroke:none;fill-opacity:1;stroke-opacity:1;" /><path d="M 292.11377 249.38 L 255.7725 250.7675" style="stroke:rgb(253,127,111);stroke-width:1" /><circle cx="255.7725" cy="250.7675" r="2" style="fill:rgb(253,127,111);stroke:none;fill-opacity:1;stroke-opacity:1;" /><path d="M 255.7725 250.7675 L 142.88626 253.205" style="stroke:rgb(253,127,111);stroke-width:1" /><circle cx="142.88626" cy="253.205" r="2" style="fill:rgb(253,127,111);stroke:none;fill-opacity:1;stroke-opacity:1;" /><path d="M 142.88626 253.205 L 30 254.06" style="stroke:rgb(253,127,111);stroke-width:1" /><circle cx="30" cy="254.06" r="2" style="fill:rgb(253,127,111);stroke:none;fill-opacity:1;stroke-opacity:1;" /><circle cx="780" cy="125.455" r="2" style="fill:rgb(200,113,55);stroke:none;fill-opacity:1;stroke-opacity:1;" /><path d="M 780 125.455 L 630.77246 130.9725" style="stroke:rgb(200,113,55);stroke-width:1" /><circle cx="630.77246" cy="130.9725" r="2" style="fill:rgb(200,113,55);stroke:none;fill-opacity:1;stroke-opacity:1;" /><path d="M 630.77246 130.9725 L 517.8862 140.54" style="stroke:rgb(200,113,55);stroke-width:1" /><circle cx="517.8862" cy="140.54" r="2" style="fill:rgb(200,113,55);stroke:none;fill-opacity:1;stroke-opacity:1;" /><path d="M 517.8862 140.54 L 451.85202 148.10501" style="stroke:rgb(200,113,55);stroke-width:1" /><circle cx="451.85202" cy="148.10501" r="2" style="fill:rgb(200,113,55);stroke:none;fill-opacity:1;stroke-opacity:1;" /><path d="M 451.85202 148.10501 L 405 151.27249" style="stroke:rgb(200,113,55);stroke-width:1" /><circle cx="405" cy="151.27249" r="2" style="fill:rgb(200,113,55);stroke:none;fill-opacity:1;stroke-opacity:1;" /><path d="M 405 151.27249 L 338.96576 155.195" style="stroke:rgb(200,113,55);stroke-width:1" /><circle cx="338.96576" cy="155.195" r="2" style="fill:rgb(200,113,55);stroke:none;fill-opacity:1;stroke-opacity:1;" /><path d="M 338.96576 155.195 L 292.11377 156.4075" style="stroke:rgb(200,113,55);stroke-width:1" /><circle cx="292.11377" cy="156.4075" r="2" style="fill:rgb(200,113,55);stroke:none;fill-opacity:1;stroke-opacity:1;" /><path d="M 292.11377 156.4075 L 255.7725 157.4725" style="stroke:rgb(200,113,55);stroke-width:1" /><circle cx="255.7725" cy="157.4725" r="2" style="fill:rgb(200,113,55);stroke:none;fill-opacity:1;stroke-opacity:1;" /><path d="M 255.7725 157.4725 L 142.88626 158.6625" style="stroke:rgb(200,113,55);stroke-width:1" /><circle cx="142.88626" cy="158.6625" r="2" style="fill:rgb(200,113,55);stroke:none;fill-opacity:1;stroke-opacity:1;" /><path d="M 142.88626 158.6625 L 30 158.495" style="stroke:rgb(200,113,55);stroke-width:1" /><circle cx="30" cy="158.495" r="2" style="fill:rgb(200,113,55);stroke:none;fill-opacity:1;stroke-opacity:1;" /><circle cx="780" cy="135.14" r="2" style="fill:rgb(120,68,33);stroke:none;fill-opacity:1;stroke-opacity:1;" /><path d="M 780 135.14 L 630.77246 152.55" style="stroke:rgb(120,68,33);stroke-width:1" /><circle cx="630.77246" cy="152.55" r="2" style="fill:rgb(120,68,33);stroke:none;fill-opacity:1;stroke-opacity:1;" /><path d="M 630.77246 152.55 L 517.8862 164.725" style="stroke:rgb(120,68,33);stroke-width:1" /><circle cx="517.8862" cy="164.725" r="2" style="fill:rgb(120,68,33);stroke:none;fill-opacity:1;stroke-opacity:1;" /><path d="M 517.8862 164.725 L 451.85202 170.17" style="stroke:rgb(120,68,33);stroke-width:1" /><circle cx="451.85202" cy="170.17" r="2" style="fill:rgb(120,68,33);stroke:none;fill-opacity:1;stroke-opacity:1;" /><path d="M 451.85202 170.17 L 405 172.095" style="stroke:rgb(120,68,33);stroke-width:1" /><circle cx="405" cy="172.095" r="2" style="fill:rgb(120,68,33);stroke:none;fill-opacity:1;stroke-opacity:1;" /><path d="M 405 172.095 L 338.96576 174.33499" style="stroke:rgb(120,68,33);stroke-width:1" /><circle cx="338.96576" cy="174.33499" r="2" style="fill:rgb(120,68,33);stroke:none;fill-opacity:1;stroke-opacity:1;" /><path d="M 338.96576 174.33499 L 292.11377 174.8775" style="stroke:rgb(120,68,33);stroke-width:1" /><circle cx="292.11377" cy="174.8775" r="2" style="fill:rgb(120,68,33);stroke:none;fill-opacity:1;stroke-opacity:1;" /><path d="M 292.11377 174.8775 L 255.7725 175.17" style="stroke:rgb(120,68,33);stroke-width:1" /><circle cx="255.7725" cy="175.17" r="2" style="fill:rgb(120,68,33);stroke:none;fill-opacity:1;stroke-opacity:1;" /><path d="M 255.7725 175.17 L 142.88626 176.0125" style="stroke:rgb(120,68,33);stroke-width:1" /><circle cx="142.88626" cy="176.0125" r="2" style="fill:rgb(120,68,33);stroke:none;fill-opacity:1;stroke-opacity:1;" /><path d="M 142.88626 176.0125 L 30 175.4025" style="stroke:rgb(120,68,33);stroke-width:1" /><circle cx="30" cy="175.4025" r="2" style="fill:rgb(120,68,33);stroke:none;fill-opacity:1;stroke-opacity:1;" /><rect x="676" y="16" width="80" height="238" ry="4" style="fill:rgb(30,30,30);stroke:none;fill-opacity:0.8;stroke-opacity:1;" /><rect x="680" y="20" width="20" height="20" ry="2" style="fill:rgb(253,127,111);stroke:none;fill-opacity:1;stroke-opacity:1;" /><text x="705" y="33" style="font-size:10px;fill:rgb(255,255,255);text-anchor:start;text-align:left;"> fwd-diff </text><rect x="680" y="41" width="20" height="20" ry="2" style="fill:rgb(255,181,90);stroke:none;fill-opacity:1;stroke-opacity:1;" /><text x="705" y="54" style="font-size:10px;fill:rgb(255,255,255);text-anchor:start;text-align:left;"> hain </text><rect x="680" y="62" width="20" height="20" ry="2" style="fill:rgb(50,125,209);stroke:none;fill-opacity:1;stroke-opacity:1;" /><text x="705" y="75" style="font-size:10px;fill:rgb(255,255,255);text-anchor:start;text-align:left;"> levien </text><rect x="680" y="83" width="20" height="20" ry="2" style="fill:rgb(119,211,179);stroke:none;fill-opacity:1;stroke-opacity:1;" /><text x="705" y="96" style="font-size:10px;fill:rgb(255,255,255);text-anchor:start;text-align:left;"> levien-linear </text><rect x="680" y="104" width="20" height="20" ry="2" style="fill:rgb(126,176,213);stroke:none;fill-opacity:1;stroke-opacity:1;" /><text x="705" y="117" style="font-size:10px;fill:rgb(255,255,255);text-anchor:start;text-align:left;"> levien-simd </text><rect x="680" y="125" width="20" height="20" ry="2" style="fill:rgb(128,214,87);stroke:none;fill-opacity:1;stroke-opacity:1;" /><text x="705" y="138" style="font-size:10px;fill:rgb(255,255,255);text-anchor:start;text-align:left;"> linear </text><rect x="680" y="146" width="20" height="20" ry="2" style="fill:rgb(255,238,101);stroke:none;fill-opacity:1;stroke-opacity:1;" /><text x="705" y="159" style="font-size:10px;fill:rgb(255,255,255);text-anchor:start;text-align:left;"> recursive </text><rect x="680" y="167" width="20" height="20" ry="2" style="fill:rgb(253,204,229);stroke:none;fill-opacity:1;stroke-opacity:1;" /><text x="705" y="180" style="font-size:10px;fill:rgb(255,255,255);text-anchor:start;text-align:left;"> wang </text><rect x="680" y="188" width="20" height="20" ry="2" style="fill:rgb(199,126,190);stroke:none;fill-opacity:1;stroke-opacity:1;" /><text x="705" y="201" style="font-size:10px;fill:rgb(255,255,255);text-anchor:start;text-align:left;"> wang-simd </text><rect x="680" y="209" width="20" height="20" ry="2" style="fill:rgb(120,68,33);stroke:none;fill-opacity:1;stroke-opacity:1;" /><text x="705" y="222" style="font-size:10px;fill:rgb(255,255,255);text-anchor:start;text-align:left;"> yzerman </text><rect x="680" y="230" width="20" height="20" ry="2" style="fill:rgb(200,113,55);stroke:none;fill-opacity:1;stroke-opacity:1;" /><text x="705" y="243" style="font-size:10px;fill:rgb(255,255,255);text-anchor:start;text-align:left;"> yzerman-simd </text><text x="400" y="30" style="font-size:20px;fill:rgb(255,255,255);text-anchor:middle;text-align:center;"> font dataset: cubic </text><text x="400" y="42" style="font-size:8px;fill:rgb(200,200,200);text-anchor:middle;text-align:center;"> Normalized performance score (lower is better) </text></svg>