<svg xmlns="http://www.w3.org/2000/svg" viewBox="0 0 800 300"><rect x="0" y="0" width="800" height="300" ry="6" style="fill:rgb(30,30,30);stroke:none;fill-opacity:1;stroke-opacity:1;" /><path d="M 30 20 L 30 270" style="stroke:rgb(200,200,200);stroke-width:1" /><path d="M 30 270 L 780 270" style="stroke:rgb(200,200,200);stroke-width:1" /><path d="M 780 270 L 780 272" style="stroke:rgb(200,200,200);stroke-width:1" /><text x="780" y="282" style="font-size:10px;fill:rgb(200,200,200);text-anchor:middle;text-align:center;"> 0.01 </text><path d="M 630.77246 270 L 630.77246 272" style="stroke:rgb(200,200,200);stroke-width:1" /><text x="630.77246" y="282" style="font-size:10px;fill:rgb(200,200,200);text-anchor:middle;text-align:center;"> 0.025 </text><path d="M 517.8862 270 L 517.8862 272" style="stroke:rgb(200,200,200);stroke-width:1" /><text x="517.8862" y="282" style="font-size:10px;fill:rgb(200,200,200);text-anchor:middle;text-align:center;"> 0.05 </text><path d="M 451.85202 270 L 451.85202 272" style="stroke:rgb(200,200,200);stroke-width:1" /><text x="451.85202" y="282" style="font-size:10px;fill:rgb(200,200,200);text-anchor:middle;text-align:center;"> 0.075 </text><path d="M 405 270 L 405 272" style="stroke:rgb(200,200,200);stroke-width:1" /><text x="405" y="282" style="font-size:10px;fill:rgb(200,200,200);text-anchor:middle;text-align:center;"> 0.1 </text><path d="M 338.96576 270 L 338.96576 272" style="stroke:rgb(200,200,200);stroke-width:1" /><text x="338.96576" y="282" style="font-size:10px;fill:rgb(200,200,200);text-anchor:middle;text-align:center;"> 0.15 </text><path d="M 292.11377 270 L 292.11377 272" style="stroke:rgb(200,200,200);stroke-width:1" /><text x="292.11377" y="282" style="font-size:10px;fill:rgb(200,200,200);text-anchor:middle;text-align:center;"> 0.2 </text><path d="M 255.7725 270 L 255.7725 272" style="stroke:rgb(200,200,200);stroke-width:1" /><text x="255.7725" y="282" style="font-size:10px;fill:rgb(200,200,200);text-anchor:middle;text-align:center;"> 0.25 </text><path d="M 142.88626 270 L 142.88626 272" style="stroke:rgb(200,200,200);stroke-width:1" /><text x="142.88626" y="282" style="font-size:10px;fill:rgb(200,200,200);text-anchor:middle;text-align:center;"> 0.5 </text><path d="M 30 270 L 30 272" style="stroke:rgb(200,200,200);stroke-width:1" /><text x="30" y="282" style="font-size:10px;fill:rgb(200,200,200);text-anchor:middle;text-align:center;"> 1 </text><path d="M 28 270 L 30 270" style="stroke:rgb(200,200,200);stroke-width:1" /><text x="26" y="274" style="font-size:10px;fill:rgb(200,200,200);text-anchor:end;text-align:right;"> 0 </text><path d="M 28 207.5 L 30 207.5" style="stroke:rgb(200,200,200);stroke-width:1" /><text x="26" y="211.5" style="font-size:10px;fill:rgb(200,200,200);text-anchor:end;text-align:right;"> 0.25 </text><path d="M 28 145 L 30 145" style="stroke:rgb(200,200,200);stroke-width:1" /><text x="26" y="149" style="font-size:10px;fill:rgb(200,200,200);text-anchor:end;text-align:right;"> 0.5 </text><path d="M 28 82.5 L 30 82.5" style="stroke:rgb(200,200,200);stroke-width:1" /><text x="26" y="86.5" style="font-size:10px;fill:rgb(200,200,200);text-anchor:end;text-align:right;"> 0.75 </text><path d="M 28 20 L 30 20" style="stroke:rgb(200,200,200);stroke-width:1" /><text x="26" y="24" style="font-size:10px;fill:rgb(200,200,200);text-anchor:end;text-align:right;"> 1 </text><text x="400" y="294" style="font-size:10px;fill:rgb(200,200,200);text-anchor:middle;text-align:center;"> Tolerance </text><circle cx="780" cy="20" r="2" style="fill:rgb(255,181,90);stroke:none;fill-opacity:1;stroke-opacity:1;" /><path d="M 780 20 L 630.77246 108.725006" style="stroke:rgb(255,181,90);stroke-width:1" /><circle cx="630.77246" cy="108.725006" r="2" style="fill:rgb(255,181,90);stroke:none;fill-opacity:1;stroke-opacity:1;" /><path d="M 630.77246 108.725006 L 517.8862 153.8275" style="stroke:rgb(255,181,90);stroke-width:1" /><circle cx="517.8862" cy="153.8275" r="2" style="fill:rgb(255,181,90);stroke:none;fill-opacity:1;stroke-opacity:1;" /><path d="M 517.8862 153.8275 L 451.85202 174.65" style="stroke:rgb(255,181,90);stroke-width:1" /><circle cx="451.85202" cy="174.65" r="2" style="fill:rgb(255,181,90);stroke:none;fill-opacity:1;stroke-opacity:1;" /><path d="M 451.85202 174.65 L 405 186.6075" style="stroke:rgb(255,181,90);stroke-width:1" /><circle cx="405" cy="186.6075" r="2" style="fill:rgb(255,181,90);stroke:none;fill-opacity:1;stroke-opacity:1;" /><path d="M 405 186.6075 L 338.96576 201.2225" style="stroke:rgb(255,181,90);stroke-width:1" /><circle cx="338.96576" cy="201.2225" r="2" style="fill:rgb(255,181,90);stroke:none;fill-opacity:1;stroke-opacity:1;" /><path d="M 338.96576 201.2225 L 292.11377 210.5825" style="stroke:rgb(255,181,90);stroke-width:1" /><circle cx="292.11377" cy="210.5825" r="2" style="fill:rgb(255,181,90);stroke:none;fill-opacity:1;stroke-opacity:1;" /><path d="M 292.11377 210.5825 L 255.7725 217.2575" style="stroke:rgb(255,181,90);stroke-width:1" /><circle cx="255.7725" cy="217.2575" r="2" style="fill:rgb(255,181,90);stroke:none;fill-opacity:1;stroke-opacity:1;" /><path d="M 255.7725 217.2575 L 142.88626 232.6225" style="stroke:rgb(255,181,90);stroke-width:1" /><circle cx="142.88626" cy="232.6225" r="2" style="fill:rgb(255,181,90);stroke:none;fill-opacity:1;stroke-opacity:1;" /><path d="M 142.88626 232.6225 L 30 242.54001" style="stroke:rgb(255,181,90);stroke-width:1" /><circle cx="30" cy="242.54001" r="2" style="fill:rgb(255,181,90);stroke:none;fill-opacity:1;stroke-opacity:1;" /><circle cx="780" cy="139.5275" r="2" style="fill:rgb(50,125,209);stroke:none;fill-opacity:1;stroke-opacity:1;" /><path d="M 780 139.5275 L 630.77246 171.8725" style="stroke:rgb(50,125,209);stroke-width:1" /><circle cx="630.77246" cy="171.8725" r="2" style="fill:rgb(50,125,209);stroke:none;fill-opacity:1;stroke-opacity:1;" /><path d="M 630.77246 171.8725 L 517.8862 188.64749" style="stroke:rgb(50,125,209);stroke-width:1" /><circle cx="517.8862" cy="188.64749" r="2" style="fill:rgb(50,125,209);stroke:none;fill-opacity:1;stroke-opacity:1;" /><path d="M 517.8862 188.64749 L 451.85202 196.1125" style="stroke:rgb(50,125,209);stroke-width:1" /><circle cx="451.85202" cy="196.1125" r="2" style="fill:rgb(50,125,209);stroke:none;fill-opacity:1;stroke-opacity:1;" /><path d="M 451.85202 196.1125 L 405 194.4125" style="stroke:rgb(50,125,209);stroke-width:1" /><circle cx="405" cy="194.4125" r="2" style="fill:rgb(50,125,209);stroke:none;fill-opacity:1;stroke-opacity:1;" /><path d="M 405 194.4125 L 338.96576 208.325" style="stroke:rgb(50,125,209);stroke-width:1" /><circle cx="338.96576" cy="208.325" r="2" style="fill:rgb(50,125,209);stroke:none;fill-opacity:1;stroke-opacity:1;" /><path d="M 338.96576 208.325 L 292.11377 212.39" style="stroke:rgb(50,125,209);stroke-width:1" /><circle cx="292.11377" cy="212.39" r="2" style="fill:rgb(50,125,209);stroke:none;fill-opacity:1;stroke-opacity:1;" /><path d="M 292.11377 212.39 L 255.7725 215.54001" style="stroke:rgb(50,125,209);stroke-width:1" /><circle cx="255.7725" cy="215.54001" r="2" style="fill:rgb(50,125,209);stroke:none;fill-opacity:1;stroke-opacity:1;" /><path d="M 255.7725 215.54001 L 142.88626 223.9425" style="stroke:rgb(50,125,209);stroke-width:1" /><circle cx="142.88626" cy="223.9425" r="2" style="fill:rgb(50,125,209);stroke:none;fill-opacity:1;stroke-opacity:1;" /><path d="M 142.88626 223.9425 L 30 231.08" style="stroke:rgb(50,125,209);stroke-width:1" /><circle cx="30" cy="231.08" r="2" style="fill:rgb(50,125,209);stroke:none;fill-opacity:1;stroke-opacity:1;" /><circle cx="780" cy="252.95" r="2" style="fill:rgb(253,204,229);stroke:none;fill-opacity:1;stroke-opacity:1;" /><path d="M 780 252.95 L 630.77246 258.1825" style="stroke:rgb(253,204,229);stroke-width:1" /><circle cx="630.77246" cy="258.1825" r="2" style="fill:rgb(253,204,229);stroke:none;fill-opacity:1;stroke-opacity:1;" /><path d="M 630.77246 258.1825 L 517.8862 260.885" style="stroke:rgb(253,204,229);stroke-width:1" /><circle cx="517.8862" cy="260.885" r="2" style="fill:rgb(253,204,229);stroke:none;fill-opacity:1;stroke-opacity:1;" /><path d="M 517.8862 260.885 L 451.85202 262.365" style="stroke:rgb(253,204,229);stroke-width:1" /><circle cx="451.85202" cy="262.365" r="2" style="fill:rgb(253,204,229);stroke:none;fill-opacity:1;stroke-opacity:1;" /><path d="M 451.85202 262.365 L 405 263.23" style="stroke:rgb(253,204,229);stroke-width:1" /><circle cx="405" cy="263.23" r="2" style="fill:rgb(253,204,229);stroke:none;fill-opacity:1;stroke-opacity:1;" /><path d="M 405 263.23 L 338.96576 264.1625" style="stroke:rgb(253,204,229);stroke-width:1" /><circle cx="338.96576" cy="264.1625" r="2" style="fill:rgb(253,204,229);stroke:none;fill-opacity:1;stroke-opacity:1;" /><path d="M 338.96576 264.1625 L 292.11377 264.745" style="stroke:rgb(253,204,229);stroke-width:1" /><circle cx="292.11377" cy="264.745" r="2" style="fill:rgb(253,204,229);stroke:none;fill-opacity:1;stroke-opacity:1;" /><path d="M 292.11377 264.745 L 255.7725 265.095" style="stroke:rgb(253,204,229);stroke-width:1" /><circle cx="255.7725" cy="265.095" r="2" style="fill:rgb(253,204,229);stroke:none;fill-opacity:1;stroke-opacity:1;" /><path d="M 255.7725 265.095 L 142.88626 266.26" style="stroke:rgb(253,204,229);stroke-width:1" /><circle cx="142.88626" cy="266.26" r="2" style="fill:rgb(253,204,229);stroke:none;fill-opacity:1;stroke-opacity:1;" /><path d="M 142.88626 266.26 L 30 267.2475" style="stroke:rgb(253,204,229);stroke-width:1" /><circle cx="30" cy="267.2475" r="2" style="fill:rgb(253,204,229);stroke:none;fill-opacity:1;stroke-opacity:1;" /><circle cx="780" cy="197.4825" r="2" style="fill:rgb(119,211,179);stroke:none;fill-opacity:1;stroke-opacity:1;" /><path d="M 780 197.4825 L 630.77246 213.485" style="stroke:rgb(119,211,179);stroke-width:1" /><circle cx="630.77246" cy="213.485" r="2" style="fill:rgb(119,211,179);stroke:none;fill-opacity:1;stroke-opacity:1;" /><path d="M 630.77246 213.485 L 517.8862 223.7325" style="stroke:rgb(119,211,179);stroke-width:1" /><circle cx="517.8862" cy="223.7325" r="2" style="fill:rgb(119,211,179);stroke:none;fill-opacity:1;stroke-opacity:1;" /><path d="M 517.8862 223.7325 L 451.85202 229.16" style="stroke:rgb(119,211,179);stroke-width:1" /><circle cx="451.85202" cy="229.16" r="2" style="fill:rgb(119,211,179);stroke:none;fill-opacity:1;stroke-opacity:1;" /><path d="M 451.85202 229.16 L 405 234.87" style="stroke:rgb(119,211,179);stroke-width:1" /><circle cx="405" cy="234.87" r="2" style="fill:rgb(119,211,179);stroke:none;fill-opacity:1;stroke-opacity:1;" /><path d="M 405 234.87 L 338.96576 240.16" style="stroke:rgb(119,211,179);stroke-width:1" /><circle cx="338.96576" cy="240.16" r="2" style="fill:rgb(119,211,179);stroke:none;fill-opacity:1;stroke-opacity:1;" /><path d="M 338.96576 240.16 L 292.11377 245.01" style="stroke:rgb(119,211,179);stroke-width:1" /><circle cx="292.11377" cy="245.01" r="2" style="fill:rgb(119,211,179);stroke:none;fill-opacity:1;stroke-opacity:1;" /><path d="M 292.11377 245.01 L 255.7725 247.97751" style="stroke:rgb(119,211,179);stroke-width:1" /><circle cx="255.7725" cy="247.97751" r="2" style="fill:rgb(119,211,179);stroke:none;fill-opacity:1;stroke-opacity:1;" /><path d="M 255.7725 247.97751 L 142.88626 256.9125" style="stroke:rgb(119,211,179);stroke-width:1" /><circle cx="142.88626" cy="256.9125" r="2" style="fill:rgb(119,211,179);stroke:none;fill-opacity:1;stroke-opacity:1;" /><path d="M 142.88626 256.9125 L 30 262.365" style="stroke:rgb(119,211,179);stroke-width:1" /><circle cx="30" cy="262.365" r="2" style="fill:rgb(119,211,179);stroke:none;fill-opacity:1;stroke-opacity:1;" /><circle cx="780" cy="159.60501" r="2" style="fill:rgb(255,238,101);stroke:none;fill-opacity:1;stroke-opacity:1;" /><path d="M 780 159.60501 L 630.77246 200.7875" style="stroke:rgb(255,238,101);stroke-width:1" /><circle cx="630.77246" cy="200.7875" r="2" style="fill:rgb(255,238,101);stroke:none;fill-opacity:1;stroke-opacity:1;" /><path d="M 630.77246 200.7875 L 517.8862 220.3925" style="stroke:rgb(255,238,101);stroke-width:1" /><circle cx="517.8862" cy="220.3925" r="2" style="fill:rgb(255,238,101);stroke:none;fill-opacity:1;stroke-opacity:1;" /><path d="M 517.8862 220.3925 L 451.85202 230.105" style="stroke:rgb(255,238,101);stroke-width:1" /><circle cx="451.85202" cy="230.105" r="2" style="fill:rgb(255,238,101);stroke:none;fill-opacity:1;stroke-opacity:1;" /><path d="M 451.85202 230.105 L 405 236.7175" style="stroke:rgb(255,238,101);stroke-width:1" /><circle cx="405" cy="236.7175" r="2" style="fill:rgb(255,238,101);stroke:none;fill-opacity:1;stroke-opacity:1;" /><path d="M 405 236.7175 L 338.96576 243.1125" style="stroke:rgb(255,238,101);stroke-width:1" /><circle cx="338.96576" cy="243.1125" r="2" style="fill:rgb(255,238,101);stroke:none;fill-opacity:1;stroke-opacity:1;" /><path d="M 338.96576 243.1125 L 292.11377 247.2975" style="stroke:rgb(255,238,101);stroke-width:1" /><circle cx="292.11377" cy="247.2975" r="2" style="fill:rgb(255,238,101);stroke:none;fill-opacity:1;stroke-opacity:1;" /><path d="M 292.11377 247.2975 L 255.7725 250.41" style="stroke:rgb(255,238,101);stroke-width:1" /><circle cx="255.7725" cy="250.41" r="2" style="fill:rgb(255,238,101);stroke:none;fill-opacity:1;stroke-opacity:1;" /><path d="M 255.7725 250.41 L 142.88626 257.9575" style="stroke:rgb(255,238,101);stroke-width:1" /><circle cx="142.88626" cy="257.9575" r="2" style="fill:rgb(255,238,101);stroke:none;fill-opacity:1;stroke-opacity:1;" /><path d="M 142.88626 257.9575 L 30 262.6" style="stroke:rgb(255,238,101);stroke-width:1" /><circle cx="30" cy="262.6" r="2" style="fill:rgb(255,238,101);stroke:none;fill-opacity:1;stroke-opacity:1;" /><circle cx="780" cy="197.4925" r="2" style="fill:rgb(126,176,213);stroke:none;fill-opacity:1;stroke-opacity:1;" /><path d="M 780 197.4925 L 630.77246 212.02249" style="stroke:rgb(126,176,213);stroke-width:1" /><circle cx="630.77246" cy="212.02249" r="2" style="fill:rgb(126,176,213);stroke:none;fill-opacity:1;stroke-opacity:1;" /><path d="M 630.77246 212.02249 L 517.8862 220.65" style="stroke:rgb(126,176,213);stroke-width:1" /><circle cx="517.8862" cy="220.65" r="2" style="fill:rgb(126,176,213);stroke:none;fill-opacity:1;stroke-opacity:1;" /><path d="M 517.8862 220.65 L 451.85202 225.5175" style="stroke:rgb(126,176,213);stroke-width:1" /><circle cx="451.85202" cy="225.5175" r="2" style="fill:rgb(126,176,213);stroke:none;fill-opacity:1;stroke-opacity:1;" /><path d="M 451.85202 225.5175 L 405 227.995" style="stroke:rgb(126,176,213);stroke-width:1" /><circle cx="405" cy="227.995" r="2" style="fill:rgb(126,176,213);stroke:none;fill-opacity:1;stroke-opacity:1;" /><path d="M 405 227.995 L 338.96576 232.2425" style="stroke:rgb(126,176,213);stroke-width:1" /><circle cx="338.96576" cy="232.2425" r="2" style="fill:rgb(126,176,213);stroke:none;fill-opacity:1;stroke-opacity:1;" /><path d="M 338.96576 232.2425 L 292.11377 234.1875" style="stroke:rgb(126,176,213);stroke-width:1" /><circle cx="292.11377" cy="234.1875" r="2" style="fill:rgb(126,176,213);stroke:none;fill-opacity:1;stroke-opacity:1;" /><path d="M 292.11377 234.1875 L 255.7725 235.7775" style="stroke:rgb(126,176,213);stroke-width:1" /><circle cx="255.7725" cy="235.7775" r="2" style="fill:rgb(126,176,213);stroke:none;fill-opacity:1;stroke-opacity:1;" /><path d="M 255.7725 235.7775 L 142.88626 240.64749" style="stroke:rgb(126,176,213);stroke-width:1" /><circle cx="142.88626" cy="240.64749" r="2" style="fill:rgb(126,176,213);stroke:none;fill-opacity:1;stroke-opacity:1;" /><path d="M 142.88626 240.64749 L 30 244.405" style="stroke:rgb(126,176,213);stroke-width:1" /><circle cx="30" cy="244.405" r="2" style="fill:rgb(126,176,213);stroke:none;fill-opacity:1;stroke-opacity:1;" /><circle cx="780" cy="176.94751" r="2" style="fill:rgb(128,214,87);stroke:none;fill-opacity:1;stroke-opacity:1;" /><path d="M 780 176.94751 L 630.77246 212.06" style="stroke:rgb(128,214,87);stroke-width:1" /><circle cx="630.77246" cy="212.06" r="2" style="fill:rgb(128,214,87);stroke:none;fill-opacity:1;stroke-opacity:1;" /><path d="M 630.77246 212.06 L 517.8862 231.3225" style="stroke:rgb(128,214,87);stroke-width:1" /><circle cx="517.8862" cy="231.3225" r="2" style="fill:rgb(128,214,87);stroke:none;fill-opacity:1;stroke-opacity:1;" /><path d="M 517.8862 231.3225 L 451.85202 240.2625" style="stroke:rgb(128,214,87);stroke-width:1" /><circle cx="451.85202" cy="240.2625" r="2" style="fill:rgb(128,214,87);stroke:none;fill-opacity:1;stroke-opacity:1;" /><path d="M 451.85202 240.2625 L 405 246.395" style="stroke:rgb(128,214,87);stroke-width:1" /><circle cx="405" cy="246.395" r="2" style="fill:rgb(128,214,87);stroke:none;fill-opacity:1;stroke-opacity:1;" /><path d="M 405 246.395 L 338.96576 251.59" style="stroke:rgb(128,214,87);stroke-width:1" /><circle cx="338.96576" cy="251.59" r="2" style="fill:rgb(128,214,87);stroke:none;fill-opacity:1;stroke-opacity:1;" /><path d="M 338.96576 251.59 L 292.11377 254.725" style="stroke:rgb(128,214,87);stroke-width:1" /><circle cx="292.11377" cy="254.725" r="2" style="fill:rgb(128,214,87);stroke:none;fill-opacity:1;stroke-opacity:1;" /><path d="M 292.11377 254.725 L 255.7725 256.75" style="stroke:rgb(128,214,87);stroke-width:1" /><circle cx="255.7725" cy="256.75" r="2" style="fill:rgb(128,214,87);stroke:none;fill-opacity:1;stroke-opacity:1;" /><path d="M 255.7725 256.75 L 142.88626 261.535" style="stroke:rgb(128,214,87);stroke-width:1" /><circle cx="142.88626" cy="261.535" r="2" style="fill:rgb(128,214,87);stroke:none;fill-opacity:1;stroke-opacity:1;" /><path d="M 142.88626 261.535 L 30 264.4375" style="stroke:rgb(128,214,87);stroke-width:1" /><circle cx="30" cy="264.4375" r="2" style="fill:rgb(128,214,87);stroke:none;fill-opacity:1;stroke-opacity:1;" /><circle cx="780" cy="253.495" r="2" style="fill:rgb(253,127,111);stroke:none;fill-opacity:1;stroke-opacity:1;" /><path d="M 780 253.495 L 630.77246 258.6975" style="stroke:rgb(253,127,111);stroke-width:1" /><circle cx="630.77246" cy="258.6975" r="2" style="fill:rgb(253,127,111);stroke:none;fill-opacity:1;stroke-opacity:1;" /><path d="M 630.77246 258.6975 L 517.8862 261.3575" style="stroke:rgb(253,127,111);stroke-width:1" /><circle cx="517.8862" cy="261.3575" r="2" style="fill:rgb(253,127,111);stroke:none;fill-opacity:1;stroke-opacity:1;" /><path d="M 517.8862 261.3575 L 451.85202 262.56" style="stroke:rgb(253,127,111);stroke-width:1" /><circle cx="451.85202" cy="262.56" r="2" style="fill:rgb(253,127,111);stroke:none;fill-opacity:1;stroke-opacity:1;" /><path d="M 451.85202 262.56 L 405 263.2725" style="stroke:rgb(253,127,111);stroke-width:1" /><circle cx="405" cy="263.2725" r="2" style="fill:rgb(253,127,111);stroke:none;fill-opacity:1;stroke-opacity:1;" /><path d="M 405 263.2725 L 338.96576 264.31" style="stroke:rgb(253,127,111);stroke-width:1" /><circle cx="338.96576" cy="264.31" r="2" style="fill:rgb(253,127,111);stroke:none;fill-opacity:1;stroke-opacity:1;" /><path d="M 338.96576 264.31 L 292.11377 264.9475" style="stroke:rgb(253,127,111);stroke-width:1" /><circle cx="292.11377" cy="264.9475" r="2" style="fill:rgb(253,127,111);stroke:none;fill-opacity:1;stroke-opacity:1;" /><path d="M 292.11377 264.9475 L 255.7725 265.165" style="stroke:rgb(253,127,111);stroke-width:1" /><circle cx="255.7725" cy="265.165" r="2" style="fill:rgb(253,127,111);stroke:none;fill-opacity:1;stroke-opacity:1;" /><path d="M 255.7725 265.165 L 142.88626 266.15" style="stroke:rgb(253,127,111);stroke-width:1" /><circle cx="142.88626" cy="266.15" r="2" style="fill:rgb(253,127,111);stroke:none;fill-opacity:1;stroke-opacity:1;" /><path d="M 142.88626 266.15 L 30 267.005" style="stroke:rgb(253,127,111);stroke-width:1" /><circle cx="30" cy="267.005" r="2" style="fill:rgb(253,127,111);stroke:none;fill-opacity:1;stroke-opacity:1;" /><circle cx="780" cy="260.5975" r="2" style="fill:rgb(199,126,190);stroke:none;fill-opacity:1;stroke-opacity:1;" /><path d="M 780 260.5975 L 630.77246 263.4575" style="stroke:rgb(199,126,190);stroke-width:1" /><circle cx="630.77246" cy="263.4575" r="2" style="fill:rgb(199,126,190);stroke:none;fill-opacity:1;stroke-opacity:1;" /><path d="M 630.77246 263.4575 L 517.8862 264.97" style="stroke:rgb(199,126,190);stroke-width:1" /><circle cx="517.8862" cy="264.97" r="2" style="fill:rgb(199,126,190);stroke:none;fill-opacity:1;stroke-opacity:1;" /><path d="M 517.8862 264.97 L 451.85202 265.775" style="stroke:rgb(199,126,190);stroke-width:1" /><circle cx="451.85202" cy="265.775" r="2" style="fill:rgb(199,126,190);stroke:none;fill-opacity:1;stroke-opacity:1;" /><path d="M 451.85202 265.775 L 405 266.205" style="stroke:rgb(199,126,190);stroke-width:1" /><circle cx="405" cy="266.205" r="2" style="fill:rgb(199,126,190);stroke:none;fill-opacity:1;stroke-opacity:1;" /><path d="M 405 266.205 L 338.96576 266.7125" style="stroke:rgb(199,126,190);stroke-width:1" /><circle cx="338.96576" cy="266.7125" r="2" style="fill:rgb(199,126,190);stroke:none;fill-opacity:1;stroke-opacity:1;" /><path d="M 338.96576 266.7125 L 292.11377 266.83" style="stroke:rgb(199,126,190);stroke-width:1" /><circle cx="292.11377" cy="266.83" r="2" style="fill:rgb(199,126,190);stroke:none;fill-opacity:1;stroke-opacity:1;" /><path d="M 292.11377 266.83 L 255.7725 267.1625" style="stroke:rgb(199,126,190);stroke-width:1" /><circle cx="255.7725" cy="267.1625" r="2" style="fill:rgb(199,126,190);stroke:none;fill-opacity:1;stroke-opacity:1;" /><path d="M 255.7725 267.1625 L 142.88626 267.6775" style="stroke:rgb(199,126,190);stroke-width:1" /><circle cx="142.88626" cy="267.6775" r="2" style="fill:rgb(199,126,190);stroke:none;fill-opacity:1;stroke-opacity:1;" /><path d="M 142.88626 267.6775 L 30 267.935" style="stroke:rgb(199,126,190);stroke-width:1" /><circle cx="30" cy="267.935" r="2" style="fill:rgb(199,126,190);stroke:none;fill-opacity:1;stroke-opacity:1;" /><rect x="676" y="16" width="80" height="196" ry="4" style="fill:rgb(30,30,30);stroke:none;fill-opacity:0.8;stroke-opacity:1;" /><rect x="680" y="20" width="20" height="20" ry="2" style="fill:rgb(253,127,111);stroke:none;fill-opacity:1;stroke-opacity:1;" /><text x="705" y="33" style="font-size:10px;fill:rgb(255,255,255);text-anchor:start;text-align:left;"> fwd-diff </text><rect x="680" y="41" width="20" height="20" ry="2" style="fill:rgb(255,181,90);stroke:none;fill-opacity:1;stroke-opacity:1;" /><text x="705" y="54" style="font-size:10px;fill:rgb(255,255,255);text-anchor:start;text-align:left;"> hain </text><rect x="680" y="62" width="20" height="20" ry="2" style="fill:rgb(50,125,209);stroke:none;fill-opacity:1;stroke-opacity:1;" /><text x="705" y="75" style="font-size:10px;fill:rgb(255,255,255);text-anchor:start;text-align:left;"> levien </text><rect x="680" y="83" width="20" height="20" ry="2" style="fill:rgb(119,211,179);stroke:none;fill-opacity:1;stroke-opacity:1;" /><text x="705" y="96" style="font-size:10px;fill:rgb(255,255,255);text-anchor:start;text-align:left;"> levien-linear </text><rect x="680" y="104" width="20" height="20" ry="2" style="fill:rgb(126,176,213);stroke:none;fill-opacity:1;stroke-opacity:1;" /><text x="705" y="117" style="font-size:10px;fill:rgb(255,255,255);text-anchor:start;text-align:left;"> levien-simd </text><rect x="680" y="125" width="20" height="20" ry="2" style="fill:rgb(128,214,87);stroke:none;fill-opacity:1;stroke-opacity:1;" /><text x="705" y="138" style="font-size:10px;fill:rgb(255,255,255);text-anchor:start;text-align:left;"> linear </text><rect x="680" y="146" width="20" height="20" ry="2" style="fill:rgb(255,238,101);stroke:none;fill-opacity:1;stroke-opacity:1;" /><text x="705" y="159" style="font-size:10px;fill:rgb(255,255,255);text-anchor:start;text-align:left;"> recursive </text><rect x="680" y="167" width="20" height="20" ry="2" style="fill:rgb(253,204,229);stroke:none;fill-opacity:1;stroke-opacity:1;" /><text x="705" y="180" style="font-size:10px;fill:rgb(255,255,255);text-anchor:start;text-align:left;"> wang </text><rect x="680" y="188" width="20" height="20" ry="2" style="fill:rgb(199,126,190);stroke:none;fill-opacity:1;stroke-opacity:1;" /><text x="705" y="201" style="font-size:10px;fill:rgb(255,255,255);text-anchor:start;text-align:left;"> wang-simd </text><text x="400" y="30" style="font-size:20px;fill:rgb(255,255,255);text-anchor:middle;text-align:center;"> tiger dataset: cubic </text><text x="400" y="42" style="font-size:8px;fill:rgb(200,200,200);text-anchor:middle;text-align:center;"> Normalized performance score (lower is better) </text></svg>