<svg xmlns="http://www.w3.org/2000/svg" viewBox="0 0 800 300"><rect x="0" y="0" width="800" height="300" ry="6" style="fill:rgb(30,30,30);stroke:none;fill-opacity:1;stroke-opacity:1;" /><path d="M 30 20 L 30 270" style="stroke:rgb(200,200,200);stroke-width:1" /><path d="M 30 270 L 780 270" style="stroke:rgb(200,200,200);stroke-width:1" /><path d="M 780 270 L 780 272" style="stroke:rgb(200,200,200);stroke-width:1" /><text x="780" y="282" style="font-size:10px;fill:rgb(200,200,200);text-anchor:middle;text-align:center;"> 0.01 </text><path d="M 630.77246 270 L 630.77246 272" style="stroke:rgb(200,200,200);stroke-width:1" /><text x="630.77246" y="282" style="font-size:10px;fill:rgb(200,200,200);text-anchor:middle;text-align:center;"> 0.025 </text><path d="M 517.8862 270 L 517.8862 272" style="stroke:rgb(200,200,200);stroke-width:1" /><text x="517.8862" y="282" style="font-size:10px;fill:rgb(200,200,200);text-anchor:middle;text-align:center;"> 0.05 </text><path d="M 451.85202 270 L 451.85202 272" style="stroke:rgb(200,200,200);stroke-width:1" /><text x="451.85202" y="282" style="font-size:10px;fill:rgb(200,200,200);text-anchor:middle;text-align:center;"> 0.075 </text><path d="M 405 270 L 405 272" style="stroke:rgb(200,200,200);stroke-width:1" /><text x="405" y="282" style="font-size:10px;fill:rgb(200,200,200);text-anchor:middle;text-align:center;"> 0.1 </text><path d="M 338.96576 270 L 338.96576 272" style="stroke:rgb(200,200,200);stroke-width:1" /><text x="338.96576" y="282" style="font-size:10px;fill:rgb(200,200,200);text-anchor:middle;text-align:center;"> 0.15 </text><path d="M 292.11377 270 L 292.11377 272" style="stroke:rgb(200,200,200);stroke-width:1" /><text x="292.11377" y="282" style="font-size:10px;fill:rgb(200,200,200);text-anchor:middle;text-align:center;"> 0.2 </text><path d="M 255.7725 270 L 255.7725 272" style="stroke:rgb(200,200,200);stroke-width:1" /><text x="255.7725" y="282" style="font-size:10px;fill:rgb(200,200,200);text-anchor:middle;text-align:center;"> 0.25 </text><path d="M 142.88626 270 L 142.88626 272" style="stroke:rgb(200,200,200);stroke-width:1" /><text x="142.88626" y="282" style="font-size:10px;fill:rgb(200,200,200);text-anchor:middle;text-align:center;"> 0.5 </text><path d="M 30 270 L 30 272" style="stroke:rgb(200,200,200);stroke-width:1" /><text x="30" y="282" style="font-size:10px;fill:rgb(200,200,200);text-anchor:middle;text-align:center;"> 1 </text><path d="M 28 270 L 30 270" style="stroke:rgb(200,200,200);stroke-width:1" /><text x="26" y="274" style="font-size:10px;fill:rgb(200,200,200);text-anchor:end;text-align:right;"> 0 </text><path d="M 28 207.5 L 30 207.5" style="stroke:rgb(200,200,200);stroke-width:1" /><text x="26" y="211.5" style="font-size:10px;fill:rgb(200,200,200);text-anchor:end;text-align:right;"> 0.25 </text><path d="M 28 145 L 30 145" style="stroke:rgb(200,200,200);stroke-width:1" /><text x="26" y="149" style="font-size:10px;fill:rgb(200,200,200);text-anchor:end;text-align:right;"> 0.5 </text><path d="M 28 82.5 L 30 82.5" style="stroke:rgb(200,200,200);stroke-width:1" /><text x="26" y="86.5" style="font-size:10px;fill:rgb(200,200,200);text-anchor:end;text-align:right;"> 0.75 </text><path d="M 28 20 L 30 20" style="stroke:rgb(200,200,200);stroke-width:1" /><text x="26" y="24" style="font-size:10px;fill:rgb(200,200,200);text-anchor:end;text-align:right;"> 1 </text><text x="400" y="294" style="font-size:10px;fill:rgb(200,200,200);text-anchor:middle;text-align:center;"> Tolerance </text><circle cx="780" cy="20.522507" r="2" style="fill:rgb(128,214,87);stroke:none;fill-opacity:1;stroke-opacity:1;" /><path d="M 780 20.522507 L 630.77246 111.7375" style="stroke:rgb(128,214,87);stroke-width:1" /><circle cx="630.77246" cy="111.7375" r="2" style="fill:rgb(128,214,87);stroke:none;fill-opacity:1;stroke-opacity:1;" /><path d="M 630.77246 111.7375 L 517.8862 155.7425" style="stroke:rgb(128,214,87);stroke-width:1" /><circle cx="517.8862" cy="155.7425" r="2" style="fill:rgb(128,214,87);stroke:none;fill-opacity:1;stroke-opacity:1;" /><path d="M 517.8862 155.7425 L 451.85202 177.7425" style="stroke:rgb(128,214,87);stroke-width:1" /><circle cx="451.85202" cy="177.7425" r="2" style="fill:rgb(128,214,87);stroke:none;fill-opacity:1;stroke-opacity:1;" /><path d="M 451.85202 177.7425 L 405 189.445" style="stroke:rgb(128,214,87);stroke-width:1" /><circle cx="405" cy="189.445" r="2" style="fill:rgb(128,214,87);stroke:none;fill-opacity:1;stroke-opacity:1;" /><path d="M 405 189.445 L 338.96576 204.04001" style="stroke:rgb(128,214,87);stroke-width:1" /><circle cx="338.96576" cy="204.04001" r="2" style="fill:rgb(128,214,87);stroke:none;fill-opacity:1;stroke-opacity:1;" /><path d="M 338.96576 204.04001 L 292.11377 213.2925" style="stroke:rgb(128,214,87);stroke-width:1" /><circle cx="292.11377" cy="213.2925" r="2" style="fill:rgb(128,214,87);stroke:none;fill-opacity:1;stroke-opacity:1;" /><path d="M 292.11377 213.2925 L 255.7725 219.6925" style="stroke:rgb(128,214,87);stroke-width:1" /><circle cx="255.7725" cy="219.6925" r="2" style="fill:rgb(128,214,87);stroke:none;fill-opacity:1;stroke-opacity:1;" /><path d="M 255.7725 219.6925 L 142.88626 234.3175" style="stroke:rgb(128,214,87);stroke-width:1" /><circle cx="142.88626" cy="234.3175" r="2" style="fill:rgb(128,214,87);stroke:none;fill-opacity:1;stroke-opacity:1;" /><path d="M 142.88626 234.3175 L 30 244.97751" style="stroke:rgb(128,214,87);stroke-width:1" /><circle cx="30" cy="244.97751" r="2" style="fill:rgb(128,214,87);stroke:none;fill-opacity:1;stroke-opacity:1;" /><circle cx="780" cy="244.295" r="2" style="fill:rgb(253,127,111);stroke:none;fill-opacity:1;stroke-opacity:1;" /><path d="M 780 244.295 L 630.77246 250.885" style="stroke:rgb(253,127,111);stroke-width:1" /><circle cx="630.77246" cy="250.885" r="2" style="fill:rgb(253,127,111);stroke:none;fill-opacity:1;stroke-opacity:1;" /><path d="M 630.77246 250.885 L 517.8862 254.5725" style="stroke:rgb(253,127,111);stroke-width:1" /><circle cx="517.8862" cy="254.5725" r="2" style="fill:rgb(253,127,111);stroke:none;fill-opacity:1;stroke-opacity:1;" /><path d="M 517.8862 254.5725 L 451.85202 256.405" style="stroke:rgb(253,127,111);stroke-width:1" /><circle cx="451.85202" cy="256.405" r="2" style="fill:rgb(253,127,111);stroke:none;fill-opacity:1;stroke-opacity:1;" /><path d="M 451.85202 256.405 L 405 257.4825" style="stroke:rgb(253,127,111);stroke-width:1" /><circle cx="405" cy="257.4825" r="2" style="fill:rgb(253,127,111);stroke:none;fill-opacity:1;stroke-opacity:1;" /><path d="M 405 257.4825 L 338.96576 259.085" style="stroke:rgb(253,127,111);stroke-width:1" /><circle cx="338.96576" cy="259.085" r="2" style="fill:rgb(253,127,111);stroke:none;fill-opacity:1;stroke-opacity:1;" /><path d="M 338.96576 259.085 L 292.11377 260.08" style="stroke:rgb(253,127,111);stroke-width:1" /><circle cx="292.11377" cy="260.08" r="2" style="fill:rgb(253,127,111);stroke:none;fill-opacity:1;stroke-opacity:1;" /><path d="M 292.11377 260.08 L 255.7725 260.78" style="stroke:rgb(253,127,111);stroke-width:1" /><circle cx="255.7725" cy="260.78" r="2" style="fill:rgb(253,127,111);stroke:none;fill-opacity:1;stroke-opacity:1;" /><path d="M 255.7725 260.78 L 142.88626 262.6575" style="stroke:rgb(253,127,111);stroke-width:1" /><circle cx="142.88626" cy="262.6575" r="2" style="fill:rgb(253,127,111);stroke:none;fill-opacity:1;stroke-opacity:1;" /><path d="M 142.88626 262.6575 L 30 263.895" style="stroke:rgb(253,127,111);stroke-width:1" /><circle cx="30" cy="263.895" r="2" style="fill:rgb(253,127,111);stroke:none;fill-opacity:1;stroke-opacity:1;" /><circle cx="780" cy="135.2925" r="2" style="fill:rgb(50,125,209);stroke:none;fill-opacity:1;stroke-opacity:1;" /><path d="M 780 135.2925 L 630.77246 178.0975" style="stroke:rgb(50,125,209);stroke-width:1" /><circle cx="630.77246" cy="178.0975" r="2" style="fill:rgb(50,125,209);stroke:none;fill-opacity:1;stroke-opacity:1;" /><path d="M 630.77246 178.0975 L 517.8862 200.0975" style="stroke:rgb(50,125,209);stroke-width:1" /><circle cx="517.8862" cy="200.0975" r="2" style="fill:rgb(50,125,209);stroke:none;fill-opacity:1;stroke-opacity:1;" /><path d="M 517.8862 200.0975 L 451.85202 210.055" style="stroke:rgb(50,125,209);stroke-width:1" /><circle cx="451.85202" cy="210.055" r="2" style="fill:rgb(50,125,209);stroke:none;fill-opacity:1;stroke-opacity:1;" /><path d="M 451.85202 210.055 L 405 215.85251" style="stroke:rgb(50,125,209);stroke-width:1" /><circle cx="405" cy="215.85251" r="2" style="fill:rgb(50,125,209);stroke:none;fill-opacity:1;stroke-opacity:1;" /><path d="M 405 215.85251 L 338.96576 222.9725" style="stroke:rgb(50,125,209);stroke-width:1" /><circle cx="338.96576" cy="222.9725" r="2" style="fill:rgb(50,125,209);stroke:none;fill-opacity:1;stroke-opacity:1;" /><path d="M 338.96576 222.9725 L 292.11377 227.375" style="stroke:rgb(50,125,209);stroke-width:1" /><circle cx="292.11377" cy="227.375" r="2" style="fill:rgb(50,125,209);stroke:none;fill-opacity:1;stroke-opacity:1;" /><path d="M 292.11377 227.375 L 255.7725 230.465" style="stroke:rgb(50,125,209);stroke-width:1" /><circle cx="255.7725" cy="230.465" r="2" style="fill:rgb(50,125,209);stroke:none;fill-opacity:1;stroke-opacity:1;" /><path d="M 255.7725 230.465 L 142.88626 237.9475" style="stroke:rgb(50,125,209);stroke-width:1" /><circle cx="142.88626" cy="237.9475" r="2" style="fill:rgb(50,125,209);stroke:none;fill-opacity:1;stroke-opacity:1;" /><path d="M 142.88626 237.9475 L 30 243.3275" style="stroke:rgb(50,125,209);stroke-width:1" /><circle cx="30" cy="243.3275" r="2" style="fill:rgb(50,125,209);stroke:none;fill-opacity:1;stroke-opacity:1;" /><circle cx="780" cy="228.605" r="2" style="fill:rgb(126,176,213);stroke:none;fill-opacity:1;stroke-opacity:1;" /><path d="M 780 228.605 L 630.77246 239.08" style="stroke:rgb(126,176,213);stroke-width:1" /><circle cx="630.77246" cy="239.08" r="2" style="fill:rgb(126,176,213);stroke:none;fill-opacity:1;stroke-opacity:1;" /><path d="M 630.77246 239.08 L 517.8862 244.655" style="stroke:rgb(126,176,213);stroke-width:1" /><circle cx="517.8862" cy="244.655" r="2" style="fill:rgb(126,176,213);stroke:none;fill-opacity:1;stroke-opacity:1;" /><path d="M 517.8862 244.655 L 451.85202 247.42" style="stroke:rgb(126,176,213);stroke-width:1" /><circle cx="451.85202" cy="247.42" r="2" style="fill:rgb(126,176,213);stroke:none;fill-opacity:1;stroke-opacity:1;" /><path d="M 451.85202 247.42 L 405 249.135" style="stroke:rgb(126,176,213);stroke-width:1" /><circle cx="405" cy="249.135" r="2" style="fill:rgb(126,176,213);stroke:none;fill-opacity:1;stroke-opacity:1;" /><path d="M 405 249.135 L 338.96576 251.4325" style="stroke:rgb(126,176,213);stroke-width:1" /><circle cx="338.96576" cy="251.4325" r="2" style="fill:rgb(126,176,213);stroke:none;fill-opacity:1;stroke-opacity:1;" /><path d="M 338.96576 251.4325 L 292.11377 252.865" style="stroke:rgb(126,176,213);stroke-width:1" /><circle cx="292.11377" cy="252.865" r="2" style="fill:rgb(126,176,213);stroke:none;fill-opacity:1;stroke-opacity:1;" /><path d="M 292.11377 252.865 L 255.7725 253.795" style="stroke:rgb(126,176,213);stroke-width:1" /><circle cx="255.7725" cy="253.795" r="2" style="fill:rgb(126,176,213);stroke:none;fill-opacity:1;stroke-opacity:1;" /><path d="M 255.7725 253.795 L 142.88626 256.41" style="stroke:rgb(126,176,213);stroke-width:1" /><circle cx="142.88626" cy="256.41" r="2" style="fill:rgb(126,176,213);stroke:none;fill-opacity:1;stroke-opacity:1;" /><path d="M 142.88626 256.41 L 30 258.2775" style="stroke:rgb(126,176,213);stroke-width:1" /><circle cx="30" cy="258.2775" r="2" style="fill:rgb(126,176,213);stroke:none;fill-opacity:1;stroke-opacity:1;" /><circle cx="780" cy="243.4275" r="2" style="fill:rgb(253,204,229);stroke:none;fill-opacity:1;stroke-opacity:1;" /><path d="M 780 243.4275 L 630.77246 250.2175" style="stroke:rgb(253,204,229);stroke-width:1" /><circle cx="630.77246" cy="250.2175" r="2" style="fill:rgb(253,204,229);stroke:none;fill-opacity:1;stroke-opacity:1;" /><path d="M 630.77246 250.2175 L 517.8862 253.9825" style="stroke:rgb(253,204,229);stroke-width:1" /><circle cx="517.8862" cy="253.9825" r="2" style="fill:rgb(253,204,229);stroke:none;fill-opacity:1;stroke-opacity:1;" /><path d="M 517.8862 253.9825 L 451.85202 255.84" style="stroke:rgb(253,204,229);stroke-width:1" /><circle cx="451.85202" cy="255.84" r="2" style="fill:rgb(253,204,229);stroke:none;fill-opacity:1;stroke-opacity:1;" /><path d="M 451.85202 255.84 L 405 257.03" style="stroke:rgb(253,204,229);stroke-width:1" /><circle cx="405" cy="257.03" r="2" style="fill:rgb(253,204,229);stroke:none;fill-opacity:1;stroke-opacity:1;" /><path d="M 405 257.03 L 338.96576 258.6075" style="stroke:rgb(253,204,229);stroke-width:1" /><circle cx="338.96576" cy="258.6075" r="2" style="fill:rgb(253,204,229);stroke:none;fill-opacity:1;stroke-opacity:1;" /><path d="M 338.96576 258.6075 L 292.11377 259.6525" style="stroke:rgb(253,204,229);stroke-width:1" /><circle cx="292.11377" cy="259.6525" r="2" style="fill:rgb(253,204,229);stroke:none;fill-opacity:1;stroke-opacity:1;" /><path d="M 292.11377 259.6525 L 255.7725 260.4075" style="stroke:rgb(253,204,229);stroke-width:1" /><circle cx="255.7725" cy="260.4075" r="2" style="fill:rgb(253,204,229);stroke:none;fill-opacity:1;stroke-opacity:1;" /><path d="M 255.7725 260.4075 L 142.88626 262.3875" style="stroke:rgb(253,204,229);stroke-width:1" /><circle cx="142.88626" cy="262.3875" r="2" style="fill:rgb(253,204,229);stroke:none;fill-opacity:1;stroke-opacity:1;" /><path d="M 142.88626 262.3875 L 30 263.7575" style="stroke:rgb(253,204,229);stroke-width:1" /><circle cx="30" cy="263.7575" r="2" style="fill:rgb(253,204,229);stroke:none;fill-opacity:1;stroke-opacity:1;" /><circle cx="780" cy="20" r="2" style="fill:rgb(255,238,101);stroke:none;fill-opacity:1;stroke-opacity:1;" /><path d="M 780 20 L 630.77246 121.4825" style="stroke:rgb(255,238,101);stroke-width:1" /><circle cx="630.77246" cy="121.4825" r="2" style="fill:rgb(255,238,101);stroke:none;fill-opacity:1;stroke-opacity:1;" /><path d="M 630.77246 121.4825 L 517.8862 155.095" style="stroke:rgb(255,238,101);stroke-width:1" /><circle cx="517.8862" cy="155.095" r="2" style="fill:rgb(255,238,101);stroke:none;fill-opacity:1;stroke-opacity:1;" /><path d="M 517.8862 155.095 L 451.85202 180.065" style="stroke:rgb(255,238,101);stroke-width:1" /><circle cx="451.85202" cy="180.065" r="2" style="fill:rgb(255,238,101);stroke:none;fill-opacity:1;stroke-opacity:1;" /><path d="M 451.85202 180.065 L 405 195.9825" style="stroke:rgb(255,238,101);stroke-width:1" /><circle cx="405" cy="195.9825" r="2" style="fill:rgb(255,238,101);stroke:none;fill-opacity:1;stroke-opacity:1;" /><path d="M 405 195.9825 L 338.96576 206.44" style="stroke:rgb(255,238,101);stroke-width:1" /><circle cx="338.96576" cy="206.44" r="2" style="fill:rgb(255,238,101);stroke:none;fill-opacity:1;stroke-opacity:1;" /><path d="M 338.96576 206.44 L 292.11377 212.8875" style="stroke:rgb(255,238,101);stroke-width:1" /><circle cx="292.11377" cy="212.8875" r="2" style="fill:rgb(255,238,101);stroke:none;fill-opacity:1;stroke-opacity:1;" /><path d="M 292.11377 212.8875 L 255.7725 219.37" style="stroke:rgb(255,238,101);stroke-width:1" /><circle cx="255.7725" cy="219.37" r="2" style="fill:rgb(255,238,101);stroke:none;fill-opacity:1;stroke-opacity:1;" /><path d="M 255.7725 219.37 L 142.88626 236.8775" style="stroke:rgb(255,238,101);stroke-width:1" /><circle cx="142.88626" cy="236.8775" r="2" style="fill:rgb(255,238,101);stroke:none;fill-opacity:1;stroke-opacity:1;" /><path d="M 142.88626 236.8775 L 30 244.8825" style="stroke:rgb(255,238,101);stroke-width:1" /><circle cx="30" cy="244.8825" r="2" style="fill:rgb(255,238,101);stroke:none;fill-opacity:1;stroke-opacity:1;" /><rect x="676" y="16" width="80" height="133" ry="4" style="fill:rgb(30,30,30);stroke:none;fill-opacity:0.8;stroke-opacity:1;" /><rect x="680" y="20" width="20" height="20" ry="2" style="fill:rgb(253,127,111);stroke:none;fill-opacity:1;stroke-opacity:1;" /><text x="705" y="33" style="font-size:10px;fill:rgb(255,255,255);text-anchor:start;text-align:left;"> fwd-diff </text><rect x="680" y="41" width="20" height="20" ry="2" style="fill:rgb(50,125,209);stroke:none;fill-opacity:1;stroke-opacity:1;" /><text x="705" y="54" style="font-size:10px;fill:rgb(255,255,255);text-anchor:start;text-align:left;"> levien </text><rect x="680" y="62" width="20" height="20" ry="2" style="fill:rgb(126,176,213);stroke:none;fill-opacity:1;stroke-opacity:1;" /><text x="705" y="75" style="font-size:10px;fill:rgb(255,255,255);text-anchor:start;text-align:left;"> levien-simd </text><rect x="680" y="83" width="20" height="20" ry="2" style="fill:rgb(128,214,87);stroke:none;fill-opacity:1;stroke-opacity:1;" /><text x="705" y="96" style="font-size:10px;fill:rgb(255,255,255);text-anchor:start;text-align:left;"> linear </text><rect x="680" y="104" width="20" height="20" ry="2" style="fill:rgb(255,238,101);stroke:none;fill-opacity:1;stroke-opacity:1;" /><text x="705" y="117" style="font-size:10px;fill:rgb(255,255,255);text-anchor:start;text-align:left;"> recursive </text><rect x="680" y="125" width="20" height="20" ry="2" style="fill:rgb(253,204,229);stroke:none;fill-opacity:1;stroke-opacity:1;" /><text x="705" y="138" style="font-size:10px;fill:rgb(255,255,255);text-anchor:start;text-align:left;"> wang </text><text x="400" y="30" style="font-size:20px;fill:rgb(255,255,255);text-anchor:middle;text-align:center;"> all dataset: quadratic </text><text x="400" y="42" style="font-size:8px;fill:rgb(200,200,200);text-anchor:middle;text-align:center;"> Normalized performance score (lower is better) </text></svg>