<svg xmlns="http://www.w3.org/2000/svg" viewBox="0 0 800 300"><rect x="0" y="0" width="800" height="300" ry="6" style="fill:rgb(30,30,30);stroke:none;fill-opacity:1;stroke-opacity:1;" /><path d="M 30 20 L 30 270" style="stroke:rgb(200,200,200);stroke-width:1" /><path d="M 30 270 L 780 270" style="stroke:rgb(200,200,200);stroke-width:1" /><path d="M 780 270 L 780 272" style="stroke:rgb(200,200,200);stroke-width:1" /><text x="780" y="282" style="font-size:10px;fill:rgb(200,200,200);text-anchor:middle;text-align:center;"> 0.01 </text><path d="M 630.77246 270 L 630.77246 272" style="stroke:rgb(200,200,200);stroke-width:1" /><text x="630.77246" y="282" style="font-size:10px;fill:rgb(200,200,200);text-anchor:middle;text-align:center;"> 0.025 </text><path d="M 517.8862 270 L 517.8862 272" style="stroke:rgb(200,200,200);stroke-width:1" /><text x="517.8862" y="282" style="font-size:10px;fill:rgb(200,200,200);text-anchor:middle;text-align:center;"> 0.05 </text><path d="M 451.85202 270 L 451.85202 272" style="stroke:rgb(200,200,200);stroke-width:1" /><text x="451.85202" y="282" style="font-size:10px;fill:rgb(200,200,200);text-anchor:middle;text-align:center;"> 0.075 </text><path d="M 405 270 L 405 272" style="stroke:rgb(200,200,200);stroke-width:1" /><text x="405" y="282" style="font-size:10px;fill:rgb(200,200,200);text-anchor:middle;text-align:center;"> 0.1 </text><path d="M 338.96576 270 L 338.96576 272" style="stroke:rgb(200,200,200);stroke-width:1" /><text x="338.96576" y="282" style="font-size:10px;fill:rgb(200,200,200);text-anchor:middle;text-align:center;"> 0.15 </text><path d="M 292.11377 270 L 292.11377 272" style="stroke:rgb(200,200,200);stroke-width:1" /><text x="292.11377" y="282" style="font-size:10px;fill:rgb(200,200,200);text-anchor:middle;text-align:center;"> 0.2 </text><path d="M 255.7725 270 L 255.7725 272" style="stroke:rgb(200,200,200);stroke-width:1" /><text x="255.7725" y="282" style="font-size:10px;fill:rgb(200,200,200);text-anchor:middle;text-align:center;"> 0.25 </text><path d="M 142.88626 270 L 142.88626 272" style="stroke:rgb(200,200,200);stroke-width:1" /><text x="142.88626" y="282" style="font-size:10px;fill:rgb(200,200,200);text-anchor:middle;text-align:center;"> 0.5 </text><path d="M 30 270 L 30 272" style="stroke:rgb(200,200,200);stroke-width:1" /><text x="30" y="282" style="font-size:10px;fill:rgb(200,200,200);text-anchor:middle;text-align:center;"> 1 </text><path d="M 28 270 L 30 270" style="stroke:rgb(200,200,200);stroke-width:1" /><text x="26" y="274" style="font-size:10px;fill:rgb(200,200,200);text-anchor:end;text-align:right;"> 0 </text><path d="M 28 207.5 L 30 207.5" style="stroke:rgb(200,200,200);stroke-width:1" /><text x="26" y="211.5" style="font-size:10px;fill:rgb(200,200,200);text-anchor:end;text-align:right;"> 0.25 </text><path d="M 28 145 L 30 145" style="stroke:rgb(200,200,200);stroke-width:1" /><text x="26" y="149" style="font-size:10px;fill:rgb(200,200,200);text-anchor:end;text-align:right;"> 0.5 </text><path d="M 28 82.5 L 30 82.5" style="stroke:rgb(200,200,200);stroke-width:1" /><text x="26" y="86.5" style="font-size:10px;fill:rgb(200,200,200);text-anchor:end;text-align:right;"> 0.75 </text><path d="M 28 20 L 30 20" style="stroke:rgb(200,200,200);stroke-width:1" /><text x="26" y="24" style="font-size:10px;fill:rgb(200,200,200);text-anchor:end;text-align:right;"> 1 </text><text x="400" y="294" style="font-size:10px;fill:rgb(200,200,200);text-anchor:middle;text-align:center;"> Tolerance </text><circle cx="780" cy="257.4425" r="2" style="fill:rgb(253,204,229);stroke:none;fill-opacity:1;stroke-opacity:1;" /><path d="M 780 257.4425 L 630.77246 261.6325" style="stroke:rgb(253,204,229);stroke-width:1" /><circle cx="630.77246" cy="261.6325" r="2" style="fill:rgb(253,204,229);stroke:none;fill-opacity:1;stroke-opacity:1;" /><path d="M 630.77246 261.6325 L 517.8862 263.725" style="stroke:rgb(253,204,229);stroke-width:1" /><circle cx="517.8862" cy="263.725" r="2" style="fill:rgb(253,204,229);stroke:none;fill-opacity:1;stroke-opacity:1;" /><path d="M 517.8862 263.725 L 451.85202 264.64" style="stroke:rgb(253,204,229);stroke-width:1" /><circle cx="451.85202" cy="264.64" r="2" style="fill:rgb(253,204,229);stroke:none;fill-opacity:1;stroke-opacity:1;" /><path d="M 451.85202 264.64 L 405 265.2175" style="stroke:rgb(253,204,229);stroke-width:1" /><circle cx="405" cy="265.2175" r="2" style="fill:rgb(253,204,229);stroke:none;fill-opacity:1;stroke-opacity:1;" /><path d="M 405 265.2175 L 338.96576 265.9325" style="stroke:rgb(253,204,229);stroke-width:1" /><circle cx="338.96576" cy="265.9325" r="2" style="fill:rgb(253,204,229);stroke:none;fill-opacity:1;stroke-opacity:1;" /><path d="M 338.96576 265.9325 L 292.11377 266.3475" style="stroke:rgb(253,204,229);stroke-width:1" /><circle cx="292.11377" cy="266.3475" r="2" style="fill:rgb(253,204,229);stroke:none;fill-opacity:1;stroke-opacity:1;" /><path d="M 292.11377 266.3475 L 255.7725 266.6525" style="stroke:rgb(253,204,229);stroke-width:1" /><circle cx="255.7725" cy="266.6525" r="2" style="fill:rgb(253,204,229);stroke:none;fill-opacity:1;stroke-opacity:1;" /><path d="M 255.7725 266.6525 L 142.88626 267.395" style="stroke:rgb(253,204,229);stroke-width:1" /><circle cx="142.88626" cy="267.395" r="2" style="fill:rgb(253,204,229);stroke:none;fill-opacity:1;stroke-opacity:1;" /><path d="M 142.88626 267.395 L 30 267.9675" style="stroke:rgb(253,204,229);stroke-width:1" /><circle cx="30" cy="267.9675" r="2" style="fill:rgb(253,204,229);stroke:none;fill-opacity:1;stroke-opacity:1;" /><circle cx="780" cy="253.825" r="2" style="fill:rgb(126,176,213);stroke:none;fill-opacity:1;stroke-opacity:1;" /><path d="M 780 253.825 L 630.77246 257.385" style="stroke:rgb(126,176,213);stroke-width:1" /><circle cx="630.77246" cy="257.385" r="2" style="fill:rgb(126,176,213);stroke:none;fill-opacity:1;stroke-opacity:1;" /><path d="M 630.77246 257.385 L 517.8862 259.27" style="stroke:rgb(126,176,213);stroke-width:1" /><circle cx="517.8862" cy="259.27" r="2" style="fill:rgb(126,176,213);stroke:none;fill-opacity:1;stroke-opacity:1;" /><path d="M 517.8862 259.27 L 451.85202 260.1" style="stroke:rgb(126,176,213);stroke-width:1" /><circle cx="451.85202" cy="260.1" r="2" style="fill:rgb(126,176,213);stroke:none;fill-opacity:1;stroke-opacity:1;" /><path d="M 451.85202 260.1 L 405 260.6225" style="stroke:rgb(126,176,213);stroke-width:1" /><circle cx="405" cy="260.6225" r="2" style="fill:rgb(126,176,213);stroke:none;fill-opacity:1;stroke-opacity:1;" /><path d="M 405 260.6225 L 338.96576 261.2925" style="stroke:rgb(126,176,213);stroke-width:1" /><circle cx="338.96576" cy="261.2925" r="2" style="fill:rgb(126,176,213);stroke:none;fill-opacity:1;stroke-opacity:1;" /><path d="M 338.96576 261.2925 L 292.11377 261.7125" style="stroke:rgb(126,176,213);stroke-width:1" /><circle cx="292.11377" cy="261.7125" r="2" style="fill:rgb(126,176,213);stroke:none;fill-opacity:1;stroke-opacity:1;" /><path d="M 292.11377 261.7125 L 255.7725 262.015" style="stroke:rgb(126,176,213);stroke-width:1" /><circle cx="255.7725" cy="262.015" r="2" style="fill:rgb(126,176,213);stroke:none;fill-opacity:1;stroke-opacity:1;" /><path d="M 255.7725 262.015 L 142.88626 262.8325" style="stroke:rgb(126,176,213);stroke-width:1" /><circle cx="142.88626" cy="262.8325" r="2" style="fill:rgb(126,176,213);stroke:none;fill-opacity:1;stroke-opacity:1;" /><path d="M 142.88626 262.8325 L 30 263.5875" style="stroke:rgb(126,176,213);stroke-width:1" /><circle cx="30" cy="263.5875" r="2" style="fill:rgb(126,176,213);stroke:none;fill-opacity:1;stroke-opacity:1;" /><circle cx="780" cy="163.43" r="2" style="fill:rgb(255,238,101);stroke:none;fill-opacity:1;stroke-opacity:1;" /><path d="M 780 163.43 L 630.77246 206.725" style="stroke:rgb(255,238,101);stroke-width:1" /><circle cx="630.77246" cy="206.725" r="2" style="fill:rgb(255,238,101);stroke:none;fill-opacity:1;stroke-opacity:1;" /><path d="M 630.77246 206.725 L 517.8862 221.22751" style="stroke:rgb(255,238,101);stroke-width:1" /><circle cx="517.8862" cy="221.22751" r="2" style="fill:rgb(255,238,101);stroke:none;fill-opacity:1;stroke-opacity:1;" /><path d="M 517.8862 221.22751 L 451.85202 231.89749" style="stroke:rgb(255,238,101);stroke-width:1" /><circle cx="451.85202" cy="231.89749" r="2" style="fill:rgb(255,238,101);stroke:none;fill-opacity:1;stroke-opacity:1;" /><path d="M 451.85202 231.89749 L 405 238.5875" style="stroke:rgb(255,238,101);stroke-width:1" /><circle cx="405" cy="238.5875" r="2" style="fill:rgb(255,238,101);stroke:none;fill-opacity:1;stroke-opacity:1;" /><path d="M 405 238.5875 L 338.96576 243.0425" style="stroke:rgb(255,238,101);stroke-width:1" /><circle cx="338.96576" cy="243.0425" r="2" style="fill:rgb(255,238,101);stroke:none;fill-opacity:1;stroke-opacity:1;" /><path d="M 338.96576 243.0425 L 292.11377 245.855" style="stroke:rgb(255,238,101);stroke-width:1" /><circle cx="292.11377" cy="245.855" r="2" style="fill:rgb(255,238,101);stroke:none;fill-opacity:1;stroke-opacity:1;" /><path d="M 292.11377 245.855 L 255.7725 248.625" style="stroke:rgb(255,238,101);stroke-width:1" /><circle cx="255.7725" cy="248.625" r="2" style="fill:rgb(255,238,101);stroke:none;fill-opacity:1;stroke-opacity:1;" /><path d="M 255.7725 248.625 L 142.88626 256.08" style="stroke:rgb(255,238,101);stroke-width:1" /><circle cx="142.88626" cy="256.08" r="2" style="fill:rgb(255,238,101);stroke:none;fill-opacity:1;stroke-opacity:1;" /><path d="M 142.88626 256.08 L 30 259.57" style="stroke:rgb(255,238,101);stroke-width:1" /><circle cx="30" cy="259.57" r="2" style="fill:rgb(255,238,101);stroke:none;fill-opacity:1;stroke-opacity:1;" /><circle cx="780" cy="255.6625" r="2" style="fill:rgb(253,127,111);stroke:none;fill-opacity:1;stroke-opacity:1;" /><path d="M 780 255.6625 L 630.77246 260.8825" style="stroke:rgb(253,127,111);stroke-width:1" /><circle cx="630.77246" cy="260.8825" r="2" style="fill:rgb(253,127,111);stroke:none;fill-opacity:1;stroke-opacity:1;" /><path d="M 630.77246 260.8825 L 517.8862 263.51" style="stroke:rgb(253,127,111);stroke-width:1" /><circle cx="517.8862" cy="263.51" r="2" style="fill:rgb(253,127,111);stroke:none;fill-opacity:1;stroke-opacity:1;" /><path d="M 517.8862 263.51 L 451.85202 264.62" style="stroke:rgb(253,127,111);stroke-width:1" /><circle cx="451.85202" cy="264.62" r="2" style="fill:rgb(253,127,111);stroke:none;fill-opacity:1;stroke-opacity:1;" /><path d="M 451.85202 264.62 L 405 265.25" style="stroke:rgb(253,127,111);stroke-width:1" /><circle cx="405" cy="265.25" r="2" style="fill:rgb(253,127,111);stroke:none;fill-opacity:1;stroke-opacity:1;" /><path d="M 405 265.25 L 338.96576 265.9925" style="stroke:rgb(253,127,111);stroke-width:1" /><circle cx="338.96576" cy="265.9925" r="2" style="fill:rgb(253,127,111);stroke:none;fill-opacity:1;stroke-opacity:1;" /><path d="M 338.96576 265.9925 L 292.11377 266.41" style="stroke:rgb(253,127,111);stroke-width:1" /><circle cx="292.11377" cy="266.41" r="2" style="fill:rgb(253,127,111);stroke:none;fill-opacity:1;stroke-opacity:1;" /><path d="M 292.11377 266.41 L 255.7725 266.7075" style="stroke:rgb(253,127,111);stroke-width:1" /><circle cx="255.7725" cy="266.7075" r="2" style="fill:rgb(253,127,111);stroke:none;fill-opacity:1;stroke-opacity:1;" /><path d="M 255.7725 266.7075 L 142.88626 267.445" style="stroke:rgb(253,127,111);stroke-width:1" /><circle cx="142.88626" cy="267.445" r="2" style="fill:rgb(253,127,111);stroke:none;fill-opacity:1;stroke-opacity:1;" /><path d="M 142.88626 267.445 L 30 268.005" style="stroke:rgb(253,127,111);stroke-width:1" /><circle cx="30" cy="268.005" r="2" style="fill:rgb(253,127,111);stroke:none;fill-opacity:1;stroke-opacity:1;" /><circle cx="780" cy="253.895" r="2" style="fill:rgb(119,211,179);stroke:none;fill-opacity:1;stroke-opacity:1;" /><path d="M 780 253.895 L 630.77246 257.7175" style="stroke:rgb(119,211,179);stroke-width:1" /><circle cx="630.77246" cy="257.7175" r="2" style="fill:rgb(119,211,179);stroke:none;fill-opacity:1;stroke-opacity:1;" /><path d="M 630.77246 257.7175 L 517.8862 259.9725" style="stroke:rgb(119,211,179);stroke-width:1" /><circle cx="517.8862" cy="259.9725" r="2" style="fill:rgb(119,211,179);stroke:none;fill-opacity:1;stroke-opacity:1;" /><path d="M 517.8862 259.9725 L 451.85202 261.07" style="stroke:rgb(119,211,179);stroke-width:1" /><circle cx="451.85202" cy="261.07" r="2" style="fill:rgb(119,211,179);stroke:none;fill-opacity:1;stroke-opacity:1;" /><path d="M 451.85202 261.07 L 405 261.72" style="stroke:rgb(119,211,179);stroke-width:1" /><circle cx="405" cy="261.72" r="2" style="fill:rgb(119,211,179);stroke:none;fill-opacity:1;stroke-opacity:1;" /><path d="M 405 261.72 L 338.96576 262.5775" style="stroke:rgb(119,211,179);stroke-width:1" /><circle cx="338.96576" cy="262.5775" r="2" style="fill:rgb(119,211,179);stroke:none;fill-opacity:1;stroke-opacity:1;" /><path d="M 338.96576 262.5775 L 292.11377 263.07" style="stroke:rgb(119,211,179);stroke-width:1" /><circle cx="292.11377" cy="263.07" r="2" style="fill:rgb(119,211,179);stroke:none;fill-opacity:1;stroke-opacity:1;" /><path d="M 292.11377 263.07 L 255.7725 263.495" style="stroke:rgb(119,211,179);stroke-width:1" /><circle cx="255.7725" cy="263.495" r="2" style="fill:rgb(119,211,179);stroke:none;fill-opacity:1;stroke-opacity:1;" /><path d="M 255.7725 263.495 L 142.88626 264.59" style="stroke:rgb(119,211,179);stroke-width:1" /><circle cx="142.88626" cy="264.59" r="2" style="fill:rgb(119,211,179);stroke:none;fill-opacity:1;stroke-opacity:1;" /><path d="M 142.88626 264.59 L 30 265.425" style="stroke:rgb(119,211,179);stroke-width:1" /><circle cx="30" cy="265.425" r="2" style="fill:rgb(119,211,179);stroke:none;fill-opacity:1;stroke-opacity:1;" /><circle cx="780" cy="20" r="2" style="fill:rgb(255,181,90);stroke:none;fill-opacity:1;stroke-opacity:1;" /><path d="M 780 20 L 630.77246 111.302505" style="stroke:rgb(255,181,90);stroke-width:1" /><circle cx="630.77246" cy="111.302505" r="2" style="fill:rgb(255,181,90);stroke:none;fill-opacity:1;stroke-opacity:1;" /><path d="M 630.77246 111.302505 L 517.8862 156.87" style="stroke:rgb(255,181,90);stroke-width:1" /><circle cx="517.8862" cy="156.87" r="2" style="fill:rgb(255,181,90);stroke:none;fill-opacity:1;stroke-opacity:1;" /><path d="M 517.8862 156.87 L 451.85202 177.28" style="stroke:rgb(255,181,90);stroke-width:1" /><circle cx="451.85202" cy="177.28" r="2" style="fill:rgb(255,181,90);stroke:none;fill-opacity:1;stroke-opacity:1;" /><path d="M 451.85202 177.28 L 405 189.58" style="stroke:rgb(255,181,90);stroke-width:1" /><circle cx="405" cy="189.58" r="2" style="fill:rgb(255,181,90);stroke:none;fill-opacity:1;stroke-opacity:1;" /><path d="M 405 189.58 L 338.96576 204.075" style="stroke:rgb(255,181,90);stroke-width:1" /><circle cx="338.96576" cy="204.075" r="2" style="fill:rgb(255,181,90);stroke:none;fill-opacity:1;stroke-opacity:1;" /><path d="M 338.96576 204.075 L 292.11377 212.81" style="stroke:rgb(255,181,90);stroke-width:1" /><circle cx="292.11377" cy="212.81" r="2" style="fill:rgb(255,181,90);stroke:none;fill-opacity:1;stroke-opacity:1;" /><path d="M 292.11377 212.81 L 255.7725 218.89" style="stroke:rgb(255,181,90);stroke-width:1" /><circle cx="255.7725" cy="218.89" r="2" style="fill:rgb(255,181,90);stroke:none;fill-opacity:1;stroke-opacity:1;" /><path d="M 255.7725 218.89 L 142.88626 233.405" style="stroke:rgb(255,181,90);stroke-width:1" /><circle cx="142.88626" cy="233.405" r="2" style="fill:rgb(255,181,90);stroke:none;fill-opacity:1;stroke-opacity:1;" /><path d="M 142.88626 233.405 L 30 243.79001" style="stroke:rgb(255,181,90);stroke-width:1" /><circle cx="30" cy="243.79001" r="2" style="fill:rgb(255,181,90);stroke:none;fill-opacity:1;stroke-opacity:1;" /><circle cx="780" cy="263.42" r="2" style="fill:rgb(199,126,190);stroke:none;fill-opacity:1;stroke-opacity:1;" /><path d="M 780 263.42 L 630.77246 265.335" style="stroke:rgb(199,126,190);stroke-width:1" /><circle cx="630.77246" cy="265.335" r="2" style="fill:rgb(199,126,190);stroke:none;fill-opacity:1;stroke-opacity:1;" /><path d="M 630.77246 265.335 L 517.8862 266.3275" style="stroke:rgb(199,126,190);stroke-width:1" /><circle cx="517.8862" cy="266.3275" r="2" style="fill:rgb(199,126,190);stroke:none;fill-opacity:1;stroke-opacity:1;" /><path d="M 517.8862 266.3275 L 451.85202 266.7825" style="stroke:rgb(199,126,190);stroke-width:1" /><circle cx="451.85202" cy="266.7825" r="2" style="fill:rgb(199,126,190);stroke:none;fill-opacity:1;stroke-opacity:1;" /><path d="M 451.85202 266.7825 L 405 267.065" style="stroke:rgb(199,126,190);stroke-width:1" /><circle cx="405" cy="267.065" r="2" style="fill:rgb(199,126,190);stroke:none;fill-opacity:1;stroke-opacity:1;" /><path d="M 405 267.065 L 338.96576 267.43" style="stroke:rgb(199,126,190);stroke-width:1" /><circle cx="338.96576" cy="267.43" r="2" style="fill:rgb(199,126,190);stroke:none;fill-opacity:1;stroke-opacity:1;" /><path d="M 338.96576 267.43 L 292.11377 267.68" style="stroke:rgb(199,126,190);stroke-width:1" /><circle cx="292.11377" cy="267.68" r="2" style="fill:rgb(199,126,190);stroke:none;fill-opacity:1;stroke-opacity:1;" /><path d="M 292.11377 267.68 L 255.7725 267.8625" style="stroke:rgb(199,126,190);stroke-width:1" /><circle cx="255.7725" cy="267.8625" r="2" style="fill:rgb(199,126,190);stroke:none;fill-opacity:1;stroke-opacity:1;" /><path d="M 255.7725 267.8625 L 142.88626 268.3175" style="stroke:rgb(199,126,190);stroke-width:1" /><circle cx="142.88626" cy="268.3175" r="2" style="fill:rgb(199,126,190);stroke:none;fill-opacity:1;stroke-opacity:1;" /><path d="M 142.88626 268.3175 L 30 268.7575" style="stroke:rgb(199,126,190);stroke-width:1" /><circle cx="30" cy="268.7575" r="2" style="fill:rgb(199,126,190);stroke:none;fill-opacity:1;stroke-opacity:1;" /><circle cx="780" cy="246.5575" r="2" style="fill:rgb(50,125,209);stroke:none;fill-opacity:1;stroke-opacity:1;" /><path d="M 780 246.5575 L 630.77246 252.545" style="stroke:rgb(50,125,209);stroke-width:1" /><circle cx="630.77246" cy="252.545" r="2" style="fill:rgb(50,125,209);stroke:none;fill-opacity:1;stroke-opacity:1;" /><path d="M 630.77246 252.545 L 517.8862 255.555" style="stroke:rgb(50,125,209);stroke-width:1" /><circle cx="517.8862" cy="255.555" r="2" style="fill:rgb(50,125,209);stroke:none;fill-opacity:1;stroke-opacity:1;" /><path d="M 517.8862 255.555 L 451.85202 256.905" style="stroke:rgb(50,125,209);stroke-width:1" /><circle cx="451.85202" cy="256.905" r="2" style="fill:rgb(50,125,209);stroke:none;fill-opacity:1;stroke-opacity:1;" /><path d="M 451.85202 256.905 L 405 257.84" style="stroke:rgb(50,125,209);stroke-width:1" /><circle cx="405" cy="257.84" r="2" style="fill:rgb(50,125,209);stroke:none;fill-opacity:1;stroke-opacity:1;" /><path d="M 405 257.84 L 338.96576 258.9175" style="stroke:rgb(50,125,209);stroke-width:1" /><circle cx="338.96576" cy="258.9175" r="2" style="fill:rgb(50,125,209);stroke:none;fill-opacity:1;stroke-opacity:1;" /><path d="M 338.96576 258.9175 L 292.11377 259.61" style="stroke:rgb(50,125,209);stroke-width:1" /><circle cx="292.11377" cy="259.61" r="2" style="fill:rgb(50,125,209);stroke:none;fill-opacity:1;stroke-opacity:1;" /><path d="M 292.11377 259.61 L 255.7725 260.1125" style="stroke:rgb(50,125,209);stroke-width:1" /><circle cx="255.7725" cy="260.1125" r="2" style="fill:rgb(50,125,209);stroke:none;fill-opacity:1;stroke-opacity:1;" /><path d="M 255.7725 260.1125 L 142.88626 261.34" style="stroke:rgb(50,125,209);stroke-width:1" /><circle cx="142.88626" cy="261.34" r="2" style="fill:rgb(50,125,209);stroke:none;fill-opacity:1;stroke-opacity:1;" /><path d="M 142.88626 261.34 L 30 262.4" style="stroke:rgb(50,125,209);stroke-width:1" /><circle cx="30" cy="262.4" r="2" style="fill:rgb(50,125,209);stroke:none;fill-opacity:1;stroke-opacity:1;" /><circle cx="780" cy="185.5975" r="2" style="fill:rgb(128,214,87);stroke:none;fill-opacity:1;stroke-opacity:1;" /><path d="M 780 185.5975 L 630.77246 216.22" style="stroke:rgb(128,214,87);stroke-width:1" /><circle cx="630.77246" cy="216.22" r="2" style="fill:rgb(128,214,87);stroke:none;fill-opacity:1;stroke-opacity:1;" /><path d="M 630.77246 216.22 L 517.8862 231.06" style="stroke:rgb(128,214,87);stroke-width:1" /><circle cx="517.8862" cy="231.06" r="2" style="fill:rgb(128,214,87);stroke:none;fill-opacity:1;stroke-opacity:1;" /><path d="M 517.8862 231.06 L 451.85202 238.1825" style="stroke:rgb(128,214,87);stroke-width:1" /><circle cx="451.85202" cy="238.1825" r="2" style="fill:rgb(128,214,87);stroke:none;fill-opacity:1;stroke-opacity:1;" /><path d="M 451.85202 238.1825 L 405 242.1875" style="stroke:rgb(128,214,87);stroke-width:1" /><circle cx="405" cy="242.1875" r="2" style="fill:rgb(128,214,87);stroke:none;fill-opacity:1;stroke-opacity:1;" /><path d="M 405 242.1875 L 338.96576 246.75" style="stroke:rgb(128,214,87);stroke-width:1" /><circle cx="338.96576" cy="246.75" r="2" style="fill:rgb(128,214,87);stroke:none;fill-opacity:1;stroke-opacity:1;" /><path d="M 338.96576 246.75 L 292.11377 249.8875" style="stroke:rgb(128,214,87);stroke-width:1" /><circle cx="292.11377" cy="249.8875" r="2" style="fill:rgb(128,214,87);stroke:none;fill-opacity:1;stroke-opacity:1;" /><path d="M 292.11377 249.8875 L 255.7725 252.14749" style="stroke:rgb(128,214,87);stroke-width:1" /><circle cx="255.7725" cy="252.14749" r="2" style="fill:rgb(128,214,87);stroke:none;fill-opacity:1;stroke-opacity:1;" /><path d="M 255.7725 252.14749 L 142.88626 257.495" style="stroke:rgb(128,214,87);stroke-width:1" /><circle cx="142.88626" cy="257.495" r="2" style="fill:rgb(128,214,87);stroke:none;fill-opacity:1;stroke-opacity:1;" /><path d="M 142.88626 257.495 L 30 261.1775" style="stroke:rgb(128,214,87);stroke-width:1" /><circle cx="30" cy="261.1775" r="2" style="fill:rgb(128,214,87);stroke:none;fill-opacity:1;stroke-opacity:1;" /><rect x="676" y="16" width="80" height="196" ry="4" style="fill:rgb(30,30,30);stroke:none;fill-opacity:0.8;stroke-opacity:1;" /><rect x="680" y="20" width="20" height="20" ry="2" style="fill:rgb(253,127,111);stroke:none;fill-opacity:1;stroke-opacity:1;" /><text x="705" y="33" style="font-size:10px;fill:rgb(255,255,255);text-anchor:start;text-align:left;"> fwd-diff </text><rect x="680" y="41" width="20" height="20" ry="2" style="fill:rgb(255,181,90);stroke:none;fill-opacity:1;stroke-opacity:1;" /><text x="705" y="54" style="font-size:10px;fill:rgb(255,255,255);text-anchor:start;text-align:left;"> hain </text><rect x="680" y="62" width="20" height="20" ry="2" style="fill:rgb(50,125,209);stroke:none;fill-opacity:1;stroke-opacity:1;" /><text x="705" y="75" style="font-size:10px;fill:rgb(255,255,255);text-anchor:start;text-align:left;"> levien </text><rect x="680" y="83" width="20" height="20" ry="2" style="fill:rgb(119,211,179);stroke:none;fill-opacity:1;stroke-opacity:1;" /><text x="705" y="96" style="font-size:10px;fill:rgb(255,255,255);text-anchor:start;text-align:left;"> levien-linear </text><rect x="680" y="104" width="20" height="20" ry="2" style="fill:rgb(126,176,213);stroke:none;fill-opacity:1;stroke-opacity:1;" /><text x="705" y="117" style="font-size:10px;fill:rgb(255,255,255);text-anchor:start;text-align:left;"> levien-simd </text><rect x="680" y="125" width="20" height="20" ry="2" style="fill:rgb(128,214,87);stroke:none;fill-opacity:1;stroke-opacity:1;" /><text x="705" y="138" style="font-size:10px;fill:rgb(255,255,255);text-anchor:start;text-align:left;"> linear </text><rect x="680" y="146" width="20" height="20" ry="2" style="fill:rgb(255,238,101);stroke:none;fill-opacity:1;stroke-opacity:1;" /><text x="705" y="159" style="font-size:10px;fill:rgb(255,255,255);text-anchor:start;text-align:left;"> recursive </text><rect x="680" y="167" width="20" height="20" ry="2" style="fill:rgb(253,204,229);stroke:none;fill-opacity:1;stroke-opacity:1;" /><text x="705" y="180" style="font-size:10px;fill:rgb(255,255,255);text-anchor:start;text-align:left;"> wang </text><rect x="680" y="188" width="20" height="20" ry="2" style="fill:rgb(199,126,190);stroke:none;fill-opacity:1;stroke-opacity:1;" /><text x="705" y="201" style="font-size:10px;fill:rgb(255,255,255);text-anchor:start;text-align:left;"> wang-simd </text><text x="400" y="30" style="font-size:20px;fill:rgb(255,255,255);text-anchor:middle;text-align:center;"> nehab dataset: cubic </text><text x="400" y="42" style="font-size:8px;fill:rgb(200,200,200);text-anchor:middle;text-align:center;"> Normalized performance score (lower is better) </text></svg>