<svg xmlns="http://www.w3.org/2000/svg" viewBox="0 0 800 300"><rect x="0" y="0" width="800" height="300" ry="6" style="fill:rgb(30,30,30);stroke:none;fill-opacity:1;stroke-opacity:1;" /><path d="M 30 20 L 30 270" style="stroke:rgb(200,200,200);stroke-width:1" /><path d="M 30 270 L 780 270" style="stroke:rgb(200,200,200);stroke-width:1" /><path d="M 780 270 L 780 272" style="stroke:rgb(200,200,200);stroke-width:1" /><text x="780" y="282" style="font-size:10px;fill:rgb(200,200,200);text-anchor:middle;text-align:center;"> 0.01 </text><path d="M 630.77246 270 L 630.77246 272" style="stroke:rgb(200,200,200);stroke-width:1" /><text x="630.77246" y="282" style="font-size:10px;fill:rgb(200,200,200);text-anchor:middle;text-align:center;"> 0.025 </text><path d="M 517.8862 270 L 517.8862 272" style="stroke:rgb(200,200,200);stroke-width:1" /><text x="517.8862" y="282" style="font-size:10px;fill:rgb(200,200,200);text-anchor:middle;text-align:center;"> 0.05 </text><path d="M 451.85202 270 L 451.85202 272" style="stroke:rgb(200,200,200);stroke-width:1" /><text x="451.85202" y="282" style="font-size:10px;fill:rgb(200,200,200);text-anchor:middle;text-align:center;"> 0.075 </text><path d="M 405 270 L 405 272" style="stroke:rgb(200,200,200);stroke-width:1" /><text x="405" y="282" style="font-size:10px;fill:rgb(200,200,200);text-anchor:middle;text-align:center;"> 0.1 </text><path d="M 338.96576 270 L 338.96576 272" style="stroke:rgb(200,200,200);stroke-width:1" /><text x="338.96576" y="282" style="font-size:10px;fill:rgb(200,200,200);text-anchor:middle;text-align:center;"> 0.15 </text><path d="M 292.11377 270 L 292.11377 272" style="stroke:rgb(200,200,200);stroke-width:1" /><text x="292.11377" y="282" style="font-size:10px;fill:rgb(200,200,200);text-anchor:middle;text-align:center;"> 0.2 </text><path d="M 255.7725 270 L 255.7725 272" style="stroke:rgb(200,200,200);stroke-width:1" /><text x="255.7725" y="282" style="font-size:10px;fill:rgb(200,200,200);text-anchor:middle;text-align:center;"> 0.25 </text><path d="M 142.88626 270 L 142.88626 272" style="stroke:rgb(200,200,200);stroke-width:1" /><text x="142.88626" y="282" style="font-size:10px;fill:rgb(200,200,200);text-anchor:middle;text-align:center;"> 0.5 </text><path d="M 30 270 L 30 272" style="stroke:rgb(200,200,200);stroke-width:1" /><text x="30" y="282" style="font-size:10px;fill:rgb(200,200,200);text-anchor:middle;text-align:center;"> 1 </text><path d="M 28 270 L 30 270" style="stroke:rgb(200,200,200);stroke-width:1" /><text x="26" y="274" style="font-size:10px;fill:rgb(200,200,200);text-anchor:end;text-align:right;"> 0 </text><path d="M 28 207.5 L 30 207.5" style="stroke:rgb(200,200,200);stroke-width:1" /><text x="26" y="211.5" style="font-size:10px;fill:rgb(200,200,200);text-anchor:end;text-align:right;"> 0.25 </text><path d="M 28 145 L 30 145" style="stroke:rgb(200,200,200);stroke-width:1" /><text x="26" y="149" style="font-size:10px;fill:rgb(200,200,200);text-anchor:end;text-align:right;"> 0.5 </text><path d="M 28 82.5 L 30 82.5" style="stroke:rgb(200,200,200);stroke-width:1" /><text x="26" y="86.5" style="font-size:10px;fill:rgb(200,200,200);text-anchor:end;text-align:right;"> 0.75 </text><path d="M 28 20 L 30 20" style="stroke:rgb(200,200,200);stroke-width:1" /><text x="26" y="24" style="font-size:10px;fill:rgb(200,200,200);text-anchor:end;text-align:right;"> 1 </text><text x="400" y="294" style="font-size:10px;fill:rgb(200,200,200);text-anchor:middle;text-align:center;"> Tolerance </text><circle cx="780" cy="252.59" r="2" style="fill:rgb(126,176,213);stroke:none;fill-opacity:1;stroke-opacity:1;" /><path d="M 780 252.59 L 630.77246 256.5275" style="stroke:rgb(126,176,213);stroke-width:1" /><circle cx="630.77246" cy="256.5275" r="2" style="fill:rgb(126,176,213);stroke:none;fill-opacity:1;stroke-opacity:1;" /><path d="M 630.77246 256.5275 L 517.8862 258.3325" style="stroke:rgb(126,176,213);stroke-width:1" /><circle cx="517.8862" cy="258.3325" r="2" style="fill:rgb(126,176,213);stroke:none;fill-opacity:1;stroke-opacity:1;" /><path d="M 517.8862 258.3325 L 451.85202 259.165" style="stroke:rgb(126,176,213);stroke-width:1" /><circle cx="451.85202" cy="259.165" r="2" style="fill:rgb(126,176,213);stroke:none;fill-opacity:1;stroke-opacity:1;" /><path d="M 451.85202 259.165 L 405 259.7025" style="stroke:rgb(126,176,213);stroke-width:1" /><circle cx="405" cy="259.7025" r="2" style="fill:rgb(126,176,213);stroke:none;fill-opacity:1;stroke-opacity:1;" /><path d="M 405 259.7025 L 338.96576 260.37" style="stroke:rgb(126,176,213);stroke-width:1" /><circle cx="338.96576" cy="260.37" r="2" style="fill:rgb(126,176,213);stroke:none;fill-opacity:1;stroke-opacity:1;" /><path d="M 338.96576 260.37 L 292.11377 260.65" style="stroke:rgb(126,176,213);stroke-width:1" /><circle cx="292.11377" cy="260.65" r="2" style="fill:rgb(126,176,213);stroke:none;fill-opacity:1;stroke-opacity:1;" /><path d="M 292.11377 260.65 L 255.7725 260.9375" style="stroke:rgb(126,176,213);stroke-width:1" /><circle cx="255.7725" cy="260.9375" r="2" style="fill:rgb(126,176,213);stroke:none;fill-opacity:1;stroke-opacity:1;" /><path d="M 255.7725 260.9375 L 142.88626 261.65" style="stroke:rgb(126,176,213);stroke-width:1" /><circle cx="142.88626" cy="261.65" r="2" style="fill:rgb(126,176,213);stroke:none;fill-opacity:1;stroke-opacity:1;" /><path d="M 142.88626 261.65 L 30 262.22" style="stroke:rgb(126,176,213);stroke-width:1" /><circle cx="30" cy="262.22" r="2" style="fill:rgb(126,176,213);stroke:none;fill-opacity:1;stroke-opacity:1;" /><circle cx="780" cy="226.63" r="2" style="fill:rgb(50,125,209);stroke:none;fill-opacity:1;stroke-opacity:1;" /><path d="M 780 226.63 L 630.77246 239.9" style="stroke:rgb(50,125,209);stroke-width:1" /><circle cx="630.77246" cy="239.9" r="2" style="fill:rgb(50,125,209);stroke:none;fill-opacity:1;stroke-opacity:1;" /><path d="M 630.77246 239.9 L 517.8862 246.47" style="stroke:rgb(50,125,209);stroke-width:1" /><circle cx="517.8862" cy="246.47" r="2" style="fill:rgb(50,125,209);stroke:none;fill-opacity:1;stroke-opacity:1;" /><path d="M 517.8862 246.47 L 451.85202 249.48" style="stroke:rgb(50,125,209);stroke-width:1" /><circle cx="451.85202" cy="249.48" r="2" style="fill:rgb(50,125,209);stroke:none;fill-opacity:1;stroke-opacity:1;" /><path d="M 451.85202 249.48 L 405 251.2775" style="stroke:rgb(50,125,209);stroke-width:1" /><circle cx="405" cy="251.2775" r="2" style="fill:rgb(50,125,209);stroke:none;fill-opacity:1;stroke-opacity:1;" /><path d="M 405 251.2775 L 338.96576 253.53" style="stroke:rgb(50,125,209);stroke-width:1" /><circle cx="338.96576" cy="253.53" r="2" style="fill:rgb(50,125,209);stroke:none;fill-opacity:1;stroke-opacity:1;" /><path d="M 338.96576 253.53 L 292.11377 254.6625" style="stroke:rgb(50,125,209);stroke-width:1" /><circle cx="292.11377" cy="254.6625" r="2" style="fill:rgb(50,125,209);stroke:none;fill-opacity:1;stroke-opacity:1;" /><path d="M 292.11377 254.6625 L 255.7725 255.7575" style="stroke:rgb(50,125,209);stroke-width:1" /><circle cx="255.7725" cy="255.7575" r="2" style="fill:rgb(50,125,209);stroke:none;fill-opacity:1;stroke-opacity:1;" /><path d="M 255.7725 255.7575 L 142.88626 258.0775" style="stroke:rgb(50,125,209);stroke-width:1" /><circle cx="142.88626" cy="258.0775" r="2" style="fill:rgb(50,125,209);stroke:none;fill-opacity:1;stroke-opacity:1;" /><path d="M 142.88626 258.0775 L 30 260.0025" style="stroke:rgb(50,125,209);stroke-width:1" /><circle cx="30" cy="260.0025" r="2" style="fill:rgb(50,125,209);stroke:none;fill-opacity:1;stroke-opacity:1;" /><circle cx="780" cy="156.68" r="2" style="fill:rgb(255,238,101);stroke:none;fill-opacity:1;stroke-opacity:1;" /><path d="M 780 156.68 L 630.77246 202.925" style="stroke:rgb(255,238,101);stroke-width:1" /><circle cx="630.77246" cy="202.925" r="2" style="fill:rgb(255,238,101);stroke:none;fill-opacity:1;stroke-opacity:1;" /><path d="M 630.77246 202.925 L 517.8862 217.92" style="stroke:rgb(255,238,101);stroke-width:1" /><circle cx="517.8862" cy="217.92" r="2" style="fill:rgb(255,238,101);stroke:none;fill-opacity:1;stroke-opacity:1;" /><path d="M 517.8862 217.92 L 451.85202 229.2925" style="stroke:rgb(255,238,101);stroke-width:1" /><circle cx="451.85202" cy="229.2925" r="2" style="fill:rgb(255,238,101);stroke:none;fill-opacity:1;stroke-opacity:1;" /><path d="M 451.85202 229.2925 L 405 236.45" style="stroke:rgb(255,238,101);stroke-width:1" /><circle cx="405" cy="236.45" r="2" style="fill:rgb(255,238,101);stroke:none;fill-opacity:1;stroke-opacity:1;" /><path d="M 405 236.45 L 338.96576 241.2025" style="stroke:rgb(255,238,101);stroke-width:1" /><circle cx="338.96576" cy="241.2025" r="2" style="fill:rgb(255,238,101);stroke:none;fill-opacity:1;stroke-opacity:1;" /><path d="M 338.96576 241.2025 L 292.11377 243.7175" style="stroke:rgb(255,238,101);stroke-width:1" /><circle cx="292.11377" cy="243.7175" r="2" style="fill:rgb(255,238,101);stroke:none;fill-opacity:1;stroke-opacity:1;" /><path d="M 292.11377 243.7175 L 255.7725 247.0525" style="stroke:rgb(255,238,101);stroke-width:1" /><circle cx="255.7725" cy="247.0525" r="2" style="fill:rgb(255,238,101);stroke:none;fill-opacity:1;stroke-opacity:1;" /><path d="M 255.7725 247.0525 L 142.88626 255.01" style="stroke:rgb(255,238,101);stroke-width:1" /><circle cx="142.88626" cy="255.01" r="2" style="fill:rgb(255,238,101);stroke:none;fill-opacity:1;stroke-opacity:1;" /><path d="M 142.88626 255.01 L 30 258.665" style="stroke:rgb(255,238,101);stroke-width:1" /><circle cx="30" cy="258.665" r="2" style="fill:rgb(255,238,101);stroke:none;fill-opacity:1;stroke-opacity:1;" /><circle cx="780" cy="254.605" r="2" style="fill:rgb(253,204,229);stroke:none;fill-opacity:1;stroke-opacity:1;" /><path d="M 780 254.605 L 630.77246 259.6925" style="stroke:rgb(253,204,229);stroke-width:1" /><circle cx="630.77246" cy="259.6925" r="2" style="fill:rgb(253,204,229);stroke:none;fill-opacity:1;stroke-opacity:1;" /><path d="M 630.77246 259.6925 L 517.8862 262.22" style="stroke:rgb(253,204,229);stroke-width:1" /><circle cx="517.8862" cy="262.22" r="2" style="fill:rgb(253,204,229);stroke:none;fill-opacity:1;stroke-opacity:1;" /><path d="M 517.8862 262.22 L 451.85202 263.3325" style="stroke:rgb(253,204,229);stroke-width:1" /><circle cx="451.85202" cy="263.3325" r="2" style="fill:rgb(253,204,229);stroke:none;fill-opacity:1;stroke-opacity:1;" /><path d="M 451.85202 263.3325 L 405 263.985" style="stroke:rgb(253,204,229);stroke-width:1" /><circle cx="405" cy="263.985" r="2" style="fill:rgb(253,204,229);stroke:none;fill-opacity:1;stroke-opacity:1;" /><path d="M 405 263.985 L 338.96576 264.795" style="stroke:rgb(253,204,229);stroke-width:1" /><circle cx="338.96576" cy="264.795" r="2" style="fill:rgb(253,204,229);stroke:none;fill-opacity:1;stroke-opacity:1;" /><path d="M 338.96576 264.795 L 292.11377 265.2975" style="stroke:rgb(253,204,229);stroke-width:1" /><circle cx="292.11377" cy="265.2975" r="2" style="fill:rgb(253,204,229);stroke:none;fill-opacity:1;stroke-opacity:1;" /><path d="M 292.11377 265.2975 L 255.7725 265.64" style="stroke:rgb(253,204,229);stroke-width:1" /><circle cx="255.7725" cy="265.64" r="2" style="fill:rgb(253,204,229);stroke:none;fill-opacity:1;stroke-opacity:1;" /><path d="M 255.7725 265.64 L 142.88626 266.5575" style="stroke:rgb(253,204,229);stroke-width:1" /><circle cx="142.88626" cy="266.5575" r="2" style="fill:rgb(253,204,229);stroke:none;fill-opacity:1;stroke-opacity:1;" /><path d="M 142.88626 266.5575 L 30 267.26" style="stroke:rgb(253,204,229);stroke-width:1" /><circle cx="30" cy="267.26" r="2" style="fill:rgb(253,204,229);stroke:none;fill-opacity:1;stroke-opacity:1;" /><circle cx="780" cy="252.5425" r="2" style="fill:rgb(119,211,179);stroke:none;fill-opacity:1;stroke-opacity:1;" /><path d="M 780 252.5425 L 630.77246 256.6875" style="stroke:rgb(119,211,179);stroke-width:1" /><circle cx="630.77246" cy="256.6875" r="2" style="fill:rgb(119,211,179);stroke:none;fill-opacity:1;stroke-opacity:1;" /><path d="M 630.77246 256.6875 L 517.8862 258.7925" style="stroke:rgb(119,211,179);stroke-width:1" /><circle cx="517.8862" cy="258.7925" r="2" style="fill:rgb(119,211,179);stroke:none;fill-opacity:1;stroke-opacity:1;" /><path d="M 517.8862 258.7925 L 451.85202 259.8925" style="stroke:rgb(119,211,179);stroke-width:1" /><circle cx="451.85202" cy="259.8925" r="2" style="fill:rgb(119,211,179);stroke:none;fill-opacity:1;stroke-opacity:1;" /><path d="M 451.85202 259.8925 L 405 260.615" style="stroke:rgb(119,211,179);stroke-width:1" /><circle cx="405" cy="260.615" r="2" style="fill:rgb(119,211,179);stroke:none;fill-opacity:1;stroke-opacity:1;" /><path d="M 405 260.615 L 338.96576 261.55" style="stroke:rgb(119,211,179);stroke-width:1" /><circle cx="338.96576" cy="261.55" r="2" style="fill:rgb(119,211,179);stroke:none;fill-opacity:1;stroke-opacity:1;" /><path d="M 338.96576 261.55 L 292.11377 262.02" style="stroke:rgb(119,211,179);stroke-width:1" /><circle cx="292.11377" cy="262.02" r="2" style="fill:rgb(119,211,179);stroke:none;fill-opacity:1;stroke-opacity:1;" /><path d="M 292.11377 262.02 L 255.7725 262.4925" style="stroke:rgb(119,211,179);stroke-width:1" /><circle cx="255.7725" cy="262.4925" r="2" style="fill:rgb(119,211,179);stroke:none;fill-opacity:1;stroke-opacity:1;" /><path d="M 255.7725 262.4925 L 142.88626 263.685" style="stroke:rgb(119,211,179);stroke-width:1" /><circle cx="142.88626" cy="263.685" r="2" style="fill:rgb(119,211,179);stroke:none;fill-opacity:1;stroke-opacity:1;" /><path d="M 142.88626 263.685 L 30 264.5925" style="stroke:rgb(119,211,179);stroke-width:1" /><circle cx="30" cy="264.5925" r="2" style="fill:rgb(119,211,179);stroke:none;fill-opacity:1;stroke-opacity:1;" /><circle cx="780" cy="134.2925" r="2" style="fill:rgb(128,214,87);stroke:none;fill-opacity:1;stroke-opacity:1;" /><path d="M 780 134.2925 L 630.77246 184.28" style="stroke:rgb(128,214,87);stroke-width:1" /><circle cx="630.77246" cy="184.28" r="2" style="fill:rgb(128,214,87);stroke:none;fill-opacity:1;stroke-opacity:1;" /><path d="M 630.77246 184.28 L 517.8862 208.8775" style="stroke:rgb(128,214,87);stroke-width:1" /><circle cx="517.8862" cy="208.8775" r="2" style="fill:rgb(128,214,87);stroke:none;fill-opacity:1;stroke-opacity:1;" /><path d="M 517.8862 208.8775 L 451.85202 220.5575" style="stroke:rgb(128,214,87);stroke-width:1" /><circle cx="451.85202" cy="220.5575" r="2" style="fill:rgb(128,214,87);stroke:none;fill-opacity:1;stroke-opacity:1;" /><path d="M 451.85202 220.5575 L 405 227.045" style="stroke:rgb(128,214,87);stroke-width:1" /><circle cx="405" cy="227.045" r="2" style="fill:rgb(128,214,87);stroke:none;fill-opacity:1;stroke-opacity:1;" /><path d="M 405 227.045 L 338.96576 234.8575" style="stroke:rgb(128,214,87);stroke-width:1" /><circle cx="338.96576" cy="234.8575" r="2" style="fill:rgb(128,214,87);stroke:none;fill-opacity:1;stroke-opacity:1;" /><path d="M 338.96576 234.8575 L 292.11377 239.6125" style="stroke:rgb(128,214,87);stroke-width:1" /><circle cx="292.11377" cy="239.6125" r="2" style="fill:rgb(128,214,87);stroke:none;fill-opacity:1;stroke-opacity:1;" /><path d="M 292.11377 239.6125 L 255.7725 243.055" style="stroke:rgb(128,214,87);stroke-width:1" /><circle cx="255.7725" cy="243.055" r="2" style="fill:rgb(128,214,87);stroke:none;fill-opacity:1;stroke-opacity:1;" /><path d="M 255.7725 243.055 L 142.88626 251.015" style="stroke:rgb(128,214,87);stroke-width:1" /><circle cx="142.88626" cy="251.015" r="2" style="fill:rgb(128,214,87);stroke:none;fill-opacity:1;stroke-opacity:1;" /><path d="M 142.88626 251.015 L 30 256.785" style="stroke:rgb(128,214,87);stroke-width:1" /><circle cx="30" cy="256.785" r="2" style="fill:rgb(128,214,87);stroke:none;fill-opacity:1;stroke-opacity:1;" /><circle cx="780" cy="259.7725" r="2" style="fill:rgb(199,126,190);stroke:none;fill-opacity:1;stroke-opacity:1;" /><path d="M 780 259.7725 L 630.77246 262.8525" style="stroke:rgb(199,126,190);stroke-width:1" /><circle cx="630.77246" cy="262.8525" r="2" style="fill:rgb(199,126,190);stroke:none;fill-opacity:1;stroke-opacity:1;" /><path d="M 630.77246 262.8525 L 517.8862 264.43" style="stroke:rgb(199,126,190);stroke-width:1" /><circle cx="517.8862" cy="264.43" r="2" style="fill:rgb(199,126,190);stroke:none;fill-opacity:1;stroke-opacity:1;" /><path d="M 517.8862 264.43 L 451.85202 265.1275" style="stroke:rgb(199,126,190);stroke-width:1" /><circle cx="451.85202" cy="265.1275" r="2" style="fill:rgb(199,126,190);stroke:none;fill-opacity:1;stroke-opacity:1;" /><path d="M 451.85202 265.1275 L 405 265.575" style="stroke:rgb(199,126,190);stroke-width:1" /><circle cx="405" cy="265.575" r="2" style="fill:rgb(199,126,190);stroke:none;fill-opacity:1;stroke-opacity:1;" /><path d="M 405 265.575 L 338.96576 266.0975" style="stroke:rgb(199,126,190);stroke-width:1" /><circle cx="338.96576" cy="266.0975" r="2" style="fill:rgb(199,126,190);stroke:none;fill-opacity:1;stroke-opacity:1;" /><path d="M 338.96576 266.0975 L 292.11377 266.4325" style="stroke:rgb(199,126,190);stroke-width:1" /><circle cx="292.11377" cy="266.4325" r="2" style="fill:rgb(199,126,190);stroke:none;fill-opacity:1;stroke-opacity:1;" /><path d="M 292.11377 266.4325 L 255.7725 266.6875" style="stroke:rgb(199,126,190);stroke-width:1" /><circle cx="255.7725" cy="266.6875" r="2" style="fill:rgb(199,126,190);stroke:none;fill-opacity:1;stroke-opacity:1;" /><path d="M 255.7725 266.6875 L 142.88626 267.2775" style="stroke:rgb(199,126,190);stroke-width:1" /><circle cx="142.88626" cy="267.2775" r="2" style="fill:rgb(199,126,190);stroke:none;fill-opacity:1;stroke-opacity:1;" /><path d="M 142.88626 267.2775 L 30 267.7625" style="stroke:rgb(199,126,190);stroke-width:1" /><circle cx="30" cy="267.7625" r="2" style="fill:rgb(199,126,190);stroke:none;fill-opacity:1;stroke-opacity:1;" /><circle cx="780" cy="256.4275" r="2" style="fill:rgb(253,127,111);stroke:none;fill-opacity:1;stroke-opacity:1;" /><path d="M 780 256.4275 L 630.77246 260.7875" style="stroke:rgb(253,127,111);stroke-width:1" /><circle cx="630.77246" cy="260.7875" r="2" style="fill:rgb(253,127,111);stroke:none;fill-opacity:1;stroke-opacity:1;" /><path d="M 630.77246 260.7875 L 517.8862 262.975" style="stroke:rgb(253,127,111);stroke-width:1" /><circle cx="517.8862" cy="262.975" r="2" style="fill:rgb(253,127,111);stroke:none;fill-opacity:1;stroke-opacity:1;" /><path d="M 517.8862 262.975 L 451.85202 263.94" style="stroke:rgb(253,127,111);stroke-width:1" /><circle cx="451.85202" cy="263.94" r="2" style="fill:rgb(253,127,111);stroke:none;fill-opacity:1;stroke-opacity:1;" /><path d="M 451.85202 263.94 L 405 264.5325" style="stroke:rgb(253,127,111);stroke-width:1" /><circle cx="405" cy="264.5325" r="2" style="fill:rgb(253,127,111);stroke:none;fill-opacity:1;stroke-opacity:1;" /><path d="M 405 264.5325 L 338.96576 265.23" style="stroke:rgb(253,127,111);stroke-width:1" /><circle cx="338.96576" cy="265.23" r="2" style="fill:rgb(253,127,111);stroke:none;fill-opacity:1;stroke-opacity:1;" /><path d="M 338.96576 265.23 L 292.11377 265.585" style="stroke:rgb(253,127,111);stroke-width:1" /><circle cx="292.11377" cy="265.585" r="2" style="fill:rgb(253,127,111);stroke:none;fill-opacity:1;stroke-opacity:1;" /><path d="M 292.11377 265.585 L 255.7725 265.95" style="stroke:rgb(253,127,111);stroke-width:1" /><circle cx="255.7725" cy="265.95" r="2" style="fill:rgb(253,127,111);stroke:none;fill-opacity:1;stroke-opacity:1;" /><path d="M 255.7725 265.95 L 142.88626 266.735" style="stroke:rgb(253,127,111);stroke-width:1" /><circle cx="142.88626" cy="266.735" r="2" style="fill:rgb(253,127,111);stroke:none;fill-opacity:1;stroke-opacity:1;" /><path d="M 142.88626 266.735 L 30 267.3425" style="stroke:rgb(253,127,111);stroke-width:1" /><circle cx="30" cy="267.3425" r="2" style="fill:rgb(253,127,111);stroke:none;fill-opacity:1;stroke-opacity:1;" /><circle cx="780" cy="20" r="2" style="fill:rgb(255,181,90);stroke:none;fill-opacity:1;stroke-opacity:1;" /><path d="M 780 20 L 630.77246 110.850006" style="stroke:rgb(255,181,90);stroke-width:1" /><circle cx="630.77246" cy="110.850006" r="2" style="fill:rgb(255,181,90);stroke:none;fill-opacity:1;stroke-opacity:1;" /><path d="M 630.77246 110.850006 L 517.8862 156.67" style="stroke:rgb(255,181,90);stroke-width:1" /><circle cx="517.8862" cy="156.67" r="2" style="fill:rgb(255,181,90);stroke:none;fill-opacity:1;stroke-opacity:1;" /><path d="M 517.8862 156.67 L 451.85202 177.0025" style="stroke:rgb(255,181,90);stroke-width:1" /><circle cx="451.85202" cy="177.0025" r="2" style="fill:rgb(255,181,90);stroke:none;fill-opacity:1;stroke-opacity:1;" /><path d="M 451.85202 177.0025 L 405 189.125" style="stroke:rgb(255,181,90);stroke-width:1" /><circle cx="405" cy="189.125" r="2" style="fill:rgb(255,181,90);stroke:none;fill-opacity:1;stroke-opacity:1;" /><path d="M 405 189.125 L 338.96576 203.56" style="stroke:rgb(255,181,90);stroke-width:1" /><circle cx="338.96576" cy="203.56" r="2" style="fill:rgb(255,181,90);stroke:none;fill-opacity:1;stroke-opacity:1;" /><path d="M 338.96576 203.56 L 292.11377 211.455" style="stroke:rgb(255,181,90);stroke-width:1" /><circle cx="292.11377" cy="211.455" r="2" style="fill:rgb(255,181,90);stroke:none;fill-opacity:1;stroke-opacity:1;" /><path d="M 292.11377 211.455 L 255.7725 217.985" style="stroke:rgb(255,181,90);stroke-width:1" /><circle cx="255.7725" cy="217.985" r="2" style="fill:rgb(255,181,90);stroke:none;fill-opacity:1;stroke-opacity:1;" /><path d="M 255.7725 217.985 L 142.88626 232.61" style="stroke:rgb(255,181,90);stroke-width:1" /><circle cx="142.88626" cy="232.61" r="2" style="fill:rgb(255,181,90);stroke:none;fill-opacity:1;stroke-opacity:1;" /><path d="M 142.88626 232.61 L 30 242.92" style="stroke:rgb(255,181,90);stroke-width:1" /><circle cx="30" cy="242.92" r="2" style="fill:rgb(255,181,90);stroke:none;fill-opacity:1;stroke-opacity:1;" /><rect x="676" y="16" width="80" height="196" ry="4" style="fill:rgb(30,30,30);stroke:none;fill-opacity:0.8;stroke-opacity:1;" /><rect x="680" y="20" width="20" height="20" ry="2" style="fill:rgb(253,127,111);stroke:none;fill-opacity:1;stroke-opacity:1;" /><text x="705" y="33" style="font-size:10px;fill:rgb(255,255,255);text-anchor:start;text-align:left;"> fwd-diff </text><rect x="680" y="41" width="20" height="20" ry="2" style="fill:rgb(255,181,90);stroke:none;fill-opacity:1;stroke-opacity:1;" /><text x="705" y="54" style="font-size:10px;fill:rgb(255,255,255);text-anchor:start;text-align:left;"> hain </text><rect x="680" y="62" width="20" height="20" ry="2" style="fill:rgb(50,125,209);stroke:none;fill-opacity:1;stroke-opacity:1;" /><text x="705" y="75" style="font-size:10px;fill:rgb(255,255,255);text-anchor:start;text-align:left;"> levien </text><rect x="680" y="83" width="20" height="20" ry="2" style="fill:rgb(119,211,179);stroke:none;fill-opacity:1;stroke-opacity:1;" /><text x="705" y="96" style="font-size:10px;fill:rgb(255,255,255);text-anchor:start;text-align:left;"> levien-linear </text><rect x="680" y="104" width="20" height="20" ry="2" style="fill:rgb(126,176,213);stroke:none;fill-opacity:1;stroke-opacity:1;" /><text x="705" y="117" style="font-size:10px;fill:rgb(255,255,255);text-anchor:start;text-align:left;"> levien-simd </text><rect x="680" y="125" width="20" height="20" ry="2" style="fill:rgb(128,214,87);stroke:none;fill-opacity:1;stroke-opacity:1;" /><text x="705" y="138" style="font-size:10px;fill:rgb(255,255,255);text-anchor:start;text-align:left;"> linear </text><rect x="680" y="146" width="20" height="20" ry="2" style="fill:rgb(255,238,101);stroke:none;fill-opacity:1;stroke-opacity:1;" /><text x="705" y="159" style="font-size:10px;fill:rgb(255,255,255);text-anchor:start;text-align:left;"> recursive </text><rect x="680" y="167" width="20" height="20" ry="2" style="fill:rgb(253,204,229);stroke:none;fill-opacity:1;stroke-opacity:1;" /><text x="705" y="180" style="font-size:10px;fill:rgb(255,255,255);text-anchor:start;text-align:left;"> wang </text><rect x="680" y="188" width="20" height="20" ry="2" style="fill:rgb(199,126,190);stroke:none;fill-opacity:1;stroke-opacity:1;" /><text x="705" y="201" style="font-size:10px;fill:rgb(255,255,255);text-anchor:start;text-align:left;"> wang-simd </text><text x="400" y="30" style="font-size:20px;fill:rgb(255,255,255);text-anchor:middle;text-align:center;"> nehab dataset: cubic </text><text x="400" y="42" style="font-size:8px;fill:rgb(200,200,200);text-anchor:middle;text-align:center;"> Normalized performance score (lower is better) </text></svg>