<svg xmlns="http://www.w3.org/2000/svg" viewBox="0 0 800 300"><rect x="0" y="0" width="800" height="300" ry="6" style="fill:rgb(30,30,30);stroke:none;fill-opacity:1;stroke-opacity:1;" /><path d="M 30 20 L 30 270" style="stroke:rgb(200,200,200);stroke-width:1" /><path d="M 30 270 L 780 270" style="stroke:rgb(200,200,200);stroke-width:1" /><path d="M 780 270 L 780 272" style="stroke:rgb(200,200,200);stroke-width:1" /><text x="780" y="282" style="font-size:10px;fill:rgb(200,200,200);text-anchor:middle;text-align:center;"> 0.01 </text><path d="M 630.77246 270 L 630.77246 272" style="stroke:rgb(200,200,200);stroke-width:1" /><text x="630.77246" y="282" style="font-size:10px;fill:rgb(200,200,200);text-anchor:middle;text-align:center;"> 0.025 </text><path d="M 517.8862 270 L 517.8862 272" style="stroke:rgb(200,200,200);stroke-width:1" /><text x="517.8862" y="282" style="font-size:10px;fill:rgb(200,200,200);text-anchor:middle;text-align:center;"> 0.05 </text><path d="M 451.85202 270 L 451.85202 272" style="stroke:rgb(200,200,200);stroke-width:1" /><text x="451.85202" y="282" style="font-size:10px;fill:rgb(200,200,200);text-anchor:middle;text-align:center;"> 0.075 </text><path d="M 405 270 L 405 272" style="stroke:rgb(200,200,200);stroke-width:1" /><text x="405" y="282" style="font-size:10px;fill:rgb(200,200,200);text-anchor:middle;text-align:center;"> 0.1 </text><path d="M 338.96576 270 L 338.96576 272" style="stroke:rgb(200,200,200);stroke-width:1" /><text x="338.96576" y="282" style="font-size:10px;fill:rgb(200,200,200);text-anchor:middle;text-align:center;"> 0.15 </text><path d="M 292.11377 270 L 292.11377 272" style="stroke:rgb(200,200,200);stroke-width:1" /><text x="292.11377" y="282" style="font-size:10px;fill:rgb(200,200,200);text-anchor:middle;text-align:center;"> 0.2 </text><path d="M 255.7725 270 L 255.7725 272" style="stroke:rgb(200,200,200);stroke-width:1" /><text x="255.7725" y="282" style="font-size:10px;fill:rgb(200,200,200);text-anchor:middle;text-align:center;"> 0.25 </text><path d="M 142.88626 270 L 142.88626 272" style="stroke:rgb(200,200,200);stroke-width:1" /><text x="142.88626" y="282" style="font-size:10px;fill:rgb(200,200,200);text-anchor:middle;text-align:center;"> 0.5 </text><path d="M 30 270 L 30 272" style="stroke:rgb(200,200,200);stroke-width:1" /><text x="30" y="282" style="font-size:10px;fill:rgb(200,200,200);text-anchor:middle;text-align:center;"> 1 </text><path d="M 28 270 L 30 270" style="stroke:rgb(200,200,200);stroke-width:1" /><text x="26" y="274" style="font-size:10px;fill:rgb(200,200,200);text-anchor:end;text-align:right;"> 0 </text><path d="M 28 207.5 L 30 207.5" style="stroke:rgb(200,200,200);stroke-width:1" /><text x="26" y="211.5" style="font-size:10px;fill:rgb(200,200,200);text-anchor:end;text-align:right;"> 0.25 </text><path d="M 28 145 L 30 145" style="stroke:rgb(200,200,200);stroke-width:1" /><text x="26" y="149" style="font-size:10px;fill:rgb(200,200,200);text-anchor:end;text-align:right;"> 0.5 </text><path d="M 28 82.5 L 30 82.5" style="stroke:rgb(200,200,200);stroke-width:1" /><text x="26" y="86.5" style="font-size:10px;fill:rgb(200,200,200);text-anchor:end;text-align:right;"> 0.75 </text><path d="M 28 20 L 30 20" style="stroke:rgb(200,200,200);stroke-width:1" /><text x="26" y="24" style="font-size:10px;fill:rgb(200,200,200);text-anchor:end;text-align:right;"> 1 </text><text x="400" y="294" style="font-size:10px;fill:rgb(200,200,200);text-anchor:middle;text-align:center;"> Tolerance </text><circle cx="780" cy="20" r="2" style="fill:rgb(255,181,90);stroke:none;fill-opacity:1;stroke-opacity:1;" /><path d="M 780 20 L 630.77246 96.215" style="stroke:rgb(255,181,90);stroke-width:1" /><circle cx="630.77246" cy="96.215" r="2" style="fill:rgb(255,181,90);stroke:none;fill-opacity:1;stroke-opacity:1;" /><path d="M 630.77246 96.215 L 517.8862 136.5375" style="stroke:rgb(255,181,90);stroke-width:1" /><circle cx="517.8862" cy="136.5375" r="2" style="fill:rgb(255,181,90);stroke:none;fill-opacity:1;stroke-opacity:1;" /><path d="M 517.8862 136.5375 L 451.85202 155.85501" style="stroke:rgb(255,181,90);stroke-width:1" /><circle cx="451.85202" cy="155.85501" r="2" style="fill:rgb(255,181,90);stroke:none;fill-opacity:1;stroke-opacity:1;" /><path d="M 451.85202 155.85501 L 405 167.2875" style="stroke:rgb(255,181,90);stroke-width:1" /><circle cx="405" cy="167.2875" r="2" style="fill:rgb(255,181,90);stroke:none;fill-opacity:1;stroke-opacity:1;" /><path d="M 405 167.2875 L 338.96576 181.655" style="stroke:rgb(255,181,90);stroke-width:1" /><circle cx="338.96576" cy="181.655" r="2" style="fill:rgb(255,181,90);stroke:none;fill-opacity:1;stroke-opacity:1;" /><path d="M 338.96576 181.655 L 292.11377 190.17" style="stroke:rgb(255,181,90);stroke-width:1" /><circle cx="292.11377" cy="190.17" r="2" style="fill:rgb(255,181,90);stroke:none;fill-opacity:1;stroke-opacity:1;" /><path d="M 292.11377 190.17 L 255.7725 195.8775" style="stroke:rgb(255,181,90);stroke-width:1" /><circle cx="255.7725" cy="195.8775" r="2" style="fill:rgb(255,181,90);stroke:none;fill-opacity:1;stroke-opacity:1;" /><path d="M 255.7725 195.8775 L 142.88626 211.22" style="stroke:rgb(255,181,90);stroke-width:1" /><circle cx="142.88626" cy="211.22" r="2" style="fill:rgb(255,181,90);stroke:none;fill-opacity:1;stroke-opacity:1;" /><path d="M 142.88626 211.22 L 30 221.175" style="stroke:rgb(255,181,90);stroke-width:1" /><circle cx="30" cy="221.175" r="2" style="fill:rgb(255,181,90);stroke:none;fill-opacity:1;stroke-opacity:1;" /><circle cx="780" cy="161.51999" r="2" style="fill:rgb(255,238,101);stroke:none;fill-opacity:1;stroke-opacity:1;" /><path d="M 780 161.51999 L 630.77246 197.33249" style="stroke:rgb(255,238,101);stroke-width:1" /><circle cx="630.77246" cy="197.33249" r="2" style="fill:rgb(255,238,101);stroke:none;fill-opacity:1;stroke-opacity:1;" /><path d="M 630.77246 197.33249 L 517.8862 218.25" style="stroke:rgb(255,238,101);stroke-width:1" /><circle cx="517.8862" cy="218.25" r="2" style="fill:rgb(255,238,101);stroke:none;fill-opacity:1;stroke-opacity:1;" /><path d="M 517.8862 218.25 L 451.85202 227.3825" style="stroke:rgb(255,238,101);stroke-width:1" /><circle cx="451.85202" cy="227.3825" r="2" style="fill:rgb(255,238,101);stroke:none;fill-opacity:1;stroke-opacity:1;" /><path d="M 451.85202 227.3825 L 405 234.3175" style="stroke:rgb(255,238,101);stroke-width:1" /><circle cx="405" cy="234.3175" r="2" style="fill:rgb(255,238,101);stroke:none;fill-opacity:1;stroke-opacity:1;" /><path d="M 405 234.3175 L 338.96576 242.1575" style="stroke:rgb(255,238,101);stroke-width:1" /><circle cx="338.96576" cy="242.1575" r="2" style="fill:rgb(255,238,101);stroke:none;fill-opacity:1;stroke-opacity:1;" /><path d="M 338.96576 242.1575 L 292.11377 247.295" style="stroke:rgb(255,238,101);stroke-width:1" /><circle cx="292.11377" cy="247.295" r="2" style="fill:rgb(255,238,101);stroke:none;fill-opacity:1;stroke-opacity:1;" /><path d="M 292.11377 247.295 L 255.7725 250.465" style="stroke:rgb(255,238,101);stroke-width:1" /><circle cx="255.7725" cy="250.465" r="2" style="fill:rgb(255,238,101);stroke:none;fill-opacity:1;stroke-opacity:1;" /><path d="M 255.7725 250.465 L 142.88626 258.2675" style="stroke:rgb(255,238,101);stroke-width:1" /><circle cx="142.88626" cy="258.2675" r="2" style="fill:rgb(255,238,101);stroke:none;fill-opacity:1;stroke-opacity:1;" /><path d="M 142.88626 258.2675 L 30 262.315" style="stroke:rgb(255,238,101);stroke-width:1" /><circle cx="30" cy="262.315" r="2" style="fill:rgb(255,238,101);stroke:none;fill-opacity:1;stroke-opacity:1;" /><circle cx="780" cy="236.85251" r="2" style="fill:rgb(253,204,229);stroke:none;fill-opacity:1;stroke-opacity:1;" /><path d="M 780 236.85251 L 630.77246 239.66501" style="stroke:rgb(253,204,229);stroke-width:1" /><circle cx="630.77246" cy="239.66501" r="2" style="fill:rgb(253,204,229);stroke:none;fill-opacity:1;stroke-opacity:1;" /><path d="M 630.77246 239.66501 L 517.8862 241.525" style="stroke:rgb(253,204,229);stroke-width:1" /><circle cx="517.8862" cy="241.525" r="2" style="fill:rgb(253,204,229);stroke:none;fill-opacity:1;stroke-opacity:1;" /><path d="M 517.8862 241.525 L 451.85202 242.79001" style="stroke:rgb(253,204,229);stroke-width:1" /><circle cx="451.85202" cy="242.79001" r="2" style="fill:rgb(253,204,229);stroke:none;fill-opacity:1;stroke-opacity:1;" /><path d="M 451.85202 242.79001 L 405 244.16501" style="stroke:rgb(253,204,229);stroke-width:1" /><circle cx="405" cy="244.16501" r="2" style="fill:rgb(253,204,229);stroke:none;fill-opacity:1;stroke-opacity:1;" /><path d="M 405 244.16501 L 338.96576 245.9975" style="stroke:rgb(253,204,229);stroke-width:1" /><circle cx="338.96576" cy="245.9975" r="2" style="fill:rgb(253,204,229);stroke:none;fill-opacity:1;stroke-opacity:1;" /><path d="M 338.96576 245.9975 L 292.11377 248.125" style="stroke:rgb(253,204,229);stroke-width:1" /><circle cx="292.11377" cy="248.125" r="2" style="fill:rgb(253,204,229);stroke:none;fill-opacity:1;stroke-opacity:1;" /><path d="M 292.11377 248.125 L 255.7725 249.5775" style="stroke:rgb(253,204,229);stroke-width:1" /><circle cx="255.7725" cy="249.5775" r="2" style="fill:rgb(253,204,229);stroke:none;fill-opacity:1;stroke-opacity:1;" /><path d="M 255.7725 249.5775 L 142.88626 254.15" style="stroke:rgb(253,204,229);stroke-width:1" /><circle cx="142.88626" cy="254.15" r="2" style="fill:rgb(253,204,229);stroke:none;fill-opacity:1;stroke-opacity:1;" /><path d="M 142.88626 254.15 L 30 257.5625" style="stroke:rgb(253,204,229);stroke-width:1" /><circle cx="30" cy="257.5625" r="2" style="fill:rgb(253,204,229);stroke:none;fill-opacity:1;stroke-opacity:1;" /><circle cx="780" cy="131.595" r="2" style="fill:rgb(126,176,213);stroke:none;fill-opacity:1;stroke-opacity:1;" /><path d="M 780 131.595 L 630.77246 149.235" style="stroke:rgb(126,176,213);stroke-width:1" /><circle cx="630.77246" cy="149.235" r="2" style="fill:rgb(126,176,213);stroke:none;fill-opacity:1;stroke-opacity:1;" /><path d="M 630.77246 149.235 L 517.8862 157.7425" style="stroke:rgb(126,176,213);stroke-width:1" /><circle cx="517.8862" cy="157.7425" r="2" style="fill:rgb(126,176,213);stroke:none;fill-opacity:1;stroke-opacity:1;" /><path d="M 517.8862 157.7425 L 451.85202 163.12" style="stroke:rgb(126,176,213);stroke-width:1" /><circle cx="451.85202" cy="163.12" r="2" style="fill:rgb(126,176,213);stroke:none;fill-opacity:1;stroke-opacity:1;" /><path d="M 451.85202 163.12 L 405 166.4675" style="stroke:rgb(126,176,213);stroke-width:1" /><circle cx="405" cy="166.4675" r="2" style="fill:rgb(126,176,213);stroke:none;fill-opacity:1;stroke-opacity:1;" /><path d="M 405 166.4675 L 338.96576 171.52249" style="stroke:rgb(126,176,213);stroke-width:1" /><circle cx="338.96576" cy="171.52249" r="2" style="fill:rgb(126,176,213);stroke:none;fill-opacity:1;stroke-opacity:1;" /><path d="M 338.96576 171.52249 L 292.11377 174.85" style="stroke:rgb(126,176,213);stroke-width:1" /><circle cx="292.11377" cy="174.85" r="2" style="fill:rgb(126,176,213);stroke:none;fill-opacity:1;stroke-opacity:1;" /><path d="M 292.11377 174.85 L 255.7725 177.155" style="stroke:rgb(126,176,213);stroke-width:1" /><circle cx="255.7725" cy="177.155" r="2" style="fill:rgb(126,176,213);stroke:none;fill-opacity:1;stroke-opacity:1;" /><path d="M 255.7725 177.155 L 142.88626 183.9" style="stroke:rgb(126,176,213);stroke-width:1" /><circle cx="142.88626" cy="183.9" r="2" style="fill:rgb(126,176,213);stroke:none;fill-opacity:1;stroke-opacity:1;" /><path d="M 142.88626 183.9 L 30 188.22751" style="stroke:rgb(126,176,213);stroke-width:1" /><circle cx="30" cy="188.22751" r="2" style="fill:rgb(126,176,213);stroke:none;fill-opacity:1;stroke-opacity:1;" /><circle cx="780" cy="132.2775" r="2" style="fill:rgb(128,214,87);stroke:none;fill-opacity:1;stroke-opacity:1;" /><path d="M 780 132.2775 L 630.77246 182.54001" style="stroke:rgb(128,214,87);stroke-width:1" /><circle cx="630.77246" cy="182.54001" r="2" style="fill:rgb(128,214,87);stroke:none;fill-opacity:1;stroke-opacity:1;" /><path d="M 630.77246 182.54001 L 517.8862 209.845" style="stroke:rgb(128,214,87);stroke-width:1" /><circle cx="517.8862" cy="209.845" r="2" style="fill:rgb(128,214,87);stroke:none;fill-opacity:1;stroke-opacity:1;" /><path d="M 517.8862 209.845 L 451.85202 223.3375" style="stroke:rgb(128,214,87);stroke-width:1" /><circle cx="451.85202" cy="223.3375" r="2" style="fill:rgb(128,214,87);stroke:none;fill-opacity:1;stroke-opacity:1;" /><path d="M 451.85202 223.3375 L 405 231.2475" style="stroke:rgb(128,214,87);stroke-width:1" /><circle cx="405" cy="231.2475" r="2" style="fill:rgb(128,214,87);stroke:none;fill-opacity:1;stroke-opacity:1;" /><path d="M 405 231.2475 L 338.96576 241.1675" style="stroke:rgb(128,214,87);stroke-width:1" /><circle cx="338.96576" cy="241.1675" r="2" style="fill:rgb(128,214,87);stroke:none;fill-opacity:1;stroke-opacity:1;" /><path d="M 338.96576 241.1675 L 292.11377 246.75" style="stroke:rgb(128,214,87);stroke-width:1" /><circle cx="292.11377" cy="246.75" r="2" style="fill:rgb(128,214,87);stroke:none;fill-opacity:1;stroke-opacity:1;" /><path d="M 292.11377 246.75 L 255.7725 250.4025" style="stroke:rgb(128,214,87);stroke-width:1" /><circle cx="255.7725" cy="250.4025" r="2" style="fill:rgb(128,214,87);stroke:none;fill-opacity:1;stroke-opacity:1;" /><path d="M 255.7725 250.4025 L 142.88626 258.6175" style="stroke:rgb(128,214,87);stroke-width:1" /><circle cx="142.88626" cy="258.6175" r="2" style="fill:rgb(128,214,87);stroke:none;fill-opacity:1;stroke-opacity:1;" /><path d="M 142.88626 258.6175 L 30 261.46" style="stroke:rgb(128,214,87);stroke-width:1" /><circle cx="30" cy="261.46" r="2" style="fill:rgb(128,214,87);stroke:none;fill-opacity:1;stroke-opacity:1;" /><circle cx="780" cy="239.75" r="2" style="fill:rgb(199,126,190);stroke:none;fill-opacity:1;stroke-opacity:1;" /><path d="M 780 239.75 L 630.77246 241.22751" style="stroke:rgb(199,126,190);stroke-width:1" /><circle cx="630.77246" cy="241.22751" r="2" style="fill:rgb(199,126,190);stroke:none;fill-opacity:1;stroke-opacity:1;" /><path d="M 630.77246 241.22751 L 517.8862 242.5825" style="stroke:rgb(199,126,190);stroke-width:1" /><circle cx="517.8862" cy="242.5825" r="2" style="fill:rgb(199,126,190);stroke:none;fill-opacity:1;stroke-opacity:1;" /><path d="M 517.8862 242.5825 L 451.85202 244.0025" style="stroke:rgb(199,126,190);stroke-width:1" /><circle cx="451.85202" cy="244.0025" r="2" style="fill:rgb(199,126,190);stroke:none;fill-opacity:1;stroke-opacity:1;" /><path d="M 451.85202 244.0025 L 405 245.2575" style="stroke:rgb(199,126,190);stroke-width:1" /><circle cx="405" cy="245.2575" r="2" style="fill:rgb(199,126,190);stroke:none;fill-opacity:1;stroke-opacity:1;" /><path d="M 405 245.2575 L 338.96576 247.5125" style="stroke:rgb(199,126,190);stroke-width:1" /><circle cx="338.96576" cy="247.5125" r="2" style="fill:rgb(199,126,190);stroke:none;fill-opacity:1;stroke-opacity:1;" /><path d="M 338.96576 247.5125 L 292.11377 249.3075" style="stroke:rgb(199,126,190);stroke-width:1" /><circle cx="292.11377" cy="249.3075" r="2" style="fill:rgb(199,126,190);stroke:none;fill-opacity:1;stroke-opacity:1;" /><path d="M 292.11377 249.3075 L 255.7725 250.6575" style="stroke:rgb(199,126,190);stroke-width:1" /><circle cx="255.7725" cy="250.6575" r="2" style="fill:rgb(199,126,190);stroke:none;fill-opacity:1;stroke-opacity:1;" /><path d="M 255.7725 250.6575 L 142.88626 254.6775" style="stroke:rgb(199,126,190);stroke-width:1" /><circle cx="142.88626" cy="254.6775" r="2" style="fill:rgb(199,126,190);stroke:none;fill-opacity:1;stroke-opacity:1;" /><path d="M 142.88626 254.6775 L 30 257.7825" style="stroke:rgb(199,126,190);stroke-width:1" /><circle cx="30" cy="257.7825" r="2" style="fill:rgb(199,126,190);stroke:none;fill-opacity:1;stroke-opacity:1;" /><circle cx="780" cy="34.012497" r="2" style="fill:rgb(50,125,209);stroke:none;fill-opacity:1;stroke-opacity:1;" /><path d="M 780 34.012497 L 630.77246 79.45" style="stroke:rgb(50,125,209);stroke-width:1" /><circle cx="630.77246" cy="79.45" r="2" style="fill:rgb(50,125,209);stroke:none;fill-opacity:1;stroke-opacity:1;" /><path d="M 630.77246 79.45 L 517.8862 105.1725" style="stroke:rgb(50,125,209);stroke-width:1" /><circle cx="517.8862" cy="105.1725" r="2" style="fill:rgb(50,125,209);stroke:none;fill-opacity:1;stroke-opacity:1;" /><path d="M 517.8862 105.1725 L 451.85202 118.715" style="stroke:rgb(50,125,209);stroke-width:1" /><circle cx="451.85202" cy="118.715" r="2" style="fill:rgb(50,125,209);stroke:none;fill-opacity:1;stroke-opacity:1;" /><path d="M 451.85202 118.715 L 405 128.7825" style="stroke:rgb(50,125,209);stroke-width:1" /><circle cx="405" cy="128.7825" r="2" style="fill:rgb(50,125,209);stroke:none;fill-opacity:1;stroke-opacity:1;" /><path d="M 405 128.7825 L 338.96576 139.9825" style="stroke:rgb(50,125,209);stroke-width:1" /><circle cx="338.96576" cy="139.9825" r="2" style="fill:rgb(50,125,209);stroke:none;fill-opacity:1;stroke-opacity:1;" /><path d="M 338.96576 139.9825 L 292.11377 147.2325" style="stroke:rgb(50,125,209);stroke-width:1" /><circle cx="292.11377" cy="147.2325" r="2" style="fill:rgb(50,125,209);stroke:none;fill-opacity:1;stroke-opacity:1;" /><path d="M 292.11377 147.2325 L 255.7725 152.42749" style="stroke:rgb(50,125,209);stroke-width:1" /><circle cx="255.7725" cy="152.42749" r="2" style="fill:rgb(50,125,209);stroke:none;fill-opacity:1;stroke-opacity:1;" /><path d="M 255.7725 152.42749 L 142.88626 167.5175" style="stroke:rgb(50,125,209);stroke-width:1" /><circle cx="142.88626" cy="167.5175" r="2" style="fill:rgb(50,125,209);stroke:none;fill-opacity:1;stroke-opacity:1;" /><path d="M 142.88626 167.5175 L 30 177.775" style="stroke:rgb(50,125,209);stroke-width:1" /><circle cx="30" cy="177.775" r="2" style="fill:rgb(50,125,209);stroke:none;fill-opacity:1;stroke-opacity:1;" /><circle cx="780" cy="237.6175" r="2" style="fill:rgb(253,127,111);stroke:none;fill-opacity:1;stroke-opacity:1;" /><path d="M 780 237.6175 L 630.77246 239.7225" style="stroke:rgb(253,127,111);stroke-width:1" /><circle cx="630.77246" cy="239.7225" r="2" style="fill:rgb(253,127,111);stroke:none;fill-opacity:1;stroke-opacity:1;" /><path d="M 630.77246 239.7225 L 517.8862 241.31" style="stroke:rgb(253,127,111);stroke-width:1" /><circle cx="517.8862" cy="241.31" r="2" style="fill:rgb(253,127,111);stroke:none;fill-opacity:1;stroke-opacity:1;" /><path d="M 517.8862 241.31 L 451.85202 242.6375" style="stroke:rgb(253,127,111);stroke-width:1" /><circle cx="451.85202" cy="242.6375" r="2" style="fill:rgb(253,127,111);stroke:none;fill-opacity:1;stroke-opacity:1;" /><path d="M 451.85202 242.6375 L 405 243.89749" style="stroke:rgb(253,127,111);stroke-width:1" /><circle cx="405" cy="243.89749" r="2" style="fill:rgb(253,127,111);stroke:none;fill-opacity:1;stroke-opacity:1;" /><path d="M 405 243.89749 L 338.96576 245.93" style="stroke:rgb(253,127,111);stroke-width:1" /><circle cx="338.96576" cy="245.93" r="2" style="fill:rgb(253,127,111);stroke:none;fill-opacity:1;stroke-opacity:1;" /><path d="M 338.96576 245.93 L 292.11377 247.9125" style="stroke:rgb(253,127,111);stroke-width:1" /><circle cx="292.11377" cy="247.9125" r="2" style="fill:rgb(253,127,111);stroke:none;fill-opacity:1;stroke-opacity:1;" /><path d="M 292.11377 247.9125 L 255.7725 249.2475" style="stroke:rgb(253,127,111);stroke-width:1" /><circle cx="255.7725" cy="249.2475" r="2" style="fill:rgb(253,127,111);stroke:none;fill-opacity:1;stroke-opacity:1;" /><path d="M 255.7725 249.2475 L 142.88626 253.8275" style="stroke:rgb(253,127,111);stroke-width:1" /><circle cx="142.88626" cy="253.8275" r="2" style="fill:rgb(253,127,111);stroke:none;fill-opacity:1;stroke-opacity:1;" /><path d="M 142.88626 253.8275 L 30 257.6775" style="stroke:rgb(253,127,111);stroke-width:1" /><circle cx="30" cy="257.6775" r="2" style="fill:rgb(253,127,111);stroke:none;fill-opacity:1;stroke-opacity:1;" /><circle cx="780" cy="140.5225" r="2" style="fill:rgb(119,211,179);stroke:none;fill-opacity:1;stroke-opacity:1;" /><path d="M 780 140.5225 L 630.77246 171.54001" style="stroke:rgb(119,211,179);stroke-width:1" /><circle cx="630.77246" cy="171.54001" r="2" style="fill:rgb(119,211,179);stroke:none;fill-opacity:1;stroke-opacity:1;" /><path d="M 630.77246 171.54001 L 517.8862 196.51001" style="stroke:rgb(119,211,179);stroke-width:1" /><circle cx="517.8862" cy="196.51001" r="2" style="fill:rgb(119,211,179);stroke:none;fill-opacity:1;stroke-opacity:1;" /><path d="M 517.8862 196.51001 L 451.85202 212.5825" style="stroke:rgb(119,211,179);stroke-width:1" /><circle cx="451.85202" cy="212.5825" r="2" style="fill:rgb(119,211,179);stroke:none;fill-opacity:1;stroke-opacity:1;" /><path d="M 451.85202 212.5825 L 405 222.465" style="stroke:rgb(119,211,179);stroke-width:1" /><circle cx="405" cy="222.465" r="2" style="fill:rgb(119,211,179);stroke:none;fill-opacity:1;stroke-opacity:1;" /><path d="M 405 222.465 L 338.96576 235.25" style="stroke:rgb(119,211,179);stroke-width:1" /><circle cx="338.96576" cy="235.25" r="2" style="fill:rgb(119,211,179);stroke:none;fill-opacity:1;stroke-opacity:1;" /><path d="M 338.96576 235.25 L 292.11377 243.0875" style="stroke:rgb(119,211,179);stroke-width:1" /><circle cx="292.11377" cy="243.0875" r="2" style="fill:rgb(119,211,179);stroke:none;fill-opacity:1;stroke-opacity:1;" /><path d="M 292.11377 243.0875 L 255.7725 248.115" style="stroke:rgb(119,211,179);stroke-width:1" /><circle cx="255.7725" cy="248.115" r="2" style="fill:rgb(119,211,179);stroke:none;fill-opacity:1;stroke-opacity:1;" /><path d="M 255.7725 248.115 L 142.88626 257.87" style="stroke:rgb(119,211,179);stroke-width:1" /><circle cx="142.88626" cy="257.87" r="2" style="fill:rgb(119,211,179);stroke:none;fill-opacity:1;stroke-opacity:1;" /><path d="M 142.88626 257.87 L 30 260.9775" style="stroke:rgb(119,211,179);stroke-width:1" /><circle cx="30" cy="260.9775" r="2" style="fill:rgb(119,211,179);stroke:none;fill-opacity:1;stroke-opacity:1;" /><rect x="676" y="16" width="80" height="196" ry="4" style="fill:rgb(30,30,30);stroke:none;fill-opacity:0.8;stroke-opacity:1;" /><rect x="680" y="20" width="20" height="20" ry="2" style="fill:rgb(253,127,111);stroke:none;fill-opacity:1;stroke-opacity:1;" /><text x="705" y="33" style="font-size:10px;fill:rgb(255,255,255);text-anchor:start;text-align:left;"> fwd-diff </text><rect x="680" y="41" width="20" height="20" ry="2" style="fill:rgb(255,181,90);stroke:none;fill-opacity:1;stroke-opacity:1;" /><text x="705" y="54" style="font-size:10px;fill:rgb(255,255,255);text-anchor:start;text-align:left;"> hain </text><rect x="680" y="62" width="20" height="20" ry="2" style="fill:rgb(50,125,209);stroke:none;fill-opacity:1;stroke-opacity:1;" /><text x="705" y="75" style="font-size:10px;fill:rgb(255,255,255);text-anchor:start;text-align:left;"> levien </text><rect x="680" y="83" width="20" height="20" ry="2" style="fill:rgb(119,211,179);stroke:none;fill-opacity:1;stroke-opacity:1;" /><text x="705" y="96" style="font-size:10px;fill:rgb(255,255,255);text-anchor:start;text-align:left;"> levien-linear </text><rect x="680" y="104" width="20" height="20" ry="2" style="fill:rgb(126,176,213);stroke:none;fill-opacity:1;stroke-opacity:1;" /><text x="705" y="117" style="font-size:10px;fill:rgb(255,255,255);text-anchor:start;text-align:left;"> levien-simd </text><rect x="680" y="125" width="20" height="20" ry="2" style="fill:rgb(128,214,87);stroke:none;fill-opacity:1;stroke-opacity:1;" /><text x="705" y="138" style="font-size:10px;fill:rgb(255,255,255);text-anchor:start;text-align:left;"> linear </text><rect x="680" y="146" width="20" height="20" ry="2" style="fill:rgb(255,238,101);stroke:none;fill-opacity:1;stroke-opacity:1;" /><text x="705" y="159" style="font-size:10px;fill:rgb(255,255,255);text-anchor:start;text-align:left;"> recursive </text><rect x="680" y="167" width="20" height="20" ry="2" style="fill:rgb(253,204,229);stroke:none;fill-opacity:1;stroke-opacity:1;" /><text x="705" y="180" style="font-size:10px;fill:rgb(255,255,255);text-anchor:start;text-align:left;"> wang </text><rect x="680" y="188" width="20" height="20" ry="2" style="fill:rgb(199,126,190);stroke:none;fill-opacity:1;stroke-opacity:1;" /><text x="705" y="201" style="font-size:10px;fill:rgb(255,255,255);text-anchor:start;text-align:left;"> wang-simd </text><text x="400" y="30" style="font-size:20px;fill:rgb(255,255,255);text-anchor:middle;text-align:center;"> inkscape dataset: cubic </text><text x="400" y="42" style="font-size:8px;fill:rgb(200,200,200);text-anchor:middle;text-align:center;"> Normalized performance score (lower is better) </text></svg>