<svg xmlns="http://www.w3.org/2000/svg" viewBox="0 0 800 300"><rect x="0" y="0" width="800" height="300" ry="6" style="fill:rgb(30,30,30);stroke:none;fill-opacity:1;stroke-opacity:1;" /><path d="M 30 20 L 30 270" style="stroke:rgb(200,200,200);stroke-width:1" /><path d="M 30 270 L 780 270" style="stroke:rgb(200,200,200);stroke-width:1" /><path d="M 780 270 L 780 272" style="stroke:rgb(200,200,200);stroke-width:1" /><text x="780" y="282" style="font-size:10px;fill:rgb(200,200,200);text-anchor:middle;text-align:center;"> 0.01 </text><path d="M 630.77246 270 L 630.77246 272" style="stroke:rgb(200,200,200);stroke-width:1" /><text x="630.77246" y="282" style="font-size:10px;fill:rgb(200,200,200);text-anchor:middle;text-align:center;"> 0.025 </text><path d="M 517.8862 270 L 517.8862 272" style="stroke:rgb(200,200,200);stroke-width:1" /><text x="517.8862" y="282" style="font-size:10px;fill:rgb(200,200,200);text-anchor:middle;text-align:center;"> 0.05 </text><path d="M 451.85202 270 L 451.85202 272" style="stroke:rgb(200,200,200);stroke-width:1" /><text x="451.85202" y="282" style="font-size:10px;fill:rgb(200,200,200);text-anchor:middle;text-align:center;"> 0.075 </text><path d="M 405 270 L 405 272" style="stroke:rgb(200,200,200);stroke-width:1" /><text x="405" y="282" style="font-size:10px;fill:rgb(200,200,200);text-anchor:middle;text-align:center;"> 0.1 </text><path d="M 338.96576 270 L 338.96576 272" style="stroke:rgb(200,200,200);stroke-width:1" /><text x="338.96576" y="282" style="font-size:10px;fill:rgb(200,200,200);text-anchor:middle;text-align:center;"> 0.15 </text><path d="M 292.11377 270 L 292.11377 272" style="stroke:rgb(200,200,200);stroke-width:1" /><text x="292.11377" y="282" style="font-size:10px;fill:rgb(200,200,200);text-anchor:middle;text-align:center;"> 0.2 </text><path d="M 255.7725 270 L 255.7725 272" style="stroke:rgb(200,200,200);stroke-width:1" /><text x="255.7725" y="282" style="font-size:10px;fill:rgb(200,200,200);text-anchor:middle;text-align:center;"> 0.25 </text><path d="M 142.88626 270 L 142.88626 272" style="stroke:rgb(200,200,200);stroke-width:1" /><text x="142.88626" y="282" style="font-size:10px;fill:rgb(200,200,200);text-anchor:middle;text-align:center;"> 0.5 </text><path d="M 30 270 L 30 272" style="stroke:rgb(200,200,200);stroke-width:1" /><text x="30" y="282" style="font-size:10px;fill:rgb(200,200,200);text-anchor:middle;text-align:center;"> 1 </text><path d="M 28 270 L 30 270" style="stroke:rgb(200,200,200);stroke-width:1" /><text x="26" y="274" style="font-size:10px;fill:rgb(200,200,200);text-anchor:end;text-align:right;"> 0 </text><path d="M 28 207.5 L 30 207.5" style="stroke:rgb(200,200,200);stroke-width:1" /><text x="26" y="211.5" style="font-size:10px;fill:rgb(200,200,200);text-anchor:end;text-align:right;"> 0.25 </text><path d="M 28 145 L 30 145" style="stroke:rgb(200,200,200);stroke-width:1" /><text x="26" y="149" style="font-size:10px;fill:rgb(200,200,200);text-anchor:end;text-align:right;"> 0.5 </text><path d="M 28 82.5 L 30 82.5" style="stroke:rgb(200,200,200);stroke-width:1" /><text x="26" y="86.5" style="font-size:10px;fill:rgb(200,200,200);text-anchor:end;text-align:right;"> 0.75 </text><path d="M 28 20 L 30 20" style="stroke:rgb(200,200,200);stroke-width:1" /><text x="26" y="24" style="font-size:10px;fill:rgb(200,200,200);text-anchor:end;text-align:right;"> 1 </text><text x="400" y="294" style="font-size:10px;fill:rgb(200,200,200);text-anchor:middle;text-align:center;"> Tolerance </text><circle cx="780" cy="152.14749" r="2" style="fill:rgb(255,238,101);stroke:none;fill-opacity:1;stroke-opacity:1;" /><path d="M 780 152.14749 L 630.77246 194.0175" style="stroke:rgb(255,238,101);stroke-width:1" /><circle cx="630.77246" cy="194.0175" r="2" style="fill:rgb(255,238,101);stroke:none;fill-opacity:1;stroke-opacity:1;" /><path d="M 630.77246 194.0175 L 517.8862 214.5925" style="stroke:rgb(255,238,101);stroke-width:1" /><circle cx="517.8862" cy="214.5925" r="2" style="fill:rgb(255,238,101);stroke:none;fill-opacity:1;stroke-opacity:1;" /><path d="M 517.8862 214.5925 L 451.85202 225.0475" style="stroke:rgb(255,238,101);stroke-width:1" /><circle cx="451.85202" cy="225.0475" r="2" style="fill:rgb(255,238,101);stroke:none;fill-opacity:1;stroke-opacity:1;" /><path d="M 451.85202 225.0475 L 405 231.3575" style="stroke:rgb(255,238,101);stroke-width:1" /><circle cx="405" cy="231.3575" r="2" style="fill:rgb(255,238,101);stroke:none;fill-opacity:1;stroke-opacity:1;" /><path d="M 405 231.3575 L 338.96576 239.5025" style="stroke:rgb(255,238,101);stroke-width:1" /><circle cx="338.96576" cy="239.5025" r="2" style="fill:rgb(255,238,101);stroke:none;fill-opacity:1;stroke-opacity:1;" /><path d="M 338.96576 239.5025 L 292.11377 244.0925" style="stroke:rgb(255,238,101);stroke-width:1" /><circle cx="292.11377" cy="244.0925" r="2" style="fill:rgb(255,238,101);stroke:none;fill-opacity:1;stroke-opacity:1;" /><path d="M 292.11377 244.0925 L 255.7725 247" style="stroke:rgb(255,238,101);stroke-width:1" /><circle cx="255.7725" cy="247" r="2" style="fill:rgb(255,238,101);stroke:none;fill-opacity:1;stroke-opacity:1;" /><path d="M 255.7725 247 L 142.88626 255.0725" style="stroke:rgb(255,238,101);stroke-width:1" /><circle cx="142.88626" cy="255.0725" r="2" style="fill:rgb(255,238,101);stroke:none;fill-opacity:1;stroke-opacity:1;" /><path d="M 142.88626 255.0725 L 30 260.42" style="stroke:rgb(255,238,101);stroke-width:1" /><circle cx="30" cy="260.42" r="2" style="fill:rgb(255,238,101);stroke:none;fill-opacity:1;stroke-opacity:1;" /><circle cx="780" cy="20" r="2" style="fill:rgb(255,181,90);stroke:none;fill-opacity:1;stroke-opacity:1;" /><path d="M 780 20 L 630.77246 104.67" style="stroke:rgb(255,181,90);stroke-width:1" /><circle cx="630.77246" cy="104.67" r="2" style="fill:rgb(255,181,90);stroke:none;fill-opacity:1;stroke-opacity:1;" /><path d="M 630.77246 104.67 L 517.8862 148.0975" style="stroke:rgb(255,181,90);stroke-width:1" /><circle cx="517.8862" cy="148.0975" r="2" style="fill:rgb(255,181,90);stroke:none;fill-opacity:1;stroke-opacity:1;" /><path d="M 517.8862 148.0975 L 451.85202 167.6275" style="stroke:rgb(255,181,90);stroke-width:1" /><circle cx="451.85202" cy="167.6275" r="2" style="fill:rgb(255,181,90);stroke:none;fill-opacity:1;stroke-opacity:1;" /><path d="M 451.85202 167.6275 L 405 179.13501" style="stroke:rgb(255,181,90);stroke-width:1" /><circle cx="405" cy="179.13501" r="2" style="fill:rgb(255,181,90);stroke:none;fill-opacity:1;stroke-opacity:1;" /><path d="M 405 179.13501 L 338.96576 192.93" style="stroke:rgb(255,181,90);stroke-width:1" /><circle cx="338.96576" cy="192.93" r="2" style="fill:rgb(255,181,90);stroke:none;fill-opacity:1;stroke-opacity:1;" /><path d="M 338.96576 192.93 L 292.11377 201.57251" style="stroke:rgb(255,181,90);stroke-width:1" /><circle cx="292.11377" cy="201.57251" r="2" style="fill:rgb(255,181,90);stroke:none;fill-opacity:1;stroke-opacity:1;" /><path d="M 292.11377 201.57251 L 255.7725 207.33" style="stroke:rgb(255,181,90);stroke-width:1" /><circle cx="255.7725" cy="207.33" r="2" style="fill:rgb(255,181,90);stroke:none;fill-opacity:1;stroke-opacity:1;" /><path d="M 255.7725 207.33 L 142.88626 222.22" style="stroke:rgb(255,181,90);stroke-width:1" /><circle cx="142.88626" cy="222.22" r="2" style="fill:rgb(255,181,90);stroke:none;fill-opacity:1;stroke-opacity:1;" /><path d="M 142.88626 222.22 L 30 232.6325" style="stroke:rgb(255,181,90);stroke-width:1" /><circle cx="30" cy="232.6325" r="2" style="fill:rgb(255,181,90);stroke:none;fill-opacity:1;stroke-opacity:1;" /><circle cx="780" cy="249.285" r="2" style="fill:rgb(253,127,111);stroke:none;fill-opacity:1;stroke-opacity:1;" /><path d="M 780 249.285 L 630.77246 254.12" style="stroke:rgb(253,127,111);stroke-width:1" /><circle cx="630.77246" cy="254.12" r="2" style="fill:rgb(253,127,111);stroke:none;fill-opacity:1;stroke-opacity:1;" /><path d="M 630.77246 254.12 L 517.8862 256.55" style="stroke:rgb(253,127,111);stroke-width:1" /><circle cx="517.8862" cy="256.55" r="2" style="fill:rgb(253,127,111);stroke:none;fill-opacity:1;stroke-opacity:1;" /><path d="M 517.8862 256.55 L 451.85202 257.8" style="stroke:rgb(253,127,111);stroke-width:1" /><circle cx="451.85202" cy="257.8" r="2" style="fill:rgb(253,127,111);stroke:none;fill-opacity:1;stroke-opacity:1;" /><path d="M 451.85202 257.8 L 405 258.455" style="stroke:rgb(253,127,111);stroke-width:1" /><circle cx="405" cy="258.455" r="2" style="fill:rgb(253,127,111);stroke:none;fill-opacity:1;stroke-opacity:1;" /><path d="M 405 258.455 L 338.96576 259.3025" style="stroke:rgb(253,127,111);stroke-width:1" /><circle cx="338.96576" cy="259.3025" r="2" style="fill:rgb(253,127,111);stroke:none;fill-opacity:1;stroke-opacity:1;" /><path d="M 338.96576 259.3025 L 292.11377 259.8275" style="stroke:rgb(253,127,111);stroke-width:1" /><circle cx="292.11377" cy="259.8275" r="2" style="fill:rgb(253,127,111);stroke:none;fill-opacity:1;stroke-opacity:1;" /><path d="M 292.11377 259.8275 L 255.7725 260.2175" style="stroke:rgb(253,127,111);stroke-width:1" /><circle cx="255.7725" cy="260.2175" r="2" style="fill:rgb(253,127,111);stroke:none;fill-opacity:1;stroke-opacity:1;" /><path d="M 255.7725 260.2175 L 142.88626 261.45" style="stroke:rgb(253,127,111);stroke-width:1" /><circle cx="142.88626" cy="261.45" r="2" style="fill:rgb(253,127,111);stroke:none;fill-opacity:1;stroke-opacity:1;" /><path d="M 142.88626 261.45 L 30 262.6725" style="stroke:rgb(253,127,111);stroke-width:1" /><circle cx="30" cy="262.6725" r="2" style="fill:rgb(253,127,111);stroke:none;fill-opacity:1;stroke-opacity:1;" /><circle cx="780" cy="167.775" r="2" style="fill:rgb(119,211,179);stroke:none;fill-opacity:1;stroke-opacity:1;" /><path d="M 780 167.775 L 630.77246 191.20749" style="stroke:rgb(119,211,179);stroke-width:1" /><circle cx="630.77246" cy="191.20749" r="2" style="fill:rgb(119,211,179);stroke:none;fill-opacity:1;stroke-opacity:1;" /><path d="M 630.77246 191.20749 L 517.8862 204.735" style="stroke:rgb(119,211,179);stroke-width:1" /><circle cx="517.8862" cy="204.735" r="2" style="fill:rgb(119,211,179);stroke:none;fill-opacity:1;stroke-opacity:1;" /><path d="M 517.8862 204.735 L 451.85202 212.315" style="stroke:rgb(119,211,179);stroke-width:1" /><circle cx="451.85202" cy="212.315" r="2" style="fill:rgb(119,211,179);stroke:none;fill-opacity:1;stroke-opacity:1;" /><path d="M 451.85202 212.315 L 405 218.86" style="stroke:rgb(119,211,179);stroke-width:1" /><circle cx="405" cy="218.86" r="2" style="fill:rgb(119,211,179);stroke:none;fill-opacity:1;stroke-opacity:1;" /><path d="M 405 218.86 L 338.96576 226.54001" style="stroke:rgb(119,211,179);stroke-width:1" /><circle cx="338.96576" cy="226.54001" r="2" style="fill:rgb(119,211,179);stroke:none;fill-opacity:1;stroke-opacity:1;" /><path d="M 338.96576 226.54001 L 292.11377 232.5875" style="stroke:rgb(119,211,179);stroke-width:1" /><circle cx="292.11377" cy="232.5875" r="2" style="fill:rgb(119,211,179);stroke:none;fill-opacity:1;stroke-opacity:1;" /><path d="M 292.11377 232.5875 L 255.7725 237.555" style="stroke:rgb(119,211,179);stroke-width:1" /><circle cx="255.7725" cy="237.555" r="2" style="fill:rgb(119,211,179);stroke:none;fill-opacity:1;stroke-opacity:1;" /><path d="M 255.7725 237.555 L 142.88626 251.05" style="stroke:rgb(119,211,179);stroke-width:1" /><circle cx="142.88626" cy="251.05" r="2" style="fill:rgb(119,211,179);stroke:none;fill-opacity:1;stroke-opacity:1;" /><path d="M 142.88626 251.05 L 30 258.515" style="stroke:rgb(119,211,179);stroke-width:1" /><circle cx="30" cy="258.515" r="2" style="fill:rgb(119,211,179);stroke:none;fill-opacity:1;stroke-opacity:1;" /><circle cx="780" cy="168.17" r="2" style="fill:rgb(126,176,213);stroke:none;fill-opacity:1;stroke-opacity:1;" /><path d="M 780 168.17 L 630.77246 190.44751" style="stroke:rgb(126,176,213);stroke-width:1" /><circle cx="630.77246" cy="190.44751" r="2" style="fill:rgb(126,176,213);stroke:none;fill-opacity:1;stroke-opacity:1;" /><path d="M 630.77246 190.44751 L 517.8862 202.97" style="stroke:rgb(126,176,213);stroke-width:1" /><circle cx="517.8862" cy="202.97" r="2" style="fill:rgb(126,176,213);stroke:none;fill-opacity:1;stroke-opacity:1;" /><path d="M 517.8862 202.97 L 451.85202 208.79001" style="stroke:rgb(126,176,213);stroke-width:1" /><circle cx="451.85202" cy="208.79001" r="2" style="fill:rgb(126,176,213);stroke:none;fill-opacity:1;stroke-opacity:1;" /><path d="M 451.85202 208.79001 L 405 213.8025" style="stroke:rgb(126,176,213);stroke-width:1" /><circle cx="405" cy="213.8025" r="2" style="fill:rgb(126,176,213);stroke:none;fill-opacity:1;stroke-opacity:1;" /><path d="M 405 213.8025 L 338.96576 218.47" style="stroke:rgb(126,176,213);stroke-width:1" /><circle cx="338.96576" cy="218.47" r="2" style="fill:rgb(126,176,213);stroke:none;fill-opacity:1;stroke-opacity:1;" /><path d="M 338.96576 218.47 L 292.11377 222.265" style="stroke:rgb(126,176,213);stroke-width:1" /><circle cx="292.11377" cy="222.265" r="2" style="fill:rgb(126,176,213);stroke:none;fill-opacity:1;stroke-opacity:1;" /><path d="M 292.11377 222.265 L 255.7725 224.4375" style="stroke:rgb(126,176,213);stroke-width:1" /><circle cx="255.7725" cy="224.4375" r="2" style="fill:rgb(126,176,213);stroke:none;fill-opacity:1;stroke-opacity:1;" /><path d="M 255.7725 224.4375 L 142.88626 231.15" style="stroke:rgb(126,176,213);stroke-width:1" /><circle cx="142.88626" cy="231.15" r="2" style="fill:rgb(126,176,213);stroke:none;fill-opacity:1;stroke-opacity:1;" /><path d="M 142.88626 231.15 L 30 234.74" style="stroke:rgb(126,176,213);stroke-width:1" /><circle cx="30" cy="234.74" r="2" style="fill:rgb(126,176,213);stroke:none;fill-opacity:1;stroke-opacity:1;" /><circle cx="780" cy="35.582504" r="2" style="fill:rgb(50,125,209);stroke:none;fill-opacity:1;stroke-opacity:1;" /><path d="M 780 35.582504 L 630.77246 93.8625" style="stroke:rgb(50,125,209);stroke-width:1" /><circle cx="630.77246" cy="93.8625" r="2" style="fill:rgb(50,125,209);stroke:none;fill-opacity:1;stroke-opacity:1;" /><path d="M 630.77246 93.8625 L 517.8862 126.7625" style="stroke:rgb(50,125,209);stroke-width:1" /><circle cx="517.8862" cy="126.7625" r="2" style="fill:rgb(50,125,209);stroke:none;fill-opacity:1;stroke-opacity:1;" /><path d="M 517.8862 126.7625 L 451.85202 142.5975" style="stroke:rgb(50,125,209);stroke-width:1" /><circle cx="451.85202" cy="142.5975" r="2" style="fill:rgb(50,125,209);stroke:none;fill-opacity:1;stroke-opacity:1;" /><path d="M 451.85202 142.5975 L 405 153.73999" style="stroke:rgb(50,125,209);stroke-width:1" /><circle cx="405" cy="153.73999" r="2" style="fill:rgb(50,125,209);stroke:none;fill-opacity:1;stroke-opacity:1;" /><path d="M 405 153.73999 L 338.96576 165.70999" style="stroke:rgb(50,125,209);stroke-width:1" /><circle cx="338.96576" cy="165.70999" r="2" style="fill:rgb(50,125,209);stroke:none;fill-opacity:1;stroke-opacity:1;" /><path d="M 338.96576 165.70999 L 292.11377 173.515" style="stroke:rgb(50,125,209);stroke-width:1" /><circle cx="292.11377" cy="173.515" r="2" style="fill:rgb(50,125,209);stroke:none;fill-opacity:1;stroke-opacity:1;" /><path d="M 292.11377 173.515 L 255.7725 179.265" style="stroke:rgb(50,125,209);stroke-width:1" /><circle cx="255.7725" cy="179.265" r="2" style="fill:rgb(50,125,209);stroke:none;fill-opacity:1;stroke-opacity:1;" /><path d="M 255.7725 179.265 L 142.88626 194.2225" style="stroke:rgb(50,125,209);stroke-width:1" /><circle cx="142.88626" cy="194.2225" r="2" style="fill:rgb(50,125,209);stroke:none;fill-opacity:1;stroke-opacity:1;" /><path d="M 142.88626 194.2225 L 30 206.11" style="stroke:rgb(50,125,209);stroke-width:1" /><circle cx="30" cy="206.11" r="2" style="fill:rgb(50,125,209);stroke:none;fill-opacity:1;stroke-opacity:1;" /><circle cx="780" cy="247.27249" r="2" style="fill:rgb(253,204,229);stroke:none;fill-opacity:1;stroke-opacity:1;" /><path d="M 780 247.27249 L 630.77246 253.2075" style="stroke:rgb(253,204,229);stroke-width:1" /><circle cx="630.77246" cy="253.2075" r="2" style="fill:rgb(253,204,229);stroke:none;fill-opacity:1;stroke-opacity:1;" /><path d="M 630.77246 253.2075 L 517.8862 256.215" style="stroke:rgb(253,204,229);stroke-width:1" /><circle cx="517.8862" cy="256.215" r="2" style="fill:rgb(253,204,229);stroke:none;fill-opacity:1;stroke-opacity:1;" /><path d="M 517.8862 256.215 L 451.85202 257.475" style="stroke:rgb(253,204,229);stroke-width:1" /><circle cx="451.85202" cy="257.475" r="2" style="fill:rgb(253,204,229);stroke:none;fill-opacity:1;stroke-opacity:1;" /><path d="M 451.85202 257.475 L 405 258.3775" style="stroke:rgb(253,204,229);stroke-width:1" /><circle cx="405" cy="258.3775" r="2" style="fill:rgb(253,204,229);stroke:none;fill-opacity:1;stroke-opacity:1;" /><path d="M 405 258.3775 L 338.96576 259.415" style="stroke:rgb(253,204,229);stroke-width:1" /><circle cx="338.96576" cy="259.415" r="2" style="fill:rgb(253,204,229);stroke:none;fill-opacity:1;stroke-opacity:1;" /><path d="M 338.96576 259.415 L 292.11377 259.9575" style="stroke:rgb(253,204,229);stroke-width:1" /><circle cx="292.11377" cy="259.9575" r="2" style="fill:rgb(253,204,229);stroke:none;fill-opacity:1;stroke-opacity:1;" /><path d="M 292.11377 259.9575 L 255.7725 260.4975" style="stroke:rgb(253,204,229);stroke-width:1" /><circle cx="255.7725" cy="260.4975" r="2" style="fill:rgb(253,204,229);stroke:none;fill-opacity:1;stroke-opacity:1;" /><path d="M 255.7725 260.4975 L 142.88626 261.7125" style="stroke:rgb(253,204,229);stroke-width:1" /><circle cx="142.88626" cy="261.7125" r="2" style="fill:rgb(253,204,229);stroke:none;fill-opacity:1;stroke-opacity:1;" /><path d="M 142.88626 261.7125 L 30 262.8875" style="stroke:rgb(253,204,229);stroke-width:1" /><circle cx="30" cy="262.8875" r="2" style="fill:rgb(253,204,229);stroke:none;fill-opacity:1;stroke-opacity:1;" /><circle cx="780" cy="253.2675" r="2" style="fill:rgb(199,126,190);stroke:none;fill-opacity:1;stroke-opacity:1;" /><path d="M 780 253.2675 L 630.77246 257.025" style="stroke:rgb(199,126,190);stroke-width:1" /><circle cx="630.77246" cy="257.025" r="2" style="fill:rgb(199,126,190);stroke:none;fill-opacity:1;stroke-opacity:1;" /><path d="M 630.77246 257.025 L 517.8862 259.165" style="stroke:rgb(199,126,190);stroke-width:1" /><circle cx="517.8862" cy="259.165" r="2" style="fill:rgb(199,126,190);stroke:none;fill-opacity:1;stroke-opacity:1;" /><path d="M 517.8862 259.165 L 451.85202 259.9775" style="stroke:rgb(199,126,190);stroke-width:1" /><circle cx="451.85202" cy="259.9775" r="2" style="fill:rgb(199,126,190);stroke:none;fill-opacity:1;stroke-opacity:1;" /><path d="M 451.85202 259.9775 L 405 260.74" style="stroke:rgb(199,126,190);stroke-width:1" /><circle cx="405" cy="260.74" r="2" style="fill:rgb(199,126,190);stroke:none;fill-opacity:1;stroke-opacity:1;" /><path d="M 405 260.74 L 338.96576 261.44" style="stroke:rgb(199,126,190);stroke-width:1" /><circle cx="338.96576" cy="261.44" r="2" style="fill:rgb(199,126,190);stroke:none;fill-opacity:1;stroke-opacity:1;" /><path d="M 338.96576 261.44 L 292.11377 261.96" style="stroke:rgb(199,126,190);stroke-width:1" /><circle cx="292.11377" cy="261.96" r="2" style="fill:rgb(199,126,190);stroke:none;fill-opacity:1;stroke-opacity:1;" /><path d="M 292.11377 261.96 L 255.7725 262.23" style="stroke:rgb(199,126,190);stroke-width:1" /><circle cx="255.7725" cy="262.23" r="2" style="fill:rgb(199,126,190);stroke:none;fill-opacity:1;stroke-opacity:1;" /><path d="M 255.7725 262.23 L 142.88626 263.3525" style="stroke:rgb(199,126,190);stroke-width:1" /><circle cx="142.88626" cy="263.3525" r="2" style="fill:rgb(199,126,190);stroke:none;fill-opacity:1;stroke-opacity:1;" /><path d="M 142.88626 263.3525 L 30 264.125" style="stroke:rgb(199,126,190);stroke-width:1" /><circle cx="30" cy="264.125" r="2" style="fill:rgb(199,126,190);stroke:none;fill-opacity:1;stroke-opacity:1;" /><circle cx="780" cy="125.755005" r="2" style="fill:rgb(128,214,87);stroke:none;fill-opacity:1;stroke-opacity:1;" /><path d="M 780 125.755005 L 630.77246 178.545" style="stroke:rgb(128,214,87);stroke-width:1" /><circle cx="630.77246" cy="178.545" r="2" style="fill:rgb(128,214,87);stroke:none;fill-opacity:1;stroke-opacity:1;" /><path d="M 630.77246 178.545 L 517.8862 206.045" style="stroke:rgb(128,214,87);stroke-width:1" /><circle cx="517.8862" cy="206.045" r="2" style="fill:rgb(128,214,87);stroke:none;fill-opacity:1;stroke-opacity:1;" /><path d="M 517.8862 206.045 L 451.85202 218.4825" style="stroke:rgb(128,214,87);stroke-width:1" /><circle cx="451.85202" cy="218.4825" r="2" style="fill:rgb(128,214,87);stroke:none;fill-opacity:1;stroke-opacity:1;" /><path d="M 451.85202 218.4825 L 405 227.95999" style="stroke:rgb(128,214,87);stroke-width:1" /><circle cx="405" cy="227.95999" r="2" style="fill:rgb(128,214,87);stroke:none;fill-opacity:1;stroke-opacity:1;" /><path d="M 405 227.95999 L 338.96576 238.65" style="stroke:rgb(128,214,87);stroke-width:1" /><circle cx="338.96576" cy="238.65" r="2" style="fill:rgb(128,214,87);stroke:none;fill-opacity:1;stroke-opacity:1;" /><path d="M 338.96576 238.65 L 292.11377 244.5925" style="stroke:rgb(128,214,87);stroke-width:1" /><circle cx="292.11377" cy="244.5925" r="2" style="fill:rgb(128,214,87);stroke:none;fill-opacity:1;stroke-opacity:1;" /><path d="M 292.11377 244.5925 L 255.7725 248.6925" style="stroke:rgb(128,214,87);stroke-width:1" /><circle cx="255.7725" cy="248.6925" r="2" style="fill:rgb(128,214,87);stroke:none;fill-opacity:1;stroke-opacity:1;" /><path d="M 255.7725 248.6925 L 142.88626 256.7275" style="stroke:rgb(128,214,87);stroke-width:1" /><circle cx="142.88626" cy="256.7275" r="2" style="fill:rgb(128,214,87);stroke:none;fill-opacity:1;stroke-opacity:1;" /><path d="M 142.88626 256.7275 L 30 261.29" style="stroke:rgb(128,214,87);stroke-width:1" /><circle cx="30" cy="261.29" r="2" style="fill:rgb(128,214,87);stroke:none;fill-opacity:1;stroke-opacity:1;" /><rect x="676" y="16" width="80" height="196" ry="4" style="fill:rgb(30,30,30);stroke:none;fill-opacity:0.8;stroke-opacity:1;" /><rect x="680" y="20" width="20" height="20" ry="2" style="fill:rgb(253,127,111);stroke:none;fill-opacity:1;stroke-opacity:1;" /><text x="705" y="33" style="font-size:10px;fill:rgb(255,255,255);text-anchor:start;text-align:left;"> fwd-diff </text><rect x="680" y="41" width="20" height="20" ry="2" style="fill:rgb(255,181,90);stroke:none;fill-opacity:1;stroke-opacity:1;" /><text x="705" y="54" style="font-size:10px;fill:rgb(255,255,255);text-anchor:start;text-align:left;"> hain </text><rect x="680" y="62" width="20" height="20" ry="2" style="fill:rgb(50,125,209);stroke:none;fill-opacity:1;stroke-opacity:1;" /><text x="705" y="75" style="font-size:10px;fill:rgb(255,255,255);text-anchor:start;text-align:left;"> levien </text><rect x="680" y="83" width="20" height="20" ry="2" style="fill:rgb(119,211,179);stroke:none;fill-opacity:1;stroke-opacity:1;" /><text x="705" y="96" style="font-size:10px;fill:rgb(255,255,255);text-anchor:start;text-align:left;"> levien-linear </text><rect x="680" y="104" width="20" height="20" ry="2" style="fill:rgb(126,176,213);stroke:none;fill-opacity:1;stroke-opacity:1;" /><text x="705" y="117" style="font-size:10px;fill:rgb(255,255,255);text-anchor:start;text-align:left;"> levien-simd </text><rect x="680" y="125" width="20" height="20" ry="2" style="fill:rgb(128,214,87);stroke:none;fill-opacity:1;stroke-opacity:1;" /><text x="705" y="138" style="font-size:10px;fill:rgb(255,255,255);text-anchor:start;text-align:left;"> linear </text><rect x="680" y="146" width="20" height="20" ry="2" style="fill:rgb(255,238,101);stroke:none;fill-opacity:1;stroke-opacity:1;" /><text x="705" y="159" style="font-size:10px;fill:rgb(255,255,255);text-anchor:start;text-align:left;"> recursive </text><rect x="680" y="167" width="20" height="20" ry="2" style="fill:rgb(253,204,229);stroke:none;fill-opacity:1;stroke-opacity:1;" /><text x="705" y="180" style="font-size:10px;fill:rgb(255,255,255);text-anchor:start;text-align:left;"> wang </text><rect x="680" y="188" width="20" height="20" ry="2" style="fill:rgb(199,126,190);stroke:none;fill-opacity:1;stroke-opacity:1;" /><text x="705" y="201" style="font-size:10px;fill:rgb(255,255,255);text-anchor:start;text-align:left;"> wang-simd </text><text x="400" y="30" style="font-size:20px;fill:rgb(255,255,255);text-anchor:middle;text-align:center;"> tiger dataset: cubic </text><text x="400" y="42" style="font-size:8px;fill:rgb(200,200,200);text-anchor:middle;text-align:center;"> Normalized performance score (lower is better) </text></svg>