<svg xmlns="http://www.w3.org/2000/svg" viewBox="0 0 800 300"><rect x="0" y="0" width="800" height="300" ry="6" style="fill:rgb(30,30,30);stroke:none;fill-opacity:1;stroke-opacity:1;" /><path d="M 30 20 L 30 270" style="stroke:rgb(200,200,200);stroke-width:1" /><path d="M 30 270 L 780 270" style="stroke:rgb(200,200,200);stroke-width:1" /><path d="M 780 270 L 780 272" style="stroke:rgb(200,200,200);stroke-width:1" /><text x="780" y="282" style="font-size:10px;fill:rgb(200,200,200);text-anchor:middle;text-align:center;"> 0.01 </text><path d="M 630.77246 270 L 630.77246 272" style="stroke:rgb(200,200,200);stroke-width:1" /><text x="630.77246" y="282" style="font-size:10px;fill:rgb(200,200,200);text-anchor:middle;text-align:center;"> 0.025 </text><path d="M 517.8862 270 L 517.8862 272" style="stroke:rgb(200,200,200);stroke-width:1" /><text x="517.8862" y="282" style="font-size:10px;fill:rgb(200,200,200);text-anchor:middle;text-align:center;"> 0.05 </text><path d="M 451.85202 270 L 451.85202 272" style="stroke:rgb(200,200,200);stroke-width:1" /><text x="451.85202" y="282" style="font-size:10px;fill:rgb(200,200,200);text-anchor:middle;text-align:center;"> 0.075 </text><path d="M 405 270 L 405 272" style="stroke:rgb(200,200,200);stroke-width:1" /><text x="405" y="282" style="font-size:10px;fill:rgb(200,200,200);text-anchor:middle;text-align:center;"> 0.1 </text><path d="M 338.96576 270 L 338.96576 272" style="stroke:rgb(200,200,200);stroke-width:1" /><text x="338.96576" y="282" style="font-size:10px;fill:rgb(200,200,200);text-anchor:middle;text-align:center;"> 0.15 </text><path d="M 292.11377 270 L 292.11377 272" style="stroke:rgb(200,200,200);stroke-width:1" /><text x="292.11377" y="282" style="font-size:10px;fill:rgb(200,200,200);text-anchor:middle;text-align:center;"> 0.2 </text><path d="M 255.7725 270 L 255.7725 272" style="stroke:rgb(200,200,200);stroke-width:1" /><text x="255.7725" y="282" style="font-size:10px;fill:rgb(200,200,200);text-anchor:middle;text-align:center;"> 0.25 </text><path d="M 142.88626 270 L 142.88626 272" style="stroke:rgb(200,200,200);stroke-width:1" /><text x="142.88626" y="282" style="font-size:10px;fill:rgb(200,200,200);text-anchor:middle;text-align:center;"> 0.5 </text><path d="M 30 270 L 30 272" style="stroke:rgb(200,200,200);stroke-width:1" /><text x="30" y="282" style="font-size:10px;fill:rgb(200,200,200);text-anchor:middle;text-align:center;"> 1 </text><path d="M 28 270 L 30 270" style="stroke:rgb(200,200,200);stroke-width:1" /><text x="26" y="274" style="font-size:10px;fill:rgb(200,200,200);text-anchor:end;text-align:right;"> 0 </text><path d="M 28 207.5 L 30 207.5" style="stroke:rgb(200,200,200);stroke-width:1" /><text x="26" y="211.5" style="font-size:10px;fill:rgb(200,200,200);text-anchor:end;text-align:right;"> 0.25 </text><path d="M 28 145 L 30 145" style="stroke:rgb(200,200,200);stroke-width:1" /><text x="26" y="149" style="font-size:10px;fill:rgb(200,200,200);text-anchor:end;text-align:right;"> 0.5 </text><path d="M 28 82.5 L 30 82.5" style="stroke:rgb(200,200,200);stroke-width:1" /><text x="26" y="86.5" style="font-size:10px;fill:rgb(200,200,200);text-anchor:end;text-align:right;"> 0.75 </text><path d="M 28 20 L 30 20" style="stroke:rgb(200,200,200);stroke-width:1" /><text x="26" y="24" style="font-size:10px;fill:rgb(200,200,200);text-anchor:end;text-align:right;"> 1 </text><text x="400" y="294" style="font-size:10px;fill:rgb(200,200,200);text-anchor:middle;text-align:center;"> Tolerance </text><circle cx="780" cy="244.8125" r="2" style="fill:rgb(253,204,229);stroke:none;fill-opacity:1;stroke-opacity:1;" /><path d="M 780 244.8125 L 630.77246 247.0325" style="stroke:rgb(253,204,229);stroke-width:1" /><circle cx="630.77246" cy="247.0325" r="2" style="fill:rgb(253,204,229);stroke:none;fill-opacity:1;stroke-opacity:1;" /><path d="M 630.77246 247.0325 L 517.8862 248.705" style="stroke:rgb(253,204,229);stroke-width:1" /><circle cx="517.8862" cy="248.705" r="2" style="fill:rgb(253,204,229);stroke:none;fill-opacity:1;stroke-opacity:1;" /><path d="M 517.8862 248.705 L 451.85202 249.56" style="stroke:rgb(253,204,229);stroke-width:1" /><circle cx="451.85202" cy="249.56" r="2" style="fill:rgb(253,204,229);stroke:none;fill-opacity:1;stroke-opacity:1;" /><path d="M 451.85202 249.56 L 405 251.3375" style="stroke:rgb(253,204,229);stroke-width:1" /><circle cx="405" cy="251.3375" r="2" style="fill:rgb(253,204,229);stroke:none;fill-opacity:1;stroke-opacity:1;" /><path d="M 405 251.3375 L 338.96576 253" style="stroke:rgb(253,204,229);stroke-width:1" /><circle cx="338.96576" cy="253" r="2" style="fill:rgb(253,204,229);stroke:none;fill-opacity:1;stroke-opacity:1;" /><path d="M 338.96576 253 L 292.11377 254.84" style="stroke:rgb(253,204,229);stroke-width:1" /><circle cx="292.11377" cy="254.84" r="2" style="fill:rgb(253,204,229);stroke:none;fill-opacity:1;stroke-opacity:1;" /><path d="M 292.11377 254.84 L 255.7725 255.8775" style="stroke:rgb(253,204,229);stroke-width:1" /><circle cx="255.7725" cy="255.8775" r="2" style="fill:rgb(253,204,229);stroke:none;fill-opacity:1;stroke-opacity:1;" /><path d="M 255.7725 255.8775 L 142.88626 260.0825" style="stroke:rgb(253,204,229);stroke-width:1" /><circle cx="142.88626" cy="260.0825" r="2" style="fill:rgb(253,204,229);stroke:none;fill-opacity:1;stroke-opacity:1;" /><path d="M 142.88626 260.0825 L 30 263.405" style="stroke:rgb(253,204,229);stroke-width:1" /><circle cx="30" cy="263.405" r="2" style="fill:rgb(253,204,229);stroke:none;fill-opacity:1;stroke-opacity:1;" /><circle cx="780" cy="20" r="2" style="fill:rgb(255,181,90);stroke:none;fill-opacity:1;stroke-opacity:1;" /><path d="M 780 20 L 630.77246 104.2225" style="stroke:rgb(255,181,90);stroke-width:1" /><circle cx="630.77246" cy="104.2225" r="2" style="fill:rgb(255,181,90);stroke:none;fill-opacity:1;stroke-opacity:1;" /><path d="M 630.77246 104.2225 L 517.8862 148.2575" style="stroke:rgb(255,181,90);stroke-width:1" /><circle cx="517.8862" cy="148.2575" r="2" style="fill:rgb(255,181,90);stroke:none;fill-opacity:1;stroke-opacity:1;" /><path d="M 517.8862 148.2575 L 451.85202 168.8375" style="stroke:rgb(255,181,90);stroke-width:1" /><circle cx="451.85202" cy="168.8375" r="2" style="fill:rgb(255,181,90);stroke:none;fill-opacity:1;stroke-opacity:1;" /><path d="M 451.85202 168.8375 L 405 181.1" style="stroke:rgb(255,181,90);stroke-width:1" /><circle cx="405" cy="181.1" r="2" style="fill:rgb(255,181,90);stroke:none;fill-opacity:1;stroke-opacity:1;" /><path d="M 405 181.1 L 338.96576 197.12" style="stroke:rgb(255,181,90);stroke-width:1" /><circle cx="338.96576" cy="197.12" r="2" style="fill:rgb(255,181,90);stroke:none;fill-opacity:1;stroke-opacity:1;" /><path d="M 338.96576 197.12 L 292.11377 205.36499" style="stroke:rgb(255,181,90);stroke-width:1" /><circle cx="292.11377" cy="205.36499" r="2" style="fill:rgb(255,181,90);stroke:none;fill-opacity:1;stroke-opacity:1;" /><path d="M 292.11377 205.36499 L 255.7725 211.9725" style="stroke:rgb(255,181,90);stroke-width:1" /><circle cx="255.7725" cy="211.9725" r="2" style="fill:rgb(255,181,90);stroke:none;fill-opacity:1;stroke-opacity:1;" /><path d="M 255.7725 211.9725 L 142.88626 227.135" style="stroke:rgb(255,181,90);stroke-width:1" /><circle cx="142.88626" cy="227.135" r="2" style="fill:rgb(255,181,90);stroke:none;fill-opacity:1;stroke-opacity:1;" /><path d="M 142.88626 227.135 L 30 236.23" style="stroke:rgb(255,181,90);stroke-width:1" /><circle cx="30" cy="236.23" r="2" style="fill:rgb(255,181,90);stroke:none;fill-opacity:1;stroke-opacity:1;" /><circle cx="780" cy="248.08499" r="2" style="fill:rgb(199,126,190);stroke:none;fill-opacity:1;stroke-opacity:1;" /><path d="M 780 248.08499 L 630.77246 249.195" style="stroke:rgb(199,126,190);stroke-width:1" /><circle cx="630.77246" cy="249.195" r="2" style="fill:rgb(199,126,190);stroke:none;fill-opacity:1;stroke-opacity:1;" /><path d="M 630.77246 249.195 L 517.8862 251.935" style="stroke:rgb(199,126,190);stroke-width:1" /><circle cx="517.8862" cy="251.935" r="2" style="fill:rgb(199,126,190);stroke:none;fill-opacity:1;stroke-opacity:1;" /><path d="M 517.8862 251.935 L 451.85202 252.9025" style="stroke:rgb(199,126,190);stroke-width:1" /><circle cx="451.85202" cy="252.9025" r="2" style="fill:rgb(199,126,190);stroke:none;fill-opacity:1;stroke-opacity:1;" /><path d="M 451.85202 252.9025 L 405 254.7725" style="stroke:rgb(199,126,190);stroke-width:1" /><circle cx="405" cy="254.7725" r="2" style="fill:rgb(199,126,190);stroke:none;fill-opacity:1;stroke-opacity:1;" /><path d="M 405 254.7725 L 338.96576 256.4275" style="stroke:rgb(199,126,190);stroke-width:1" /><circle cx="338.96576" cy="256.4275" r="2" style="fill:rgb(199,126,190);stroke:none;fill-opacity:1;stroke-opacity:1;" /><path d="M 338.96576 256.4275 L 292.11377 256.4025" style="stroke:rgb(199,126,190);stroke-width:1" /><circle cx="292.11377" cy="256.4025" r="2" style="fill:rgb(199,126,190);stroke:none;fill-opacity:1;stroke-opacity:1;" /><path d="M 292.11377 256.4025 L 255.7725 259.2175" style="stroke:rgb(199,126,190);stroke-width:1" /><circle cx="255.7725" cy="259.2175" r="2" style="fill:rgb(199,126,190);stroke:none;fill-opacity:1;stroke-opacity:1;" /><path d="M 255.7725 259.2175 L 142.88626 261.155" style="stroke:rgb(199,126,190);stroke-width:1" /><circle cx="142.88626" cy="261.155" r="2" style="fill:rgb(199,126,190);stroke:none;fill-opacity:1;stroke-opacity:1;" /><path d="M 142.88626 261.155 L 30 263.78" style="stroke:rgb(199,126,190);stroke-width:1" /><circle cx="30" cy="263.78" r="2" style="fill:rgb(199,126,190);stroke:none;fill-opacity:1;stroke-opacity:1;" /><circle cx="780" cy="156.595" r="2" style="fill:rgb(119,211,179);stroke:none;fill-opacity:1;stroke-opacity:1;" /><path d="M 780 156.595 L 630.77246 186.57251" style="stroke:rgb(119,211,179);stroke-width:1" /><circle cx="630.77246" cy="186.57251" r="2" style="fill:rgb(119,211,179);stroke:none;fill-opacity:1;stroke-opacity:1;" /><path d="M 630.77246 186.57251 L 517.8862 211.7125" style="stroke:rgb(119,211,179);stroke-width:1" /><circle cx="517.8862" cy="211.7125" r="2" style="fill:rgb(119,211,179);stroke:none;fill-opacity:1;stroke-opacity:1;" /><path d="M 517.8862 211.7125 L 451.85202 228.725" style="stroke:rgb(119,211,179);stroke-width:1" /><circle cx="451.85202" cy="228.725" r="2" style="fill:rgb(119,211,179);stroke:none;fill-opacity:1;stroke-opacity:1;" /><path d="M 451.85202 228.725 L 405 237.4975" style="stroke:rgb(119,211,179);stroke-width:1" /><circle cx="405" cy="237.4975" r="2" style="fill:rgb(119,211,179);stroke:none;fill-opacity:1;stroke-opacity:1;" /><path d="M 405 237.4975 L 338.96576 246.7625" style="stroke:rgb(119,211,179);stroke-width:1" /><circle cx="338.96576" cy="246.7625" r="2" style="fill:rgb(119,211,179);stroke:none;fill-opacity:1;stroke-opacity:1;" /><path d="M 338.96576 246.7625 L 292.11377 252.7575" style="stroke:rgb(119,211,179);stroke-width:1" /><circle cx="292.11377" cy="252.7575" r="2" style="fill:rgb(119,211,179);stroke:none;fill-opacity:1;stroke-opacity:1;" /><path d="M 292.11377 252.7575 L 255.7725 255.985" style="stroke:rgb(119,211,179);stroke-width:1" /><circle cx="255.7725" cy="255.985" r="2" style="fill:rgb(119,211,179);stroke:none;fill-opacity:1;stroke-opacity:1;" /><path d="M 255.7725 255.985 L 142.88626 261.91" style="stroke:rgb(119,211,179);stroke-width:1" /><circle cx="142.88626" cy="261.91" r="2" style="fill:rgb(119,211,179);stroke:none;fill-opacity:1;stroke-opacity:1;" /><path d="M 142.88626 261.91 L 30 264.09" style="stroke:rgb(119,211,179);stroke-width:1" /><circle cx="30" cy="264.09" r="2" style="fill:rgb(119,211,179);stroke:none;fill-opacity:1;stroke-opacity:1;" /><circle cx="780" cy="145.66" r="2" style="fill:rgb(126,176,213);stroke:none;fill-opacity:1;stroke-opacity:1;" /><path d="M 780 145.66 L 630.77246 160.6875" style="stroke:rgb(126,176,213);stroke-width:1" /><circle cx="630.77246" cy="160.6875" r="2" style="fill:rgb(126,176,213);stroke:none;fill-opacity:1;stroke-opacity:1;" /><path d="M 630.77246 160.6875 L 517.8862 169.54251" style="stroke:rgb(126,176,213);stroke-width:1" /><circle cx="517.8862" cy="169.54251" r="2" style="fill:rgb(126,176,213);stroke:none;fill-opacity:1;stroke-opacity:1;" /><path d="M 517.8862 169.54251 L 451.85202 175.48999" style="stroke:rgb(126,176,213);stroke-width:1" /><circle cx="451.85202" cy="175.48999" r="2" style="fill:rgb(126,176,213);stroke:none;fill-opacity:1;stroke-opacity:1;" /><path d="M 451.85202 175.48999 L 405 180.47751" style="stroke:rgb(126,176,213);stroke-width:1" /><circle cx="405" cy="180.47751" r="2" style="fill:rgb(126,176,213);stroke:none;fill-opacity:1;stroke-opacity:1;" /><path d="M 405 180.47751 L 338.96576 187.075" style="stroke:rgb(126,176,213);stroke-width:1" /><circle cx="338.96576" cy="187.075" r="2" style="fill:rgb(126,176,213);stroke:none;fill-opacity:1;stroke-opacity:1;" /><path d="M 338.96576 187.075 L 292.11377 191.3425" style="stroke:rgb(126,176,213);stroke-width:1" /><circle cx="292.11377" cy="191.3425" r="2" style="fill:rgb(126,176,213);stroke:none;fill-opacity:1;stroke-opacity:1;" /><path d="M 292.11377 191.3425 L 255.7725 194.5475" style="stroke:rgb(126,176,213);stroke-width:1" /><circle cx="255.7725" cy="194.5475" r="2" style="fill:rgb(126,176,213);stroke:none;fill-opacity:1;stroke-opacity:1;" /><path d="M 255.7725 194.5475 L 142.88626 203.795" style="stroke:rgb(126,176,213);stroke-width:1" /><circle cx="142.88626" cy="203.795" r="2" style="fill:rgb(126,176,213);stroke:none;fill-opacity:1;stroke-opacity:1;" /><path d="M 142.88626 203.795 L 30 208.7825" style="stroke:rgb(126,176,213);stroke-width:1" /><circle cx="30" cy="208.7825" r="2" style="fill:rgb(126,176,213);stroke:none;fill-opacity:1;stroke-opacity:1;" /><circle cx="780" cy="98.0925" r="2" style="fill:rgb(50,125,209);stroke:none;fill-opacity:1;stroke-opacity:1;" /><path d="M 780 98.0925 L 630.77246 127.729996" style="stroke:rgb(50,125,209);stroke-width:1" /><circle cx="630.77246" cy="127.729996" r="2" style="fill:rgb(50,125,209);stroke:none;fill-opacity:1;stroke-opacity:1;" /><path d="M 630.77246 127.729996 L 517.8862 145.10501" style="stroke:rgb(50,125,209);stroke-width:1" /><circle cx="517.8862" cy="145.10501" r="2" style="fill:rgb(50,125,209);stroke:none;fill-opacity:1;stroke-opacity:1;" /><path d="M 517.8862 145.10501 L 451.85202 154.3" style="stroke:rgb(50,125,209);stroke-width:1" /><circle cx="451.85202" cy="154.3" r="2" style="fill:rgb(50,125,209);stroke:none;fill-opacity:1;stroke-opacity:1;" /><path d="M 451.85202 154.3 L 405 160.87" style="stroke:rgb(50,125,209);stroke-width:1" /><circle cx="405" cy="160.87" r="2" style="fill:rgb(50,125,209);stroke:none;fill-opacity:1;stroke-opacity:1;" /><path d="M 405 160.87 L 338.96576 164.85501" style="stroke:rgb(50,125,209);stroke-width:1" /><circle cx="338.96576" cy="164.85501" r="2" style="fill:rgb(50,125,209);stroke:none;fill-opacity:1;stroke-opacity:1;" /><path d="M 338.96576 164.85501 L 292.11377 168.54001" style="stroke:rgb(50,125,209);stroke-width:1" /><circle cx="292.11377" cy="168.54001" r="2" style="fill:rgb(50,125,209);stroke:none;fill-opacity:1;stroke-opacity:1;" /><path d="M 292.11377 168.54001 L 255.7725 174.01001" style="stroke:rgb(50,125,209);stroke-width:1" /><circle cx="255.7725" cy="174.01001" r="2" style="fill:rgb(50,125,209);stroke:none;fill-opacity:1;stroke-opacity:1;" /><path d="M 255.7725 174.01001 L 142.88626 191.51001" style="stroke:rgb(50,125,209);stroke-width:1" /><circle cx="142.88626" cy="191.51001" r="2" style="fill:rgb(50,125,209);stroke:none;fill-opacity:1;stroke-opacity:1;" /><path d="M 142.88626 191.51001 L 30 200.36" style="stroke:rgb(50,125,209);stroke-width:1" /><circle cx="30" cy="200.36" r="2" style="fill:rgb(50,125,209);stroke:none;fill-opacity:1;stroke-opacity:1;" /><circle cx="780" cy="169.1375" r="2" style="fill:rgb(255,238,101);stroke:none;fill-opacity:1;stroke-opacity:1;" /><path d="M 780 169.1375 L 630.77246 206.6375" style="stroke:rgb(255,238,101);stroke-width:1" /><circle cx="630.77246" cy="206.6375" r="2" style="fill:rgb(255,238,101);stroke:none;fill-opacity:1;stroke-opacity:1;" /><path d="M 630.77246 206.6375 L 517.8862 227.525" style="stroke:rgb(255,238,101);stroke-width:1" /><circle cx="517.8862" cy="227.525" r="2" style="fill:rgb(255,238,101);stroke:none;fill-opacity:1;stroke-opacity:1;" /><path d="M 517.8862 227.525 L 451.85202 236.005" style="stroke:rgb(255,238,101);stroke-width:1" /><circle cx="451.85202" cy="236.005" r="2" style="fill:rgb(255,238,101);stroke:none;fill-opacity:1;stroke-opacity:1;" /><path d="M 451.85202 236.005 L 405 241.8575" style="stroke:rgb(255,238,101);stroke-width:1" /><circle cx="405" cy="241.8575" r="2" style="fill:rgb(255,238,101);stroke:none;fill-opacity:1;stroke-opacity:1;" /><path d="M 405 241.8575 L 338.96576 248.465" style="stroke:rgb(255,238,101);stroke-width:1" /><circle cx="338.96576" cy="248.465" r="2" style="fill:rgb(255,238,101);stroke:none;fill-opacity:1;stroke-opacity:1;" /><path d="M 338.96576 248.465 L 292.11377 252.555" style="stroke:rgb(255,238,101);stroke-width:1" /><circle cx="292.11377" cy="252.555" r="2" style="fill:rgb(255,238,101);stroke:none;fill-opacity:1;stroke-opacity:1;" /><path d="M 292.11377 252.555 L 255.7725 255.285" style="stroke:rgb(255,238,101);stroke-width:1" /><circle cx="255.7725" cy="255.285" r="2" style="fill:rgb(255,238,101);stroke:none;fill-opacity:1;stroke-opacity:1;" /><path d="M 255.7725 255.285 L 142.88626 262.4275" style="stroke:rgb(255,238,101);stroke-width:1" /><circle cx="142.88626" cy="262.4275" r="2" style="fill:rgb(255,238,101);stroke:none;fill-opacity:1;stroke-opacity:1;" /><path d="M 142.88626 262.4275 L 30 265.245" style="stroke:rgb(255,238,101);stroke-width:1" /><circle cx="30" cy="265.245" r="2" style="fill:rgb(255,238,101);stroke:none;fill-opacity:1;stroke-opacity:1;" /><circle cx="780" cy="174.42749" r="2" style="fill:rgb(128,214,87);stroke:none;fill-opacity:1;stroke-opacity:1;" /><path d="M 780 174.42749 L 630.77246 210.8925" style="stroke:rgb(128,214,87);stroke-width:1" /><circle cx="630.77246" cy="210.8925" r="2" style="fill:rgb(128,214,87);stroke:none;fill-opacity:1;stroke-opacity:1;" /><path d="M 630.77246 210.8925 L 517.8862 232.5725" style="stroke:rgb(128,214,87);stroke-width:1" /><circle cx="517.8862" cy="232.5725" r="2" style="fill:rgb(128,214,87);stroke:none;fill-opacity:1;stroke-opacity:1;" /><path d="M 517.8862 232.5725 L 451.85202 242.875" style="stroke:rgb(128,214,87);stroke-width:1" /><circle cx="451.85202" cy="242.875" r="2" style="fill:rgb(128,214,87);stroke:none;fill-opacity:1;stroke-opacity:1;" /><path d="M 451.85202 242.875 L 405 248.0975" style="stroke:rgb(128,214,87);stroke-width:1" /><circle cx="405" cy="248.0975" r="2" style="fill:rgb(128,214,87);stroke:none;fill-opacity:1;stroke-opacity:1;" /><path d="M 405 248.0975 L 338.96576 254.85" style="stroke:rgb(128,214,87);stroke-width:1" /><circle cx="338.96576" cy="254.85" r="2" style="fill:rgb(128,214,87);stroke:none;fill-opacity:1;stroke-opacity:1;" /><path d="M 338.96576 254.85 L 292.11377 256.97" style="stroke:rgb(128,214,87);stroke-width:1" /><circle cx="292.11377" cy="256.97" r="2" style="fill:rgb(128,214,87);stroke:none;fill-opacity:1;stroke-opacity:1;" /><path d="M 292.11377 256.97 L 255.7725 258.49" style="stroke:rgb(128,214,87);stroke-width:1" /><circle cx="255.7725" cy="258.49" r="2" style="fill:rgb(128,214,87);stroke:none;fill-opacity:1;stroke-opacity:1;" /><path d="M 255.7725 258.49 L 142.88626 262.245" style="stroke:rgb(128,214,87);stroke-width:1" /><circle cx="142.88626" cy="262.245" r="2" style="fill:rgb(128,214,87);stroke:none;fill-opacity:1;stroke-opacity:1;" /><path d="M 142.88626 262.245 L 30 264.14" style="stroke:rgb(128,214,87);stroke-width:1" /><circle cx="30" cy="264.14" r="2" style="fill:rgb(128,214,87);stroke:none;fill-opacity:1;stroke-opacity:1;" /><circle cx="780" cy="244.6075" r="2" style="fill:rgb(253,127,111);stroke:none;fill-opacity:1;stroke-opacity:1;" /><path d="M 780 244.6075 L 630.77246 247.1425" style="stroke:rgb(253,127,111);stroke-width:1" /><circle cx="630.77246" cy="247.1425" r="2" style="fill:rgb(253,127,111);stroke:none;fill-opacity:1;stroke-opacity:1;" /><path d="M 630.77246 247.1425 L 517.8862 248.73" style="stroke:rgb(253,127,111);stroke-width:1" /><circle cx="517.8862" cy="248.73" r="2" style="fill:rgb(253,127,111);stroke:none;fill-opacity:1;stroke-opacity:1;" /><path d="M 517.8862 248.73 L 451.85202 249.7075" style="stroke:rgb(253,127,111);stroke-width:1" /><circle cx="451.85202" cy="249.7075" r="2" style="fill:rgb(253,127,111);stroke:none;fill-opacity:1;stroke-opacity:1;" /><path d="M 451.85202 249.7075 L 405 250.9825" style="stroke:rgb(253,127,111);stroke-width:1" /><circle cx="405" cy="250.9825" r="2" style="fill:rgb(253,127,111);stroke:none;fill-opacity:1;stroke-opacity:1;" /><path d="M 405 250.9825 L 338.96576 252.9075" style="stroke:rgb(253,127,111);stroke-width:1" /><circle cx="338.96576" cy="252.9075" r="2" style="fill:rgb(253,127,111);stroke:none;fill-opacity:1;stroke-opacity:1;" /><path d="M 338.96576 252.9075 L 292.11377 254.6175" style="stroke:rgb(253,127,111);stroke-width:1" /><circle cx="292.11377" cy="254.6175" r="2" style="fill:rgb(253,127,111);stroke:none;fill-opacity:1;stroke-opacity:1;" /><path d="M 292.11377 254.6175 L 255.7725 255.81" style="stroke:rgb(253,127,111);stroke-width:1" /><circle cx="255.7725" cy="255.81" r="2" style="fill:rgb(253,127,111);stroke:none;fill-opacity:1;stroke-opacity:1;" /><path d="M 255.7725 255.81 L 142.88626 259.6725" style="stroke:rgb(253,127,111);stroke-width:1" /><circle cx="142.88626" cy="259.6725" r="2" style="fill:rgb(253,127,111);stroke:none;fill-opacity:1;stroke-opacity:1;" /><path d="M 142.88626 259.6725 L 30 262.43" style="stroke:rgb(253,127,111);stroke-width:1" /><circle cx="30" cy="262.43" r="2" style="fill:rgb(253,127,111);stroke:none;fill-opacity:1;stroke-opacity:1;" /><rect x="676" y="16" width="80" height="196" ry="4" style="fill:rgb(30,30,30);stroke:none;fill-opacity:0.8;stroke-opacity:1;" /><rect x="680" y="20" width="20" height="20" ry="2" style="fill:rgb(253,127,111);stroke:none;fill-opacity:1;stroke-opacity:1;" /><text x="705" y="33" style="font-size:10px;fill:rgb(255,255,255);text-anchor:start;text-align:left;"> fwd-diff </text><rect x="680" y="41" width="20" height="20" ry="2" style="fill:rgb(255,181,90);stroke:none;fill-opacity:1;stroke-opacity:1;" /><text x="705" y="54" style="font-size:10px;fill:rgb(255,255,255);text-anchor:start;text-align:left;"> hain </text><rect x="680" y="62" width="20" height="20" ry="2" style="fill:rgb(50,125,209);stroke:none;fill-opacity:1;stroke-opacity:1;" /><text x="705" y="75" style="font-size:10px;fill:rgb(255,255,255);text-anchor:start;text-align:left;"> levien </text><rect x="680" y="83" width="20" height="20" ry="2" style="fill:rgb(119,211,179);stroke:none;fill-opacity:1;stroke-opacity:1;" /><text x="705" y="96" style="font-size:10px;fill:rgb(255,255,255);text-anchor:start;text-align:left;"> levien-linear </text><rect x="680" y="104" width="20" height="20" ry="2" style="fill:rgb(126,176,213);stroke:none;fill-opacity:1;stroke-opacity:1;" /><text x="705" y="117" style="font-size:10px;fill:rgb(255,255,255);text-anchor:start;text-align:left;"> levien-simd </text><rect x="680" y="125" width="20" height="20" ry="2" style="fill:rgb(128,214,87);stroke:none;fill-opacity:1;stroke-opacity:1;" /><text x="705" y="138" style="font-size:10px;fill:rgb(255,255,255);text-anchor:start;text-align:left;"> linear </text><rect x="680" y="146" width="20" height="20" ry="2" style="fill:rgb(255,238,101);stroke:none;fill-opacity:1;stroke-opacity:1;" /><text x="705" y="159" style="font-size:10px;fill:rgb(255,255,255);text-anchor:start;text-align:left;"> recursive </text><rect x="680" y="167" width="20" height="20" ry="2" style="fill:rgb(253,204,229);stroke:none;fill-opacity:1;stroke-opacity:1;" /><text x="705" y="180" style="font-size:10px;fill:rgb(255,255,255);text-anchor:start;text-align:left;"> wang </text><rect x="680" y="188" width="20" height="20" ry="2" style="fill:rgb(199,126,190);stroke:none;fill-opacity:1;stroke-opacity:1;" /><text x="705" y="201" style="font-size:10px;fill:rgb(255,255,255);text-anchor:start;text-align:left;"> wang-simd </text><text x="400" y="30" style="font-size:20px;fill:rgb(255,255,255);text-anchor:middle;text-align:center;"> inkscape dataset: cubic </text><text x="400" y="42" style="font-size:8px;fill:rgb(200,200,200);text-anchor:middle;text-align:center;"> Normalized performance score (lower is better) </text></svg>