<svg xmlns="http://www.w3.org/2000/svg" viewBox="0 0 800 300"><rect x="0" y="0" width="800" height="300" ry="6" style="fill:rgb(30,30,30);stroke:none;fill-opacity:1;stroke-opacity:1;" /><path d="M 30 20 L 30 270" style="stroke:rgb(200,200,200);stroke-width:1" /><path d="M 30 270 L 780 270" style="stroke:rgb(200,200,200);stroke-width:1" /><path d="M 780 270 L 780 272" style="stroke:rgb(200,200,200);stroke-width:1" /><text x="780" y="282" style="font-size:10px;fill:rgb(200,200,200);text-anchor:middle;text-align:center;"> 0.01 </text><path d="M 630.77246 270 L 630.77246 272" style="stroke:rgb(200,200,200);stroke-width:1" /><text x="630.77246" y="282" style="font-size:10px;fill:rgb(200,200,200);text-anchor:middle;text-align:center;"> 0.025 </text><path d="M 517.8862 270 L 517.8862 272" style="stroke:rgb(200,200,200);stroke-width:1" /><text x="517.8862" y="282" style="font-size:10px;fill:rgb(200,200,200);text-anchor:middle;text-align:center;"> 0.05 </text><path d="M 451.85202 270 L 451.85202 272" style="stroke:rgb(200,200,200);stroke-width:1" /><text x="451.85202" y="282" style="font-size:10px;fill:rgb(200,200,200);text-anchor:middle;text-align:center;"> 0.075 </text><path d="M 405 270 L 405 272" style="stroke:rgb(200,200,200);stroke-width:1" /><text x="405" y="282" style="font-size:10px;fill:rgb(200,200,200);text-anchor:middle;text-align:center;"> 0.1 </text><path d="M 338.96576 270 L 338.96576 272" style="stroke:rgb(200,200,200);stroke-width:1" /><text x="338.96576" y="282" style="font-size:10px;fill:rgb(200,200,200);text-anchor:middle;text-align:center;"> 0.15 </text><path d="M 292.11377 270 L 292.11377 272" style="stroke:rgb(200,200,200);stroke-width:1" /><text x="292.11377" y="282" style="font-size:10px;fill:rgb(200,200,200);text-anchor:middle;text-align:center;"> 0.2 </text><path d="M 255.7725 270 L 255.7725 272" style="stroke:rgb(200,200,200);stroke-width:1" /><text x="255.7725" y="282" style="font-size:10px;fill:rgb(200,200,200);text-anchor:middle;text-align:center;"> 0.25 </text><path d="M 142.88626 270 L 142.88626 272" style="stroke:rgb(200,200,200);stroke-width:1" /><text x="142.88626" y="282" style="font-size:10px;fill:rgb(200,200,200);text-anchor:middle;text-align:center;"> 0.5 </text><path d="M 30 270 L 30 272" style="stroke:rgb(200,200,200);stroke-width:1" /><text x="30" y="282" style="font-size:10px;fill:rgb(200,200,200);text-anchor:middle;text-align:center;"> 1 </text><path d="M 28 270 L 30 270" style="stroke:rgb(200,200,200);stroke-width:1" /><text x="26" y="274" style="font-size:10px;fill:rgb(200,200,200);text-anchor:end;text-align:right;"> 0 </text><path d="M 28 207.5 L 30 207.5" style="stroke:rgb(200,200,200);stroke-width:1" /><text x="26" y="211.5" style="font-size:10px;fill:rgb(200,200,200);text-anchor:end;text-align:right;"> 0.25 </text><path d="M 28 145 L 30 145" style="stroke:rgb(200,200,200);stroke-width:1" /><text x="26" y="149" style="font-size:10px;fill:rgb(200,200,200);text-anchor:end;text-align:right;"> 0.5 </text><path d="M 28 82.5 L 30 82.5" style="stroke:rgb(200,200,200);stroke-width:1" /><text x="26" y="86.5" style="font-size:10px;fill:rgb(200,200,200);text-anchor:end;text-align:right;"> 0.75 </text><path d="M 28 20 L 30 20" style="stroke:rgb(200,200,200);stroke-width:1" /><text x="26" y="24" style="font-size:10px;fill:rgb(200,200,200);text-anchor:end;text-align:right;"> 1 </text><text x="400" y="294" style="font-size:10px;fill:rgb(200,200,200);text-anchor:middle;text-align:center;"> Tolerance </text><circle cx="780" cy="20" r="2" style="fill:rgb(255,181,90);stroke:none;fill-opacity:1;stroke-opacity:1;" /><path d="M 780 20 L 630.77246 110.55" style="stroke:rgb(255,181,90);stroke-width:1" /><circle cx="630.77246" cy="110.55" r="2" style="fill:rgb(255,181,90);stroke:none;fill-opacity:1;stroke-opacity:1;" /><path d="M 630.77246 110.55 L 517.8862 156.595" style="stroke:rgb(255,181,90);stroke-width:1" /><circle cx="517.8862" cy="156.595" r="2" style="fill:rgb(255,181,90);stroke:none;fill-opacity:1;stroke-opacity:1;" /><path d="M 517.8862 156.595 L 451.85202 176.8475" style="stroke:rgb(255,181,90);stroke-width:1" /><circle cx="451.85202" cy="176.8475" r="2" style="fill:rgb(255,181,90);stroke:none;fill-opacity:1;stroke-opacity:1;" /><path d="M 451.85202 176.8475 L 405 189.16501" style="stroke:rgb(255,181,90);stroke-width:1" /><circle cx="405" cy="189.16501" r="2" style="fill:rgb(255,181,90);stroke:none;fill-opacity:1;stroke-opacity:1;" /><path d="M 405 189.16501 L 338.96576 203.545" style="stroke:rgb(255,181,90);stroke-width:1" /><circle cx="338.96576" cy="203.545" r="2" style="fill:rgb(255,181,90);stroke:none;fill-opacity:1;stroke-opacity:1;" /><path d="M 338.96576 203.545 L 292.11377 212.2775" style="stroke:rgb(255,181,90);stroke-width:1" /><circle cx="292.11377" cy="212.2775" r="2" style="fill:rgb(255,181,90);stroke:none;fill-opacity:1;stroke-opacity:1;" /><path d="M 292.11377 212.2775 L 255.7725 218.145" style="stroke:rgb(255,181,90);stroke-width:1" /><circle cx="255.7725" cy="218.145" r="2" style="fill:rgb(255,181,90);stroke:none;fill-opacity:1;stroke-opacity:1;" /><path d="M 255.7725 218.145 L 142.88626 232.87" style="stroke:rgb(255,181,90);stroke-width:1" /><circle cx="142.88626" cy="232.87" r="2" style="fill:rgb(255,181,90);stroke:none;fill-opacity:1;stroke-opacity:1;" /><path d="M 142.88626 232.87 L 30 243.0625" style="stroke:rgb(255,181,90);stroke-width:1" /><circle cx="30" cy="243.0625" r="2" style="fill:rgb(255,181,90);stroke:none;fill-opacity:1;stroke-opacity:1;" /><circle cx="780" cy="257.9975" r="2" style="fill:rgb(253,204,229);stroke:none;fill-opacity:1;stroke-opacity:1;" /><path d="M 780 257.9975 L 630.77246 262.015" style="stroke:rgb(253,204,229);stroke-width:1" /><circle cx="630.77246" cy="262.015" r="2" style="fill:rgb(253,204,229);stroke:none;fill-opacity:1;stroke-opacity:1;" /><path d="M 630.77246 262.015 L 517.8862 264.0325" style="stroke:rgb(253,204,229);stroke-width:1" /><circle cx="517.8862" cy="264.0325" r="2" style="fill:rgb(253,204,229);stroke:none;fill-opacity:1;stroke-opacity:1;" /><path d="M 517.8862 264.0325 L 451.85202 264.8975" style="stroke:rgb(253,204,229);stroke-width:1" /><circle cx="451.85202" cy="264.8975" r="2" style="fill:rgb(253,204,229);stroke:none;fill-opacity:1;stroke-opacity:1;" /><path d="M 451.85202 264.8975 L 405 265.445" style="stroke:rgb(253,204,229);stroke-width:1" /><circle cx="405" cy="265.445" r="2" style="fill:rgb(253,204,229);stroke:none;fill-opacity:1;stroke-opacity:1;" /><path d="M 405 265.445 L 338.96576 266.1275" style="stroke:rgb(253,204,229);stroke-width:1" /><circle cx="338.96576" cy="266.1275" r="2" style="fill:rgb(253,204,229);stroke:none;fill-opacity:1;stroke-opacity:1;" /><path d="M 338.96576 266.1275 L 292.11377 266.5075" style="stroke:rgb(253,204,229);stroke-width:1" /><circle cx="292.11377" cy="266.5075" r="2" style="fill:rgb(253,204,229);stroke:none;fill-opacity:1;stroke-opacity:1;" /><path d="M 292.11377 266.5075 L 255.7725 266.785" style="stroke:rgb(253,204,229);stroke-width:1" /><circle cx="255.7725" cy="266.785" r="2" style="fill:rgb(253,204,229);stroke:none;fill-opacity:1;stroke-opacity:1;" /><path d="M 255.7725 266.785 L 142.88626 267.515" style="stroke:rgb(253,204,229);stroke-width:1" /><circle cx="142.88626" cy="267.515" r="2" style="fill:rgb(253,204,229);stroke:none;fill-opacity:1;stroke-opacity:1;" /><path d="M 142.88626 267.515 L 30 268.0525" style="stroke:rgb(253,204,229);stroke-width:1" /><circle cx="30" cy="268.0525" r="2" style="fill:rgb(253,204,229);stroke:none;fill-opacity:1;stroke-opacity:1;" /><circle cx="780" cy="189.67" r="2" style="fill:rgb(128,214,87);stroke:none;fill-opacity:1;stroke-opacity:1;" /><path d="M 780 189.67 L 630.77246 218.8375" style="stroke:rgb(128,214,87);stroke-width:1" /><circle cx="630.77246" cy="218.8375" r="2" style="fill:rgb(128,214,87);stroke:none;fill-opacity:1;stroke-opacity:1;" /><path d="M 630.77246 218.8375 L 517.8862 233.1625" style="stroke:rgb(128,214,87);stroke-width:1" /><circle cx="517.8862" cy="233.1625" r="2" style="fill:rgb(128,214,87);stroke:none;fill-opacity:1;stroke-opacity:1;" /><path d="M 517.8862 233.1625 L 451.85202 240.04001" style="stroke:rgb(128,214,87);stroke-width:1" /><circle cx="451.85202" cy="240.04001" r="2" style="fill:rgb(128,214,87);stroke:none;fill-opacity:1;stroke-opacity:1;" /><path d="M 451.85202 240.04001 L 405 244.0175" style="stroke:rgb(128,214,87);stroke-width:1" /><circle cx="405" cy="244.0175" r="2" style="fill:rgb(128,214,87);stroke:none;fill-opacity:1;stroke-opacity:1;" /><path d="M 405 244.0175 L 338.96576 248.51" style="stroke:rgb(128,214,87);stroke-width:1" /><circle cx="338.96576" cy="248.51" r="2" style="fill:rgb(128,214,87);stroke:none;fill-opacity:1;stroke-opacity:1;" /><path d="M 338.96576 248.51 L 292.11377 251.38" style="stroke:rgb(128,214,87);stroke-width:1" /><circle cx="292.11377" cy="251.38" r="2" style="fill:rgb(128,214,87);stroke:none;fill-opacity:1;stroke-opacity:1;" /><path d="M 292.11377 251.38 L 255.7725 253.4625" style="stroke:rgb(128,214,87);stroke-width:1" /><circle cx="255.7725" cy="253.4625" r="2" style="fill:rgb(128,214,87);stroke:none;fill-opacity:1;stroke-opacity:1;" /><path d="M 255.7725 253.4625 L 142.88626 258.1675" style="stroke:rgb(128,214,87);stroke-width:1" /><circle cx="142.88626" cy="258.1675" r="2" style="fill:rgb(128,214,87);stroke:none;fill-opacity:1;stroke-opacity:1;" /><path d="M 142.88626 258.1675 L 30 261.6075" style="stroke:rgb(128,214,87);stroke-width:1" /><circle cx="30" cy="261.6075" r="2" style="fill:rgb(128,214,87);stroke:none;fill-opacity:1;stroke-opacity:1;" /><circle cx="780" cy="263.7275" r="2" style="fill:rgb(199,126,190);stroke:none;fill-opacity:1;stroke-opacity:1;" /><path d="M 780 263.7275 L 630.77246 265.55" style="stroke:rgb(199,126,190);stroke-width:1" /><circle cx="630.77246" cy="265.55" r="2" style="fill:rgb(199,126,190);stroke:none;fill-opacity:1;stroke-opacity:1;" /><path d="M 630.77246 265.55 L 517.8862 266.505" style="stroke:rgb(199,126,190);stroke-width:1" /><circle cx="517.8862" cy="266.505" r="2" style="fill:rgb(199,126,190);stroke:none;fill-opacity:1;stroke-opacity:1;" /><path d="M 517.8862 266.505 L 451.85202 266.94" style="stroke:rgb(199,126,190);stroke-width:1" /><circle cx="451.85202" cy="266.94" r="2" style="fill:rgb(199,126,190);stroke:none;fill-opacity:1;stroke-opacity:1;" /><path d="M 451.85202 266.94 L 405 267.2075" style="stroke:rgb(199,126,190);stroke-width:1" /><circle cx="405" cy="267.2075" r="2" style="fill:rgb(199,126,190);stroke:none;fill-opacity:1;stroke-opacity:1;" /><path d="M 405 267.2075 L 338.96576 267.545" style="stroke:rgb(199,126,190);stroke-width:1" /><circle cx="338.96576" cy="267.545" r="2" style="fill:rgb(199,126,190);stroke:none;fill-opacity:1;stroke-opacity:1;" /><path d="M 338.96576 267.545 L 292.11377 267.7825" style="stroke:rgb(199,126,190);stroke-width:1" /><circle cx="292.11377" cy="267.7825" r="2" style="fill:rgb(199,126,190);stroke:none;fill-opacity:1;stroke-opacity:1;" /><path d="M 292.11377 267.7825 L 255.7725 267.9575" style="stroke:rgb(199,126,190);stroke-width:1" /><circle cx="255.7725" cy="267.9575" r="2" style="fill:rgb(199,126,190);stroke:none;fill-opacity:1;stroke-opacity:1;" /><path d="M 255.7725 267.9575 L 142.88626 268.4025" style="stroke:rgb(199,126,190);stroke-width:1" /><circle cx="142.88626" cy="268.4025" r="2" style="fill:rgb(199,126,190);stroke:none;fill-opacity:1;stroke-opacity:1;" /><path d="M 142.88626 268.4025 L 30 268.8025" style="stroke:rgb(199,126,190);stroke-width:1" /><circle cx="30" cy="268.8025" r="2" style="fill:rgb(199,126,190);stroke:none;fill-opacity:1;stroke-opacity:1;" /><circle cx="780" cy="168.06" r="2" style="fill:rgb(255,238,101);stroke:none;fill-opacity:1;stroke-opacity:1;" /><path d="M 780 168.06 L 630.77246 209.67" style="stroke:rgb(255,238,101);stroke-width:1" /><circle cx="630.77246" cy="209.67" r="2" style="fill:rgb(255,238,101);stroke:none;fill-opacity:1;stroke-opacity:1;" /><path d="M 630.77246 209.67 L 517.8862 223.4625" style="stroke:rgb(255,238,101);stroke-width:1" /><circle cx="517.8862" cy="223.4625" r="2" style="fill:rgb(255,238,101);stroke:none;fill-opacity:1;stroke-opacity:1;" /><path d="M 517.8862 223.4625 L 451.85202 233.69" style="stroke:rgb(255,238,101);stroke-width:1" /><circle cx="451.85202" cy="233.69" r="2" style="fill:rgb(255,238,101);stroke:none;fill-opacity:1;stroke-opacity:1;" /><path d="M 451.85202 233.69 L 405 240.055" style="stroke:rgb(255,238,101);stroke-width:1" /><circle cx="405" cy="240.055" r="2" style="fill:rgb(255,238,101);stroke:none;fill-opacity:1;stroke-opacity:1;" /><path d="M 405 240.055 L 338.96576 244.3275" style="stroke:rgb(255,238,101);stroke-width:1" /><circle cx="338.96576" cy="244.3275" r="2" style="fill:rgb(255,238,101);stroke:none;fill-opacity:1;stroke-opacity:1;" /><path d="M 338.96576 244.3275 L 292.11377 246.98" style="stroke:rgb(255,238,101);stroke-width:1" /><circle cx="292.11377" cy="246.98" r="2" style="fill:rgb(255,238,101);stroke:none;fill-opacity:1;stroke-opacity:1;" /><path d="M 292.11377 246.98 L 255.7725 249.63" style="stroke:rgb(255,238,101);stroke-width:1" /><circle cx="255.7725" cy="249.63" r="2" style="fill:rgb(255,238,101);stroke:none;fill-opacity:1;stroke-opacity:1;" /><path d="M 255.7725 249.63 L 142.88626 256.7275" style="stroke:rgb(255,238,101);stroke-width:1" /><circle cx="142.88626" cy="256.7275" r="2" style="fill:rgb(255,238,101);stroke:none;fill-opacity:1;stroke-opacity:1;" /><path d="M 142.88626 256.7275 L 30 260.035" style="stroke:rgb(255,238,101);stroke-width:1" /><circle cx="30" cy="260.035" r="2" style="fill:rgb(255,238,101);stroke:none;fill-opacity:1;stroke-opacity:1;" /><circle cx="780" cy="256.295" r="2" style="fill:rgb(253,127,111);stroke:none;fill-opacity:1;stroke-opacity:1;" /><path d="M 780 256.295 L 630.77246 261.3075" style="stroke:rgb(253,127,111);stroke-width:1" /><circle cx="630.77246" cy="261.3075" r="2" style="fill:rgb(253,127,111);stroke:none;fill-opacity:1;stroke-opacity:1;" /><path d="M 630.77246 261.3075 L 517.8862 263.81" style="stroke:rgb(253,127,111);stroke-width:1" /><circle cx="517.8862" cy="263.81" r="2" style="fill:rgb(253,127,111);stroke:none;fill-opacity:1;stroke-opacity:1;" /><path d="M 517.8862 263.81 L 451.85202 264.8775" style="stroke:rgb(253,127,111);stroke-width:1" /><circle cx="451.85202" cy="264.8775" r="2" style="fill:rgb(253,127,111);stroke:none;fill-opacity:1;stroke-opacity:1;" /><path d="M 451.85202 264.8775 L 405 265.485" style="stroke:rgb(253,127,111);stroke-width:1" /><circle cx="405" cy="265.485" r="2" style="fill:rgb(253,127,111);stroke:none;fill-opacity:1;stroke-opacity:1;" /><path d="M 405 265.485 L 338.96576 266.15" style="stroke:rgb(253,127,111);stroke-width:1" /><circle cx="338.96576" cy="266.15" r="2" style="fill:rgb(253,127,111);stroke:none;fill-opacity:1;stroke-opacity:1;" /><path d="M 338.96576 266.15 L 292.11377 266.56" style="stroke:rgb(253,127,111);stroke-width:1" /><circle cx="292.11377" cy="266.56" r="2" style="fill:rgb(253,127,111);stroke:none;fill-opacity:1;stroke-opacity:1;" /><path d="M 292.11377 266.56 L 255.7725 266.8475" style="stroke:rgb(253,127,111);stroke-width:1" /><circle cx="255.7725" cy="266.8475" r="2" style="fill:rgb(253,127,111);stroke:none;fill-opacity:1;stroke-opacity:1;" /><path d="M 255.7725 266.8475 L 142.88626 267.5725" style="stroke:rgb(253,127,111);stroke-width:1" /><circle cx="142.88626" cy="267.5725" r="2" style="fill:rgb(253,127,111);stroke:none;fill-opacity:1;stroke-opacity:1;" /><path d="M 142.88626 267.5725 L 30 268.1025" style="stroke:rgb(253,127,111);stroke-width:1" /><circle cx="30" cy="268.1025" r="2" style="fill:rgb(253,127,111);stroke:none;fill-opacity:1;stroke-opacity:1;" /><circle cx="780" cy="222.5175" r="2" style="fill:rgb(139,211,199);stroke:none;fill-opacity:1;stroke-opacity:1;" /><path d="M 780 222.5175 L 630.77246 238.14" style="stroke:rgb(139,211,199);stroke-width:1" /><circle cx="630.77246" cy="238.14" r="2" style="fill:rgb(139,211,199);stroke:none;fill-opacity:1;stroke-opacity:1;" /><path d="M 630.77246 238.14 L 517.8862 247.27249" style="stroke:rgb(139,211,199);stroke-width:1" /><circle cx="517.8862" cy="247.27249" r="2" style="fill:rgb(139,211,199);stroke:none;fill-opacity:1;stroke-opacity:1;" /><path d="M 517.8862 247.27249 L 451.85202 250.5625" style="stroke:rgb(139,211,199);stroke-width:1" /><circle cx="451.85202" cy="250.5625" r="2" style="fill:rgb(139,211,199);stroke:none;fill-opacity:1;stroke-opacity:1;" /><path d="M 451.85202 250.5625 L 405 253.44" style="stroke:rgb(139,211,199);stroke-width:1" /><circle cx="405" cy="253.44" r="2" style="fill:rgb(139,211,199);stroke:none;fill-opacity:1;stroke-opacity:1;" /><path d="M 405 253.44 L 338.96576 256.7575" style="stroke:rgb(139,211,199);stroke-width:1" /><circle cx="338.96576" cy="256.7575" r="2" style="fill:rgb(139,211,199);stroke:none;fill-opacity:1;stroke-opacity:1;" /><path d="M 338.96576 256.7575 L 292.11377 258.0825" style="stroke:rgb(139,211,199);stroke-width:1" /><circle cx="292.11377" cy="258.0825" r="2" style="fill:rgb(139,211,199);stroke:none;fill-opacity:1;stroke-opacity:1;" /><path d="M 292.11377 258.0825 L 255.7725 258.9025" style="stroke:rgb(139,211,199);stroke-width:1" /><circle cx="255.7725" cy="258.9025" r="2" style="fill:rgb(139,211,199);stroke:none;fill-opacity:1;stroke-opacity:1;" /><path d="M 255.7725 258.9025 L 142.88626 262.1925" style="stroke:rgb(139,211,199);stroke-width:1" /><circle cx="142.88626" cy="262.1925" r="2" style="fill:rgb(139,211,199);stroke:none;fill-opacity:1;stroke-opacity:1;" /><path d="M 142.88626 262.1925 L 30 264.045" style="stroke:rgb(139,211,199);stroke-width:1" /><circle cx="30" cy="264.045" r="2" style="fill:rgb(139,211,199);stroke:none;fill-opacity:1;stroke-opacity:1;" /><circle cx="780" cy="255.3625" r="2" style="fill:rgb(126,176,213);stroke:none;fill-opacity:1;stroke-opacity:1;" /><path d="M 780 255.3625 L 630.77246 258.51" style="stroke:rgb(126,176,213);stroke-width:1" /><circle cx="630.77246" cy="258.51" r="2" style="fill:rgb(126,176,213);stroke:none;fill-opacity:1;stroke-opacity:1;" /><path d="M 630.77246 258.51 L 517.8862 260.135" style="stroke:rgb(126,176,213);stroke-width:1" /><circle cx="517.8862" cy="260.135" r="2" style="fill:rgb(126,176,213);stroke:none;fill-opacity:1;stroke-opacity:1;" /><path d="M 517.8862 260.135 L 451.85202 260.885" style="stroke:rgb(126,176,213);stroke-width:1" /><circle cx="451.85202" cy="260.885" r="2" style="fill:rgb(126,176,213);stroke:none;fill-opacity:1;stroke-opacity:1;" /><path d="M 451.85202 260.885 L 405 261.365" style="stroke:rgb(126,176,213);stroke-width:1" /><circle cx="405" cy="261.365" r="2" style="fill:rgb(126,176,213);stroke:none;fill-opacity:1;stroke-opacity:1;" /><path d="M 405 261.365 L 338.96576 261.97" style="stroke:rgb(126,176,213);stroke-width:1" /><circle cx="338.96576" cy="261.97" r="2" style="fill:rgb(126,176,213);stroke:none;fill-opacity:1;stroke-opacity:1;" /><path d="M 338.96576 261.97 L 292.11377 262.3625" style="stroke:rgb(126,176,213);stroke-width:1" /><circle cx="292.11377" cy="262.3625" r="2" style="fill:rgb(126,176,213);stroke:none;fill-opacity:1;stroke-opacity:1;" /><path d="M 292.11377 262.3625 L 255.7725 262.6175" style="stroke:rgb(126,176,213);stroke-width:1" /><circle cx="255.7725" cy="262.6175" r="2" style="fill:rgb(126,176,213);stroke:none;fill-opacity:1;stroke-opacity:1;" /><path d="M 255.7725 262.6175 L 142.88626 263.43" style="stroke:rgb(126,176,213);stroke-width:1" /><circle cx="142.88626" cy="263.43" r="2" style="fill:rgb(126,176,213);stroke:none;fill-opacity:1;stroke-opacity:1;" /><path d="M 142.88626 263.43 L 30 264.2025" style="stroke:rgb(126,176,213);stroke-width:1" /><circle cx="30" cy="264.2025" r="2" style="fill:rgb(126,176,213);stroke:none;fill-opacity:1;stroke-opacity:1;" /><circle cx="780" cy="247.63" r="2" style="fill:rgb(50,125,209);stroke:none;fill-opacity:1;stroke-opacity:1;" /><path d="M 780 247.63 L 630.77246 253.29001" style="stroke:rgb(50,125,209);stroke-width:1" /><circle cx="630.77246" cy="253.29001" r="2" style="fill:rgb(50,125,209);stroke:none;fill-opacity:1;stroke-opacity:1;" /><path d="M 630.77246 253.29001 L 517.8862 256.175" style="stroke:rgb(50,125,209);stroke-width:1" /><circle cx="517.8862" cy="256.175" r="2" style="fill:rgb(50,125,209);stroke:none;fill-opacity:1;stroke-opacity:1;" /><path d="M 517.8862 256.175 L 451.85202 257.4875" style="stroke:rgb(50,125,209);stroke-width:1" /><circle cx="451.85202" cy="257.4875" r="2" style="fill:rgb(50,125,209);stroke:none;fill-opacity:1;stroke-opacity:1;" /><path d="M 451.85202 257.4875 L 405 258.3" style="stroke:rgb(50,125,209);stroke-width:1" /><circle cx="405" cy="258.3" r="2" style="fill:rgb(50,125,209);stroke:none;fill-opacity:1;stroke-opacity:1;" /><path d="M 405 258.3 L 338.96576 259.3875" style="stroke:rgb(50,125,209);stroke-width:1" /><circle cx="338.96576" cy="259.3875" r="2" style="fill:rgb(50,125,209);stroke:none;fill-opacity:1;stroke-opacity:1;" /><path d="M 338.96576 259.3875 L 292.11377 260.06" style="stroke:rgb(50,125,209);stroke-width:1" /><circle cx="292.11377" cy="260.06" r="2" style="fill:rgb(50,125,209);stroke:none;fill-opacity:1;stroke-opacity:1;" /><path d="M 292.11377 260.06 L 255.7725 260.5225" style="stroke:rgb(50,125,209);stroke-width:1" /><circle cx="255.7725" cy="260.5225" r="2" style="fill:rgb(50,125,209);stroke:none;fill-opacity:1;stroke-opacity:1;" /><path d="M 255.7725 260.5225 L 142.88626 261.705" style="stroke:rgb(50,125,209);stroke-width:1" /><circle cx="142.88626" cy="261.705" r="2" style="fill:rgb(50,125,209);stroke:none;fill-opacity:1;stroke-opacity:1;" /><path d="M 142.88626 261.705 L 30 262.7275" style="stroke:rgb(50,125,209);stroke-width:1" /><circle cx="30" cy="262.7275" r="2" style="fill:rgb(50,125,209);stroke:none;fill-opacity:1;stroke-opacity:1;" /><rect x="676" y="16" width="80" height="196" ry="4" style="fill:rgb(30,30,30);stroke:none;fill-opacity:0.8;stroke-opacity:1;" /><rect x="680" y="20" width="20" height="20" ry="2" style="fill:rgb(253,127,111);stroke:none;fill-opacity:1;stroke-opacity:1;" /><text x="705" y="33" style="font-size:10px;fill:rgb(255,255,255);text-anchor:start;text-align:left;"> fwd-diff </text><rect x="680" y="41" width="20" height="20" ry="2" style="fill:rgb(255,181,90);stroke:none;fill-opacity:1;stroke-opacity:1;" /><text x="705" y="54" style="font-size:10px;fill:rgb(255,255,255);text-anchor:start;text-align:left;"> hain </text><rect x="680" y="62" width="20" height="20" ry="2" style="fill:rgb(139,211,199);stroke:none;fill-opacity:1;stroke-opacity:1;" /><text x="705" y="75" style="font-size:10px;fill:rgb(255,255,255);text-anchor:start;text-align:left;"> hfd </text><rect x="680" y="83" width="20" height="20" ry="2" style="fill:rgb(50,125,209);stroke:none;fill-opacity:1;stroke-opacity:1;" /><text x="705" y="96" style="font-size:10px;fill:rgb(255,255,255);text-anchor:start;text-align:left;"> levien </text><rect x="680" y="104" width="20" height="20" ry="2" style="fill:rgb(126,176,213);stroke:none;fill-opacity:1;stroke-opacity:1;" /><text x="705" y="117" style="font-size:10px;fill:rgb(255,255,255);text-anchor:start;text-align:left;"> levien-simd </text><rect x="680" y="125" width="20" height="20" ry="2" style="fill:rgb(128,214,87);stroke:none;fill-opacity:1;stroke-opacity:1;" /><text x="705" y="138" style="font-size:10px;fill:rgb(255,255,255);text-anchor:start;text-align:left;"> linear </text><rect x="680" y="146" width="20" height="20" ry="2" style="fill:rgb(255,238,101);stroke:none;fill-opacity:1;stroke-opacity:1;" /><text x="705" y="159" style="font-size:10px;fill:rgb(255,255,255);text-anchor:start;text-align:left;"> recursive </text><rect x="680" y="167" width="20" height="20" ry="2" style="fill:rgb(253,204,229);stroke:none;fill-opacity:1;stroke-opacity:1;" /><text x="705" y="180" style="font-size:10px;fill:rgb(255,255,255);text-anchor:start;text-align:left;"> wang </text><rect x="680" y="188" width="20" height="20" ry="2" style="fill:rgb(199,126,190);stroke:none;fill-opacity:1;stroke-opacity:1;" /><text x="705" y="201" style="font-size:10px;fill:rgb(255,255,255);text-anchor:start;text-align:left;"> wang-simd </text><text x="400" y="30" style="font-size:20px;fill:rgb(255,255,255);text-anchor:middle;text-align:center;"> tiger dataset: quadratic </text><text x="400" y="42" style="font-size:8px;fill:rgb(200,200,200);text-anchor:middle;text-align:center;"> Normalized performance score (lower is better) </text></svg>