<svg xmlns="http://www.w3.org/2000/svg" viewBox="0 0 800 300"><rect x="0" y="0" width="800" height="300" ry="6" style="fill:rgb(30,30,30);stroke:none;fill-opacity:1;stroke-opacity:1;" /><path d="M 30 20 L 30 270" style="stroke:rgb(200,200,200);stroke-width:1" /><path d="M 30 270 L 780 270" style="stroke:rgb(200,200,200);stroke-width:1" /><path d="M 780 270 L 780 272" style="stroke:rgb(200,200,200);stroke-width:1" /><text x="780" y="282" style="font-size:10px;fill:rgb(200,200,200);text-anchor:middle;text-align:center;"> 0.01 </text><path d="M 630.77246 270 L 630.77246 272" style="stroke:rgb(200,200,200);stroke-width:1" /><text x="630.77246" y="282" style="font-size:10px;fill:rgb(200,200,200);text-anchor:middle;text-align:center;"> 0.025 </text><path d="M 517.8862 270 L 517.8862 272" style="stroke:rgb(200,200,200);stroke-width:1" /><text x="517.8862" y="282" style="font-size:10px;fill:rgb(200,200,200);text-anchor:middle;text-align:center;"> 0.05 </text><path d="M 451.85202 270 L 451.85202 272" style="stroke:rgb(200,200,200);stroke-width:1" /><text x="451.85202" y="282" style="font-size:10px;fill:rgb(200,200,200);text-anchor:middle;text-align:center;"> 0.075 </text><path d="M 405 270 L 405 272" style="stroke:rgb(200,200,200);stroke-width:1" /><text x="405" y="282" style="font-size:10px;fill:rgb(200,200,200);text-anchor:middle;text-align:center;"> 0.1 </text><path d="M 338.96576 270 L 338.96576 272" style="stroke:rgb(200,200,200);stroke-width:1" /><text x="338.96576" y="282" style="font-size:10px;fill:rgb(200,200,200);text-anchor:middle;text-align:center;"> 0.15 </text><path d="M 292.11377 270 L 292.11377 272" style="stroke:rgb(200,200,200);stroke-width:1" /><text x="292.11377" y="282" style="font-size:10px;fill:rgb(200,200,200);text-anchor:middle;text-align:center;"> 0.2 </text><path d="M 255.7725 270 L 255.7725 272" style="stroke:rgb(200,200,200);stroke-width:1" /><text x="255.7725" y="282" style="font-size:10px;fill:rgb(200,200,200);text-anchor:middle;text-align:center;"> 0.25 </text><path d="M 142.88626 270 L 142.88626 272" style="stroke:rgb(200,200,200);stroke-width:1" /><text x="142.88626" y="282" style="font-size:10px;fill:rgb(200,200,200);text-anchor:middle;text-align:center;"> 0.5 </text><path d="M 30 270 L 30 272" style="stroke:rgb(200,200,200);stroke-width:1" /><text x="30" y="282" style="font-size:10px;fill:rgb(200,200,200);text-anchor:middle;text-align:center;"> 1 </text><path d="M 28 270 L 30 270" style="stroke:rgb(200,200,200);stroke-width:1" /><text x="26" y="274" style="font-size:10px;fill:rgb(200,200,200);text-anchor:end;text-align:right;"> 0 </text><path d="M 28 207.5 L 30 207.5" style="stroke:rgb(200,200,200);stroke-width:1" /><text x="26" y="211.5" style="font-size:10px;fill:rgb(200,200,200);text-anchor:end;text-align:right;"> 0.25 </text><path d="M 28 145 L 30 145" style="stroke:rgb(200,200,200);stroke-width:1" /><text x="26" y="149" style="font-size:10px;fill:rgb(200,200,200);text-anchor:end;text-align:right;"> 0.5 </text><path d="M 28 82.5 L 30 82.5" style="stroke:rgb(200,200,200);stroke-width:1" /><text x="26" y="86.5" style="font-size:10px;fill:rgb(200,200,200);text-anchor:end;text-align:right;"> 0.75 </text><path d="M 28 20 L 30 20" style="stroke:rgb(200,200,200);stroke-width:1" /><text x="26" y="24" style="font-size:10px;fill:rgb(200,200,200);text-anchor:end;text-align:right;"> 1 </text><text x="400" y="294" style="font-size:10px;fill:rgb(200,200,200);text-anchor:middle;text-align:center;"> Tolerance </text><circle cx="780" cy="134.9875" r="2" style="fill:rgb(128,214,87);stroke:none;fill-opacity:1;stroke-opacity:1;" /><path d="M 780 134.9875 L 630.77246 184.54251" style="stroke:rgb(128,214,87);stroke-width:1" /><circle cx="630.77246" cy="184.54251" r="2" style="fill:rgb(128,214,87);stroke:none;fill-opacity:1;stroke-opacity:1;" /><path d="M 630.77246 184.54251 L 517.8862 209.045" style="stroke:rgb(128,214,87);stroke-width:1" /><circle cx="517.8862" cy="209.045" r="2" style="fill:rgb(128,214,87);stroke:none;fill-opacity:1;stroke-opacity:1;" /><path d="M 517.8862 209.045 L 451.85202 220.675" style="stroke:rgb(128,214,87);stroke-width:1" /><circle cx="451.85202" cy="220.675" r="2" style="fill:rgb(128,214,87);stroke:none;fill-opacity:1;stroke-opacity:1;" /><path d="M 451.85202 220.675 L 405 227.01" style="stroke:rgb(128,214,87);stroke-width:1" /><circle cx="405" cy="227.01" r="2" style="fill:rgb(128,214,87);stroke:none;fill-opacity:1;stroke-opacity:1;" /><path d="M 405 227.01 L 338.96576 234.7475" style="stroke:rgb(128,214,87);stroke-width:1" /><circle cx="338.96576" cy="234.7475" r="2" style="fill:rgb(128,214,87);stroke:none;fill-opacity:1;stroke-opacity:1;" /><path d="M 338.96576 234.7475 L 292.11377 239.8475" style="stroke:rgb(128,214,87);stroke-width:1" /><circle cx="292.11377" cy="239.8475" r="2" style="fill:rgb(128,214,87);stroke:none;fill-opacity:1;stroke-opacity:1;" /><path d="M 292.11377 239.8475 L 255.7725 243.215" style="stroke:rgb(128,214,87);stroke-width:1" /><circle cx="255.7725" cy="243.215" r="2" style="fill:rgb(128,214,87);stroke:none;fill-opacity:1;stroke-opacity:1;" /><path d="M 255.7725 243.215 L 142.88626 251.12" style="stroke:rgb(128,214,87);stroke-width:1" /><circle cx="142.88626" cy="251.12" r="2" style="fill:rgb(128,214,87);stroke:none;fill-opacity:1;stroke-opacity:1;" /><path d="M 142.88626 251.12 L 30 256.82" style="stroke:rgb(128,214,87);stroke-width:1" /><circle cx="30" cy="256.82" r="2" style="fill:rgb(128,214,87);stroke:none;fill-opacity:1;stroke-opacity:1;" /><circle cx="780" cy="243.2125" r="2" style="fill:rgb(126,176,213);stroke:none;fill-opacity:1;stroke-opacity:1;" /><path d="M 780 243.2125 L 630.77246 248.225" style="stroke:rgb(126,176,213);stroke-width:1" /><circle cx="630.77246" cy="248.225" r="2" style="fill:rgb(126,176,213);stroke:none;fill-opacity:1;stroke-opacity:1;" /><path d="M 630.77246 248.225 L 517.8862 250.6" style="stroke:rgb(126,176,213);stroke-width:1" /><circle cx="517.8862" cy="250.6" r="2" style="fill:rgb(126,176,213);stroke:none;fill-opacity:1;stroke-opacity:1;" /><path d="M 517.8862 250.6 L 451.85202 251.795" style="stroke:rgb(126,176,213);stroke-width:1" /><circle cx="451.85202" cy="251.795" r="2" style="fill:rgb(126,176,213);stroke:none;fill-opacity:1;stroke-opacity:1;" /><path d="M 451.85202 251.795 L 405 252.4975" style="stroke:rgb(126,176,213);stroke-width:1" /><circle cx="405" cy="252.4975" r="2" style="fill:rgb(126,176,213);stroke:none;fill-opacity:1;stroke-opacity:1;" /><path d="M 405 252.4975 L 338.96576 253.4625" style="stroke:rgb(126,176,213);stroke-width:1" /><circle cx="338.96576" cy="253.4625" r="2" style="fill:rgb(126,176,213);stroke:none;fill-opacity:1;stroke-opacity:1;" /><path d="M 338.96576 253.4625 L 292.11377 253.98" style="stroke:rgb(126,176,213);stroke-width:1" /><circle cx="292.11377" cy="253.98" r="2" style="fill:rgb(126,176,213);stroke:none;fill-opacity:1;stroke-opacity:1;" /><path d="M 292.11377 253.98 L 255.7725 254.3325" style="stroke:rgb(126,176,213);stroke-width:1" /><circle cx="255.7725" cy="254.3325" r="2" style="fill:rgb(126,176,213);stroke:none;fill-opacity:1;stroke-opacity:1;" /><path d="M 255.7725 254.3325 L 142.88626 255.325" style="stroke:rgb(126,176,213);stroke-width:1" /><circle cx="142.88626" cy="255.325" r="2" style="fill:rgb(126,176,213);stroke:none;fill-opacity:1;stroke-opacity:1;" /><path d="M 142.88626 255.325 L 30 256.0875" style="stroke:rgb(126,176,213);stroke-width:1" /><circle cx="30" cy="256.0875" r="2" style="fill:rgb(126,176,213);stroke:none;fill-opacity:1;stroke-opacity:1;" /><circle cx="780" cy="254.9775" r="2" style="fill:rgb(253,127,111);stroke:none;fill-opacity:1;stroke-opacity:1;" /><path d="M 780 254.9775 L 630.77246 259.3775" style="stroke:rgb(253,127,111);stroke-width:1" /><circle cx="630.77246" cy="259.3775" r="2" style="fill:rgb(253,127,111);stroke:none;fill-opacity:1;stroke-opacity:1;" /><path d="M 630.77246 259.3775 L 517.8862 261.5725" style="stroke:rgb(253,127,111);stroke-width:1" /><circle cx="517.8862" cy="261.5725" r="2" style="fill:rgb(253,127,111);stroke:none;fill-opacity:1;stroke-opacity:1;" /><path d="M 517.8862 261.5725 L 451.85202 262.59" style="stroke:rgb(253,127,111);stroke-width:1" /><circle cx="451.85202" cy="262.59" r="2" style="fill:rgb(253,127,111);stroke:none;fill-opacity:1;stroke-opacity:1;" /><path d="M 451.85202 262.59 L 405 263.24" style="stroke:rgb(253,127,111);stroke-width:1" /><circle cx="405" cy="263.24" r="2" style="fill:rgb(253,127,111);stroke:none;fill-opacity:1;stroke-opacity:1;" /><path d="M 405 263.24 L 338.96576 264.0725" style="stroke:rgb(253,127,111);stroke-width:1" /><circle cx="338.96576" cy="264.0725" r="2" style="fill:rgb(253,127,111);stroke:none;fill-opacity:1;stroke-opacity:1;" /><path d="M 338.96576 264.0725 L 292.11377 264.565" style="stroke:rgb(253,127,111);stroke-width:1" /><circle cx="292.11377" cy="264.565" r="2" style="fill:rgb(253,127,111);stroke:none;fill-opacity:1;stroke-opacity:1;" /><path d="M 292.11377 264.565 L 255.7725 264.9325" style="stroke:rgb(253,127,111);stroke-width:1" /><circle cx="255.7725" cy="264.9325" r="2" style="fill:rgb(253,127,111);stroke:none;fill-opacity:1;stroke-opacity:1;" /><path d="M 255.7725 264.9325 L 142.88626 265.8525" style="stroke:rgb(253,127,111);stroke-width:1" /><circle cx="142.88626" cy="265.8525" r="2" style="fill:rgb(253,127,111);stroke:none;fill-opacity:1;stroke-opacity:1;" /><path d="M 142.88626 265.8525 L 30 266.59" style="stroke:rgb(253,127,111);stroke-width:1" /><circle cx="30" cy="266.59" r="2" style="fill:rgb(253,127,111);stroke:none;fill-opacity:1;stroke-opacity:1;" /><circle cx="780" cy="258.305" r="2" style="fill:rgb(199,126,190);stroke:none;fill-opacity:1;stroke-opacity:1;" /><path d="M 780 258.305 L 630.77246 261.44" style="stroke:rgb(199,126,190);stroke-width:1" /><circle cx="630.77246" cy="261.44" r="2" style="fill:rgb(199,126,190);stroke:none;fill-opacity:1;stroke-opacity:1;" /><path d="M 630.77246 261.44 L 517.8862 263.02" style="stroke:rgb(199,126,190);stroke-width:1" /><circle cx="517.8862" cy="263.02" r="2" style="fill:rgb(199,126,190);stroke:none;fill-opacity:1;stroke-opacity:1;" /><path d="M 517.8862 263.02 L 451.85202 263.785" style="stroke:rgb(199,126,190);stroke-width:1" /><circle cx="451.85202" cy="263.785" r="2" style="fill:rgb(199,126,190);stroke:none;fill-opacity:1;stroke-opacity:1;" /><path d="M 451.85202 263.785 L 405 264.29" style="stroke:rgb(199,126,190);stroke-width:1" /><circle cx="405" cy="264.29" r="2" style="fill:rgb(199,126,190);stroke:none;fill-opacity:1;stroke-opacity:1;" /><path d="M 405 264.29 L 338.96576 264.9475" style="stroke:rgb(199,126,190);stroke-width:1" /><circle cx="338.96576" cy="264.9475" r="2" style="fill:rgb(199,126,190);stroke:none;fill-opacity:1;stroke-opacity:1;" /><path d="M 338.96576 264.9475 L 292.11377 265.36" style="stroke:rgb(199,126,190);stroke-width:1" /><circle cx="292.11377" cy="265.36" r="2" style="fill:rgb(199,126,190);stroke:none;fill-opacity:1;stroke-opacity:1;" /><path d="M 292.11377 265.36 L 255.7725 265.6725" style="stroke:rgb(199,126,190);stroke-width:1" /><circle cx="255.7725" cy="265.6725" r="2" style="fill:rgb(199,126,190);stroke:none;fill-opacity:1;stroke-opacity:1;" /><path d="M 255.7725 265.6725 L 142.88626 266.4" style="stroke:rgb(199,126,190);stroke-width:1" /><circle cx="142.88626" cy="266.4" r="2" style="fill:rgb(199,126,190);stroke:none;fill-opacity:1;stroke-opacity:1;" /><path d="M 142.88626 266.4 L 30 266.995" style="stroke:rgb(199,126,190);stroke-width:1" /><circle cx="30" cy="266.995" r="2" style="fill:rgb(199,126,190);stroke:none;fill-opacity:1;stroke-opacity:1;" /><circle cx="780" cy="20" r="2" style="fill:rgb(255,181,90);stroke:none;fill-opacity:1;stroke-opacity:1;" /><path d="M 780 20 L 630.77246 109.8875" style="stroke:rgb(255,181,90);stroke-width:1" /><circle cx="630.77246" cy="109.8875" r="2" style="fill:rgb(255,181,90);stroke:none;fill-opacity:1;stroke-opacity:1;" /><path d="M 630.77246 109.8875 L 517.8862 155.57251" style="stroke:rgb(255,181,90);stroke-width:1" /><circle cx="517.8862" cy="155.57251" r="2" style="fill:rgb(255,181,90);stroke:none;fill-opacity:1;stroke-opacity:1;" /><path d="M 517.8862 155.57251 L 451.85202 175.83" style="stroke:rgb(255,181,90);stroke-width:1" /><circle cx="451.85202" cy="175.83" r="2" style="fill:rgb(255,181,90);stroke:none;fill-opacity:1;stroke-opacity:1;" /><path d="M 451.85202 175.83 L 405 187.8725" style="stroke:rgb(255,181,90);stroke-width:1" /><circle cx="405" cy="187.8725" r="2" style="fill:rgb(255,181,90);stroke:none;fill-opacity:1;stroke-opacity:1;" /><path d="M 405 187.8725 L 338.96576 202.2825" style="stroke:rgb(255,181,90);stroke-width:1" /><circle cx="338.96576" cy="202.2825" r="2" style="fill:rgb(255,181,90);stroke:none;fill-opacity:1;stroke-opacity:1;" /><path d="M 338.96576 202.2825 L 292.11377 210.83499" style="stroke:rgb(255,181,90);stroke-width:1" /><circle cx="292.11377" cy="210.83499" r="2" style="fill:rgb(255,181,90);stroke:none;fill-opacity:1;stroke-opacity:1;" /><path d="M 292.11377 210.83499 L 255.7725 216.7125" style="stroke:rgb(255,181,90);stroke-width:1" /><circle cx="255.7725" cy="216.7125" r="2" style="fill:rgb(255,181,90);stroke:none;fill-opacity:1;stroke-opacity:1;" /><path d="M 255.7725 216.7125 L 142.88626 231.24" style="stroke:rgb(255,181,90);stroke-width:1" /><circle cx="142.88626" cy="231.24" r="2" style="fill:rgb(255,181,90);stroke:none;fill-opacity:1;stroke-opacity:1;" /><path d="M 142.88626 231.24 L 30 241.41501" style="stroke:rgb(255,181,90);stroke-width:1" /><circle cx="30" cy="241.41501" r="2" style="fill:rgb(255,181,90);stroke:none;fill-opacity:1;stroke-opacity:1;" /><circle cx="780" cy="156.88501" r="2" style="fill:rgb(255,238,101);stroke:none;fill-opacity:1;stroke-opacity:1;" /><path d="M 780 156.88501 L 630.77246 202.5975" style="stroke:rgb(255,238,101);stroke-width:1" /><circle cx="630.77246" cy="202.5975" r="2" style="fill:rgb(255,238,101);stroke:none;fill-opacity:1;stroke-opacity:1;" /><path d="M 630.77246 202.5975 L 517.8862 218.0775" style="stroke:rgb(255,238,101);stroke-width:1" /><circle cx="517.8862" cy="218.0775" r="2" style="fill:rgb(255,238,101);stroke:none;fill-opacity:1;stroke-opacity:1;" /><path d="M 517.8862 218.0775 L 451.85202 229.0625" style="stroke:rgb(255,238,101);stroke-width:1" /><circle cx="451.85202" cy="229.0625" r="2" style="fill:rgb(255,238,101);stroke:none;fill-opacity:1;stroke-opacity:1;" /><path d="M 451.85202 229.0625 L 405 236.1675" style="stroke:rgb(255,238,101);stroke-width:1" /><circle cx="405" cy="236.1675" r="2" style="fill:rgb(255,238,101);stroke:none;fill-opacity:1;stroke-opacity:1;" /><path d="M 405 236.1675 L 338.96576 240.9625" style="stroke:rgb(255,238,101);stroke-width:1" /><circle cx="338.96576" cy="240.9625" r="2" style="fill:rgb(255,238,101);stroke:none;fill-opacity:1;stroke-opacity:1;" /><path d="M 338.96576 240.9625 L 292.11377 244.02249" style="stroke:rgb(255,238,101);stroke-width:1" /><circle cx="292.11377" cy="244.02249" r="2" style="fill:rgb(255,238,101);stroke:none;fill-opacity:1;stroke-opacity:1;" /><path d="M 292.11377 244.02249 L 255.7725 246.95" style="stroke:rgb(255,238,101);stroke-width:1" /><circle cx="255.7725" cy="246.95" r="2" style="fill:rgb(255,238,101);stroke:none;fill-opacity:1;stroke-opacity:1;" /><path d="M 255.7725 246.95 L 142.88626 254.86" style="stroke:rgb(255,238,101);stroke-width:1" /><circle cx="142.88626" cy="254.86" r="2" style="fill:rgb(255,238,101);stroke:none;fill-opacity:1;stroke-opacity:1;" /><path d="M 142.88626 254.86 L 30 258.66" style="stroke:rgb(255,238,101);stroke-width:1" /><circle cx="30" cy="258.66" r="2" style="fill:rgb(255,238,101);stroke:none;fill-opacity:1;stroke-opacity:1;" /><circle cx="780" cy="245.87" r="2" style="fill:rgb(119,211,179);stroke:none;fill-opacity:1;stroke-opacity:1;" /><path d="M 780 245.87 L 630.77246 252.29001" style="stroke:rgb(119,211,179);stroke-width:1" /><circle cx="630.77246" cy="252.29001" r="2" style="fill:rgb(119,211,179);stroke:none;fill-opacity:1;stroke-opacity:1;" /><path d="M 630.77246 252.29001 L 517.8862 255.5775" style="stroke:rgb(119,211,179);stroke-width:1" /><circle cx="517.8862" cy="255.5775" r="2" style="fill:rgb(119,211,179);stroke:none;fill-opacity:1;stroke-opacity:1;" /><path d="M 517.8862 255.5775 L 451.85202 257.2775" style="stroke:rgb(119,211,179);stroke-width:1" /><circle cx="451.85202" cy="257.2775" r="2" style="fill:rgb(119,211,179);stroke:none;fill-opacity:1;stroke-opacity:1;" /><path d="M 451.85202 257.2775 L 405 258.3625" style="stroke:rgb(119,211,179);stroke-width:1" /><circle cx="405" cy="258.3625" r="2" style="fill:rgb(119,211,179);stroke:none;fill-opacity:1;stroke-opacity:1;" /><path d="M 405 258.3625 L 338.96576 259.6775" style="stroke:rgb(119,211,179);stroke-width:1" /><circle cx="338.96576" cy="259.6775" r="2" style="fill:rgb(119,211,179);stroke:none;fill-opacity:1;stroke-opacity:1;" /><path d="M 338.96576 259.6775 L 292.11377 260.5325" style="stroke:rgb(119,211,179);stroke-width:1" /><circle cx="292.11377" cy="260.5325" r="2" style="fill:rgb(119,211,179);stroke:none;fill-opacity:1;stroke-opacity:1;" /><path d="M 292.11377 260.5325 L 255.7725 261.155" style="stroke:rgb(119,211,179);stroke-width:1" /><circle cx="255.7725" cy="261.155" r="2" style="fill:rgb(119,211,179);stroke:none;fill-opacity:1;stroke-opacity:1;" /><path d="M 255.7725 261.155 L 142.88626 262.9225" style="stroke:rgb(119,211,179);stroke-width:1" /><circle cx="142.88626" cy="262.9225" r="2" style="fill:rgb(119,211,179);stroke:none;fill-opacity:1;stroke-opacity:1;" /><path d="M 142.88626 262.9225 L 30 264.1" style="stroke:rgb(119,211,179);stroke-width:1" /><circle cx="30" cy="264.1" r="2" style="fill:rgb(119,211,179);stroke:none;fill-opacity:1;stroke-opacity:1;" /><circle cx="780" cy="214.755" r="2" style="fill:rgb(50,125,209);stroke:none;fill-opacity:1;stroke-opacity:1;" /><path d="M 780 214.755 L 630.77246 229.795" style="stroke:rgb(50,125,209);stroke-width:1" /><circle cx="630.77246" cy="229.795" r="2" style="fill:rgb(50,125,209);stroke:none;fill-opacity:1;stroke-opacity:1;" /><path d="M 630.77246 229.795 L 517.8862 237.37" style="stroke:rgb(50,125,209);stroke-width:1" /><circle cx="517.8862" cy="237.37" r="2" style="fill:rgb(50,125,209);stroke:none;fill-opacity:1;stroke-opacity:1;" /><path d="M 517.8862 237.37 L 451.85202 240.8275" style="stroke:rgb(50,125,209);stroke-width:1" /><circle cx="451.85202" cy="240.8275" r="2" style="fill:rgb(50,125,209);stroke:none;fill-opacity:1;stroke-opacity:1;" /><path d="M 451.85202 240.8275 L 405 243.1" style="stroke:rgb(50,125,209);stroke-width:1" /><circle cx="405" cy="243.1" r="2" style="fill:rgb(50,125,209);stroke:none;fill-opacity:1;stroke-opacity:1;" /><path d="M 405 243.1 L 338.96576 245.66" style="stroke:rgb(50,125,209);stroke-width:1" /><circle cx="338.96576" cy="245.66" r="2" style="fill:rgb(50,125,209);stroke:none;fill-opacity:1;stroke-opacity:1;" /><path d="M 338.96576 245.66 L 292.11377 247.28" style="stroke:rgb(50,125,209);stroke-width:1" /><circle cx="292.11377" cy="247.28" r="2" style="fill:rgb(50,125,209);stroke:none;fill-opacity:1;stroke-opacity:1;" /><path d="M 292.11377 247.28 L 255.7725 248.445" style="stroke:rgb(50,125,209);stroke-width:1" /><circle cx="255.7725" cy="248.445" r="2" style="fill:rgb(50,125,209);stroke:none;fill-opacity:1;stroke-opacity:1;" /><path d="M 255.7725 248.445 L 142.88626 251.2125" style="stroke:rgb(50,125,209);stroke-width:1" /><circle cx="142.88626" cy="251.2125" r="2" style="fill:rgb(50,125,209);stroke:none;fill-opacity:1;stroke-opacity:1;" /><path d="M 142.88626 251.2125 L 30 253.4675" style="stroke:rgb(50,125,209);stroke-width:1" /><circle cx="30" cy="253.4675" r="2" style="fill:rgb(50,125,209);stroke:none;fill-opacity:1;stroke-opacity:1;" /><circle cx="780" cy="253.225" r="2" style="fill:rgb(253,204,229);stroke:none;fill-opacity:1;stroke-opacity:1;" /><path d="M 780 253.225 L 630.77246 258.33" style="stroke:rgb(253,204,229);stroke-width:1" /><circle cx="630.77246" cy="258.33" r="2" style="fill:rgb(253,204,229);stroke:none;fill-opacity:1;stroke-opacity:1;" /><path d="M 630.77246 258.33 L 517.8862 260.87" style="stroke:rgb(253,204,229);stroke-width:1" /><circle cx="517.8862" cy="260.87" r="2" style="fill:rgb(253,204,229);stroke:none;fill-opacity:1;stroke-opacity:1;" /><path d="M 517.8862 260.87 L 451.85202 262.035" style="stroke:rgb(253,204,229);stroke-width:1" /><circle cx="451.85202" cy="262.035" r="2" style="fill:rgb(253,204,229);stroke:none;fill-opacity:1;stroke-opacity:1;" /><path d="M 451.85202 262.035 L 405 262.75" style="stroke:rgb(253,204,229);stroke-width:1" /><circle cx="405" cy="262.75" r="2" style="fill:rgb(253,204,229);stroke:none;fill-opacity:1;stroke-opacity:1;" /><path d="M 405 262.75 L 338.96576 263.655" style="stroke:rgb(253,204,229);stroke-width:1" /><circle cx="338.96576" cy="263.655" r="2" style="fill:rgb(253,204,229);stroke:none;fill-opacity:1;stroke-opacity:1;" /><path d="M 338.96576 263.655 L 292.11377 264.2375" style="stroke:rgb(253,204,229);stroke-width:1" /><circle cx="292.11377" cy="264.2375" r="2" style="fill:rgb(253,204,229);stroke:none;fill-opacity:1;stroke-opacity:1;" /><path d="M 292.11377 264.2375 L 255.7725 264.655" style="stroke:rgb(253,204,229);stroke-width:1" /><circle cx="255.7725" cy="264.655" r="2" style="fill:rgb(253,204,229);stroke:none;fill-opacity:1;stroke-opacity:1;" /><path d="M 255.7725 264.655 L 142.88626 265.7075" style="stroke:rgb(253,204,229);stroke-width:1" /><circle cx="142.88626" cy="265.7075" r="2" style="fill:rgb(253,204,229);stroke:none;fill-opacity:1;stroke-opacity:1;" /><path d="M 142.88626 265.7075 L 30 266.5125" style="stroke:rgb(253,204,229);stroke-width:1" /><circle cx="30" cy="266.5125" r="2" style="fill:rgb(253,204,229);stroke:none;fill-opacity:1;stroke-opacity:1;" /><rect x="676" y="16" width="80" height="196" ry="4" style="fill:rgb(30,30,30);stroke:none;fill-opacity:0.8;stroke-opacity:1;" /><rect x="680" y="20" width="20" height="20" ry="2" style="fill:rgb(253,127,111);stroke:none;fill-opacity:1;stroke-opacity:1;" /><text x="705" y="33" style="font-size:10px;fill:rgb(255,255,255);text-anchor:start;text-align:left;"> fwd-diff </text><rect x="680" y="41" width="20" height="20" ry="2" style="fill:rgb(255,181,90);stroke:none;fill-opacity:1;stroke-opacity:1;" /><text x="705" y="54" style="font-size:10px;fill:rgb(255,255,255);text-anchor:start;text-align:left;"> hain </text><rect x="680" y="62" width="20" height="20" ry="2" style="fill:rgb(50,125,209);stroke:none;fill-opacity:1;stroke-opacity:1;" /><text x="705" y="75" style="font-size:10px;fill:rgb(255,255,255);text-anchor:start;text-align:left;"> levien </text><rect x="680" y="83" width="20" height="20" ry="2" style="fill:rgb(119,211,179);stroke:none;fill-opacity:1;stroke-opacity:1;" /><text x="705" y="96" style="font-size:10px;fill:rgb(255,255,255);text-anchor:start;text-align:left;"> levien-linear </text><rect x="680" y="104" width="20" height="20" ry="2" style="fill:rgb(126,176,213);stroke:none;fill-opacity:1;stroke-opacity:1;" /><text x="705" y="117" style="font-size:10px;fill:rgb(255,255,255);text-anchor:start;text-align:left;"> levien-simd </text><rect x="680" y="125" width="20" height="20" ry="2" style="fill:rgb(128,214,87);stroke:none;fill-opacity:1;stroke-opacity:1;" /><text x="705" y="138" style="font-size:10px;fill:rgb(255,255,255);text-anchor:start;text-align:left;"> linear </text><rect x="680" y="146" width="20" height="20" ry="2" style="fill:rgb(255,238,101);stroke:none;fill-opacity:1;stroke-opacity:1;" /><text x="705" y="159" style="font-size:10px;fill:rgb(255,255,255);text-anchor:start;text-align:left;"> recursive </text><rect x="680" y="167" width="20" height="20" ry="2" style="fill:rgb(253,204,229);stroke:none;fill-opacity:1;stroke-opacity:1;" /><text x="705" y="180" style="font-size:10px;fill:rgb(255,255,255);text-anchor:start;text-align:left;"> wang </text><rect x="680" y="188" width="20" height="20" ry="2" style="fill:rgb(199,126,190);stroke:none;fill-opacity:1;stroke-opacity:1;" /><text x="705" y="201" style="font-size:10px;fill:rgb(255,255,255);text-anchor:start;text-align:left;"> wang-simd </text><text x="400" y="30" style="font-size:20px;fill:rgb(255,255,255);text-anchor:middle;text-align:center;"> tiger dataset: quadratic </text><text x="400" y="42" style="font-size:8px;fill:rgb(200,200,200);text-anchor:middle;text-align:center;"> Normalized performance score (lower is better) </text></svg>