<svg xmlns="http://www.w3.org/2000/svg" viewBox="0 0 800 300"><rect x="0" y="0" width="800" height="300" ry="6" style="fill:rgb(30,30,30);stroke:none;fill-opacity:1;stroke-opacity:1;" /><path d="M 30 20 L 30 270" style="stroke:rgb(200,200,200);stroke-width:1" /><path d="M 30 270 L 780 270" style="stroke:rgb(200,200,200);stroke-width:1" /><path d="M 780 270 L 780 272" style="stroke:rgb(200,200,200);stroke-width:1" /><text x="780" y="282" style="font-size:10px;fill:rgb(200,200,200);text-anchor:middle;text-align:center;"> 0.01 </text><path d="M 630.77246 270 L 630.77246 272" style="stroke:rgb(200,200,200);stroke-width:1" /><text x="630.77246" y="282" style="font-size:10px;fill:rgb(200,200,200);text-anchor:middle;text-align:center;"> 0.025 </text><path d="M 517.8862 270 L 517.8862 272" style="stroke:rgb(200,200,200);stroke-width:1" /><text x="517.8862" y="282" style="font-size:10px;fill:rgb(200,200,200);text-anchor:middle;text-align:center;"> 0.05 </text><path d="M 451.85202 270 L 451.85202 272" style="stroke:rgb(200,200,200);stroke-width:1" /><text x="451.85202" y="282" style="font-size:10px;fill:rgb(200,200,200);text-anchor:middle;text-align:center;"> 0.075 </text><path d="M 405 270 L 405 272" style="stroke:rgb(200,200,200);stroke-width:1" /><text x="405" y="282" style="font-size:10px;fill:rgb(200,200,200);text-anchor:middle;text-align:center;"> 0.1 </text><path d="M 338.96576 270 L 338.96576 272" style="stroke:rgb(200,200,200);stroke-width:1" /><text x="338.96576" y="282" style="font-size:10px;fill:rgb(200,200,200);text-anchor:middle;text-align:center;"> 0.15 </text><path d="M 292.11377 270 L 292.11377 272" style="stroke:rgb(200,200,200);stroke-width:1" /><text x="292.11377" y="282" style="font-size:10px;fill:rgb(200,200,200);text-anchor:middle;text-align:center;"> 0.2 </text><path d="M 255.7725 270 L 255.7725 272" style="stroke:rgb(200,200,200);stroke-width:1" /><text x="255.7725" y="282" style="font-size:10px;fill:rgb(200,200,200);text-anchor:middle;text-align:center;"> 0.25 </text><path d="M 142.88626 270 L 142.88626 272" style="stroke:rgb(200,200,200);stroke-width:1" /><text x="142.88626" y="282" style="font-size:10px;fill:rgb(200,200,200);text-anchor:middle;text-align:center;"> 0.5 </text><path d="M 30 270 L 30 272" style="stroke:rgb(200,200,200);stroke-width:1" /><text x="30" y="282" style="font-size:10px;fill:rgb(200,200,200);text-anchor:middle;text-align:center;"> 1 </text><path d="M 28 270 L 30 270" style="stroke:rgb(200,200,200);stroke-width:1" /><text x="26" y="274" style="font-size:10px;fill:rgb(200,200,200);text-anchor:end;text-align:right;"> 0 </text><path d="M 28 207.5 L 30 207.5" style="stroke:rgb(200,200,200);stroke-width:1" /><text x="26" y="211.5" style="font-size:10px;fill:rgb(200,200,200);text-anchor:end;text-align:right;"> 0.25 </text><path d="M 28 145 L 30 145" style="stroke:rgb(200,200,200);stroke-width:1" /><text x="26" y="149" style="font-size:10px;fill:rgb(200,200,200);text-anchor:end;text-align:right;"> 0.5 </text><path d="M 28 82.5 L 30 82.5" style="stroke:rgb(200,200,200);stroke-width:1" /><text x="26" y="86.5" style="font-size:10px;fill:rgb(200,200,200);text-anchor:end;text-align:right;"> 0.75 </text><path d="M 28 20 L 30 20" style="stroke:rgb(200,200,200);stroke-width:1" /><text x="26" y="24" style="font-size:10px;fill:rgb(200,200,200);text-anchor:end;text-align:right;"> 1 </text><text x="400" y="294" style="font-size:10px;fill:rgb(200,200,200);text-anchor:middle;text-align:center;"> Tolerance </text><circle cx="780" cy="195.9525" r="2" style="fill:rgb(253,204,229);stroke:none;fill-opacity:1;stroke-opacity:1;" /><path d="M 780 195.9525 L 630.77246 209.3025" style="stroke:rgb(253,204,229);stroke-width:1" /><circle cx="630.77246" cy="209.3025" r="2" style="fill:rgb(253,204,229);stroke:none;fill-opacity:1;stroke-opacity:1;" /><path d="M 630.77246 209.3025 L 517.8862 218.3125" style="stroke:rgb(253,204,229);stroke-width:1" /><circle cx="517.8862" cy="218.3125" r="2" style="fill:rgb(253,204,229);stroke:none;fill-opacity:1;stroke-opacity:1;" /><path d="M 517.8862 218.3125 L 451.85202 222.9525" style="stroke:rgb(253,204,229);stroke-width:1" /><circle cx="451.85202" cy="222.9525" r="2" style="fill:rgb(253,204,229);stroke:none;fill-opacity:1;stroke-opacity:1;" /><path d="M 451.85202 222.9525 L 405 226.4375" style="stroke:rgb(253,204,229);stroke-width:1" /><circle cx="405" cy="226.4375" r="2" style="fill:rgb(253,204,229);stroke:none;fill-opacity:1;stroke-opacity:1;" /><path d="M 405 226.4375 L 338.96576 231.105" style="stroke:rgb(253,204,229);stroke-width:1" /><circle cx="338.96576" cy="231.105" r="2" style="fill:rgb(253,204,229);stroke:none;fill-opacity:1;stroke-opacity:1;" /><path d="M 338.96576 231.105 L 292.11377 232.1075" style="stroke:rgb(253,204,229);stroke-width:1" /><circle cx="292.11377" cy="232.1075" r="2" style="fill:rgb(253,204,229);stroke:none;fill-opacity:1;stroke-opacity:1;" /><path d="M 292.11377 232.1075 L 255.7725 232.8275" style="stroke:rgb(253,204,229);stroke-width:1" /><circle cx="255.7725" cy="232.8275" r="2" style="fill:rgb(253,204,229);stroke:none;fill-opacity:1;stroke-opacity:1;" /><path d="M 255.7725 232.8275 L 142.88626 234.5275" style="stroke:rgb(253,204,229);stroke-width:1" /><circle cx="142.88626" cy="234.5275" r="2" style="fill:rgb(253,204,229);stroke:none;fill-opacity:1;stroke-opacity:1;" /><path d="M 142.88626 234.5275 L 30 234.7925" style="stroke:rgb(253,204,229);stroke-width:1" /><circle cx="30" cy="234.7925" r="2" style="fill:rgb(253,204,229);stroke:none;fill-opacity:1;stroke-opacity:1;" /><circle cx="780" cy="20" r="2" style="fill:rgb(50,125,209);stroke:none;fill-opacity:1;stroke-opacity:1;" /><path d="M 780 20 L 630.77246 65.4025" style="stroke:rgb(50,125,209);stroke-width:1" /><circle cx="630.77246" cy="65.4025" r="2" style="fill:rgb(50,125,209);stroke:none;fill-opacity:1;stroke-opacity:1;" /><path d="M 630.77246 65.4025 L 517.8862 86.740005" style="stroke:rgb(50,125,209);stroke-width:1" /><circle cx="517.8862" cy="86.740005" r="2" style="fill:rgb(50,125,209);stroke:none;fill-opacity:1;stroke-opacity:1;" /><path d="M 517.8862 86.740005 L 451.85202 95.149994" style="stroke:rgb(50,125,209);stroke-width:1" /><circle cx="451.85202" cy="95.149994" r="2" style="fill:rgb(50,125,209);stroke:none;fill-opacity:1;stroke-opacity:1;" /><path d="M 451.85202 95.149994 L 405 101.2525" style="stroke:rgb(50,125,209);stroke-width:1" /><circle cx="405" cy="101.2525" r="2" style="fill:rgb(50,125,209);stroke:none;fill-opacity:1;stroke-opacity:1;" /><path d="M 405 101.2525 L 338.96576 104.524994" style="stroke:rgb(50,125,209);stroke-width:1" /><circle cx="338.96576" cy="104.524994" r="2" style="fill:rgb(50,125,209);stroke:none;fill-opacity:1;stroke-opacity:1;" /><path d="M 338.96576 104.524994 L 292.11377 105.1525" style="stroke:rgb(50,125,209);stroke-width:1" /><circle cx="292.11377" cy="105.1525" r="2" style="fill:rgb(50,125,209);stroke:none;fill-opacity:1;stroke-opacity:1;" /><path d="M 292.11377 105.1525 L 255.7725 106.8575" style="stroke:rgb(50,125,209);stroke-width:1" /><circle cx="255.7725" cy="106.8575" r="2" style="fill:rgb(50,125,209);stroke:none;fill-opacity:1;stroke-opacity:1;" /><path d="M 255.7725 106.8575 L 142.88626 109.3275" style="stroke:rgb(50,125,209);stroke-width:1" /><circle cx="142.88626" cy="109.3275" r="2" style="fill:rgb(50,125,209);stroke:none;fill-opacity:1;stroke-opacity:1;" /><path d="M 142.88626 109.3275 L 30 109.542496" style="stroke:rgb(50,125,209);stroke-width:1" /><circle cx="30" cy="109.542496" r="2" style="fill:rgb(50,125,209);stroke:none;fill-opacity:1;stroke-opacity:1;" /><circle cx="780" cy="195.1575" r="2" style="fill:rgb(253,127,111);stroke:none;fill-opacity:1;stroke-opacity:1;" /><path d="M 780 195.1575 L 630.77246 207.4575" style="stroke:rgb(253,127,111);stroke-width:1" /><circle cx="630.77246" cy="207.4575" r="2" style="fill:rgb(253,127,111);stroke:none;fill-opacity:1;stroke-opacity:1;" /><path d="M 630.77246 207.4575 L 517.8862 218.33" style="stroke:rgb(253,127,111);stroke-width:1" /><circle cx="517.8862" cy="218.33" r="2" style="fill:rgb(253,127,111);stroke:none;fill-opacity:1;stroke-opacity:1;" /><path d="M 517.8862 218.33 L 451.85202 223.2425" style="stroke:rgb(253,127,111);stroke-width:1" /><circle cx="451.85202" cy="223.2425" r="2" style="fill:rgb(253,127,111);stroke:none;fill-opacity:1;stroke-opacity:1;" /><path d="M 451.85202 223.2425 L 405 226.935" style="stroke:rgb(253,127,111);stroke-width:1" /><circle cx="405" cy="226.935" r="2" style="fill:rgb(253,127,111);stroke:none;fill-opacity:1;stroke-opacity:1;" /><path d="M 405 226.935 L 338.96576 231.9475" style="stroke:rgb(253,127,111);stroke-width:1" /><circle cx="338.96576" cy="231.9475" r="2" style="fill:rgb(253,127,111);stroke:none;fill-opacity:1;stroke-opacity:1;" /><path d="M 338.96576 231.9475 L 292.11377 232.995" style="stroke:rgb(253,127,111);stroke-width:1" /><circle cx="292.11377" cy="232.995" r="2" style="fill:rgb(253,127,111);stroke:none;fill-opacity:1;stroke-opacity:1;" /><path d="M 292.11377 232.995 L 255.7725 233.6575" style="stroke:rgb(253,127,111);stroke-width:1" /><circle cx="255.7725" cy="233.6575" r="2" style="fill:rgb(253,127,111);stroke:none;fill-opacity:1;stroke-opacity:1;" /><path d="M 255.7725 233.6575 L 142.88626 235.4525" style="stroke:rgb(253,127,111);stroke-width:1" /><circle cx="142.88626" cy="235.4525" r="2" style="fill:rgb(253,127,111);stroke:none;fill-opacity:1;stroke-opacity:1;" /><path d="M 142.88626 235.4525 L 30 235.85" style="stroke:rgb(253,127,111);stroke-width:1" /><circle cx="30" cy="235.85" r="2" style="fill:rgb(253,127,111);stroke:none;fill-opacity:1;stroke-opacity:1;" /><circle cx="780" cy="119.175" r="2" style="fill:rgb(126,176,213);stroke:none;fill-opacity:1;stroke-opacity:1;" /><path d="M 780 119.175 L 630.77246 145.4525" style="stroke:rgb(126,176,213);stroke-width:1" /><circle cx="630.77246" cy="145.4525" r="2" style="fill:rgb(126,176,213);stroke:none;fill-opacity:1;stroke-opacity:1;" /><path d="M 630.77246 145.4525 L 517.8862 162.58499" style="stroke:rgb(126,176,213);stroke-width:1" /><circle cx="517.8862" cy="162.58499" r="2" style="fill:rgb(126,176,213);stroke:none;fill-opacity:1;stroke-opacity:1;" /><path d="M 517.8862 162.58499 L 451.85202 172.2175" style="stroke:rgb(126,176,213);stroke-width:1" /><circle cx="451.85202" cy="172.2175" r="2" style="fill:rgb(126,176,213);stroke:none;fill-opacity:1;stroke-opacity:1;" /><path d="M 451.85202 172.2175 L 405 175.66501" style="stroke:rgb(126,176,213);stroke-width:1" /><circle cx="405" cy="175.66501" r="2" style="fill:rgb(126,176,213);stroke:none;fill-opacity:1;stroke-opacity:1;" /><path d="M 405 175.66501 L 338.96576 179.015" style="stroke:rgb(126,176,213);stroke-width:1" /><circle cx="338.96576" cy="179.015" r="2" style="fill:rgb(126,176,213);stroke:none;fill-opacity:1;stroke-opacity:1;" /><path d="M 338.96576 179.015 L 292.11377 179.42" style="stroke:rgb(126,176,213);stroke-width:1" /><circle cx="292.11377" cy="179.42" r="2" style="fill:rgb(126,176,213);stroke:none;fill-opacity:1;stroke-opacity:1;" /><path d="M 292.11377 179.42 L 255.7725 180.94" style="stroke:rgb(126,176,213);stroke-width:1" /><circle cx="255.7725" cy="180.94" r="2" style="fill:rgb(126,176,213);stroke:none;fill-opacity:1;stroke-opacity:1;" /><path d="M 255.7725 180.94 L 142.88626 182.5575" style="stroke:rgb(126,176,213);stroke-width:1" /><circle cx="142.88626" cy="182.5575" r="2" style="fill:rgb(126,176,213);stroke:none;fill-opacity:1;stroke-opacity:1;" /><path d="M 142.88626 182.5575 L 30 183.3625" style="stroke:rgb(126,176,213);stroke-width:1" /><circle cx="30" cy="183.3625" r="2" style="fill:rgb(126,176,213);stroke:none;fill-opacity:1;stroke-opacity:1;" /><circle cx="780" cy="191.1225" r="2" style="fill:rgb(128,214,87);stroke:none;fill-opacity:1;stroke-opacity:1;" /><path d="M 780 191.1225 L 630.77246 225.76" style="stroke:rgb(128,214,87);stroke-width:1" /><circle cx="630.77246" cy="225.76" r="2" style="fill:rgb(128,214,87);stroke:none;fill-opacity:1;stroke-opacity:1;" /><path d="M 630.77246 225.76 L 517.8862 238.79001" style="stroke:rgb(128,214,87);stroke-width:1" /><circle cx="517.8862" cy="238.79001" r="2" style="fill:rgb(128,214,87);stroke:none;fill-opacity:1;stroke-opacity:1;" /><path d="M 517.8862 238.79001 L 451.85202 244.7525" style="stroke:rgb(128,214,87);stroke-width:1" /><circle cx="451.85202" cy="244.7525" r="2" style="fill:rgb(128,214,87);stroke:none;fill-opacity:1;stroke-opacity:1;" /><path d="M 451.85202 244.7525 L 405 247.79001" style="stroke:rgb(128,214,87);stroke-width:1" /><circle cx="405" cy="247.79001" r="2" style="fill:rgb(128,214,87);stroke:none;fill-opacity:1;stroke-opacity:1;" /><path d="M 405 247.79001 L 338.96576 249.7375" style="stroke:rgb(128,214,87);stroke-width:1" /><circle cx="338.96576" cy="249.7375" r="2" style="fill:rgb(128,214,87);stroke:none;fill-opacity:1;stroke-opacity:1;" /><path d="M 338.96576 249.7375 L 292.11377 250.25" style="stroke:rgb(128,214,87);stroke-width:1" /><circle cx="292.11377" cy="250.25" r="2" style="fill:rgb(128,214,87);stroke:none;fill-opacity:1;stroke-opacity:1;" /><path d="M 292.11377 250.25 L 255.7725 250.9325" style="stroke:rgb(128,214,87);stroke-width:1" /><circle cx="255.7725" cy="250.9325" r="2" style="fill:rgb(128,214,87);stroke:none;fill-opacity:1;stroke-opacity:1;" /><path d="M 255.7725 250.9325 L 142.88626 251.7025" style="stroke:rgb(128,214,87);stroke-width:1" /><circle cx="142.88626" cy="251.7025" r="2" style="fill:rgb(128,214,87);stroke:none;fill-opacity:1;stroke-opacity:1;" /><path d="M 142.88626 251.7025 L 30 252.2575" style="stroke:rgb(128,214,87);stroke-width:1" /><circle cx="30" cy="252.2575" r="2" style="fill:rgb(128,214,87);stroke:none;fill-opacity:1;stroke-opacity:1;" /><circle cx="780" cy="163.88501" r="2" style="fill:rgb(255,238,101);stroke:none;fill-opacity:1;stroke-opacity:1;" /><path d="M 780 163.88501 L 630.77246 210.9275" style="stroke:rgb(255,238,101);stroke-width:1" /><circle cx="630.77246" cy="210.9275" r="2" style="fill:rgb(255,238,101);stroke:none;fill-opacity:1;stroke-opacity:1;" /><path d="M 630.77246 210.9275 L 517.8862 229.04001" style="stroke:rgb(255,238,101);stroke-width:1" /><circle cx="517.8862" cy="229.04001" r="2" style="fill:rgb(255,238,101);stroke:none;fill-opacity:1;stroke-opacity:1;" /><path d="M 517.8862 229.04001 L 451.85202 237.7" style="stroke:rgb(255,238,101);stroke-width:1" /><circle cx="451.85202" cy="237.7" r="2" style="fill:rgb(255,238,101);stroke:none;fill-opacity:1;stroke-opacity:1;" /><path d="M 451.85202 237.7 L 405 241.8675" style="stroke:rgb(255,238,101);stroke-width:1" /><circle cx="405" cy="241.8675" r="2" style="fill:rgb(255,238,101);stroke:none;fill-opacity:1;stroke-opacity:1;" /><path d="M 405 241.8675 L 338.96576 244.3925" style="stroke:rgb(255,238,101);stroke-width:1" /><circle cx="338.96576" cy="244.3925" r="2" style="fill:rgb(255,238,101);stroke:none;fill-opacity:1;stroke-opacity:1;" /><path d="M 338.96576 244.3925 L 292.11377 245.22751" style="stroke:rgb(255,238,101);stroke-width:1" /><circle cx="292.11377" cy="245.22751" r="2" style="fill:rgb(255,238,101);stroke:none;fill-opacity:1;stroke-opacity:1;" /><path d="M 292.11377 245.22751 L 255.7725 246.13" style="stroke:rgb(255,238,101);stroke-width:1" /><circle cx="255.7725" cy="246.13" r="2" style="fill:rgb(255,238,101);stroke:none;fill-opacity:1;stroke-opacity:1;" /><path d="M 255.7725 246.13 L 142.88626 247.865" style="stroke:rgb(255,238,101);stroke-width:1" /><circle cx="142.88626" cy="247.865" r="2" style="fill:rgb(255,238,101);stroke:none;fill-opacity:1;stroke-opacity:1;" /><path d="M 142.88626 247.865 L 30 248.07" style="stroke:rgb(255,238,101);stroke-width:1" /><circle cx="30" cy="248.07" r="2" style="fill:rgb(255,238,101);stroke:none;fill-opacity:1;stroke-opacity:1;" /><rect x="676" y="16" width="80" height="133" ry="4" style="fill:rgb(30,30,30);stroke:none;fill-opacity:0.8;stroke-opacity:1;" /><rect x="680" y="20" width="20" height="20" ry="2" style="fill:rgb(253,127,111);stroke:none;fill-opacity:1;stroke-opacity:1;" /><text x="705" y="33" style="font-size:10px;fill:rgb(255,255,255);text-anchor:start;text-align:left;"> fwd-diff </text><rect x="680" y="41" width="20" height="20" ry="2" style="fill:rgb(50,125,209);stroke:none;fill-opacity:1;stroke-opacity:1;" /><text x="705" y="54" style="font-size:10px;fill:rgb(255,255,255);text-anchor:start;text-align:left;"> levien </text><rect x="680" y="62" width="20" height="20" ry="2" style="fill:rgb(126,176,213);stroke:none;fill-opacity:1;stroke-opacity:1;" /><text x="705" y="75" style="font-size:10px;fill:rgb(255,255,255);text-anchor:start;text-align:left;"> levien-simd </text><rect x="680" y="83" width="20" height="20" ry="2" style="fill:rgb(128,214,87);stroke:none;fill-opacity:1;stroke-opacity:1;" /><text x="705" y="96" style="font-size:10px;fill:rgb(255,255,255);text-anchor:start;text-align:left;"> linear </text><rect x="680" y="104" width="20" height="20" ry="2" style="fill:rgb(255,238,101);stroke:none;fill-opacity:1;stroke-opacity:1;" /><text x="705" y="117" style="font-size:10px;fill:rgb(255,255,255);text-anchor:start;text-align:left;"> recursive </text><rect x="680" y="125" width="20" height="20" ry="2" style="fill:rgb(253,204,229);stroke:none;fill-opacity:1;stroke-opacity:1;" /><text x="705" y="138" style="font-size:10px;fill:rgb(255,255,255);text-anchor:start;text-align:left;"> wang </text><text x="400" y="30" style="font-size:20px;fill:rgb(255,255,255);text-anchor:middle;text-align:center;"> font dataset: quadratic </text><text x="400" y="42" style="font-size:8px;fill:rgb(200,200,200);text-anchor:middle;text-align:center;"> Normalized performance score (lower is better) </text></svg>