<svg xmlns="http://www.w3.org/2000/svg" viewBox="0 0 800 300"><rect x="0" y="0" width="800" height="300" ry="6" style="fill:rgb(30,30,30);stroke:none;fill-opacity:1;stroke-opacity:1;" /><path d="M 30 20 L 30 270" style="stroke:rgb(200,200,200);stroke-width:1" /><path d="M 30 270 L 780 270" style="stroke:rgb(200,200,200);stroke-width:1" /><path d="M 780 270 L 780 272" style="stroke:rgb(200,200,200);stroke-width:1" /><text x="780" y="282" style="font-size:10px;fill:rgb(200,200,200);text-anchor:middle;text-align:center;"> 0.01 </text><path d="M 630.77246 270 L 630.77246 272" style="stroke:rgb(200,200,200);stroke-width:1" /><text x="630.77246" y="282" style="font-size:10px;fill:rgb(200,200,200);text-anchor:middle;text-align:center;"> 0.025 </text><path d="M 517.8862 270 L 517.8862 272" style="stroke:rgb(200,200,200);stroke-width:1" /><text x="517.8862" y="282" style="font-size:10px;fill:rgb(200,200,200);text-anchor:middle;text-align:center;"> 0.05 </text><path d="M 451.85202 270 L 451.85202 272" style="stroke:rgb(200,200,200);stroke-width:1" /><text x="451.85202" y="282" style="font-size:10px;fill:rgb(200,200,200);text-anchor:middle;text-align:center;"> 0.075 </text><path d="M 405 270 L 405 272" style="stroke:rgb(200,200,200);stroke-width:1" /><text x="405" y="282" style="font-size:10px;fill:rgb(200,200,200);text-anchor:middle;text-align:center;"> 0.1 </text><path d="M 338.96576 270 L 338.96576 272" style="stroke:rgb(200,200,200);stroke-width:1" /><text x="338.96576" y="282" style="font-size:10px;fill:rgb(200,200,200);text-anchor:middle;text-align:center;"> 0.15 </text><path d="M 292.11377 270 L 292.11377 272" style="stroke:rgb(200,200,200);stroke-width:1" /><text x="292.11377" y="282" style="font-size:10px;fill:rgb(200,200,200);text-anchor:middle;text-align:center;"> 0.2 </text><path d="M 255.7725 270 L 255.7725 272" style="stroke:rgb(200,200,200);stroke-width:1" /><text x="255.7725" y="282" style="font-size:10px;fill:rgb(200,200,200);text-anchor:middle;text-align:center;"> 0.25 </text><path d="M 142.88626 270 L 142.88626 272" style="stroke:rgb(200,200,200);stroke-width:1" /><text x="142.88626" y="282" style="font-size:10px;fill:rgb(200,200,200);text-anchor:middle;text-align:center;"> 0.5 </text><path d="M 30 270 L 30 272" style="stroke:rgb(200,200,200);stroke-width:1" /><text x="30" y="282" style="font-size:10px;fill:rgb(200,200,200);text-anchor:middle;text-align:center;"> 1 </text><path d="M 28 270 L 30 270" style="stroke:rgb(200,200,200);stroke-width:1" /><text x="26" y="274" style="font-size:10px;fill:rgb(200,200,200);text-anchor:end;text-align:right;"> 0 </text><path d="M 28 207.5 L 30 207.5" style="stroke:rgb(200,200,200);stroke-width:1" /><text x="26" y="211.5" style="font-size:10px;fill:rgb(200,200,200);text-anchor:end;text-align:right;"> 0.25 </text><path d="M 28 145 L 30 145" style="stroke:rgb(200,200,200);stroke-width:1" /><text x="26" y="149" style="font-size:10px;fill:rgb(200,200,200);text-anchor:end;text-align:right;"> 0.5 </text><path d="M 28 82.5 L 30 82.5" style="stroke:rgb(200,200,200);stroke-width:1" /><text x="26" y="86.5" style="font-size:10px;fill:rgb(200,200,200);text-anchor:end;text-align:right;"> 0.75 </text><path d="M 28 20 L 30 20" style="stroke:rgb(200,200,200);stroke-width:1" /><text x="26" y="24" style="font-size:10px;fill:rgb(200,200,200);text-anchor:end;text-align:right;"> 1 </text><text x="400" y="294" style="font-size:10px;fill:rgb(200,200,200);text-anchor:middle;text-align:center;"> Tolerance </text><circle cx="780" cy="20" r="2" style="fill:rgb(139,211,199);stroke:none;fill-opacity:1;stroke-opacity:1;" /><path d="M 780 20 L 630.77246 102.255005" style="stroke:rgb(139,211,199);stroke-width:1" /><circle cx="630.77246" cy="102.255005" r="2" style="fill:rgb(139,211,199);stroke:none;fill-opacity:1;stroke-opacity:1;" /><path d="M 630.77246 102.255005 L 517.8862 150.3375" style="stroke:rgb(139,211,199);stroke-width:1" /><circle cx="517.8862" cy="150.3375" r="2" style="fill:rgb(139,211,199);stroke:none;fill-opacity:1;stroke-opacity:1;" /><path d="M 517.8862 150.3375 L 451.85202 167.655" style="stroke:rgb(139,211,199);stroke-width:1" /><circle cx="451.85202" cy="167.655" r="2" style="fill:rgb(139,211,199);stroke:none;fill-opacity:1;stroke-opacity:1;" /><path d="M 451.85202 167.655 L 405 182.8125" style="stroke:rgb(139,211,199);stroke-width:1" /><circle cx="405" cy="182.8125" r="2" style="fill:rgb(139,211,199);stroke:none;fill-opacity:1;stroke-opacity:1;" /><path d="M 405 182.8125 L 338.96576 200.2775" style="stroke:rgb(139,211,199);stroke-width:1" /><circle cx="338.96576" cy="200.2775" r="2" style="fill:rgb(139,211,199);stroke:none;fill-opacity:1;stroke-opacity:1;" /><path d="M 338.96576 200.2775 L 292.11377 207.2475" style="stroke:rgb(139,211,199);stroke-width:1" /><circle cx="292.11377" cy="207.2475" r="2" style="fill:rgb(139,211,199);stroke:none;fill-opacity:1;stroke-opacity:1;" /><path d="M 292.11377 207.2475 L 255.7725 211.5725" style="stroke:rgb(139,211,199);stroke-width:1" /><circle cx="255.7725" cy="211.5725" r="2" style="fill:rgb(139,211,199);stroke:none;fill-opacity:1;stroke-opacity:1;" /><path d="M 255.7725 211.5725 L 142.88626 228.8925" style="stroke:rgb(139,211,199);stroke-width:1" /><circle cx="142.88626" cy="228.8925" r="2" style="fill:rgb(139,211,199);stroke:none;fill-opacity:1;stroke-opacity:1;" /><path d="M 142.88626 228.8925 L 30 238.645" style="stroke:rgb(139,211,199);stroke-width:1" /><circle cx="30" cy="238.645" r="2" style="fill:rgb(139,211,199);stroke:none;fill-opacity:1;stroke-opacity:1;" /><circle cx="780" cy="255.41" r="2" style="fill:rgb(119,211,179);stroke:none;fill-opacity:1;stroke-opacity:1;" /><path d="M 780 255.41 L 630.77246 259.2275" style="stroke:rgb(119,211,179);stroke-width:1" /><circle cx="630.77246" cy="259.2275" r="2" style="fill:rgb(119,211,179);stroke:none;fill-opacity:1;stroke-opacity:1;" /><path d="M 630.77246 259.2275 L 517.8862 262.625" style="stroke:rgb(119,211,179);stroke-width:1" /><circle cx="517.8862" cy="262.625" r="2" style="fill:rgb(119,211,179);stroke:none;fill-opacity:1;stroke-opacity:1;" /><path d="M 517.8862 262.625 L 451.85202 264.545" style="stroke:rgb(119,211,179);stroke-width:1" /><circle cx="451.85202" cy="264.545" r="2" style="fill:rgb(119,211,179);stroke:none;fill-opacity:1;stroke-opacity:1;" /><path d="M 451.85202 264.545 L 405 265.6675" style="stroke:rgb(119,211,179);stroke-width:1" /><circle cx="405" cy="265.6675" r="2" style="fill:rgb(119,211,179);stroke:none;fill-opacity:1;stroke-opacity:1;" /><path d="M 405 265.6675 L 338.96576 266.9925" style="stroke:rgb(119,211,179);stroke-width:1" /><circle cx="338.96576" cy="266.9925" r="2" style="fill:rgb(119,211,179);stroke:none;fill-opacity:1;stroke-opacity:1;" /><path d="M 338.96576 266.9925 L 292.11377 267.84" style="stroke:rgb(119,211,179);stroke-width:1" /><circle cx="292.11377" cy="267.84" r="2" style="fill:rgb(119,211,179);stroke:none;fill-opacity:1;stroke-opacity:1;" /><path d="M 292.11377 267.84 L 255.7725 268.1625" style="stroke:rgb(119,211,179);stroke-width:1" /><circle cx="255.7725" cy="268.1625" r="2" style="fill:rgb(119,211,179);stroke:none;fill-opacity:1;stroke-opacity:1;" /><path d="M 255.7725 268.1625 L 142.88626 268.9575" style="stroke:rgb(119,211,179);stroke-width:1" /><circle cx="142.88626" cy="268.9575" r="2" style="fill:rgb(119,211,179);stroke:none;fill-opacity:1;stroke-opacity:1;" /><path d="M 142.88626 268.9575 L 30 269.2225" style="stroke:rgb(119,211,179);stroke-width:1" /><circle cx="30" cy="269.2225" r="2" style="fill:rgb(119,211,179);stroke:none;fill-opacity:1;stroke-opacity:1;" /><circle cx="780" cy="247.7625" r="2" style="fill:rgb(50,125,209);stroke:none;fill-opacity:1;stroke-opacity:1;" /><path d="M 780 247.7625 L 630.77246 251.66501" style="stroke:rgb(50,125,209);stroke-width:1" /><circle cx="630.77246" cy="251.66501" r="2" style="fill:rgb(50,125,209);stroke:none;fill-opacity:1;stroke-opacity:1;" /><path d="M 630.77246 251.66501 L 517.8862 253.83499" style="stroke:rgb(50,125,209);stroke-width:1" /><circle cx="517.8862" cy="253.83499" r="2" style="fill:rgb(50,125,209);stroke:none;fill-opacity:1;stroke-opacity:1;" /><path d="M 517.8862 253.83499 L 451.85202 254.985" style="stroke:rgb(50,125,209);stroke-width:1" /><circle cx="451.85202" cy="254.985" r="2" style="fill:rgb(50,125,209);stroke:none;fill-opacity:1;stroke-opacity:1;" /><path d="M 451.85202 254.985 L 405 255.86" style="stroke:rgb(50,125,209);stroke-width:1" /><circle cx="405" cy="255.86" r="2" style="fill:rgb(50,125,209);stroke:none;fill-opacity:1;stroke-opacity:1;" /><path d="M 405 255.86 L 338.96576 255.75" style="stroke:rgb(50,125,209);stroke-width:1" /><circle cx="338.96576" cy="255.75" r="2" style="fill:rgb(50,125,209);stroke:none;fill-opacity:1;stroke-opacity:1;" /><path d="M 338.96576 255.75 L 292.11377 256.4525" style="stroke:rgb(50,125,209);stroke-width:1" /><circle cx="292.11377" cy="256.4525" r="2" style="fill:rgb(50,125,209);stroke:none;fill-opacity:1;stroke-opacity:1;" /><path d="M 292.11377 256.4525 L 255.7725 257.425" style="stroke:rgb(50,125,209);stroke-width:1" /><circle cx="255.7725" cy="257.425" r="2" style="fill:rgb(50,125,209);stroke:none;fill-opacity:1;stroke-opacity:1;" /><path d="M 255.7725 257.425 L 142.88626 259.8375" style="stroke:rgb(50,125,209);stroke-width:1" /><circle cx="142.88626" cy="259.8375" r="2" style="fill:rgb(50,125,209);stroke:none;fill-opacity:1;stroke-opacity:1;" /><path d="M 142.88626 259.8375 L 30 261.025" style="stroke:rgb(50,125,209);stroke-width:1" /><circle cx="30" cy="261.025" r="2" style="fill:rgb(50,125,209);stroke:none;fill-opacity:1;stroke-opacity:1;" /><circle cx="780" cy="237.6375" r="2" style="fill:rgb(255,181,90);stroke:none;fill-opacity:1;stroke-opacity:1;" /><path d="M 780 237.6375 L 630.77246 248.52" style="stroke:rgb(255,181,90);stroke-width:1" /><circle cx="630.77246" cy="248.52" r="2" style="fill:rgb(255,181,90);stroke:none;fill-opacity:1;stroke-opacity:1;" /><path d="M 630.77246 248.52 L 517.8862 254.1775" style="stroke:rgb(255,181,90);stroke-width:1" /><circle cx="517.8862" cy="254.1775" r="2" style="fill:rgb(255,181,90);stroke:none;fill-opacity:1;stroke-opacity:1;" /><path d="M 517.8862 254.1775 L 451.85202 256.9025" style="stroke:rgb(255,181,90);stroke-width:1" /><circle cx="451.85202" cy="256.9025" r="2" style="fill:rgb(255,181,90);stroke:none;fill-opacity:1;stroke-opacity:1;" /><path d="M 451.85202 256.9025 L 405 258.5275" style="stroke:rgb(255,181,90);stroke-width:1" /><circle cx="405" cy="258.5275" r="2" style="fill:rgb(255,181,90);stroke:none;fill-opacity:1;stroke-opacity:1;" /><path d="M 405 258.5275 L 338.96576 260.5875" style="stroke:rgb(255,181,90);stroke-width:1" /><circle cx="338.96576" cy="260.5875" r="2" style="fill:rgb(255,181,90);stroke:none;fill-opacity:1;stroke-opacity:1;" /><path d="M 338.96576 260.5875 L 292.11377 261.6975" style="stroke:rgb(255,181,90);stroke-width:1" /><circle cx="292.11377" cy="261.6975" r="2" style="fill:rgb(255,181,90);stroke:none;fill-opacity:1;stroke-opacity:1;" /><path d="M 292.11377 261.6975 L 255.7725 262.5625" style="stroke:rgb(255,181,90);stroke-width:1" /><circle cx="255.7725" cy="262.5625" r="2" style="fill:rgb(255,181,90);stroke:none;fill-opacity:1;stroke-opacity:1;" /><path d="M 255.7725 262.5625 L 142.88626 264.4" style="stroke:rgb(255,181,90);stroke-width:1" /><circle cx="142.88626" cy="264.4" r="2" style="fill:rgb(255,181,90);stroke:none;fill-opacity:1;stroke-opacity:1;" /><path d="M 142.88626 264.4 L 30 265.6175" style="stroke:rgb(255,181,90);stroke-width:1" /><circle cx="30" cy="265.6175" r="2" style="fill:rgb(255,181,90);stroke:none;fill-opacity:1;stroke-opacity:1;" /><circle cx="780" cy="266.6775" r="2" style="fill:rgb(253,204,229);stroke:none;fill-opacity:1;stroke-opacity:1;" /><path d="M 780 266.6775 L 630.77246 267.075" style="stroke:rgb(253,204,229);stroke-width:1" /><circle cx="630.77246" cy="267.075" r="2" style="fill:rgb(253,204,229);stroke:none;fill-opacity:1;stroke-opacity:1;" /><path d="M 630.77246 267.075 L 517.8862 267.2925" style="stroke:rgb(253,204,229);stroke-width:1" /><circle cx="517.8862" cy="267.2925" r="2" style="fill:rgb(253,204,229);stroke:none;fill-opacity:1;stroke-opacity:1;" /><path d="M 517.8862 267.2925 L 451.85202 267.485" style="stroke:rgb(253,204,229);stroke-width:1" /><circle cx="451.85202" cy="267.485" r="2" style="fill:rgb(253,204,229);stroke:none;fill-opacity:1;stroke-opacity:1;" /><path d="M 451.85202 267.485 L 405 267.485" style="stroke:rgb(253,204,229);stroke-width:1" /><circle cx="405" cy="267.485" r="2" style="fill:rgb(253,204,229);stroke:none;fill-opacity:1;stroke-opacity:1;" /><path d="M 405 267.485 L 338.96576 267.79" style="stroke:rgb(253,204,229);stroke-width:1" /><circle cx="338.96576" cy="267.79" r="2" style="fill:rgb(253,204,229);stroke:none;fill-opacity:1;stroke-opacity:1;" /><path d="M 338.96576 267.79 L 292.11377 267.9875" style="stroke:rgb(253,204,229);stroke-width:1" /><circle cx="292.11377" cy="267.9875" r="2" style="fill:rgb(253,204,229);stroke:none;fill-opacity:1;stroke-opacity:1;" /><path d="M 292.11377 267.9875 L 255.7725 268.08" style="stroke:rgb(253,204,229);stroke-width:1" /><circle cx="255.7725" cy="268.08" r="2" style="fill:rgb(253,204,229);stroke:none;fill-opacity:1;stroke-opacity:1;" /><path d="M 255.7725 268.08 L 142.88626 268.705" style="stroke:rgb(253,204,229);stroke-width:1" /><circle cx="142.88626" cy="268.705" r="2" style="fill:rgb(253,204,229);stroke:none;fill-opacity:1;stroke-opacity:1;" /><path d="M 142.88626 268.705 L 30 269.1475" style="stroke:rgb(253,204,229);stroke-width:1" /><circle cx="30" cy="269.1475" r="2" style="fill:rgb(253,204,229);stroke:none;fill-opacity:1;stroke-opacity:1;" /><circle cx="780" cy="267.095" r="2" style="fill:rgb(199,126,190);stroke:none;fill-opacity:1;stroke-opacity:1;" /><path d="M 780 267.095 L 630.77246 267.3625" style="stroke:rgb(199,126,190);stroke-width:1" /><circle cx="630.77246" cy="267.3625" r="2" style="fill:rgb(199,126,190);stroke:none;fill-opacity:1;stroke-opacity:1;" /><path d="M 630.77246 267.3625 L 517.8862 267.545" style="stroke:rgb(199,126,190);stroke-width:1" /><circle cx="517.8862" cy="267.545" r="2" style="fill:rgb(199,126,190);stroke:none;fill-opacity:1;stroke-opacity:1;" /><path d="M 517.8862 267.545 L 451.85202 267.73" style="stroke:rgb(199,126,190);stroke-width:1" /><circle cx="451.85202" cy="267.73" r="2" style="fill:rgb(199,126,190);stroke:none;fill-opacity:1;stroke-opacity:1;" /><path d="M 451.85202 267.73 L 405 267.9825" style="stroke:rgb(199,126,190);stroke-width:1" /><circle cx="405" cy="267.9825" r="2" style="fill:rgb(199,126,190);stroke:none;fill-opacity:1;stroke-opacity:1;" /><path d="M 405 267.9825 L 338.96576 268.26" style="stroke:rgb(199,126,190);stroke-width:1" /><circle cx="338.96576" cy="268.26" r="2" style="fill:rgb(199,126,190);stroke:none;fill-opacity:1;stroke-opacity:1;" /><path d="M 338.96576 268.26 L 292.11377 268.37" style="stroke:rgb(199,126,190);stroke-width:1" /><circle cx="292.11377" cy="268.37" r="2" style="fill:rgb(199,126,190);stroke:none;fill-opacity:1;stroke-opacity:1;" /><path d="M 292.11377 268.37 L 255.7725 268.6175" style="stroke:rgb(199,126,190);stroke-width:1" /><circle cx="255.7725" cy="268.6175" r="2" style="fill:rgb(199,126,190);stroke:none;fill-opacity:1;stroke-opacity:1;" /><path d="M 255.7725 268.6175 L 142.88626 268.8275" style="stroke:rgb(199,126,190);stroke-width:1" /><circle cx="142.88626" cy="268.8275" r="2" style="fill:rgb(199,126,190);stroke:none;fill-opacity:1;stroke-opacity:1;" /><path d="M 142.88626 268.8275 L 30 269.1925" style="stroke:rgb(199,126,190);stroke-width:1" /><circle cx="30" cy="269.1925" r="2" style="fill:rgb(199,126,190);stroke:none;fill-opacity:1;stroke-opacity:1;" /><circle cx="780" cy="257.7225" r="2" style="fill:rgb(128,214,87);stroke:none;fill-opacity:1;stroke-opacity:1;" /><path d="M 780 257.7225 L 630.77246 262.53" style="stroke:rgb(128,214,87);stroke-width:1" /><circle cx="630.77246" cy="262.53" r="2" style="fill:rgb(128,214,87);stroke:none;fill-opacity:1;stroke-opacity:1;" /><path d="M 630.77246 262.53 L 517.8862 265.195" style="stroke:rgb(128,214,87);stroke-width:1" /><circle cx="517.8862" cy="265.195" r="2" style="fill:rgb(128,214,87);stroke:none;fill-opacity:1;stroke-opacity:1;" /><path d="M 517.8862 265.195 L 451.85202 266.4475" style="stroke:rgb(128,214,87);stroke-width:1" /><circle cx="451.85202" cy="266.4475" r="2" style="fill:rgb(128,214,87);stroke:none;fill-opacity:1;stroke-opacity:1;" /><path d="M 451.85202 266.4475 L 405 267.4225" style="stroke:rgb(128,214,87);stroke-width:1" /><circle cx="405" cy="267.4225" r="2" style="fill:rgb(128,214,87);stroke:none;fill-opacity:1;stroke-opacity:1;" /><path d="M 405 267.4225 L 338.96576 268.0275" style="stroke:rgb(128,214,87);stroke-width:1" /><circle cx="338.96576" cy="268.0275" r="2" style="fill:rgb(128,214,87);stroke:none;fill-opacity:1;stroke-opacity:1;" /><path d="M 338.96576 268.0275 L 292.11377 268.2325" style="stroke:rgb(128,214,87);stroke-width:1" /><circle cx="292.11377" cy="268.2325" r="2" style="fill:rgb(128,214,87);stroke:none;fill-opacity:1;stroke-opacity:1;" /><path d="M 292.11377 268.2325 L 255.7725 268.52" style="stroke:rgb(128,214,87);stroke-width:1" /><circle cx="255.7725" cy="268.52" r="2" style="fill:rgb(128,214,87);stroke:none;fill-opacity:1;stroke-opacity:1;" /><path d="M 255.7725 268.52 L 142.88626 269.015" style="stroke:rgb(128,214,87);stroke-width:1" /><circle cx="142.88626" cy="269.015" r="2" style="fill:rgb(128,214,87);stroke:none;fill-opacity:1;stroke-opacity:1;" /><path d="M 142.88626 269.015 L 30 269.245" style="stroke:rgb(128,214,87);stroke-width:1" /><circle cx="30" cy="269.245" r="2" style="fill:rgb(128,214,87);stroke:none;fill-opacity:1;stroke-opacity:1;" /><circle cx="780" cy="256.9575" r="2" style="fill:rgb(255,238,101);stroke:none;fill-opacity:1;stroke-opacity:1;" /><path d="M 780 256.9575 L 630.77246 261.82" style="stroke:rgb(255,238,101);stroke-width:1" /><circle cx="630.77246" cy="261.82" r="2" style="fill:rgb(255,238,101);stroke:none;fill-opacity:1;stroke-opacity:1;" /><path d="M 630.77246 261.82 L 517.8862 264.4775" style="stroke:rgb(255,238,101);stroke-width:1" /><circle cx="517.8862" cy="264.4775" r="2" style="fill:rgb(255,238,101);stroke:none;fill-opacity:1;stroke-opacity:1;" /><path d="M 517.8862 264.4775 L 451.85202 265.5675" style="stroke:rgb(255,238,101);stroke-width:1" /><circle cx="451.85202" cy="265.5675" r="2" style="fill:rgb(255,238,101);stroke:none;fill-opacity:1;stroke-opacity:1;" /><path d="M 451.85202 265.5675 L 405 266.325" style="stroke:rgb(255,238,101);stroke-width:1" /><circle cx="405" cy="266.325" r="2" style="fill:rgb(255,238,101);stroke:none;fill-opacity:1;stroke-opacity:1;" /><path d="M 405 266.325 L 338.96576 267.1875" style="stroke:rgb(255,238,101);stroke-width:1" /><circle cx="338.96576" cy="267.1875" r="2" style="fill:rgb(255,238,101);stroke:none;fill-opacity:1;stroke-opacity:1;" /><path d="M 338.96576 267.1875 L 292.11377 267.7175" style="stroke:rgb(255,238,101);stroke-width:1" /><circle cx="292.11377" cy="267.7175" r="2" style="fill:rgb(255,238,101);stroke:none;fill-opacity:1;stroke-opacity:1;" /><path d="M 292.11377 267.7175 L 255.7725 268.0725" style="stroke:rgb(255,238,101);stroke-width:1" /><circle cx="255.7725" cy="268.0725" r="2" style="fill:rgb(255,238,101);stroke:none;fill-opacity:1;stroke-opacity:1;" /><path d="M 255.7725 268.0725 L 142.88626 269.0475" style="stroke:rgb(255,238,101);stroke-width:1" /><circle cx="142.88626" cy="269.0475" r="2" style="fill:rgb(255,238,101);stroke:none;fill-opacity:1;stroke-opacity:1;" /><path d="M 142.88626 269.0475 L 30 269.39" style="stroke:rgb(255,238,101);stroke-width:1" /><circle cx="30" cy="269.39" r="2" style="fill:rgb(255,238,101);stroke:none;fill-opacity:1;stroke-opacity:1;" /><circle cx="780" cy="253.9075" r="2" style="fill:rgb(126,176,213);stroke:none;fill-opacity:1;stroke-opacity:1;" /><path d="M 780 253.9075 L 630.77246 255.87" style="stroke:rgb(126,176,213);stroke-width:1" /><circle cx="630.77246" cy="255.87" r="2" style="fill:rgb(126,176,213);stroke:none;fill-opacity:1;stroke-opacity:1;" /><path d="M 630.77246 255.87 L 517.8862 257.115" style="stroke:rgb(126,176,213);stroke-width:1" /><circle cx="517.8862" cy="257.115" r="2" style="fill:rgb(126,176,213);stroke:none;fill-opacity:1;stroke-opacity:1;" /><path d="M 517.8862 257.115 L 451.85202 257.8425" style="stroke:rgb(126,176,213);stroke-width:1" /><circle cx="451.85202" cy="257.8425" r="2" style="fill:rgb(126,176,213);stroke:none;fill-opacity:1;stroke-opacity:1;" /><path d="M 451.85202 257.8425 L 405 258.385" style="stroke:rgb(126,176,213);stroke-width:1" /><circle cx="405" cy="258.385" r="2" style="fill:rgb(126,176,213);stroke:none;fill-opacity:1;stroke-opacity:1;" /><path d="M 405 258.385 L 338.96576 259.24" style="stroke:rgb(126,176,213);stroke-width:1" /><circle cx="338.96576" cy="259.24" r="2" style="fill:rgb(126,176,213);stroke:none;fill-opacity:1;stroke-opacity:1;" /><path d="M 338.96576 259.24 L 292.11377 259.81" style="stroke:rgb(126,176,213);stroke-width:1" /><circle cx="292.11377" cy="259.81" r="2" style="fill:rgb(126,176,213);stroke:none;fill-opacity:1;stroke-opacity:1;" /><path d="M 292.11377 259.81 L 255.7725 260.2" style="stroke:rgb(126,176,213);stroke-width:1" /><circle cx="255.7725" cy="260.2" r="2" style="fill:rgb(126,176,213);stroke:none;fill-opacity:1;stroke-opacity:1;" /><path d="M 255.7725 260.2 L 142.88626 261.155" style="stroke:rgb(126,176,213);stroke-width:1" /><circle cx="142.88626" cy="261.155" r="2" style="fill:rgb(126,176,213);stroke:none;fill-opacity:1;stroke-opacity:1;" /><path d="M 142.88626 261.155 L 30 262.0625" style="stroke:rgb(126,176,213);stroke-width:1" /><circle cx="30" cy="262.0625" r="2" style="fill:rgb(126,176,213);stroke:none;fill-opacity:1;stroke-opacity:1;" /><circle cx="780" cy="266.7325" r="2" style="fill:rgb(253,127,111);stroke:none;fill-opacity:1;stroke-opacity:1;" /><path d="M 780 266.7325 L 630.77246 267.0175" style="stroke:rgb(253,127,111);stroke-width:1" /><circle cx="630.77246" cy="267.0175" r="2" style="fill:rgb(253,127,111);stroke:none;fill-opacity:1;stroke-opacity:1;" /><path d="M 630.77246 267.0175 L 517.8862 267.275" style="stroke:rgb(253,127,111);stroke-width:1" /><circle cx="517.8862" cy="267.275" r="2" style="fill:rgb(253,127,111);stroke:none;fill-opacity:1;stroke-opacity:1;" /><path d="M 517.8862 267.275 L 451.85202 267.4025" style="stroke:rgb(253,127,111);stroke-width:1" /><circle cx="451.85202" cy="267.4025" r="2" style="fill:rgb(253,127,111);stroke:none;fill-opacity:1;stroke-opacity:1;" /><path d="M 451.85202 267.4025 L 405 267.5475" style="stroke:rgb(253,127,111);stroke-width:1" /><circle cx="405" cy="267.5475" r="2" style="fill:rgb(253,127,111);stroke:none;fill-opacity:1;stroke-opacity:1;" /><path d="M 405 267.5475 L 338.96576 267.7925" style="stroke:rgb(253,127,111);stroke-width:1" /><circle cx="338.96576" cy="267.7925" r="2" style="fill:rgb(253,127,111);stroke:none;fill-opacity:1;stroke-opacity:1;" /><path d="M 338.96576 267.7925 L 292.11377 267.9775" style="stroke:rgb(253,127,111);stroke-width:1" /><circle cx="292.11377" cy="267.9775" r="2" style="fill:rgb(253,127,111);stroke:none;fill-opacity:1;stroke-opacity:1;" /><path d="M 292.11377 267.9775 L 255.7725 268.135" style="stroke:rgb(253,127,111);stroke-width:1" /><circle cx="255.7725" cy="268.135" r="2" style="fill:rgb(253,127,111);stroke:none;fill-opacity:1;stroke-opacity:1;" /><path d="M 255.7725 268.135 L 142.88626 268.7275" style="stroke:rgb(253,127,111);stroke-width:1" /><circle cx="142.88626" cy="268.7275" r="2" style="fill:rgb(253,127,111);stroke:none;fill-opacity:1;stroke-opacity:1;" /><path d="M 142.88626 268.7275 L 30 268.9975" style="stroke:rgb(253,127,111);stroke-width:1" /><circle cx="30" cy="268.9975" r="2" style="fill:rgb(253,127,111);stroke:none;fill-opacity:1;stroke-opacity:1;" /><rect x="676" y="16" width="80" height="217" ry="4" style="fill:rgb(30,30,30);stroke:none;fill-opacity:0.8;stroke-opacity:1;" /><rect x="680" y="20" width="20" height="20" ry="2" style="fill:rgb(253,127,111);stroke:none;fill-opacity:1;stroke-opacity:1;" /><text x="705" y="33" style="font-size:10px;fill:rgb(255,255,255);text-anchor:start;text-align:left;"> fwd-diff </text><rect x="680" y="41" width="20" height="20" ry="2" style="fill:rgb(255,181,90);stroke:none;fill-opacity:1;stroke-opacity:1;" /><text x="705" y="54" style="font-size:10px;fill:rgb(255,255,255);text-anchor:start;text-align:left;"> hain </text><rect x="680" y="62" width="20" height="20" ry="2" style="fill:rgb(139,211,199);stroke:none;fill-opacity:1;stroke-opacity:1;" /><text x="705" y="75" style="font-size:10px;fill:rgb(255,255,255);text-anchor:start;text-align:left;"> hfd </text><rect x="680" y="83" width="20" height="20" ry="2" style="fill:rgb(50,125,209);stroke:none;fill-opacity:1;stroke-opacity:1;" /><text x="705" y="96" style="font-size:10px;fill:rgb(255,255,255);text-anchor:start;text-align:left;"> levien </text><rect x="680" y="104" width="20" height="20" ry="2" style="fill:rgb(119,211,179);stroke:none;fill-opacity:1;stroke-opacity:1;" /><text x="705" y="117" style="font-size:10px;fill:rgb(255,255,255);text-anchor:start;text-align:left;"> levien-linear </text><rect x="680" y="125" width="20" height="20" ry="2" style="fill:rgb(126,176,213);stroke:none;fill-opacity:1;stroke-opacity:1;" /><text x="705" y="138" style="font-size:10px;fill:rgb(255,255,255);text-anchor:start;text-align:left;"> levien-simd </text><rect x="680" y="146" width="20" height="20" ry="2" style="fill:rgb(128,214,87);stroke:none;fill-opacity:1;stroke-opacity:1;" /><text x="705" y="159" style="font-size:10px;fill:rgb(255,255,255);text-anchor:start;text-align:left;"> linear </text><rect x="680" y="167" width="20" height="20" ry="2" style="fill:rgb(255,238,101);stroke:none;fill-opacity:1;stroke-opacity:1;" /><text x="705" y="180" style="font-size:10px;fill:rgb(255,255,255);text-anchor:start;text-align:left;"> recursive </text><rect x="680" y="188" width="20" height="20" ry="2" style="fill:rgb(253,204,229);stroke:none;fill-opacity:1;stroke-opacity:1;" /><text x="705" y="201" style="font-size:10px;fill:rgb(255,255,255);text-anchor:start;text-align:left;"> wang </text><rect x="680" y="209" width="20" height="20" ry="2" style="fill:rgb(199,126,190);stroke:none;fill-opacity:1;stroke-opacity:1;" /><text x="705" y="222" style="font-size:10px;fill:rgb(255,255,255);text-anchor:start;text-align:left;"> wang-simd </text><text x="400" y="30" style="font-size:20px;fill:rgb(255,255,255);text-anchor:middle;text-align:center;"> inkscape dataset: cubic </text><text x="400" y="42" style="font-size:8px;fill:rgb(200,200,200);text-anchor:middle;text-align:center;"> Normalized performance score (lower is better) </text></svg>