<svg xmlns="http://www.w3.org/2000/svg" viewBox="0 0 800 300"><rect x="0" y="0" width="800" height="300" ry="6" style="fill:rgb(30,30,30);stroke:none;fill-opacity:1;stroke-opacity:1;" /><path d="M 30 20 L 30 270" style="stroke:rgb(200,200,200);stroke-width:1" /><path d="M 30 270 L 780 270" style="stroke:rgb(200,200,200);stroke-width:1" /><path d="M 780 270 L 780 272" style="stroke:rgb(200,200,200);stroke-width:1" /><text x="780" y="282" style="font-size:10px;fill:rgb(200,200,200);text-anchor:middle;text-align:center;"> 0.01 </text><path d="M 630.77246 270 L 630.77246 272" style="stroke:rgb(200,200,200);stroke-width:1" /><text x="630.77246" y="282" style="font-size:10px;fill:rgb(200,200,200);text-anchor:middle;text-align:center;"> 0.025 </text><path d="M 517.8862 270 L 517.8862 272" style="stroke:rgb(200,200,200);stroke-width:1" /><text x="517.8862" y="282" style="font-size:10px;fill:rgb(200,200,200);text-anchor:middle;text-align:center;"> 0.05 </text><path d="M 451.85202 270 L 451.85202 272" style="stroke:rgb(200,200,200);stroke-width:1" /><text x="451.85202" y="282" style="font-size:10px;fill:rgb(200,200,200);text-anchor:middle;text-align:center;"> 0.075 </text><path d="M 405 270 L 405 272" style="stroke:rgb(200,200,200);stroke-width:1" /><text x="405" y="282" style="font-size:10px;fill:rgb(200,200,200);text-anchor:middle;text-align:center;"> 0.1 </text><path d="M 338.96576 270 L 338.96576 272" style="stroke:rgb(200,200,200);stroke-width:1" /><text x="338.96576" y="282" style="font-size:10px;fill:rgb(200,200,200);text-anchor:middle;text-align:center;"> 0.15 </text><path d="M 292.11377 270 L 292.11377 272" style="stroke:rgb(200,200,200);stroke-width:1" /><text x="292.11377" y="282" style="font-size:10px;fill:rgb(200,200,200);text-anchor:middle;text-align:center;"> 0.2 </text><path d="M 255.7725 270 L 255.7725 272" style="stroke:rgb(200,200,200);stroke-width:1" /><text x="255.7725" y="282" style="font-size:10px;fill:rgb(200,200,200);text-anchor:middle;text-align:center;"> 0.25 </text><path d="M 142.88626 270 L 142.88626 272" style="stroke:rgb(200,200,200);stroke-width:1" /><text x="142.88626" y="282" style="font-size:10px;fill:rgb(200,200,200);text-anchor:middle;text-align:center;"> 0.5 </text><path d="M 30 270 L 30 272" style="stroke:rgb(200,200,200);stroke-width:1" /><text x="30" y="282" style="font-size:10px;fill:rgb(200,200,200);text-anchor:middle;text-align:center;"> 1 </text><path d="M 28 270 L 30 270" style="stroke:rgb(200,200,200);stroke-width:1" /><text x="26" y="274" style="font-size:10px;fill:rgb(200,200,200);text-anchor:end;text-align:right;"> 0 </text><path d="M 28 207.5 L 30 207.5" style="stroke:rgb(200,200,200);stroke-width:1" /><text x="26" y="211.5" style="font-size:10px;fill:rgb(200,200,200);text-anchor:end;text-align:right;"> 0.25 </text><path d="M 28 145 L 30 145" style="stroke:rgb(200,200,200);stroke-width:1" /><text x="26" y="149" style="font-size:10px;fill:rgb(200,200,200);text-anchor:end;text-align:right;"> 0.5 </text><path d="M 28 82.5 L 30 82.5" style="stroke:rgb(200,200,200);stroke-width:1" /><text x="26" y="86.5" style="font-size:10px;fill:rgb(200,200,200);text-anchor:end;text-align:right;"> 0.75 </text><path d="M 28 20 L 30 20" style="stroke:rgb(200,200,200);stroke-width:1" /><text x="26" y="24" style="font-size:10px;fill:rgb(200,200,200);text-anchor:end;text-align:right;"> 1 </text><text x="400" y="294" style="font-size:10px;fill:rgb(200,200,200);text-anchor:middle;text-align:center;"> Tolerance </text><circle cx="780" cy="259.74" r="2" style="fill:rgb(199,126,190);stroke:none;fill-opacity:1;stroke-opacity:1;" /><path d="M 780 259.74 L 630.77246 262.8425" style="stroke:rgb(199,126,190);stroke-width:1" /><circle cx="630.77246" cy="262.8425" r="2" style="fill:rgb(199,126,190);stroke:none;fill-opacity:1;stroke-opacity:1;" /><path d="M 630.77246 262.8425 L 517.8862 264.4275" style="stroke:rgb(199,126,190);stroke-width:1" /><circle cx="517.8862" cy="264.4275" r="2" style="fill:rgb(199,126,190);stroke:none;fill-opacity:1;stroke-opacity:1;" /><path d="M 517.8862 264.4275 L 451.85202 265.125" style="stroke:rgb(199,126,190);stroke-width:1" /><circle cx="451.85202" cy="265.125" r="2" style="fill:rgb(199,126,190);stroke:none;fill-opacity:1;stroke-opacity:1;" /><path d="M 451.85202 265.125 L 405 265.5725" style="stroke:rgb(199,126,190);stroke-width:1" /><circle cx="405" cy="265.5725" r="2" style="fill:rgb(199,126,190);stroke:none;fill-opacity:1;stroke-opacity:1;" /><path d="M 405 265.5725 L 338.96576 266.125" style="stroke:rgb(199,126,190);stroke-width:1" /><circle cx="338.96576" cy="266.125" r="2" style="fill:rgb(199,126,190);stroke:none;fill-opacity:1;stroke-opacity:1;" /><path d="M 338.96576 266.125 L 292.11377 266.435" style="stroke:rgb(199,126,190);stroke-width:1" /><circle cx="292.11377" cy="266.435" r="2" style="fill:rgb(199,126,190);stroke:none;fill-opacity:1;stroke-opacity:1;" /><path d="M 292.11377 266.435 L 255.7725 266.6825" style="stroke:rgb(199,126,190);stroke-width:1" /><circle cx="255.7725" cy="266.6825" r="2" style="fill:rgb(199,126,190);stroke:none;fill-opacity:1;stroke-opacity:1;" /><path d="M 255.7725 266.6825 L 142.88626 267.285" style="stroke:rgb(199,126,190);stroke-width:1" /><circle cx="142.88626" cy="267.285" r="2" style="fill:rgb(199,126,190);stroke:none;fill-opacity:1;stroke-opacity:1;" /><path d="M 142.88626 267.285 L 30 267.7575" style="stroke:rgb(199,126,190);stroke-width:1" /><circle cx="30" cy="267.7575" r="2" style="fill:rgb(199,126,190);stroke:none;fill-opacity:1;stroke-opacity:1;" /><circle cx="780" cy="20" r="2" style="fill:rgb(255,181,90);stroke:none;fill-opacity:1;stroke-opacity:1;" /><path d="M 780 20 L 630.77246 110.815" style="stroke:rgb(255,181,90);stroke-width:1" /><circle cx="630.77246" cy="110.815" r="2" style="fill:rgb(255,181,90);stroke:none;fill-opacity:1;stroke-opacity:1;" /><path d="M 630.77246 110.815 L 517.8862 156.58" style="stroke:rgb(255,181,90);stroke-width:1" /><circle cx="517.8862" cy="156.58" r="2" style="fill:rgb(255,181,90);stroke:none;fill-opacity:1;stroke-opacity:1;" /><path d="M 517.8862 156.58 L 451.85202 176.9425" style="stroke:rgb(255,181,90);stroke-width:1" /><circle cx="451.85202" cy="176.9425" r="2" style="fill:rgb(255,181,90);stroke:none;fill-opacity:1;stroke-opacity:1;" /><path d="M 451.85202 176.9425 L 405 189.05249" style="stroke:rgb(255,181,90);stroke-width:1" /><circle cx="405" cy="189.05249" r="2" style="fill:rgb(255,181,90);stroke:none;fill-opacity:1;stroke-opacity:1;" /><path d="M 405 189.05249 L 338.96576 203.475" style="stroke:rgb(255,181,90);stroke-width:1" /><circle cx="338.96576" cy="203.475" r="2" style="fill:rgb(255,181,90);stroke:none;fill-opacity:1;stroke-opacity:1;" /><path d="M 338.96576 203.475 L 292.11377 211.7925" style="stroke:rgb(255,181,90);stroke-width:1" /><circle cx="292.11377" cy="211.7925" r="2" style="fill:rgb(255,181,90);stroke:none;fill-opacity:1;stroke-opacity:1;" /><path d="M 292.11377 211.7925 L 255.7725 217.97751" style="stroke:rgb(255,181,90);stroke-width:1" /><circle cx="255.7725" cy="217.97751" r="2" style="fill:rgb(255,181,90);stroke:none;fill-opacity:1;stroke-opacity:1;" /><path d="M 255.7725 217.97751 L 142.88626 232.595" style="stroke:rgb(255,181,90);stroke-width:1" /><circle cx="142.88626" cy="232.595" r="2" style="fill:rgb(255,181,90);stroke:none;fill-opacity:1;stroke-opacity:1;" /><path d="M 142.88626 232.595 L 30 242.9075" style="stroke:rgb(255,181,90);stroke-width:1" /><circle cx="30" cy="242.9075" r="2" style="fill:rgb(255,181,90);stroke:none;fill-opacity:1;stroke-opacity:1;" /><circle cx="780" cy="134.65" r="2" style="fill:rgb(128,214,87);stroke:none;fill-opacity:1;stroke-opacity:1;" /><path d="M 780 134.65 L 630.77246 183.98001" style="stroke:rgb(128,214,87);stroke-width:1" /><circle cx="630.77246" cy="183.98001" r="2" style="fill:rgb(128,214,87);stroke:none;fill-opacity:1;stroke-opacity:1;" /><path d="M 630.77246 183.98001 L 517.8862 208.76" style="stroke:rgb(128,214,87);stroke-width:1" /><circle cx="517.8862" cy="208.76" r="2" style="fill:rgb(128,214,87);stroke:none;fill-opacity:1;stroke-opacity:1;" /><path d="M 517.8862 208.76 L 451.85202 220.5825" style="stroke:rgb(128,214,87);stroke-width:1" /><circle cx="451.85202" cy="220.5825" r="2" style="fill:rgb(128,214,87);stroke:none;fill-opacity:1;stroke-opacity:1;" /><path d="M 451.85202 220.5825 L 405 227.03" style="stroke:rgb(128,214,87);stroke-width:1" /><circle cx="405" cy="227.03" r="2" style="fill:rgb(128,214,87);stroke:none;fill-opacity:1;stroke-opacity:1;" /><path d="M 405 227.03 L 338.96576 234.8225" style="stroke:rgb(128,214,87);stroke-width:1" /><circle cx="338.96576" cy="234.8225" r="2" style="fill:rgb(128,214,87);stroke:none;fill-opacity:1;stroke-opacity:1;" /><path d="M 338.96576 234.8225 L 292.11377 239.555" style="stroke:rgb(128,214,87);stroke-width:1" /><circle cx="292.11377" cy="239.555" r="2" style="fill:rgb(128,214,87);stroke:none;fill-opacity:1;stroke-opacity:1;" /><path d="M 292.11377 239.555 L 255.7725 243.215" style="stroke:rgb(128,214,87);stroke-width:1" /><circle cx="255.7725" cy="243.215" r="2" style="fill:rgb(128,214,87);stroke:none;fill-opacity:1;stroke-opacity:1;" /><path d="M 255.7725 243.215 L 142.88626 250.9825" style="stroke:rgb(128,214,87);stroke-width:1" /><circle cx="142.88626" cy="250.9825" r="2" style="fill:rgb(128,214,87);stroke:none;fill-opacity:1;stroke-opacity:1;" /><path d="M 142.88626 250.9825 L 30 256.785" style="stroke:rgb(128,214,87);stroke-width:1" /><circle cx="30" cy="256.785" r="2" style="fill:rgb(128,214,87);stroke:none;fill-opacity:1;stroke-opacity:1;" /><circle cx="780" cy="254.68" r="2" style="fill:rgb(253,204,229);stroke:none;fill-opacity:1;stroke-opacity:1;" /><path d="M 780 254.68 L 630.77246 259.7125" style="stroke:rgb(253,204,229);stroke-width:1" /><circle cx="630.77246" cy="259.7125" r="2" style="fill:rgb(253,204,229);stroke:none;fill-opacity:1;stroke-opacity:1;" /><path d="M 630.77246 259.7125 L 517.8862 262.215" style="stroke:rgb(253,204,229);stroke-width:1" /><circle cx="517.8862" cy="262.215" r="2" style="fill:rgb(253,204,229);stroke:none;fill-opacity:1;stroke-opacity:1;" /><path d="M 517.8862 262.215 L 451.85202 263.325" style="stroke:rgb(253,204,229);stroke-width:1" /><circle cx="451.85202" cy="263.325" r="2" style="fill:rgb(253,204,229);stroke:none;fill-opacity:1;stroke-opacity:1;" /><path d="M 451.85202 263.325 L 405 263.995" style="stroke:rgb(253,204,229);stroke-width:1" /><circle cx="405" cy="263.995" r="2" style="fill:rgb(253,204,229);stroke:none;fill-opacity:1;stroke-opacity:1;" /><path d="M 405 263.995 L 338.96576 264.7925" style="stroke:rgb(253,204,229);stroke-width:1" /><circle cx="338.96576" cy="264.7925" r="2" style="fill:rgb(253,204,229);stroke:none;fill-opacity:1;stroke-opacity:1;" /><path d="M 338.96576 264.7925 L 292.11377 265.295" style="stroke:rgb(253,204,229);stroke-width:1" /><circle cx="292.11377" cy="265.295" r="2" style="fill:rgb(253,204,229);stroke:none;fill-opacity:1;stroke-opacity:1;" /><path d="M 292.11377 265.295 L 255.7725 265.6425" style="stroke:rgb(253,204,229);stroke-width:1" /><circle cx="255.7725" cy="265.6425" r="2" style="fill:rgb(253,204,229);stroke:none;fill-opacity:1;stroke-opacity:1;" /><path d="M 255.7725 265.6425 L 142.88626 266.5525" style="stroke:rgb(253,204,229);stroke-width:1" /><circle cx="142.88626" cy="266.5525" r="2" style="fill:rgb(253,204,229);stroke:none;fill-opacity:1;stroke-opacity:1;" /><path d="M 142.88626 266.5525 L 30 267.245" style="stroke:rgb(253,204,229);stroke-width:1" /><circle cx="30" cy="267.245" r="2" style="fill:rgb(253,204,229);stroke:none;fill-opacity:1;stroke-opacity:1;" /><circle cx="780" cy="256.4875" r="2" style="fill:rgb(253,127,111);stroke:none;fill-opacity:1;stroke-opacity:1;" /><path d="M 780 256.4875 L 630.77246 260.8075" style="stroke:rgb(253,127,111);stroke-width:1" /><circle cx="630.77246" cy="260.8075" r="2" style="fill:rgb(253,127,111);stroke:none;fill-opacity:1;stroke-opacity:1;" /><path d="M 630.77246 260.8075 L 517.8862 262.975" style="stroke:rgb(253,127,111);stroke-width:1" /><circle cx="517.8862" cy="262.975" r="2" style="fill:rgb(253,127,111);stroke:none;fill-opacity:1;stroke-opacity:1;" /><path d="M 517.8862 262.975 L 451.85202 263.925" style="stroke:rgb(253,127,111);stroke-width:1" /><circle cx="451.85202" cy="263.925" r="2" style="fill:rgb(253,127,111);stroke:none;fill-opacity:1;stroke-opacity:1;" /><path d="M 451.85202 263.925 L 405 264.525" style="stroke:rgb(253,127,111);stroke-width:1" /><circle cx="405" cy="264.525" r="2" style="fill:rgb(253,127,111);stroke:none;fill-opacity:1;stroke-opacity:1;" /><path d="M 405 264.525 L 338.96576 265.2275" style="stroke:rgb(253,127,111);stroke-width:1" /><circle cx="338.96576" cy="265.2275" r="2" style="fill:rgb(253,127,111);stroke:none;fill-opacity:1;stroke-opacity:1;" /><path d="M 338.96576 265.2275 L 292.11377 265.6175" style="stroke:rgb(253,127,111);stroke-width:1" /><circle cx="292.11377" cy="265.6175" r="2" style="fill:rgb(253,127,111);stroke:none;fill-opacity:1;stroke-opacity:1;" /><path d="M 292.11377 265.6175 L 255.7725 265.955" style="stroke:rgb(253,127,111);stroke-width:1" /><circle cx="255.7725" cy="265.955" r="2" style="fill:rgb(253,127,111);stroke:none;fill-opacity:1;stroke-opacity:1;" /><path d="M 255.7725 265.955 L 142.88626 266.725" style="stroke:rgb(253,127,111);stroke-width:1" /><circle cx="142.88626" cy="266.725" r="2" style="fill:rgb(253,127,111);stroke:none;fill-opacity:1;stroke-opacity:1;" /><path d="M 142.88626 266.725 L 30 267.34" style="stroke:rgb(253,127,111);stroke-width:1" /><circle cx="30" cy="267.34" r="2" style="fill:rgb(253,127,111);stroke:none;fill-opacity:1;stroke-opacity:1;" /><circle cx="780" cy="246.2025" r="2" style="fill:rgb(126,176,213);stroke:none;fill-opacity:1;stroke-opacity:1;" /><path d="M 780 246.2025 L 630.77246 252.575" style="stroke:rgb(126,176,213);stroke-width:1" /><circle cx="630.77246" cy="252.575" r="2" style="fill:rgb(126,176,213);stroke:none;fill-opacity:1;stroke-opacity:1;" /><path d="M 630.77246 252.575 L 517.8862 255.7225" style="stroke:rgb(126,176,213);stroke-width:1" /><circle cx="517.8862" cy="255.7225" r="2" style="fill:rgb(126,176,213);stroke:none;fill-opacity:1;stroke-opacity:1;" /><path d="M 517.8862 255.7225 L 451.85202 257.16" style="stroke:rgb(126,176,213);stroke-width:1" /><circle cx="451.85202" cy="257.16" r="2" style="fill:rgb(126,176,213);stroke:none;fill-opacity:1;stroke-opacity:1;" /><path d="M 451.85202 257.16 L 405 258.025" style="stroke:rgb(126,176,213);stroke-width:1" /><circle cx="405" cy="258.025" r="2" style="fill:rgb(126,176,213);stroke:none;fill-opacity:1;stroke-opacity:1;" /><path d="M 405 258.025 L 338.96576 259.1375" style="stroke:rgb(126,176,213);stroke-width:1" /><circle cx="338.96576" cy="259.1375" r="2" style="fill:rgb(126,176,213);stroke:none;fill-opacity:1;stroke-opacity:1;" /><path d="M 338.96576 259.1375 L 292.11377 259.67" style="stroke:rgb(126,176,213);stroke-width:1" /><circle cx="292.11377" cy="259.67" r="2" style="fill:rgb(126,176,213);stroke:none;fill-opacity:1;stroke-opacity:1;" /><path d="M 292.11377 259.67 L 255.7725 260.12" style="stroke:rgb(126,176,213);stroke-width:1" /><circle cx="255.7725" cy="260.12" r="2" style="fill:rgb(126,176,213);stroke:none;fill-opacity:1;stroke-opacity:1;" /><path d="M 255.7725 260.12 L 142.88626 261.2275" style="stroke:rgb(126,176,213);stroke-width:1" /><circle cx="142.88626" cy="261.2275" r="2" style="fill:rgb(126,176,213);stroke:none;fill-opacity:1;stroke-opacity:1;" /><path d="M 142.88626 261.2275 L 30 262.0875" style="stroke:rgb(126,176,213);stroke-width:1" /><circle cx="30" cy="262.0875" r="2" style="fill:rgb(126,176,213);stroke:none;fill-opacity:1;stroke-opacity:1;" /><circle cx="780" cy="246.1775" r="2" style="fill:rgb(119,211,179);stroke:none;fill-opacity:1;stroke-opacity:1;" /><path d="M 780 246.1775 L 630.77246 252.74" style="stroke:rgb(119,211,179);stroke-width:1" /><circle cx="630.77246" cy="252.74" r="2" style="fill:rgb(119,211,179);stroke:none;fill-opacity:1;stroke-opacity:1;" /><path d="M 630.77246 252.74 L 517.8862 256.1575" style="stroke:rgb(119,211,179);stroke-width:1" /><circle cx="517.8862" cy="256.1575" r="2" style="fill:rgb(119,211,179);stroke:none;fill-opacity:1;stroke-opacity:1;" /><path d="M 517.8862 256.1575 L 451.85202 257.905" style="stroke:rgb(119,211,179);stroke-width:1" /><circle cx="451.85202" cy="257.905" r="2" style="fill:rgb(119,211,179);stroke:none;fill-opacity:1;stroke-opacity:1;" /><path d="M 451.85202 257.905 L 405 258.9175" style="stroke:rgb(119,211,179);stroke-width:1" /><circle cx="405" cy="258.9175" r="2" style="fill:rgb(119,211,179);stroke:none;fill-opacity:1;stroke-opacity:1;" /><path d="M 405 258.9175 L 338.96576 260.265" style="stroke:rgb(119,211,179);stroke-width:1" /><circle cx="338.96576" cy="260.265" r="2" style="fill:rgb(119,211,179);stroke:none;fill-opacity:1;stroke-opacity:1;" /><path d="M 338.96576 260.265 L 292.11377 261.03" style="stroke:rgb(119,211,179);stroke-width:1" /><circle cx="292.11377" cy="261.03" r="2" style="fill:rgb(119,211,179);stroke:none;fill-opacity:1;stroke-opacity:1;" /><path d="M 292.11377 261.03 L 255.7725 261.625" style="stroke:rgb(119,211,179);stroke-width:1" /><circle cx="255.7725" cy="261.625" r="2" style="fill:rgb(119,211,179);stroke:none;fill-opacity:1;stroke-opacity:1;" /><path d="M 255.7725 261.625 L 142.88626 263.28" style="stroke:rgb(119,211,179);stroke-width:1" /><circle cx="142.88626" cy="263.28" r="2" style="fill:rgb(119,211,179);stroke:none;fill-opacity:1;stroke-opacity:1;" /><path d="M 142.88626 263.28 L 30 264.445" style="stroke:rgb(119,211,179);stroke-width:1" /><circle cx="30" cy="264.445" r="2" style="fill:rgb(119,211,179);stroke:none;fill-opacity:1;stroke-opacity:1;" /><circle cx="780" cy="226.58499" r="2" style="fill:rgb(50,125,209);stroke:none;fill-opacity:1;stroke-opacity:1;" /><path d="M 780 226.58499 L 630.77246 239.8875" style="stroke:rgb(50,125,209);stroke-width:1" /><circle cx="630.77246" cy="239.8875" r="2" style="fill:rgb(50,125,209);stroke:none;fill-opacity:1;stroke-opacity:1;" /><path d="M 630.77246 239.8875 L 517.8862 246.4525" style="stroke:rgb(50,125,209);stroke-width:1" /><circle cx="517.8862" cy="246.4525" r="2" style="fill:rgb(50,125,209);stroke:none;fill-opacity:1;stroke-opacity:1;" /><path d="M 517.8862 246.4525 L 451.85202 249.44" style="stroke:rgb(50,125,209);stroke-width:1" /><circle cx="451.85202" cy="249.44" r="2" style="fill:rgb(50,125,209);stroke:none;fill-opacity:1;stroke-opacity:1;" /><path d="M 451.85202 249.44 L 405 251.2825" style="stroke:rgb(50,125,209);stroke-width:1" /><circle cx="405" cy="251.2825" r="2" style="fill:rgb(50,125,209);stroke:none;fill-opacity:1;stroke-opacity:1;" /><path d="M 405 251.2825 L 338.96576 253.4825" style="stroke:rgb(50,125,209);stroke-width:1" /><circle cx="338.96576" cy="253.4825" r="2" style="fill:rgb(50,125,209);stroke:none;fill-opacity:1;stroke-opacity:1;" /><path d="M 338.96576 253.4825 L 292.11377 254.7375" style="stroke:rgb(50,125,209);stroke-width:1" /><circle cx="292.11377" cy="254.7375" r="2" style="fill:rgb(50,125,209);stroke:none;fill-opacity:1;stroke-opacity:1;" /><path d="M 292.11377 254.7375 L 255.7725 255.7725" style="stroke:rgb(50,125,209);stroke-width:1" /><circle cx="255.7725" cy="255.7725" r="2" style="fill:rgb(50,125,209);stroke:none;fill-opacity:1;stroke-opacity:1;" /><path d="M 255.7725 255.7725 L 142.88626 258.0725" style="stroke:rgb(50,125,209);stroke-width:1" /><circle cx="142.88626" cy="258.0725" r="2" style="fill:rgb(50,125,209);stroke:none;fill-opacity:1;stroke-opacity:1;" /><path d="M 142.88626 258.0725 L 30 259.9825" style="stroke:rgb(50,125,209);stroke-width:1" /><circle cx="30" cy="259.9825" r="2" style="fill:rgb(50,125,209);stroke:none;fill-opacity:1;stroke-opacity:1;" /><circle cx="780" cy="156.6575" r="2" style="fill:rgb(255,238,101);stroke:none;fill-opacity:1;stroke-opacity:1;" /><path d="M 780 156.6575 L 630.77246 202.60501" style="stroke:rgb(255,238,101);stroke-width:1" /><circle cx="630.77246" cy="202.60501" r="2" style="fill:rgb(255,238,101);stroke:none;fill-opacity:1;stroke-opacity:1;" /><path d="M 630.77246 202.60501 L 517.8862 218.055" style="stroke:rgb(255,238,101);stroke-width:1" /><circle cx="517.8862" cy="218.055" r="2" style="fill:rgb(255,238,101);stroke:none;fill-opacity:1;stroke-opacity:1;" /><path d="M 517.8862 218.055 L 451.85202 229.325" style="stroke:rgb(255,238,101);stroke-width:1" /><circle cx="451.85202" cy="229.325" r="2" style="fill:rgb(255,238,101);stroke:none;fill-opacity:1;stroke-opacity:1;" /><path d="M 451.85202 229.325 L 405 236.3675" style="stroke:rgb(255,238,101);stroke-width:1" /><circle cx="405" cy="236.3675" r="2" style="fill:rgb(255,238,101);stroke:none;fill-opacity:1;stroke-opacity:1;" /><path d="M 405 236.3675 L 338.96576 241.08" style="stroke:rgb(255,238,101);stroke-width:1" /><circle cx="338.96576" cy="241.08" r="2" style="fill:rgb(255,238,101);stroke:none;fill-opacity:1;stroke-opacity:1;" /><path d="M 338.96576 241.08 L 292.11377 243.765" style="stroke:rgb(255,238,101);stroke-width:1" /><circle cx="292.11377" cy="243.765" r="2" style="fill:rgb(255,238,101);stroke:none;fill-opacity:1;stroke-opacity:1;" /><path d="M 292.11377 243.765 L 255.7725 247.0325" style="stroke:rgb(255,238,101);stroke-width:1" /><circle cx="255.7725" cy="247.0325" r="2" style="fill:rgb(255,238,101);stroke:none;fill-opacity:1;stroke-opacity:1;" /><path d="M 255.7725 247.0325 L 142.88626 255.0125" style="stroke:rgb(255,238,101);stroke-width:1" /><circle cx="142.88626" cy="255.0125" r="2" style="fill:rgb(255,238,101);stroke:none;fill-opacity:1;stroke-opacity:1;" /><path d="M 142.88626 255.0125 L 30 258.6775" style="stroke:rgb(255,238,101);stroke-width:1" /><circle cx="30" cy="258.6775" r="2" style="fill:rgb(255,238,101);stroke:none;fill-opacity:1;stroke-opacity:1;" /><rect x="676" y="16" width="80" height="196" ry="4" style="fill:rgb(30,30,30);stroke:none;fill-opacity:0.8;stroke-opacity:1;" /><rect x="680" y="20" width="20" height="20" ry="2" style="fill:rgb(253,127,111);stroke:none;fill-opacity:1;stroke-opacity:1;" /><text x="705" y="33" style="font-size:10px;fill:rgb(255,255,255);text-anchor:start;text-align:left;"> fwd-diff </text><rect x="680" y="41" width="20" height="20" ry="2" style="fill:rgb(255,181,90);stroke:none;fill-opacity:1;stroke-opacity:1;" /><text x="705" y="54" style="font-size:10px;fill:rgb(255,255,255);text-anchor:start;text-align:left;"> hain </text><rect x="680" y="62" width="20" height="20" ry="2" style="fill:rgb(50,125,209);stroke:none;fill-opacity:1;stroke-opacity:1;" /><text x="705" y="75" style="font-size:10px;fill:rgb(255,255,255);text-anchor:start;text-align:left;"> levien </text><rect x="680" y="83" width="20" height="20" ry="2" style="fill:rgb(119,211,179);stroke:none;fill-opacity:1;stroke-opacity:1;" /><text x="705" y="96" style="font-size:10px;fill:rgb(255,255,255);text-anchor:start;text-align:left;"> levien-linear </text><rect x="680" y="104" width="20" height="20" ry="2" style="fill:rgb(126,176,213);stroke:none;fill-opacity:1;stroke-opacity:1;" /><text x="705" y="117" style="font-size:10px;fill:rgb(255,255,255);text-anchor:start;text-align:left;"> levien-simd </text><rect x="680" y="125" width="20" height="20" ry="2" style="fill:rgb(128,214,87);stroke:none;fill-opacity:1;stroke-opacity:1;" /><text x="705" y="138" style="font-size:10px;fill:rgb(255,255,255);text-anchor:start;text-align:left;"> linear </text><rect x="680" y="146" width="20" height="20" ry="2" style="fill:rgb(255,238,101);stroke:none;fill-opacity:1;stroke-opacity:1;" /><text x="705" y="159" style="font-size:10px;fill:rgb(255,255,255);text-anchor:start;text-align:left;"> recursive </text><rect x="680" y="167" width="20" height="20" ry="2" style="fill:rgb(253,204,229);stroke:none;fill-opacity:1;stroke-opacity:1;" /><text x="705" y="180" style="font-size:10px;fill:rgb(255,255,255);text-anchor:start;text-align:left;"> wang </text><rect x="680" y="188" width="20" height="20" ry="2" style="fill:rgb(199,126,190);stroke:none;fill-opacity:1;stroke-opacity:1;" /><text x="705" y="201" style="font-size:10px;fill:rgb(255,255,255);text-anchor:start;text-align:left;"> wang-simd </text><text x="400" y="30" style="font-size:20px;fill:rgb(255,255,255);text-anchor:middle;text-align:center;"> Nehab </text><text x="400" y="42" style="font-size:8px;fill:rgb(200,200,200);text-anchor:middle;text-align:center;"> Normalized performance score (lower is better) </text></svg>