<svg xmlns="http://www.w3.org/2000/svg" viewBox="0 0 800 300"><rect x="0" y="0" width="800" height="300" ry="6" style="fill:rgb(30,30,30);stroke:none;fill-opacity:1;stroke-opacity:1;" /><path d="M 30 20 L 30 270" style="stroke:rgb(200,200,200);stroke-width:1" /><path d="M 30 270 L 780 270" style="stroke:rgb(200,200,200);stroke-width:1" /><path d="M 780 270 L 780 272" style="stroke:rgb(200,200,200);stroke-width:1" /><text x="780" y="282" style="font-size:10px;fill:rgb(200,200,200);text-anchor:middle;text-align:center;"> 0.01 </text><path d="M 630.77246 270 L 630.77246 272" style="stroke:rgb(200,200,200);stroke-width:1" /><text x="630.77246" y="282" style="font-size:10px;fill:rgb(200,200,200);text-anchor:middle;text-align:center;"> 0.025 </text><path d="M 517.8862 270 L 517.8862 272" style="stroke:rgb(200,200,200);stroke-width:1" /><text x="517.8862" y="282" style="font-size:10px;fill:rgb(200,200,200);text-anchor:middle;text-align:center;"> 0.05 </text><path d="M 451.85202 270 L 451.85202 272" style="stroke:rgb(200,200,200);stroke-width:1" /><text x="451.85202" y="282" style="font-size:10px;fill:rgb(200,200,200);text-anchor:middle;text-align:center;"> 0.075 </text><path d="M 405 270 L 405 272" style="stroke:rgb(200,200,200);stroke-width:1" /><text x="405" y="282" style="font-size:10px;fill:rgb(200,200,200);text-anchor:middle;text-align:center;"> 0.1 </text><path d="M 338.96576 270 L 338.96576 272" style="stroke:rgb(200,200,200);stroke-width:1" /><text x="338.96576" y="282" style="font-size:10px;fill:rgb(200,200,200);text-anchor:middle;text-align:center;"> 0.15 </text><path d="M 292.11377 270 L 292.11377 272" style="stroke:rgb(200,200,200);stroke-width:1" /><text x="292.11377" y="282" style="font-size:10px;fill:rgb(200,200,200);text-anchor:middle;text-align:center;"> 0.2 </text><path d="M 255.7725 270 L 255.7725 272" style="stroke:rgb(200,200,200);stroke-width:1" /><text x="255.7725" y="282" style="font-size:10px;fill:rgb(200,200,200);text-anchor:middle;text-align:center;"> 0.25 </text><path d="M 142.88626 270 L 142.88626 272" style="stroke:rgb(200,200,200);stroke-width:1" /><text x="142.88626" y="282" style="font-size:10px;fill:rgb(200,200,200);text-anchor:middle;text-align:center;"> 0.5 </text><path d="M 30 270 L 30 272" style="stroke:rgb(200,200,200);stroke-width:1" /><text x="30" y="282" style="font-size:10px;fill:rgb(200,200,200);text-anchor:middle;text-align:center;"> 1 </text><path d="M 28 270 L 30 270" style="stroke:rgb(200,200,200);stroke-width:1" /><text x="26" y="274" style="font-size:10px;fill:rgb(200,200,200);text-anchor:end;text-align:right;"> 0 </text><path d="M 28 207.5 L 30 207.5" style="stroke:rgb(200,200,200);stroke-width:1" /><text x="26" y="211.5" style="font-size:10px;fill:rgb(200,200,200);text-anchor:end;text-align:right;"> 0.25 </text><path d="M 28 145 L 30 145" style="stroke:rgb(200,200,200);stroke-width:1" /><text x="26" y="149" style="font-size:10px;fill:rgb(200,200,200);text-anchor:end;text-align:right;"> 0.5 </text><path d="M 28 82.5 L 30 82.5" style="stroke:rgb(200,200,200);stroke-width:1" /><text x="26" y="86.5" style="font-size:10px;fill:rgb(200,200,200);text-anchor:end;text-align:right;"> 0.75 </text><path d="M 28 20 L 30 20" style="stroke:rgb(200,200,200);stroke-width:1" /><text x="26" y="24" style="font-size:10px;fill:rgb(200,200,200);text-anchor:end;text-align:right;"> 1 </text><text x="400" y="294" style="font-size:10px;fill:rgb(200,200,200);text-anchor:middle;text-align:center;"> Tolerance </text><circle cx="780" cy="237.6575" r="2" style="fill:rgb(126,176,213);stroke:none;fill-opacity:1;stroke-opacity:1;" /><path d="M 780 237.6575 L 630.77246 244.91" style="stroke:rgb(126,176,213);stroke-width:1" /><circle cx="630.77246" cy="244.91" r="2" style="fill:rgb(126,176,213);stroke:none;fill-opacity:1;stroke-opacity:1;" /><path d="M 630.77246 244.91 L 517.8862 248.3375" style="stroke:rgb(126,176,213);stroke-width:1" /><circle cx="517.8862" cy="248.3375" r="2" style="fill:rgb(126,176,213);stroke:none;fill-opacity:1;stroke-opacity:1;" /><path d="M 517.8862 248.3375 L 451.85202 250.1" style="stroke:rgb(126,176,213);stroke-width:1" /><circle cx="451.85202" cy="250.1" r="2" style="fill:rgb(126,176,213);stroke:none;fill-opacity:1;stroke-opacity:1;" /><path d="M 451.85202 250.1 L 405 251.1375" style="stroke:rgb(126,176,213);stroke-width:1" /><circle cx="405" cy="251.1375" r="2" style="fill:rgb(126,176,213);stroke:none;fill-opacity:1;stroke-opacity:1;" /><path d="M 405 251.1375 L 338.96576 252.41501" style="stroke:rgb(126,176,213);stroke-width:1" /><circle cx="338.96576" cy="252.41501" r="2" style="fill:rgb(126,176,213);stroke:none;fill-opacity:1;stroke-opacity:1;" /><path d="M 338.96576 252.41501 L 292.11377 253.0175" style="stroke:rgb(126,176,213);stroke-width:1" /><circle cx="292.11377" cy="253.0175" r="2" style="fill:rgb(126,176,213);stroke:none;fill-opacity:1;stroke-opacity:1;" /><path d="M 292.11377 253.0175 L 255.7725 253.6175" style="stroke:rgb(126,176,213);stroke-width:1" /><circle cx="255.7725" cy="253.6175" r="2" style="fill:rgb(126,176,213);stroke:none;fill-opacity:1;stroke-opacity:1;" /><path d="M 255.7725 253.6175 L 142.88626 254.9625" style="stroke:rgb(126,176,213);stroke-width:1" /><circle cx="142.88626" cy="254.9625" r="2" style="fill:rgb(126,176,213);stroke:none;fill-opacity:1;stroke-opacity:1;" /><path d="M 142.88626 254.9625 L 30 255.9925" style="stroke:rgb(126,176,213);stroke-width:1" /><circle cx="30" cy="255.9925" r="2" style="fill:rgb(126,176,213);stroke:none;fill-opacity:1;stroke-opacity:1;" /><circle cx="780" cy="156.54251" r="2" style="fill:rgb(255,238,101);stroke:none;fill-opacity:1;stroke-opacity:1;" /><path d="M 780 156.54251 L 630.77246 202.675" style="stroke:rgb(255,238,101);stroke-width:1" /><circle cx="630.77246" cy="202.675" r="2" style="fill:rgb(255,238,101);stroke:none;fill-opacity:1;stroke-opacity:1;" /><path d="M 630.77246 202.675 L 517.8862 218.1575" style="stroke:rgb(255,238,101);stroke-width:1" /><circle cx="517.8862" cy="218.1575" r="2" style="fill:rgb(255,238,101);stroke:none;fill-opacity:1;stroke-opacity:1;" /><path d="M 517.8862 218.1575 L 451.85202 229.22751" style="stroke:rgb(255,238,101);stroke-width:1" /><circle cx="451.85202" cy="229.22751" r="2" style="fill:rgb(255,238,101);stroke:none;fill-opacity:1;stroke-opacity:1;" /><path d="M 451.85202 229.22751 L 405 236.2675" style="stroke:rgb(255,238,101);stroke-width:1" /><circle cx="405" cy="236.2675" r="2" style="fill:rgb(255,238,101);stroke:none;fill-opacity:1;stroke-opacity:1;" /><path d="M 405 236.2675 L 338.96576 240.985" style="stroke:rgb(255,238,101);stroke-width:1" /><circle cx="338.96576" cy="240.985" r="2" style="fill:rgb(255,238,101);stroke:none;fill-opacity:1;stroke-opacity:1;" /><path d="M 338.96576 240.985 L 292.11377 244.0075" style="stroke:rgb(255,238,101);stroke-width:1" /><circle cx="292.11377" cy="244.0075" r="2" style="fill:rgb(255,238,101);stroke:none;fill-opacity:1;stroke-opacity:1;" /><path d="M 292.11377 244.0075 L 255.7725 247.005" style="stroke:rgb(255,238,101);stroke-width:1" /><circle cx="255.7725" cy="247.005" r="2" style="fill:rgb(255,238,101);stroke:none;fill-opacity:1;stroke-opacity:1;" /><path d="M 255.7725 247.005 L 142.88626 254.9475" style="stroke:rgb(255,238,101);stroke-width:1" /><circle cx="142.88626" cy="254.9475" r="2" style="fill:rgb(255,238,101);stroke:none;fill-opacity:1;stroke-opacity:1;" /><path d="M 142.88626 254.9475 L 30 258.6525" style="stroke:rgb(255,238,101);stroke-width:1" /><circle cx="30" cy="258.6525" r="2" style="fill:rgb(255,238,101);stroke:none;fill-opacity:1;stroke-opacity:1;" /><circle cx="780" cy="254.93" r="2" style="fill:rgb(253,127,111);stroke:none;fill-opacity:1;stroke-opacity:1;" /><path d="M 780 254.93 L 630.77246 259.3875" style="stroke:rgb(253,127,111);stroke-width:1" /><circle cx="630.77246" cy="259.3875" r="2" style="fill:rgb(253,127,111);stroke:none;fill-opacity:1;stroke-opacity:1;" /><path d="M 630.77246 259.3875 L 517.8862 261.5925" style="stroke:rgb(253,127,111);stroke-width:1" /><circle cx="517.8862" cy="261.5925" r="2" style="fill:rgb(253,127,111);stroke:none;fill-opacity:1;stroke-opacity:1;" /><path d="M 517.8862 261.5925 L 451.85202 262.6075" style="stroke:rgb(253,127,111);stroke-width:1" /><circle cx="451.85202" cy="262.6075" r="2" style="fill:rgb(253,127,111);stroke:none;fill-opacity:1;stroke-opacity:1;" /><path d="M 451.85202 262.6075 L 405 263.265" style="stroke:rgb(253,127,111);stroke-width:1" /><circle cx="405" cy="263.265" r="2" style="fill:rgb(253,127,111);stroke:none;fill-opacity:1;stroke-opacity:1;" /><path d="M 405 263.265 L 338.96576 264.0475" style="stroke:rgb(253,127,111);stroke-width:1" /><circle cx="338.96576" cy="264.0475" r="2" style="fill:rgb(253,127,111);stroke:none;fill-opacity:1;stroke-opacity:1;" /><path d="M 338.96576 264.0475 L 292.11377 264.5525" style="stroke:rgb(253,127,111);stroke-width:1" /><circle cx="292.11377" cy="264.5525" r="2" style="fill:rgb(253,127,111);stroke:none;fill-opacity:1;stroke-opacity:1;" /><path d="M 292.11377 264.5525 L 255.7725 264.94" style="stroke:rgb(253,127,111);stroke-width:1" /><circle cx="255.7725" cy="264.94" r="2" style="fill:rgb(253,127,111);stroke:none;fill-opacity:1;stroke-opacity:1;" /><path d="M 255.7725 264.94 L 142.88626 265.8575" style="stroke:rgb(253,127,111);stroke-width:1" /><circle cx="142.88626" cy="265.8575" r="2" style="fill:rgb(253,127,111);stroke:none;fill-opacity:1;stroke-opacity:1;" /><path d="M 142.88626 265.8575 L 30 266.5875" style="stroke:rgb(253,127,111);stroke-width:1" /><circle cx="30" cy="266.5875" r="2" style="fill:rgb(253,127,111);stroke:none;fill-opacity:1;stroke-opacity:1;" /><circle cx="780" cy="134.8375" r="2" style="fill:rgb(128,214,87);stroke:none;fill-opacity:1;stroke-opacity:1;" /><path d="M 780 134.8375 L 630.77246 184.5375" style="stroke:rgb(128,214,87);stroke-width:1" /><circle cx="630.77246" cy="184.5375" r="2" style="fill:rgb(128,214,87);stroke:none;fill-opacity:1;stroke-opacity:1;" /><path d="M 630.77246 184.5375 L 517.8862 209.065" style="stroke:rgb(128,214,87);stroke-width:1" /><circle cx="517.8862" cy="209.065" r="2" style="fill:rgb(128,214,87);stroke:none;fill-opacity:1;stroke-opacity:1;" /><path d="M 517.8862 209.065 L 451.85202 220.54001" style="stroke:rgb(128,214,87);stroke-width:1" /><circle cx="451.85202" cy="220.54001" r="2" style="fill:rgb(128,214,87);stroke:none;fill-opacity:1;stroke-opacity:1;" /><path d="M 451.85202 220.54001 L 405 227.1725" style="stroke:rgb(128,214,87);stroke-width:1" /><circle cx="405" cy="227.1725" r="2" style="fill:rgb(128,214,87);stroke:none;fill-opacity:1;stroke-opacity:1;" /><path d="M 405 227.1725 L 338.96576 234.9075" style="stroke:rgb(128,214,87);stroke-width:1" /><circle cx="338.96576" cy="234.9075" r="2" style="fill:rgb(128,214,87);stroke:none;fill-opacity:1;stroke-opacity:1;" /><path d="M 338.96576 234.9075 L 292.11377 239.8575" style="stroke:rgb(128,214,87);stroke-width:1" /><circle cx="292.11377" cy="239.8575" r="2" style="fill:rgb(128,214,87);stroke:none;fill-opacity:1;stroke-opacity:1;" /><path d="M 292.11377 239.8575 L 255.7725 243.22" style="stroke:rgb(128,214,87);stroke-width:1" /><circle cx="255.7725" cy="243.22" r="2" style="fill:rgb(128,214,87);stroke:none;fill-opacity:1;stroke-opacity:1;" /><path d="M 255.7725 243.22 L 142.88626 251.1175" style="stroke:rgb(128,214,87);stroke-width:1" /><circle cx="142.88626" cy="251.1175" r="2" style="fill:rgb(128,214,87);stroke:none;fill-opacity:1;stroke-opacity:1;" /><path d="M 142.88626 251.1175 L 30 256.8175" style="stroke:rgb(128,214,87);stroke-width:1" /><circle cx="30" cy="256.8175" r="2" style="fill:rgb(128,214,87);stroke:none;fill-opacity:1;stroke-opacity:1;" /><circle cx="780" cy="240.56" r="2" style="fill:rgb(119,211,179);stroke:none;fill-opacity:1;stroke-opacity:1;" /><path d="M 780 240.56 L 630.77246 248.9625" style="stroke:rgb(119,211,179);stroke-width:1" /><circle cx="630.77246" cy="248.9625" r="2" style="fill:rgb(119,211,179);stroke:none;fill-opacity:1;stroke-opacity:1;" /><path d="M 630.77246 248.9625 L 517.8862 253.3125" style="stroke:rgb(119,211,179);stroke-width:1" /><circle cx="517.8862" cy="253.3125" r="2" style="fill:rgb(119,211,179);stroke:none;fill-opacity:1;stroke-opacity:1;" /><path d="M 517.8862 253.3125 L 451.85202 255.58" style="stroke:rgb(119,211,179);stroke-width:1" /><circle cx="451.85202" cy="255.58" r="2" style="fill:rgb(119,211,179);stroke:none;fill-opacity:1;stroke-opacity:1;" /><path d="M 451.85202 255.58 L 405 256.9425" style="stroke:rgb(119,211,179);stroke-width:1" /><circle cx="405" cy="256.9425" r="2" style="fill:rgb(119,211,179);stroke:none;fill-opacity:1;stroke-opacity:1;" /><path d="M 405 256.9425 L 338.96576 258.6375" style="stroke:rgb(119,211,179);stroke-width:1" /><circle cx="338.96576" cy="258.6375" r="2" style="fill:rgb(119,211,179);stroke:none;fill-opacity:1;stroke-opacity:1;" /><path d="M 338.96576 258.6375 L 292.11377 259.6075" style="stroke:rgb(119,211,179);stroke-width:1" /><circle cx="292.11377" cy="259.6075" r="2" style="fill:rgb(119,211,179);stroke:none;fill-opacity:1;stroke-opacity:1;" /><path d="M 292.11377 259.6075 L 255.7725 260.4125" style="stroke:rgb(119,211,179);stroke-width:1" /><circle cx="255.7725" cy="260.4125" r="2" style="fill:rgb(119,211,179);stroke:none;fill-opacity:1;stroke-opacity:1;" /><path d="M 255.7725 260.4125 L 142.88626 262.56" style="stroke:rgb(119,211,179);stroke-width:1" /><circle cx="142.88626" cy="262.56" r="2" style="fill:rgb(119,211,179);stroke:none;fill-opacity:1;stroke-opacity:1;" /><path d="M 142.88626 262.56 L 30 263.955" style="stroke:rgb(119,211,179);stroke-width:1" /><circle cx="30" cy="263.955" r="2" style="fill:rgb(119,211,179);stroke:none;fill-opacity:1;stroke-opacity:1;" /><circle cx="780" cy="212.32" r="2" style="fill:rgb(50,125,209);stroke:none;fill-opacity:1;stroke-opacity:1;" /><path d="M 780 212.32 L 630.77246 227.9675" style="stroke:rgb(50,125,209);stroke-width:1" /><circle cx="630.77246" cy="227.9675" r="2" style="fill:rgb(50,125,209);stroke:none;fill-opacity:1;stroke-opacity:1;" /><path d="M 630.77246 227.9675 L 517.8862 235.8675" style="stroke:rgb(50,125,209);stroke-width:1" /><circle cx="517.8862" cy="235.8675" r="2" style="fill:rgb(50,125,209);stroke:none;fill-opacity:1;stroke-opacity:1;" /><path d="M 517.8862 235.8675 L 451.85202 239.545" style="stroke:rgb(50,125,209);stroke-width:1" /><circle cx="451.85202" cy="239.545" r="2" style="fill:rgb(50,125,209);stroke:none;fill-opacity:1;stroke-opacity:1;" /><path d="M 451.85202 239.545 L 405 241.925" style="stroke:rgb(50,125,209);stroke-width:1" /><circle cx="405" cy="241.925" r="2" style="fill:rgb(50,125,209);stroke:none;fill-opacity:1;stroke-opacity:1;" /><path d="M 405 241.925 L 338.96576 244.6975" style="stroke:rgb(50,125,209);stroke-width:1" /><circle cx="338.96576" cy="244.6975" r="2" style="fill:rgb(50,125,209);stroke:none;fill-opacity:1;stroke-opacity:1;" /><path d="M 338.96576 244.6975 L 292.11377 246.19" style="stroke:rgb(50,125,209);stroke-width:1" /><circle cx="292.11377" cy="246.19" r="2" style="fill:rgb(50,125,209);stroke:none;fill-opacity:1;stroke-opacity:1;" /><path d="M 292.11377 246.19 L 255.7725 247.435" style="stroke:rgb(50,125,209);stroke-width:1" /><circle cx="255.7725" cy="247.435" r="2" style="fill:rgb(50,125,209);stroke:none;fill-opacity:1;stroke-opacity:1;" /><path d="M 255.7725 247.435 L 142.88626 250.38" style="stroke:rgb(50,125,209);stroke-width:1" /><circle cx="142.88626" cy="250.38" r="2" style="fill:rgb(50,125,209);stroke:none;fill-opacity:1;stroke-opacity:1;" /><path d="M 142.88626 250.38 L 30 252.79001" style="stroke:rgb(50,125,209);stroke-width:1" /><circle cx="30" cy="252.79001" r="2" style="fill:rgb(50,125,209);stroke:none;fill-opacity:1;stroke-opacity:1;" /><circle cx="780" cy="253.22" r="2" style="fill:rgb(253,204,229);stroke:none;fill-opacity:1;stroke-opacity:1;" /><path d="M 780 253.22 L 630.77246 258.335" style="stroke:rgb(253,204,229);stroke-width:1" /><circle cx="630.77246" cy="258.335" r="2" style="fill:rgb(253,204,229);stroke:none;fill-opacity:1;stroke-opacity:1;" /><path d="M 630.77246 258.335 L 517.8862 260.8875" style="stroke:rgb(253,204,229);stroke-width:1" /><circle cx="517.8862" cy="260.8875" r="2" style="fill:rgb(253,204,229);stroke:none;fill-opacity:1;stroke-opacity:1;" /><path d="M 517.8862 260.8875 L 451.85202 262.0325" style="stroke:rgb(253,204,229);stroke-width:1" /><circle cx="451.85202" cy="262.0325" r="2" style="fill:rgb(253,204,229);stroke:none;fill-opacity:1;stroke-opacity:1;" /><path d="M 451.85202 262.0325 L 405 262.75" style="stroke:rgb(253,204,229);stroke-width:1" /><circle cx="405" cy="262.75" r="2" style="fill:rgb(253,204,229);stroke:none;fill-opacity:1;stroke-opacity:1;" /><path d="M 405 262.75 L 338.96576 263.6475" style="stroke:rgb(253,204,229);stroke-width:1" /><circle cx="338.96576" cy="263.6475" r="2" style="fill:rgb(253,204,229);stroke:none;fill-opacity:1;stroke-opacity:1;" /><path d="M 338.96576 263.6475 L 292.11377 264.2575" style="stroke:rgb(253,204,229);stroke-width:1" /><circle cx="292.11377" cy="264.2575" r="2" style="fill:rgb(253,204,229);stroke:none;fill-opacity:1;stroke-opacity:1;" /><path d="M 292.11377 264.2575 L 255.7725 264.65" style="stroke:rgb(253,204,229);stroke-width:1" /><circle cx="255.7725" cy="264.65" r="2" style="fill:rgb(253,204,229);stroke:none;fill-opacity:1;stroke-opacity:1;" /><path d="M 255.7725 264.65 L 142.88626 265.695" style="stroke:rgb(253,204,229);stroke-width:1" /><circle cx="142.88626" cy="265.695" r="2" style="fill:rgb(253,204,229);stroke:none;fill-opacity:1;stroke-opacity:1;" /><path d="M 142.88626 265.695 L 30 266.5025" style="stroke:rgb(253,204,229);stroke-width:1" /><circle cx="30" cy="266.5025" r="2" style="fill:rgb(253,204,229);stroke:none;fill-opacity:1;stroke-opacity:1;" /><circle cx="780" cy="258.335" r="2" style="fill:rgb(199,126,190);stroke:none;fill-opacity:1;stroke-opacity:1;" /><path d="M 780 258.335 L 630.77246 261.4525" style="stroke:rgb(199,126,190);stroke-width:1" /><circle cx="630.77246" cy="261.4525" r="2" style="fill:rgb(199,126,190);stroke:none;fill-opacity:1;stroke-opacity:1;" /><path d="M 630.77246 261.4525 L 517.8862 263.03" style="stroke:rgb(199,126,190);stroke-width:1" /><circle cx="517.8862" cy="263.03" r="2" style="fill:rgb(199,126,190);stroke:none;fill-opacity:1;stroke-opacity:1;" /><path d="M 517.8862 263.03 L 451.85202 263.805" style="stroke:rgb(199,126,190);stroke-width:1" /><circle cx="451.85202" cy="263.805" r="2" style="fill:rgb(199,126,190);stroke:none;fill-opacity:1;stroke-opacity:1;" /><path d="M 451.85202 263.805 L 405 264.295" style="stroke:rgb(199,126,190);stroke-width:1" /><circle cx="405" cy="264.295" r="2" style="fill:rgb(199,126,190);stroke:none;fill-opacity:1;stroke-opacity:1;" /><path d="M 405 264.295 L 338.96576 264.9375" style="stroke:rgb(199,126,190);stroke-width:1" /><circle cx="338.96576" cy="264.9375" r="2" style="fill:rgb(199,126,190);stroke:none;fill-opacity:1;stroke-opacity:1;" /><path d="M 338.96576 264.9375 L 292.11377 265.36" style="stroke:rgb(199,126,190);stroke-width:1" /><circle cx="292.11377" cy="265.36" r="2" style="fill:rgb(199,126,190);stroke:none;fill-opacity:1;stroke-opacity:1;" /><path d="M 292.11377 265.36 L 255.7725 265.66" style="stroke:rgb(199,126,190);stroke-width:1" /><circle cx="255.7725" cy="265.66" r="2" style="fill:rgb(199,126,190);stroke:none;fill-opacity:1;stroke-opacity:1;" /><path d="M 255.7725 265.66 L 142.88626 266.4" style="stroke:rgb(199,126,190);stroke-width:1" /><circle cx="142.88626" cy="266.4" r="2" style="fill:rgb(199,126,190);stroke:none;fill-opacity:1;stroke-opacity:1;" /><path d="M 142.88626 266.4 L 30 267.0025" style="stroke:rgb(199,126,190);stroke-width:1" /><circle cx="30" cy="267.0025" r="2" style="fill:rgb(199,126,190);stroke:none;fill-opacity:1;stroke-opacity:1;" /><circle cx="780" cy="20" r="2" style="fill:rgb(255,181,90);stroke:none;fill-opacity:1;stroke-opacity:1;" /><path d="M 780 20 L 630.77246 109.994995" style="stroke:rgb(255,181,90);stroke-width:1" /><circle cx="630.77246" cy="109.994995" r="2" style="fill:rgb(255,181,90);stroke:none;fill-opacity:1;stroke-opacity:1;" /><path d="M 630.77246 109.994995 L 517.8862 155.555" style="stroke:rgb(255,181,90);stroke-width:1" /><circle cx="517.8862" cy="155.555" r="2" style="fill:rgb(255,181,90);stroke:none;fill-opacity:1;stroke-opacity:1;" /><path d="M 517.8862 155.555 L 451.85202 175.825" style="stroke:rgb(255,181,90);stroke-width:1" /><circle cx="451.85202" cy="175.825" r="2" style="fill:rgb(255,181,90);stroke:none;fill-opacity:1;stroke-opacity:1;" /><path d="M 451.85202 175.825 L 405 187.8775" style="stroke:rgb(255,181,90);stroke-width:1" /><circle cx="405" cy="187.8775" r="2" style="fill:rgb(255,181,90);stroke:none;fill-opacity:1;stroke-opacity:1;" /><path d="M 405 187.8775 L 338.96576 202.2575" style="stroke:rgb(255,181,90);stroke-width:1" /><circle cx="338.96576" cy="202.2575" r="2" style="fill:rgb(255,181,90);stroke:none;fill-opacity:1;stroke-opacity:1;" /><path d="M 338.96576 202.2575 L 292.11377 210.8275" style="stroke:rgb(255,181,90);stroke-width:1" /><circle cx="292.11377" cy="210.8275" r="2" style="fill:rgb(255,181,90);stroke:none;fill-opacity:1;stroke-opacity:1;" /><path d="M 292.11377 210.8275 L 255.7725 216.69" style="stroke:rgb(255,181,90);stroke-width:1" /><circle cx="255.7725" cy="216.69" r="2" style="fill:rgb(255,181,90);stroke:none;fill-opacity:1;stroke-opacity:1;" /><path d="M 255.7725 216.69 L 142.88626 231.20999" style="stroke:rgb(255,181,90);stroke-width:1" /><circle cx="142.88626" cy="231.20999" r="2" style="fill:rgb(255,181,90);stroke:none;fill-opacity:1;stroke-opacity:1;" /><path d="M 142.88626 231.20999 L 30 241.41501" style="stroke:rgb(255,181,90);stroke-width:1" /><circle cx="30" cy="241.41501" r="2" style="fill:rgb(255,181,90);stroke:none;fill-opacity:1;stroke-opacity:1;" /><rect x="676" y="16" width="80" height="196" ry="4" style="fill:rgb(30,30,30);stroke:none;fill-opacity:0.8;stroke-opacity:1;" /><rect x="680" y="20" width="20" height="20" ry="2" style="fill:rgb(253,127,111);stroke:none;fill-opacity:1;stroke-opacity:1;" /><text x="705" y="33" style="font-size:10px;fill:rgb(255,255,255);text-anchor:start;text-align:left;"> fwd-diff </text><rect x="680" y="41" width="20" height="20" ry="2" style="fill:rgb(255,181,90);stroke:none;fill-opacity:1;stroke-opacity:1;" /><text x="705" y="54" style="font-size:10px;fill:rgb(255,255,255);text-anchor:start;text-align:left;"> hain </text><rect x="680" y="62" width="20" height="20" ry="2" style="fill:rgb(50,125,209);stroke:none;fill-opacity:1;stroke-opacity:1;" /><text x="705" y="75" style="font-size:10px;fill:rgb(255,255,255);text-anchor:start;text-align:left;"> levien </text><rect x="680" y="83" width="20" height="20" ry="2" style="fill:rgb(119,211,179);stroke:none;fill-opacity:1;stroke-opacity:1;" /><text x="705" y="96" style="font-size:10px;fill:rgb(255,255,255);text-anchor:start;text-align:left;"> levien-linear </text><rect x="680" y="104" width="20" height="20" ry="2" style="fill:rgb(126,176,213);stroke:none;fill-opacity:1;stroke-opacity:1;" /><text x="705" y="117" style="font-size:10px;fill:rgb(255,255,255);text-anchor:start;text-align:left;"> levien-simd </text><rect x="680" y="125" width="20" height="20" ry="2" style="fill:rgb(128,214,87);stroke:none;fill-opacity:1;stroke-opacity:1;" /><text x="705" y="138" style="font-size:10px;fill:rgb(255,255,255);text-anchor:start;text-align:left;"> linear </text><rect x="680" y="146" width="20" height="20" ry="2" style="fill:rgb(255,238,101);stroke:none;fill-opacity:1;stroke-opacity:1;" /><text x="705" y="159" style="font-size:10px;fill:rgb(255,255,255);text-anchor:start;text-align:left;"> recursive </text><rect x="680" y="167" width="20" height="20" ry="2" style="fill:rgb(253,204,229);stroke:none;fill-opacity:1;stroke-opacity:1;" /><text x="705" y="180" style="font-size:10px;fill:rgb(255,255,255);text-anchor:start;text-align:left;"> wang </text><rect x="680" y="188" width="20" height="20" ry="2" style="fill:rgb(199,126,190);stroke:none;fill-opacity:1;stroke-opacity:1;" /><text x="705" y="201" style="font-size:10px;fill:rgb(255,255,255);text-anchor:start;text-align:left;"> wang-simd </text><text x="400" y="30" style="font-size:20px;fill:rgb(255,255,255);text-anchor:middle;text-align:center;"> tiger dataset: quadratic </text><text x="400" y="42" style="font-size:8px;fill:rgb(200,200,200);text-anchor:middle;text-align:center;"> Normalized performance score (lower is better) </text></svg>