<svg xmlns="http://www.w3.org/2000/svg" viewBox="0 0 800 300"><rect x="0" y="0" width="800" height="300" ry="6" style="fill:rgb(30,30,30);stroke:none;fill-opacity:1;stroke-opacity:1;" /><path d="M 30 20 L 30 270" style="stroke:rgb(200,200,200);stroke-width:1" /><path d="M 30 270 L 780 270" style="stroke:rgb(200,200,200);stroke-width:1" /><path d="M 780 270 L 780 272" style="stroke:rgb(200,200,200);stroke-width:1" /><text x="780" y="282" style="font-size:10px;fill:rgb(200,200,200);text-anchor:middle;text-align:center;"> 0.01 </text><path d="M 630.77246 270 L 630.77246 272" style="stroke:rgb(200,200,200);stroke-width:1" /><text x="630.77246" y="282" style="font-size:10px;fill:rgb(200,200,200);text-anchor:middle;text-align:center;"> 0.025 </text><path d="M 517.8862 270 L 517.8862 272" style="stroke:rgb(200,200,200);stroke-width:1" /><text x="517.8862" y="282" style="font-size:10px;fill:rgb(200,200,200);text-anchor:middle;text-align:center;"> 0.05 </text><path d="M 451.85202 270 L 451.85202 272" style="stroke:rgb(200,200,200);stroke-width:1" /><text x="451.85202" y="282" style="font-size:10px;fill:rgb(200,200,200);text-anchor:middle;text-align:center;"> 0.075 </text><path d="M 405 270 L 405 272" style="stroke:rgb(200,200,200);stroke-width:1" /><text x="405" y="282" style="font-size:10px;fill:rgb(200,200,200);text-anchor:middle;text-align:center;"> 0.1 </text><path d="M 338.96576 270 L 338.96576 272" style="stroke:rgb(200,200,200);stroke-width:1" /><text x="338.96576" y="282" style="font-size:10px;fill:rgb(200,200,200);text-anchor:middle;text-align:center;"> 0.15 </text><path d="M 292.11377 270 L 292.11377 272" style="stroke:rgb(200,200,200);stroke-width:1" /><text x="292.11377" y="282" style="font-size:10px;fill:rgb(200,200,200);text-anchor:middle;text-align:center;"> 0.2 </text><path d="M 255.7725 270 L 255.7725 272" style="stroke:rgb(200,200,200);stroke-width:1" /><text x="255.7725" y="282" style="font-size:10px;fill:rgb(200,200,200);text-anchor:middle;text-align:center;"> 0.25 </text><path d="M 142.88626 270 L 142.88626 272" style="stroke:rgb(200,200,200);stroke-width:1" /><text x="142.88626" y="282" style="font-size:10px;fill:rgb(200,200,200);text-anchor:middle;text-align:center;"> 0.5 </text><path d="M 30 270 L 30 272" style="stroke:rgb(200,200,200);stroke-width:1" /><text x="30" y="282" style="font-size:10px;fill:rgb(200,200,200);text-anchor:middle;text-align:center;"> 1 </text><path d="M 28 270 L 30 270" style="stroke:rgb(200,200,200);stroke-width:1" /><text x="26" y="274" style="font-size:10px;fill:rgb(200,200,200);text-anchor:end;text-align:right;"> 0 </text><path d="M 28 207.5 L 30 207.5" style="stroke:rgb(200,200,200);stroke-width:1" /><text x="26" y="211.5" style="font-size:10px;fill:rgb(200,200,200);text-anchor:end;text-align:right;"> 0.25 </text><path d="M 28 145 L 30 145" style="stroke:rgb(200,200,200);stroke-width:1" /><text x="26" y="149" style="font-size:10px;fill:rgb(200,200,200);text-anchor:end;text-align:right;"> 0.5 </text><path d="M 28 82.5 L 30 82.5" style="stroke:rgb(200,200,200);stroke-width:1" /><text x="26" y="86.5" style="font-size:10px;fill:rgb(200,200,200);text-anchor:end;text-align:right;"> 0.75 </text><path d="M 28 20 L 30 20" style="stroke:rgb(200,200,200);stroke-width:1" /><text x="26" y="24" style="font-size:10px;fill:rgb(200,200,200);text-anchor:end;text-align:right;"> 1 </text><text x="400" y="294" style="font-size:10px;fill:rgb(200,200,200);text-anchor:middle;text-align:center;"> Tolerance </text><circle cx="780" cy="107.92" r="2" style="fill:rgb(50,125,209);stroke:none;fill-opacity:1;stroke-opacity:1;" /><path d="M 780 107.92 L 630.77246 164.6125" style="stroke:rgb(50,125,209);stroke-width:1" /><circle cx="630.77246" cy="164.6125" r="2" style="fill:rgb(50,125,209);stroke:none;fill-opacity:1;stroke-opacity:1;" /><path d="M 630.77246 164.6125 L 517.8862 193.1625" style="stroke:rgb(50,125,209);stroke-width:1" /><circle cx="517.8862" cy="193.1625" r="2" style="fill:rgb(50,125,209);stroke:none;fill-opacity:1;stroke-opacity:1;" /><path d="M 517.8862 193.1625 L 451.85202 205.79251" style="stroke:rgb(50,125,209);stroke-width:1" /><circle cx="451.85202" cy="205.79251" r="2" style="fill:rgb(50,125,209);stroke:none;fill-opacity:1;stroke-opacity:1;" /><path d="M 451.85202 205.79251 L 405 212.8625" style="stroke:rgb(50,125,209);stroke-width:1" /><circle cx="405" cy="212.8625" r="2" style="fill:rgb(50,125,209);stroke:none;fill-opacity:1;stroke-opacity:1;" /><path d="M 405 212.8625 L 338.96576 222.05" style="stroke:rgb(50,125,209);stroke-width:1" /><circle cx="338.96576" cy="222.05" r="2" style="fill:rgb(50,125,209);stroke:none;fill-opacity:1;stroke-opacity:1;" /><path d="M 338.96576 222.05 L 292.11377 227.36" style="stroke:rgb(50,125,209);stroke-width:1" /><circle cx="292.11377" cy="227.36" r="2" style="fill:rgb(50,125,209);stroke:none;fill-opacity:1;stroke-opacity:1;" /><path d="M 292.11377 227.36 L 255.7725 231.0525" style="stroke:rgb(50,125,209);stroke-width:1" /><circle cx="255.7725" cy="231.0525" r="2" style="fill:rgb(50,125,209);stroke:none;fill-opacity:1;stroke-opacity:1;" /><path d="M 255.7725 231.0525 L 142.88626 239.83" style="stroke:rgb(50,125,209);stroke-width:1" /><circle cx="142.88626" cy="239.83" r="2" style="fill:rgb(50,125,209);stroke:none;fill-opacity:1;stroke-opacity:1;" /><path d="M 142.88626 239.83 L 30 246.1425" style="stroke:rgb(50,125,209);stroke-width:1" /><circle cx="30" cy="246.1425" r="2" style="fill:rgb(50,125,209);stroke:none;fill-opacity:1;stroke-opacity:1;" /><circle cx="780" cy="108.17" r="2" style="fill:rgb(119,211,179);stroke:none;fill-opacity:1;stroke-opacity:1;" /><path d="M 780 108.17 L 630.77246 164.685" style="stroke:rgb(119,211,179);stroke-width:1" /><circle cx="630.77246" cy="164.685" r="2" style="fill:rgb(119,211,179);stroke:none;fill-opacity:1;stroke-opacity:1;" /><path d="M 630.77246 164.685 L 517.8862 193.295" style="stroke:rgb(119,211,179);stroke-width:1" /><circle cx="517.8862" cy="193.295" r="2" style="fill:rgb(119,211,179);stroke:none;fill-opacity:1;stroke-opacity:1;" /><path d="M 517.8862 193.295 L 451.85202 205.375" style="stroke:rgb(119,211,179);stroke-width:1" /><circle cx="451.85202" cy="205.375" r="2" style="fill:rgb(119,211,179);stroke:none;fill-opacity:1;stroke-opacity:1;" /><path d="M 451.85202 205.375 L 405 212.5375" style="stroke:rgb(119,211,179);stroke-width:1" /><circle cx="405" cy="212.5375" r="2" style="fill:rgb(119,211,179);stroke:none;fill-opacity:1;stroke-opacity:1;" /><path d="M 405 212.5375 L 338.96576 221.44" style="stroke:rgb(119,211,179);stroke-width:1" /><circle cx="338.96576" cy="221.44" r="2" style="fill:rgb(119,211,179);stroke:none;fill-opacity:1;stroke-opacity:1;" /><path d="M 338.96576 221.44 L 292.11377 226.625" style="stroke:rgb(119,211,179);stroke-width:1" /><circle cx="292.11377" cy="226.625" r="2" style="fill:rgb(119,211,179);stroke:none;fill-opacity:1;stroke-opacity:1;" /><path d="M 292.11377 226.625 L 255.7725 230.135" style="stroke:rgb(119,211,179);stroke-width:1" /><circle cx="255.7725" cy="230.135" r="2" style="fill:rgb(119,211,179);stroke:none;fill-opacity:1;stroke-opacity:1;" /><path d="M 255.7725 230.135 L 142.88626 239.59" style="stroke:rgb(119,211,179);stroke-width:1" /><circle cx="142.88626" cy="239.59" r="2" style="fill:rgb(119,211,179);stroke:none;fill-opacity:1;stroke-opacity:1;" /><path d="M 142.88626 239.59 L 30 246.495" style="stroke:rgb(119,211,179);stroke-width:1" /><circle cx="30" cy="246.495" r="2" style="fill:rgb(119,211,179);stroke:none;fill-opacity:1;stroke-opacity:1;" /><circle cx="780" cy="61.240005" r="2" style="fill:rgb(128,214,87);stroke:none;fill-opacity:1;stroke-opacity:1;" /><path d="M 780 61.240005 L 630.77246 138.11" style="stroke:rgb(128,214,87);stroke-width:1" /><circle cx="630.77246" cy="138.11" r="2" style="fill:rgb(128,214,87);stroke:none;fill-opacity:1;stroke-opacity:1;" /><path d="M 630.77246 138.11 L 517.8862 177.43" style="stroke:rgb(128,214,87);stroke-width:1" /><circle cx="517.8862" cy="177.43" r="2" style="fill:rgb(128,214,87);stroke:none;fill-opacity:1;stroke-opacity:1;" /><path d="M 517.8862 177.43 L 451.85202 194.1075" style="stroke:rgb(128,214,87);stroke-width:1" /><circle cx="451.85202" cy="194.1075" r="2" style="fill:rgb(128,214,87);stroke:none;fill-opacity:1;stroke-opacity:1;" /><path d="M 451.85202 194.1075 L 405 203.66501" style="stroke:rgb(128,214,87);stroke-width:1" /><circle cx="405" cy="203.66501" r="2" style="fill:rgb(128,214,87);stroke:none;fill-opacity:1;stroke-opacity:1;" /><path d="M 405 203.66501 L 338.96576 215.9725" style="stroke:rgb(128,214,87);stroke-width:1" /><circle cx="338.96576" cy="215.9725" r="2" style="fill:rgb(128,214,87);stroke:none;fill-opacity:1;stroke-opacity:1;" /><path d="M 338.96576 215.9725 L 292.11377 223.3" style="stroke:rgb(128,214,87);stroke-width:1" /><circle cx="292.11377" cy="223.3" r="2" style="fill:rgb(128,214,87);stroke:none;fill-opacity:1;stroke-opacity:1;" /><path d="M 292.11377 223.3 L 255.7725 227.62" style="stroke:rgb(128,214,87);stroke-width:1" /><circle cx="255.7725" cy="227.62" r="2" style="fill:rgb(128,214,87);stroke:none;fill-opacity:1;stroke-opacity:1;" /><path d="M 255.7725 227.62 L 142.88626 238.58" style="stroke:rgb(128,214,87);stroke-width:1" /><circle cx="142.88626" cy="238.58" r="2" style="fill:rgb(128,214,87);stroke:none;fill-opacity:1;stroke-opacity:1;" /><path d="M 142.88626 238.58 L 30 246.34" style="stroke:rgb(128,214,87);stroke-width:1" /><circle cx="30" cy="246.34" r="2" style="fill:rgb(128,214,87);stroke:none;fill-opacity:1;stroke-opacity:1;" /><circle cx="780" cy="50.947495" r="2" style="fill:rgb(255,238,101);stroke:none;fill-opacity:1;stroke-opacity:1;" /><path d="M 780 50.947495 L 630.77246 132.735" style="stroke:rgb(255,238,101);stroke-width:1" /><circle cx="630.77246" cy="132.735" r="2" style="fill:rgb(255,238,101);stroke:none;fill-opacity:1;stroke-opacity:1;" /><path d="M 630.77246 132.735 L 517.8862 172.76999" style="stroke:rgb(255,238,101);stroke-width:1" /><circle cx="517.8862" cy="172.76999" r="2" style="fill:rgb(255,238,101);stroke:none;fill-opacity:1;stroke-opacity:1;" /><path d="M 517.8862 172.76999 L 451.85202 191.205" style="stroke:rgb(255,238,101);stroke-width:1" /><circle cx="451.85202" cy="191.205" r="2" style="fill:rgb(255,238,101);stroke:none;fill-opacity:1;stroke-opacity:1;" /><path d="M 451.85202 191.205 L 405 201.0075" style="stroke:rgb(255,238,101);stroke-width:1" /><circle cx="405" cy="201.0075" r="2" style="fill:rgb(255,238,101);stroke:none;fill-opacity:1;stroke-opacity:1;" /><path d="M 405 201.0075 L 338.96576 213.0725" style="stroke:rgb(255,238,101);stroke-width:1" /><circle cx="338.96576" cy="213.0725" r="2" style="fill:rgb(255,238,101);stroke:none;fill-opacity:1;stroke-opacity:1;" /><path d="M 338.96576 213.0725 L 292.11377 221.1325" style="stroke:rgb(255,238,101);stroke-width:1" /><circle cx="292.11377" cy="221.1325" r="2" style="fill:rgb(255,238,101);stroke:none;fill-opacity:1;stroke-opacity:1;" /><path d="M 292.11377 221.1325 L 255.7725 226.1875" style="stroke:rgb(255,238,101);stroke-width:1" /><circle cx="255.7725" cy="226.1875" r="2" style="fill:rgb(255,238,101);stroke:none;fill-opacity:1;stroke-opacity:1;" /><path d="M 255.7725 226.1875 L 142.88626 237.6375" style="stroke:rgb(255,238,101);stroke-width:1" /><circle cx="142.88626" cy="237.6375" r="2" style="fill:rgb(255,238,101);stroke:none;fill-opacity:1;stroke-opacity:1;" /><path d="M 142.88626 237.6375 L 30 246.1425" style="stroke:rgb(255,238,101);stroke-width:1" /><circle cx="30" cy="246.1425" r="2" style="fill:rgb(255,238,101);stroke:none;fill-opacity:1;stroke-opacity:1;" /><circle cx="780" cy="20" r="2" style="fill:rgb(253,204,229);stroke:none;fill-opacity:1;stroke-opacity:1;" /><path d="M 780 20 L 630.77246 108.740005" style="stroke:rgb(253,204,229);stroke-width:1" /><circle cx="630.77246" cy="108.740005" r="2" style="fill:rgb(253,204,229);stroke:none;fill-opacity:1;stroke-opacity:1;" /><path d="M 630.77246 108.740005 L 517.8862 153.8475" style="stroke:rgb(253,204,229);stroke-width:1" /><circle cx="517.8862" cy="153.8475" r="2" style="fill:rgb(253,204,229);stroke:none;fill-opacity:1;stroke-opacity:1;" /><path d="M 517.8862 153.8475 L 451.85202 173.61499" style="stroke:rgb(253,204,229);stroke-width:1" /><circle cx="451.85202" cy="173.61499" r="2" style="fill:rgb(253,204,229);stroke:none;fill-opacity:1;stroke-opacity:1;" /><path d="M 451.85202 173.61499 L 405 185.425" style="stroke:rgb(253,204,229);stroke-width:1" /><circle cx="405" cy="185.425" r="2" style="fill:rgb(253,204,229);stroke:none;fill-opacity:1;stroke-opacity:1;" /><path d="M 405 185.425 L 338.96576 199.57251" style="stroke:rgb(253,204,229);stroke-width:1" /><circle cx="338.96576" cy="199.57251" r="2" style="fill:rgb(253,204,229);stroke:none;fill-opacity:1;stroke-opacity:1;" /><path d="M 338.96576 199.57251 L 292.11377 208.07" style="stroke:rgb(253,204,229);stroke-width:1" /><circle cx="292.11377" cy="208.07" r="2" style="fill:rgb(253,204,229);stroke:none;fill-opacity:1;stroke-opacity:1;" /><path d="M 292.11377 208.07 L 255.7725 213.735" style="stroke:rgb(253,204,229);stroke-width:1" /><circle cx="255.7725" cy="213.735" r="2" style="fill:rgb(253,204,229);stroke:none;fill-opacity:1;stroke-opacity:1;" /><path d="M 255.7725 213.735 L 142.88626 227.765" style="stroke:rgb(253,204,229);stroke-width:1" /><circle cx="142.88626" cy="227.765" r="2" style="fill:rgb(253,204,229);stroke:none;fill-opacity:1;stroke-opacity:1;" /><path d="M 142.88626 227.765 L 30 238.1675" style="stroke:rgb(253,204,229);stroke-width:1" /><circle cx="30" cy="238.1675" r="2" style="fill:rgb(253,204,229);stroke:none;fill-opacity:1;stroke-opacity:1;" /><circle cx="780" cy="20" r="2" style="fill:rgb(253,127,111);stroke:none;fill-opacity:1;stroke-opacity:1;" /><path d="M 780 20 L 630.77246 108.740005" style="stroke:rgb(253,127,111);stroke-width:1" /><circle cx="630.77246" cy="108.740005" r="2" style="fill:rgb(253,127,111);stroke:none;fill-opacity:1;stroke-opacity:1;" /><path d="M 630.77246 108.740005 L 517.8862 153.8475" style="stroke:rgb(253,127,111);stroke-width:1" /><circle cx="517.8862" cy="153.8475" r="2" style="fill:rgb(253,127,111);stroke:none;fill-opacity:1;stroke-opacity:1;" /><path d="M 517.8862 153.8475 L 451.85202 173.61499" style="stroke:rgb(253,127,111);stroke-width:1" /><circle cx="451.85202" cy="173.61499" r="2" style="fill:rgb(253,127,111);stroke:none;fill-opacity:1;stroke-opacity:1;" /><path d="M 451.85202 173.61499 L 405 185.425" style="stroke:rgb(253,127,111);stroke-width:1" /><circle cx="405" cy="185.425" r="2" style="fill:rgb(253,127,111);stroke:none;fill-opacity:1;stroke-opacity:1;" /><path d="M 405 185.425 L 338.96576 199.57251" style="stroke:rgb(253,127,111);stroke-width:1" /><circle cx="338.96576" cy="199.57251" r="2" style="fill:rgb(253,127,111);stroke:none;fill-opacity:1;stroke-opacity:1;" /><path d="M 338.96576 199.57251 L 292.11377 208.07" style="stroke:rgb(253,127,111);stroke-width:1" /><circle cx="292.11377" cy="208.07" r="2" style="fill:rgb(253,127,111);stroke:none;fill-opacity:1;stroke-opacity:1;" /><path d="M 292.11377 208.07 L 255.7725 213.735" style="stroke:rgb(253,127,111);stroke-width:1" /><circle cx="255.7725" cy="213.735" r="2" style="fill:rgb(253,127,111);stroke:none;fill-opacity:1;stroke-opacity:1;" /><path d="M 255.7725 213.735 L 142.88626 227.765" style="stroke:rgb(253,127,111);stroke-width:1" /><circle cx="142.88626" cy="227.765" r="2" style="fill:rgb(253,127,111);stroke:none;fill-opacity:1;stroke-opacity:1;" /><path d="M 142.88626 227.765 L 30 238.1675" style="stroke:rgb(253,127,111);stroke-width:1" /><circle cx="30" cy="238.1675" r="2" style="fill:rgb(253,127,111);stroke:none;fill-opacity:1;stroke-opacity:1;" /><rect x="676" y="16" width="80" height="133" ry="4" style="fill:rgb(30,30,30);stroke:none;fill-opacity:0.8;stroke-opacity:1;" /><rect x="680" y="20" width="20" height="20" ry="2" style="fill:rgb(253,127,111);stroke:none;fill-opacity:1;stroke-opacity:1;" /><text x="705" y="33" style="font-size:10px;fill:rgb(255,255,255);text-anchor:start;text-align:left;"> fwd-diff </text><rect x="680" y="41" width="20" height="20" ry="2" style="fill:rgb(50,125,209);stroke:none;fill-opacity:1;stroke-opacity:1;" /><text x="705" y="54" style="font-size:10px;fill:rgb(255,255,255);text-anchor:start;text-align:left;"> levien </text><rect x="680" y="62" width="20" height="20" ry="2" style="fill:rgb(119,211,179);stroke:none;fill-opacity:1;stroke-opacity:1;" /><text x="705" y="75" style="font-size:10px;fill:rgb(255,255,255);text-anchor:start;text-align:left;"> levien-linear </text><rect x="680" y="83" width="20" height="20" ry="2" style="fill:rgb(128,214,87);stroke:none;fill-opacity:1;stroke-opacity:1;" /><text x="705" y="96" style="font-size:10px;fill:rgb(255,255,255);text-anchor:start;text-align:left;"> linear </text><rect x="680" y="104" width="20" height="20" ry="2" style="fill:rgb(255,238,101);stroke:none;fill-opacity:1;stroke-opacity:1;" /><text x="705" y="117" style="font-size:10px;fill:rgb(255,255,255);text-anchor:start;text-align:left;"> recursive </text><rect x="680" y="125" width="20" height="20" ry="2" style="fill:rgb(253,204,229);stroke:none;fill-opacity:1;stroke-opacity:1;" /><text x="705" y="138" style="font-size:10px;fill:rgb(255,255,255);text-anchor:start;text-align:left;"> wang </text><text x="400" y="30" style="font-size:20px;fill:rgb(255,255,255);text-anchor:middle;text-align:center;"> Tiger </text><text x="400" y="42" style="font-size:8px;fill:rgb(200,200,200);text-anchor:middle;text-align:center;"> Normalized edge count score (lower is better) </text></svg>