<svg xmlns="http://www.w3.org/2000/svg" viewBox="0 0 800 300"><rect x="0" y="0" width="800" height="300" ry="6" style="fill:rgb(30,30,30);stroke:none;fill-opacity:1;stroke-opacity:1;" /><path d="M 30 20 L 30 270" style="stroke:rgb(200,200,200);stroke-width:1" /><path d="M 30 270 L 780 270" style="stroke:rgb(200,200,200);stroke-width:1" /><path d="M 780 270 L 780 272" style="stroke:rgb(200,200,200);stroke-width:1" /><text x="780" y="282" style="font-size:10px;fill:rgb(200,200,200);text-anchor:middle;text-align:center;"> 0.01 </text><path d="M 630.77246 270 L 630.77246 272" style="stroke:rgb(200,200,200);stroke-width:1" /><text x="630.77246" y="282" style="font-size:10px;fill:rgb(200,200,200);text-anchor:middle;text-align:center;"> 0.025 </text><path d="M 517.8862 270 L 517.8862 272" style="stroke:rgb(200,200,200);stroke-width:1" /><text x="517.8862" y="282" style="font-size:10px;fill:rgb(200,200,200);text-anchor:middle;text-align:center;"> 0.05 </text><path d="M 451.85202 270 L 451.85202 272" style="stroke:rgb(200,200,200);stroke-width:1" /><text x="451.85202" y="282" style="font-size:10px;fill:rgb(200,200,200);text-anchor:middle;text-align:center;"> 0.075 </text><path d="M 405 270 L 405 272" style="stroke:rgb(200,200,200);stroke-width:1" /><text x="405" y="282" style="font-size:10px;fill:rgb(200,200,200);text-anchor:middle;text-align:center;"> 0.1 </text><path d="M 338.96576 270 L 338.96576 272" style="stroke:rgb(200,200,200);stroke-width:1" /><text x="338.96576" y="282" style="font-size:10px;fill:rgb(200,200,200);text-anchor:middle;text-align:center;"> 0.15 </text><path d="M 292.11377 270 L 292.11377 272" style="stroke:rgb(200,200,200);stroke-width:1" /><text x="292.11377" y="282" style="font-size:10px;fill:rgb(200,200,200);text-anchor:middle;text-align:center;"> 0.2 </text><path d="M 255.7725 270 L 255.7725 272" style="stroke:rgb(200,200,200);stroke-width:1" /><text x="255.7725" y="282" style="font-size:10px;fill:rgb(200,200,200);text-anchor:middle;text-align:center;"> 0.25 </text><path d="M 142.88626 270 L 142.88626 272" style="stroke:rgb(200,200,200);stroke-width:1" /><text x="142.88626" y="282" style="font-size:10px;fill:rgb(200,200,200);text-anchor:middle;text-align:center;"> 0.5 </text><path d="M 30 270 L 30 272" style="stroke:rgb(200,200,200);stroke-width:1" /><text x="30" y="282" style="font-size:10px;fill:rgb(200,200,200);text-anchor:middle;text-align:center;"> 1 </text><path d="M 28 270 L 30 270" style="stroke:rgb(200,200,200);stroke-width:1" /><text x="26" y="274" style="font-size:10px;fill:rgb(200,200,200);text-anchor:end;text-align:right;"> 0 </text><path d="M 28 207.5 L 30 207.5" style="stroke:rgb(200,200,200);stroke-width:1" /><text x="26" y="211.5" style="font-size:10px;fill:rgb(200,200,200);text-anchor:end;text-align:right;"> 0.25 </text><path d="M 28 145 L 30 145" style="stroke:rgb(200,200,200);stroke-width:1" /><text x="26" y="149" style="font-size:10px;fill:rgb(200,200,200);text-anchor:end;text-align:right;"> 0.5 </text><path d="M 28 82.5 L 30 82.5" style="stroke:rgb(200,200,200);stroke-width:1" /><text x="26" y="86.5" style="font-size:10px;fill:rgb(200,200,200);text-anchor:end;text-align:right;"> 0.75 </text><path d="M 28 20 L 30 20" style="stroke:rgb(200,200,200);stroke-width:1" /><text x="26" y="24" style="font-size:10px;fill:rgb(200,200,200);text-anchor:end;text-align:right;"> 1 </text><text x="400" y="294" style="font-size:10px;fill:rgb(200,200,200);text-anchor:middle;text-align:center;"> Tolerance </text><circle cx="780" cy="167.0375" r="2" style="fill:rgb(50,125,209);stroke:none;fill-opacity:1;stroke-opacity:1;" /><path d="M 780 167.0375 L 630.77246 203.85251" style="stroke:rgb(50,125,209);stroke-width:1" /><circle cx="630.77246" cy="203.85251" r="2" style="fill:rgb(50,125,209);stroke:none;fill-opacity:1;stroke-opacity:1;" /><path d="M 630.77246 203.85251 L 517.8862 222.27" style="stroke:rgb(50,125,209);stroke-width:1" /><circle cx="517.8862" cy="222.27" r="2" style="fill:rgb(50,125,209);stroke:none;fill-opacity:1;stroke-opacity:1;" /><path d="M 517.8862 222.27 L 451.85202 230.215" style="stroke:rgb(50,125,209);stroke-width:1" /><circle cx="451.85202" cy="230.215" r="2" style="fill:rgb(50,125,209);stroke:none;fill-opacity:1;stroke-opacity:1;" /><path d="M 451.85202 230.215 L 405 235.245" style="stroke:rgb(50,125,209);stroke-width:1" /><circle cx="405" cy="235.245" r="2" style="fill:rgb(50,125,209);stroke:none;fill-opacity:1;stroke-opacity:1;" /><path d="M 405 235.245 L 338.96576 240.785" style="stroke:rgb(50,125,209);stroke-width:1" /><circle cx="338.96576" cy="240.785" r="2" style="fill:rgb(50,125,209);stroke:none;fill-opacity:1;stroke-opacity:1;" /><path d="M 338.96576 240.785 L 292.11377 244.3925" style="stroke:rgb(50,125,209);stroke-width:1" /><circle cx="292.11377" cy="244.3925" r="2" style="fill:rgb(50,125,209);stroke:none;fill-opacity:1;stroke-opacity:1;" /><path d="M 292.11377 244.3925 L 255.7725 246.7575" style="stroke:rgb(50,125,209);stroke-width:1" /><circle cx="255.7725" cy="246.7575" r="2" style="fill:rgb(50,125,209);stroke:none;fill-opacity:1;stroke-opacity:1;" /><path d="M 255.7725 246.7575 L 142.88626 252.5275" style="stroke:rgb(50,125,209);stroke-width:1" /><circle cx="142.88626" cy="252.5275" r="2" style="fill:rgb(50,125,209);stroke:none;fill-opacity:1;stroke-opacity:1;" /><path d="M 142.88626 252.5275 L 30 256.5025" style="stroke:rgb(50,125,209);stroke-width:1" /><circle cx="30" cy="256.5025" r="2" style="fill:rgb(50,125,209);stroke:none;fill-opacity:1;stroke-opacity:1;" /><circle cx="780" cy="47.337494" r="2" style="fill:rgb(253,127,111);stroke:none;fill-opacity:1;stroke-opacity:1;" /><path d="M 780 47.337494 L 630.77246 127.962494" style="stroke:rgb(253,127,111);stroke-width:1" /><circle cx="630.77246" cy="127.962494" r="2" style="fill:rgb(253,127,111);stroke:none;fill-opacity:1;stroke-opacity:1;" /><path d="M 630.77246 127.962494 L 517.8862 168.44" style="stroke:rgb(253,127,111);stroke-width:1" /><circle cx="517.8862" cy="168.44" r="2" style="fill:rgb(253,127,111);stroke:none;fill-opacity:1;stroke-opacity:1;" /><path d="M 517.8862 168.44 L 451.85202 186.4975" style="stroke:rgb(253,127,111);stroke-width:1" /><circle cx="451.85202" cy="186.4975" r="2" style="fill:rgb(253,127,111);stroke:none;fill-opacity:1;stroke-opacity:1;" /><path d="M 451.85202 186.4975 L 405 197.31" style="stroke:rgb(253,127,111);stroke-width:1" /><circle cx="405" cy="197.31" r="2" style="fill:rgb(253,127,111);stroke:none;fill-opacity:1;stroke-opacity:1;" /><path d="M 405 197.31 L 338.96576 209.89749" style="stroke:rgb(253,127,111);stroke-width:1" /><circle cx="338.96576" cy="209.89749" r="2" style="fill:rgb(253,127,111);stroke:none;fill-opacity:1;stroke-opacity:1;" /><path d="M 338.96576 209.89749 L 292.11377 217.54001" style="stroke:rgb(253,127,111);stroke-width:1" /><circle cx="292.11377" cy="217.54001" r="2" style="fill:rgb(253,127,111);stroke:none;fill-opacity:1;stroke-opacity:1;" /><path d="M 292.11377 217.54001 L 255.7725 222.59" style="stroke:rgb(253,127,111);stroke-width:1" /><circle cx="255.7725" cy="222.59" r="2" style="fill:rgb(253,127,111);stroke:none;fill-opacity:1;stroke-opacity:1;" /><path d="M 255.7725 222.59 L 142.88626 235.64" style="stroke:rgb(253,127,111);stroke-width:1" /><circle cx="142.88626" cy="235.64" r="2" style="fill:rgb(253,127,111);stroke:none;fill-opacity:1;stroke-opacity:1;" /><path d="M 142.88626 235.64 L 30 244.715" style="stroke:rgb(253,127,111);stroke-width:1" /><circle cx="30" cy="244.715" r="2" style="fill:rgb(253,127,111);stroke:none;fill-opacity:1;stroke-opacity:1;" /><circle cx="780" cy="136.515" r="2" style="fill:rgb(128,214,87);stroke:none;fill-opacity:1;stroke-opacity:1;" /><path d="M 780 136.515 L 630.77246 185.98999" style="stroke:rgb(128,214,87);stroke-width:1" /><circle cx="630.77246" cy="185.98999" r="2" style="fill:rgb(128,214,87);stroke:none;fill-opacity:1;stroke-opacity:1;" /><path d="M 630.77246 185.98999 L 517.8862 209.7225" style="stroke:rgb(128,214,87);stroke-width:1" /><circle cx="517.8862" cy="209.7225" r="2" style="fill:rgb(128,214,87);stroke:none;fill-opacity:1;stroke-opacity:1;" /><path d="M 517.8862 209.7225 L 451.85202 220.995" style="stroke:rgb(128,214,87);stroke-width:1" /><circle cx="451.85202" cy="220.995" r="2" style="fill:rgb(128,214,87);stroke:none;fill-opacity:1;stroke-opacity:1;" /><path d="M 451.85202 220.995 L 405 227.4375" style="stroke:rgb(128,214,87);stroke-width:1" /><circle cx="405" cy="227.4375" r="2" style="fill:rgb(128,214,87);stroke:none;fill-opacity:1;stroke-opacity:1;" /><path d="M 405 227.4375 L 338.96576 234.8025" style="stroke:rgb(128,214,87);stroke-width:1" /><circle cx="338.96576" cy="234.8025" r="2" style="fill:rgb(128,214,87);stroke:none;fill-opacity:1;stroke-opacity:1;" /><path d="M 338.96576 234.8025 L 292.11377 239.4125" style="stroke:rgb(128,214,87);stroke-width:1" /><circle cx="292.11377" cy="239.4125" r="2" style="fill:rgb(128,214,87);stroke:none;fill-opacity:1;stroke-opacity:1;" /><path d="M 292.11377 239.4125 L 255.7725 242.3775" style="stroke:rgb(128,214,87);stroke-width:1" /><circle cx="255.7725" cy="242.3775" r="2" style="fill:rgb(128,214,87);stroke:none;fill-opacity:1;stroke-opacity:1;" /><path d="M 255.7725 242.3775 L 142.88626 250.13" style="stroke:rgb(128,214,87);stroke-width:1" /><circle cx="142.88626" cy="250.13" r="2" style="fill:rgb(128,214,87);stroke:none;fill-opacity:1;stroke-opacity:1;" /><path d="M 142.88626 250.13 L 30 255.4375" style="stroke:rgb(128,214,87);stroke-width:1" /><circle cx="30" cy="255.4375" r="2" style="fill:rgb(128,214,87);stroke:none;fill-opacity:1;stroke-opacity:1;" /><circle cx="780" cy="182.61499" r="2" style="fill:rgb(255,181,90);stroke:none;fill-opacity:1;stroke-opacity:1;" /><path d="M 780 182.61499 L 630.77246 211.7825" style="stroke:rgb(255,181,90);stroke-width:1" /><circle cx="630.77246" cy="211.7825" r="2" style="fill:rgb(255,181,90);stroke:none;fill-opacity:1;stroke-opacity:1;" /><path d="M 630.77246 211.7825 L 517.8862 225.72" style="stroke:rgb(255,181,90);stroke-width:1" /><circle cx="517.8862" cy="225.72" r="2" style="fill:rgb(255,181,90);stroke:none;fill-opacity:1;stroke-opacity:1;" /><path d="M 517.8862 225.72 L 451.85202 231.5075" style="stroke:rgb(255,181,90);stroke-width:1" /><circle cx="451.85202" cy="231.5075" r="2" style="fill:rgb(255,181,90);stroke:none;fill-opacity:1;stroke-opacity:1;" /><path d="M 451.85202 231.5075 L 405 234.465" style="stroke:rgb(255,181,90);stroke-width:1" /><circle cx="405" cy="234.465" r="2" style="fill:rgb(255,181,90);stroke:none;fill-opacity:1;stroke-opacity:1;" /><path d="M 405 234.465 L 338.96576 237.2025" style="stroke:rgb(255,181,90);stroke-width:1" /><circle cx="338.96576" cy="237.2025" r="2" style="fill:rgb(255,181,90);stroke:none;fill-opacity:1;stroke-opacity:1;" /><path d="M 338.96576 237.2025 L 292.11377 237.4725" style="stroke:rgb(255,181,90);stroke-width:1" /><circle cx="292.11377" cy="237.4725" r="2" style="fill:rgb(255,181,90);stroke:none;fill-opacity:1;stroke-opacity:1;" /><path d="M 292.11377 237.4725 L 255.7725 235.8925" style="stroke:rgb(255,181,90);stroke-width:1" /><circle cx="255.7725" cy="235.8925" r="2" style="fill:rgb(255,181,90);stroke:none;fill-opacity:1;stroke-opacity:1;" /><path d="M 255.7725 235.8925 L 142.88626 245.0725" style="stroke:rgb(255,181,90);stroke-width:1" /><circle cx="142.88626" cy="245.0725" r="2" style="fill:rgb(255,181,90);stroke:none;fill-opacity:1;stroke-opacity:1;" /><path d="M 142.88626 245.0725 L 30 251.6825" style="stroke:rgb(255,181,90);stroke-width:1" /><circle cx="30" cy="251.6825" r="2" style="fill:rgb(255,181,90);stroke:none;fill-opacity:1;stroke-opacity:1;" /><circle cx="780" cy="47.337494" r="2" style="fill:rgb(253,204,229);stroke:none;fill-opacity:1;stroke-opacity:1;" /><path d="M 780 47.337494 L 630.77246 127.962494" style="stroke:rgb(253,204,229);stroke-width:1" /><circle cx="630.77246" cy="127.962494" r="2" style="fill:rgb(253,204,229);stroke:none;fill-opacity:1;stroke-opacity:1;" /><path d="M 630.77246 127.962494 L 517.8862 168.44" style="stroke:rgb(253,204,229);stroke-width:1" /><circle cx="517.8862" cy="168.44" r="2" style="fill:rgb(253,204,229);stroke:none;fill-opacity:1;stroke-opacity:1;" /><path d="M 517.8862 168.44 L 451.85202 186.4975" style="stroke:rgb(253,204,229);stroke-width:1" /><circle cx="451.85202" cy="186.4975" r="2" style="fill:rgb(253,204,229);stroke:none;fill-opacity:1;stroke-opacity:1;" /><path d="M 451.85202 186.4975 L 405 197.31" style="stroke:rgb(253,204,229);stroke-width:1" /><circle cx="405" cy="197.31" r="2" style="fill:rgb(253,204,229);stroke:none;fill-opacity:1;stroke-opacity:1;" /><path d="M 405 197.31 L 338.96576 209.89749" style="stroke:rgb(253,204,229);stroke-width:1" /><circle cx="338.96576" cy="209.89749" r="2" style="fill:rgb(253,204,229);stroke:none;fill-opacity:1;stroke-opacity:1;" /><path d="M 338.96576 209.89749 L 292.11377 217.54001" style="stroke:rgb(253,204,229);stroke-width:1" /><circle cx="292.11377" cy="217.54001" r="2" style="fill:rgb(253,204,229);stroke:none;fill-opacity:1;stroke-opacity:1;" /><path d="M 292.11377 217.54001 L 255.7725 222.59" style="stroke:rgb(253,204,229);stroke-width:1" /><circle cx="255.7725" cy="222.59" r="2" style="fill:rgb(253,204,229);stroke:none;fill-opacity:1;stroke-opacity:1;" /><path d="M 255.7725 222.59 L 142.88626 235.64" style="stroke:rgb(253,204,229);stroke-width:1" /><circle cx="142.88626" cy="235.64" r="2" style="fill:rgb(253,204,229);stroke:none;fill-opacity:1;stroke-opacity:1;" /><path d="M 142.88626 235.64 L 30 244.715" style="stroke:rgb(253,204,229);stroke-width:1" /><circle cx="30" cy="244.715" r="2" style="fill:rgb(253,204,229);stroke:none;fill-opacity:1;stroke-opacity:1;" /><circle cx="780" cy="20" r="2" style="fill:rgb(139,211,199);stroke:none;fill-opacity:1;stroke-opacity:1;" /><path d="M 780 20 L 630.77246 107.595" style="stroke:rgb(139,211,199);stroke-width:1" /><circle cx="630.77246" cy="107.595" r="2" style="fill:rgb(139,211,199);stroke:none;fill-opacity:1;stroke-opacity:1;" /><path d="M 630.77246 107.595 L 517.8862 153.8725" style="stroke:rgb(139,211,199);stroke-width:1" /><circle cx="517.8862" cy="153.8725" r="2" style="fill:rgb(139,211,199);stroke:none;fill-opacity:1;stroke-opacity:1;" /><path d="M 517.8862 153.8725 L 451.85202 173.22" style="stroke:rgb(139,211,199);stroke-width:1" /><circle cx="451.85202" cy="173.22" r="2" style="fill:rgb(139,211,199);stroke:none;fill-opacity:1;stroke-opacity:1;" /><path d="M 451.85202 173.22 L 405 185.59" style="stroke:rgb(139,211,199);stroke-width:1" /><circle cx="405" cy="185.59" r="2" style="fill:rgb(139,211,199);stroke:none;fill-opacity:1;stroke-opacity:1;" /><path d="M 405 185.59 L 338.96576 200.84" style="stroke:rgb(139,211,199);stroke-width:1" /><circle cx="338.96576" cy="200.84" r="2" style="fill:rgb(139,211,199);stroke:none;fill-opacity:1;stroke-opacity:1;" /><path d="M 338.96576 200.84 L 292.11377 209.07" style="stroke:rgb(139,211,199);stroke-width:1" /><circle cx="292.11377" cy="209.07" r="2" style="fill:rgb(139,211,199);stroke:none;fill-opacity:1;stroke-opacity:1;" /><path d="M 292.11377 209.07 L 255.7725 214.9025" style="stroke:rgb(139,211,199);stroke-width:1" /><circle cx="255.7725" cy="214.9025" r="2" style="fill:rgb(139,211,199);stroke:none;fill-opacity:1;stroke-opacity:1;" /><path d="M 255.7725 214.9025 L 142.88626 229.45999" style="stroke:rgb(139,211,199);stroke-width:1" /><circle cx="142.88626" cy="229.45999" r="2" style="fill:rgb(139,211,199);stroke:none;fill-opacity:1;stroke-opacity:1;" /><path d="M 142.88626 229.45999 L 30 240.315" style="stroke:rgb(139,211,199);stroke-width:1" /><circle cx="30" cy="240.315" r="2" style="fill:rgb(139,211,199);stroke:none;fill-opacity:1;stroke-opacity:1;" /><circle cx="780" cy="134.73" r="2" style="fill:rgb(253,204,229);stroke:none;fill-opacity:1;stroke-opacity:1;" /><path d="M 780 134.73 L 630.77246 179.7125" style="stroke:rgb(253,204,229);stroke-width:1" /><circle cx="630.77246" cy="179.7125" r="2" style="fill:rgb(253,204,229);stroke:none;fill-opacity:1;stroke-opacity:1;" /><path d="M 630.77246 179.7125 L 517.8862 203.4525" style="stroke:rgb(253,204,229);stroke-width:1" /><circle cx="517.8862" cy="203.4525" r="2" style="fill:rgb(253,204,229);stroke:none;fill-opacity:1;stroke-opacity:1;" /><path d="M 517.8862 203.4525 L 451.85202 213.78" style="stroke:rgb(253,204,229);stroke-width:1" /><circle cx="451.85202" cy="213.78" r="2" style="fill:rgb(253,204,229);stroke:none;fill-opacity:1;stroke-opacity:1;" /><path d="M 451.85202 213.78 L 405 220.64749" style="stroke:rgb(253,204,229);stroke-width:1" /><circle cx="405" cy="220.64749" r="2" style="fill:rgb(253,204,229);stroke:none;fill-opacity:1;stroke-opacity:1;" /><path d="M 405 220.64749 L 338.96576 227.785" style="stroke:rgb(253,204,229);stroke-width:1" /><circle cx="338.96576" cy="227.785" r="2" style="fill:rgb(253,204,229);stroke:none;fill-opacity:1;stroke-opacity:1;" /><path d="M 338.96576 227.785 L 292.11377 232.345" style="stroke:rgb(253,204,229);stroke-width:1" /><circle cx="292.11377" cy="232.345" r="2" style="fill:rgb(253,204,229);stroke:none;fill-opacity:1;stroke-opacity:1;" /><path d="M 292.11377 232.345 L 255.7725 235.5025" style="stroke:rgb(253,204,229);stroke-width:1" /><circle cx="255.7725" cy="235.5025" r="2" style="fill:rgb(253,204,229);stroke:none;fill-opacity:1;stroke-opacity:1;" /><path d="M 255.7725 235.5025 L 142.88626 243.8625" style="stroke:rgb(253,204,229);stroke-width:1" /><circle cx="142.88626" cy="243.8625" r="2" style="fill:rgb(253,204,229);stroke:none;fill-opacity:1;stroke-opacity:1;" /><path d="M 142.88626 243.8625 L 30 249.865" style="stroke:rgb(253,204,229);stroke-width:1" /><circle cx="30" cy="249.865" r="2" style="fill:rgb(253,204,229);stroke:none;fill-opacity:1;stroke-opacity:1;" /><circle cx="780" cy="133.7175" r="2" style="fill:rgb(255,238,101);stroke:none;fill-opacity:1;stroke-opacity:1;" /><path d="M 780 133.7175 L 630.77246 183.87" style="stroke:rgb(255,238,101);stroke-width:1" /><circle cx="630.77246" cy="183.87" r="2" style="fill:rgb(255,238,101);stroke:none;fill-opacity:1;stroke-opacity:1;" /><path d="M 630.77246 183.87 L 517.8862 207.4875" style="stroke:rgb(255,238,101);stroke-width:1" /><circle cx="517.8862" cy="207.4875" r="2" style="fill:rgb(255,238,101);stroke:none;fill-opacity:1;stroke-opacity:1;" /><path d="M 517.8862 207.4875 L 451.85202 219.08499" style="stroke:rgb(255,238,101);stroke-width:1" /><circle cx="451.85202" cy="219.08499" r="2" style="fill:rgb(255,238,101);stroke:none;fill-opacity:1;stroke-opacity:1;" /><path d="M 451.85202 219.08499 L 405 226.16501" style="stroke:rgb(255,238,101);stroke-width:1" /><circle cx="405" cy="226.16501" r="2" style="fill:rgb(255,238,101);stroke:none;fill-opacity:1;stroke-opacity:1;" /><path d="M 405 226.16501 L 338.96576 233.725" style="stroke:rgb(255,238,101);stroke-width:1" /><circle cx="338.96576" cy="233.725" r="2" style="fill:rgb(255,238,101);stroke:none;fill-opacity:1;stroke-opacity:1;" /><path d="M 338.96576 233.725 L 292.11377 238.005" style="stroke:rgb(255,238,101);stroke-width:1" /><circle cx="292.11377" cy="238.005" r="2" style="fill:rgb(255,238,101);stroke:none;fill-opacity:1;stroke-opacity:1;" /><path d="M 292.11377 238.005 L 255.7725 241.39749" style="stroke:rgb(255,238,101);stroke-width:1" /><circle cx="255.7725" cy="241.39749" r="2" style="fill:rgb(255,238,101);stroke:none;fill-opacity:1;stroke-opacity:1;" /><path d="M 255.7725 241.39749 L 142.88626 249.39" style="stroke:rgb(255,238,101);stroke-width:1" /><circle cx="142.88626" cy="249.39" r="2" style="fill:rgb(255,238,101);stroke:none;fill-opacity:1;stroke-opacity:1;" /><path d="M 142.88626 249.39 L 30 255.155" style="stroke:rgb(255,238,101);stroke-width:1" /><circle cx="30" cy="255.155" r="2" style="fill:rgb(255,238,101);stroke:none;fill-opacity:1;stroke-opacity:1;" /><circle cx="780" cy="107.240005" r="2" style="fill:rgb(120,68,33);stroke:none;fill-opacity:1;stroke-opacity:1;" /><path d="M 780 107.240005 L 630.77246 161.6575" style="stroke:rgb(120,68,33);stroke-width:1" /><circle cx="630.77246" cy="161.6575" r="2" style="fill:rgb(120,68,33);stroke:none;fill-opacity:1;stroke-opacity:1;" /><path d="M 630.77246 161.6575 L 517.8862 195.4975" style="stroke:rgb(120,68,33);stroke-width:1" /><circle cx="517.8862" cy="195.4975" r="2" style="fill:rgb(120,68,33);stroke:none;fill-opacity:1;stroke-opacity:1;" /><path d="M 517.8862 195.4975 L 451.85202 211.355" style="stroke:rgb(120,68,33);stroke-width:1" /><circle cx="451.85202" cy="211.355" r="2" style="fill:rgb(120,68,33);stroke:none;fill-opacity:1;stroke-opacity:1;" /><path d="M 451.85202 211.355 L 405 219.6975" style="stroke:rgb(120,68,33);stroke-width:1" /><circle cx="405" cy="219.6975" r="2" style="fill:rgb(120,68,33);stroke:none;fill-opacity:1;stroke-opacity:1;" /><path d="M 405 219.6975 L 338.96576 228.60251" style="stroke:rgb(120,68,33);stroke-width:1" /><circle cx="338.96576" cy="228.60251" r="2" style="fill:rgb(120,68,33);stroke:none;fill-opacity:1;stroke-opacity:1;" /><path d="M 338.96576 228.60251 L 292.11377 233.095" style="stroke:rgb(120,68,33);stroke-width:1" /><circle cx="292.11377" cy="233.095" r="2" style="fill:rgb(120,68,33);stroke:none;fill-opacity:1;stroke-opacity:1;" /><path d="M 292.11377 233.095 L 255.7725 235.4975" style="stroke:rgb(120,68,33);stroke-width:1" /><circle cx="255.7725" cy="235.4975" r="2" style="fill:rgb(120,68,33);stroke:none;fill-opacity:1;stroke-opacity:1;" /><path d="M 255.7725 235.4975 L 142.88626 240.185" style="stroke:rgb(120,68,33);stroke-width:1" /><circle cx="142.88626" cy="240.185" r="2" style="fill:rgb(120,68,33);stroke:none;fill-opacity:1;stroke-opacity:1;" /><path d="M 142.88626 240.185 L 30 236.795" style="stroke:rgb(120,68,33);stroke-width:1" /><circle cx="30" cy="236.795" r="2" style="fill:rgb(120,68,33);stroke:none;fill-opacity:1;stroke-opacity:1;" /><circle cx="780" cy="167.0675" r="2" style="fill:rgb(119,211,179);stroke:none;fill-opacity:1;stroke-opacity:1;" /><path d="M 780 167.0675 L 630.77246 203.63" style="stroke:rgb(119,211,179);stroke-width:1" /><circle cx="630.77246" cy="203.63" r="2" style="fill:rgb(119,211,179);stroke:none;fill-opacity:1;stroke-opacity:1;" /><path d="M 630.77246 203.63 L 517.8862 221.875" style="stroke:rgb(119,211,179);stroke-width:1" /><circle cx="517.8862" cy="221.875" r="2" style="fill:rgb(119,211,179);stroke:none;fill-opacity:1;stroke-opacity:1;" /><path d="M 517.8862 221.875 L 451.85202 229.9" style="stroke:rgb(119,211,179);stroke-width:1" /><circle cx="451.85202" cy="229.9" r="2" style="fill:rgb(119,211,179);stroke:none;fill-opacity:1;stroke-opacity:1;" /><path d="M 451.85202 229.9 L 405 234.745" style="stroke:rgb(119,211,179);stroke-width:1" /><circle cx="405" cy="234.745" r="2" style="fill:rgb(119,211,179);stroke:none;fill-opacity:1;stroke-opacity:1;" /><path d="M 405 234.745 L 338.96576 239.875" style="stroke:rgb(119,211,179);stroke-width:1" /><circle cx="338.96576" cy="239.875" r="2" style="fill:rgb(119,211,179);stroke:none;fill-opacity:1;stroke-opacity:1;" /><path d="M 338.96576 239.875 L 292.11377 243.3275" style="stroke:rgb(119,211,179);stroke-width:1" /><circle cx="292.11377" cy="243.3275" r="2" style="fill:rgb(119,211,179);stroke:none;fill-opacity:1;stroke-opacity:1;" /><path d="M 292.11377 243.3275 L 255.7725 245.56" style="stroke:rgb(119,211,179);stroke-width:1" /><circle cx="255.7725" cy="245.56" r="2" style="fill:rgb(119,211,179);stroke:none;fill-opacity:1;stroke-opacity:1;" /><path d="M 255.7725 245.56 L 142.88626 251.39749" style="stroke:rgb(119,211,179);stroke-width:1" /><circle cx="142.88626" cy="251.39749" r="2" style="fill:rgb(119,211,179);stroke:none;fill-opacity:1;stroke-opacity:1;" /><path d="M 142.88626 251.39749 L 30 255.8725" style="stroke:rgb(119,211,179);stroke-width:1" /><circle cx="30" cy="255.8725" r="2" style="fill:rgb(119,211,179);stroke:none;fill-opacity:1;stroke-opacity:1;" /><rect x="676" y="16" width="80" height="217" ry="4" style="fill:rgb(30,30,30);stroke:none;fill-opacity:0.8;stroke-opacity:1;" /><rect x="680" y="20" width="20" height="20" ry="2" style="fill:rgb(253,127,111);stroke:none;fill-opacity:1;stroke-opacity:1;" /><text x="705" y="33" style="font-size:10px;fill:rgb(255,255,255);text-anchor:start;text-align:left;"> fwd-diff </text><rect x="680" y="41" width="20" height="20" ry="2" style="fill:rgb(255,181,90);stroke:none;fill-opacity:1;stroke-opacity:1;" /><text x="705" y="54" style="font-size:10px;fill:rgb(255,255,255);text-anchor:start;text-align:left;"> hain </text><rect x="680" y="62" width="20" height="20" ry="2" style="fill:rgb(139,211,199);stroke:none;fill-opacity:1;stroke-opacity:1;" /><text x="705" y="75" style="font-size:10px;fill:rgb(255,255,255);text-anchor:start;text-align:left;"> hfd </text><rect x="680" y="83" width="20" height="20" ry="2" style="fill:rgb(50,125,209);stroke:none;fill-opacity:1;stroke-opacity:1;" /><text x="705" y="96" style="font-size:10px;fill:rgb(255,255,255);text-anchor:start;text-align:left;"> levien </text><rect x="680" y="104" width="20" height="20" ry="2" style="fill:rgb(119,211,179);stroke:none;fill-opacity:1;stroke-opacity:1;" /><text x="705" y="117" style="font-size:10px;fill:rgb(255,255,255);text-anchor:start;text-align:left;"> levien-linear </text><rect x="680" y="125" width="20" height="20" ry="2" style="fill:rgb(253,204,229);stroke:none;fill-opacity:1;stroke-opacity:1;" /><text x="705" y="138" style="font-size:10px;fill:rgb(255,255,255);text-anchor:start;text-align:left;"> levien-quads </text><rect x="680" y="146" width="20" height="20" ry="2" style="fill:rgb(128,214,87);stroke:none;fill-opacity:1;stroke-opacity:1;" /><text x="705" y="159" style="font-size:10px;fill:rgb(255,255,255);text-anchor:start;text-align:left;"> linear </text><rect x="680" y="167" width="20" height="20" ry="2" style="fill:rgb(255,238,101);stroke:none;fill-opacity:1;stroke-opacity:1;" /><text x="705" y="180" style="font-size:10px;fill:rgb(255,255,255);text-anchor:start;text-align:left;"> recursive </text><rect x="680" y="188" width="20" height="20" ry="2" style="fill:rgb(253,204,229);stroke:none;fill-opacity:1;stroke-opacity:1;" /><text x="705" y="201" style="font-size:10px;fill:rgb(255,255,255);text-anchor:start;text-align:left;"> wang </text><rect x="680" y="209" width="20" height="20" ry="2" style="fill:rgb(120,68,33);stroke:none;fill-opacity:1;stroke-opacity:1;" /><text x="705" y="222" style="font-size:10px;fill:rgb(255,255,255);text-anchor:start;text-align:left;"> yzerman </text><text x="400" y="30" style="font-size:20px;fill:rgb(255,255,255);text-anchor:middle;text-align:center;"> Tiger </text><text x="400" y="42" style="font-size:8px;fill:rgb(200,200,200);text-anchor:middle;text-align:center;"> Normalized edge count score (lower is better) </text></svg>