<svg xmlns="http://www.w3.org/2000/svg" viewBox="0 0 800 300"><rect x="0" y="0" width="800" height="300" ry="6" style="fill:rgb(30,30,30);stroke:none;fill-opacity:1;stroke-opacity:1;" /><path d="M 30 20 L 30 270" style="stroke:rgb(200,200,200);stroke-width:1" /><path d="M 30 270 L 780 270" style="stroke:rgb(200,200,200);stroke-width:1" /><path d="M 780 270 L 780 272" style="stroke:rgb(200,200,200);stroke-width:1" /><text x="780" y="282" style="font-size:10px;fill:rgb(200,200,200);text-anchor:middle;text-align:center;"> 0.01 </text><path d="M 630.77246 270 L 630.77246 272" style="stroke:rgb(200,200,200);stroke-width:1" /><text x="630.77246" y="282" style="font-size:10px;fill:rgb(200,200,200);text-anchor:middle;text-align:center;"> 0.025 </text><path d="M 517.8862 270 L 517.8862 272" style="stroke:rgb(200,200,200);stroke-width:1" /><text x="517.8862" y="282" style="font-size:10px;fill:rgb(200,200,200);text-anchor:middle;text-align:center;"> 0.05 </text><path d="M 451.85202 270 L 451.85202 272" style="stroke:rgb(200,200,200);stroke-width:1" /><text x="451.85202" y="282" style="font-size:10px;fill:rgb(200,200,200);text-anchor:middle;text-align:center;"> 0.075 </text><path d="M 405 270 L 405 272" style="stroke:rgb(200,200,200);stroke-width:1" /><text x="405" y="282" style="font-size:10px;fill:rgb(200,200,200);text-anchor:middle;text-align:center;"> 0.1 </text><path d="M 338.96576 270 L 338.96576 272" style="stroke:rgb(200,200,200);stroke-width:1" /><text x="338.96576" y="282" style="font-size:10px;fill:rgb(200,200,200);text-anchor:middle;text-align:center;"> 0.15 </text><path d="M 292.11377 270 L 292.11377 272" style="stroke:rgb(200,200,200);stroke-width:1" /><text x="292.11377" y="282" style="font-size:10px;fill:rgb(200,200,200);text-anchor:middle;text-align:center;"> 0.2 </text><path d="M 255.7725 270 L 255.7725 272" style="stroke:rgb(200,200,200);stroke-width:1" /><text x="255.7725" y="282" style="font-size:10px;fill:rgb(200,200,200);text-anchor:middle;text-align:center;"> 0.25 </text><path d="M 142.88626 270 L 142.88626 272" style="stroke:rgb(200,200,200);stroke-width:1" /><text x="142.88626" y="282" style="font-size:10px;fill:rgb(200,200,200);text-anchor:middle;text-align:center;"> 0.5 </text><path d="M 30 270 L 30 272" style="stroke:rgb(200,200,200);stroke-width:1" /><text x="30" y="282" style="font-size:10px;fill:rgb(200,200,200);text-anchor:middle;text-align:center;"> 1 </text><path d="M 28 270 L 30 270" style="stroke:rgb(200,200,200);stroke-width:1" /><text x="26" y="274" style="font-size:10px;fill:rgb(200,200,200);text-anchor:end;text-align:right;"> 0 </text><path d="M 28 207.5 L 30 207.5" style="stroke:rgb(200,200,200);stroke-width:1" /><text x="26" y="211.5" style="font-size:10px;fill:rgb(200,200,200);text-anchor:end;text-align:right;"> 0.25 </text><path d="M 28 145 L 30 145" style="stroke:rgb(200,200,200);stroke-width:1" /><text x="26" y="149" style="font-size:10px;fill:rgb(200,200,200);text-anchor:end;text-align:right;"> 0.5 </text><path d="M 28 82.5 L 30 82.5" style="stroke:rgb(200,200,200);stroke-width:1" /><text x="26" y="86.5" style="font-size:10px;fill:rgb(200,200,200);text-anchor:end;text-align:right;"> 0.75 </text><path d="M 28 20 L 30 20" style="stroke:rgb(200,200,200);stroke-width:1" /><text x="26" y="24" style="font-size:10px;fill:rgb(200,200,200);text-anchor:end;text-align:right;"> 1 </text><text x="400" y="294" style="font-size:10px;fill:rgb(200,200,200);text-anchor:middle;text-align:center;"> Tolerance </text><circle cx="780" cy="85.4525" r="2" style="fill:rgb(253,127,111);stroke:none;fill-opacity:1;stroke-opacity:1;" /><path d="M 780 85.4525 L 630.77246 152.4" style="stroke:rgb(253,127,111);stroke-width:1" /><circle cx="630.77246" cy="152.4" r="2" style="fill:rgb(253,127,111);stroke:none;fill-opacity:1;stroke-opacity:1;" /><path d="M 630.77246 152.4 L 517.8862 186.02249" style="stroke:rgb(253,127,111);stroke-width:1" /><circle cx="517.8862" cy="186.02249" r="2" style="fill:rgb(253,127,111);stroke:none;fill-opacity:1;stroke-opacity:1;" /><path d="M 517.8862 186.02249 L 451.85202 200.88501" style="stroke:rgb(253,127,111);stroke-width:1" /><circle cx="451.85202" cy="200.88501" r="2" style="fill:rgb(253,127,111);stroke:none;fill-opacity:1;stroke-opacity:1;" /><path d="M 451.85202 200.88501 L 405 209.77" style="stroke:rgb(253,127,111);stroke-width:1" /><circle cx="405" cy="209.77" r="2" style="fill:rgb(253,127,111);stroke:none;fill-opacity:1;stroke-opacity:1;" /><path d="M 405 209.77 L 338.96576 220.275" style="stroke:rgb(253,127,111);stroke-width:1" /><circle cx="338.96576" cy="220.275" r="2" style="fill:rgb(253,127,111);stroke:none;fill-opacity:1;stroke-opacity:1;" /><path d="M 338.96576 220.275 L 292.11377 226.4675" style="stroke:rgb(253,127,111);stroke-width:1" /><circle cx="292.11377" cy="226.4675" r="2" style="fill:rgb(253,127,111);stroke:none;fill-opacity:1;stroke-opacity:1;" /><path d="M 292.11377 226.4675 L 255.7725 230.7125" style="stroke:rgb(253,127,111);stroke-width:1" /><circle cx="255.7725" cy="230.7125" r="2" style="fill:rgb(253,127,111);stroke:none;fill-opacity:1;stroke-opacity:1;" /><path d="M 255.7725 230.7125 L 142.88626 241.14749" style="stroke:rgb(253,127,111);stroke-width:1" /><circle cx="142.88626" cy="241.14749" r="2" style="fill:rgb(253,127,111);stroke:none;fill-opacity:1;stroke-opacity:1;" /><path d="M 142.88626 241.14749 L 30 248.47" style="stroke:rgb(253,127,111);stroke-width:1" /><circle cx="30" cy="248.47" r="2" style="fill:rgb(253,127,111);stroke:none;fill-opacity:1;stroke-opacity:1;" /><circle cx="780" cy="94.795" r="2" style="fill:rgb(50,125,209);stroke:none;fill-opacity:1;stroke-opacity:1;" /><path d="M 780 94.795 L 630.77246 158.1875" style="stroke:rgb(50,125,209);stroke-width:1" /><circle cx="630.77246" cy="158.1875" r="2" style="fill:rgb(50,125,209);stroke:none;fill-opacity:1;stroke-opacity:1;" /><path d="M 630.77246 158.1875 L 517.8862 190.04001" style="stroke:rgb(50,125,209);stroke-width:1" /><circle cx="517.8862" cy="190.04001" r="2" style="fill:rgb(50,125,209);stroke:none;fill-opacity:1;stroke-opacity:1;" /><path d="M 517.8862 190.04001 L 451.85202 204.1425" style="stroke:rgb(50,125,209);stroke-width:1" /><circle cx="451.85202" cy="204.1425" r="2" style="fill:rgb(50,125,209);stroke:none;fill-opacity:1;stroke-opacity:1;" /><path d="M 451.85202 204.1425 L 405 212.5325" style="stroke:rgb(50,125,209);stroke-width:1" /><circle cx="405" cy="212.5325" r="2" style="fill:rgb(50,125,209);stroke:none;fill-opacity:1;stroke-opacity:1;" /><path d="M 405 212.5325 L 338.96576 222.495" style="stroke:rgb(50,125,209);stroke-width:1" /><circle cx="338.96576" cy="222.495" r="2" style="fill:rgb(50,125,209);stroke:none;fill-opacity:1;stroke-opacity:1;" /><path d="M 338.96576 222.495 L 292.11377 228.37" style="stroke:rgb(50,125,209);stroke-width:1" /><circle cx="292.11377" cy="228.37" r="2" style="fill:rgb(50,125,209);stroke:none;fill-opacity:1;stroke-opacity:1;" /><path d="M 292.11377 228.37 L 255.7725 232.4" style="stroke:rgb(50,125,209);stroke-width:1" /><circle cx="255.7725" cy="232.4" r="2" style="fill:rgb(50,125,209);stroke:none;fill-opacity:1;stroke-opacity:1;" /><path d="M 255.7725 232.4 L 142.88626 242.31" style="stroke:rgb(50,125,209);stroke-width:1" /><circle cx="142.88626" cy="242.31" r="2" style="fill:rgb(50,125,209);stroke:none;fill-opacity:1;stroke-opacity:1;" /><path d="M 142.88626 242.31 L 30 249.27249" style="stroke:rgb(50,125,209);stroke-width:1" /><circle cx="30" cy="249.27249" r="2" style="fill:rgb(50,125,209);stroke:none;fill-opacity:1;stroke-opacity:1;" /><circle cx="780" cy="20" r="2" style="fill:rgb(255,238,101);stroke:none;fill-opacity:1;stroke-opacity:1;" /><path d="M 780 20 L 630.77246 121.0775" style="stroke:rgb(255,238,101);stroke-width:1" /><circle cx="630.77246" cy="121.0775" r="2" style="fill:rgb(255,238,101);stroke:none;fill-opacity:1;stroke-opacity:1;" /><path d="M 630.77246 121.0775 L 517.8862 154.285" style="stroke:rgb(255,238,101);stroke-width:1" /><circle cx="517.8862" cy="154.285" r="2" style="fill:rgb(255,238,101);stroke:none;fill-opacity:1;stroke-opacity:1;" /><path d="M 517.8862 154.285 L 451.85202 179.345" style="stroke:rgb(255,238,101);stroke-width:1" /><circle cx="451.85202" cy="179.345" r="2" style="fill:rgb(255,238,101);stroke:none;fill-opacity:1;stroke-opacity:1;" /><path d="M 451.85202 179.345 L 405 194.725" style="stroke:rgb(255,238,101);stroke-width:1" /><circle cx="405" cy="194.725" r="2" style="fill:rgb(255,238,101);stroke:none;fill-opacity:1;stroke-opacity:1;" /><path d="M 405 194.725 L 338.96576 204.725" style="stroke:rgb(255,238,101);stroke-width:1" /><circle cx="338.96576" cy="204.725" r="2" style="fill:rgb(255,238,101);stroke:none;fill-opacity:1;stroke-opacity:1;" /><path d="M 338.96576 204.725 L 292.11377 211.1225" style="stroke:rgb(255,238,101);stroke-width:1" /><circle cx="292.11377" cy="211.1225" r="2" style="fill:rgb(255,238,101);stroke:none;fill-opacity:1;stroke-opacity:1;" /><path d="M 292.11377 211.1225 L 255.7725 217.6625" style="stroke:rgb(255,238,101);stroke-width:1" /><circle cx="255.7725" cy="217.6625" r="2" style="fill:rgb(255,238,101);stroke:none;fill-opacity:1;stroke-opacity:1;" /><path d="M 255.7725 217.6625 L 142.88626 234.265" style="stroke:rgb(255,238,101);stroke-width:1" /><circle cx="142.88626" cy="234.265" r="2" style="fill:rgb(255,238,101);stroke:none;fill-opacity:1;stroke-opacity:1;" /><path d="M 142.88626 234.265 L 30 242.32" style="stroke:rgb(255,238,101);stroke-width:1" /><circle cx="30" cy="242.32" r="2" style="fill:rgb(255,238,101);stroke:none;fill-opacity:1;stroke-opacity:1;" /><circle cx="780" cy="94.792496" r="2" style="fill:rgb(119,211,179);stroke:none;fill-opacity:1;stroke-opacity:1;" /><path d="M 780 94.792496 L 630.77246 158.17" style="stroke:rgb(119,211,179);stroke-width:1" /><circle cx="630.77246" cy="158.17" r="2" style="fill:rgb(119,211,179);stroke:none;fill-opacity:1;stroke-opacity:1;" /><path d="M 630.77246 158.17 L 517.8862 190.01999" style="stroke:rgb(119,211,179);stroke-width:1" /><circle cx="517.8862" cy="190.01999" r="2" style="fill:rgb(119,211,179);stroke:none;fill-opacity:1;stroke-opacity:1;" /><path d="M 517.8862 190.01999 L 451.85202 204.1125" style="stroke:rgb(119,211,179);stroke-width:1" /><circle cx="451.85202" cy="204.1125" r="2" style="fill:rgb(119,211,179);stroke:none;fill-opacity:1;stroke-opacity:1;" /><path d="M 451.85202 204.1125 L 405 212.515" style="stroke:rgb(119,211,179);stroke-width:1" /><circle cx="405" cy="212.515" r="2" style="fill:rgb(119,211,179);stroke:none;fill-opacity:1;stroke-opacity:1;" /><path d="M 405 212.515 L 338.96576 222.475" style="stroke:rgb(119,211,179);stroke-width:1" /><circle cx="338.96576" cy="222.475" r="2" style="fill:rgb(119,211,179);stroke:none;fill-opacity:1;stroke-opacity:1;" /><path d="M 338.96576 222.475 L 292.11377 228.35251" style="stroke:rgb(119,211,179);stroke-width:1" /><circle cx="292.11377" cy="228.35251" r="2" style="fill:rgb(119,211,179);stroke:none;fill-opacity:1;stroke-opacity:1;" /><path d="M 292.11377 228.35251 L 255.7725 232.3875" style="stroke:rgb(119,211,179);stroke-width:1" /><circle cx="255.7725" cy="232.3875" r="2" style="fill:rgb(119,211,179);stroke:none;fill-opacity:1;stroke-opacity:1;" /><path d="M 255.7725 232.3875 L 142.88626 242.3125" style="stroke:rgb(119,211,179);stroke-width:1" /><circle cx="142.88626" cy="242.3125" r="2" style="fill:rgb(119,211,179);stroke:none;fill-opacity:1;stroke-opacity:1;" /><path d="M 142.88626 242.3125 L 30 249.285" style="stroke:rgb(119,211,179);stroke-width:1" /><circle cx="30" cy="249.285" r="2" style="fill:rgb(119,211,179);stroke:none;fill-opacity:1;stroke-opacity:1;" /><circle cx="780" cy="24.222504" r="2" style="fill:rgb(128,214,87);stroke:none;fill-opacity:1;stroke-opacity:1;" /><path d="M 780 24.222504 L 630.77246 115.630005" style="stroke:rgb(128,214,87);stroke-width:1" /><circle cx="630.77246" cy="115.630005" r="2" style="fill:rgb(128,214,87);stroke:none;fill-opacity:1;stroke-opacity:1;" /><path d="M 630.77246 115.630005 L 517.8862 160.295" style="stroke:rgb(128,214,87);stroke-width:1" /><circle cx="517.8862" cy="160.295" r="2" style="fill:rgb(128,214,87);stroke:none;fill-opacity:1;stroke-opacity:1;" /><path d="M 517.8862 160.295 L 451.85202 180.9925" style="stroke:rgb(128,214,87);stroke-width:1" /><circle cx="451.85202" cy="180.9925" r="2" style="fill:rgb(128,214,87);stroke:none;fill-opacity:1;stroke-opacity:1;" /><path d="M 451.85202 180.9925 L 405 192.33" style="stroke:rgb(128,214,87);stroke-width:1" /><circle cx="405" cy="192.33" r="2" style="fill:rgb(128,214,87);stroke:none;fill-opacity:1;stroke-opacity:1;" /><path d="M 405 192.33 L 338.96576 205.805" style="stroke:rgb(128,214,87);stroke-width:1" /><circle cx="338.96576" cy="205.805" r="2" style="fill:rgb(128,214,87);stroke:none;fill-opacity:1;stroke-opacity:1;" /><path d="M 338.96576 205.805 L 292.11377 214.3675" style="stroke:rgb(128,214,87);stroke-width:1" /><circle cx="292.11377" cy="214.3675" r="2" style="fill:rgb(128,214,87);stroke:none;fill-opacity:1;stroke-opacity:1;" /><path d="M 292.11377 214.3675 L 255.7725 220.34" style="stroke:rgb(128,214,87);stroke-width:1" /><circle cx="255.7725" cy="220.34" r="2" style="fill:rgb(128,214,87);stroke:none;fill-opacity:1;stroke-opacity:1;" /><path d="M 255.7725 220.34 L 142.88626 233.8875" style="stroke:rgb(128,214,87);stroke-width:1" /><circle cx="142.88626" cy="233.8875" r="2" style="fill:rgb(128,214,87);stroke:none;fill-opacity:1;stroke-opacity:1;" /><path d="M 142.88626 233.8875 L 30 243.8775" style="stroke:rgb(128,214,87);stroke-width:1" /><circle cx="30" cy="243.8775" r="2" style="fill:rgb(128,214,87);stroke:none;fill-opacity:1;stroke-opacity:1;" /><circle cx="780" cy="85.4525" r="2" style="fill:rgb(253,204,229);stroke:none;fill-opacity:1;stroke-opacity:1;" /><path d="M 780 85.4525 L 630.77246 152.4" style="stroke:rgb(253,204,229);stroke-width:1" /><circle cx="630.77246" cy="152.4" r="2" style="fill:rgb(253,204,229);stroke:none;fill-opacity:1;stroke-opacity:1;" /><path d="M 630.77246 152.4 L 517.8862 186.02249" style="stroke:rgb(253,204,229);stroke-width:1" /><circle cx="517.8862" cy="186.02249" r="2" style="fill:rgb(253,204,229);stroke:none;fill-opacity:1;stroke-opacity:1;" /><path d="M 517.8862 186.02249 L 451.85202 200.88501" style="stroke:rgb(253,204,229);stroke-width:1" /><circle cx="451.85202" cy="200.88501" r="2" style="fill:rgb(253,204,229);stroke:none;fill-opacity:1;stroke-opacity:1;" /><path d="M 451.85202 200.88501 L 405 209.77" style="stroke:rgb(253,204,229);stroke-width:1" /><circle cx="405" cy="209.77" r="2" style="fill:rgb(253,204,229);stroke:none;fill-opacity:1;stroke-opacity:1;" /><path d="M 405 209.77 L 338.96576 220.275" style="stroke:rgb(253,204,229);stroke-width:1" /><circle cx="338.96576" cy="220.275" r="2" style="fill:rgb(253,204,229);stroke:none;fill-opacity:1;stroke-opacity:1;" /><path d="M 338.96576 220.275 L 292.11377 226.4675" style="stroke:rgb(253,204,229);stroke-width:1" /><circle cx="292.11377" cy="226.4675" r="2" style="fill:rgb(253,204,229);stroke:none;fill-opacity:1;stroke-opacity:1;" /><path d="M 292.11377 226.4675 L 255.7725 230.7125" style="stroke:rgb(253,204,229);stroke-width:1" /><circle cx="255.7725" cy="230.7125" r="2" style="fill:rgb(253,204,229);stroke:none;fill-opacity:1;stroke-opacity:1;" /><path d="M 255.7725 230.7125 L 142.88626 241.14749" style="stroke:rgb(253,204,229);stroke-width:1" /><circle cx="142.88626" cy="241.14749" r="2" style="fill:rgb(253,204,229);stroke:none;fill-opacity:1;stroke-opacity:1;" /><path d="M 142.88626 241.14749 L 30 248.47" style="stroke:rgb(253,204,229);stroke-width:1" /><circle cx="30" cy="248.47" r="2" style="fill:rgb(253,204,229);stroke:none;fill-opacity:1;stroke-opacity:1;" /><rect x="676" y="16" width="80" height="133" ry="4" style="fill:rgb(30,30,30);stroke:none;fill-opacity:0.8;stroke-opacity:1;" /><rect x="680" y="20" width="20" height="20" ry="2" style="fill:rgb(253,127,111);stroke:none;fill-opacity:1;stroke-opacity:1;" /><text x="705" y="33" style="font-size:10px;fill:rgb(255,255,255);text-anchor:start;text-align:left;"> fwd-diff </text><rect x="680" y="41" width="20" height="20" ry="2" style="fill:rgb(50,125,209);stroke:none;fill-opacity:1;stroke-opacity:1;" /><text x="705" y="54" style="font-size:10px;fill:rgb(255,255,255);text-anchor:start;text-align:left;"> levien </text><rect x="680" y="62" width="20" height="20" ry="2" style="fill:rgb(119,211,179);stroke:none;fill-opacity:1;stroke-opacity:1;" /><text x="705" y="75" style="font-size:10px;fill:rgb(255,255,255);text-anchor:start;text-align:left;"> levien-linear </text><rect x="680" y="83" width="20" height="20" ry="2" style="fill:rgb(128,214,87);stroke:none;fill-opacity:1;stroke-opacity:1;" /><text x="705" y="96" style="font-size:10px;fill:rgb(255,255,255);text-anchor:start;text-align:left;"> linear </text><rect x="680" y="104" width="20" height="20" ry="2" style="fill:rgb(255,238,101);stroke:none;fill-opacity:1;stroke-opacity:1;" /><text x="705" y="117" style="font-size:10px;fill:rgb(255,255,255);text-anchor:start;text-align:left;"> recursive </text><rect x="680" y="125" width="20" height="20" ry="2" style="fill:rgb(253,204,229);stroke:none;fill-opacity:1;stroke-opacity:1;" /><text x="705" y="138" style="font-size:10px;fill:rgb(255,255,255);text-anchor:start;text-align:left;"> wang </text><text x="400" y="30" style="font-size:20px;fill:rgb(255,255,255);text-anchor:middle;text-align:center;"> All </text><text x="400" y="42" style="font-size:8px;fill:rgb(200,200,200);text-anchor:middle;text-align:center;"> Normalized edge count score (lower is better) </text></svg>