<svg xmlns="http://www.w3.org/2000/svg" viewBox="0 0 800 300"><rect x="0" y="0" width="800" height="300" ry="6" style="fill:rgb(30,30,30);stroke:none;fill-opacity:1;stroke-opacity:1;" /><path d="M 30 20 L 30 270" style="stroke:rgb(200,200,200);stroke-width:1" /><path d="M 30 270 L 780 270" style="stroke:rgb(200,200,200);stroke-width:1" /><path d="M 780 270 L 780 272" style="stroke:rgb(200,200,200);stroke-width:1" /><text x="780" y="282" style="font-size:10px;fill:rgb(200,200,200);text-anchor:middle;text-align:center;"> 0.01 </text><path d="M 630.77246 270 L 630.77246 272" style="stroke:rgb(200,200,200);stroke-width:1" /><text x="630.77246" y="282" style="font-size:10px;fill:rgb(200,200,200);text-anchor:middle;text-align:center;"> 0.025 </text><path d="M 517.8862 270 L 517.8862 272" style="stroke:rgb(200,200,200);stroke-width:1" /><text x="517.8862" y="282" style="font-size:10px;fill:rgb(200,200,200);text-anchor:middle;text-align:center;"> 0.05 </text><path d="M 451.85202 270 L 451.85202 272" style="stroke:rgb(200,200,200);stroke-width:1" /><text x="451.85202" y="282" style="font-size:10px;fill:rgb(200,200,200);text-anchor:middle;text-align:center;"> 0.075 </text><path d="M 405 270 L 405 272" style="stroke:rgb(200,200,200);stroke-width:1" /><text x="405" y="282" style="font-size:10px;fill:rgb(200,200,200);text-anchor:middle;text-align:center;"> 0.1 </text><path d="M 338.96576 270 L 338.96576 272" style="stroke:rgb(200,200,200);stroke-width:1" /><text x="338.96576" y="282" style="font-size:10px;fill:rgb(200,200,200);text-anchor:middle;text-align:center;"> 0.15 </text><path d="M 292.11377 270 L 292.11377 272" style="stroke:rgb(200,200,200);stroke-width:1" /><text x="292.11377" y="282" style="font-size:10px;fill:rgb(200,200,200);text-anchor:middle;text-align:center;"> 0.2 </text><path d="M 255.7725 270 L 255.7725 272" style="stroke:rgb(200,200,200);stroke-width:1" /><text x="255.7725" y="282" style="font-size:10px;fill:rgb(200,200,200);text-anchor:middle;text-align:center;"> 0.25 </text><path d="M 142.88626 270 L 142.88626 272" style="stroke:rgb(200,200,200);stroke-width:1" /><text x="142.88626" y="282" style="font-size:10px;fill:rgb(200,200,200);text-anchor:middle;text-align:center;"> 0.5 </text><path d="M 30 270 L 30 272" style="stroke:rgb(200,200,200);stroke-width:1" /><text x="30" y="282" style="font-size:10px;fill:rgb(200,200,200);text-anchor:middle;text-align:center;"> 1 </text><path d="M 28 270 L 30 270" style="stroke:rgb(200,200,200);stroke-width:1" /><text x="26" y="274" style="font-size:10px;fill:rgb(200,200,200);text-anchor:end;text-align:right;"> 0 </text><path d="M 28 207.5 L 30 207.5" style="stroke:rgb(200,200,200);stroke-width:1" /><text x="26" y="211.5" style="font-size:10px;fill:rgb(200,200,200);text-anchor:end;text-align:right;"> 0.25 </text><path d="M 28 145 L 30 145" style="stroke:rgb(200,200,200);stroke-width:1" /><text x="26" y="149" style="font-size:10px;fill:rgb(200,200,200);text-anchor:end;text-align:right;"> 0.5 </text><path d="M 28 82.5 L 30 82.5" style="stroke:rgb(200,200,200);stroke-width:1" /><text x="26" y="86.5" style="font-size:10px;fill:rgb(200,200,200);text-anchor:end;text-align:right;"> 0.75 </text><path d="M 28 20 L 30 20" style="stroke:rgb(200,200,200);stroke-width:1" /><text x="26" y="24" style="font-size:10px;fill:rgb(200,200,200);text-anchor:end;text-align:right;"> 1 </text><text x="400" y="294" style="font-size:10px;fill:rgb(200,200,200);text-anchor:middle;text-align:center;"> Tolerance </text><circle cx="780" cy="139.2" r="2" style="fill:rgb(119,211,179);stroke:none;fill-opacity:1;stroke-opacity:1;" /><path d="M 780 139.2 L 630.77246 186.93" style="stroke:rgb(119,211,179);stroke-width:1" /><circle cx="630.77246" cy="186.93" r="2" style="fill:rgb(119,211,179);stroke:none;fill-opacity:1;stroke-opacity:1;" /><path d="M 630.77246 186.93 L 517.8862 210.9875" style="stroke:rgb(119,211,179);stroke-width:1" /><circle cx="517.8862" cy="210.9875" r="2" style="fill:rgb(119,211,179);stroke:none;fill-opacity:1;stroke-opacity:1;" /><path d="M 517.8862 210.9875 L 451.85202 221.6425" style="stroke:rgb(119,211,179);stroke-width:1" /><circle cx="451.85202" cy="221.6425" r="2" style="fill:rgb(119,211,179);stroke:none;fill-opacity:1;stroke-opacity:1;" /><path d="M 451.85202 221.6425 L 405 228.0175" style="stroke:rgb(119,211,179);stroke-width:1" /><circle cx="405" cy="228.0175" r="2" style="fill:rgb(119,211,179);stroke:none;fill-opacity:1;stroke-opacity:1;" /><path d="M 405 228.0175 L 338.96576 235.59" style="stroke:rgb(119,211,179);stroke-width:1" /><circle cx="338.96576" cy="235.59" r="2" style="fill:rgb(119,211,179);stroke:none;fill-opacity:1;stroke-opacity:1;" /><path d="M 338.96576 235.59 L 292.11377 240.08499" style="stroke:rgb(119,211,179);stroke-width:1" /><circle cx="292.11377" cy="240.08499" r="2" style="fill:rgb(119,211,179);stroke:none;fill-opacity:1;stroke-opacity:1;" /><path d="M 292.11377 240.08499 L 255.7725 243.1675" style="stroke:rgb(119,211,179);stroke-width:1" /><circle cx="255.7725" cy="243.1675" r="2" style="fill:rgb(119,211,179);stroke:none;fill-opacity:1;stroke-opacity:1;" /><path d="M 255.7725 243.1675 L 142.88626 250.79001" style="stroke:rgb(119,211,179);stroke-width:1" /><circle cx="142.88626" cy="250.79001" r="2" style="fill:rgb(119,211,179);stroke:none;fill-opacity:1;stroke-opacity:1;" /><path d="M 142.88626 250.79001 L 30 256.1925" style="stroke:rgb(119,211,179);stroke-width:1" /><circle cx="30" cy="256.1925" r="2" style="fill:rgb(119,211,179);stroke:none;fill-opacity:1;stroke-opacity:1;" /><circle cx="780" cy="93.675" r="2" style="fill:rgb(128,214,87);stroke:none;fill-opacity:1;stroke-opacity:1;" /><path d="M 780 93.675 L 630.77246 159.525" style="stroke:rgb(128,214,87);stroke-width:1" /><circle cx="630.77246" cy="159.525" r="2" style="fill:rgb(128,214,87);stroke:none;fill-opacity:1;stroke-opacity:1;" /><path d="M 630.77246 159.525 L 517.8862 191.775" style="stroke:rgb(128,214,87);stroke-width:1" /><circle cx="517.8862" cy="191.775" r="2" style="fill:rgb(128,214,87);stroke:none;fill-opacity:1;stroke-opacity:1;" /><path d="M 517.8862 191.775 L 451.85202 206.75749" style="stroke:rgb(128,214,87);stroke-width:1" /><circle cx="451.85202" cy="206.75749" r="2" style="fill:rgb(128,214,87);stroke:none;fill-opacity:1;stroke-opacity:1;" /><path d="M 451.85202 206.75749 L 405 214.98" style="stroke:rgb(128,214,87);stroke-width:1" /><circle cx="405" cy="214.98" r="2" style="fill:rgb(128,214,87);stroke:none;fill-opacity:1;stroke-opacity:1;" /><path d="M 405 214.98 L 338.96576 224.8125" style="stroke:rgb(128,214,87);stroke-width:1" /><circle cx="338.96576" cy="224.8125" r="2" style="fill:rgb(128,214,87);stroke:none;fill-opacity:1;stroke-opacity:1;" /><path d="M 338.96576 224.8125 L 292.11377 231.075" style="stroke:rgb(128,214,87);stroke-width:1" /><circle cx="292.11377" cy="231.075" r="2" style="fill:rgb(128,214,87);stroke:none;fill-opacity:1;stroke-opacity:1;" /><path d="M 292.11377 231.075 L 255.7725 235.4225" style="stroke:rgb(128,214,87);stroke-width:1" /><circle cx="255.7725" cy="235.4225" r="2" style="fill:rgb(128,214,87);stroke:none;fill-opacity:1;stroke-opacity:1;" /><path d="M 255.7725 235.4225 L 142.88626 245.3275" style="stroke:rgb(128,214,87);stroke-width:1" /><circle cx="142.88626" cy="245.3275" r="2" style="fill:rgb(128,214,87);stroke:none;fill-opacity:1;stroke-opacity:1;" /><path d="M 142.88626 245.3275 L 30 252.74" style="stroke:rgb(128,214,87);stroke-width:1" /><circle cx="30" cy="252.74" r="2" style="fill:rgb(128,214,87);stroke:none;fill-opacity:1;stroke-opacity:1;" /><circle cx="780" cy="20" r="2" style="fill:rgb(253,204,229);stroke:none;fill-opacity:1;stroke-opacity:1;" /><path d="M 780 20 L 630.77246 111.565" style="stroke:rgb(253,204,229);stroke-width:1" /><circle cx="630.77246" cy="111.565" r="2" style="fill:rgb(253,204,229);stroke:none;fill-opacity:1;stroke-opacity:1;" /><path d="M 630.77246 111.565 L 517.8862 157.73001" style="stroke:rgb(253,204,229);stroke-width:1" /><circle cx="517.8862" cy="157.73001" r="2" style="fill:rgb(253,204,229);stroke:none;fill-opacity:1;stroke-opacity:1;" /><path d="M 517.8862 157.73001 L 451.85202 178.16" style="stroke:rgb(253,204,229);stroke-width:1" /><circle cx="451.85202" cy="178.16" r="2" style="fill:rgb(253,204,229);stroke:none;fill-opacity:1;stroke-opacity:1;" /><path d="M 451.85202 178.16 L 405 190.36" style="stroke:rgb(253,204,229);stroke-width:1" /><circle cx="405" cy="190.36" r="2" style="fill:rgb(253,204,229);stroke:none;fill-opacity:1;stroke-opacity:1;" /><path d="M 405 190.36 L 338.96576 204.82251" style="stroke:rgb(253,204,229);stroke-width:1" /><circle cx="338.96576" cy="204.82251" r="2" style="fill:rgb(253,204,229);stroke:none;fill-opacity:1;stroke-opacity:1;" /><path d="M 338.96576 204.82251 L 292.11377 213.4275" style="stroke:rgb(253,204,229);stroke-width:1" /><circle cx="292.11377" cy="213.4275" r="2" style="fill:rgb(253,204,229);stroke:none;fill-opacity:1;stroke-opacity:1;" /><path d="M 292.11377 213.4275 L 255.7725 219.29001" style="stroke:rgb(253,204,229);stroke-width:1" /><circle cx="255.7725" cy="219.29001" r="2" style="fill:rgb(253,204,229);stroke:none;fill-opacity:1;stroke-opacity:1;" /><path d="M 255.7725 219.29001 L 142.88626 233.8875" style="stroke:rgb(253,204,229);stroke-width:1" /><circle cx="142.88626" cy="233.8875" r="2" style="fill:rgb(253,204,229);stroke:none;fill-opacity:1;stroke-opacity:1;" /><path d="M 142.88626 233.8875 L 30 244.2175" style="stroke:rgb(253,204,229);stroke-width:1" /><circle cx="30" cy="244.2175" r="2" style="fill:rgb(253,204,229);stroke:none;fill-opacity:1;stroke-opacity:1;" /><circle cx="780" cy="20" r="2" style="fill:rgb(253,127,111);stroke:none;fill-opacity:1;stroke-opacity:1;" /><path d="M 780 20 L 630.77246 111.565" style="stroke:rgb(253,127,111);stroke-width:1" /><circle cx="630.77246" cy="111.565" r="2" style="fill:rgb(253,127,111);stroke:none;fill-opacity:1;stroke-opacity:1;" /><path d="M 630.77246 111.565 L 517.8862 157.73001" style="stroke:rgb(253,127,111);stroke-width:1" /><circle cx="517.8862" cy="157.73001" r="2" style="fill:rgb(253,127,111);stroke:none;fill-opacity:1;stroke-opacity:1;" /><path d="M 517.8862 157.73001 L 451.85202 178.16" style="stroke:rgb(253,127,111);stroke-width:1" /><circle cx="451.85202" cy="178.16" r="2" style="fill:rgb(253,127,111);stroke:none;fill-opacity:1;stroke-opacity:1;" /><path d="M 451.85202 178.16 L 405 190.36" style="stroke:rgb(253,127,111);stroke-width:1" /><circle cx="405" cy="190.36" r="2" style="fill:rgb(253,127,111);stroke:none;fill-opacity:1;stroke-opacity:1;" /><path d="M 405 190.36 L 338.96576 204.82251" style="stroke:rgb(253,127,111);stroke-width:1" /><circle cx="338.96576" cy="204.82251" r="2" style="fill:rgb(253,127,111);stroke:none;fill-opacity:1;stroke-opacity:1;" /><path d="M 338.96576 204.82251 L 292.11377 213.4275" style="stroke:rgb(253,127,111);stroke-width:1" /><circle cx="292.11377" cy="213.4275" r="2" style="fill:rgb(253,127,111);stroke:none;fill-opacity:1;stroke-opacity:1;" /><path d="M 292.11377 213.4275 L 255.7725 219.29001" style="stroke:rgb(253,127,111);stroke-width:1" /><circle cx="255.7725" cy="219.29001" r="2" style="fill:rgb(253,127,111);stroke:none;fill-opacity:1;stroke-opacity:1;" /><path d="M 255.7725 219.29001 L 142.88626 233.8875" style="stroke:rgb(253,127,111);stroke-width:1" /><circle cx="142.88626" cy="233.8875" r="2" style="fill:rgb(253,127,111);stroke:none;fill-opacity:1;stroke-opacity:1;" /><path d="M 142.88626 233.8875 L 30 244.2175" style="stroke:rgb(253,127,111);stroke-width:1" /><circle cx="30" cy="244.2175" r="2" style="fill:rgb(253,127,111);stroke:none;fill-opacity:1;stroke-opacity:1;" /><circle cx="780" cy="67.535" r="2" style="fill:rgb(139,211,199);stroke:none;fill-opacity:1;stroke-opacity:1;" /><path d="M 780 67.535 L 630.77246 135.67" style="stroke:rgb(139,211,199);stroke-width:1" /><circle cx="630.77246" cy="135.67" r="2" style="fill:rgb(139,211,199);stroke:none;fill-opacity:1;stroke-opacity:1;" /><path d="M 630.77246 135.67 L 517.8862 175.945" style="stroke:rgb(139,211,199);stroke-width:1" /><circle cx="517.8862" cy="175.945" r="2" style="fill:rgb(139,211,199);stroke:none;fill-opacity:1;stroke-opacity:1;" /><path d="M 517.8862 175.945 L 451.85202 189.9325" style="stroke:rgb(139,211,199);stroke-width:1" /><circle cx="451.85202" cy="189.9325" r="2" style="fill:rgb(139,211,199);stroke:none;fill-opacity:1;stroke-opacity:1;" /><path d="M 451.85202 189.9325 L 405 202.5875" style="stroke:rgb(139,211,199);stroke-width:1" /><circle cx="405" cy="202.5875" r="2" style="fill:rgb(139,211,199);stroke:none;fill-opacity:1;stroke-opacity:1;" /><path d="M 405 202.5875 L 338.96576 217.35251" style="stroke:rgb(139,211,199);stroke-width:1" /><circle cx="338.96576" cy="217.35251" r="2" style="fill:rgb(139,211,199);stroke:none;fill-opacity:1;stroke-opacity:1;" /><path d="M 338.96576 217.35251 L 292.11377 222.755" style="stroke:rgb(139,211,199);stroke-width:1" /><circle cx="292.11377" cy="222.755" r="2" style="fill:rgb(139,211,199);stroke:none;fill-opacity:1;stroke-opacity:1;" /><path d="M 292.11377 222.755 L 255.7725 226.47" style="stroke:rgb(139,211,199);stroke-width:1" /><circle cx="255.7725" cy="226.47" r="2" style="fill:rgb(139,211,199);stroke:none;fill-opacity:1;stroke-opacity:1;" /><path d="M 255.7725 226.47 L 142.88626 240.72" style="stroke:rgb(139,211,199);stroke-width:1" /><circle cx="142.88626" cy="240.72" r="2" style="fill:rgb(139,211,199);stroke:none;fill-opacity:1;stroke-opacity:1;" /><path d="M 142.88626 240.72 L 30 248.0525" style="stroke:rgb(139,211,199);stroke-width:1" /><circle cx="30" cy="248.0525" r="2" style="fill:rgb(139,211,199);stroke:none;fill-opacity:1;stroke-opacity:1;" /><circle cx="780" cy="139.1875" r="2" style="fill:rgb(50,125,209);stroke:none;fill-opacity:1;stroke-opacity:1;" /><path d="M 780 139.1875 L 630.77246 186.95999" style="stroke:rgb(50,125,209);stroke-width:1" /><circle cx="630.77246" cy="186.95999" r="2" style="fill:rgb(50,125,209);stroke:none;fill-opacity:1;stroke-opacity:1;" /><path d="M 630.77246 186.95999 L 517.8862 211.0425" style="stroke:rgb(50,125,209);stroke-width:1" /><circle cx="517.8862" cy="211.0425" r="2" style="fill:rgb(50,125,209);stroke:none;fill-opacity:1;stroke-opacity:1;" /><path d="M 517.8862 211.0425 L 451.85202 221.68" style="stroke:rgb(50,125,209);stroke-width:1" /><circle cx="451.85202" cy="221.68" r="2" style="fill:rgb(50,125,209);stroke:none;fill-opacity:1;stroke-opacity:1;" /><path d="M 451.85202 221.68 L 405 228.035" style="stroke:rgb(50,125,209);stroke-width:1" /><circle cx="405" cy="228.035" r="2" style="fill:rgb(50,125,209);stroke:none;fill-opacity:1;stroke-opacity:1;" /><path d="M 405 228.035 L 338.96576 235.5975" style="stroke:rgb(50,125,209);stroke-width:1" /><circle cx="338.96576" cy="235.5975" r="2" style="fill:rgb(50,125,209);stroke:none;fill-opacity:1;stroke-opacity:1;" /><path d="M 338.96576 235.5975 L 292.11377 240.08499" style="stroke:rgb(50,125,209);stroke-width:1" /><circle cx="292.11377" cy="240.08499" r="2" style="fill:rgb(50,125,209);stroke:none;fill-opacity:1;stroke-opacity:1;" /><path d="M 292.11377 240.08499 L 255.7725 243.1525" style="stroke:rgb(50,125,209);stroke-width:1" /><circle cx="255.7725" cy="243.1525" r="2" style="fill:rgb(50,125,209);stroke:none;fill-opacity:1;stroke-opacity:1;" /><path d="M 255.7725 243.1525 L 142.88626 250.7475" style="stroke:rgb(50,125,209);stroke-width:1" /><circle cx="142.88626" cy="250.7475" r="2" style="fill:rgb(50,125,209);stroke:none;fill-opacity:1;stroke-opacity:1;" /><path d="M 142.88626 250.7475 L 30 256.1" style="stroke:rgb(50,125,209);stroke-width:1" /><circle cx="30" cy="256.1" r="2" style="fill:rgb(50,125,209);stroke:none;fill-opacity:1;stroke-opacity:1;" /><circle cx="780" cy="91.13251" r="2" style="fill:rgb(255,238,101);stroke:none;fill-opacity:1;stroke-opacity:1;" /><path d="M 780 91.13251 L 630.77246 163.5575" style="stroke:rgb(255,238,101);stroke-width:1" /><circle cx="630.77246" cy="163.5575" r="2" style="fill:rgb(255,238,101);stroke:none;fill-opacity:1;stroke-opacity:1;" /><path d="M 630.77246 163.5575 L 517.8862 187.60501" style="stroke:rgb(255,238,101);stroke-width:1" /><circle cx="517.8862" cy="187.60501" r="2" style="fill:rgb(255,238,101);stroke:none;fill-opacity:1;stroke-opacity:1;" /><path d="M 517.8862 187.60501 L 451.85202 205.6525" style="stroke:rgb(255,238,101);stroke-width:1" /><circle cx="451.85202" cy="205.6525" r="2" style="fill:rgb(255,238,101);stroke:none;fill-opacity:1;stroke-opacity:1;" /><path d="M 451.85202 205.6525 L 405 216.7325" style="stroke:rgb(255,238,101);stroke-width:1" /><circle cx="405" cy="216.7325" r="2" style="fill:rgb(255,238,101);stroke:none;fill-opacity:1;stroke-opacity:1;" /><path d="M 405 216.7325 L 338.96576 224.0925" style="stroke:rgb(255,238,101);stroke-width:1" /><circle cx="338.96576" cy="224.0925" r="2" style="fill:rgb(255,238,101);stroke:none;fill-opacity:1;stroke-opacity:1;" /><path d="M 338.96576 224.0925 L 292.11377 228.775" style="stroke:rgb(255,238,101);stroke-width:1" /><circle cx="292.11377" cy="228.775" r="2" style="fill:rgb(255,238,101);stroke:none;fill-opacity:1;stroke-opacity:1;" /><path d="M 292.11377 228.775 L 255.7725 233.4825" style="stroke:rgb(255,238,101);stroke-width:1" /><circle cx="255.7725" cy="233.4825" r="2" style="fill:rgb(255,238,101);stroke:none;fill-opacity:1;stroke-opacity:1;" /><path d="M 255.7725 233.4825 L 142.88626 245.64749" style="stroke:rgb(255,238,101);stroke-width:1" /><circle cx="142.88626" cy="245.64749" r="2" style="fill:rgb(255,238,101);stroke:none;fill-opacity:1;stroke-opacity:1;" /><path d="M 142.88626 245.64749 L 30 251.635" style="stroke:rgb(255,238,101);stroke-width:1" /><circle cx="30" cy="251.635" r="2" style="fill:rgb(255,238,101);stroke:none;fill-opacity:1;stroke-opacity:1;" /><circle cx="780" cy="126.285" r="2" style="fill:rgb(120,68,33);stroke:none;fill-opacity:1;stroke-opacity:1;" /><path d="M 780 126.285 L 630.77246 178.67749" style="stroke:rgb(120,68,33);stroke-width:1" /><circle cx="630.77246" cy="178.67749" r="2" style="fill:rgb(120,68,33);stroke:none;fill-opacity:1;stroke-opacity:1;" /><path d="M 630.77246 178.67749 L 517.8862 205.075" style="stroke:rgb(120,68,33);stroke-width:1" /><circle cx="517.8862" cy="205.075" r="2" style="fill:rgb(120,68,33);stroke:none;fill-opacity:1;stroke-opacity:1;" /><path d="M 517.8862 205.075 L 451.85202 216.765" style="stroke:rgb(120,68,33);stroke-width:1" /><circle cx="451.85202" cy="216.765" r="2" style="fill:rgb(120,68,33);stroke:none;fill-opacity:1;stroke-opacity:1;" /><path d="M 451.85202 216.765 L 405 223.695" style="stroke:rgb(120,68,33);stroke-width:1" /><circle cx="405" cy="223.695" r="2" style="fill:rgb(120,68,33);stroke:none;fill-opacity:1;stroke-opacity:1;" /><path d="M 405 223.695 L 338.96576 231.9625" style="stroke:rgb(120,68,33);stroke-width:1" /><circle cx="338.96576" cy="231.9625" r="2" style="fill:rgb(120,68,33);stroke:none;fill-opacity:1;stroke-opacity:1;" /><path d="M 338.96576 231.9625 L 292.11377 236.84" style="stroke:rgb(120,68,33);stroke-width:1" /><circle cx="292.11377" cy="236.84" r="2" style="fill:rgb(120,68,33);stroke:none;fill-opacity:1;stroke-opacity:1;" /><path d="M 292.11377 236.84 L 255.7725 240.16501" style="stroke:rgb(120,68,33);stroke-width:1" /><circle cx="255.7725" cy="240.16501" r="2" style="fill:rgb(120,68,33);stroke:none;fill-opacity:1;stroke-opacity:1;" /><path d="M 255.7725 240.16501 L 142.88626 248.2625" style="stroke:rgb(120,68,33);stroke-width:1" /><circle cx="142.88626" cy="248.2625" r="2" style="fill:rgb(120,68,33);stroke:none;fill-opacity:1;stroke-opacity:1;" /><path d="M 142.88626 248.2625 L 30 253.825" style="stroke:rgb(120,68,33);stroke-width:1" /><circle cx="30" cy="253.825" r="2" style="fill:rgb(120,68,33);stroke:none;fill-opacity:1;stroke-opacity:1;" /><circle cx="780" cy="137.1675" r="2" style="fill:rgb(253,204,229);stroke:none;fill-opacity:1;stroke-opacity:1;" /><path d="M 780 137.1675 L 630.77246 185.66" style="stroke:rgb(253,204,229);stroke-width:1" /><circle cx="630.77246" cy="185.66" r="2" style="fill:rgb(253,204,229);stroke:none;fill-opacity:1;stroke-opacity:1;" /><path d="M 630.77246 185.66 L 517.8862 210.035" style="stroke:rgb(253,204,229);stroke-width:1" /><circle cx="517.8862" cy="210.035" r="2" style="fill:rgb(253,204,229);stroke:none;fill-opacity:1;stroke-opacity:1;" /><path d="M 517.8862 210.035 L 451.85202 220.845" style="stroke:rgb(253,204,229);stroke-width:1" /><circle cx="451.85202" cy="220.845" r="2" style="fill:rgb(253,204,229);stroke:none;fill-opacity:1;stroke-opacity:1;" /><path d="M 451.85202 220.845 L 405 227.325" style="stroke:rgb(253,204,229);stroke-width:1" /><circle cx="405" cy="227.325" r="2" style="fill:rgb(253,204,229);stroke:none;fill-opacity:1;stroke-opacity:1;" /><path d="M 405 227.325 L 338.96576 234.985" style="stroke:rgb(253,204,229);stroke-width:1" /><circle cx="338.96576" cy="234.985" r="2" style="fill:rgb(253,204,229);stroke:none;fill-opacity:1;stroke-opacity:1;" /><path d="M 338.96576 234.985 L 292.11377 239.5575" style="stroke:rgb(253,204,229);stroke-width:1" /><circle cx="292.11377" cy="239.5575" r="2" style="fill:rgb(253,204,229);stroke:none;fill-opacity:1;stroke-opacity:1;" /><path d="M 292.11377 239.5575 L 255.7725 242.6575" style="stroke:rgb(253,204,229);stroke-width:1" /><circle cx="255.7725" cy="242.6575" r="2" style="fill:rgb(253,204,229);stroke:none;fill-opacity:1;stroke-opacity:1;" /><path d="M 255.7725 242.6575 L 142.88626 250.34" style="stroke:rgb(253,204,229);stroke-width:1" /><circle cx="142.88626" cy="250.34" r="2" style="fill:rgb(253,204,229);stroke:none;fill-opacity:1;stroke-opacity:1;" /><path d="M 142.88626 250.34 L 30 255.84" style="stroke:rgb(253,204,229);stroke-width:1" /><circle cx="30" cy="255.84" r="2" style="fill:rgb(253,204,229);stroke:none;fill-opacity:1;stroke-opacity:1;" /><circle cx="780" cy="144.66501" r="2" style="fill:rgb(255,181,90);stroke:none;fill-opacity:1;stroke-opacity:1;" /><path d="M 780 144.66501 L 630.77246 187.9625" style="stroke:rgb(255,181,90);stroke-width:1" /><circle cx="630.77246" cy="187.9625" r="2" style="fill:rgb(255,181,90);stroke:none;fill-opacity:1;stroke-opacity:1;" /><path d="M 630.77246 187.9625 L 517.8862 208.6075" style="stroke:rgb(255,181,90);stroke-width:1" /><circle cx="517.8862" cy="208.6075" r="2" style="fill:rgb(255,181,90);stroke:none;fill-opacity:1;stroke-opacity:1;" /><path d="M 517.8862 208.6075 L 451.85202 216.83499" style="stroke:rgb(255,181,90);stroke-width:1" /><circle cx="451.85202" cy="216.83499" r="2" style="fill:rgb(255,181,90);stroke:none;fill-opacity:1;stroke-opacity:1;" /><path d="M 451.85202 216.83499 L 405 221.05" style="stroke:rgb(255,181,90);stroke-width:1" /><circle cx="405" cy="221.05" r="2" style="fill:rgb(255,181,90);stroke:none;fill-opacity:1;stroke-opacity:1;" /><path d="M 405 221.05 L 338.96576 224.3375" style="stroke:rgb(255,181,90);stroke-width:1" /><circle cx="338.96576" cy="224.3375" r="2" style="fill:rgb(255,181,90);stroke:none;fill-opacity:1;stroke-opacity:1;" /><path d="M 338.96576 224.3375 L 292.11377 223.9425" style="stroke:rgb(255,181,90);stroke-width:1" /><circle cx="292.11377" cy="223.9425" r="2" style="fill:rgb(255,181,90);stroke:none;fill-opacity:1;stroke-opacity:1;" /><path d="M 292.11377 223.9425 L 255.7725 220.7025" style="stroke:rgb(255,181,90);stroke-width:1" /><circle cx="255.7725" cy="220.7025" r="2" style="fill:rgb(255,181,90);stroke:none;fill-opacity:1;stroke-opacity:1;" /><path d="M 255.7725 220.7025 L 142.88626 234.89749" style="stroke:rgb(255,181,90);stroke-width:1" /><circle cx="142.88626" cy="234.89749" r="2" style="fill:rgb(255,181,90);stroke:none;fill-opacity:1;stroke-opacity:1;" /><path d="M 142.88626 234.89749 L 30 244.91" style="stroke:rgb(255,181,90);stroke-width:1" /><circle cx="30" cy="244.91" r="2" style="fill:rgb(255,181,90);stroke:none;fill-opacity:1;stroke-opacity:1;" /><rect x="676" y="16" width="80" height="217" ry="4" style="fill:rgb(30,30,30);stroke:none;fill-opacity:0.8;stroke-opacity:1;" /><rect x="680" y="20" width="20" height="20" ry="2" style="fill:rgb(253,127,111);stroke:none;fill-opacity:1;stroke-opacity:1;" /><text x="705" y="33" style="font-size:10px;fill:rgb(255,255,255);text-anchor:start;text-align:left;"> fwd-diff </text><rect x="680" y="41" width="20" height="20" ry="2" style="fill:rgb(255,181,90);stroke:none;fill-opacity:1;stroke-opacity:1;" /><text x="705" y="54" style="font-size:10px;fill:rgb(255,255,255);text-anchor:start;text-align:left;"> hain </text><rect x="680" y="62" width="20" height="20" ry="2" style="fill:rgb(139,211,199);stroke:none;fill-opacity:1;stroke-opacity:1;" /><text x="705" y="75" style="font-size:10px;fill:rgb(255,255,255);text-anchor:start;text-align:left;"> hfd </text><rect x="680" y="83" width="20" height="20" ry="2" style="fill:rgb(50,125,209);stroke:none;fill-opacity:1;stroke-opacity:1;" /><text x="705" y="96" style="font-size:10px;fill:rgb(255,255,255);text-anchor:start;text-align:left;"> levien </text><rect x="680" y="104" width="20" height="20" ry="2" style="fill:rgb(119,211,179);stroke:none;fill-opacity:1;stroke-opacity:1;" /><text x="705" y="117" style="font-size:10px;fill:rgb(255,255,255);text-anchor:start;text-align:left;"> levien-linear </text><rect x="680" y="125" width="20" height="20" ry="2" style="fill:rgb(253,204,229);stroke:none;fill-opacity:1;stroke-opacity:1;" /><text x="705" y="138" style="font-size:10px;fill:rgb(255,255,255);text-anchor:start;text-align:left;"> levien-quads </text><rect x="680" y="146" width="20" height="20" ry="2" style="fill:rgb(128,214,87);stroke:none;fill-opacity:1;stroke-opacity:1;" /><text x="705" y="159" style="font-size:10px;fill:rgb(255,255,255);text-anchor:start;text-align:left;"> linear </text><rect x="680" y="167" width="20" height="20" ry="2" style="fill:rgb(255,238,101);stroke:none;fill-opacity:1;stroke-opacity:1;" /><text x="705" y="180" style="font-size:10px;fill:rgb(255,255,255);text-anchor:start;text-align:left;"> recursive </text><rect x="680" y="188" width="20" height="20" ry="2" style="fill:rgb(253,204,229);stroke:none;fill-opacity:1;stroke-opacity:1;" /><text x="705" y="201" style="font-size:10px;fill:rgb(255,255,255);text-anchor:start;text-align:left;"> wang </text><rect x="680" y="209" width="20" height="20" ry="2" style="fill:rgb(120,68,33);stroke:none;fill-opacity:1;stroke-opacity:1;" /><text x="705" y="222" style="font-size:10px;fill:rgb(255,255,255);text-anchor:start;text-align:left;"> yzerman </text><text x="400" y="30" style="font-size:20px;fill:rgb(255,255,255);text-anchor:middle;text-align:center;"> Nehab </text><text x="400" y="42" style="font-size:8px;fill:rgb(200,200,200);text-anchor:middle;text-align:center;"> Normalized edge count score (lower is better) </text></svg>