<svg xmlns="http://www.w3.org/2000/svg" viewBox="0 0 800 300"><rect x="0" y="0" width="800" height="300" ry="6" style="fill:rgb(30,30,30);stroke:none;fill-opacity:1;stroke-opacity:1;" /><path d="M 30 20 L 30 270" style="stroke:rgb(200,200,200);stroke-width:1" /><path d="M 30 270 L 780 270" style="stroke:rgb(200,200,200);stroke-width:1" /><path d="M 780 270 L 780 272" style="stroke:rgb(200,200,200);stroke-width:1" /><text x="780" y="282" style="font-size:10px;fill:rgb(200,200,200);text-anchor:middle;text-align:center;"> 0.01 </text><path d="M 630.77246 270 L 630.77246 272" style="stroke:rgb(200,200,200);stroke-width:1" /><text x="630.77246" y="282" style="font-size:10px;fill:rgb(200,200,200);text-anchor:middle;text-align:center;"> 0.025 </text><path d="M 517.8862 270 L 517.8862 272" style="stroke:rgb(200,200,200);stroke-width:1" /><text x="517.8862" y="282" style="font-size:10px;fill:rgb(200,200,200);text-anchor:middle;text-align:center;"> 0.05 </text><path d="M 451.85202 270 L 451.85202 272" style="stroke:rgb(200,200,200);stroke-width:1" /><text x="451.85202" y="282" style="font-size:10px;fill:rgb(200,200,200);text-anchor:middle;text-align:center;"> 0.075 </text><path d="M 405 270 L 405 272" style="stroke:rgb(200,200,200);stroke-width:1" /><text x="405" y="282" style="font-size:10px;fill:rgb(200,200,200);text-anchor:middle;text-align:center;"> 0.1 </text><path d="M 338.96576 270 L 338.96576 272" style="stroke:rgb(200,200,200);stroke-width:1" /><text x="338.96576" y="282" style="font-size:10px;fill:rgb(200,200,200);text-anchor:middle;text-align:center;"> 0.15 </text><path d="M 292.11377 270 L 292.11377 272" style="stroke:rgb(200,200,200);stroke-width:1" /><text x="292.11377" y="282" style="font-size:10px;fill:rgb(200,200,200);text-anchor:middle;text-align:center;"> 0.2 </text><path d="M 255.7725 270 L 255.7725 272" style="stroke:rgb(200,200,200);stroke-width:1" /><text x="255.7725" y="282" style="font-size:10px;fill:rgb(200,200,200);text-anchor:middle;text-align:center;"> 0.25 </text><path d="M 142.88626 270 L 142.88626 272" style="stroke:rgb(200,200,200);stroke-width:1" /><text x="142.88626" y="282" style="font-size:10px;fill:rgb(200,200,200);text-anchor:middle;text-align:center;"> 0.5 </text><path d="M 30 270 L 30 272" style="stroke:rgb(200,200,200);stroke-width:1" /><text x="30" y="282" style="font-size:10px;fill:rgb(200,200,200);text-anchor:middle;text-align:center;"> 1 </text><path d="M 28 270 L 30 270" style="stroke:rgb(200,200,200);stroke-width:1" /><text x="26" y="274" style="font-size:10px;fill:rgb(200,200,200);text-anchor:end;text-align:right;"> 0 </text><path d="M 28 207.5 L 30 207.5" style="stroke:rgb(200,200,200);stroke-width:1" /><text x="26" y="211.5" style="font-size:10px;fill:rgb(200,200,200);text-anchor:end;text-align:right;"> 0.25 </text><path d="M 28 145 L 30 145" style="stroke:rgb(200,200,200);stroke-width:1" /><text x="26" y="149" style="font-size:10px;fill:rgb(200,200,200);text-anchor:end;text-align:right;"> 0.5 </text><path d="M 28 82.5 L 30 82.5" style="stroke:rgb(200,200,200);stroke-width:1" /><text x="26" y="86.5" style="font-size:10px;fill:rgb(200,200,200);text-anchor:end;text-align:right;"> 0.75 </text><path d="M 28 20 L 30 20" style="stroke:rgb(200,200,200);stroke-width:1" /><text x="26" y="24" style="font-size:10px;fill:rgb(200,200,200);text-anchor:end;text-align:right;"> 1 </text><text x="400" y="294" style="font-size:10px;fill:rgb(200,200,200);text-anchor:middle;text-align:center;"> Tolerance </text><circle cx="780" cy="118.5275" r="2" style="fill:rgb(50,125,209);stroke:none;fill-opacity:1;stroke-opacity:1;" /><path d="M 780 118.5275 L 630.77246 168.1225" style="stroke:rgb(50,125,209);stroke-width:1" /><circle cx="630.77246" cy="168.1225" r="2" style="fill:rgb(50,125,209);stroke:none;fill-opacity:1;stroke-opacity:1;" /><path d="M 630.77246 168.1225 L 517.8862 193.6075" style="stroke:rgb(50,125,209);stroke-width:1" /><circle cx="517.8862" cy="193.6075" r="2" style="fill:rgb(50,125,209);stroke:none;fill-opacity:1;stroke-opacity:1;" /><path d="M 517.8862 193.6075 L 451.85202 204.53" style="stroke:rgb(50,125,209);stroke-width:1" /><circle cx="451.85202" cy="204.53" r="2" style="fill:rgb(50,125,209);stroke:none;fill-opacity:1;stroke-opacity:1;" /><path d="M 451.85202 204.53 L 405 211.0275" style="stroke:rgb(50,125,209);stroke-width:1" /><circle cx="405" cy="211.0275" r="2" style="fill:rgb(50,125,209);stroke:none;fill-opacity:1;stroke-opacity:1;" /><path d="M 405 211.0275 L 338.96576 219.4575" style="stroke:rgb(50,125,209);stroke-width:1" /><circle cx="338.96576" cy="219.4575" r="2" style="fill:rgb(50,125,209);stroke:none;fill-opacity:1;stroke-opacity:1;" /><path d="M 338.96576 219.4575 L 292.11377 223.84" style="stroke:rgb(50,125,209);stroke-width:1" /><circle cx="292.11377" cy="223.84" r="2" style="fill:rgb(50,125,209);stroke:none;fill-opacity:1;stroke-opacity:1;" /><path d="M 292.11377 223.84 L 255.7725 226.70999" style="stroke:rgb(50,125,209);stroke-width:1" /><circle cx="255.7725" cy="226.70999" r="2" style="fill:rgb(50,125,209);stroke:none;fill-opacity:1;stroke-opacity:1;" /><path d="M 255.7725 226.70999 L 142.88626 233.5525" style="stroke:rgb(50,125,209);stroke-width:1" /><circle cx="142.88626" cy="233.5525" r="2" style="fill:rgb(50,125,209);stroke:none;fill-opacity:1;stroke-opacity:1;" /><path d="M 142.88626 233.5525 L 30 237.295" style="stroke:rgb(50,125,209);stroke-width:1" /><circle cx="30" cy="237.295" r="2" style="fill:rgb(50,125,209);stroke:none;fill-opacity:1;stroke-opacity:1;" /><circle cx="780" cy="81.4225" r="2" style="fill:rgb(255,238,101);stroke:none;fill-opacity:1;stroke-opacity:1;" /><path d="M 780 81.4225 L 630.77246 148.025" style="stroke:rgb(255,238,101);stroke-width:1" /><circle cx="630.77246" cy="148.025" r="2" style="fill:rgb(255,238,101);stroke:none;fill-opacity:1;stroke-opacity:1;" /><path d="M 630.77246 148.025 L 517.8862 182.305" style="stroke:rgb(255,238,101);stroke-width:1" /><circle cx="517.8862" cy="182.305" r="2" style="fill:rgb(255,238,101);stroke:none;fill-opacity:1;stroke-opacity:1;" /><path d="M 517.8862 182.305 L 451.85202 196.785" style="stroke:rgb(255,238,101);stroke-width:1" /><circle cx="451.85202" cy="196.785" r="2" style="fill:rgb(255,238,101);stroke:none;fill-opacity:1;stroke-opacity:1;" /><path d="M 451.85202 196.785 L 405 206.3725" style="stroke:rgb(255,238,101);stroke-width:1" /><circle cx="405" cy="206.3725" r="2" style="fill:rgb(255,238,101);stroke:none;fill-opacity:1;stroke-opacity:1;" /><path d="M 405 206.3725 L 338.96576 216.815" style="stroke:rgb(255,238,101);stroke-width:1" /><circle cx="338.96576" cy="216.815" r="2" style="fill:rgb(255,238,101);stroke:none;fill-opacity:1;stroke-opacity:1;" /><path d="M 338.96576 216.815 L 292.11377 222.9925" style="stroke:rgb(255,238,101);stroke-width:1" /><circle cx="292.11377" cy="222.9925" r="2" style="fill:rgb(255,238,101);stroke:none;fill-opacity:1;stroke-opacity:1;" /><path d="M 292.11377 222.9925 L 255.7725 226.895" style="stroke:rgb(255,238,101);stroke-width:1" /><circle cx="255.7725" cy="226.895" r="2" style="fill:rgb(255,238,101);stroke:none;fill-opacity:1;stroke-opacity:1;" /><path d="M 255.7725 226.895 L 142.88626 238.33" style="stroke:rgb(255,238,101);stroke-width:1" /><circle cx="142.88626" cy="238.33" r="2" style="fill:rgb(255,238,101);stroke:none;fill-opacity:1;stroke-opacity:1;" /><path d="M 142.88626 238.33 L 30 247.185" style="stroke:rgb(255,238,101);stroke-width:1" /><circle cx="30" cy="247.185" r="2" style="fill:rgb(255,238,101);stroke:none;fill-opacity:1;stroke-opacity:1;" /><circle cx="780" cy="118.692505" r="2" style="fill:rgb(119,211,179);stroke:none;fill-opacity:1;stroke-opacity:1;" /><path d="M 780 118.692505 L 630.77246 167.7325" style="stroke:rgb(119,211,179);stroke-width:1" /><circle cx="630.77246" cy="167.7325" r="2" style="fill:rgb(119,211,179);stroke:none;fill-opacity:1;stroke-opacity:1;" /><path d="M 630.77246 167.7325 L 517.8862 192.245" style="stroke:rgb(119,211,179);stroke-width:1" /><circle cx="517.8862" cy="192.245" r="2" style="fill:rgb(119,211,179);stroke:none;fill-opacity:1;stroke-opacity:1;" /><path d="M 517.8862 192.245 L 451.85202 203.375" style="stroke:rgb(119,211,179);stroke-width:1" /><circle cx="451.85202" cy="203.375" r="2" style="fill:rgb(119,211,179);stroke:none;fill-opacity:1;stroke-opacity:1;" /><path d="M 451.85202 203.375 L 405 210.8" style="stroke:rgb(119,211,179);stroke-width:1" /><circle cx="405" cy="210.8" r="2" style="fill:rgb(119,211,179);stroke:none;fill-opacity:1;stroke-opacity:1;" /><path d="M 405 210.8 L 338.96576 219.3725" style="stroke:rgb(119,211,179);stroke-width:1" /><circle cx="338.96576" cy="219.3725" r="2" style="fill:rgb(119,211,179);stroke:none;fill-opacity:1;stroke-opacity:1;" /><path d="M 338.96576 219.3725 L 292.11377 224.5975" style="stroke:rgb(119,211,179);stroke-width:1" /><circle cx="292.11377" cy="224.5975" r="2" style="fill:rgb(119,211,179);stroke:none;fill-opacity:1;stroke-opacity:1;" /><path d="M 292.11377 224.5975 L 255.7725 228.19" style="stroke:rgb(119,211,179);stroke-width:1" /><circle cx="255.7725" cy="228.19" r="2" style="fill:rgb(119,211,179);stroke:none;fill-opacity:1;stroke-opacity:1;" /><path d="M 255.7725 228.19 L 142.88626 238.62" style="stroke:rgb(119,211,179);stroke-width:1" /><circle cx="142.88626" cy="238.62" r="2" style="fill:rgb(119,211,179);stroke:none;fill-opacity:1;stroke-opacity:1;" /><path d="M 142.88626 238.62 L 30 247.26" style="stroke:rgb(119,211,179);stroke-width:1" /><circle cx="30" cy="247.26" r="2" style="fill:rgb(119,211,179);stroke:none;fill-opacity:1;stroke-opacity:1;" /><circle cx="780" cy="121.994995" r="2" style="fill:rgb(255,181,90);stroke:none;fill-opacity:1;stroke-opacity:1;" /><path d="M 780 121.994995 L 630.77246 168.66" style="stroke:rgb(255,181,90);stroke-width:1" /><circle cx="630.77246" cy="168.66" r="2" style="fill:rgb(255,181,90);stroke:none;fill-opacity:1;stroke-opacity:1;" /><path d="M 630.77246 168.66 L 517.8862 191.2875" style="stroke:rgb(255,181,90);stroke-width:1" /><circle cx="517.8862" cy="191.2875" r="2" style="fill:rgb(255,181,90);stroke:none;fill-opacity:1;stroke-opacity:1;" /><path d="M 517.8862 191.2875 L 451.85202 200.08499" style="stroke:rgb(255,181,90);stroke-width:1" /><circle cx="451.85202" cy="200.08499" r="2" style="fill:rgb(255,181,90);stroke:none;fill-opacity:1;stroke-opacity:1;" /><path d="M 451.85202 200.08499 L 405 204.4925" style="stroke:rgb(255,181,90);stroke-width:1" /><circle cx="405" cy="204.4925" r="2" style="fill:rgb(255,181,90);stroke:none;fill-opacity:1;stroke-opacity:1;" /><path d="M 405 204.4925 L 338.96576 208.9325" style="stroke:rgb(255,181,90);stroke-width:1" /><circle cx="338.96576" cy="208.9325" r="2" style="fill:rgb(255,181,90);stroke:none;fill-opacity:1;stroke-opacity:1;" /><path d="M 338.96576 208.9325 L 292.11377 209.2075" style="stroke:rgb(255,181,90);stroke-width:1" /><circle cx="292.11377" cy="209.2075" r="2" style="fill:rgb(255,181,90);stroke:none;fill-opacity:1;stroke-opacity:1;" /><path d="M 292.11377 209.2075 L 255.7725 206.865" style="stroke:rgb(255,181,90);stroke-width:1" /><circle cx="255.7725" cy="206.865" r="2" style="fill:rgb(255,181,90);stroke:none;fill-opacity:1;stroke-opacity:1;" /><path d="M 255.7725 206.865 L 142.88626 221.1375" style="stroke:rgb(255,181,90);stroke-width:1" /><circle cx="142.88626" cy="221.1375" r="2" style="fill:rgb(255,181,90);stroke:none;fill-opacity:1;stroke-opacity:1;" /><path d="M 142.88626 221.1375 L 30 229.175" style="stroke:rgb(255,181,90);stroke-width:1" /><circle cx="30" cy="229.175" r="2" style="fill:rgb(255,181,90);stroke:none;fill-opacity:1;stroke-opacity:1;" /><circle cx="780" cy="32.339996" r="2" style="fill:rgb(253,204,229);stroke:none;fill-opacity:1;stroke-opacity:1;" /><path d="M 780 32.339996 L 630.77246 114.1225" style="stroke:rgb(253,204,229);stroke-width:1" /><circle cx="630.77246" cy="114.1225" r="2" style="fill:rgb(253,204,229);stroke:none;fill-opacity:1;stroke-opacity:1;" /><path d="M 630.77246 114.1225 L 517.8862 155.3575" style="stroke:rgb(253,204,229);stroke-width:1" /><circle cx="517.8862" cy="155.3575" r="2" style="fill:rgb(253,204,229);stroke:none;fill-opacity:1;stroke-opacity:1;" /><path d="M 517.8862 155.3575 L 451.85202 173.45749" style="stroke:rgb(253,204,229);stroke-width:1" /><circle cx="451.85202" cy="173.45749" r="2" style="fill:rgb(253,204,229);stroke:none;fill-opacity:1;stroke-opacity:1;" /><path d="M 451.85202 173.45749 L 405 184.22751" style="stroke:rgb(253,204,229);stroke-width:1" /><circle cx="405" cy="184.22751" r="2" style="fill:rgb(253,204,229);stroke:none;fill-opacity:1;stroke-opacity:1;" /><path d="M 405 184.22751 L 338.96576 197.3725" style="stroke:rgb(253,204,229);stroke-width:1" /><circle cx="338.96576" cy="197.3725" r="2" style="fill:rgb(253,204,229);stroke:none;fill-opacity:1;stroke-opacity:1;" /><path d="M 338.96576 197.3725 L 292.11377 205.1175" style="stroke:rgb(253,204,229);stroke-width:1" /><circle cx="292.11377" cy="205.1175" r="2" style="fill:rgb(253,204,229);stroke:none;fill-opacity:1;stroke-opacity:1;" /><path d="M 292.11377 205.1175 L 255.7725 210.2075" style="stroke:rgb(253,204,229);stroke-width:1" /><circle cx="255.7725" cy="210.2075" r="2" style="fill:rgb(253,204,229);stroke:none;fill-opacity:1;stroke-opacity:1;" /><path d="M 255.7725 210.2075 L 142.88626 222.8" style="stroke:rgb(253,204,229);stroke-width:1" /><circle cx="142.88626" cy="222.8" r="2" style="fill:rgb(253,204,229);stroke:none;fill-opacity:1;stroke-opacity:1;" /><path d="M 142.88626 222.8 L 30 231.4025" style="stroke:rgb(253,204,229);stroke-width:1" /><circle cx="30" cy="231.4025" r="2" style="fill:rgb(253,204,229);stroke:none;fill-opacity:1;stroke-opacity:1;" /><circle cx="780" cy="88.92" r="2" style="fill:rgb(128,214,87);stroke:none;fill-opacity:1;stroke-opacity:1;" /><path d="M 780 88.92 L 630.77246 153.98001" style="stroke:rgb(128,214,87);stroke-width:1" /><circle cx="630.77246" cy="153.98001" r="2" style="fill:rgb(128,214,87);stroke:none;fill-opacity:1;stroke-opacity:1;" /><path d="M 630.77246 153.98001 L 517.8862 186.0625" style="stroke:rgb(128,214,87);stroke-width:1" /><circle cx="517.8862" cy="186.0625" r="2" style="fill:rgb(128,214,87);stroke:none;fill-opacity:1;stroke-opacity:1;" /><path d="M 517.8862 186.0625 L 451.85202 200.0325" style="stroke:rgb(128,214,87);stroke-width:1" /><circle cx="451.85202" cy="200.0325" r="2" style="fill:rgb(128,214,87);stroke:none;fill-opacity:1;stroke-opacity:1;" /><path d="M 451.85202 200.0325 L 405 208.725" style="stroke:rgb(128,214,87);stroke-width:1" /><circle cx="405" cy="208.725" r="2" style="fill:rgb(128,214,87);stroke:none;fill-opacity:1;stroke-opacity:1;" /><path d="M 405 208.725 L 338.96576 218.3775" style="stroke:rgb(128,214,87);stroke-width:1" /><circle cx="338.96576" cy="218.3775" r="2" style="fill:rgb(128,214,87);stroke:none;fill-opacity:1;stroke-opacity:1;" /><path d="M 338.96576 218.3775 L 292.11377 224.1675" style="stroke:rgb(128,214,87);stroke-width:1" /><circle cx="292.11377" cy="224.1675" r="2" style="fill:rgb(128,214,87);stroke:none;fill-opacity:1;stroke-opacity:1;" /><path d="M 292.11377 224.1675 L 255.7725 227.9275" style="stroke:rgb(128,214,87);stroke-width:1" /><circle cx="255.7725" cy="227.9275" r="2" style="fill:rgb(128,214,87);stroke:none;fill-opacity:1;stroke-opacity:1;" /><path d="M 255.7725 227.9275 L 142.88626 238.58" style="stroke:rgb(128,214,87);stroke-width:1" /><circle cx="142.88626" cy="238.58" r="2" style="fill:rgb(128,214,87);stroke:none;fill-opacity:1;stroke-opacity:1;" /><path d="M 142.88626 238.58 L 30 247.24" style="stroke:rgb(128,214,87);stroke-width:1" /><circle cx="30" cy="247.24" r="2" style="fill:rgb(128,214,87);stroke:none;fill-opacity:1;stroke-opacity:1;" /><circle cx="780" cy="32.339996" r="2" style="fill:rgb(253,127,111);stroke:none;fill-opacity:1;stroke-opacity:1;" /><path d="M 780 32.339996 L 630.77246 114.1225" style="stroke:rgb(253,127,111);stroke-width:1" /><circle cx="630.77246" cy="114.1225" r="2" style="fill:rgb(253,127,111);stroke:none;fill-opacity:1;stroke-opacity:1;" /><path d="M 630.77246 114.1225 L 517.8862 155.3575" style="stroke:rgb(253,127,111);stroke-width:1" /><circle cx="517.8862" cy="155.3575" r="2" style="fill:rgb(253,127,111);stroke:none;fill-opacity:1;stroke-opacity:1;" /><path d="M 517.8862 155.3575 L 451.85202 173.45749" style="stroke:rgb(253,127,111);stroke-width:1" /><circle cx="451.85202" cy="173.45749" r="2" style="fill:rgb(253,127,111);stroke:none;fill-opacity:1;stroke-opacity:1;" /><path d="M 451.85202 173.45749 L 405 184.22751" style="stroke:rgb(253,127,111);stroke-width:1" /><circle cx="405" cy="184.22751" r="2" style="fill:rgb(253,127,111);stroke:none;fill-opacity:1;stroke-opacity:1;" /><path d="M 405 184.22751 L 338.96576 197.3725" style="stroke:rgb(253,127,111);stroke-width:1" /><circle cx="338.96576" cy="197.3725" r="2" style="fill:rgb(253,127,111);stroke:none;fill-opacity:1;stroke-opacity:1;" /><path d="M 338.96576 197.3725 L 292.11377 205.1175" style="stroke:rgb(253,127,111);stroke-width:1" /><circle cx="292.11377" cy="205.1175" r="2" style="fill:rgb(253,127,111);stroke:none;fill-opacity:1;stroke-opacity:1;" /><path d="M 292.11377 205.1175 L 255.7725 210.2075" style="stroke:rgb(253,127,111);stroke-width:1" /><circle cx="255.7725" cy="210.2075" r="2" style="fill:rgb(253,127,111);stroke:none;fill-opacity:1;stroke-opacity:1;" /><path d="M 255.7725 210.2075 L 142.88626 222.8" style="stroke:rgb(253,127,111);stroke-width:1" /><circle cx="142.88626" cy="222.8" r="2" style="fill:rgb(253,127,111);stroke:none;fill-opacity:1;stroke-opacity:1;" /><path d="M 142.88626 222.8 L 30 231.4025" style="stroke:rgb(253,127,111);stroke-width:1" /><circle cx="30" cy="231.4025" r="2" style="fill:rgb(253,127,111);stroke:none;fill-opacity:1;stroke-opacity:1;" /><circle cx="780" cy="106.240005" r="2" style="fill:rgb(120,68,33);stroke:none;fill-opacity:1;stroke-opacity:1;" /><path d="M 780 106.240005 L 630.77246 160.325" style="stroke:rgb(120,68,33);stroke-width:1" /><circle cx="630.77246" cy="160.325" r="2" style="fill:rgb(120,68,33);stroke:none;fill-opacity:1;stroke-opacity:1;" /><path d="M 630.77246 160.325 L 517.8862 187.86" style="stroke:rgb(120,68,33);stroke-width:1" /><circle cx="517.8862" cy="187.86" r="2" style="fill:rgb(120,68,33);stroke:none;fill-opacity:1;stroke-opacity:1;" /><path d="M 517.8862 187.86 L 451.85202 199.305" style="stroke:rgb(120,68,33);stroke-width:1" /><circle cx="451.85202" cy="199.305" r="2" style="fill:rgb(120,68,33);stroke:none;fill-opacity:1;stroke-opacity:1;" /><path d="M 451.85202 199.305 L 405 206.2375" style="stroke:rgb(120,68,33);stroke-width:1" /><circle cx="405" cy="206.2375" r="2" style="fill:rgb(120,68,33);stroke:none;fill-opacity:1;stroke-opacity:1;" /><path d="M 405 206.2375 L 338.96576 214.22" style="stroke:rgb(120,68,33);stroke-width:1" /><circle cx="338.96576" cy="214.22" r="2" style="fill:rgb(120,68,33);stroke:none;fill-opacity:1;stroke-opacity:1;" /><path d="M 338.96576 214.22 L 292.11377 218.615" style="stroke:rgb(120,68,33);stroke-width:1" /><circle cx="292.11377" cy="218.615" r="2" style="fill:rgb(120,68,33);stroke:none;fill-opacity:1;stroke-opacity:1;" /><path d="M 292.11377 218.615 L 255.7725 221.275" style="stroke:rgb(120,68,33);stroke-width:1" /><circle cx="255.7725" cy="221.275" r="2" style="fill:rgb(120,68,33);stroke:none;fill-opacity:1;stroke-opacity:1;" /><path d="M 255.7725 221.275 L 142.88626 224.4075" style="stroke:rgb(120,68,33);stroke-width:1" /><circle cx="142.88626" cy="224.4075" r="2" style="fill:rgb(120,68,33);stroke:none;fill-opacity:1;stroke-opacity:1;" /><path d="M 142.88626 224.4075 L 30 218.925" style="stroke:rgb(120,68,33);stroke-width:1" /><circle cx="30" cy="218.925" r="2" style="fill:rgb(120,68,33);stroke:none;fill-opacity:1;stroke-opacity:1;" /><circle cx="780" cy="20" r="2" style="fill:rgb(139,211,199);stroke:none;fill-opacity:1;stroke-opacity:1;" /><path d="M 780 20 L 630.77246 106.417496" style="stroke:rgb(139,211,199);stroke-width:1" /><circle cx="630.77246" cy="106.417496" r="2" style="fill:rgb(139,211,199);stroke:none;fill-opacity:1;stroke-opacity:1;" /><path d="M 630.77246 106.417496 L 517.8862 151.39" style="stroke:rgb(139,211,199);stroke-width:1" /><circle cx="517.8862" cy="151.39" r="2" style="fill:rgb(139,211,199);stroke:none;fill-opacity:1;stroke-opacity:1;" /><path d="M 517.8862 151.39 L 451.85202 170.58" style="stroke:rgb(139,211,199);stroke-width:1" /><circle cx="451.85202" cy="170.58" r="2" style="fill:rgb(139,211,199);stroke:none;fill-opacity:1;stroke-opacity:1;" /><path d="M 451.85202 170.58 L 405 182.3725" style="stroke:rgb(139,211,199);stroke-width:1" /><circle cx="405" cy="182.3725" r="2" style="fill:rgb(139,211,199);stroke:none;fill-opacity:1;stroke-opacity:1;" /><path d="M 405 182.3725 L 338.96576 196.6925" style="stroke:rgb(139,211,199);stroke-width:1" /><circle cx="338.96576" cy="196.6925" r="2" style="fill:rgb(139,211,199);stroke:none;fill-opacity:1;stroke-opacity:1;" /><path d="M 338.96576 196.6925 L 292.11377 204.6075" style="stroke:rgb(139,211,199);stroke-width:1" /><circle cx="292.11377" cy="204.6075" r="2" style="fill:rgb(139,211,199);stroke:none;fill-opacity:1;stroke-opacity:1;" /><path d="M 292.11377 204.6075 L 255.7725 209.82" style="stroke:rgb(139,211,199);stroke-width:1" /><circle cx="255.7725" cy="209.82" r="2" style="fill:rgb(139,211,199);stroke:none;fill-opacity:1;stroke-opacity:1;" /><path d="M 255.7725 209.82 L 142.88626 223.0375" style="stroke:rgb(139,211,199);stroke-width:1" /><circle cx="142.88626" cy="223.0375" r="2" style="fill:rgb(139,211,199);stroke:none;fill-opacity:1;stroke-opacity:1;" /><path d="M 142.88626 223.0375 L 30 231.5575" style="stroke:rgb(139,211,199);stroke-width:1" /><circle cx="30" cy="231.5575" r="2" style="fill:rgb(139,211,199);stroke:none;fill-opacity:1;stroke-opacity:1;" /><circle cx="780" cy="85.715" r="2" style="fill:rgb(253,204,229);stroke:none;fill-opacity:1;stroke-opacity:1;" /><path d="M 780 85.715 L 630.77246 145.475" style="stroke:rgb(253,204,229);stroke-width:1" /><circle cx="630.77246" cy="145.475" r="2" style="fill:rgb(253,204,229);stroke:none;fill-opacity:1;stroke-opacity:1;" /><path d="M 630.77246 145.475 L 517.8862 177.1325" style="stroke:rgb(253,204,229);stroke-width:1" /><circle cx="517.8862" cy="177.1325" r="2" style="fill:rgb(253,204,229);stroke:none;fill-opacity:1;stroke-opacity:1;" /><path d="M 517.8862 177.1325 L 451.85202 190.73999" style="stroke:rgb(253,204,229);stroke-width:1" /><circle cx="451.85202" cy="190.73999" r="2" style="fill:rgb(253,204,229);stroke:none;fill-opacity:1;stroke-opacity:1;" /><path d="M 451.85202 190.73999 L 405 199.9375" style="stroke:rgb(253,204,229);stroke-width:1" /><circle cx="405" cy="199.9375" r="2" style="fill:rgb(253,204,229);stroke:none;fill-opacity:1;stroke-opacity:1;" /><path d="M 405 199.9375 L 338.96576 210.3325" style="stroke:rgb(253,204,229);stroke-width:1" /><circle cx="338.96576" cy="210.3325" r="2" style="fill:rgb(253,204,229);stroke:none;fill-opacity:1;stroke-opacity:1;" /><path d="M 338.96576 210.3325 L 292.11377 216.285" style="stroke:rgb(253,204,229);stroke-width:1" /><circle cx="292.11377" cy="216.285" r="2" style="fill:rgb(253,204,229);stroke:none;fill-opacity:1;stroke-opacity:1;" /><path d="M 292.11377 216.285 L 255.7725 220.0925" style="stroke:rgb(253,204,229);stroke-width:1" /><circle cx="255.7725" cy="220.0925" r="2" style="fill:rgb(253,204,229);stroke:none;fill-opacity:1;stroke-opacity:1;" /><path d="M 255.7725 220.0925 L 142.88626 229.41" style="stroke:rgb(253,204,229);stroke-width:1" /><circle cx="142.88626" cy="229.41" r="2" style="fill:rgb(253,204,229);stroke:none;fill-opacity:1;stroke-opacity:1;" /><path d="M 142.88626 229.41 L 30 234.755" style="stroke:rgb(253,204,229);stroke-width:1" /><circle cx="30" cy="234.755" r="2" style="fill:rgb(253,204,229);stroke:none;fill-opacity:1;stroke-opacity:1;" /><rect x="676" y="16" width="80" height="217" ry="4" style="fill:rgb(30,30,30);stroke:none;fill-opacity:0.8;stroke-opacity:1;" /><rect x="680" y="20" width="20" height="20" ry="2" style="fill:rgb(253,127,111);stroke:none;fill-opacity:1;stroke-opacity:1;" /><text x="705" y="33" style="font-size:10px;fill:rgb(255,255,255);text-anchor:start;text-align:left;"> fwd-diff </text><rect x="680" y="41" width="20" height="20" ry="2" style="fill:rgb(255,181,90);stroke:none;fill-opacity:1;stroke-opacity:1;" /><text x="705" y="54" style="font-size:10px;fill:rgb(255,255,255);text-anchor:start;text-align:left;"> hain </text><rect x="680" y="62" width="20" height="20" ry="2" style="fill:rgb(139,211,199);stroke:none;fill-opacity:1;stroke-opacity:1;" /><text x="705" y="75" style="font-size:10px;fill:rgb(255,255,255);text-anchor:start;text-align:left;"> hfd </text><rect x="680" y="83" width="20" height="20" ry="2" style="fill:rgb(50,125,209);stroke:none;fill-opacity:1;stroke-opacity:1;" /><text x="705" y="96" style="font-size:10px;fill:rgb(255,255,255);text-anchor:start;text-align:left;"> levien </text><rect x="680" y="104" width="20" height="20" ry="2" style="fill:rgb(119,211,179);stroke:none;fill-opacity:1;stroke-opacity:1;" /><text x="705" y="117" style="font-size:10px;fill:rgb(255,255,255);text-anchor:start;text-align:left;"> levien-linear </text><rect x="680" y="125" width="20" height="20" ry="2" style="fill:rgb(253,204,229);stroke:none;fill-opacity:1;stroke-opacity:1;" /><text x="705" y="138" style="font-size:10px;fill:rgb(255,255,255);text-anchor:start;text-align:left;"> levien-quads </text><rect x="680" y="146" width="20" height="20" ry="2" style="fill:rgb(128,214,87);stroke:none;fill-opacity:1;stroke-opacity:1;" /><text x="705" y="159" style="font-size:10px;fill:rgb(255,255,255);text-anchor:start;text-align:left;"> linear </text><rect x="680" y="167" width="20" height="20" ry="2" style="fill:rgb(255,238,101);stroke:none;fill-opacity:1;stroke-opacity:1;" /><text x="705" y="180" style="font-size:10px;fill:rgb(255,255,255);text-anchor:start;text-align:left;"> recursive </text><rect x="680" y="188" width="20" height="20" ry="2" style="fill:rgb(253,204,229);stroke:none;fill-opacity:1;stroke-opacity:1;" /><text x="705" y="201" style="font-size:10px;fill:rgb(255,255,255);text-anchor:start;text-align:left;"> wang </text><rect x="680" y="209" width="20" height="20" ry="2" style="fill:rgb(120,68,33);stroke:none;fill-opacity:1;stroke-opacity:1;" /><text x="705" y="222" style="font-size:10px;fill:rgb(255,255,255);text-anchor:start;text-align:left;"> yzerman </text><text x="400" y="30" style="font-size:20px;fill:rgb(255,255,255);text-anchor:middle;text-align:center;"> Inkscape </text><text x="400" y="42" style="font-size:8px;fill:rgb(200,200,200);text-anchor:middle;text-align:center;"> Normalized edge count score (lower is better) </text></svg>