<svg xmlns="http://www.w3.org/2000/svg" viewBox="0 0 800 300"><rect x="0" y="0" width="800" height="300" ry="6" style="fill:rgb(30,30,30);stroke:none;fill-opacity:1;stroke-opacity:1;" /><path d="M 30 20 L 30 270" style="stroke:rgb(200,200,200);stroke-width:1" /><path d="M 30 270 L 780 270" style="stroke:rgb(200,200,200);stroke-width:1" /><path d="M 780 270 L 780 272" style="stroke:rgb(200,200,200);stroke-width:1" /><text x="780" y="282" style="font-size:10px;fill:rgb(200,200,200);text-anchor:middle;text-align:center;"> 0.01 </text><path d="M 630.77246 270 L 630.77246 272" style="stroke:rgb(200,200,200);stroke-width:1" /><text x="630.77246" y="282" style="font-size:10px;fill:rgb(200,200,200);text-anchor:middle;text-align:center;"> 0.025 </text><path d="M 517.8862 270 L 517.8862 272" style="stroke:rgb(200,200,200);stroke-width:1" /><text x="517.8862" y="282" style="font-size:10px;fill:rgb(200,200,200);text-anchor:middle;text-align:center;"> 0.05 </text><path d="M 451.85202 270 L 451.85202 272" style="stroke:rgb(200,200,200);stroke-width:1" /><text x="451.85202" y="282" style="font-size:10px;fill:rgb(200,200,200);text-anchor:middle;text-align:center;"> 0.075 </text><path d="M 405 270 L 405 272" style="stroke:rgb(200,200,200);stroke-width:1" /><text x="405" y="282" style="font-size:10px;fill:rgb(200,200,200);text-anchor:middle;text-align:center;"> 0.1 </text><path d="M 338.96576 270 L 338.96576 272" style="stroke:rgb(200,200,200);stroke-width:1" /><text x="338.96576" y="282" style="font-size:10px;fill:rgb(200,200,200);text-anchor:middle;text-align:center;"> 0.15 </text><path d="M 292.11377 270 L 292.11377 272" style="stroke:rgb(200,200,200);stroke-width:1" /><text x="292.11377" y="282" style="font-size:10px;fill:rgb(200,200,200);text-anchor:middle;text-align:center;"> 0.2 </text><path d="M 255.7725 270 L 255.7725 272" style="stroke:rgb(200,200,200);stroke-width:1" /><text x="255.7725" y="282" style="font-size:10px;fill:rgb(200,200,200);text-anchor:middle;text-align:center;"> 0.25 </text><path d="M 142.88626 270 L 142.88626 272" style="stroke:rgb(200,200,200);stroke-width:1" /><text x="142.88626" y="282" style="font-size:10px;fill:rgb(200,200,200);text-anchor:middle;text-align:center;"> 0.5 </text><path d="M 30 270 L 30 272" style="stroke:rgb(200,200,200);stroke-width:1" /><text x="30" y="282" style="font-size:10px;fill:rgb(200,200,200);text-anchor:middle;text-align:center;"> 1 </text><path d="M 28 270 L 30 270" style="stroke:rgb(200,200,200);stroke-width:1" /><text x="26" y="274" style="font-size:10px;fill:rgb(200,200,200);text-anchor:end;text-align:right;"> 0 </text><path d="M 28 207.5 L 30 207.5" style="stroke:rgb(200,200,200);stroke-width:1" /><text x="26" y="211.5" style="font-size:10px;fill:rgb(200,200,200);text-anchor:end;text-align:right;"> 0.25 </text><path d="M 28 145 L 30 145" style="stroke:rgb(200,200,200);stroke-width:1" /><text x="26" y="149" style="font-size:10px;fill:rgb(200,200,200);text-anchor:end;text-align:right;"> 0.5 </text><path d="M 28 82.5 L 30 82.5" style="stroke:rgb(200,200,200);stroke-width:1" /><text x="26" y="86.5" style="font-size:10px;fill:rgb(200,200,200);text-anchor:end;text-align:right;"> 0.75 </text><path d="M 28 20 L 30 20" style="stroke:rgb(200,200,200);stroke-width:1" /><text x="26" y="24" style="font-size:10px;fill:rgb(200,200,200);text-anchor:end;text-align:right;"> 1 </text><text x="400" y="294" style="font-size:10px;fill:rgb(200,200,200);text-anchor:middle;text-align:center;"> Tolerance </text><circle cx="780" cy="20" r="2" style="fill:rgb(255,238,101);stroke:none;fill-opacity:1;stroke-opacity:1;" /><path d="M 780 20 L 630.77246 108.5025" style="stroke:rgb(255,238,101);stroke-width:1" /><circle cx="630.77246" cy="108.5025" r="2" style="fill:rgb(255,238,101);stroke:none;fill-opacity:1;stroke-opacity:1;" /><path d="M 630.77246 108.5025 L 517.8862 153.4325" style="stroke:rgb(255,238,101);stroke-width:1" /><circle cx="517.8862" cy="153.4325" r="2" style="fill:rgb(255,238,101);stroke:none;fill-opacity:1;stroke-opacity:1;" /><path d="M 517.8862 153.4325 L 451.85202 172.4125" style="stroke:rgb(255,238,101);stroke-width:1" /><circle cx="451.85202" cy="172.4125" r="2" style="fill:rgb(255,238,101);stroke:none;fill-opacity:1;stroke-opacity:1;" /><path d="M 451.85202 172.4125 L 405 184.30249" style="stroke:rgb(255,238,101);stroke-width:1" /><circle cx="405" cy="184.30249" r="2" style="fill:rgb(255,238,101);stroke:none;fill-opacity:1;stroke-opacity:1;" /><path d="M 405 184.30249 L 338.96576 197.55249" style="stroke:rgb(255,238,101);stroke-width:1" /><circle cx="338.96576" cy="197.55249" r="2" style="fill:rgb(255,238,101);stroke:none;fill-opacity:1;stroke-opacity:1;" /><path d="M 338.96576 197.55249 L 292.11377 204.05249" style="stroke:rgb(255,238,101);stroke-width:1" /><circle cx="292.11377" cy="204.05249" r="2" style="fill:rgb(255,238,101);stroke:none;fill-opacity:1;stroke-opacity:1;" /><path d="M 292.11377 204.05249 L 255.7725 208.255" style="stroke:rgb(255,238,101);stroke-width:1" /><circle cx="255.7725" cy="208.255" r="2" style="fill:rgb(255,238,101);stroke:none;fill-opacity:1;stroke-opacity:1;" /><path d="M 255.7725 208.255 L 142.88626 218.2775" style="stroke:rgb(255,238,101);stroke-width:1" /><circle cx="142.88626" cy="218.2775" r="2" style="fill:rgb(255,238,101);stroke:none;fill-opacity:1;stroke-opacity:1;" /><path d="M 142.88626 218.2775 L 30 222.7525" style="stroke:rgb(255,238,101);stroke-width:1" /><circle cx="30" cy="222.7525" r="2" style="fill:rgb(255,238,101);stroke:none;fill-opacity:1;stroke-opacity:1;" /><circle cx="780" cy="46.929993" r="2" style="fill:rgb(253,127,111);stroke:none;fill-opacity:1;stroke-opacity:1;" /><path d="M 780 46.929993 L 630.77246 120.4025" style="stroke:rgb(253,127,111);stroke-width:1" /><circle cx="630.77246" cy="120.4025" r="2" style="fill:rgb(253,127,111);stroke:none;fill-opacity:1;stroke-opacity:1;" /><path d="M 630.77246 120.4025 L 517.8862 157.3375" style="stroke:rgb(253,127,111);stroke-width:1" /><circle cx="517.8862" cy="157.3375" r="2" style="fill:rgb(253,127,111);stroke:none;fill-opacity:1;stroke-opacity:1;" /><path d="M 517.8862 157.3375 L 451.85202 173.9425" style="stroke:rgb(253,127,111);stroke-width:1" /><circle cx="451.85202" cy="173.9425" r="2" style="fill:rgb(253,127,111);stroke:none;fill-opacity:1;stroke-opacity:1;" /><path d="M 451.85202 173.9425 L 405 184.015" style="stroke:rgb(253,127,111);stroke-width:1" /><circle cx="405" cy="184.015" r="2" style="fill:rgb(253,127,111);stroke:none;fill-opacity:1;stroke-opacity:1;" /><path d="M 405 184.015 L 338.96576 195.925" style="stroke:rgb(253,127,111);stroke-width:1" /><circle cx="338.96576" cy="195.925" r="2" style="fill:rgb(253,127,111);stroke:none;fill-opacity:1;stroke-opacity:1;" /><path d="M 338.96576 195.925 L 292.11377 202.45" style="stroke:rgb(253,127,111);stroke-width:1" /><circle cx="292.11377" cy="202.45" r="2" style="fill:rgb(253,127,111);stroke:none;fill-opacity:1;stroke-opacity:1;" /><path d="M 292.11377 202.45 L 255.7725 206.3875" style="stroke:rgb(253,127,111);stroke-width:1" /><circle cx="255.7725" cy="206.3875" r="2" style="fill:rgb(253,127,111);stroke:none;fill-opacity:1;stroke-opacity:1;" /><path d="M 255.7725 206.3875 L 142.88626 216.625" style="stroke:rgb(253,127,111);stroke-width:1" /><circle cx="142.88626" cy="216.625" r="2" style="fill:rgb(253,127,111);stroke:none;fill-opacity:1;stroke-opacity:1;" /><path d="M 142.88626 216.625 L 30 221.99" style="stroke:rgb(253,127,111);stroke-width:1" /><circle cx="30" cy="221.99" r="2" style="fill:rgb(253,127,111);stroke:none;fill-opacity:1;stroke-opacity:1;" /><circle cx="780" cy="30.934998" r="2" style="fill:rgb(128,214,87);stroke:none;fill-opacity:1;stroke-opacity:1;" /><path d="M 780 30.934998 L 630.77246 118.50751" style="stroke:rgb(128,214,87);stroke-width:1" /><circle cx="630.77246" cy="118.50751" r="2" style="fill:rgb(128,214,87);stroke:none;fill-opacity:1;stroke-opacity:1;" /><path d="M 630.77246 118.50751 L 517.8862 159.3775" style="stroke:rgb(128,214,87);stroke-width:1" /><circle cx="517.8862" cy="159.3775" r="2" style="fill:rgb(128,214,87);stroke:none;fill-opacity:1;stroke-opacity:1;" /><path d="M 517.8862 159.3775 L 451.85202 177.0175" style="stroke:rgb(128,214,87);stroke-width:1" /><circle cx="451.85202" cy="177.0175" r="2" style="fill:rgb(128,214,87);stroke:none;fill-opacity:1;stroke-opacity:1;" /><path d="M 451.85202 177.0175 L 405 187.76001" style="stroke:rgb(128,214,87);stroke-width:1" /><circle cx="405" cy="187.76001" r="2" style="fill:rgb(128,214,87);stroke:none;fill-opacity:1;stroke-opacity:1;" /><path d="M 405 187.76001 L 338.96576 199.2375" style="stroke:rgb(128,214,87);stroke-width:1" /><circle cx="338.96576" cy="199.2375" r="2" style="fill:rgb(128,214,87);stroke:none;fill-opacity:1;stroke-opacity:1;" /><path d="M 338.96576 199.2375 L 292.11377 205.35251" style="stroke:rgb(128,214,87);stroke-width:1" /><circle cx="292.11377" cy="205.35251" r="2" style="fill:rgb(128,214,87);stroke:none;fill-opacity:1;stroke-opacity:1;" /><path d="M 292.11377 205.35251 L 255.7725 209.33" style="stroke:rgb(128,214,87);stroke-width:1" /><circle cx="255.7725" cy="209.33" r="2" style="fill:rgb(128,214,87);stroke:none;fill-opacity:1;stroke-opacity:1;" /><path d="M 255.7725 209.33 L 142.88626 218.4325" style="stroke:rgb(128,214,87);stroke-width:1" /><circle cx="142.88626" cy="218.4325" r="2" style="fill:rgb(128,214,87);stroke:none;fill-opacity:1;stroke-opacity:1;" /><path d="M 142.88626 218.4325 L 30 222.78" style="stroke:rgb(128,214,87);stroke-width:1" /><circle cx="30" cy="222.78" r="2" style="fill:rgb(128,214,87);stroke:none;fill-opacity:1;stroke-opacity:1;" /><circle cx="780" cy="46.929993" r="2" style="fill:rgb(253,204,229);stroke:none;fill-opacity:1;stroke-opacity:1;" /><path d="M 780 46.929993 L 630.77246 120.4025" style="stroke:rgb(253,204,229);stroke-width:1" /><circle cx="630.77246" cy="120.4025" r="2" style="fill:rgb(253,204,229);stroke:none;fill-opacity:1;stroke-opacity:1;" /><path d="M 630.77246 120.4025 L 517.8862 157.3375" style="stroke:rgb(253,204,229);stroke-width:1" /><circle cx="517.8862" cy="157.3375" r="2" style="fill:rgb(253,204,229);stroke:none;fill-opacity:1;stroke-opacity:1;" /><path d="M 517.8862 157.3375 L 451.85202 173.9425" style="stroke:rgb(253,204,229);stroke-width:1" /><circle cx="451.85202" cy="173.9425" r="2" style="fill:rgb(253,204,229);stroke:none;fill-opacity:1;stroke-opacity:1;" /><path d="M 451.85202 173.9425 L 405 184.015" style="stroke:rgb(253,204,229);stroke-width:1" /><circle cx="405" cy="184.015" r="2" style="fill:rgb(253,204,229);stroke:none;fill-opacity:1;stroke-opacity:1;" /><path d="M 405 184.015 L 338.96576 195.925" style="stroke:rgb(253,204,229);stroke-width:1" /><circle cx="338.96576" cy="195.925" r="2" style="fill:rgb(253,204,229);stroke:none;fill-opacity:1;stroke-opacity:1;" /><path d="M 338.96576 195.925 L 292.11377 202.45" style="stroke:rgb(253,204,229);stroke-width:1" /><circle cx="292.11377" cy="202.45" r="2" style="fill:rgb(253,204,229);stroke:none;fill-opacity:1;stroke-opacity:1;" /><path d="M 292.11377 202.45 L 255.7725 206.3875" style="stroke:rgb(253,204,229);stroke-width:1" /><circle cx="255.7725" cy="206.3875" r="2" style="fill:rgb(253,204,229);stroke:none;fill-opacity:1;stroke-opacity:1;" /><path d="M 255.7725 206.3875 L 142.88626 216.625" style="stroke:rgb(253,204,229);stroke-width:1" /><circle cx="142.88626" cy="216.625" r="2" style="fill:rgb(253,204,229);stroke:none;fill-opacity:1;stroke-opacity:1;" /><path d="M 142.88626 216.625 L 30 221.99" style="stroke:rgb(253,204,229);stroke-width:1" /><circle cx="30" cy="221.99" r="2" style="fill:rgb(253,204,229);stroke:none;fill-opacity:1;stroke-opacity:1;" /><circle cx="780" cy="70.134995" r="2" style="fill:rgb(119,211,179);stroke:none;fill-opacity:1;stroke-opacity:1;" /><path d="M 780 70.134995 L 630.77246 134.3475" style="stroke:rgb(119,211,179);stroke-width:1" /><circle cx="630.77246" cy="134.3475" r="2" style="fill:rgb(119,211,179);stroke:none;fill-opacity:1;stroke-opacity:1;" /><path d="M 630.77246 134.3475 L 517.8862 166.41751" style="stroke:rgb(119,211,179);stroke-width:1" /><circle cx="517.8862" cy="166.41751" r="2" style="fill:rgb(119,211,179);stroke:none;fill-opacity:1;stroke-opacity:1;" /><path d="M 517.8862 166.41751 L 451.85202 180.9125" style="stroke:rgb(119,211,179);stroke-width:1" /><circle cx="451.85202" cy="180.9125" r="2" style="fill:rgb(119,211,179);stroke:none;fill-opacity:1;stroke-opacity:1;" /><path d="M 451.85202 180.9125 L 405 189.86499" style="stroke:rgb(119,211,179);stroke-width:1" /><circle cx="405" cy="189.86499" r="2" style="fill:rgb(119,211,179);stroke:none;fill-opacity:1;stroke-opacity:1;" /><path d="M 405 189.86499 L 338.96576 200.2125" style="stroke:rgb(119,211,179);stroke-width:1" /><circle cx="338.96576" cy="200.2125" r="2" style="fill:rgb(119,211,179);stroke:none;fill-opacity:1;stroke-opacity:1;" /><path d="M 338.96576 200.2125 L 292.11377 205.875" style="stroke:rgb(119,211,179);stroke-width:1" /><circle cx="292.11377" cy="205.875" r="2" style="fill:rgb(119,211,179);stroke:none;fill-opacity:1;stroke-opacity:1;" /><path d="M 292.11377 205.875 L 255.7725 209.58499" style="stroke:rgb(119,211,179);stroke-width:1" /><circle cx="255.7725" cy="209.58499" r="2" style="fill:rgb(119,211,179);stroke:none;fill-opacity:1;stroke-opacity:1;" /><path d="M 255.7725 209.58499 L 142.88626 218.51" style="stroke:rgb(119,211,179);stroke-width:1" /><circle cx="142.88626" cy="218.51" r="2" style="fill:rgb(119,211,179);stroke:none;fill-opacity:1;stroke-opacity:1;" /><path d="M 142.88626 218.51 L 30 222.78" style="stroke:rgb(119,211,179);stroke-width:1" /><circle cx="30" cy="222.78" r="2" style="fill:rgb(119,211,179);stroke:none;fill-opacity:1;stroke-opacity:1;" /><circle cx="780" cy="70.057495" r="2" style="fill:rgb(50,125,209);stroke:none;fill-opacity:1;stroke-opacity:1;" /><path d="M 780 70.057495 L 630.77246 134.915" style="stroke:rgb(50,125,209);stroke-width:1" /><circle cx="630.77246" cy="134.915" r="2" style="fill:rgb(50,125,209);stroke:none;fill-opacity:1;stroke-opacity:1;" /><path d="M 630.77246 134.915 L 517.8862 167.1625" style="stroke:rgb(50,125,209);stroke-width:1" /><circle cx="517.8862" cy="167.1625" r="2" style="fill:rgb(50,125,209);stroke:none;fill-opacity:1;stroke-opacity:1;" /><path d="M 517.8862 167.1625 L 451.85202 181.755" style="stroke:rgb(50,125,209);stroke-width:1" /><circle cx="451.85202" cy="181.755" r="2" style="fill:rgb(50,125,209);stroke:none;fill-opacity:1;stroke-opacity:1;" /><path d="M 451.85202 181.755 L 405 190.445" style="stroke:rgb(50,125,209);stroke-width:1" /><circle cx="405" cy="190.445" r="2" style="fill:rgb(50,125,209);stroke:none;fill-opacity:1;stroke-opacity:1;" /><path d="M 405 190.445 L 338.96576 200.735" style="stroke:rgb(50,125,209);stroke-width:1" /><circle cx="338.96576" cy="200.735" r="2" style="fill:rgb(50,125,209);stroke:none;fill-opacity:1;stroke-opacity:1;" /><path d="M 338.96576 200.735 L 292.11377 206.1575" style="stroke:rgb(50,125,209);stroke-width:1" /><circle cx="292.11377" cy="206.1575" r="2" style="fill:rgb(50,125,209);stroke:none;fill-opacity:1;stroke-opacity:1;" /><path d="M 292.11377 206.1575 L 255.7725 209.8" style="stroke:rgb(50,125,209);stroke-width:1" /><circle cx="255.7725" cy="209.8" r="2" style="fill:rgb(50,125,209);stroke:none;fill-opacity:1;stroke-opacity:1;" /><path d="M 255.7725 209.8 L 142.88626 218.3375" style="stroke:rgb(50,125,209);stroke-width:1" /><circle cx="142.88626" cy="218.3375" r="2" style="fill:rgb(50,125,209);stroke:none;fill-opacity:1;stroke-opacity:1;" /><path d="M 142.88626 218.3375 L 30 222.6075" style="stroke:rgb(50,125,209);stroke-width:1" /><circle cx="30" cy="222.6075" r="2" style="fill:rgb(50,125,209);stroke:none;fill-opacity:1;stroke-opacity:1;" /><rect x="676" y="16" width="80" height="133" ry="4" style="fill:rgb(30,30,30);stroke:none;fill-opacity:0.8;stroke-opacity:1;" /><rect x="680" y="20" width="20" height="20" ry="2" style="fill:rgb(253,127,111);stroke:none;fill-opacity:1;stroke-opacity:1;" /><text x="705" y="33" style="font-size:10px;fill:rgb(255,255,255);text-anchor:start;text-align:left;"> fwd-diff </text><rect x="680" y="41" width="20" height="20" ry="2" style="fill:rgb(50,125,209);stroke:none;fill-opacity:1;stroke-opacity:1;" /><text x="705" y="54" style="font-size:10px;fill:rgb(255,255,255);text-anchor:start;text-align:left;"> levien </text><rect x="680" y="62" width="20" height="20" ry="2" style="fill:rgb(119,211,179);stroke:none;fill-opacity:1;stroke-opacity:1;" /><text x="705" y="75" style="font-size:10px;fill:rgb(255,255,255);text-anchor:start;text-align:left;"> levien-linear </text><rect x="680" y="83" width="20" height="20" ry="2" style="fill:rgb(128,214,87);stroke:none;fill-opacity:1;stroke-opacity:1;" /><text x="705" y="96" style="font-size:10px;fill:rgb(255,255,255);text-anchor:start;text-align:left;"> linear </text><rect x="680" y="104" width="20" height="20" ry="2" style="fill:rgb(255,238,101);stroke:none;fill-opacity:1;stroke-opacity:1;" /><text x="705" y="117" style="font-size:10px;fill:rgb(255,255,255);text-anchor:start;text-align:left;"> recursive </text><rect x="680" y="125" width="20" height="20" ry="2" style="fill:rgb(253,204,229);stroke:none;fill-opacity:1;stroke-opacity:1;" /><text x="705" y="138" style="font-size:10px;fill:rgb(255,255,255);text-anchor:start;text-align:left;"> wang </text><text x="400" y="30" style="font-size:20px;fill:rgb(255,255,255);text-anchor:middle;text-align:center;"> Inkscape </text><text x="400" y="42" style="font-size:8px;fill:rgb(200,200,200);text-anchor:middle;text-align:center;"> Normalized edge count score (lower is better) </text></svg>