<svg xmlns="http://www.w3.org/2000/svg" viewBox="0 0 800 300"><rect x="0" y="0" width="800" height="300" ry="6" style="fill:rgb(30,30,30);stroke:none;fill-opacity:1;stroke-opacity:1;" /><path d="M 30 20 L 30 270" style="stroke:rgb(200,200,200);stroke-width:1" /><path d="M 30 270 L 780 270" style="stroke:rgb(200,200,200);stroke-width:1" /><path d="M 780 270 L 780 272" style="stroke:rgb(200,200,200);stroke-width:1" /><text x="780" y="282" style="font-size:10px;fill:rgb(200,200,200);text-anchor:middle;text-align:center;"> 0.01 </text><path d="M 630.77246 270 L 630.77246 272" style="stroke:rgb(200,200,200);stroke-width:1" /><text x="630.77246" y="282" style="font-size:10px;fill:rgb(200,200,200);text-anchor:middle;text-align:center;"> 0.025 </text><path d="M 517.8862 270 L 517.8862 272" style="stroke:rgb(200,200,200);stroke-width:1" /><text x="517.8862" y="282" style="font-size:10px;fill:rgb(200,200,200);text-anchor:middle;text-align:center;"> 0.05 </text><path d="M 451.85202 270 L 451.85202 272" style="stroke:rgb(200,200,200);stroke-width:1" /><text x="451.85202" y="282" style="font-size:10px;fill:rgb(200,200,200);text-anchor:middle;text-align:center;"> 0.075 </text><path d="M 405 270 L 405 272" style="stroke:rgb(200,200,200);stroke-width:1" /><text x="405" y="282" style="font-size:10px;fill:rgb(200,200,200);text-anchor:middle;text-align:center;"> 0.1 </text><path d="M 338.96576 270 L 338.96576 272" style="stroke:rgb(200,200,200);stroke-width:1" /><text x="338.96576" y="282" style="font-size:10px;fill:rgb(200,200,200);text-anchor:middle;text-align:center;"> 0.15 </text><path d="M 292.11377 270 L 292.11377 272" style="stroke:rgb(200,200,200);stroke-width:1" /><text x="292.11377" y="282" style="font-size:10px;fill:rgb(200,200,200);text-anchor:middle;text-align:center;"> 0.2 </text><path d="M 255.7725 270 L 255.7725 272" style="stroke:rgb(200,200,200);stroke-width:1" /><text x="255.7725" y="282" style="font-size:10px;fill:rgb(200,200,200);text-anchor:middle;text-align:center;"> 0.25 </text><path d="M 142.88626 270 L 142.88626 272" style="stroke:rgb(200,200,200);stroke-width:1" /><text x="142.88626" y="282" style="font-size:10px;fill:rgb(200,200,200);text-anchor:middle;text-align:center;"> 0.5 </text><path d="M 30 270 L 30 272" style="stroke:rgb(200,200,200);stroke-width:1" /><text x="30" y="282" style="font-size:10px;fill:rgb(200,200,200);text-anchor:middle;text-align:center;"> 1 </text><path d="M 28 270 L 30 270" style="stroke:rgb(200,200,200);stroke-width:1" /><text x="26" y="274" style="font-size:10px;fill:rgb(200,200,200);text-anchor:end;text-align:right;"> 0 </text><path d="M 28 207.5 L 30 207.5" style="stroke:rgb(200,200,200);stroke-width:1" /><text x="26" y="211.5" style="font-size:10px;fill:rgb(200,200,200);text-anchor:end;text-align:right;"> 0.25 </text><path d="M 28 145 L 30 145" style="stroke:rgb(200,200,200);stroke-width:1" /><text x="26" y="149" style="font-size:10px;fill:rgb(200,200,200);text-anchor:end;text-align:right;"> 0.5 </text><path d="M 28 82.5 L 30 82.5" style="stroke:rgb(200,200,200);stroke-width:1" /><text x="26" y="86.5" style="font-size:10px;fill:rgb(200,200,200);text-anchor:end;text-align:right;"> 0.75 </text><path d="M 28 20 L 30 20" style="stroke:rgb(200,200,200);stroke-width:1" /><text x="26" y="24" style="font-size:10px;fill:rgb(200,200,200);text-anchor:end;text-align:right;"> 1 </text><text x="400" y="294" style="font-size:10px;fill:rgb(200,200,200);text-anchor:middle;text-align:center;"> Tolerance </text><circle cx="780" cy="124.1275" r="2" style="fill:rgb(139,211,199);stroke:none;fill-opacity:1;stroke-opacity:1;" /><path d="M 780 124.1275 L 630.77246 162.7875" style="stroke:rgb(139,211,199);stroke-width:1" /><circle cx="630.77246" cy="162.7875" r="2" style="fill:rgb(139,211,199);stroke:none;fill-opacity:1;stroke-opacity:1;" /><path d="M 630.77246 162.7875 L 517.8862 178.01001" style="stroke:rgb(139,211,199);stroke-width:1" /><circle cx="517.8862" cy="178.01001" r="2" style="fill:rgb(139,211,199);stroke:none;fill-opacity:1;stroke-opacity:1;" /><path d="M 517.8862 178.01001 L 451.85202 185.4" style="stroke:rgb(139,211,199);stroke-width:1" /><circle cx="451.85202" cy="185.4" r="2" style="fill:rgb(139,211,199);stroke:none;fill-opacity:1;stroke-opacity:1;" /><path d="M 451.85202 185.4 L 405 191.475" style="stroke:rgb(139,211,199);stroke-width:1" /><circle cx="405" cy="191.475" r="2" style="fill:rgb(139,211,199);stroke:none;fill-opacity:1;stroke-opacity:1;" /><path d="M 405 191.475 L 338.96576 200.6225" style="stroke:rgb(139,211,199);stroke-width:1" /><circle cx="338.96576" cy="200.6225" r="2" style="fill:rgb(139,211,199);stroke:none;fill-opacity:1;stroke-opacity:1;" /><path d="M 338.96576 200.6225 L 292.11377 208.0475" style="stroke:rgb(139,211,199);stroke-width:1" /><circle cx="292.11377" cy="208.0475" r="2" style="fill:rgb(139,211,199);stroke:none;fill-opacity:1;stroke-opacity:1;" /><path d="M 292.11377 208.0475 L 255.7725 215.2975" style="stroke:rgb(139,211,199);stroke-width:1" /><circle cx="255.7725" cy="215.2975" r="2" style="fill:rgb(139,211,199);stroke:none;fill-opacity:1;stroke-opacity:1;" /><path d="M 255.7725 215.2975 L 142.88626 246.43" style="stroke:rgb(139,211,199);stroke-width:1" /><circle cx="142.88626" cy="246.43" r="2" style="fill:rgb(139,211,199);stroke:none;fill-opacity:1;stroke-opacity:1;" /><path d="M 142.88626 246.43 L 30 262.3675" style="stroke:rgb(139,211,199);stroke-width:1" /><circle cx="30" cy="262.3675" r="2" style="fill:rgb(139,211,199);stroke:none;fill-opacity:1;stroke-opacity:1;" /><circle cx="780" cy="55.675003" r="2" style="fill:rgb(253,204,229);stroke:none;fill-opacity:1;stroke-opacity:1;" /><path d="M 780 55.675003 L 630.77246 127.494995" style="stroke:rgb(253,204,229);stroke-width:1" /><circle cx="630.77246" cy="127.494995" r="2" style="fill:rgb(253,204,229);stroke:none;fill-opacity:1;stroke-opacity:1;" /><path d="M 630.77246 127.494995 L 517.8862 159.005" style="stroke:rgb(253,204,229);stroke-width:1" /><circle cx="517.8862" cy="159.005" r="2" style="fill:rgb(253,204,229);stroke:none;fill-opacity:1;stroke-opacity:1;" /><path d="M 517.8862 159.005 L 451.85202 170.57" style="stroke:rgb(253,204,229);stroke-width:1" /><circle cx="451.85202" cy="170.57" r="2" style="fill:rgb(253,204,229);stroke:none;fill-opacity:1;stroke-opacity:1;" /><path d="M 451.85202 170.57 L 405 176.28" style="stroke:rgb(253,204,229);stroke-width:1" /><circle cx="405" cy="176.28" r="2" style="fill:rgb(253,204,229);stroke:none;fill-opacity:1;stroke-opacity:1;" /><path d="M 405 176.28 L 338.96576 182.3625" style="stroke:rgb(253,204,229);stroke-width:1" /><circle cx="338.96576" cy="182.3625" r="2" style="fill:rgb(253,204,229);stroke:none;fill-opacity:1;stroke-opacity:1;" /><path d="M 338.96576 182.3625 L 292.11377 184.58" style="stroke:rgb(253,204,229);stroke-width:1" /><circle cx="292.11377" cy="184.58" r="2" style="fill:rgb(253,204,229);stroke:none;fill-opacity:1;stroke-opacity:1;" /><path d="M 292.11377 184.58 L 255.7725 185.725" style="stroke:rgb(253,204,229);stroke-width:1" /><circle cx="255.7725" cy="185.725" r="2" style="fill:rgb(253,204,229);stroke:none;fill-opacity:1;stroke-opacity:1;" /><path d="M 255.7725 185.725 L 142.88626 188.2875" style="stroke:rgb(253,204,229);stroke-width:1" /><circle cx="142.88626" cy="188.2875" r="2" style="fill:rgb(253,204,229);stroke:none;fill-opacity:1;stroke-opacity:1;" /><path d="M 142.88626 188.2875 L 30 188.985" style="stroke:rgb(253,204,229);stroke-width:1" /><circle cx="30" cy="188.985" r="2" style="fill:rgb(253,204,229);stroke:none;fill-opacity:1;stroke-opacity:1;" /><circle cx="780" cy="114.384995" r="2" style="fill:rgb(255,238,101);stroke:none;fill-opacity:1;stroke-opacity:1;" /><path d="M 780 114.384995 L 630.77246 160.6425" style="stroke:rgb(255,238,101);stroke-width:1" /><circle cx="630.77246" cy="160.6425" r="2" style="fill:rgb(255,238,101);stroke:none;fill-opacity:1;stroke-opacity:1;" /><path d="M 630.77246 160.6425 L 517.8862 176.93" style="stroke:rgb(255,238,101);stroke-width:1" /><circle cx="517.8862" cy="176.93" r="2" style="fill:rgb(255,238,101);stroke:none;fill-opacity:1;stroke-opacity:1;" /><path d="M 517.8862 176.93 L 451.85202 184.845" style="stroke:rgb(255,238,101);stroke-width:1" /><circle cx="451.85202" cy="184.845" r="2" style="fill:rgb(255,238,101);stroke:none;fill-opacity:1;stroke-opacity:1;" /><path d="M 451.85202 184.845 L 405 191.3125" style="stroke:rgb(255,238,101);stroke-width:1" /><circle cx="405" cy="191.3125" r="2" style="fill:rgb(255,238,101);stroke:none;fill-opacity:1;stroke-opacity:1;" /><path d="M 405 191.3125 L 338.96576 200.595" style="stroke:rgb(255,238,101);stroke-width:1" /><circle cx="338.96576" cy="200.595" r="2" style="fill:rgb(255,238,101);stroke:none;fill-opacity:1;stroke-opacity:1;" /><path d="M 338.96576 200.595 L 292.11377 208.015" style="stroke:rgb(255,238,101);stroke-width:1" /><circle cx="292.11377" cy="208.015" r="2" style="fill:rgb(255,238,101);stroke:none;fill-opacity:1;stroke-opacity:1;" /><path d="M 292.11377 208.015 L 255.7725 215.2875" style="stroke:rgb(255,238,101);stroke-width:1" /><circle cx="255.7725" cy="215.2875" r="2" style="fill:rgb(255,238,101);stroke:none;fill-opacity:1;stroke-opacity:1;" /><path d="M 255.7725 215.2875 L 142.88626 246.43" style="stroke:rgb(255,238,101);stroke-width:1" /><circle cx="142.88626" cy="246.43" r="2" style="fill:rgb(255,238,101);stroke:none;fill-opacity:1;stroke-opacity:1;" /><path d="M 142.88626 246.43 L 30 262.3675" style="stroke:rgb(255,238,101);stroke-width:1" /><circle cx="30" cy="262.3675" r="2" style="fill:rgb(255,238,101);stroke:none;fill-opacity:1;stroke-opacity:1;" /><circle cx="780" cy="20" r="2" style="fill:rgb(178,224,97);stroke:none;fill-opacity:1;stroke-opacity:1;" /><path d="M 780 20 L 630.77246 97.9225" style="stroke:rgb(178,224,97);stroke-width:1" /><circle cx="630.77246" cy="97.9225" r="2" style="fill:rgb(178,224,97);stroke:none;fill-opacity:1;stroke-opacity:1;" /><path d="M 630.77246 97.9225 L 517.8862 137.0425" style="stroke:rgb(178,224,97);stroke-width:1" /><circle cx="517.8862" cy="137.0425" r="2" style="fill:rgb(178,224,97);stroke:none;fill-opacity:1;stroke-opacity:1;" /><path d="M 517.8862 137.0425 L 451.85202 153.9525" style="stroke:rgb(178,224,97);stroke-width:1" /><circle cx="451.85202" cy="153.9525" r="2" style="fill:rgb(178,224,97);stroke:none;fill-opacity:1;stroke-opacity:1;" /><path d="M 451.85202 153.9525 L 405 164.525" style="stroke:rgb(178,224,97);stroke-width:1" /><circle cx="405" cy="164.525" r="2" style="fill:rgb(178,224,97);stroke:none;fill-opacity:1;stroke-opacity:1;" /><path d="M 405 164.525 L 338.96576 175.1225" style="stroke:rgb(178,224,97);stroke-width:1" /><circle cx="338.96576" cy="175.1225" r="2" style="fill:rgb(178,224,97);stroke:none;fill-opacity:1;stroke-opacity:1;" /><path d="M 338.96576 175.1225 L 292.11377 180.1375" style="stroke:rgb(178,224,97);stroke-width:1" /><circle cx="292.11377" cy="180.1375" r="2" style="fill:rgb(178,224,97);stroke:none;fill-opacity:1;stroke-opacity:1;" /><path d="M 292.11377 180.1375 L 255.7725 183.0875" style="stroke:rgb(178,224,97);stroke-width:1" /><circle cx="255.7725" cy="183.0875" r="2" style="fill:rgb(178,224,97);stroke:none;fill-opacity:1;stroke-opacity:1;" /><path d="M 255.7725 183.0875 L 142.88626 187.55249" style="stroke:rgb(178,224,97);stroke-width:1" /><circle cx="142.88626" cy="187.55249" r="2" style="fill:rgb(178,224,97);stroke:none;fill-opacity:1;stroke-opacity:1;" /><path d="M 142.88626 187.55249 L 30 188.88" style="stroke:rgb(178,224,97);stroke-width:1" /><circle cx="30" cy="188.88" r="2" style="fill:rgb(178,224,97);stroke:none;fill-opacity:1;stroke-opacity:1;" /><circle cx="780" cy="30.627502" r="2" style="fill:rgb(190,185,219);stroke:none;fill-opacity:1;stroke-opacity:1;" /><path d="M 780 30.627502 L 630.77246 102.509995" style="stroke:rgb(190,185,219);stroke-width:1" /><circle cx="630.77246" cy="102.509995" r="2" style="fill:rgb(190,185,219);stroke:none;fill-opacity:1;stroke-opacity:1;" /><path d="M 630.77246 102.509995 L 517.8862 137.54" style="stroke:rgb(190,185,219);stroke-width:1" /><circle cx="517.8862" cy="137.54" r="2" style="fill:rgb(190,185,219);stroke:none;fill-opacity:1;stroke-opacity:1;" /><path d="M 517.8862 137.54 L 451.85202 152.79251" style="stroke:rgb(190,185,219);stroke-width:1" /><circle cx="451.85202" cy="152.79251" r="2" style="fill:rgb(190,185,219);stroke:none;fill-opacity:1;stroke-opacity:1;" /><path d="M 451.85202 152.79251 L 405 161.5575" style="stroke:rgb(190,185,219);stroke-width:1" /><circle cx="405" cy="161.5575" r="2" style="fill:rgb(190,185,219);stroke:none;fill-opacity:1;stroke-opacity:1;" /><path d="M 405 161.5575 L 338.96576 170.9925" style="stroke:rgb(190,185,219);stroke-width:1" /><circle cx="338.96576" cy="170.9925" r="2" style="fill:rgb(190,185,219);stroke:none;fill-opacity:1;stroke-opacity:1;" /><path d="M 338.96576 170.9925 L 292.11377 176.17749" style="stroke:rgb(190,185,219);stroke-width:1" /><circle cx="292.11377" cy="176.17749" r="2" style="fill:rgb(190,185,219);stroke:none;fill-opacity:1;stroke-opacity:1;" /><path d="M 292.11377 176.17749 L 255.7725 179.695" style="stroke:rgb(190,185,219);stroke-width:1" /><circle cx="255.7725" cy="179.695" r="2" style="fill:rgb(190,185,219);stroke:none;fill-opacity:1;stroke-opacity:1;" /><path d="M 255.7725 179.695 L 142.88626 185.73001" style="stroke:rgb(190,185,219);stroke-width:1" /><circle cx="142.88626" cy="185.73001" r="2" style="fill:rgb(190,185,219);stroke:none;fill-opacity:1;stroke-opacity:1;" /><path d="M 142.88626 185.73001 L 30 187.45" style="stroke:rgb(190,185,219);stroke-width:1" /><circle cx="30" cy="187.45" r="2" style="fill:rgb(190,185,219);stroke:none;fill-opacity:1;stroke-opacity:1;" /><circle cx="780" cy="120.94" r="2" style="fill:rgb(253,127,111);stroke:none;fill-opacity:1;stroke-opacity:1;" /><path d="M 780 120.94 L 630.77246 158.91" style="stroke:rgb(253,127,111);stroke-width:1" /><circle cx="630.77246" cy="158.91" r="2" style="fill:rgb(253,127,111);stroke:none;fill-opacity:1;stroke-opacity:1;" /><path d="M 630.77246 158.91 L 517.8862 174.59" style="stroke:rgb(253,127,111);stroke-width:1" /><circle cx="517.8862" cy="174.59" r="2" style="fill:rgb(253,127,111);stroke:none;fill-opacity:1;stroke-opacity:1;" /><path d="M 517.8862 174.59 L 451.85202 180.69751" style="stroke:rgb(253,127,111);stroke-width:1" /><circle cx="451.85202" cy="180.69751" r="2" style="fill:rgb(253,127,111);stroke:none;fill-opacity:1;stroke-opacity:1;" /><path d="M 451.85202 180.69751 L 405 183.79251" style="stroke:rgb(253,127,111);stroke-width:1" /><circle cx="405" cy="183.79251" r="2" style="fill:rgb(253,127,111);stroke:none;fill-opacity:1;stroke-opacity:1;" /><path d="M 405 183.79251 L 338.96576 186.1575" style="stroke:rgb(253,127,111);stroke-width:1" /><circle cx="338.96576" cy="186.1575" r="2" style="fill:rgb(253,127,111);stroke:none;fill-opacity:1;stroke-opacity:1;" /><path d="M 338.96576 186.1575 L 292.11377 187.0475" style="stroke:rgb(253,127,111);stroke-width:1" /><circle cx="292.11377" cy="187.0475" r="2" style="fill:rgb(253,127,111);stroke:none;fill-opacity:1;stroke-opacity:1;" /><path d="M 292.11377 187.0475 L 255.7725 187.495" style="stroke:rgb(253,127,111);stroke-width:1" /><circle cx="255.7725" cy="187.495" r="2" style="fill:rgb(253,127,111);stroke:none;fill-opacity:1;stroke-opacity:1;" /><path d="M 255.7725 187.495 L 142.88626 188.82" style="stroke:rgb(253,127,111);stroke-width:1" /><circle cx="142.88626" cy="188.82" r="2" style="fill:rgb(253,127,111);stroke:none;fill-opacity:1;stroke-opacity:1;" /><path d="M 142.88626 188.82 L 30 189.1225" style="stroke:rgb(253,127,111);stroke-width:1" /><circle cx="30" cy="189.1225" r="2" style="fill:rgb(253,127,111);stroke:none;fill-opacity:1;stroke-opacity:1;" /><circle cx="780" cy="120.95" r="2" style="fill:rgb(126,176,213);stroke:none;fill-opacity:1;stroke-opacity:1;" /><path d="M 780 120.95 L 630.77246 158.9725" style="stroke:rgb(126,176,213);stroke-width:1" /><circle cx="630.77246" cy="158.9725" r="2" style="fill:rgb(126,176,213);stroke:none;fill-opacity:1;stroke-opacity:1;" /><path d="M 630.77246 158.9725 L 517.8862 174.59" style="stroke:rgb(126,176,213);stroke-width:1" /><circle cx="517.8862" cy="174.59" r="2" style="fill:rgb(126,176,213);stroke:none;fill-opacity:1;stroke-opacity:1;" /><path d="M 517.8862 174.59 L 451.85202 180.70999" style="stroke:rgb(126,176,213);stroke-width:1" /><circle cx="451.85202" cy="180.70999" r="2" style="fill:rgb(126,176,213);stroke:none;fill-opacity:1;stroke-opacity:1;" /><path d="M 451.85202 180.70999 L 405 183.79251" style="stroke:rgb(126,176,213);stroke-width:1" /><circle cx="405" cy="183.79251" r="2" style="fill:rgb(126,176,213);stroke:none;fill-opacity:1;stroke-opacity:1;" /><path d="M 405 183.79251 L 338.96576 186.1575" style="stroke:rgb(126,176,213);stroke-width:1" /><circle cx="338.96576" cy="186.1575" r="2" style="fill:rgb(126,176,213);stroke:none;fill-opacity:1;stroke-opacity:1;" /><path d="M 338.96576 186.1575 L 292.11377 187.0475" style="stroke:rgb(126,176,213);stroke-width:1" /><circle cx="292.11377" cy="187.0475" r="2" style="fill:rgb(126,176,213);stroke:none;fill-opacity:1;stroke-opacity:1;" /><path d="M 292.11377 187.0475 L 255.7725 187.5" style="stroke:rgb(126,176,213);stroke-width:1" /><circle cx="255.7725" cy="187.5" r="2" style="fill:rgb(126,176,213);stroke:none;fill-opacity:1;stroke-opacity:1;" /><path d="M 255.7725 187.5 L 142.88626 188.82" style="stroke:rgb(126,176,213);stroke-width:1" /><circle cx="142.88626" cy="188.82" r="2" style="fill:rgb(126,176,213);stroke:none;fill-opacity:1;stroke-opacity:1;" /><path d="M 142.88626 188.82 L 30 189.1225" style="stroke:rgb(126,176,213);stroke-width:1" /><circle cx="30" cy="189.1225" r="2" style="fill:rgb(126,176,213);stroke:none;fill-opacity:1;stroke-opacity:1;" /><circle cx="780" cy="120.42" r="2" style="fill:rgb(255,181,90);stroke:none;fill-opacity:1;stroke-opacity:1;" /><path d="M 780 120.42 L 630.77246 161.70749" style="stroke:rgb(255,181,90);stroke-width:1" /><circle cx="630.77246" cy="161.70749" r="2" style="fill:rgb(255,181,90);stroke:none;fill-opacity:1;stroke-opacity:1;" /><path d="M 630.77246 161.70749 L 517.8862 177.8725" style="stroke:rgb(255,181,90);stroke-width:1" /><circle cx="517.8862" cy="177.8725" r="2" style="fill:rgb(255,181,90);stroke:none;fill-opacity:1;stroke-opacity:1;" /><path d="M 517.8862 177.8725 L 451.85202 185.3275" style="stroke:rgb(255,181,90);stroke-width:1" /><circle cx="451.85202" cy="185.3275" r="2" style="fill:rgb(255,181,90);stroke:none;fill-opacity:1;stroke-opacity:1;" /><path d="M 451.85202 185.3275 L 405 191.475" style="stroke:rgb(255,181,90);stroke-width:1" /><circle cx="405" cy="191.475" r="2" style="fill:rgb(255,181,90);stroke:none;fill-opacity:1;stroke-opacity:1;" /><path d="M 405 191.475 L 338.96576 200.6225" style="stroke:rgb(255,181,90);stroke-width:1" /><circle cx="338.96576" cy="200.6225" r="2" style="fill:rgb(255,181,90);stroke:none;fill-opacity:1;stroke-opacity:1;" /><path d="M 338.96576 200.6225 L 292.11377 208.0475" style="stroke:rgb(255,181,90);stroke-width:1" /><circle cx="292.11377" cy="208.0475" r="2" style="fill:rgb(255,181,90);stroke:none;fill-opacity:1;stroke-opacity:1;" /><path d="M 292.11377 208.0475 L 255.7725 215.2975" style="stroke:rgb(255,181,90);stroke-width:1" /><circle cx="255.7725" cy="215.2975" r="2" style="fill:rgb(255,181,90);stroke:none;fill-opacity:1;stroke-opacity:1;" /><path d="M 255.7725 215.2975 L 142.88626 246.43" style="stroke:rgb(255,181,90);stroke-width:1" /><circle cx="142.88626" cy="246.43" r="2" style="fill:rgb(255,181,90);stroke:none;fill-opacity:1;stroke-opacity:1;" /><path d="M 142.88626 246.43 L 30 262.3675" style="stroke:rgb(255,181,90);stroke-width:1" /><circle cx="30" cy="262.3675" r="2" style="fill:rgb(255,181,90);stroke:none;fill-opacity:1;stroke-opacity:1;" /><rect x="676" y="16" width="80" height="175" ry="4" style="fill:rgb(30,30,30);stroke:none;fill-opacity:0.8;stroke-opacity:1;" /><rect x="680" y="20" width="20" height="20" ry="2" style="fill:rgb(190,185,219);stroke:none;fill-opacity:1;stroke-opacity:1;" /><text x="705" y="33" style="font-size:10px;fill:rgb(255,255,255);text-anchor:start;text-align:left;"> hain </text><rect x="680" y="41" width="20" height="20" ry="2" style="fill:rgb(253,204,229);stroke:none;fill-opacity:1;stroke-opacity:1;" /><text x="705" y="54" style="font-size:10px;fill:rgb(255,255,255);text-anchor:start;text-align:left;"> hfd </text><rect x="680" y="62" width="20" height="20" ry="2" style="fill:rgb(253,127,111);stroke:none;fill-opacity:1;stroke-opacity:1;" /><text x="705" y="75" style="font-size:10px;fill:rgb(255,255,255);text-anchor:start;text-align:left;"> levien </text><rect x="680" y="83" width="20" height="20" ry="2" style="fill:rgb(139,211,199);stroke:none;fill-opacity:1;stroke-opacity:1;" /><text x="705" y="96" style="font-size:10px;fill:rgb(255,255,255);text-anchor:start;text-align:left;"> levien-linear </text><rect x="680" y="104" width="20" height="20" ry="2" style="fill:rgb(126,176,213);stroke:none;fill-opacity:1;stroke-opacity:1;" /><text x="705" y="117" style="font-size:10px;fill:rgb(255,255,255);text-anchor:start;text-align:left;"> levien-simd </text><rect x="680" y="125" width="20" height="20" ry="2" style="fill:rgb(255,181,90);stroke:none;fill-opacity:1;stroke-opacity:1;" /><text x="705" y="138" style="font-size:10px;fill:rgb(255,255,255);text-anchor:start;text-align:left;"> linear </text><rect x="680" y="146" width="20" height="20" ry="2" style="fill:rgb(255,238,101);stroke:none;fill-opacity:1;stroke-opacity:1;" /><text x="705" y="159" style="font-size:10px;fill:rgb(255,255,255);text-anchor:start;text-align:left;"> recursive </text><rect x="680" y="167" width="20" height="20" ry="2" style="fill:rgb(178,224,97);stroke:none;fill-opacity:1;stroke-opacity:1;" /><text x="705" y="180" style="font-size:10px;fill:rgb(255,255,255);text-anchor:start;text-align:left;"> wang </text><text x="400" y="30" style="font-size:20px;fill:rgb(255,255,255);text-anchor:middle;text-align:center;"> Font </text><text x="400" y="42" style="font-size:8px;fill:rgb(200,200,200);text-anchor:middle;text-align:center;"> Normalized edge count score (lower is better) </text></svg>