<svg xmlns="http://www.w3.org/2000/svg" viewBox="0 0 800 300"><rect x="0" y="0" width="800" height="300" ry="6" style="fill:rgb(30,30,30);stroke:none;fill-opacity:1;stroke-opacity:1;" /><path d="M 30 20 L 30 270" style="stroke:rgb(200,200,200);stroke-width:1" /><path d="M 30 270 L 780 270" style="stroke:rgb(200,200,200);stroke-width:1" /><path d="M 780 270 L 780 272" style="stroke:rgb(200,200,200);stroke-width:1" /><text x="780" y="282" style="font-size:10px;fill:rgb(200,200,200);text-anchor:middle;text-align:center;"> 0.01 </text><path d="M 630.77246 270 L 630.77246 272" style="stroke:rgb(200,200,200);stroke-width:1" /><text x="630.77246" y="282" style="font-size:10px;fill:rgb(200,200,200);text-anchor:middle;text-align:center;"> 0.025 </text><path d="M 517.8862 270 L 517.8862 272" style="stroke:rgb(200,200,200);stroke-width:1" /><text x="517.8862" y="282" style="font-size:10px;fill:rgb(200,200,200);text-anchor:middle;text-align:center;"> 0.05 </text><path d="M 451.85202 270 L 451.85202 272" style="stroke:rgb(200,200,200);stroke-width:1" /><text x="451.85202" y="282" style="font-size:10px;fill:rgb(200,200,200);text-anchor:middle;text-align:center;"> 0.075 </text><path d="M 405 270 L 405 272" style="stroke:rgb(200,200,200);stroke-width:1" /><text x="405" y="282" style="font-size:10px;fill:rgb(200,200,200);text-anchor:middle;text-align:center;"> 0.1 </text><path d="M 338.96576 270 L 338.96576 272" style="stroke:rgb(200,200,200);stroke-width:1" /><text x="338.96576" y="282" style="font-size:10px;fill:rgb(200,200,200);text-anchor:middle;text-align:center;"> 0.15 </text><path d="M 292.11377 270 L 292.11377 272" style="stroke:rgb(200,200,200);stroke-width:1" /><text x="292.11377" y="282" style="font-size:10px;fill:rgb(200,200,200);text-anchor:middle;text-align:center;"> 0.2 </text><path d="M 255.7725 270 L 255.7725 272" style="stroke:rgb(200,200,200);stroke-width:1" /><text x="255.7725" y="282" style="font-size:10px;fill:rgb(200,200,200);text-anchor:middle;text-align:center;"> 0.25 </text><path d="M 142.88626 270 L 142.88626 272" style="stroke:rgb(200,200,200);stroke-width:1" /><text x="142.88626" y="282" style="font-size:10px;fill:rgb(200,200,200);text-anchor:middle;text-align:center;"> 0.5 </text><path d="M 30 270 L 30 272" style="stroke:rgb(200,200,200);stroke-width:1" /><text x="30" y="282" style="font-size:10px;fill:rgb(200,200,200);text-anchor:middle;text-align:center;"> 1 </text><path d="M 28 270 L 30 270" style="stroke:rgb(200,200,200);stroke-width:1" /><text x="26" y="274" style="font-size:10px;fill:rgb(200,200,200);text-anchor:end;text-align:right;"> 0 </text><path d="M 28 207.5 L 30 207.5" style="stroke:rgb(200,200,200);stroke-width:1" /><text x="26" y="211.5" style="font-size:10px;fill:rgb(200,200,200);text-anchor:end;text-align:right;"> 0.25 </text><path d="M 28 145 L 30 145" style="stroke:rgb(200,200,200);stroke-width:1" /><text x="26" y="149" style="font-size:10px;fill:rgb(200,200,200);text-anchor:end;text-align:right;"> 0.5 </text><path d="M 28 82.5 L 30 82.5" style="stroke:rgb(200,200,200);stroke-width:1" /><text x="26" y="86.5" style="font-size:10px;fill:rgb(200,200,200);text-anchor:end;text-align:right;"> 0.75 </text><path d="M 28 20 L 30 20" style="stroke:rgb(200,200,200);stroke-width:1" /><text x="26" y="24" style="font-size:10px;fill:rgb(200,200,200);text-anchor:end;text-align:right;"> 1 </text><text x="400" y="294" style="font-size:10px;fill:rgb(200,200,200);text-anchor:middle;text-align:center;"> Tolerance </text><circle cx="780" cy="89.03999" r="2" style="fill:rgb(253,204,229);stroke:none;fill-opacity:1;stroke-opacity:1;" /><path d="M 780 89.03999 L 630.77246 155.0925" style="stroke:rgb(253,204,229);stroke-width:1" /><circle cx="630.77246" cy="155.0925" r="2" style="fill:rgb(253,204,229);stroke:none;fill-opacity:1;stroke-opacity:1;" /><path d="M 630.77246 155.0925 L 517.8862 188.3875" style="stroke:rgb(253,204,229);stroke-width:1" /><circle cx="517.8862" cy="188.3875" r="2" style="fill:rgb(253,204,229);stroke:none;fill-opacity:1;stroke-opacity:1;" /><path d="M 517.8862 188.3875 L 451.85202 203.11499" style="stroke:rgb(253,204,229);stroke-width:1" /><circle cx="451.85202" cy="203.11499" r="2" style="fill:rgb(253,204,229);stroke:none;fill-opacity:1;stroke-opacity:1;" /><path d="M 451.85202 203.11499 L 405 211.93" style="stroke:rgb(253,204,229);stroke-width:1" /><circle cx="405" cy="211.93" r="2" style="fill:rgb(253,204,229);stroke:none;fill-opacity:1;stroke-opacity:1;" /><path d="M 405 211.93 L 338.96576 222.3875" style="stroke:rgb(253,204,229);stroke-width:1" /><circle cx="338.96576" cy="222.3875" r="2" style="fill:rgb(253,204,229);stroke:none;fill-opacity:1;stroke-opacity:1;" /><path d="M 338.96576 222.3875 L 292.11377 228.5825" style="stroke:rgb(253,204,229);stroke-width:1" /><circle cx="292.11377" cy="228.5825" r="2" style="fill:rgb(253,204,229);stroke:none;fill-opacity:1;stroke-opacity:1;" /><path d="M 292.11377 228.5825 L 255.7725 232.845" style="stroke:rgb(253,204,229);stroke-width:1" /><circle cx="255.7725" cy="232.845" r="2" style="fill:rgb(253,204,229);stroke:none;fill-opacity:1;stroke-opacity:1;" /><path d="M 255.7725 232.845 L 142.88626 243.3075" style="stroke:rgb(253,204,229);stroke-width:1" /><circle cx="142.88626" cy="243.3075" r="2" style="fill:rgb(253,204,229);stroke:none;fill-opacity:1;stroke-opacity:1;" /><path d="M 142.88626 243.3075 L 30 250.695" style="stroke:rgb(253,204,229);stroke-width:1" /><circle cx="30" cy="250.695" r="2" style="fill:rgb(253,204,229);stroke:none;fill-opacity:1;stroke-opacity:1;" /><circle cx="780" cy="89.03999" r="2" style="fill:rgb(253,127,111);stroke:none;fill-opacity:1;stroke-opacity:1;" /><path d="M 780 89.03999 L 630.77246 155.0925" style="stroke:rgb(253,127,111);stroke-width:1" /><circle cx="630.77246" cy="155.0925" r="2" style="fill:rgb(253,127,111);stroke:none;fill-opacity:1;stroke-opacity:1;" /><path d="M 630.77246 155.0925 L 517.8862 188.3875" style="stroke:rgb(253,127,111);stroke-width:1" /><circle cx="517.8862" cy="188.3875" r="2" style="fill:rgb(253,127,111);stroke:none;fill-opacity:1;stroke-opacity:1;" /><path d="M 517.8862 188.3875 L 451.85202 203.11499" style="stroke:rgb(253,127,111);stroke-width:1" /><circle cx="451.85202" cy="203.11499" r="2" style="fill:rgb(253,127,111);stroke:none;fill-opacity:1;stroke-opacity:1;" /><path d="M 451.85202 203.11499 L 405 211.93" style="stroke:rgb(253,127,111);stroke-width:1" /><circle cx="405" cy="211.93" r="2" style="fill:rgb(253,127,111);stroke:none;fill-opacity:1;stroke-opacity:1;" /><path d="M 405 211.93 L 338.96576 222.3875" style="stroke:rgb(253,127,111);stroke-width:1" /><circle cx="338.96576" cy="222.3875" r="2" style="fill:rgb(253,127,111);stroke:none;fill-opacity:1;stroke-opacity:1;" /><path d="M 338.96576 222.3875 L 292.11377 228.5825" style="stroke:rgb(253,127,111);stroke-width:1" /><circle cx="292.11377" cy="228.5825" r="2" style="fill:rgb(253,127,111);stroke:none;fill-opacity:1;stroke-opacity:1;" /><path d="M 292.11377 228.5825 L 255.7725 232.845" style="stroke:rgb(253,127,111);stroke-width:1" /><circle cx="255.7725" cy="232.845" r="2" style="fill:rgb(253,127,111);stroke:none;fill-opacity:1;stroke-opacity:1;" /><path d="M 255.7725 232.845 L 142.88626 243.3075" style="stroke:rgb(253,127,111);stroke-width:1" /><circle cx="142.88626" cy="243.3075" r="2" style="fill:rgb(253,127,111);stroke:none;fill-opacity:1;stroke-opacity:1;" /><path d="M 142.88626 243.3075 L 30 250.695" style="stroke:rgb(253,127,111);stroke-width:1" /><circle cx="30" cy="250.695" r="2" style="fill:rgb(253,127,111);stroke:none;fill-opacity:1;stroke-opacity:1;" /><circle cx="780" cy="23.897507" r="2" style="fill:rgb(128,214,87);stroke:none;fill-opacity:1;stroke-opacity:1;" /><path d="M 780 23.897507 L 630.77246 115.78" style="stroke:rgb(128,214,87);stroke-width:1" /><circle cx="630.77246" cy="115.78" r="2" style="fill:rgb(128,214,87);stroke:none;fill-opacity:1;stroke-opacity:1;" /><path d="M 630.77246 115.78 L 517.8862 160.815" style="stroke:rgb(128,214,87);stroke-width:1" /><circle cx="517.8862" cy="160.815" r="2" style="fill:rgb(128,214,87);stroke:none;fill-opacity:1;stroke-opacity:1;" /><path d="M 517.8862 160.815 L 451.85202 181.7475" style="stroke:rgb(128,214,87);stroke-width:1" /><circle cx="451.85202" cy="181.7475" r="2" style="fill:rgb(128,214,87);stroke:none;fill-opacity:1;stroke-opacity:1;" /><path d="M 451.85202 181.7475 L 405 193.195" style="stroke:rgb(128,214,87);stroke-width:1" /><circle cx="405" cy="193.195" r="2" style="fill:rgb(128,214,87);stroke:none;fill-opacity:1;stroke-opacity:1;" /><path d="M 405 193.195 L 338.96576 206.8475" style="stroke:rgb(128,214,87);stroke-width:1" /><circle cx="338.96576" cy="206.8475" r="2" style="fill:rgb(128,214,87);stroke:none;fill-opacity:1;stroke-opacity:1;" /><path d="M 338.96576 206.8475 L 292.11377 215.565" style="stroke:rgb(128,214,87);stroke-width:1" /><circle cx="292.11377" cy="215.565" r="2" style="fill:rgb(128,214,87);stroke:none;fill-opacity:1;stroke-opacity:1;" /><path d="M 292.11377 215.565 L 255.7725 221.6575" style="stroke:rgb(128,214,87);stroke-width:1" /><circle cx="255.7725" cy="221.6575" r="2" style="fill:rgb(128,214,87);stroke:none;fill-opacity:1;stroke-opacity:1;" /><path d="M 255.7725 221.6575 L 142.88626 235.47" style="stroke:rgb(128,214,87);stroke-width:1" /><circle cx="142.88626" cy="235.47" r="2" style="fill:rgb(128,214,87);stroke:none;fill-opacity:1;stroke-opacity:1;" /><path d="M 142.88626 235.47 L 30 245.725" style="stroke:rgb(128,214,87);stroke-width:1" /><circle cx="30" cy="245.725" r="2" style="fill:rgb(128,214,87);stroke:none;fill-opacity:1;stroke-opacity:1;" /><circle cx="780" cy="96.17999" r="2" style="fill:rgb(119,211,179);stroke:none;fill-opacity:1;stroke-opacity:1;" /><path d="M 780 96.17999 L 630.77246 159.5975" style="stroke:rgb(119,211,179);stroke-width:1" /><circle cx="630.77246" cy="159.5975" r="2" style="fill:rgb(119,211,179);stroke:none;fill-opacity:1;stroke-opacity:1;" /><path d="M 630.77246 159.5975 L 517.8862 191.5675" style="stroke:rgb(119,211,179);stroke-width:1" /><circle cx="517.8862" cy="191.5675" r="2" style="fill:rgb(119,211,179);stroke:none;fill-opacity:1;stroke-opacity:1;" /><path d="M 517.8862 191.5675 L 451.85202 205.72" style="stroke:rgb(119,211,179);stroke-width:1" /><circle cx="451.85202" cy="205.72" r="2" style="fill:rgb(119,211,179);stroke:none;fill-opacity:1;stroke-opacity:1;" /><path d="M 451.85202 205.72 L 405 214.1675" style="stroke:rgb(119,211,179);stroke-width:1" /><circle cx="405" cy="214.1675" r="2" style="fill:rgb(119,211,179);stroke:none;fill-opacity:1;stroke-opacity:1;" /><path d="M 405 214.1675 L 338.96576 224.2175" style="stroke:rgb(119,211,179);stroke-width:1" /><circle cx="338.96576" cy="224.2175" r="2" style="fill:rgb(119,211,179);stroke:none;fill-opacity:1;stroke-opacity:1;" /><path d="M 338.96576 224.2175 L 292.11377 230.1625" style="stroke:rgb(119,211,179);stroke-width:1" /><circle cx="292.11377" cy="230.1625" r="2" style="fill:rgb(119,211,179);stroke:none;fill-opacity:1;stroke-opacity:1;" /><path d="M 292.11377 230.1625 L 255.7725 234.245" style="stroke:rgb(119,211,179);stroke-width:1" /><circle cx="255.7725" cy="234.245" r="2" style="fill:rgb(119,211,179);stroke:none;fill-opacity:1;stroke-opacity:1;" /><path d="M 255.7725 234.245 L 142.88626 244.2875" style="stroke:rgb(119,211,179);stroke-width:1" /><circle cx="142.88626" cy="244.2875" r="2" style="fill:rgb(119,211,179);stroke:none;fill-opacity:1;stroke-opacity:1;" /><path d="M 142.88626 244.2875 L 30 251.3925" style="stroke:rgb(119,211,179);stroke-width:1" /><circle cx="30" cy="251.3925" r="2" style="fill:rgb(119,211,179);stroke:none;fill-opacity:1;stroke-opacity:1;" /><circle cx="780" cy="20" r="2" style="fill:rgb(255,238,101);stroke:none;fill-opacity:1;stroke-opacity:1;" /><path d="M 780 20 L 630.77246 121.81" style="stroke:rgb(255,238,101);stroke-width:1" /><circle cx="630.77246" cy="121.81" r="2" style="fill:rgb(255,238,101);stroke:none;fill-opacity:1;stroke-opacity:1;" /><path d="M 630.77246 121.81 L 517.8862 154.73001" style="stroke:rgb(255,238,101);stroke-width:1" /><circle cx="517.8862" cy="154.73001" r="2" style="fill:rgb(255,238,101);stroke:none;fill-opacity:1;stroke-opacity:1;" /><path d="M 517.8862 154.73001 L 451.85202 180.1725" style="stroke:rgb(255,238,101);stroke-width:1" /><circle cx="451.85202" cy="180.1725" r="2" style="fill:rgb(255,238,101);stroke:none;fill-opacity:1;stroke-opacity:1;" /><path d="M 451.85202 180.1725 L 405 195.825" style="stroke:rgb(255,238,101);stroke-width:1" /><circle cx="405" cy="195.825" r="2" style="fill:rgb(255,238,101);stroke:none;fill-opacity:1;stroke-opacity:1;" /><path d="M 405 195.825 L 338.96576 205.8" style="stroke:rgb(255,238,101);stroke-width:1" /><circle cx="338.96576" cy="205.8" r="2" style="fill:rgb(255,238,101);stroke:none;fill-opacity:1;stroke-opacity:1;" /><path d="M 338.96576 205.8 L 292.11377 212.225" style="stroke:rgb(255,238,101);stroke-width:1" /><circle cx="292.11377" cy="212.225" r="2" style="fill:rgb(255,238,101);stroke:none;fill-opacity:1;stroke-opacity:1;" /><path d="M 292.11377 212.225 L 255.7725 218.89749" style="stroke:rgb(255,238,101);stroke-width:1" /><circle cx="255.7725" cy="218.89749" r="2" style="fill:rgb(255,238,101);stroke:none;fill-opacity:1;stroke-opacity:1;" /><path d="M 255.7725 218.89749 L 142.88626 235.8875" style="stroke:rgb(255,238,101);stroke-width:1" /><circle cx="142.88626" cy="235.8875" r="2" style="fill:rgb(255,238,101);stroke:none;fill-opacity:1;stroke-opacity:1;" /><path d="M 142.88626 235.8875 L 30 244.095" style="stroke:rgb(255,238,101);stroke-width:1" /><circle cx="30" cy="244.095" r="2" style="fill:rgb(255,238,101);stroke:none;fill-opacity:1;stroke-opacity:1;" /><circle cx="780" cy="96.205" r="2" style="fill:rgb(50,125,209);stroke:none;fill-opacity:1;stroke-opacity:1;" /><path d="M 780 96.205 L 630.77246 159.6175" style="stroke:rgb(50,125,209);stroke-width:1" /><circle cx="630.77246" cy="159.6175" r="2" style="fill:rgb(50,125,209);stroke:none;fill-opacity:1;stroke-opacity:1;" /><path d="M 630.77246 159.6175 L 517.8862 191.58" style="stroke:rgb(50,125,209);stroke-width:1" /><circle cx="517.8862" cy="191.58" r="2" style="fill:rgb(50,125,209);stroke:none;fill-opacity:1;stroke-opacity:1;" /><path d="M 517.8862 191.58 L 451.85202 205.72751" style="stroke:rgb(50,125,209);stroke-width:1" /><circle cx="451.85202" cy="205.72751" r="2" style="fill:rgb(50,125,209);stroke:none;fill-opacity:1;stroke-opacity:1;" /><path d="M 451.85202 205.72751 L 405 214.175" style="stroke:rgb(50,125,209);stroke-width:1" /><circle cx="405" cy="214.175" r="2" style="fill:rgb(50,125,209);stroke:none;fill-opacity:1;stroke-opacity:1;" /><path d="M 405 214.175 L 338.96576 224.2175" style="stroke:rgb(50,125,209);stroke-width:1" /><circle cx="338.96576" cy="224.2175" r="2" style="fill:rgb(50,125,209);stroke:none;fill-opacity:1;stroke-opacity:1;" /><path d="M 338.96576 224.2175 L 292.11377 230.16501" style="stroke:rgb(50,125,209);stroke-width:1" /><circle cx="292.11377" cy="230.16501" r="2" style="fill:rgb(50,125,209);stroke:none;fill-opacity:1;stroke-opacity:1;" /><path d="M 292.11377 230.16501 L 255.7725 234.2425" style="stroke:rgb(50,125,209);stroke-width:1" /><circle cx="255.7725" cy="234.2425" r="2" style="fill:rgb(50,125,209);stroke:none;fill-opacity:1;stroke-opacity:1;" /><path d="M 255.7725 234.2425 L 142.88626 244.285" style="stroke:rgb(50,125,209);stroke-width:1" /><circle cx="142.88626" cy="244.285" r="2" style="fill:rgb(50,125,209);stroke:none;fill-opacity:1;stroke-opacity:1;" /><path d="M 142.88626 244.285 L 30 251.39" style="stroke:rgb(50,125,209);stroke-width:1" /><circle cx="30" cy="251.39" r="2" style="fill:rgb(50,125,209);stroke:none;fill-opacity:1;stroke-opacity:1;" /><rect x="676" y="16" width="80" height="133" ry="4" style="fill:rgb(30,30,30);stroke:none;fill-opacity:0.8;stroke-opacity:1;" /><rect x="680" y="20" width="20" height="20" ry="2" style="fill:rgb(253,127,111);stroke:none;fill-opacity:1;stroke-opacity:1;" /><text x="705" y="33" style="font-size:10px;fill:rgb(255,255,255);text-anchor:start;text-align:left;"> fwd-diff </text><rect x="680" y="41" width="20" height="20" ry="2" style="fill:rgb(50,125,209);stroke:none;fill-opacity:1;stroke-opacity:1;" /><text x="705" y="54" style="font-size:10px;fill:rgb(255,255,255);text-anchor:start;text-align:left;"> levien </text><rect x="680" y="62" width="20" height="20" ry="2" style="fill:rgb(119,211,179);stroke:none;fill-opacity:1;stroke-opacity:1;" /><text x="705" y="75" style="font-size:10px;fill:rgb(255,255,255);text-anchor:start;text-align:left;"> levien-linear </text><rect x="680" y="83" width="20" height="20" ry="2" style="fill:rgb(128,214,87);stroke:none;fill-opacity:1;stroke-opacity:1;" /><text x="705" y="96" style="font-size:10px;fill:rgb(255,255,255);text-anchor:start;text-align:left;"> linear </text><rect x="680" y="104" width="20" height="20" ry="2" style="fill:rgb(255,238,101);stroke:none;fill-opacity:1;stroke-opacity:1;" /><text x="705" y="117" style="font-size:10px;fill:rgb(255,255,255);text-anchor:start;text-align:left;"> recursive </text><rect x="680" y="125" width="20" height="20" ry="2" style="fill:rgb(253,204,229);stroke:none;fill-opacity:1;stroke-opacity:1;" /><text x="705" y="138" style="font-size:10px;fill:rgb(255,255,255);text-anchor:start;text-align:left;"> wang </text><text x="400" y="30" style="font-size:20px;fill:rgb(255,255,255);text-anchor:middle;text-align:center;"> Nehab </text><text x="400" y="42" style="font-size:8px;fill:rgb(200,200,200);text-anchor:middle;text-align:center;"> Normalized edge count score (lower is better) </text></svg>