<svg xmlns="http://www.w3.org/2000/svg" viewBox="0 0 800 300"><rect x="0" y="0" width="800" height="300" ry="6" style="fill:rgb(30,30,30);stroke:none;fill-opacity:1;stroke-opacity:1;" /><path d="M 30 20 L 30 270" style="stroke:rgb(200,200,200);stroke-width:1" /><path d="M 30 270 L 780 270" style="stroke:rgb(200,200,200);stroke-width:1" /><path d="M 780 270 L 780 272" style="stroke:rgb(200,200,200);stroke-width:1" /><text x="780" y="282" style="font-size:10px;fill:rgb(200,200,200);text-anchor:middle;text-align:center;"> 0.01 </text><path d="M 630.77246 270 L 630.77246 272" style="stroke:rgb(200,200,200);stroke-width:1" /><text x="630.77246" y="282" style="font-size:10px;fill:rgb(200,200,200);text-anchor:middle;text-align:center;"> 0.025 </text><path d="M 517.8862 270 L 517.8862 272" style="stroke:rgb(200,200,200);stroke-width:1" /><text x="517.8862" y="282" style="font-size:10px;fill:rgb(200,200,200);text-anchor:middle;text-align:center;"> 0.05 </text><path d="M 451.85202 270 L 451.85202 272" style="stroke:rgb(200,200,200);stroke-width:1" /><text x="451.85202" y="282" style="font-size:10px;fill:rgb(200,200,200);text-anchor:middle;text-align:center;"> 0.075 </text><path d="M 405 270 L 405 272" style="stroke:rgb(200,200,200);stroke-width:1" /><text x="405" y="282" style="font-size:10px;fill:rgb(200,200,200);text-anchor:middle;text-align:center;"> 0.1 </text><path d="M 338.96576 270 L 338.96576 272" style="stroke:rgb(200,200,200);stroke-width:1" /><text x="338.96576" y="282" style="font-size:10px;fill:rgb(200,200,200);text-anchor:middle;text-align:center;"> 0.15 </text><path d="M 292.11377 270 L 292.11377 272" style="stroke:rgb(200,200,200);stroke-width:1" /><text x="292.11377" y="282" style="font-size:10px;fill:rgb(200,200,200);text-anchor:middle;text-align:center;"> 0.2 </text><path d="M 255.7725 270 L 255.7725 272" style="stroke:rgb(200,200,200);stroke-width:1" /><text x="255.7725" y="282" style="font-size:10px;fill:rgb(200,200,200);text-anchor:middle;text-align:center;"> 0.25 </text><path d="M 142.88626 270 L 142.88626 272" style="stroke:rgb(200,200,200);stroke-width:1" /><text x="142.88626" y="282" style="font-size:10px;fill:rgb(200,200,200);text-anchor:middle;text-align:center;"> 0.5 </text><path d="M 30 270 L 30 272" style="stroke:rgb(200,200,200);stroke-width:1" /><text x="30" y="282" style="font-size:10px;fill:rgb(200,200,200);text-anchor:middle;text-align:center;"> 1 </text><path d="M 28 270 L 30 270" style="stroke:rgb(200,200,200);stroke-width:1" /><text x="26" y="274" style="font-size:10px;fill:rgb(200,200,200);text-anchor:end;text-align:right;"> 0 </text><path d="M 28 207.5 L 30 207.5" style="stroke:rgb(200,200,200);stroke-width:1" /><text x="26" y="211.5" style="font-size:10px;fill:rgb(200,200,200);text-anchor:end;text-align:right;"> 0.25 </text><path d="M 28 145 L 30 145" style="stroke:rgb(200,200,200);stroke-width:1" /><text x="26" y="149" style="font-size:10px;fill:rgb(200,200,200);text-anchor:end;text-align:right;"> 0.5 </text><path d="M 28 82.5 L 30 82.5" style="stroke:rgb(200,200,200);stroke-width:1" /><text x="26" y="86.5" style="font-size:10px;fill:rgb(200,200,200);text-anchor:end;text-align:right;"> 0.75 </text><path d="M 28 20 L 30 20" style="stroke:rgb(200,200,200);stroke-width:1" /><text x="26" y="24" style="font-size:10px;fill:rgb(200,200,200);text-anchor:end;text-align:right;"> 1 </text><text x="400" y="294" style="font-size:10px;fill:rgb(200,200,200);text-anchor:middle;text-align:center;"> Tolerance </text><circle cx="780" cy="119.707504" r="2" style="fill:rgb(255,181,90);stroke:none;fill-opacity:1;stroke-opacity:1;" /><path d="M 780 119.707504 L 630.77246 173.70749" style="stroke:rgb(255,181,90);stroke-width:1" /><circle cx="630.77246" cy="173.70749" r="2" style="fill:rgb(255,181,90);stroke:none;fill-opacity:1;stroke-opacity:1;" /><path d="M 630.77246 173.70749 L 517.8862 200.33499" style="stroke:rgb(255,181,90);stroke-width:1" /><circle cx="517.8862" cy="200.33499" r="2" style="fill:rgb(255,181,90);stroke:none;fill-opacity:1;stroke-opacity:1;" /><path d="M 517.8862 200.33499 L 451.85202 211.93" style="stroke:rgb(255,181,90);stroke-width:1" /><circle cx="451.85202" cy="211.93" r="2" style="fill:rgb(255,181,90);stroke:none;fill-opacity:1;stroke-opacity:1;" /><path d="M 451.85202 211.93 L 405 219.1425" style="stroke:rgb(255,181,90);stroke-width:1" /><circle cx="405" cy="219.1425" r="2" style="fill:rgb(255,181,90);stroke:none;fill-opacity:1;stroke-opacity:1;" /><path d="M 405 219.1425 L 338.96576 227.155" style="stroke:rgb(255,181,90);stroke-width:1" /><circle cx="338.96576" cy="227.155" r="2" style="fill:rgb(255,181,90);stroke:none;fill-opacity:1;stroke-opacity:1;" /><path d="M 338.96576 227.155 L 292.11377 231.95999" style="stroke:rgb(255,181,90);stroke-width:1" /><circle cx="292.11377" cy="231.95999" r="2" style="fill:rgb(255,181,90);stroke:none;fill-opacity:1;stroke-opacity:1;" /><path d="M 292.11377 231.95999 L 255.7725 235.08" style="stroke:rgb(255,181,90);stroke-width:1" /><circle cx="255.7725" cy="235.08" r="2" style="fill:rgb(255,181,90);stroke:none;fill-opacity:1;stroke-opacity:1;" /><path d="M 255.7725 235.08 L 142.88626 243.9225" style="stroke:rgb(255,181,90);stroke-width:1" /><circle cx="142.88626" cy="243.9225" r="2" style="fill:rgb(255,181,90);stroke:none;fill-opacity:1;stroke-opacity:1;" /><path d="M 142.88626 243.9225 L 30 251.11" style="stroke:rgb(255,181,90);stroke-width:1" /><circle cx="30" cy="251.11" r="2" style="fill:rgb(255,181,90);stroke:none;fill-opacity:1;stroke-opacity:1;" /><circle cx="780" cy="41.570007" r="2" style="fill:rgb(139,211,199);stroke:none;fill-opacity:1;stroke-opacity:1;" /><path d="M 780 41.570007 L 630.77246 119.057495" style="stroke:rgb(139,211,199);stroke-width:1" /><circle cx="630.77246" cy="119.057495" r="2" style="fill:rgb(139,211,199);stroke:none;fill-opacity:1;stroke-opacity:1;" /><path d="M 630.77246 119.057495 L 517.8862 158.29001" style="stroke:rgb(139,211,199);stroke-width:1" /><circle cx="517.8862" cy="158.29001" r="2" style="fill:rgb(139,211,199);stroke:none;fill-opacity:1;stroke-opacity:1;" /><path d="M 517.8862 158.29001 L 451.85202 175.5875" style="stroke:rgb(139,211,199);stroke-width:1" /><circle cx="451.85202" cy="175.5875" r="2" style="fill:rgb(139,211,199);stroke:none;fill-opacity:1;stroke-opacity:1;" /><path d="M 451.85202 175.5875 L 405 185.7" style="stroke:rgb(139,211,199);stroke-width:1" /><circle cx="405" cy="185.7" r="2" style="fill:rgb(139,211,199);stroke:none;fill-opacity:1;stroke-opacity:1;" /><path d="M 405 185.7 L 338.96576 197.88" style="stroke:rgb(139,211,199);stroke-width:1" /><circle cx="338.96576" cy="197.88" r="2" style="fill:rgb(139,211,199);stroke:none;fill-opacity:1;stroke-opacity:1;" /><path d="M 338.96576 197.88 L 292.11377 204.925" style="stroke:rgb(139,211,199);stroke-width:1" /><circle cx="292.11377" cy="204.925" r="2" style="fill:rgb(139,211,199);stroke:none;fill-opacity:1;stroke-opacity:1;" /><path d="M 292.11377 204.925 L 255.7725 209.6975" style="stroke:rgb(139,211,199);stroke-width:1" /><circle cx="255.7725" cy="209.6975" r="2" style="fill:rgb(139,211,199);stroke:none;fill-opacity:1;stroke-opacity:1;" /><path d="M 255.7725 209.6975 L 142.88626 222.005" style="stroke:rgb(139,211,199);stroke-width:1" /><circle cx="142.88626" cy="222.005" r="2" style="fill:rgb(139,211,199);stroke:none;fill-opacity:1;stroke-opacity:1;" /><path d="M 142.88626 222.005 L 30 229.4875" style="stroke:rgb(139,211,199);stroke-width:1" /><circle cx="30" cy="229.4875" r="2" style="fill:rgb(139,211,199);stroke:none;fill-opacity:1;stroke-opacity:1;" /><circle cx="780" cy="144.4175" r="2" style="fill:rgb(253,204,229);stroke:none;fill-opacity:1;stroke-opacity:1;" /><path d="M 780 144.4175 L 630.77246 185.12" style="stroke:rgb(253,204,229);stroke-width:1" /><circle cx="630.77246" cy="185.12" r="2" style="fill:rgb(253,204,229);stroke:none;fill-opacity:1;stroke-opacity:1;" /><path d="M 630.77246 185.12 L 517.8862 205.465" style="stroke:rgb(253,204,229);stroke-width:1" /><circle cx="517.8862" cy="205.465" r="2" style="fill:rgb(253,204,229);stroke:none;fill-opacity:1;stroke-opacity:1;" /><path d="M 517.8862 205.465 L 451.85202 214.7025" style="stroke:rgb(253,204,229);stroke-width:1" /><circle cx="451.85202" cy="214.7025" r="2" style="fill:rgb(253,204,229);stroke:none;fill-opacity:1;stroke-opacity:1;" /><path d="M 451.85202 214.7025 L 405 220.865" style="stroke:rgb(253,204,229);stroke-width:1" /><circle cx="405" cy="220.865" r="2" style="fill:rgb(253,204,229);stroke:none;fill-opacity:1;stroke-opacity:1;" /><path d="M 405 220.865 L 338.96576 227.98" style="stroke:rgb(253,204,229);stroke-width:1" /><circle cx="338.96576" cy="227.98" r="2" style="fill:rgb(253,204,229);stroke:none;fill-opacity:1;stroke-opacity:1;" /><path d="M 338.96576 227.98 L 292.11377 232.3175" style="stroke:rgb(253,204,229);stroke-width:1" /><circle cx="292.11377" cy="232.3175" r="2" style="fill:rgb(253,204,229);stroke:none;fill-opacity:1;stroke-opacity:1;" /><path d="M 292.11377 232.3175 L 255.7725 235.3" style="stroke:rgb(253,204,229);stroke-width:1" /><circle cx="255.7725" cy="235.3" r="2" style="fill:rgb(253,204,229);stroke:none;fill-opacity:1;stroke-opacity:1;" /><path d="M 255.7725 235.3 L 142.88626 243.955" style="stroke:rgb(253,204,229);stroke-width:1" /><circle cx="142.88626" cy="243.955" r="2" style="fill:rgb(253,204,229);stroke:none;fill-opacity:1;stroke-opacity:1;" /><path d="M 142.88626 243.955 L 30 251.125" style="stroke:rgb(253,204,229);stroke-width:1" /><circle cx="30" cy="251.125" r="2" style="fill:rgb(253,204,229);stroke:none;fill-opacity:1;stroke-opacity:1;" /><circle cx="780" cy="144.2825" r="2" style="fill:rgb(253,127,111);stroke:none;fill-opacity:1;stroke-opacity:1;" /><path d="M 780 144.2825 L 630.77246 185.445" style="stroke:rgb(253,127,111);stroke-width:1" /><circle cx="630.77246" cy="185.445" r="2" style="fill:rgb(253,127,111);stroke:none;fill-opacity:1;stroke-opacity:1;" /><path d="M 630.77246 185.445 L 517.8862 206.595" style="stroke:rgb(253,127,111);stroke-width:1" /><circle cx="517.8862" cy="206.595" r="2" style="fill:rgb(253,127,111);stroke:none;fill-opacity:1;stroke-opacity:1;" /><path d="M 517.8862 206.595 L 451.85202 215.6625" style="stroke:rgb(253,127,111);stroke-width:1" /><circle cx="451.85202" cy="215.6625" r="2" style="fill:rgb(253,127,111);stroke:none;fill-opacity:1;stroke-opacity:1;" /><path d="M 451.85202 215.6625 L 405 221.055" style="stroke:rgb(253,127,111);stroke-width:1" /><circle cx="405" cy="221.055" r="2" style="fill:rgb(253,127,111);stroke:none;fill-opacity:1;stroke-opacity:1;" /><path d="M 405 221.055 L 338.96576 228.0525" style="stroke:rgb(253,127,111);stroke-width:1" /><circle cx="338.96576" cy="228.0525" r="2" style="fill:rgb(253,127,111);stroke:none;fill-opacity:1;stroke-opacity:1;" /><path d="M 338.96576 228.0525 L 292.11377 231.6875" style="stroke:rgb(253,127,111);stroke-width:1" /><circle cx="292.11377" cy="231.6875" r="2" style="fill:rgb(253,127,111);stroke:none;fill-opacity:1;stroke-opacity:1;" /><path d="M 292.11377 231.6875 L 255.7725 234.07" style="stroke:rgb(253,127,111);stroke-width:1" /><circle cx="255.7725" cy="234.07" r="2" style="fill:rgb(253,127,111);stroke:none;fill-opacity:1;stroke-opacity:1;" /><path d="M 255.7725 234.07 L 142.88626 239.75" style="stroke:rgb(253,127,111);stroke-width:1" /><circle cx="142.88626" cy="239.75" r="2" style="fill:rgb(253,127,111);stroke:none;fill-opacity:1;stroke-opacity:1;" /><path d="M 142.88626 239.75 L 30 242.855" style="stroke:rgb(253,127,111);stroke-width:1" /><circle cx="30" cy="242.855" r="2" style="fill:rgb(253,127,111);stroke:none;fill-opacity:1;stroke-opacity:1;" /><circle cx="780" cy="72.7475" r="2" style="fill:rgb(178,224,97);stroke:none;fill-opacity:1;stroke-opacity:1;" /><path d="M 780 72.7475 L 630.77246 140.625" style="stroke:rgb(178,224,97);stroke-width:1" /><circle cx="630.77246" cy="140.625" r="2" style="fill:rgb(178,224,97);stroke:none;fill-opacity:1;stroke-opacity:1;" /><path d="M 630.77246 140.625 L 517.8862 174.85" style="stroke:rgb(178,224,97);stroke-width:1" /><circle cx="517.8862" cy="174.85" r="2" style="fill:rgb(178,224,97);stroke:none;fill-opacity:1;stroke-opacity:1;" /><path d="M 517.8862 174.85 L 451.85202 189.8725" style="stroke:rgb(178,224,97);stroke-width:1" /><circle cx="451.85202" cy="189.8725" r="2" style="fill:rgb(178,224,97);stroke:none;fill-opacity:1;stroke-opacity:1;" /><path d="M 451.85202 189.8725 L 405 198.8125" style="stroke:rgb(178,224,97);stroke-width:1" /><circle cx="405" cy="198.8125" r="2" style="fill:rgb(178,224,97);stroke:none;fill-opacity:1;stroke-opacity:1;" /><path d="M 405 198.8125 L 338.96576 209.72" style="stroke:rgb(178,224,97);stroke-width:1" /><circle cx="338.96576" cy="209.72" r="2" style="fill:rgb(178,224,97);stroke:none;fill-opacity:1;stroke-opacity:1;" /><path d="M 338.96576 209.72 L 292.11377 216.14749" style="stroke:rgb(178,224,97);stroke-width:1" /><circle cx="292.11377" cy="216.14749" r="2" style="fill:rgb(178,224,97);stroke:none;fill-opacity:1;stroke-opacity:1;" /><path d="M 292.11377 216.14749 L 255.7725 220.3725" style="stroke:rgb(178,224,97);stroke-width:1" /><circle cx="255.7725" cy="220.3725" r="2" style="fill:rgb(178,224,97);stroke:none;fill-opacity:1;stroke-opacity:1;" /><path d="M 255.7725 220.3725 L 142.88626 230.825" style="stroke:rgb(178,224,97);stroke-width:1" /><circle cx="142.88626" cy="230.825" r="2" style="fill:rgb(178,224,97);stroke:none;fill-opacity:1;stroke-opacity:1;" /><path d="M 142.88626 230.825 L 30 237.965" style="stroke:rgb(178,224,97);stroke-width:1" /><circle cx="30" cy="237.965" r="2" style="fill:rgb(178,224,97);stroke:none;fill-opacity:1;stroke-opacity:1;" /><circle cx="780" cy="62.505005" r="2" style="fill:rgb(190,185,219);stroke:none;fill-opacity:1;stroke-opacity:1;" /><path d="M 780 62.505005 L 630.77246 134.23" style="stroke:rgb(190,185,219);stroke-width:1" /><circle cx="630.77246" cy="134.23" r="2" style="fill:rgb(190,185,219);stroke:none;fill-opacity:1;stroke-opacity:1;" /><path d="M 630.77246 134.23 L 517.8862 171.555" style="stroke:rgb(190,185,219);stroke-width:1" /><circle cx="517.8862" cy="171.555" r="2" style="fill:rgb(190,185,219);stroke:none;fill-opacity:1;stroke-opacity:1;" /><path d="M 517.8862 171.555 L 451.85202 187.485" style="stroke:rgb(190,185,219);stroke-width:1" /><circle cx="451.85202" cy="187.485" r="2" style="fill:rgb(190,185,219);stroke:none;fill-opacity:1;stroke-opacity:1;" /><path d="M 451.85202 187.485 L 405 197.26999" style="stroke:rgb(190,185,219);stroke-width:1" /><circle cx="405" cy="197.26999" r="2" style="fill:rgb(190,185,219);stroke:none;fill-opacity:1;stroke-opacity:1;" /><path d="M 405 197.26999 L 338.96576 209.1575" style="stroke:rgb(190,185,219);stroke-width:1" /><circle cx="338.96576" cy="209.1575" r="2" style="fill:rgb(190,185,219);stroke:none;fill-opacity:1;stroke-opacity:1;" /><path d="M 338.96576 209.1575 L 292.11377 215.725" style="stroke:rgb(190,185,219);stroke-width:1" /><circle cx="292.11377" cy="215.725" r="2" style="fill:rgb(190,185,219);stroke:none;fill-opacity:1;stroke-opacity:1;" /><path d="M 292.11377 215.725 L 255.7725 220.0525" style="stroke:rgb(190,185,219);stroke-width:1" /><circle cx="255.7725" cy="220.0525" r="2" style="fill:rgb(190,185,219);stroke:none;fill-opacity:1;stroke-opacity:1;" /><path d="M 255.7725 220.0525 L 142.88626 231.02249" style="stroke:rgb(190,185,219);stroke-width:1" /><circle cx="142.88626" cy="231.02249" r="2" style="fill:rgb(190,185,219);stroke:none;fill-opacity:1;stroke-opacity:1;" /><path d="M 142.88626 231.02249 L 30 238.095" style="stroke:rgb(190,185,219);stroke-width:1" /><circle cx="30" cy="238.095" r="2" style="fill:rgb(190,185,219);stroke:none;fill-opacity:1;stroke-opacity:1;" /><circle cx="780" cy="144.2975" r="2" style="fill:rgb(126,176,213);stroke:none;fill-opacity:1;stroke-opacity:1;" /><path d="M 780 144.2975 L 630.77246 185.47" style="stroke:rgb(126,176,213);stroke-width:1" /><circle cx="630.77246" cy="185.47" r="2" style="fill:rgb(126,176,213);stroke:none;fill-opacity:1;stroke-opacity:1;" /><path d="M 630.77246 185.47 L 517.8862 206.6075" style="stroke:rgb(126,176,213);stroke-width:1" /><circle cx="517.8862" cy="206.6075" r="2" style="fill:rgb(126,176,213);stroke:none;fill-opacity:1;stroke-opacity:1;" /><path d="M 517.8862 206.6075 L 451.85202 215.6625" style="stroke:rgb(126,176,213);stroke-width:1" /><circle cx="451.85202" cy="215.6625" r="2" style="fill:rgb(126,176,213);stroke:none;fill-opacity:1;stroke-opacity:1;" /><path d="M 451.85202 215.6625 L 405 221.06" style="stroke:rgb(126,176,213);stroke-width:1" /><circle cx="405" cy="221.06" r="2" style="fill:rgb(126,176,213);stroke:none;fill-opacity:1;stroke-opacity:1;" /><path d="M 405 221.06 L 338.96576 228.0575" style="stroke:rgb(126,176,213);stroke-width:1" /><circle cx="338.96576" cy="228.0575" r="2" style="fill:rgb(126,176,213);stroke:none;fill-opacity:1;stroke-opacity:1;" /><path d="M 338.96576 228.0575 L 292.11377 231.695" style="stroke:rgb(126,176,213);stroke-width:1" /><circle cx="292.11377" cy="231.695" r="2" style="fill:rgb(126,176,213);stroke:none;fill-opacity:1;stroke-opacity:1;" /><path d="M 292.11377 231.695 L 255.7725 234.0725" style="stroke:rgb(126,176,213);stroke-width:1" /><circle cx="255.7725" cy="234.0725" r="2" style="fill:rgb(126,176,213);stroke:none;fill-opacity:1;stroke-opacity:1;" /><path d="M 255.7725 234.0725 L 142.88626 239.7525" style="stroke:rgb(126,176,213);stroke-width:1" /><circle cx="142.88626" cy="239.7525" r="2" style="fill:rgb(126,176,213);stroke:none;fill-opacity:1;stroke-opacity:1;" /><path d="M 142.88626 239.7525 L 30 242.8575" style="stroke:rgb(126,176,213);stroke-width:1" /><circle cx="30" cy="242.8575" r="2" style="fill:rgb(126,176,213);stroke:none;fill-opacity:1;stroke-opacity:1;" /><circle cx="780" cy="113.485" r="2" style="fill:rgb(255,238,101);stroke:none;fill-opacity:1;stroke-opacity:1;" /><path d="M 780 113.485 L 630.77246 168.765" style="stroke:rgb(255,238,101);stroke-width:1" /><circle cx="630.77246" cy="168.765" r="2" style="fill:rgb(255,238,101);stroke:none;fill-opacity:1;stroke-opacity:1;" /><path d="M 630.77246 168.765 L 517.8862 197.215" style="stroke:rgb(255,238,101);stroke-width:1" /><circle cx="517.8862" cy="197.215" r="2" style="fill:rgb(255,238,101);stroke:none;fill-opacity:1;stroke-opacity:1;" /><path d="M 517.8862 197.215 L 451.85202 209.2325" style="stroke:rgb(255,238,101);stroke-width:1" /><circle cx="451.85202" cy="209.2325" r="2" style="fill:rgb(255,238,101);stroke:none;fill-opacity:1;stroke-opacity:1;" /><path d="M 451.85202 209.2325 L 405 217.19" style="stroke:rgb(255,238,101);stroke-width:1" /><circle cx="405" cy="217.19" r="2" style="fill:rgb(255,238,101);stroke:none;fill-opacity:1;stroke-opacity:1;" /><path d="M 405 217.19 L 338.96576 225.8575" style="stroke:rgb(255,238,101);stroke-width:1" /><circle cx="338.96576" cy="225.8575" r="2" style="fill:rgb(255,238,101);stroke:none;fill-opacity:1;stroke-opacity:1;" /><path d="M 338.96576 225.8575 L 292.11377 230.985" style="stroke:rgb(255,238,101);stroke-width:1" /><circle cx="292.11377" cy="230.985" r="2" style="fill:rgb(255,238,101);stroke:none;fill-opacity:1;stroke-opacity:1;" /><path d="M 292.11377 230.985 L 255.7725 234.225" style="stroke:rgb(255,238,101);stroke-width:1" /><circle cx="255.7725" cy="234.225" r="2" style="fill:rgb(255,238,101);stroke:none;fill-opacity:1;stroke-opacity:1;" /><path d="M 255.7725 234.225 L 142.88626 243.715" style="stroke:rgb(255,238,101);stroke-width:1" /><circle cx="142.88626" cy="243.715" r="2" style="fill:rgb(255,238,101);stroke:none;fill-opacity:1;stroke-opacity:1;" /><path d="M 142.88626 243.715 L 30 251.065" style="stroke:rgb(255,238,101);stroke-width:1" /><circle cx="30" cy="251.065" r="2" style="fill:rgb(255,238,101);stroke:none;fill-opacity:1;stroke-opacity:1;" /><rect x="676" y="16" width="80" height="175" ry="4" style="fill:rgb(30,30,30);stroke:none;fill-opacity:0.8;stroke-opacity:1;" /><rect x="680" y="20" width="20" height="20" ry="2" style="fill:rgb(139,211,199);stroke:none;fill-opacity:1;stroke-opacity:1;" /><text x="705" y="33" style="font-size:10px;fill:rgb(255,255,255);text-anchor:start;text-align:left;"> hain </text><rect x="680" y="41" width="20" height="20" ry="2" style="fill:rgb(190,185,219);stroke:none;fill-opacity:1;stroke-opacity:1;" /><text x="705" y="54" style="font-size:10px;fill:rgb(255,255,255);text-anchor:start;text-align:left;"> hfd </text><rect x="680" y="62" width="20" height="20" ry="2" style="fill:rgb(253,127,111);stroke:none;fill-opacity:1;stroke-opacity:1;" /><text x="705" y="75" style="font-size:10px;fill:rgb(255,255,255);text-anchor:start;text-align:left;"> levien </text><rect x="680" y="83" width="20" height="20" ry="2" style="fill:rgb(253,204,229);stroke:none;fill-opacity:1;stroke-opacity:1;" /><text x="705" y="96" style="font-size:10px;fill:rgb(255,255,255);text-anchor:start;text-align:left;"> levien-linear </text><rect x="680" y="104" width="20" height="20" ry="2" style="fill:rgb(126,176,213);stroke:none;fill-opacity:1;stroke-opacity:1;" /><text x="705" y="117" style="font-size:10px;fill:rgb(255,255,255);text-anchor:start;text-align:left;"> levien-simd </text><rect x="680" y="125" width="20" height="20" ry="2" style="fill:rgb(255,181,90);stroke:none;fill-opacity:1;stroke-opacity:1;" /><text x="705" y="138" style="font-size:10px;fill:rgb(255,255,255);text-anchor:start;text-align:left;"> linear </text><rect x="680" y="146" width="20" height="20" ry="2" style="fill:rgb(255,238,101);stroke:none;fill-opacity:1;stroke-opacity:1;" /><text x="705" y="159" style="font-size:10px;fill:rgb(255,255,255);text-anchor:start;text-align:left;"> recursive </text><rect x="680" y="167" width="20" height="20" ry="2" style="fill:rgb(178,224,97);stroke:none;fill-opacity:1;stroke-opacity:1;" /><text x="705" y="180" style="font-size:10px;fill:rgb(255,255,255);text-anchor:start;text-align:left;"> wang </text><text x="400" y="30" style="font-size:20px;fill:rgb(255,255,255);text-anchor:middle;text-align:center;"> Inkscape </text><text x="400" y="42" style="font-size:8px;fill:rgb(200,200,200);text-anchor:middle;text-align:center;"> Normalized edge count score (lower is better) </text></svg>