<svg xmlns="http://www.w3.org/2000/svg" viewBox="0 0 800 300"><rect x="0" y="0" width="800" height="300" ry="6" style="fill:rgb(30,30,30);stroke:none;fill-opacity:1;stroke-opacity:1;" /><path d="M 30 20 L 30 270" style="stroke:rgb(200,200,200);stroke-width:1" /><path d="M 30 270 L 780 270" style="stroke:rgb(200,200,200);stroke-width:1" /><path d="M 780 270 L 780 272" style="stroke:rgb(200,200,200);stroke-width:1" /><text x="780" y="282" style="font-size:10px;fill:rgb(200,200,200);text-anchor:middle;text-align:center;"> 0.01 </text><path d="M 630.77246 270 L 630.77246 272" style="stroke:rgb(200,200,200);stroke-width:1" /><text x="630.77246" y="282" style="font-size:10px;fill:rgb(200,200,200);text-anchor:middle;text-align:center;"> 0.025 </text><path d="M 517.8862 270 L 517.8862 272" style="stroke:rgb(200,200,200);stroke-width:1" /><text x="517.8862" y="282" style="font-size:10px;fill:rgb(200,200,200);text-anchor:middle;text-align:center;"> 0.05 </text><path d="M 451.85202 270 L 451.85202 272" style="stroke:rgb(200,200,200);stroke-width:1" /><text x="451.85202" y="282" style="font-size:10px;fill:rgb(200,200,200);text-anchor:middle;text-align:center;"> 0.075 </text><path d="M 405 270 L 405 272" style="stroke:rgb(200,200,200);stroke-width:1" /><text x="405" y="282" style="font-size:10px;fill:rgb(200,200,200);text-anchor:middle;text-align:center;"> 0.1 </text><path d="M 338.96576 270 L 338.96576 272" style="stroke:rgb(200,200,200);stroke-width:1" /><text x="338.96576" y="282" style="font-size:10px;fill:rgb(200,200,200);text-anchor:middle;text-align:center;"> 0.15 </text><path d="M 292.11377 270 L 292.11377 272" style="stroke:rgb(200,200,200);stroke-width:1" /><text x="292.11377" y="282" style="font-size:10px;fill:rgb(200,200,200);text-anchor:middle;text-align:center;"> 0.2 </text><path d="M 255.7725 270 L 255.7725 272" style="stroke:rgb(200,200,200);stroke-width:1" /><text x="255.7725" y="282" style="font-size:10px;fill:rgb(200,200,200);text-anchor:middle;text-align:center;"> 0.25 </text><path d="M 142.88626 270 L 142.88626 272" style="stroke:rgb(200,200,200);stroke-width:1" /><text x="142.88626" y="282" style="font-size:10px;fill:rgb(200,200,200);text-anchor:middle;text-align:center;"> 0.5 </text><path d="M 30 270 L 30 272" style="stroke:rgb(200,200,200);stroke-width:1" /><text x="30" y="282" style="font-size:10px;fill:rgb(200,200,200);text-anchor:middle;text-align:center;"> 1 </text><path d="M 28 270 L 30 270" style="stroke:rgb(200,200,200);stroke-width:1" /><text x="26" y="274" style="font-size:10px;fill:rgb(200,200,200);text-anchor:end;text-align:right;"> 0 </text><path d="M 28 207.5 L 30 207.5" style="stroke:rgb(200,200,200);stroke-width:1" /><text x="26" y="211.5" style="font-size:10px;fill:rgb(200,200,200);text-anchor:end;text-align:right;"> 0.25 </text><path d="M 28 145 L 30 145" style="stroke:rgb(200,200,200);stroke-width:1" /><text x="26" y="149" style="font-size:10px;fill:rgb(200,200,200);text-anchor:end;text-align:right;"> 0.5 </text><path d="M 28 82.5 L 30 82.5" style="stroke:rgb(200,200,200);stroke-width:1" /><text x="26" y="86.5" style="font-size:10px;fill:rgb(200,200,200);text-anchor:end;text-align:right;"> 0.75 </text><path d="M 28 20 L 30 20" style="stroke:rgb(200,200,200);stroke-width:1" /><text x="26" y="24" style="font-size:10px;fill:rgb(200,200,200);text-anchor:end;text-align:right;"> 1 </text><text x="400" y="294" style="font-size:10px;fill:rgb(200,200,200);text-anchor:middle;text-align:center;"> Tolerance </text><circle cx="780" cy="136.5275" r="2" style="fill:rgb(255,181,90);stroke:none;fill-opacity:1;stroke-opacity:1;" /><path d="M 780 136.5275 L 630.77246 185.9975" style="stroke:rgb(255,181,90);stroke-width:1" /><circle cx="630.77246" cy="185.9975" r="2" style="fill:rgb(255,181,90);stroke:none;fill-opacity:1;stroke-opacity:1;" /><path d="M 630.77246 185.9975 L 517.8862 209.72751" style="stroke:rgb(255,181,90);stroke-width:1" /><circle cx="517.8862" cy="209.72751" r="2" style="fill:rgb(255,181,90);stroke:none;fill-opacity:1;stroke-opacity:1;" /><path d="M 517.8862 209.72751 L 451.85202 220.9975" style="stroke:rgb(255,181,90);stroke-width:1" /><circle cx="451.85202" cy="220.9975" r="2" style="fill:rgb(255,181,90);stroke:none;fill-opacity:1;stroke-opacity:1;" /><path d="M 451.85202 220.9975 L 405 227.4425" style="stroke:rgb(255,181,90);stroke-width:1" /><circle cx="405" cy="227.4425" r="2" style="fill:rgb(255,181,90);stroke:none;fill-opacity:1;stroke-opacity:1;" /><path d="M 405 227.4425 L 338.96576 234.805" style="stroke:rgb(255,181,90);stroke-width:1" /><circle cx="338.96576" cy="234.805" r="2" style="fill:rgb(255,181,90);stroke:none;fill-opacity:1;stroke-opacity:1;" /><path d="M 338.96576 234.805 L 292.11377 239.41501" style="stroke:rgb(255,181,90);stroke-width:1" /><circle cx="292.11377" cy="239.41501" r="2" style="fill:rgb(255,181,90);stroke:none;fill-opacity:1;stroke-opacity:1;" /><path d="M 292.11377 239.41501 L 255.7725 242.38" style="stroke:rgb(255,181,90);stroke-width:1" /><circle cx="255.7725" cy="242.38" r="2" style="fill:rgb(255,181,90);stroke:none;fill-opacity:1;stroke-opacity:1;" /><path d="M 255.7725 242.38 L 142.88626 250.13" style="stroke:rgb(255,181,90);stroke-width:1" /><circle cx="142.88626" cy="250.13" r="2" style="fill:rgb(255,181,90);stroke:none;fill-opacity:1;stroke-opacity:1;" /><path d="M 142.88626 250.13 L 30 255.44" style="stroke:rgb(255,181,90);stroke-width:1" /><circle cx="30" cy="255.44" r="2" style="fill:rgb(255,181,90);stroke:none;fill-opacity:1;stroke-opacity:1;" /><circle cx="780" cy="81.707504" r="2" style="fill:rgb(139,211,199);stroke:none;fill-opacity:1;stroke-opacity:1;" /><path d="M 780 81.707504 L 630.77246 149.1125" style="stroke:rgb(139,211,199);stroke-width:1" /><circle cx="630.77246" cy="149.1125" r="2" style="fill:rgb(139,211,199);stroke:none;fill-opacity:1;stroke-opacity:1;" /><path d="M 630.77246 149.1125 L 517.8862 183.1625" style="stroke:rgb(139,211,199);stroke-width:1" /><circle cx="517.8862" cy="183.1625" r="2" style="fill:rgb(139,211,199);stroke:none;fill-opacity:1;stroke-opacity:1;" /><path d="M 517.8862 183.1625 L 451.85202 198.1875" style="stroke:rgb(139,211,199);stroke-width:1" /><circle cx="451.85202" cy="198.1875" r="2" style="fill:rgb(139,211,199);stroke:none;fill-opacity:1;stroke-opacity:1;" /><path d="M 451.85202 198.1875 L 405 207.04001" style="stroke:rgb(139,211,199);stroke-width:1" /><circle cx="405" cy="207.04001" r="2" style="fill:rgb(139,211,199);stroke:none;fill-opacity:1;stroke-opacity:1;" /><path d="M 405 207.04001 L 338.96576 217.5775" style="stroke:rgb(139,211,199);stroke-width:1" /><circle cx="338.96576" cy="217.5775" r="2" style="fill:rgb(139,211,199);stroke:none;fill-opacity:1;stroke-opacity:1;" /><path d="M 338.96576 217.5775 L 292.11377 223.9075" style="stroke:rgb(139,211,199);stroke-width:1" /><circle cx="292.11377" cy="223.9075" r="2" style="fill:rgb(139,211,199);stroke:none;fill-opacity:1;stroke-opacity:1;" /><path d="M 292.11377 223.9075 L 255.7725 228.20999" style="stroke:rgb(139,211,199);stroke-width:1" /><circle cx="255.7725" cy="228.20999" r="2" style="fill:rgb(139,211,199);stroke:none;fill-opacity:1;stroke-opacity:1;" /><path d="M 255.7725 228.20999 L 142.88626 238.9075" style="stroke:rgb(139,211,199);stroke-width:1" /><circle cx="142.88626" cy="238.9075" r="2" style="fill:rgb(139,211,199);stroke:none;fill-opacity:1;stroke-opacity:1;" /><path d="M 142.88626 238.9075 L 30 246.395" style="stroke:rgb(139,211,199);stroke-width:1" /><circle cx="30" cy="246.395" r="2" style="fill:rgb(139,211,199);stroke:none;fill-opacity:1;stroke-opacity:1;" /><circle cx="780" cy="47.354996" r="2" style="fill:rgb(178,224,97);stroke:none;fill-opacity:1;stroke-opacity:1;" /><path d="M 780 47.354996 L 630.77246 127.975006" style="stroke:rgb(178,224,97);stroke-width:1" /><circle cx="630.77246" cy="127.975006" r="2" style="fill:rgb(178,224,97);stroke:none;fill-opacity:1;stroke-opacity:1;" /><path d="M 630.77246 127.975006 L 517.8862 168.45" style="stroke:rgb(178,224,97);stroke-width:1" /><circle cx="517.8862" cy="168.45" r="2" style="fill:rgb(178,224,97);stroke:none;fill-opacity:1;stroke-opacity:1;" /><path d="M 517.8862 168.45 L 451.85202 186.5025" style="stroke:rgb(178,224,97);stroke-width:1" /><circle cx="451.85202" cy="186.5025" r="2" style="fill:rgb(178,224,97);stroke:none;fill-opacity:1;stroke-opacity:1;" /><path d="M 451.85202 186.5025 L 405 197.3175" style="stroke:rgb(178,224,97);stroke-width:1" /><circle cx="405" cy="197.3175" r="2" style="fill:rgb(178,224,97);stroke:none;fill-opacity:1;stroke-opacity:1;" /><path d="M 405 197.3175 L 338.96576 209.9025" style="stroke:rgb(178,224,97);stroke-width:1" /><circle cx="338.96576" cy="209.9025" r="2" style="fill:rgb(178,224,97);stroke:none;fill-opacity:1;stroke-opacity:1;" /><path d="M 338.96576 209.9025 L 292.11377 217.545" style="stroke:rgb(178,224,97);stroke-width:1" /><circle cx="292.11377" cy="217.545" r="2" style="fill:rgb(178,224,97);stroke:none;fill-opacity:1;stroke-opacity:1;" /><path d="M 292.11377 217.545 L 255.7725 222.5925" style="stroke:rgb(178,224,97);stroke-width:1" /><circle cx="255.7725" cy="222.5925" r="2" style="fill:rgb(178,224,97);stroke:none;fill-opacity:1;stroke-opacity:1;" /><path d="M 255.7725 222.5925 L 142.88626 235.6425" style="stroke:rgb(178,224,97);stroke-width:1" /><circle cx="142.88626" cy="235.6425" r="2" style="fill:rgb(178,224,97);stroke:none;fill-opacity:1;stroke-opacity:1;" /><path d="M 142.88626 235.6425 L 30 244.7175" style="stroke:rgb(178,224,97);stroke-width:1" /><circle cx="30" cy="244.7175" r="2" style="fill:rgb(178,224,97);stroke:none;fill-opacity:1;stroke-opacity:1;" /><circle cx="780" cy="167.08" r="2" style="fill:rgb(126,176,213);stroke:none;fill-opacity:1;stroke-opacity:1;" /><path d="M 780 167.08 L 630.77246 203.905" style="stroke:rgb(126,176,213);stroke-width:1" /><circle cx="630.77246" cy="203.905" r="2" style="fill:rgb(126,176,213);stroke:none;fill-opacity:1;stroke-opacity:1;" /><path d="M 630.77246 203.905 L 517.8862 222.2925" style="stroke:rgb(126,176,213);stroke-width:1" /><circle cx="517.8862" cy="222.2925" r="2" style="fill:rgb(126,176,213);stroke:none;fill-opacity:1;stroke-opacity:1;" /><path d="M 517.8862 222.2925 L 451.85202 230.22751" style="stroke:rgb(126,176,213);stroke-width:1" /><circle cx="451.85202" cy="230.22751" r="2" style="fill:rgb(126,176,213);stroke:none;fill-opacity:1;stroke-opacity:1;" /><path d="M 451.85202 230.22751 L 405 235.255" style="stroke:rgb(126,176,213);stroke-width:1" /><circle cx="405" cy="235.255" r="2" style="fill:rgb(126,176,213);stroke:none;fill-opacity:1;stroke-opacity:1;" /><path d="M 405 235.255 L 338.96576 240.795" style="stroke:rgb(126,176,213);stroke-width:1" /><circle cx="338.96576" cy="240.795" r="2" style="fill:rgb(126,176,213);stroke:none;fill-opacity:1;stroke-opacity:1;" /><path d="M 338.96576 240.795 L 292.11377 244.4075" style="stroke:rgb(126,176,213);stroke-width:1" /><circle cx="292.11377" cy="244.4075" r="2" style="fill:rgb(126,176,213);stroke:none;fill-opacity:1;stroke-opacity:1;" /><path d="M 292.11377 244.4075 L 255.7725 246.76" style="stroke:rgb(126,176,213);stroke-width:1" /><circle cx="255.7725" cy="246.76" r="2" style="fill:rgb(126,176,213);stroke:none;fill-opacity:1;stroke-opacity:1;" /><path d="M 255.7725 246.76 L 142.88626 252.5325" style="stroke:rgb(126,176,213);stroke-width:1" /><circle cx="142.88626" cy="252.5325" r="2" style="fill:rgb(126,176,213);stroke:none;fill-opacity:1;stroke-opacity:1;" /><path d="M 142.88626 252.5325 L 30 256.505" style="stroke:rgb(126,176,213);stroke-width:1" /><circle cx="30" cy="256.505" r="2" style="fill:rgb(126,176,213);stroke:none;fill-opacity:1;stroke-opacity:1;" /><circle cx="780" cy="133.73" r="2" style="fill:rgb(255,238,101);stroke:none;fill-opacity:1;stroke-opacity:1;" /><path d="M 780 133.73 L 630.77246 183.8775" style="stroke:rgb(255,238,101);stroke-width:1" /><circle cx="630.77246" cy="183.8775" r="2" style="fill:rgb(255,238,101);stroke:none;fill-opacity:1;stroke-opacity:1;" /><path d="M 630.77246 183.8775 L 517.8862 207.4925" style="stroke:rgb(255,238,101);stroke-width:1" /><circle cx="517.8862" cy="207.4925" r="2" style="fill:rgb(255,238,101);stroke:none;fill-opacity:1;stroke-opacity:1;" /><path d="M 517.8862 207.4925 L 451.85202 219.09" style="stroke:rgb(255,238,101);stroke-width:1" /><circle cx="451.85202" cy="219.09" r="2" style="fill:rgb(255,238,101);stroke:none;fill-opacity:1;stroke-opacity:1;" /><path d="M 451.85202 219.09 L 405 226.17" style="stroke:rgb(255,238,101);stroke-width:1" /><circle cx="405" cy="226.17" r="2" style="fill:rgb(255,238,101);stroke:none;fill-opacity:1;stroke-opacity:1;" /><path d="M 405 226.17 L 338.96576 233.73" style="stroke:rgb(255,238,101);stroke-width:1" /><circle cx="338.96576" cy="233.73" r="2" style="fill:rgb(255,238,101);stroke:none;fill-opacity:1;stroke-opacity:1;" /><path d="M 338.96576 233.73 L 292.11377 238.01" style="stroke:rgb(255,238,101);stroke-width:1" /><circle cx="292.11377" cy="238.01" r="2" style="fill:rgb(255,238,101);stroke:none;fill-opacity:1;stroke-opacity:1;" /><path d="M 292.11377 238.01 L 255.7725 241.4" style="stroke:rgb(255,238,101);stroke-width:1" /><circle cx="255.7725" cy="241.4" r="2" style="fill:rgb(255,238,101);stroke:none;fill-opacity:1;stroke-opacity:1;" /><path d="M 255.7725 241.4 L 142.88626 249.3925" style="stroke:rgb(255,238,101);stroke-width:1" /><circle cx="142.88626" cy="249.3925" r="2" style="fill:rgb(255,238,101);stroke:none;fill-opacity:1;stroke-opacity:1;" /><path d="M 142.88626 249.3925 L 30 255.1575" style="stroke:rgb(255,238,101);stroke-width:1" /><circle cx="30" cy="255.1575" r="2" style="fill:rgb(255,238,101);stroke:none;fill-opacity:1;stroke-opacity:1;" /><circle cx="780" cy="167.0775" r="2" style="fill:rgb(253,204,229);stroke:none;fill-opacity:1;stroke-opacity:1;" /><path d="M 780 167.0775 L 630.77246 203.6375" style="stroke:rgb(253,204,229);stroke-width:1" /><circle cx="630.77246" cy="203.6375" r="2" style="fill:rgb(253,204,229);stroke:none;fill-opacity:1;stroke-opacity:1;" /><path d="M 630.77246 203.6375 L 517.8862 221.88" style="stroke:rgb(253,204,229);stroke-width:1" /><circle cx="517.8862" cy="221.88" r="2" style="fill:rgb(253,204,229);stroke:none;fill-opacity:1;stroke-opacity:1;" /><path d="M 517.8862 221.88 L 451.85202 229.9025" style="stroke:rgb(253,204,229);stroke-width:1" /><circle cx="451.85202" cy="229.9025" r="2" style="fill:rgb(253,204,229);stroke:none;fill-opacity:1;stroke-opacity:1;" /><path d="M 451.85202 229.9025 L 405 234.7475" style="stroke:rgb(253,204,229);stroke-width:1" /><circle cx="405" cy="234.7475" r="2" style="fill:rgb(253,204,229);stroke:none;fill-opacity:1;stroke-opacity:1;" /><path d="M 405 234.7475 L 338.96576 239.88" style="stroke:rgb(253,204,229);stroke-width:1" /><circle cx="338.96576" cy="239.88" r="2" style="fill:rgb(253,204,229);stroke:none;fill-opacity:1;stroke-opacity:1;" /><path d="M 338.96576 239.88 L 292.11377 243.3275" style="stroke:rgb(253,204,229);stroke-width:1" /><circle cx="292.11377" cy="243.3275" r="2" style="fill:rgb(253,204,229);stroke:none;fill-opacity:1;stroke-opacity:1;" /><path d="M 292.11377 243.3275 L 255.7725 245.56" style="stroke:rgb(253,204,229);stroke-width:1" /><circle cx="255.7725" cy="245.56" r="2" style="fill:rgb(253,204,229);stroke:none;fill-opacity:1;stroke-opacity:1;" /><path d="M 255.7725 245.56 L 142.88626 251.4" style="stroke:rgb(253,204,229);stroke-width:1" /><circle cx="142.88626" cy="251.4" r="2" style="fill:rgb(253,204,229);stroke:none;fill-opacity:1;stroke-opacity:1;" /><path d="M 142.88626 251.4 L 30 255.875" style="stroke:rgb(253,204,229);stroke-width:1" /><circle cx="30" cy="255.875" r="2" style="fill:rgb(253,204,229);stroke:none;fill-opacity:1;stroke-opacity:1;" /><circle cx="780" cy="167.0475" r="2" style="fill:rgb(253,127,111);stroke:none;fill-opacity:1;stroke-opacity:1;" /><path d="M 780 167.0475 L 630.77246 203.8575" style="stroke:rgb(253,127,111);stroke-width:1" /><circle cx="630.77246" cy="203.8575" r="2" style="fill:rgb(253,127,111);stroke:none;fill-opacity:1;stroke-opacity:1;" /><path d="M 630.77246 203.8575 L 517.8862 222.275" style="stroke:rgb(253,127,111);stroke-width:1" /><circle cx="517.8862" cy="222.275" r="2" style="fill:rgb(253,127,111);stroke:none;fill-opacity:1;stroke-opacity:1;" /><path d="M 517.8862 222.275 L 451.85202 230.2175" style="stroke:rgb(253,127,111);stroke-width:1" /><circle cx="451.85202" cy="230.2175" r="2" style="fill:rgb(253,127,111);stroke:none;fill-opacity:1;stroke-opacity:1;" /><path d="M 451.85202 230.2175 L 405 235.2475" style="stroke:rgb(253,127,111);stroke-width:1" /><circle cx="405" cy="235.2475" r="2" style="fill:rgb(253,127,111);stroke:none;fill-opacity:1;stroke-opacity:1;" /><path d="M 405 235.2475 L 338.96576 240.7875" style="stroke:rgb(253,127,111);stroke-width:1" /><circle cx="338.96576" cy="240.7875" r="2" style="fill:rgb(253,127,111);stroke:none;fill-opacity:1;stroke-opacity:1;" /><path d="M 338.96576 240.7875 L 292.11377 244.395" style="stroke:rgb(253,127,111);stroke-width:1" /><circle cx="292.11377" cy="244.395" r="2" style="fill:rgb(253,127,111);stroke:none;fill-opacity:1;stroke-opacity:1;" /><path d="M 292.11377 244.395 L 255.7725 246.76" style="stroke:rgb(253,127,111);stroke-width:1" /><circle cx="255.7725" cy="246.76" r="2" style="fill:rgb(253,127,111);stroke:none;fill-opacity:1;stroke-opacity:1;" /><path d="M 255.7725 246.76 L 142.88626 252.53" style="stroke:rgb(253,127,111);stroke-width:1" /><circle cx="142.88626" cy="252.53" r="2" style="fill:rgb(253,127,111);stroke:none;fill-opacity:1;stroke-opacity:1;" /><path d="M 142.88626 252.53 L 30 256.505" style="stroke:rgb(253,127,111);stroke-width:1" /><circle cx="30" cy="256.505" r="2" style="fill:rgb(253,127,111);stroke:none;fill-opacity:1;stroke-opacity:1;" /><circle cx="780" cy="20.022507" r="2" style="fill:rgb(190,185,219);stroke:none;fill-opacity:1;stroke-opacity:1;" /><path d="M 780 20.022507 L 630.77246 107.61" style="stroke:rgb(190,185,219);stroke-width:1" /><circle cx="630.77246" cy="107.61" r="2" style="fill:rgb(190,185,219);stroke:none;fill-opacity:1;stroke-opacity:1;" /><path d="M 630.77246 107.61 L 517.8862 153.8825" style="stroke:rgb(190,185,219);stroke-width:1" /><circle cx="517.8862" cy="153.8825" r="2" style="fill:rgb(190,185,219);stroke:none;fill-opacity:1;stroke-opacity:1;" /><path d="M 517.8862 153.8825 L 451.85202 173.23001" style="stroke:rgb(190,185,219);stroke-width:1" /><circle cx="451.85202" cy="173.23001" r="2" style="fill:rgb(190,185,219);stroke:none;fill-opacity:1;stroke-opacity:1;" /><path d="M 451.85202 173.23001 L 405 185.5975" style="stroke:rgb(190,185,219);stroke-width:1" /><circle cx="405" cy="185.5975" r="2" style="fill:rgb(190,185,219);stroke:none;fill-opacity:1;stroke-opacity:1;" /><path d="M 405 185.5975 L 338.96576 200.8475" style="stroke:rgb(190,185,219);stroke-width:1" /><circle cx="338.96576" cy="200.8475" r="2" style="fill:rgb(190,185,219);stroke:none;fill-opacity:1;stroke-opacity:1;" /><path d="M 338.96576 200.8475 L 292.11377 209.0775" style="stroke:rgb(190,185,219);stroke-width:1" /><circle cx="292.11377" cy="209.0775" r="2" style="fill:rgb(190,185,219);stroke:none;fill-opacity:1;stroke-opacity:1;" /><path d="M 292.11377 209.0775 L 255.7725 214.9075" style="stroke:rgb(190,185,219);stroke-width:1" /><circle cx="255.7725" cy="214.9075" r="2" style="fill:rgb(190,185,219);stroke:none;fill-opacity:1;stroke-opacity:1;" /><path d="M 255.7725 214.9075 L 142.88626 229.465" style="stroke:rgb(190,185,219);stroke-width:1" /><circle cx="142.88626" cy="229.465" r="2" style="fill:rgb(190,185,219);stroke:none;fill-opacity:1;stroke-opacity:1;" /><path d="M 142.88626 229.465 L 30 240.3175" style="stroke:rgb(190,185,219);stroke-width:1" /><circle cx="30" cy="240.3175" r="2" style="fill:rgb(190,185,219);stroke:none;fill-opacity:1;stroke-opacity:1;" /><rect x="676" y="16" width="80" height="175" ry="4" style="fill:rgb(30,30,30);stroke:none;fill-opacity:0.8;stroke-opacity:1;" /><rect x="680" y="20" width="20" height="20" ry="2" style="fill:rgb(139,211,199);stroke:none;fill-opacity:1;stroke-opacity:1;" /><text x="705" y="33" style="font-size:10px;fill:rgb(255,255,255);text-anchor:start;text-align:left;"> hain </text><rect x="680" y="41" width="20" height="20" ry="2" style="fill:rgb(190,185,219);stroke:none;fill-opacity:1;stroke-opacity:1;" /><text x="705" y="54" style="font-size:10px;fill:rgb(255,255,255);text-anchor:start;text-align:left;"> hfd </text><rect x="680" y="62" width="20" height="20" ry="2" style="fill:rgb(253,127,111);stroke:none;fill-opacity:1;stroke-opacity:1;" /><text x="705" y="75" style="font-size:10px;fill:rgb(255,255,255);text-anchor:start;text-align:left;"> levien </text><rect x="680" y="83" width="20" height="20" ry="2" style="fill:rgb(253,204,229);stroke:none;fill-opacity:1;stroke-opacity:1;" /><text x="705" y="96" style="font-size:10px;fill:rgb(255,255,255);text-anchor:start;text-align:left;"> levien-linear </text><rect x="680" y="104" width="20" height="20" ry="2" style="fill:rgb(126,176,213);stroke:none;fill-opacity:1;stroke-opacity:1;" /><text x="705" y="117" style="font-size:10px;fill:rgb(255,255,255);text-anchor:start;text-align:left;"> levien-simd </text><rect x="680" y="125" width="20" height="20" ry="2" style="fill:rgb(255,181,90);stroke:none;fill-opacity:1;stroke-opacity:1;" /><text x="705" y="138" style="font-size:10px;fill:rgb(255,255,255);text-anchor:start;text-align:left;"> linear </text><rect x="680" y="146" width="20" height="20" ry="2" style="fill:rgb(255,238,101);stroke:none;fill-opacity:1;stroke-opacity:1;" /><text x="705" y="159" style="font-size:10px;fill:rgb(255,255,255);text-anchor:start;text-align:left;"> recursive </text><rect x="680" y="167" width="20" height="20" ry="2" style="fill:rgb(178,224,97);stroke:none;fill-opacity:1;stroke-opacity:1;" /><text x="705" y="180" style="font-size:10px;fill:rgb(255,255,255);text-anchor:start;text-align:left;"> wang </text><text x="400" y="30" style="font-size:20px;fill:rgb(255,255,255);text-anchor:middle;text-align:center;"> Tiger </text><text x="400" y="42" style="font-size:8px;fill:rgb(200,200,200);text-anchor:middle;text-align:center;"> Normalized edge count score (lower is better) </text></svg>