<svg xmlns="http://www.w3.org/2000/svg" viewBox="0 0 800 300"><rect x="0" y="0" width="800" height="300" ry="6" style="fill:rgb(30,30,30);stroke:none;fill-opacity:1;stroke-opacity:1;" /><path d="M 30 20 L 30 270" style="stroke:rgb(200,200,200);stroke-width:1" /><path d="M 30 270 L 780 270" style="stroke:rgb(200,200,200);stroke-width:1" /><path d="M 780 270 L 780 272" style="stroke:rgb(200,200,200);stroke-width:1" /><text x="780" y="282" style="font-size:10px;fill:rgb(200,200,200);text-anchor:middle;text-align:center;"> 0.01 </text><path d="M 630.77246 270 L 630.77246 272" style="stroke:rgb(200,200,200);stroke-width:1" /><text x="630.77246" y="282" style="font-size:10px;fill:rgb(200,200,200);text-anchor:middle;text-align:center;"> 0.025 </text><path d="M 517.8862 270 L 517.8862 272" style="stroke:rgb(200,200,200);stroke-width:1" /><text x="517.8862" y="282" style="font-size:10px;fill:rgb(200,200,200);text-anchor:middle;text-align:center;"> 0.05 </text><path d="M 451.85202 270 L 451.85202 272" style="stroke:rgb(200,200,200);stroke-width:1" /><text x="451.85202" y="282" style="font-size:10px;fill:rgb(200,200,200);text-anchor:middle;text-align:center;"> 0.075 </text><path d="M 405 270 L 405 272" style="stroke:rgb(200,200,200);stroke-width:1" /><text x="405" y="282" style="font-size:10px;fill:rgb(200,200,200);text-anchor:middle;text-align:center;"> 0.1 </text><path d="M 338.96576 270 L 338.96576 272" style="stroke:rgb(200,200,200);stroke-width:1" /><text x="338.96576" y="282" style="font-size:10px;fill:rgb(200,200,200);text-anchor:middle;text-align:center;"> 0.15 </text><path d="M 292.11377 270 L 292.11377 272" style="stroke:rgb(200,200,200);stroke-width:1" /><text x="292.11377" y="282" style="font-size:10px;fill:rgb(200,200,200);text-anchor:middle;text-align:center;"> 0.2 </text><path d="M 255.7725 270 L 255.7725 272" style="stroke:rgb(200,200,200);stroke-width:1" /><text x="255.7725" y="282" style="font-size:10px;fill:rgb(200,200,200);text-anchor:middle;text-align:center;"> 0.25 </text><path d="M 142.88626 270 L 142.88626 272" style="stroke:rgb(200,200,200);stroke-width:1" /><text x="142.88626" y="282" style="font-size:10px;fill:rgb(200,200,200);text-anchor:middle;text-align:center;"> 0.5 </text><path d="M 30 270 L 30 272" style="stroke:rgb(200,200,200);stroke-width:1" /><text x="30" y="282" style="font-size:10px;fill:rgb(200,200,200);text-anchor:middle;text-align:center;"> 1 </text><path d="M 28 270 L 30 270" style="stroke:rgb(200,200,200);stroke-width:1" /><text x="26" y="274" style="font-size:10px;fill:rgb(200,200,200);text-anchor:end;text-align:right;"> 0 </text><path d="M 28 207.5 L 30 207.5" style="stroke:rgb(200,200,200);stroke-width:1" /><text x="26" y="211.5" style="font-size:10px;fill:rgb(200,200,200);text-anchor:end;text-align:right;"> 0.25 </text><path d="M 28 145 L 30 145" style="stroke:rgb(200,200,200);stroke-width:1" /><text x="26" y="149" style="font-size:10px;fill:rgb(200,200,200);text-anchor:end;text-align:right;"> 0.5 </text><path d="M 28 82.5 L 30 82.5" style="stroke:rgb(200,200,200);stroke-width:1" /><text x="26" y="86.5" style="font-size:10px;fill:rgb(200,200,200);text-anchor:end;text-align:right;"> 0.75 </text><path d="M 28 20 L 30 20" style="stroke:rgb(200,200,200);stroke-width:1" /><text x="26" y="24" style="font-size:10px;fill:rgb(200,200,200);text-anchor:end;text-align:right;"> 1 </text><text x="400" y="294" style="font-size:10px;fill:rgb(200,200,200);text-anchor:middle;text-align:center;"> Tolerance </text><circle cx="780" cy="63.902496" r="2" style="fill:rgb(50,125,209);stroke:none;fill-opacity:1;stroke-opacity:1;" /><path d="M 780 63.902496 L 630.77246 115.619995" style="stroke:rgb(50,125,209);stroke-width:1" /><circle cx="630.77246" cy="115.619995" r="2" style="fill:rgb(50,125,209);stroke:none;fill-opacity:1;stroke-opacity:1;" /><path d="M 630.77246 115.619995 L 517.8862 135.3375" style="stroke:rgb(50,125,209);stroke-width:1" /><circle cx="517.8862" cy="135.3375" r="2" style="fill:rgb(50,125,209);stroke:none;fill-opacity:1;stroke-opacity:1;" /><path d="M 517.8862 135.3375 L 451.85202 143.76999" style="stroke:rgb(50,125,209);stroke-width:1" /><circle cx="451.85202" cy="143.76999" r="2" style="fill:rgb(50,125,209);stroke:none;fill-opacity:1;stroke-opacity:1;" /><path d="M 451.85202 143.76999 L 405 147.35" style="stroke:rgb(50,125,209);stroke-width:1" /><circle cx="405" cy="147.35" r="2" style="fill:rgb(50,125,209);stroke:none;fill-opacity:1;stroke-opacity:1;" /><path d="M 405 147.35 L 338.96576 150.08249" style="stroke:rgb(50,125,209);stroke-width:1" /><circle cx="338.96576" cy="150.08249" r="2" style="fill:rgb(50,125,209);stroke:none;fill-opacity:1;stroke-opacity:1;" /><path d="M 338.96576 150.08249 L 292.11377 150.92749" style="stroke:rgb(50,125,209);stroke-width:1" /><circle cx="292.11377" cy="150.92749" r="2" style="fill:rgb(50,125,209);stroke:none;fill-opacity:1;stroke-opacity:1;" /><path d="M 292.11377 150.92749 L 255.7725 151.78" style="stroke:rgb(50,125,209);stroke-width:1" /><circle cx="255.7725" cy="151.78" r="2" style="fill:rgb(50,125,209);stroke:none;fill-opacity:1;stroke-opacity:1;" /><path d="M 255.7725 151.78 L 142.88626 153.4925" style="stroke:rgb(50,125,209);stroke-width:1" /><circle cx="142.88626" cy="153.4925" r="2" style="fill:rgb(50,125,209);stroke:none;fill-opacity:1;stroke-opacity:1;" /><path d="M 142.88626 153.4925 L 30 153.6325" style="stroke:rgb(50,125,209);stroke-width:1" /><circle cx="30" cy="153.6325" r="2" style="fill:rgb(50,125,209);stroke:none;fill-opacity:1;stroke-opacity:1;" /><circle cx="780" cy="20" r="2" style="fill:rgb(253,127,111);stroke:none;fill-opacity:1;stroke-opacity:1;" /><path d="M 780 20 L 630.77246 96.02251" style="stroke:rgb(253,127,111);stroke-width:1" /><circle cx="630.77246" cy="96.02251" r="2" style="fill:rgb(253,127,111);stroke:none;fill-opacity:1;stroke-opacity:1;" /><path d="M 630.77246 96.02251 L 517.8862 125.350006" style="stroke:rgb(253,127,111);stroke-width:1" /><circle cx="517.8862" cy="125.350006" r="2" style="fill:rgb(253,127,111);stroke:none;fill-opacity:1;stroke-opacity:1;" /><path d="M 517.8862 125.350006 L 451.85202 137.6125" style="stroke:rgb(253,127,111);stroke-width:1" /><circle cx="451.85202" cy="137.6125" r="2" style="fill:rgb(253,127,111);stroke:none;fill-opacity:1;stroke-opacity:1;" /><path d="M 451.85202 137.6125 L 405 143.89499" style="stroke:rgb(253,127,111);stroke-width:1" /><circle cx="405" cy="143.89499" r="2" style="fill:rgb(253,127,111);stroke:none;fill-opacity:1;stroke-opacity:1;" /><path d="M 405 143.89499 L 338.96576 148.9725" style="stroke:rgb(253,127,111);stroke-width:1" /><circle cx="338.96576" cy="148.9725" r="2" style="fill:rgb(253,127,111);stroke:none;fill-opacity:1;stroke-opacity:1;" /><path d="M 338.96576 148.9725 L 292.11377 150.39499" style="stroke:rgb(253,127,111);stroke-width:1" /><circle cx="292.11377" cy="150.39499" r="2" style="fill:rgb(253,127,111);stroke:none;fill-opacity:1;stroke-opacity:1;" /><path d="M 292.11377 150.39499 L 255.7725 151.3125" style="stroke:rgb(253,127,111);stroke-width:1" /><circle cx="255.7725" cy="151.3125" r="2" style="fill:rgb(253,127,111);stroke:none;fill-opacity:1;stroke-opacity:1;" /><path d="M 255.7725 151.3125 L 142.88626 153.39499" style="stroke:rgb(253,127,111);stroke-width:1" /><circle cx="142.88626" cy="153.39499" r="2" style="fill:rgb(253,127,111);stroke:none;fill-opacity:1;stroke-opacity:1;" /><path d="M 142.88626 153.39499 L 30 153.6325" style="stroke:rgb(253,127,111);stroke-width:1" /><circle cx="30" cy="153.6325" r="2" style="fill:rgb(253,127,111);stroke:none;fill-opacity:1;stroke-opacity:1;" /><circle cx="780" cy="20" r="2" style="fill:rgb(253,204,229);stroke:none;fill-opacity:1;stroke-opacity:1;" /><path d="M 780 20 L 630.77246 96.02251" style="stroke:rgb(253,204,229);stroke-width:1" /><circle cx="630.77246" cy="96.02251" r="2" style="fill:rgb(253,204,229);stroke:none;fill-opacity:1;stroke-opacity:1;" /><path d="M 630.77246 96.02251 L 517.8862 125.350006" style="stroke:rgb(253,204,229);stroke-width:1" /><circle cx="517.8862" cy="125.350006" r="2" style="fill:rgb(253,204,229);stroke:none;fill-opacity:1;stroke-opacity:1;" /><path d="M 517.8862 125.350006 L 451.85202 137.6125" style="stroke:rgb(253,204,229);stroke-width:1" /><circle cx="451.85202" cy="137.6125" r="2" style="fill:rgb(253,204,229);stroke:none;fill-opacity:1;stroke-opacity:1;" /><path d="M 451.85202 137.6125 L 405 143.89499" style="stroke:rgb(253,204,229);stroke-width:1" /><circle cx="405" cy="143.89499" r="2" style="fill:rgb(253,204,229);stroke:none;fill-opacity:1;stroke-opacity:1;" /><path d="M 405 143.89499 L 338.96576 148.9725" style="stroke:rgb(253,204,229);stroke-width:1" /><circle cx="338.96576" cy="148.9725" r="2" style="fill:rgb(253,204,229);stroke:none;fill-opacity:1;stroke-opacity:1;" /><path d="M 338.96576 148.9725 L 292.11377 150.39499" style="stroke:rgb(253,204,229);stroke-width:1" /><circle cx="292.11377" cy="150.39499" r="2" style="fill:rgb(253,204,229);stroke:none;fill-opacity:1;stroke-opacity:1;" /><path d="M 292.11377 150.39499 L 255.7725 151.3125" style="stroke:rgb(253,204,229);stroke-width:1" /><circle cx="255.7725" cy="151.3125" r="2" style="fill:rgb(253,204,229);stroke:none;fill-opacity:1;stroke-opacity:1;" /><path d="M 255.7725 151.3125 L 142.88626 153.39499" style="stroke:rgb(253,204,229);stroke-width:1" /><circle cx="142.88626" cy="153.39499" r="2" style="fill:rgb(253,204,229);stroke:none;fill-opacity:1;stroke-opacity:1;" /><path d="M 142.88626 153.39499 L 30 153.6325" style="stroke:rgb(253,204,229);stroke-width:1" /><circle cx="30" cy="153.6325" r="2" style="fill:rgb(253,204,229);stroke:none;fill-opacity:1;stroke-opacity:1;" /><circle cx="780" cy="65.0275" r="2" style="fill:rgb(119,211,179);stroke:none;fill-opacity:1;stroke-opacity:1;" /><path d="M 780 65.0275 L 630.77246 116.4875" style="stroke:rgb(119,211,179);stroke-width:1" /><circle cx="630.77246" cy="116.4875" r="2" style="fill:rgb(119,211,179);stroke:none;fill-opacity:1;stroke-opacity:1;" /><path d="M 630.77246 116.4875 L 517.8862 135.545" style="stroke:rgb(119,211,179);stroke-width:1" /><circle cx="517.8862" cy="135.545" r="2" style="fill:rgb(119,211,179);stroke:none;fill-opacity:1;stroke-opacity:1;" /><path d="M 517.8862 135.545 L 451.85202 143.94" style="stroke:rgb(119,211,179);stroke-width:1" /><circle cx="451.85202" cy="143.94" r="2" style="fill:rgb(119,211,179);stroke:none;fill-opacity:1;stroke-opacity:1;" /><path d="M 451.85202 143.94 L 405 147.89749" style="stroke:rgb(119,211,179);stroke-width:1" /><circle cx="405" cy="147.89749" r="2" style="fill:rgb(119,211,179);stroke:none;fill-opacity:1;stroke-opacity:1;" /><path d="M 405 147.89749 L 338.96576 150.12" style="stroke:rgb(119,211,179);stroke-width:1" /><circle cx="338.96576" cy="150.12" r="2" style="fill:rgb(119,211,179);stroke:none;fill-opacity:1;stroke-opacity:1;" /><path d="M 338.96576 150.12 L 292.11377 151.0325" style="stroke:rgb(119,211,179);stroke-width:1" /><circle cx="292.11377" cy="151.0325" r="2" style="fill:rgb(119,211,179);stroke:none;fill-opacity:1;stroke-opacity:1;" /><path d="M 292.11377 151.0325 L 255.7725 151.935" style="stroke:rgb(119,211,179);stroke-width:1" /><circle cx="255.7725" cy="151.935" r="2" style="fill:rgb(119,211,179);stroke:none;fill-opacity:1;stroke-opacity:1;" /><path d="M 255.7725 151.935 L 142.88626 153.5275" style="stroke:rgb(119,211,179);stroke-width:1" /><circle cx="142.88626" cy="153.5275" r="2" style="fill:rgb(119,211,179);stroke:none;fill-opacity:1;stroke-opacity:1;" /><path d="M 142.88626 153.5275 L 30 153.6325" style="stroke:rgb(119,211,179);stroke-width:1" /><circle cx="30" cy="153.6325" r="2" style="fill:rgb(119,211,179);stroke:none;fill-opacity:1;stroke-opacity:1;" /><circle cx="780" cy="47.89" r="2" style="fill:rgb(255,238,101);stroke:none;fill-opacity:1;stroke-opacity:1;" /><path d="M 780 47.89 L 630.77246 113.6425" style="stroke:rgb(255,238,101);stroke-width:1" /><circle cx="630.77246" cy="113.6425" r="2" style="fill:rgb(255,238,101);stroke:none;fill-opacity:1;stroke-opacity:1;" /><path d="M 630.77246 113.6425 L 517.8862 134.1675" style="stroke:rgb(255,238,101);stroke-width:1" /><circle cx="517.8862" cy="134.1675" r="2" style="fill:rgb(255,238,101);stroke:none;fill-opacity:1;stroke-opacity:1;" /><path d="M 517.8862 134.1675 L 451.85202 143.23001" style="stroke:rgb(255,238,101);stroke-width:1" /><circle cx="451.85202" cy="143.23001" r="2" style="fill:rgb(255,238,101);stroke:none;fill-opacity:1;stroke-opacity:1;" /><path d="M 451.85202 143.23001 L 405 147.6075" style="stroke:rgb(255,238,101);stroke-width:1" /><circle cx="405" cy="147.6075" r="2" style="fill:rgb(255,238,101);stroke:none;fill-opacity:1;stroke-opacity:1;" /><path d="M 405 147.6075 L 338.96576 150.1125" style="stroke:rgb(255,238,101);stroke-width:1" /><circle cx="338.96576" cy="150.1125" r="2" style="fill:rgb(255,238,101);stroke:none;fill-opacity:1;stroke-opacity:1;" /><path d="M 338.96576 150.1125 L 292.11377 151.0325" style="stroke:rgb(255,238,101);stroke-width:1" /><circle cx="292.11377" cy="151.0325" r="2" style="fill:rgb(255,238,101);stroke:none;fill-opacity:1;stroke-opacity:1;" /><path d="M 292.11377 151.0325 L 255.7725 151.935" style="stroke:rgb(255,238,101);stroke-width:1" /><circle cx="255.7725" cy="151.935" r="2" style="fill:rgb(255,238,101);stroke:none;fill-opacity:1;stroke-opacity:1;" /><path d="M 255.7725 151.935 L 142.88626 153.5275" style="stroke:rgb(255,238,101);stroke-width:1" /><circle cx="142.88626" cy="153.5275" r="2" style="fill:rgb(255,238,101);stroke:none;fill-opacity:1;stroke-opacity:1;" /><path d="M 142.88626 153.5275 L 30 153.6325" style="stroke:rgb(255,238,101);stroke-width:1" /><circle cx="30" cy="153.6325" r="2" style="fill:rgb(255,238,101);stroke:none;fill-opacity:1;stroke-opacity:1;" /><circle cx="780" cy="56.7825" r="2" style="fill:rgb(128,214,87);stroke:none;fill-opacity:1;stroke-opacity:1;" /><path d="M 780 56.7825 L 630.77246 115.287506" style="stroke:rgb(128,214,87);stroke-width:1" /><circle cx="630.77246" cy="115.287506" r="2" style="fill:rgb(128,214,87);stroke:none;fill-opacity:1;stroke-opacity:1;" /><path d="M 630.77246 115.287506 L 517.8862 135.405" style="stroke:rgb(128,214,87);stroke-width:1" /><circle cx="517.8862" cy="135.405" r="2" style="fill:rgb(128,214,87);stroke:none;fill-opacity:1;stroke-opacity:1;" /><path d="M 517.8862 135.405 L 451.85202 143.8675" style="stroke:rgb(128,214,87);stroke-width:1" /><circle cx="451.85202" cy="143.8675" r="2" style="fill:rgb(128,214,87);stroke:none;fill-opacity:1;stroke-opacity:1;" /><path d="M 451.85202 143.8675 L 405 147.89749" style="stroke:rgb(128,214,87);stroke-width:1" /><circle cx="405" cy="147.89749" r="2" style="fill:rgb(128,214,87);stroke:none;fill-opacity:1;stroke-opacity:1;" /><path d="M 405 147.89749 L 338.96576 150.12" style="stroke:rgb(128,214,87);stroke-width:1" /><circle cx="338.96576" cy="150.12" r="2" style="fill:rgb(128,214,87);stroke:none;fill-opacity:1;stroke-opacity:1;" /><path d="M 338.96576 150.12 L 292.11377 151.0325" style="stroke:rgb(128,214,87);stroke-width:1" /><circle cx="292.11377" cy="151.0325" r="2" style="fill:rgb(128,214,87);stroke:none;fill-opacity:1;stroke-opacity:1;" /><path d="M 292.11377 151.0325 L 255.7725 151.935" style="stroke:rgb(128,214,87);stroke-width:1" /><circle cx="255.7725" cy="151.935" r="2" style="fill:rgb(128,214,87);stroke:none;fill-opacity:1;stroke-opacity:1;" /><path d="M 255.7725 151.935 L 142.88626 153.5275" style="stroke:rgb(128,214,87);stroke-width:1" /><circle cx="142.88626" cy="153.5275" r="2" style="fill:rgb(128,214,87);stroke:none;fill-opacity:1;stroke-opacity:1;" /><path d="M 142.88626 153.5275 L 30 153.6325" style="stroke:rgb(128,214,87);stroke-width:1" /><circle cx="30" cy="153.6325" r="2" style="fill:rgb(128,214,87);stroke:none;fill-opacity:1;stroke-opacity:1;" /><rect x="676" y="16" width="80" height="133" ry="4" style="fill:rgb(30,30,30);stroke:none;fill-opacity:0.8;stroke-opacity:1;" /><rect x="680" y="20" width="20" height="20" ry="2" style="fill:rgb(253,127,111);stroke:none;fill-opacity:1;stroke-opacity:1;" /><text x="705" y="33" style="font-size:10px;fill:rgb(255,255,255);text-anchor:start;text-align:left;"> fwd-diff </text><rect x="680" y="41" width="20" height="20" ry="2" style="fill:rgb(50,125,209);stroke:none;fill-opacity:1;stroke-opacity:1;" /><text x="705" y="54" style="font-size:10px;fill:rgb(255,255,255);text-anchor:start;text-align:left;"> levien </text><rect x="680" y="62" width="20" height="20" ry="2" style="fill:rgb(119,211,179);stroke:none;fill-opacity:1;stroke-opacity:1;" /><text x="705" y="75" style="font-size:10px;fill:rgb(255,255,255);text-anchor:start;text-align:left;"> levien-linear </text><rect x="680" y="83" width="20" height="20" ry="2" style="fill:rgb(128,214,87);stroke:none;fill-opacity:1;stroke-opacity:1;" /><text x="705" y="96" style="font-size:10px;fill:rgb(255,255,255);text-anchor:start;text-align:left;"> linear </text><rect x="680" y="104" width="20" height="20" ry="2" style="fill:rgb(255,238,101);stroke:none;fill-opacity:1;stroke-opacity:1;" /><text x="705" y="117" style="font-size:10px;fill:rgb(255,255,255);text-anchor:start;text-align:left;"> recursive </text><rect x="680" y="125" width="20" height="20" ry="2" style="fill:rgb(253,204,229);stroke:none;fill-opacity:1;stroke-opacity:1;" /><text x="705" y="138" style="font-size:10px;fill:rgb(255,255,255);text-anchor:start;text-align:left;"> wang </text><text x="400" y="30" style="font-size:20px;fill:rgb(255,255,255);text-anchor:middle;text-align:center;"> Font </text><text x="400" y="42" style="font-size:8px;fill:rgb(200,200,200);text-anchor:middle;text-align:center;"> Normalized edge count score (lower is better) </text></svg>