<svg xmlns="http://www.w3.org/2000/svg" viewBox="0 0 800 300"><rect x="0" y="0" width="800" height="300" ry="6" style="fill:rgb(30,30,30);stroke:none;fill-opacity:1;stroke-opacity:1;" /><path d="M 30 20 L 30 270" style="stroke:rgb(200,200,200);stroke-width:1" /><path d="M 30 270 L 780 270" style="stroke:rgb(200,200,200);stroke-width:1" /><path d="M 780 270 L 780 272" style="stroke:rgb(200,200,200);stroke-width:1" /><text x="780" y="282" style="font-size:10px;fill:rgb(200,200,200);text-anchor:middle;text-align:center;"> 0.01 </text><path d="M 630.77246 270 L 630.77246 272" style="stroke:rgb(200,200,200);stroke-width:1" /><text x="630.77246" y="282" style="font-size:10px;fill:rgb(200,200,200);text-anchor:middle;text-align:center;"> 0.025 </text><path d="M 517.8862 270 L 517.8862 272" style="stroke:rgb(200,200,200);stroke-width:1" /><text x="517.8862" y="282" style="font-size:10px;fill:rgb(200,200,200);text-anchor:middle;text-align:center;"> 0.05 </text><path d="M 451.85202 270 L 451.85202 272" style="stroke:rgb(200,200,200);stroke-width:1" /><text x="451.85202" y="282" style="font-size:10px;fill:rgb(200,200,200);text-anchor:middle;text-align:center;"> 0.075 </text><path d="M 405 270 L 405 272" style="stroke:rgb(200,200,200);stroke-width:1" /><text x="405" y="282" style="font-size:10px;fill:rgb(200,200,200);text-anchor:middle;text-align:center;"> 0.1 </text><path d="M 338.96576 270 L 338.96576 272" style="stroke:rgb(200,200,200);stroke-width:1" /><text x="338.96576" y="282" style="font-size:10px;fill:rgb(200,200,200);text-anchor:middle;text-align:center;"> 0.15 </text><path d="M 292.11377 270 L 292.11377 272" style="stroke:rgb(200,200,200);stroke-width:1" /><text x="292.11377" y="282" style="font-size:10px;fill:rgb(200,200,200);text-anchor:middle;text-align:center;"> 0.2 </text><path d="M 255.7725 270 L 255.7725 272" style="stroke:rgb(200,200,200);stroke-width:1" /><text x="255.7725" y="282" style="font-size:10px;fill:rgb(200,200,200);text-anchor:middle;text-align:center;"> 0.25 </text><path d="M 142.88626 270 L 142.88626 272" style="stroke:rgb(200,200,200);stroke-width:1" /><text x="142.88626" y="282" style="font-size:10px;fill:rgb(200,200,200);text-anchor:middle;text-align:center;"> 0.5 </text><path d="M 30 270 L 30 272" style="stroke:rgb(200,200,200);stroke-width:1" /><text x="30" y="282" style="font-size:10px;fill:rgb(200,200,200);text-anchor:middle;text-align:center;"> 1 </text><path d="M 28 270 L 30 270" style="stroke:rgb(200,200,200);stroke-width:1" /><text x="26" y="274" style="font-size:10px;fill:rgb(200,200,200);text-anchor:end;text-align:right;"> 0 </text><path d="M 28 207.5 L 30 207.5" style="stroke:rgb(200,200,200);stroke-width:1" /><text x="26" y="211.5" style="font-size:10px;fill:rgb(200,200,200);text-anchor:end;text-align:right;"> 0.25 </text><path d="M 28 145 L 30 145" style="stroke:rgb(200,200,200);stroke-width:1" /><text x="26" y="149" style="font-size:10px;fill:rgb(200,200,200);text-anchor:end;text-align:right;"> 0.5 </text><path d="M 28 82.5 L 30 82.5" style="stroke:rgb(200,200,200);stroke-width:1" /><text x="26" y="86.5" style="font-size:10px;fill:rgb(200,200,200);text-anchor:end;text-align:right;"> 0.75 </text><path d="M 28 20 L 30 20" style="stroke:rgb(200,200,200);stroke-width:1" /><text x="26" y="24" style="font-size:10px;fill:rgb(200,200,200);text-anchor:end;text-align:right;"> 1 </text><text x="400" y="294" style="font-size:10px;fill:rgb(200,200,200);text-anchor:middle;text-align:center;"> Tolerance </text><circle cx="780" cy="138.6525" r="2" style="fill:rgb(50,125,209);stroke:none;fill-opacity:1;stroke-opacity:1;" /><path d="M 780 138.6525 L 630.77246 186.2475" style="stroke:rgb(50,125,209);stroke-width:1" /><circle cx="630.77246" cy="186.2475" r="2" style="fill:rgb(50,125,209);stroke:none;fill-opacity:1;stroke-opacity:1;" /><path d="M 630.77246 186.2475 L 517.8862 210.1975" style="stroke:rgb(50,125,209);stroke-width:1" /><circle cx="517.8862" cy="210.1975" r="2" style="fill:rgb(50,125,209);stroke:none;fill-opacity:1;stroke-opacity:1;" /><path d="M 517.8862 210.1975 L 451.85202 220.75" style="stroke:rgb(50,125,209);stroke-width:1" /><circle cx="451.85202" cy="220.75" r="2" style="fill:rgb(50,125,209);stroke:none;fill-opacity:1;stroke-opacity:1;" /><path d="M 451.85202 220.75 L 405 227.055" style="stroke:rgb(50,125,209);stroke-width:1" /><circle cx="405" cy="227.055" r="2" style="fill:rgb(50,125,209);stroke:none;fill-opacity:1;stroke-opacity:1;" /><path d="M 405 227.055 L 338.96576 234.5425" style="stroke:rgb(50,125,209);stroke-width:1" /><circle cx="338.96576" cy="234.5425" r="2" style="fill:rgb(50,125,209);stroke:none;fill-opacity:1;stroke-opacity:1;" /><path d="M 338.96576 234.5425 L 292.11377 238.97" style="stroke:rgb(50,125,209);stroke-width:1" /><circle cx="292.11377" cy="238.97" r="2" style="fill:rgb(50,125,209);stroke:none;fill-opacity:1;stroke-opacity:1;" /><path d="M 292.11377 238.97 L 255.7725 241.9925" style="stroke:rgb(50,125,209);stroke-width:1" /><circle cx="255.7725" cy="241.9925" r="2" style="fill:rgb(50,125,209);stroke:none;fill-opacity:1;stroke-opacity:1;" /><path d="M 255.7725 241.9925 L 142.88626 249.465" style="stroke:rgb(50,125,209);stroke-width:1" /><circle cx="142.88626" cy="249.465" r="2" style="fill:rgb(50,125,209);stroke:none;fill-opacity:1;stroke-opacity:1;" /><path d="M 142.88626 249.465 L 30 254.7025" style="stroke:rgb(50,125,209);stroke-width:1" /><circle cx="30" cy="254.7025" r="2" style="fill:rgb(50,125,209);stroke:none;fill-opacity:1;stroke-opacity:1;" /><circle cx="780" cy="20" r="2" style="fill:rgb(253,127,111);stroke:none;fill-opacity:1;stroke-opacity:1;" /><path d="M 780 20 L 630.77246 111.240005" style="stroke:rgb(253,127,111);stroke-width:1" /><circle cx="630.77246" cy="111.240005" r="2" style="fill:rgb(253,127,111);stroke:none;fill-opacity:1;stroke-opacity:1;" /><path d="M 630.77246 111.240005 L 517.8862 157.235" style="stroke:rgb(253,127,111);stroke-width:1" /><circle cx="517.8862" cy="157.235" r="2" style="fill:rgb(253,127,111);stroke:none;fill-opacity:1;stroke-opacity:1;" /><path d="M 517.8862 157.235 L 451.85202 177.58499" style="stroke:rgb(253,127,111);stroke-width:1" /><circle cx="451.85202" cy="177.58499" r="2" style="fill:rgb(253,127,111);stroke:none;fill-opacity:1;stroke-opacity:1;" /><path d="M 451.85202 177.58499 L 405 189.73999" style="stroke:rgb(253,127,111);stroke-width:1" /><circle cx="405" cy="189.73999" r="2" style="fill:rgb(253,127,111);stroke:none;fill-opacity:1;stroke-opacity:1;" /><path d="M 405 189.73999 L 338.96576 204.1275" style="stroke:rgb(253,127,111);stroke-width:1" /><circle cx="338.96576" cy="204.1275" r="2" style="fill:rgb(253,127,111);stroke:none;fill-opacity:1;stroke-opacity:1;" /><path d="M 338.96576 204.1275 L 292.11377 212.6725" style="stroke:rgb(253,127,111);stroke-width:1" /><circle cx="292.11377" cy="212.6725" r="2" style="fill:rgb(253,127,111);stroke:none;fill-opacity:1;stroke-opacity:1;" /><path d="M 292.11377 212.6725 L 255.7725 218.48" style="stroke:rgb(253,127,111);stroke-width:1" /><circle cx="255.7725" cy="218.48" r="2" style="fill:rgb(253,127,111);stroke:none;fill-opacity:1;stroke-opacity:1;" /><path d="M 255.7725 218.48 L 142.88626 232.9025" style="stroke:rgb(253,127,111);stroke-width:1" /><circle cx="142.88626" cy="232.9025" r="2" style="fill:rgb(253,127,111);stroke:none;fill-opacity:1;stroke-opacity:1;" /><path d="M 142.88626 232.9025 L 30 243.075" style="stroke:rgb(253,127,111);stroke-width:1" /><circle cx="30" cy="243.075" r="2" style="fill:rgb(253,127,111);stroke:none;fill-opacity:1;stroke-opacity:1;" /><circle cx="780" cy="64.7475" r="2" style="fill:rgb(139,211,199);stroke:none;fill-opacity:1;stroke-opacity:1;" /><path d="M 780 64.7475 L 630.77246 133.935" style="stroke:rgb(139,211,199);stroke-width:1" /><circle cx="630.77246" cy="133.935" r="2" style="fill:rgb(139,211,199);stroke:none;fill-opacity:1;stroke-opacity:1;" /><path d="M 630.77246 133.935 L 517.8862 174.4325" style="stroke:rgb(139,211,199);stroke-width:1" /><circle cx="517.8862" cy="174.4325" r="2" style="fill:rgb(139,211,199);stroke:none;fill-opacity:1;stroke-opacity:1;" /><path d="M 517.8862 174.4325 L 451.85202 188.64749" style="stroke:rgb(139,211,199);stroke-width:1" /><circle cx="451.85202" cy="188.64749" r="2" style="fill:rgb(139,211,199);stroke:none;fill-opacity:1;stroke-opacity:1;" /><path d="M 451.85202 188.64749 L 405 201.2175" style="stroke:rgb(139,211,199);stroke-width:1" /><circle cx="405" cy="201.2175" r="2" style="fill:rgb(139,211,199);stroke:none;fill-opacity:1;stroke-opacity:1;" /><path d="M 405 201.2175 L 338.96576 215.905" style="stroke:rgb(139,211,199);stroke-width:1" /><circle cx="338.96576" cy="215.905" r="2" style="fill:rgb(139,211,199);stroke:none;fill-opacity:1;stroke-opacity:1;" /><path d="M 338.96576 215.905 L 292.11377 221.39" style="stroke:rgb(139,211,199);stroke-width:1" /><circle cx="292.11377" cy="221.39" r="2" style="fill:rgb(139,211,199);stroke:none;fill-opacity:1;stroke-opacity:1;" /><path d="M 292.11377 221.39 L 255.7725 225.155" style="stroke:rgb(139,211,199);stroke-width:1" /><circle cx="255.7725" cy="225.155" r="2" style="fill:rgb(139,211,199);stroke:none;fill-opacity:1;stroke-opacity:1;" /><path d="M 255.7725 225.155 L 142.88626 239.265" style="stroke:rgb(139,211,199);stroke-width:1" /><circle cx="142.88626" cy="239.265" r="2" style="fill:rgb(139,211,199);stroke:none;fill-opacity:1;stroke-opacity:1;" /><path d="M 142.88626 239.265 L 30 246.62" style="stroke:rgb(139,211,199);stroke-width:1" /><circle cx="30" cy="246.62" r="2" style="fill:rgb(139,211,199);stroke:none;fill-opacity:1;stroke-opacity:1;" /><circle cx="780" cy="91.575" r="2" style="fill:rgb(255,238,101);stroke:none;fill-opacity:1;stroke-opacity:1;" /><path d="M 780 91.575 L 630.77246 163.275" style="stroke:rgb(255,238,101);stroke-width:1" /><circle cx="630.77246" cy="163.275" r="2" style="fill:rgb(255,238,101);stroke:none;fill-opacity:1;stroke-opacity:1;" /><path d="M 630.77246 163.275 L 517.8862 187.485" style="stroke:rgb(255,238,101);stroke-width:1" /><circle cx="517.8862" cy="187.485" r="2" style="fill:rgb(255,238,101);stroke:none;fill-opacity:1;stroke-opacity:1;" /><path d="M 517.8862 187.485 L 451.85202 205.235" style="stroke:rgb(255,238,101);stroke-width:1" /><circle cx="451.85202" cy="205.235" r="2" style="fill:rgb(255,238,101);stroke:none;fill-opacity:1;stroke-opacity:1;" /><path d="M 451.85202 205.235 L 405 216.1725" style="stroke:rgb(255,238,101);stroke-width:1" /><circle cx="405" cy="216.1725" r="2" style="fill:rgb(255,238,101);stroke:none;fill-opacity:1;stroke-opacity:1;" /><path d="M 405 216.1725 L 338.96576 223.65" style="stroke:rgb(255,238,101);stroke-width:1" /><circle cx="338.96576" cy="223.65" r="2" style="fill:rgb(255,238,101);stroke:none;fill-opacity:1;stroke-opacity:1;" /><path d="M 338.96576 223.65 L 292.11377 228.41" style="stroke:rgb(255,238,101);stroke-width:1" /><circle cx="292.11377" cy="228.41" r="2" style="fill:rgb(255,238,101);stroke:none;fill-opacity:1;stroke-opacity:1;" /><path d="M 292.11377 228.41 L 255.7725 233.1275" style="stroke:rgb(255,238,101);stroke-width:1" /><circle cx="255.7725" cy="233.1275" r="2" style="fill:rgb(255,238,101);stroke:none;fill-opacity:1;stroke-opacity:1;" /><path d="M 255.7725 233.1275 L 142.88626 245.5075" style="stroke:rgb(255,238,101);stroke-width:1" /><circle cx="142.88626" cy="245.5075" r="2" style="fill:rgb(255,238,101);stroke:none;fill-opacity:1;stroke-opacity:1;" /><path d="M 142.88626 245.5075 L 30 251.715" style="stroke:rgb(255,238,101);stroke-width:1" /><circle cx="30" cy="251.715" r="2" style="fill:rgb(255,238,101);stroke:none;fill-opacity:1;stroke-opacity:1;" /><circle cx="780" cy="20" r="2" style="fill:rgb(253,204,229);stroke:none;fill-opacity:1;stroke-opacity:1;" /><path d="M 780 20 L 630.77246 111.240005" style="stroke:rgb(253,204,229);stroke-width:1" /><circle cx="630.77246" cy="111.240005" r="2" style="fill:rgb(253,204,229);stroke:none;fill-opacity:1;stroke-opacity:1;" /><path d="M 630.77246 111.240005 L 517.8862 157.235" style="stroke:rgb(253,204,229);stroke-width:1" /><circle cx="517.8862" cy="157.235" r="2" style="fill:rgb(253,204,229);stroke:none;fill-opacity:1;stroke-opacity:1;" /><path d="M 517.8862 157.235 L 451.85202 177.58499" style="stroke:rgb(253,204,229);stroke-width:1" /><circle cx="451.85202" cy="177.58499" r="2" style="fill:rgb(253,204,229);stroke:none;fill-opacity:1;stroke-opacity:1;" /><path d="M 451.85202 177.58499 L 405 189.73999" style="stroke:rgb(253,204,229);stroke-width:1" /><circle cx="405" cy="189.73999" r="2" style="fill:rgb(253,204,229);stroke:none;fill-opacity:1;stroke-opacity:1;" /><path d="M 405 189.73999 L 338.96576 204.1275" style="stroke:rgb(253,204,229);stroke-width:1" /><circle cx="338.96576" cy="204.1275" r="2" style="fill:rgb(253,204,229);stroke:none;fill-opacity:1;stroke-opacity:1;" /><path d="M 338.96576 204.1275 L 292.11377 212.6725" style="stroke:rgb(253,204,229);stroke-width:1" /><circle cx="292.11377" cy="212.6725" r="2" style="fill:rgb(253,204,229);stroke:none;fill-opacity:1;stroke-opacity:1;" /><path d="M 292.11377 212.6725 L 255.7725 218.48" style="stroke:rgb(253,204,229);stroke-width:1" /><circle cx="255.7725" cy="218.48" r="2" style="fill:rgb(253,204,229);stroke:none;fill-opacity:1;stroke-opacity:1;" /><path d="M 255.7725 218.48 L 142.88626 232.9025" style="stroke:rgb(253,204,229);stroke-width:1" /><circle cx="142.88626" cy="232.9025" r="2" style="fill:rgb(253,204,229);stroke:none;fill-opacity:1;stroke-opacity:1;" /><path d="M 142.88626 232.9025 L 30 243.075" style="stroke:rgb(253,204,229);stroke-width:1" /><circle cx="30" cy="243.075" r="2" style="fill:rgb(253,204,229);stroke:none;fill-opacity:1;stroke-opacity:1;" /><circle cx="780" cy="144.30249" r="2" style="fill:rgb(255,181,90);stroke:none;fill-opacity:1;stroke-opacity:1;" /><path d="M 780 144.30249 L 630.77246 187.3775" style="stroke:rgb(255,181,90);stroke-width:1" /><circle cx="630.77246" cy="187.3775" r="2" style="fill:rgb(255,181,90);stroke:none;fill-opacity:1;stroke-opacity:1;" /><path d="M 630.77246 187.3775 L 517.8862 207.89" style="stroke:rgb(255,181,90);stroke-width:1" /><circle cx="517.8862" cy="207.89" r="2" style="fill:rgb(255,181,90);stroke:none;fill-opacity:1;stroke-opacity:1;" /><path d="M 517.8862 207.89 L 451.85202 216.055" style="stroke:rgb(255,181,90);stroke-width:1" /><circle cx="451.85202" cy="216.055" r="2" style="fill:rgb(255,181,90);stroke:none;fill-opacity:1;stroke-opacity:1;" /><path d="M 451.85202 216.055 L 405 220.2325" style="stroke:rgb(255,181,90);stroke-width:1" /><circle cx="405" cy="220.2325" r="2" style="fill:rgb(255,181,90);stroke:none;fill-opacity:1;stroke-opacity:1;" /><path d="M 405 220.2325 L 338.96576 223.5175" style="stroke:rgb(255,181,90);stroke-width:1" /><circle cx="338.96576" cy="223.5175" r="2" style="fill:rgb(255,181,90);stroke:none;fill-opacity:1;stroke-opacity:1;" /><path d="M 338.96576 223.5175 L 292.11377 223.14749" style="stroke:rgb(255,181,90);stroke-width:1" /><circle cx="292.11377" cy="223.14749" r="2" style="fill:rgb(255,181,90);stroke:none;fill-opacity:1;stroke-opacity:1;" /><path d="M 292.11377 223.14749 L 255.7725 219.97751" style="stroke:rgb(255,181,90);stroke-width:1" /><circle cx="255.7725" cy="219.97751" r="2" style="fill:rgb(255,181,90);stroke:none;fill-opacity:1;stroke-opacity:1;" /><path d="M 255.7725 219.97751 L 142.88626 234" style="stroke:rgb(255,181,90);stroke-width:1" /><circle cx="142.88626" cy="234" r="2" style="fill:rgb(255,181,90);stroke:none;fill-opacity:1;stroke-opacity:1;" /><path d="M 142.88626 234 L 30 243.8125" style="stroke:rgb(255,181,90);stroke-width:1" /><circle cx="30" cy="243.8125" r="2" style="fill:rgb(255,181,90);stroke:none;fill-opacity:1;stroke-opacity:1;" /><circle cx="780" cy="138.715" r="2" style="fill:rgb(119,211,179);stroke:none;fill-opacity:1;stroke-opacity:1;" /><path d="M 780 138.715 L 630.77246 186.2625" style="stroke:rgb(119,211,179);stroke-width:1" /><circle cx="630.77246" cy="186.2625" r="2" style="fill:rgb(119,211,179);stroke:none;fill-opacity:1;stroke-opacity:1;" /><path d="M 630.77246 186.2625 L 517.8862 210.1575" style="stroke:rgb(119,211,179);stroke-width:1" /><circle cx="517.8862" cy="210.1575" r="2" style="fill:rgb(119,211,179);stroke:none;fill-opacity:1;stroke-opacity:1;" /><path d="M 517.8862 210.1575 L 451.85202 220.755" style="stroke:rgb(119,211,179);stroke-width:1" /><circle cx="451.85202" cy="220.755" r="2" style="fill:rgb(119,211,179);stroke:none;fill-opacity:1;stroke-opacity:1;" /><path d="M 451.85202 220.755 L 405 227.1375" style="stroke:rgb(119,211,179);stroke-width:1" /><circle cx="405" cy="227.1375" r="2" style="fill:rgb(119,211,179);stroke:none;fill-opacity:1;stroke-opacity:1;" /><path d="M 405 227.1375 L 338.96576 234.72751" style="stroke:rgb(119,211,179);stroke-width:1" /><circle cx="338.96576" cy="234.72751" r="2" style="fill:rgb(119,211,179);stroke:none;fill-opacity:1;stroke-opacity:1;" /><path d="M 338.96576 234.72751 L 292.11377 239.27249" style="stroke:rgb(119,211,179);stroke-width:1" /><circle cx="292.11377" cy="239.27249" r="2" style="fill:rgb(119,211,179);stroke:none;fill-opacity:1;stroke-opacity:1;" /><path d="M 292.11377 239.27249 L 255.7725 242.42" style="stroke:rgb(119,211,179);stroke-width:1" /><circle cx="255.7725" cy="242.42" r="2" style="fill:rgb(119,211,179);stroke:none;fill-opacity:1;stroke-opacity:1;" /><path d="M 255.7725 242.42 L 142.88626 250.4275" style="stroke:rgb(119,211,179);stroke-width:1" /><circle cx="142.88626" cy="250.4275" r="2" style="fill:rgb(119,211,179);stroke:none;fill-opacity:1;stroke-opacity:1;" /><path d="M 142.88626 250.4275 L 30 256.05" style="stroke:rgb(119,211,179);stroke-width:1" /><circle cx="30" cy="256.05" r="2" style="fill:rgb(119,211,179);stroke:none;fill-opacity:1;stroke-opacity:1;" /><circle cx="780" cy="124.712494" r="2" style="fill:rgb(120,68,33);stroke:none;fill-opacity:1;stroke-opacity:1;" /><path d="M 780 124.712494 L 630.77246 177.2775" style="stroke:rgb(120,68,33);stroke-width:1" /><circle cx="630.77246" cy="177.2775" r="2" style="fill:rgb(120,68,33);stroke:none;fill-opacity:1;stroke-opacity:1;" /><path d="M 630.77246 177.2775 L 517.8862 203.84" style="stroke:rgb(120,68,33);stroke-width:1" /><circle cx="517.8862" cy="203.84" r="2" style="fill:rgb(120,68,33);stroke:none;fill-opacity:1;stroke-opacity:1;" /><path d="M 517.8862 203.84 L 451.85202 215.5775" style="stroke:rgb(120,68,33);stroke-width:1" /><circle cx="451.85202" cy="215.5775" r="2" style="fill:rgb(120,68,33);stroke:none;fill-opacity:1;stroke-opacity:1;" /><path d="M 451.85202 215.5775 L 405 222.505" style="stroke:rgb(120,68,33);stroke-width:1" /><circle cx="405" cy="222.505" r="2" style="fill:rgb(120,68,33);stroke:none;fill-opacity:1;stroke-opacity:1;" /><path d="M 405 222.505 L 338.96576 230.735" style="stroke:rgb(120,68,33);stroke-width:1" /><circle cx="338.96576" cy="230.735" r="2" style="fill:rgb(120,68,33);stroke:none;fill-opacity:1;stroke-opacity:1;" /><path d="M 338.96576 230.735 L 292.11377 235.55" style="stroke:rgb(120,68,33);stroke-width:1" /><circle cx="292.11377" cy="235.55" r="2" style="fill:rgb(120,68,33);stroke:none;fill-opacity:1;stroke-opacity:1;" /><path d="M 292.11377 235.55 L 255.7725 238.8125" style="stroke:rgb(120,68,33);stroke-width:1" /><circle cx="255.7725" cy="238.8125" r="2" style="fill:rgb(120,68,33);stroke:none;fill-opacity:1;stroke-opacity:1;" /><path d="M 255.7725 238.8125 L 142.88626 246.6575" style="stroke:rgb(120,68,33);stroke-width:1" /><circle cx="142.88626" cy="246.6575" r="2" style="fill:rgb(120,68,33);stroke:none;fill-opacity:1;stroke-opacity:1;" /><path d="M 142.88626 246.6575 L 30 251.72" style="stroke:rgb(120,68,33);stroke-width:1" /><circle cx="30" cy="251.72" r="2" style="fill:rgb(120,68,33);stroke:none;fill-opacity:1;stroke-opacity:1;" /><circle cx="780" cy="94.2825" r="2" style="fill:rgb(128,214,87);stroke:none;fill-opacity:1;stroke-opacity:1;" /><path d="M 780 94.2825 L 630.77246 159.6325" style="stroke:rgb(128,214,87);stroke-width:1" /><circle cx="630.77246" cy="159.6325" r="2" style="fill:rgb(128,214,87);stroke:none;fill-opacity:1;stroke-opacity:1;" /><path d="M 630.77246 159.6325 L 517.8862 191.57251" style="stroke:rgb(128,214,87);stroke-width:1" /><circle cx="517.8862" cy="191.57251" r="2" style="fill:rgb(128,214,87);stroke:none;fill-opacity:1;stroke-opacity:1;" /><path d="M 517.8862 191.57251 L 451.85202 206.39499" style="stroke:rgb(128,214,87);stroke-width:1" /><circle cx="451.85202" cy="206.39499" r="2" style="fill:rgb(128,214,87);stroke:none;fill-opacity:1;stroke-opacity:1;" /><path d="M 451.85202 206.39499 L 405 214.5875" style="stroke:rgb(128,214,87);stroke-width:1" /><circle cx="405" cy="214.5875" r="2" style="fill:rgb(128,214,87);stroke:none;fill-opacity:1;stroke-opacity:1;" /><path d="M 405 214.5875 L 338.96576 224.3875" style="stroke:rgb(128,214,87);stroke-width:1" /><circle cx="338.96576" cy="224.3875" r="2" style="fill:rgb(128,214,87);stroke:none;fill-opacity:1;stroke-opacity:1;" /><path d="M 338.96576 224.3875 L 292.11377 230.6425" style="stroke:rgb(128,214,87);stroke-width:1" /><circle cx="292.11377" cy="230.6425" r="2" style="fill:rgb(128,214,87);stroke:none;fill-opacity:1;stroke-opacity:1;" /><path d="M 292.11377 230.6425 L 255.7725 235.0075" style="stroke:rgb(128,214,87);stroke-width:1" /><circle cx="255.7725" cy="235.0075" r="2" style="fill:rgb(128,214,87);stroke:none;fill-opacity:1;stroke-opacity:1;" /><path d="M 255.7725 235.0075 L 142.88626 245.225" style="stroke:rgb(128,214,87);stroke-width:1" /><circle cx="142.88626" cy="245.225" r="2" style="fill:rgb(128,214,87);stroke:none;fill-opacity:1;stroke-opacity:1;" /><path d="M 142.88626 245.225 L 30 252.77" style="stroke:rgb(128,214,87);stroke-width:1" /><circle cx="30" cy="252.77" r="2" style="fill:rgb(128,214,87);stroke:none;fill-opacity:1;stroke-opacity:1;" /><circle cx="780" cy="135.3175" r="2" style="fill:rgb(253,204,229);stroke:none;fill-opacity:1;stroke-opacity:1;" /><path d="M 780 135.3175 L 630.77246 183.985" style="stroke:rgb(253,204,229);stroke-width:1" /><circle cx="630.77246" cy="183.985" r="2" style="fill:rgb(253,204,229);stroke:none;fill-opacity:1;stroke-opacity:1;" /><path d="M 630.77246 183.985 L 517.8862 208.4575" style="stroke:rgb(253,204,229);stroke-width:1" /><circle cx="517.8862" cy="208.4575" r="2" style="fill:rgb(253,204,229);stroke:none;fill-opacity:1;stroke-opacity:1;" /><path d="M 517.8862 208.4575 L 451.85202 219.2975" style="stroke:rgb(253,204,229);stroke-width:1" /><circle cx="451.85202" cy="219.2975" r="2" style="fill:rgb(253,204,229);stroke:none;fill-opacity:1;stroke-opacity:1;" /><path d="M 451.85202 219.2975 L 405 225.825" style="stroke:rgb(253,204,229);stroke-width:1" /><circle cx="405" cy="225.825" r="2" style="fill:rgb(253,204,229);stroke:none;fill-opacity:1;stroke-opacity:1;" /><path d="M 405 225.825 L 338.96576 233.4875" style="stroke:rgb(253,204,229);stroke-width:1" /><circle cx="338.96576" cy="233.4875" r="2" style="fill:rgb(253,204,229);stroke:none;fill-opacity:1;stroke-opacity:1;" /><path d="M 338.96576 233.4875 L 292.11377 238.0525" style="stroke:rgb(253,204,229);stroke-width:1" /><circle cx="292.11377" cy="238.0525" r="2" style="fill:rgb(253,204,229);stroke:none;fill-opacity:1;stroke-opacity:1;" /><path d="M 292.11377 238.0525 L 255.7725 241.14749" style="stroke:rgb(253,204,229);stroke-width:1" /><circle cx="255.7725" cy="241.14749" r="2" style="fill:rgb(253,204,229);stroke:none;fill-opacity:1;stroke-opacity:1;" /><path d="M 255.7725 241.14749 L 142.88626 248.815" style="stroke:rgb(253,204,229);stroke-width:1" /><circle cx="142.88626" cy="248.815" r="2" style="fill:rgb(253,204,229);stroke:none;fill-opacity:1;stroke-opacity:1;" /><path d="M 142.88626 248.815 L 30 254.265" style="stroke:rgb(253,204,229);stroke-width:1" /><circle cx="30" cy="254.265" r="2" style="fill:rgb(253,204,229);stroke:none;fill-opacity:1;stroke-opacity:1;" /><rect x="676" y="16" width="80" height="217" ry="4" style="fill:rgb(30,30,30);stroke:none;fill-opacity:0.8;stroke-opacity:1;" /><rect x="680" y="20" width="20" height="20" ry="2" style="fill:rgb(253,127,111);stroke:none;fill-opacity:1;stroke-opacity:1;" /><text x="705" y="33" style="font-size:10px;fill:rgb(255,255,255);text-anchor:start;text-align:left;"> fwd-diff </text><rect x="680" y="41" width="20" height="20" ry="2" style="fill:rgb(255,181,90);stroke:none;fill-opacity:1;stroke-opacity:1;" /><text x="705" y="54" style="font-size:10px;fill:rgb(255,255,255);text-anchor:start;text-align:left;"> hain </text><rect x="680" y="62" width="20" height="20" ry="2" style="fill:rgb(139,211,199);stroke:none;fill-opacity:1;stroke-opacity:1;" /><text x="705" y="75" style="font-size:10px;fill:rgb(255,255,255);text-anchor:start;text-align:left;"> hfd </text><rect x="680" y="83" width="20" height="20" ry="2" style="fill:rgb(50,125,209);stroke:none;fill-opacity:1;stroke-opacity:1;" /><text x="705" y="96" style="font-size:10px;fill:rgb(255,255,255);text-anchor:start;text-align:left;"> levien </text><rect x="680" y="104" width="20" height="20" ry="2" style="fill:rgb(119,211,179);stroke:none;fill-opacity:1;stroke-opacity:1;" /><text x="705" y="117" style="font-size:10px;fill:rgb(255,255,255);text-anchor:start;text-align:left;"> levien-linear </text><rect x="680" y="125" width="20" height="20" ry="2" style="fill:rgb(253,204,229);stroke:none;fill-opacity:1;stroke-opacity:1;" /><text x="705" y="138" style="font-size:10px;fill:rgb(255,255,255);text-anchor:start;text-align:left;"> levien-quads </text><rect x="680" y="146" width="20" height="20" ry="2" style="fill:rgb(128,214,87);stroke:none;fill-opacity:1;stroke-opacity:1;" /><text x="705" y="159" style="font-size:10px;fill:rgb(255,255,255);text-anchor:start;text-align:left;"> linear </text><rect x="680" y="167" width="20" height="20" ry="2" style="fill:rgb(255,238,101);stroke:none;fill-opacity:1;stroke-opacity:1;" /><text x="705" y="180" style="font-size:10px;fill:rgb(255,255,255);text-anchor:start;text-align:left;"> recursive </text><rect x="680" y="188" width="20" height="20" ry="2" style="fill:rgb(253,204,229);stroke:none;fill-opacity:1;stroke-opacity:1;" /><text x="705" y="201" style="font-size:10px;fill:rgb(255,255,255);text-anchor:start;text-align:left;"> wang </text><rect x="680" y="209" width="20" height="20" ry="2" style="fill:rgb(120,68,33);stroke:none;fill-opacity:1;stroke-opacity:1;" /><text x="705" y="222" style="font-size:10px;fill:rgb(255,255,255);text-anchor:start;text-align:left;"> yzerman </text><text x="400" y="30" style="font-size:20px;fill:rgb(255,255,255);text-anchor:middle;text-align:center;"> All </text><text x="400" y="42" style="font-size:8px;fill:rgb(200,200,200);text-anchor:middle;text-align:center;"> Normalized edge count score (lower is better) </text></svg>